<svg width="139" height="139" viewBox="0 0 139 139" fill="none" xmlns="http://www.w3.org/2000/svg">
<rect width="139" height="139" fill="#F5F5F5"/>
<g id="Group 117">
<g id="Group 65">
<g id="Rectangle 43" filter="url(#filter0_d_0_1)">
<path d="M-107 84C-107 72.9543 -98.0457 64 -87 64H240C251.046 64 260 72.9543 260 84V309H-87C-98.0457 309 -107 300.046 -107 289V84Z" fill="white"/>
<path d="M-106.5 84C-106.5 73.2305 -97.7696 64.5 -87 64.5H240C250.77 64.5 259.5 73.2304 259.5 84V308.5H-87C-97.7695 308.5 -106.5 299.77 -106.5 289V84Z" stroke="#F5F5F5"/>
</g>
</g>
<g id="Vector" filter="url(#filter1_d_0_1)">
<path d="M129 65.5C129 98.3609 102.361 125 69.5 125C36.6391 125 10 98.3609 10 65.5C10 32.6391 36.6391 6 69.5 6C102.361 6 129 32.6391 129 65.5Z" fill="white"/>
<path d="M42 86.5451V49.3827C42.0408 49.3055 42.075 49.225 42.1021 49.142C42.6162 47.0819 43.8997 45.7656 45.9853 45.4046C47.0464 45.2223 48.1731 45.3244 49.2487 45.3062C49.7227 45.3062 50.2004 45.3062 50.7072 45.3062C50.7072 44.4092 50.7072 43.5852 50.7072 42.7538C50.7072 41.7074 51.3562 41 52.3115 41C53.2669 41 53.9195 41.7037 53.9232 42.7502C53.9232 43.5852 53.9232 44.4202 53.9232 45.2588H67.8882C67.8882 44.3983 67.8882 43.5779 67.8882 42.7575C67.8882 41.7074 68.5336 41 69.4889 41C70.4443 41 71.1115 41.711 71.1115 42.7575C71.1115 43.5925 71.1115 44.4275 71.1115 45.2697H85.0766V42.7721C85.0766 41.722 85.722 41.0146 86.6773 41.0109C87.6326 41.0073 88.2926 41.711 88.2962 42.7538V45.3062C89.6198 45.3062 90.885 45.3062 92.1539 45.3062C92.7911 45.2989 93.4233 45.4188 94.0136 45.6588C94.6038 45.8988 95.1403 46.2542 95.5915 46.7041C96.0428 47.154 96.3997 47.6894 96.6416 48.2789C96.8834 48.8684 97.0051 49.5003 96.9998 50.1375C96.9998 62.0193 96.9998 73.9024 96.9998 85.7867C97.0061 86.4237 96.8853 87.0555 96.6443 87.6452C96.4033 88.2349 96.0471 88.7706 95.5965 89.2209C95.1459 89.6712 94.6099 90.027 94.02 90.2675C93.4302 90.508 92.7982 90.6284 92.1612 90.6216H46.8313C46.1588 90.6278 45.4928 90.4909 44.8773 90.22C44.2618 89.949 43.7111 89.5502 43.2616 89.05C42.6462 88.3284 42.2135 87.4692 42 86.5451ZM45.2233 59.7125V60.1755C45.2233 68.6372 45.2233 77.1013 45.2233 85.5679C45.2233 86.7712 45.8942 87.391 47.1521 87.391H91.8148C93.153 87.391 93.7692 86.7675 93.7692 85.4111V59.7125H45.2233ZM93.7656 56.4309C93.7656 54.265 93.7947 52.1356 93.7656 50.0098C93.7557 49.8024 93.7051 49.599 93.6166 49.4112C93.528 49.2234 93.4033 49.0548 93.2495 48.9153C93.0957 48.7758 92.916 48.6679 92.7204 48.598C92.5249 48.528 92.3176 48.4973 92.1102 48.5076C91.3262 48.5076 90.535 48.5076 89.7474 48.5076H88.3071V49.6015C88.3071 50.1557 88.3071 50.6953 88.3071 51.2678C88.2849 51.6796 88.1049 52.067 87.8046 52.3496C87.5042 52.6322 87.1066 52.7883 86.6942 52.7855C86.2818 52.7827 85.8863 52.6212 85.5899 52.3345C85.2934 52.0478 85.1187 51.658 85.1021 51.2459C85.0839 50.3416 85.1021 49.4228 85.1021 48.5441H71.1115V49.6051C71.1115 50.1593 71.1115 50.699 71.1115 51.2678C71.1086 51.6933 70.9368 52.1002 70.6339 52.399C70.331 52.6978 69.9217 52.8641 69.4962 52.8612C69.0707 52.8583 68.6638 52.6865 68.365 52.3836C68.0662 52.0806 67.8999 51.6714 67.9028 51.2459C67.9028 50.3416 67.9028 49.4228 67.9028 48.5441H53.9195V49.7145C53.9195 50.214 53.9195 50.7172 53.9195 51.2167C53.9229 51.6422 53.7571 52.0517 53.4587 52.3549C53.3109 52.5051 53.1349 52.6247 52.9409 52.7068C52.7469 52.789 52.5386 52.8322 52.328 52.8338C51.9025 52.8372 51.493 52.6714 51.1898 52.373C50.8865 52.0745 50.7142 51.6678 50.7108 51.2423C50.7108 50.338 50.7108 49.4192 50.7108 48.5003C49.4347 48.5003 48.2387 48.5003 47.0427 48.5003C45.9051 48.5003 45.2196 49.1676 45.2196 50.2942C45.2196 51.8001 45.2196 53.3024 45.2196 54.8046V56.4527L93.7656 56.4309Z" fill="#6D6E71"/>
<path d="M55.6954 68.2848C55.123 68.2848 54.5505 68.2848 53.9817 68.2848C53.5562 68.2848 53.1481 68.1157 52.8473 67.8149C52.5464 67.514 52.3774 67.1059 52.3774 66.6804C52.3774 66.2549 52.5464 65.8468 52.8473 65.546C53.1481 65.2451 53.5562 65.0761 53.9817 65.0761C55.1606 65.0566 56.3384 65.0566 57.5149 65.0761C57.9404 65.0761 58.3485 65.2451 58.6493 65.546C58.9502 65.8468 59.1192 66.2549 59.1192 66.6804C59.1192 67.1059 58.9502 67.514 58.6493 67.8149C58.3485 68.1157 57.9404 68.2848 57.5149 68.2848C56.9096 68.2957 56.3007 68.2848 55.6954 68.2848Z" fill="#6D6E71"/>
<path d="M69.4922 68.2848C68.9197 68.2848 68.3509 68.2848 67.7785 68.2848C67.5611 68.2951 67.3439 68.2612 67.14 68.1852C66.9361 68.1092 66.7498 67.9925 66.5923 67.8424C66.4348 67.6922 66.3094 67.5116 66.2237 67.3116C66.1381 67.1116 66.0939 66.8962 66.0939 66.6786C66.0939 66.461 66.1381 66.2456 66.2237 66.0456C66.3094 65.8456 66.4348 65.665 66.5923 65.5148C66.7498 65.3647 66.9361 65.248 67.14 65.172C67.3439 65.0959 67.5611 65.0621 67.7785 65.0724C68.9234 65.0724 70.0659 65.0724 71.2059 65.0724C71.4233 65.0621 71.6405 65.0959 71.8444 65.172C72.0483 65.248 72.2346 65.3647 72.3921 65.5148C72.5496 65.665 72.675 65.8456 72.7606 66.0456C72.8463 66.2456 72.8904 66.461 72.8904 66.6786C72.8904 66.8962 72.8463 67.1116 72.7606 67.3116C72.675 67.5116 72.5496 67.6922 72.3921 67.8424C72.2346 67.9925 72.0483 68.1092 71.8444 68.1852C71.6405 68.2612 71.4233 68.2951 71.2059 68.2848C70.6335 68.2921 70.0646 68.2848 69.4922 68.2848Z" fill="#FF8B00"/>
<path d="M83.2461 68.2848C82.6554 68.2848 82.0647 68.2848 81.4776 68.2848C81.0521 68.2848 80.6441 68.1157 80.3432 67.8149C80.0423 67.514 79.8733 67.1059 79.8733 66.6804C79.8733 66.2549 80.0423 65.8468 80.3432 65.546C80.6441 65.2451 81.0521 65.0761 81.4776 65.0761C82.659 65.0566 83.838 65.0566 85.0145 65.0761C85.44 65.0761 85.8481 65.2451 86.1489 65.546C86.4498 65.8468 86.6188 66.2549 86.6188 66.6804C86.6188 67.1059 86.4498 67.514 86.1489 67.8149C85.8481 68.1157 85.44 68.2848 85.0145 68.2848C84.4238 68.2957 83.8331 68.2848 83.2461 68.2848Z" fill="#FF8B00"/>
<path d="M55.7208 75.1579C55.1484 75.1579 54.5759 75.1579 54.0071 75.1579C53.5944 75.1382 53.205 74.9604 52.9199 74.6614C52.6347 74.3623 52.4757 73.965 52.4757 73.5517C52.4757 73.1385 52.6347 72.7412 52.9199 72.4421C53.205 72.1431 53.5944 71.9652 54.0071 71.9456C55.1666 71.9456 56.3261 71.9456 57.4856 71.9456C57.8983 71.9652 58.2877 72.1431 58.5728 72.4421C58.858 72.7412 59.017 73.1385 59.017 73.5517C59.017 73.965 58.858 74.3623 58.5728 74.6614C58.2877 74.9604 57.8983 75.1382 57.4856 75.1579C56.8913 75.1688 56.3079 75.1579 55.7208 75.1579Z" fill="#6D6E71"/>
<path d="M69.4961 75.1579C68.909 75.1579 68.3183 75.1579 67.7276 75.1579C67.3021 75.1579 66.8941 74.9889 66.5932 74.688C66.2923 74.3871 66.1233 73.9791 66.1233 73.5536C66.1233 73.1281 66.2923 72.72 66.5932 72.4191C66.8941 72.1182 67.3021 71.9492 67.7276 71.9492C68.909 71.9298 70.088 71.9298 71.2645 71.9492C71.69 71.9492 72.0981 72.1182 72.3989 72.4191C72.6998 72.72 72.8688 73.1281 72.8688 73.5536C72.8688 73.9791 72.6998 74.3871 72.3989 74.688C72.0981 74.9889 71.69 75.1579 71.2645 75.1579C70.6738 75.1688 70.0868 75.1579 69.4961 75.1579Z" fill="#FF8B00"/>
<path d="M83.2353 71.9419C83.826 71.9419 84.4131 71.9419 85.0038 71.9419C85.4165 71.9616 85.8058 72.1394 86.091 72.4385C86.3761 72.7375 86.5352 73.1349 86.5352 73.5481C86.5352 73.9613 86.3761 74.3587 86.091 74.6577C85.8058 74.9568 85.4165 75.1346 85.0038 75.1543C83.8272 75.1688 82.6495 75.1688 81.4706 75.1543C81.0451 75.1543 80.637 74.9852 80.3361 74.6844C80.0352 74.3835 79.8662 73.9754 79.8662 73.5499C79.8662 73.1244 80.0352 72.7164 80.3361 72.4155C80.637 72.1146 81.0451 71.9456 81.4706 71.9456C82.0503 71.9273 82.6446 71.9419 83.2353 71.9419Z" fill="#FF8B00"/>
<path d="M55.7279 82.0311C55.1554 82.0311 54.5829 82.0311 54.0141 82.0311C53.5886 82.0311 53.1806 81.862 52.8797 81.5611C52.5788 81.2603 52.4098 80.8522 52.4098 80.4267C52.4098 80.0012 52.5788 79.5931 52.8797 79.2923C53.1806 78.9914 53.5886 78.8224 54.0141 78.8224C55.1785 78.8078 56.3392 78.8078 57.4963 78.8224C57.909 78.842 58.2984 79.0199 58.5835 79.3189C58.8686 79.618 59.0277 80.0153 59.0277 80.4285C59.0277 80.8418 58.8686 81.2391 58.5835 81.5382C58.2984 81.8372 57.909 82.015 57.4963 82.0347C56.891 82.042 56.3149 82.0311 55.7279 82.0311Z" fill="#6D6E71"/>
<path d="M69.4927 82.0311C68.9202 82.0311 68.3477 82.0311 67.7789 82.0311C67.5678 82.0311 67.3587 81.9895 67.1636 81.9087C66.9685 81.8278 66.7912 81.7094 66.6419 81.5601C66.4926 81.4108 66.3741 81.2335 66.2933 81.0384C66.2125 80.8433 66.1709 80.6342 66.1709 80.4231C66.1709 80.2119 66.2125 80.0028 66.2933 79.8077C66.3741 79.6126 66.4926 79.4354 66.6419 79.286C66.7912 79.1367 66.9685 79.0183 67.1636 78.9375C67.3587 78.8567 67.5678 78.8151 67.7789 78.8151C68.9238 78.8151 70.0663 78.8151 71.2064 78.8151C71.4175 78.8151 71.6266 78.8567 71.8217 78.9375C72.0168 79.0183 72.1941 79.1367 72.3434 79.286C72.4927 79.4354 72.6112 79.6126 72.692 79.8077C72.7728 80.0028 72.8144 80.2119 72.8144 80.4231C72.8144 80.6342 72.7728 80.8433 72.692 81.0384C72.6112 81.2335 72.4927 81.4108 72.3434 81.5601C72.1941 81.7094 72.0168 81.8278 71.8217 81.9087C71.6266 81.9895 71.4175 82.0311 71.2064 82.0311C70.6339 82.0383 70.0651 82.0311 69.4927 82.0311Z" fill="#FF8B00"/>
<path d="M83.2097 82.0311C82.6372 82.0311 82.0684 82.0311 81.4959 82.0311C81.0832 82.0114 80.6939 81.8336 80.4087 81.5345C80.1236 81.2355 79.9645 80.8381 79.9645 80.4249C79.9645 80.0117 80.1236 79.6143 80.4087 79.3153C80.6939 79.0162 81.0832 78.8384 81.4959 78.8187C82.6554 78.8187 83.8162 78.8187 84.9781 78.8187C85.4036 78.8187 85.8117 78.9878 86.1125 79.2886C86.4134 79.5895 86.5824 79.9976 86.5824 80.4231C86.5824 80.8486 86.4134 81.2566 86.1125 81.5575C85.8117 81.8584 85.4036 82.0274 84.9781 82.0274C84.3874 82.042 83.8004 82.0311 83.2097 82.0311Z" fill="#FF8B00"/>
</g>
</g>
<defs>
<filter id="filter0_d_0_1" x="-117" y="58" width="387" height="265" filterUnits="userSpaceOnUse" color-interpolation-filters="sRGB">
<feFlood flood-opacity="0" result="BackgroundImageFix"/>
<feColorMatrix in="SourceAlpha" type="matrix" values="0 0 0 0 0 0 0 0 0 0 0 0 0 0 0 0 0 0 127 0" result="hardAlpha"/>
<feOffset dy="4"/>
<feGaussianBlur stdDeviation="5"/>
<feComposite in2="hardAlpha" operator="out"/>
<feColorMatrix type="matrix" values="0 0 0 0 0 0 0 0 0 0 0 0 0 0 0 0 0 0 0.15 0"/>
<feBlend mode="normal" in2="BackgroundImageFix" result="effect1_dropShadow_0_1"/>
<feBlend mode="normal" in="SourceGraphic" in2="effect1_dropShadow_0_1" result="shape"/>
</filter>
<filter id="filter1_d_0_1" x="0" y="0" width="139" height="139" filterUnits="userSpaceOnUse" color-interpolation-filters="sRGB">
<feFlood flood-opacity="0" result="BackgroundImageFix"/>
<feColorMatrix in="SourceAlpha" type="matrix" values="0 0 0 0 0 0 0 0 0 0 0 0 0 0 0 0 0 0 127 0" result="hardAlpha"/>
<feOffset dy="4"/>
<feGaussianBlur stdDeviation="5"/>
<feComposite in2="hardAlpha" operator="out"/>
<feColorMatrix type="matrix" values="0 0 0 0 0 0 0 0 0 0 0 0 0 0 0 0 0 0 0.15 0"/>
<feBlend mode="normal" in2="BackgroundImageFix" result="effect1_dropShadow_0_1"/>
<feBlend mode="normal" in="SourceGraphic" in2="effect1_dropShadow_0_1" result="shape"/>
</filter>
</defs>
</svg>
