<svg width="235" height="238" viewBox="0 0 235 238" fill="none" xmlns="http://www.w3.org/2000/svg">
<g id="Vector" filter="url(#filter0_d_800_2526)">
<path d="M117.367 212.5C63.5927 212.5 20 168.288 20 113.75C20 59.2119 63.5927 15 117.367 15C171.141 15 214.734 59.2119 214.734 113.75V212.5H117.367Z" fill="#82AFB8"/>
<path d="M117.675 36.5625C105.78 36.5625 96.1064 46.3731 96.1064 58.4375C96.1064 70.5019 105.78 80.3125 117.675 80.3125C129.57 80.3125 139.244 70.5019 139.244 58.4375C139.244 46.3731 129.566 36.5625 117.675 36.5625ZM117.675 78.7469C106.63 78.7469 97.6501 69.6344 97.6501 58.4375C97.6501 47.2407 106.63 38.1283 117.675 38.1283C128.72 38.1283 137.7 47.2407 137.7 58.4375C137.7 69.6344 128.715 78.7469 117.675 78.7469Z" fill="white"/>
<path d="M131.666 49.2994C127.07 41.2239 116.891 38.462 108.933 43.1183C101.305 47.5847 98.4802 57.2567 102.312 65.1576C99.0071 58.1757 101.523 49.6741 108.25 45.7314C115.306 41.5988 124.331 44.0527 128.406 51.2091C128.832 51.9536 129.186 52.7185 129.464 53.4988L133.443 53.7966C133.078 52.2564 132.491 50.742 131.671 49.2994H131.666Z" fill="white"/>
<path d="M119.442 54.926L115.6 45.4644C115.458 45.1103 115.083 44.9151 114.719 44.9973C114.355 45.0794 114.097 45.4183 114.117 45.7981L114.628 55.9784C114.081 56.6766 113.777 57.5339 113.777 58.4324C113.777 60.6091 115.524 62.3803 117.675 62.3803C119.826 62.3803 121.573 60.6091 121.573 58.4324C121.573 56.9333 120.748 55.5985 119.447 54.926H119.442ZM117.67 60.8196C116.374 60.8196 115.316 59.7518 115.316 58.4324C115.316 57.8214 115.549 57.2413 115.964 56.7947C116.101 56.6509 116.177 56.4559 116.177 56.2556C116.177 56.2556 116.177 56.2249 116.177 56.2094L115.878 50.2697L118.121 55.7885C118.146 55.8552 118.187 55.9117 118.227 55.9681C118.237 55.9784 118.247 55.9938 118.257 56.0041C118.303 56.0554 118.348 56.1016 118.409 56.1427C118.45 56.1684 118.495 56.1941 118.541 56.2146C119.436 56.5842 120.019 57.4518 120.019 58.4272C120.019 59.7415 118.961 60.8144 117.665 60.8144L117.67 60.8196Z" fill="white"/>
<path d="M101.067 118.94V129.687H100.35C100.237 129.687 100.14 129.667 100.062 129.627C99.9876 129.587 99.9136 129.52 99.8397 129.425L93.7093 121.325C93.7191 121.45 93.7265 121.572 93.7314 121.692C93.7364 121.812 93.7388 121.925 93.7388 122.03V129.687H92.4817V118.94H93.2212C93.2853 118.94 93.3395 118.945 93.3839 118.955C93.4283 118.96 93.4677 118.972 93.5022 118.992C93.5367 119.007 93.5712 119.032 93.6057 119.067C93.6402 119.097 93.6772 119.137 93.7166 119.187L99.8471 127.28C99.8372 127.15 99.8273 127.025 99.8175 126.905C99.8126 126.78 99.8101 126.662 99.8101 126.552V118.94H101.067ZM108.618 125.06C108.618 124.75 108.574 124.467 108.485 124.212C108.401 123.952 108.275 123.73 108.108 123.545C107.945 123.355 107.746 123.21 107.509 123.11C107.272 123.005 107.004 122.952 106.703 122.952C106.072 122.952 105.571 123.14 105.202 123.515C104.837 123.885 104.61 124.4 104.521 125.06H108.618ZM109.683 128.622C109.52 128.822 109.326 128.997 109.099 129.147C108.872 129.292 108.628 129.412 108.367 129.507C108.11 129.602 107.844 129.672 107.568 129.717C107.292 129.767 107.018 129.792 106.747 129.792C106.23 129.792 105.751 129.705 105.313 129.53C104.879 129.35 104.502 129.09 104.181 128.75C103.866 128.405 103.619 127.98 103.442 127.475C103.264 126.97 103.175 126.39 103.175 125.735C103.175 125.205 103.254 124.71 103.412 124.25C103.575 123.79 103.806 123.392 104.107 123.057C104.408 122.717 104.775 122.452 105.209 122.262C105.643 122.067 106.131 121.97 106.673 121.97C107.122 121.97 107.536 122.047 107.916 122.202C108.3 122.352 108.63 122.572 108.907 122.862C109.188 123.147 109.407 123.502 109.565 123.927C109.722 124.347 109.801 124.827 109.801 125.367C109.801 125.577 109.779 125.717 109.735 125.787C109.69 125.857 109.607 125.892 109.483 125.892H104.477C104.492 126.372 104.556 126.79 104.669 127.145C104.788 127.5 104.95 127.797 105.157 128.037C105.364 128.272 105.611 128.45 105.897 128.57C106.183 128.685 106.503 128.742 106.858 128.742C107.188 128.742 107.472 128.705 107.709 128.63C107.95 128.55 108.157 128.465 108.33 128.375C108.502 128.285 108.645 128.202 108.759 128.127C108.877 128.047 108.978 128.007 109.062 128.007C109.17 128.007 109.254 128.05 109.313 128.135L109.683 128.622ZM115.848 126.267C115.242 126.287 114.724 126.337 114.295 126.417C113.871 126.492 113.523 126.592 113.252 126.717C112.986 126.842 112.791 126.99 112.668 127.16C112.55 127.33 112.491 127.52 112.491 127.73C112.491 127.93 112.523 128.102 112.587 128.247C112.651 128.392 112.737 128.512 112.846 128.607C112.959 128.697 113.09 128.765 113.237 128.81C113.39 128.85 113.553 128.87 113.726 128.87C113.957 128.87 114.169 128.847 114.362 128.802C114.554 128.752 114.734 128.682 114.901 128.592C115.074 128.502 115.237 128.395 115.389 128.27C115.547 128.145 115.7 128.002 115.848 127.842V126.267ZM111.596 123.162C112.01 122.757 112.456 122.455 112.934 122.255C113.413 122.055 113.942 121.955 114.524 121.955C114.943 121.955 115.315 122.025 115.641 122.165C115.966 122.305 116.24 122.5 116.462 122.75C116.684 123 116.851 123.302 116.965 123.657C117.078 124.012 117.135 124.402 117.135 124.827V129.687H116.55C116.422 129.687 116.324 129.667 116.255 129.627C116.186 129.582 116.131 129.497 116.092 129.372L115.944 128.652C115.747 128.837 115.555 129.002 115.367 129.147C115.18 129.287 114.983 129.407 114.776 129.507C114.569 129.602 114.347 129.675 114.11 129.725C113.878 129.78 113.62 129.807 113.334 129.807C113.043 129.807 112.769 129.767 112.513 129.687C112.256 129.602 112.032 129.477 111.84 129.312C111.653 129.147 111.502 128.94 111.389 128.69C111.28 128.435 111.226 128.135 111.226 127.79C111.226 127.49 111.307 127.202 111.47 126.927C111.633 126.647 111.897 126.4 112.261 126.185C112.626 125.97 113.102 125.795 113.689 125.66C114.275 125.52 114.995 125.44 115.848 125.42V124.827C115.848 124.237 115.722 123.792 115.471 123.492C115.219 123.187 114.852 123.035 114.369 123.035C114.044 123.035 113.77 123.077 113.548 123.162C113.331 123.242 113.141 123.335 112.979 123.44C112.821 123.54 112.683 123.632 112.565 123.717C112.451 123.797 112.338 123.837 112.224 123.837C112.136 123.837 112.059 123.815 111.995 123.77C111.931 123.72 111.877 123.66 111.832 123.59L111.596 123.162ZM120.759 123.612C120.995 123.092 121.286 122.687 121.631 122.397C121.976 122.102 122.398 121.955 122.896 121.955C123.054 121.955 123.204 121.972 123.347 122.007C123.495 122.042 123.626 122.097 123.739 122.172L123.643 123.17C123.613 123.295 123.539 123.357 123.421 123.357C123.352 123.357 123.251 123.342 123.118 123.312C122.985 123.282 122.834 123.267 122.667 123.267C122.43 123.267 122.218 123.302 122.031 123.372C121.848 123.442 121.683 123.547 121.535 123.687C121.392 123.822 121.262 123.992 121.143 124.197C121.03 124.397 120.926 124.627 120.833 124.887V129.687H119.509V122.09H120.263C120.406 122.09 120.505 122.117 120.559 122.172C120.613 122.227 120.65 122.322 120.67 122.457L120.759 123.612ZM126.627 118.64V129.687H125.311V118.64H126.627ZM135.594 122.09L131.416 131.93C131.372 132.03 131.315 132.11 131.246 132.17C131.182 132.23 131.081 132.26 130.943 132.26H129.967L131.335 129.245L128.244 122.09H129.383C129.496 122.09 129.585 122.12 129.649 122.18C129.718 122.235 129.765 122.297 129.789 122.367L131.793 127.152C131.872 127.362 131.939 127.582 131.993 127.812C132.062 127.577 132.136 127.355 132.215 127.145L134.16 122.367C134.189 122.287 134.239 122.222 134.308 122.172C134.382 122.117 134.463 122.09 134.552 122.09H135.594ZM142.281 118.64V129.687H140.964V118.64H142.281ZM147.943 121.97C148.49 121.97 148.983 122.062 149.422 122.247C149.86 122.432 150.235 122.695 150.546 123.035C150.856 123.375 151.093 123.787 151.256 124.272C151.423 124.752 151.507 125.29 151.507 125.885C151.507 126.485 151.423 127.025 151.256 127.505C151.093 127.985 150.856 128.395 150.546 128.735C150.235 129.075 149.86 129.337 149.422 129.522C148.983 129.702 148.49 129.792 147.943 129.792C147.39 129.792 146.893 129.702 146.449 129.522C146.01 129.337 145.635 129.075 145.325 128.735C145.014 128.395 144.775 127.985 144.608 127.505C144.445 127.025 144.363 126.485 144.363 125.885C144.363 125.29 144.445 124.752 144.608 124.272C144.775 123.787 145.014 123.375 145.325 123.035C145.635 122.695 146.01 122.432 146.449 122.247C146.893 122.062 147.39 121.97 147.943 121.97ZM147.943 128.75C148.682 128.75 149.234 128.5 149.599 128C149.964 127.495 150.146 126.792 150.146 125.892C150.146 124.987 149.964 124.282 149.599 123.777C149.234 123.272 148.682 123.02 147.943 123.02C147.568 123.02 147.24 123.085 146.959 123.215C146.683 123.345 146.451 123.532 146.264 123.777C146.082 124.022 145.944 124.325 145.85 124.685C145.761 125.04 145.717 125.442 145.717 125.892C145.717 126.792 145.899 127.495 146.264 128C146.634 128.5 147.193 128.75 147.943 128.75ZM157.909 123.342C157.85 123.452 157.759 123.507 157.636 123.507C157.562 123.507 157.478 123.48 157.384 123.425C157.29 123.37 157.175 123.31 157.037 123.245C156.903 123.175 156.743 123.112 156.556 123.057C156.369 122.997 156.147 122.967 155.89 122.967C155.669 122.967 155.469 122.997 155.291 123.057C155.114 123.112 154.961 123.19 154.833 123.29C154.71 123.39 154.614 123.507 154.544 123.642C154.48 123.772 154.448 123.915 154.448 124.07C154.448 124.265 154.503 124.427 154.611 124.557C154.724 124.687 154.872 124.8 155.055 124.895C155.237 124.99 155.444 125.075 155.676 125.15C155.908 125.22 156.144 125.297 156.386 125.382C156.632 125.462 156.871 125.552 157.103 125.652C157.335 125.752 157.542 125.877 157.724 126.027C157.907 126.177 158.052 126.362 158.161 126.582C158.274 126.797 158.331 127.057 158.331 127.362C158.331 127.712 158.269 128.037 158.146 128.337C158.023 128.632 157.84 128.89 157.599 129.11C157.357 129.325 157.061 129.495 156.711 129.62C156.361 129.745 155.957 129.807 155.498 129.807C154.976 129.807 154.503 129.722 154.079 129.552C153.655 129.377 153.295 129.155 152.999 128.885L153.31 128.375C153.349 128.31 153.396 128.26 153.45 128.225C153.504 128.19 153.573 128.172 153.657 128.172C153.746 128.172 153.84 128.207 153.938 128.277C154.037 128.347 154.155 128.425 154.293 128.51C154.436 128.595 154.609 128.672 154.811 128.742C155.013 128.812 155.264 128.847 155.565 128.847C155.821 128.847 156.046 128.815 156.238 128.75C156.43 128.68 156.59 128.587 156.719 128.472C156.847 128.357 156.94 128.225 157 128.075C157.064 127.925 157.096 127.765 157.096 127.595C157.096 127.385 157.039 127.212 156.926 127.077C156.817 126.937 156.672 126.82 156.489 126.725C156.307 126.625 156.097 126.54 155.861 126.47C155.629 126.395 155.39 126.317 155.143 126.237C154.902 126.157 154.663 126.067 154.426 125.967C154.194 125.862 153.987 125.732 153.805 125.577C153.623 125.422 153.475 125.232 153.361 125.007C153.253 124.777 153.199 124.5 153.199 124.175C153.199 123.885 153.258 123.607 153.376 123.342C153.494 123.072 153.667 122.837 153.894 122.637C154.121 122.432 154.399 122.27 154.729 122.15C155.06 122.03 155.437 121.97 155.861 121.97C156.354 121.97 156.795 122.05 157.184 122.21C157.579 122.365 157.919 122.58 158.205 122.855L157.909 123.342ZM164.677 123.342C164.618 123.452 164.527 123.507 164.404 123.507C164.33 123.507 164.246 123.48 164.152 123.425C164.059 123.37 163.943 123.31 163.805 123.245C163.672 123.175 163.511 123.112 163.324 123.057C163.137 122.997 162.915 122.967 162.659 122.967C162.437 122.967 162.237 122.997 162.06 123.057C161.882 123.112 161.729 123.19 161.601 123.29C161.478 123.39 161.382 123.507 161.313 123.642C161.249 123.772 161.217 123.915 161.217 124.07C161.217 124.265 161.271 124.427 161.379 124.557C161.493 124.687 161.641 124.8 161.823 124.895C162.005 124.99 162.212 125.075 162.444 125.15C162.676 125.22 162.913 125.297 163.154 125.382C163.401 125.462 163.64 125.552 163.871 125.652C164.103 125.752 164.31 125.877 164.493 126.027C164.675 126.177 164.82 126.362 164.929 126.582C165.042 126.797 165.099 127.057 165.099 127.362C165.099 127.712 165.037 128.037 164.914 128.337C164.791 128.632 164.608 128.89 164.367 129.11C164.125 129.325 163.829 129.495 163.479 129.62C163.129 129.745 162.725 129.807 162.267 129.807C161.744 129.807 161.271 129.722 160.847 129.552C160.423 129.377 160.063 129.155 159.767 128.885L160.078 128.375C160.117 128.31 160.164 128.26 160.218 128.225C160.273 128.19 160.342 128.172 160.425 128.172C160.514 128.172 160.608 128.207 160.706 128.277C160.805 128.347 160.923 128.425 161.061 128.51C161.204 128.595 161.377 128.672 161.579 128.742C161.781 128.812 162.033 128.847 162.333 128.847C162.59 128.847 162.814 128.815 163.006 128.75C163.198 128.68 163.359 128.587 163.487 128.472C163.615 128.357 163.709 128.225 163.768 128.075C163.832 127.925 163.864 127.765 163.864 127.595C163.864 127.385 163.807 127.212 163.694 127.077C163.585 126.937 163.44 126.82 163.258 126.725C163.075 126.625 162.866 126.54 162.629 126.47C162.397 126.395 162.158 126.317 161.912 126.237C161.67 126.157 161.431 126.067 161.194 125.967C160.963 125.862 160.756 125.732 160.573 125.577C160.391 125.422 160.243 125.232 160.13 125.007C160.021 124.777 159.967 124.5 159.967 124.175C159.967 123.885 160.026 123.607 160.144 123.342C160.263 123.072 160.435 122.837 160.662 122.637C160.889 122.432 161.167 122.27 161.498 122.15C161.828 122.03 162.205 121.97 162.629 121.97C163.122 121.97 163.563 122.05 163.953 122.21C164.347 122.365 164.687 122.58 164.973 122.855L164.677 123.342ZM168.443 118.64V129.687H167.127V118.64H168.443ZM175.962 125.06C175.962 124.75 175.917 124.467 175.828 124.212C175.745 123.952 175.619 123.73 175.451 123.545C175.289 123.355 175.089 123.21 174.852 123.11C174.616 123.005 174.347 122.952 174.046 122.952C173.415 122.952 172.915 123.14 172.545 123.515C172.18 123.885 171.953 124.4 171.865 125.06H175.962ZM177.026 128.622C176.864 128.822 176.669 128.997 176.442 129.147C176.215 129.292 175.971 129.412 175.71 129.507C175.454 129.602 175.188 129.672 174.911 129.717C174.635 129.767 174.362 129.792 174.091 129.792C173.573 129.792 173.095 129.705 172.656 129.53C172.222 129.35 171.845 129.09 171.525 128.75C171.209 128.405 170.963 127.98 170.785 127.475C170.608 126.97 170.519 126.39 170.519 125.735C170.519 125.205 170.598 124.71 170.755 124.25C170.918 123.79 171.15 123.392 171.451 123.057C171.751 122.717 172.119 122.452 172.552 122.262C172.986 122.067 173.474 121.97 174.017 121.97C174.465 121.97 174.879 122.047 175.259 122.202C175.644 122.352 175.974 122.572 176.25 122.862C176.531 123.147 176.75 123.502 176.908 123.927C177.066 124.347 177.145 124.827 177.145 125.367C177.145 125.577 177.123 125.717 177.078 125.787C177.034 125.857 176.95 125.892 176.827 125.892H171.82C171.835 126.372 171.899 126.79 172.013 127.145C172.131 127.5 172.294 127.797 172.501 128.037C172.708 128.272 172.954 128.45 173.24 128.57C173.526 128.685 173.847 128.742 174.202 128.742C174.532 128.742 174.815 128.705 175.052 128.63C175.294 128.55 175.501 128.465 175.673 128.375C175.846 128.285 175.989 128.202 176.102 128.127C176.22 128.047 176.321 128.007 176.405 128.007C176.514 128.007 176.597 128.05 176.657 128.135L177.026 128.622ZM183.494 123.342C183.435 123.452 183.344 123.507 183.22 123.507C183.146 123.507 183.063 123.48 182.969 123.425C182.875 123.37 182.759 123.31 182.621 123.245C182.488 123.175 182.328 123.112 182.141 123.057C181.953 122.997 181.731 122.967 181.475 122.967C181.253 122.967 181.054 122.997 180.876 123.057C180.699 123.112 180.546 123.19 180.418 123.29C180.294 123.39 180.198 123.507 180.129 123.642C180.065 123.772 180.033 123.915 180.033 124.07C180.033 124.265 180.087 124.427 180.196 124.557C180.309 124.687 180.457 124.8 180.639 124.895C180.822 124.99 181.029 125.075 181.261 125.15C181.492 125.22 181.729 125.297 181.971 125.382C182.217 125.462 182.456 125.552 182.688 125.652C182.92 125.752 183.127 125.877 183.309 126.027C183.491 126.177 183.637 126.362 183.745 126.582C183.859 126.797 183.915 127.057 183.915 127.362C183.915 127.712 183.854 128.037 183.731 128.337C183.607 128.632 183.425 128.89 183.183 129.11C182.942 129.325 182.646 129.495 182.296 129.62C181.946 129.745 181.542 129.807 181.083 129.807C180.561 129.807 180.087 129.722 179.663 129.552C179.239 129.377 178.879 129.155 178.584 128.885L178.894 128.375C178.934 128.31 178.981 128.26 179.035 128.225C179.089 128.19 179.158 128.172 179.242 128.172C179.331 128.172 179.424 128.207 179.523 128.277C179.621 128.347 179.74 128.425 179.878 128.51C180.021 128.595 180.193 128.672 180.395 128.742C180.598 128.812 180.849 128.847 181.15 128.847C181.406 128.847 181.63 128.815 181.823 128.75C182.015 128.68 182.175 128.587 182.303 128.472C182.431 128.357 182.525 128.225 182.584 128.075C182.648 127.925 182.68 127.765 182.68 127.595C182.68 127.385 182.624 127.212 182.51 127.077C182.402 126.937 182.256 126.82 182.074 126.725C181.892 126.625 181.682 126.54 181.445 126.47C181.214 126.395 180.975 126.317 180.728 126.237C180.487 126.157 180.248 126.067 180.011 125.967C179.779 125.862 179.572 125.732 179.39 125.577C179.207 125.422 179.059 125.232 178.946 125.007C178.838 124.777 178.783 124.5 178.783 124.175C178.783 123.885 178.842 123.607 178.961 123.342C179.079 123.072 179.252 122.837 179.478 122.637C179.705 122.432 179.984 122.27 180.314 122.15C180.644 122.03 181.022 121.97 181.445 121.97C181.938 121.97 182.38 122.05 182.769 122.21C183.164 122.365 183.504 122.58 183.79 122.855L183.494 123.342ZM190.262 123.342C190.203 123.452 190.112 123.507 189.989 123.507C189.915 123.507 189.831 123.48 189.737 123.425C189.643 123.37 189.528 123.31 189.39 123.245C189.256 123.175 189.096 123.112 188.909 123.057C188.722 122.997 188.5 122.967 188.243 122.967C188.021 122.967 187.822 122.997 187.644 123.057C187.467 123.112 187.314 123.19 187.186 123.29C187.063 123.39 186.966 123.507 186.897 123.642C186.833 123.772 186.801 123.915 186.801 124.07C186.801 124.265 186.856 124.427 186.964 124.557C187.077 124.687 187.225 124.8 187.408 124.895C187.59 124.99 187.797 125.075 188.029 125.15C188.261 125.22 188.497 125.297 188.739 125.382C188.985 125.462 189.224 125.552 189.456 125.652C189.688 125.752 189.895 125.877 190.077 126.027C190.26 126.177 190.405 126.362 190.514 126.582C190.627 126.797 190.684 127.057 190.684 127.362C190.684 127.712 190.622 128.037 190.499 128.337C190.376 128.632 190.193 128.89 189.952 129.11C189.71 129.325 189.414 129.495 189.064 129.62C188.714 129.745 188.31 129.807 187.851 129.807C187.329 129.807 186.856 129.722 186.432 129.552C186.008 129.377 185.648 129.155 185.352 128.885L185.662 128.375C185.702 128.31 185.749 128.26 185.803 128.225C185.857 128.19 185.926 128.172 186.01 128.172C186.099 128.172 186.192 128.207 186.291 128.277C186.39 128.347 186.508 128.425 186.646 128.51C186.789 128.595 186.962 128.672 187.164 128.742C187.366 128.812 187.617 128.847 187.918 128.847C188.174 128.847 188.399 128.815 188.591 128.75C188.783 128.68 188.943 128.587 189.072 128.472C189.2 128.357 189.293 128.225 189.353 128.075C189.417 127.925 189.449 127.765 189.449 127.595C189.449 127.385 189.392 127.212 189.279 127.077C189.17 126.937 189.025 126.82 188.842 126.725C188.66 126.625 188.45 126.54 188.214 126.47C187.982 126.395 187.743 126.317 187.496 126.237C187.255 126.157 187.016 126.067 186.779 125.967C186.547 125.862 186.34 125.732 186.158 125.577C185.976 125.422 185.828 125.232 185.714 125.007C185.606 124.777 185.552 124.5 185.552 124.175C185.552 123.885 185.611 123.607 185.729 123.342C185.847 123.072 186.02 122.837 186.247 122.637C186.473 122.432 186.752 122.27 187.082 122.15C187.413 122.03 187.79 121.97 188.214 121.97C188.707 121.97 189.148 122.05 189.537 122.21C189.932 122.365 190.272 122.58 190.558 122.855L190.262 123.342ZM117.635 147.232C117.877 147.562 118.14 147.795 118.426 147.93C118.712 148.065 119.033 148.132 119.388 148.132C120.088 148.132 120.625 147.88 121 147.375C121.374 146.87 121.562 146.15 121.562 145.215C121.562 144.72 121.517 144.295 121.429 143.94C121.345 143.585 121.222 143.295 121.059 143.07C120.896 142.84 120.697 142.672 120.46 142.567C120.223 142.462 119.955 142.41 119.654 142.41C119.225 142.41 118.848 142.51 118.522 142.71C118.202 142.91 117.906 143.192 117.635 143.557V147.232ZM117.568 142.642C117.884 142.247 118.249 141.93 118.663 141.69C119.077 141.45 119.55 141.33 120.083 141.33C120.517 141.33 120.909 141.415 121.259 141.585C121.609 141.75 121.907 141.997 122.153 142.327C122.4 142.652 122.59 143.057 122.723 143.542C122.856 144.027 122.922 144.585 122.922 145.215C122.922 145.775 122.848 146.297 122.701 146.782C122.553 147.262 122.338 147.68 122.057 148.035C121.781 148.385 121.441 148.662 121.037 148.867C120.637 149.067 120.186 149.167 119.683 149.167C119.225 149.167 118.831 149.09 118.5 148.935C118.175 148.775 117.886 148.555 117.635 148.275V151.635H116.311V141.465H117.103C117.29 141.465 117.406 141.557 117.45 141.742L117.568 142.642ZM129.031 145.642C128.425 145.662 127.907 145.712 127.478 145.792C127.054 145.867 126.707 145.967 126.436 146.092C126.169 146.217 125.975 146.365 125.851 146.535C125.733 146.705 125.674 146.895 125.674 147.105C125.674 147.305 125.706 147.477 125.77 147.622C125.834 147.767 125.92 147.887 126.029 147.982C126.142 148.072 126.273 148.14 126.421 148.185C126.574 148.225 126.736 148.245 126.909 148.245C127.141 148.245 127.353 148.222 127.545 148.177C127.737 148.127 127.917 148.057 128.085 147.967C128.257 147.877 128.42 147.77 128.573 147.645C128.731 147.52 128.883 147.377 129.031 147.217V145.642ZM124.779 142.537C125.193 142.132 125.639 141.83 126.118 141.63C126.596 141.43 127.126 141.33 127.708 141.33C128.127 141.33 128.499 141.4 128.824 141.54C129.15 141.68 129.423 141.875 129.645 142.125C129.867 142.375 130.035 142.677 130.148 143.032C130.261 143.387 130.318 143.777 130.318 144.202V149.062H129.734C129.606 149.062 129.507 149.042 129.438 149.002C129.369 148.957 129.315 148.872 129.275 148.747L129.127 148.027C128.93 148.212 128.738 148.377 128.551 148.522C128.363 148.662 128.166 148.782 127.959 148.882C127.752 148.977 127.53 149.05 127.293 149.1C127.062 149.155 126.803 149.182 126.517 149.182C126.226 149.182 125.953 149.142 125.696 149.062C125.44 148.977 125.215 148.852 125.023 148.687C124.836 148.522 124.686 148.315 124.572 148.065C124.464 147.81 124.409 147.51 124.409 147.165C124.409 146.865 124.491 146.577 124.653 146.302C124.816 146.022 125.08 145.775 125.445 145.56C125.81 145.345 126.285 145.17 126.872 145.035C127.459 144.895 128.178 144.815 129.031 144.795V144.202C129.031 143.612 128.906 143.167 128.654 142.867C128.403 142.562 128.035 142.41 127.552 142.41C127.227 142.41 126.953 142.452 126.731 142.537C126.515 142.617 126.325 142.71 126.162 142.815C126.004 142.915 125.866 143.007 125.748 143.092C125.635 143.172 125.521 143.212 125.408 143.212C125.319 143.212 125.243 143.19 125.178 143.145C125.114 143.095 125.06 143.035 125.016 142.965L124.779 142.537ZM133.943 142.987C134.179 142.467 134.47 142.062 134.815 141.772C135.16 141.477 135.582 141.33 136.08 141.33C136.238 141.33 136.388 141.347 136.531 141.382C136.679 141.417 136.81 141.472 136.923 141.547L136.827 142.545C136.797 142.67 136.723 142.732 136.605 142.732C136.536 142.732 136.435 142.717 136.302 142.687C136.169 142.657 136.018 142.642 135.851 142.642C135.614 142.642 135.402 142.677 135.215 142.747C135.032 142.817 134.867 142.922 134.719 143.062C134.576 143.197 134.446 143.367 134.327 143.572C134.214 143.772 134.11 144.002 134.017 144.262V149.062H132.693V141.465H133.447C133.59 141.465 133.689 141.492 133.743 141.547C133.797 141.602 133.834 141.697 133.854 141.832L133.943 142.987ZM145.401 149.062H144.085V142.582H140.225V147.142C140.225 147.462 140.301 147.7 140.454 147.855C140.607 148.01 140.804 148.087 141.046 148.087C141.184 148.087 141.302 148.07 141.401 148.035C141.504 147.995 141.593 147.952 141.667 147.907C141.741 147.862 141.802 147.822 141.852 147.787C141.906 147.747 141.953 147.727 141.992 147.727C142.061 147.727 142.123 147.77 142.177 147.855L142.562 148.492C142.335 148.707 142.061 148.877 141.741 149.002C141.42 149.122 141.09 149.182 140.75 149.182C140.158 149.182 139.702 149.015 139.382 148.68C139.066 148.345 138.908 147.862 138.908 147.232V142.582H138.006C137.927 142.582 137.861 142.56 137.807 142.515C137.752 142.465 137.725 142.39 137.725 142.29V141.757L138.953 141.592L139.256 139.252C139.271 139.177 139.303 139.117 139.352 139.072C139.406 139.022 139.475 138.997 139.559 138.997H140.225V141.615H145.401V149.062ZM145.727 139.027C145.727 139.157 145.7 139.28 145.645 139.395C145.596 139.505 145.527 139.602 145.438 139.687C145.354 139.772 145.256 139.84 145.142 139.89C145.029 139.94 144.908 139.965 144.78 139.965C144.652 139.965 144.531 139.94 144.418 139.89C144.309 139.84 144.213 139.772 144.129 139.687C144.046 139.602 143.979 139.505 143.93 139.395C143.88 139.28 143.856 139.157 143.856 139.027C143.856 138.897 143.88 138.775 143.93 138.66C143.979 138.54 144.046 138.437 144.129 138.352C144.213 138.262 144.309 138.192 144.418 138.142C144.531 138.092 144.652 138.067 144.78 138.067C144.908 138.067 145.029 138.092 145.142 138.142C145.256 138.192 145.354 138.262 145.438 138.352C145.527 138.437 145.596 138.54 145.645 138.66C145.7 138.775 145.727 138.897 145.727 139.027ZM151.993 145.642C151.387 145.662 150.869 145.712 150.44 145.792C150.016 145.867 149.669 145.967 149.398 146.092C149.131 146.217 148.937 146.365 148.813 146.535C148.695 146.705 148.636 146.895 148.636 147.105C148.636 147.305 148.668 147.477 148.732 147.622C148.796 147.767 148.882 147.887 148.991 147.982C149.104 148.072 149.235 148.14 149.383 148.185C149.536 148.225 149.698 148.245 149.871 148.245C150.103 148.245 150.315 148.222 150.507 148.177C150.699 148.127 150.879 148.057 151.047 147.967C151.219 147.877 151.382 147.77 151.535 147.645C151.693 147.52 151.845 147.377 151.993 147.217V145.642ZM147.741 142.537C148.155 142.132 148.601 141.83 149.08 141.63C149.558 141.43 150.088 141.33 150.67 141.33C151.089 141.33 151.461 141.4 151.786 141.54C152.112 141.68 152.385 141.875 152.607 142.125C152.829 142.375 152.996 142.677 153.11 143.032C153.223 143.387 153.28 143.777 153.28 144.202V149.062H152.696C152.568 149.062 152.469 149.042 152.4 149.002C152.331 148.957 152.277 148.872 152.237 148.747L152.089 148.027C151.892 148.212 151.7 148.377 151.513 148.522C151.325 148.662 151.128 148.782 150.921 148.882C150.714 148.977 150.492 149.05 150.255 149.1C150.024 149.155 149.765 149.182 149.479 149.182C149.188 149.182 148.914 149.142 148.658 149.062C148.402 148.977 148.177 148.852 147.985 148.687C147.798 148.522 147.647 148.315 147.534 148.065C147.426 147.81 147.371 147.51 147.371 147.165C147.371 146.865 147.453 146.577 147.615 146.302C147.778 146.022 148.042 145.775 148.407 145.56C148.771 145.345 149.247 145.17 149.834 145.035C150.421 144.895 151.14 144.815 151.993 144.795V144.202C151.993 143.612 151.868 143.167 151.616 142.867C151.365 142.562 150.997 142.41 150.514 142.41C150.189 142.41 149.915 142.452 149.693 142.537C149.476 142.617 149.287 142.71 149.124 142.815C148.966 142.915 148.828 143.007 148.71 143.092C148.596 143.172 148.483 143.212 148.37 143.212C148.281 143.212 148.205 143.19 148.14 143.145C148.076 143.095 148.022 143.035 147.978 142.965L147.741 142.537ZM157.016 138.015V149.062H155.699V138.015H157.016ZM165.035 138.015V149.062H163.719V138.015H165.035ZM170.696 141.345C171.244 141.345 171.737 141.437 172.175 141.622C172.614 141.807 172.989 142.07 173.299 142.41C173.61 142.75 173.847 143.162 174.009 143.647C174.177 144.127 174.261 144.665 174.261 145.26C174.261 145.86 174.177 146.4 174.009 146.88C173.847 147.36 173.61 147.77 173.299 148.11C172.989 148.45 172.614 148.712 172.175 148.897C171.737 149.077 171.244 149.167 170.696 149.167C170.144 149.167 169.646 149.077 169.203 148.897C168.764 148.712 168.389 148.45 168.078 148.11C167.768 147.77 167.529 147.36 167.361 146.88C167.199 146.4 167.117 145.86 167.117 145.26C167.117 144.665 167.199 144.127 167.361 143.647C167.529 143.162 167.768 142.75 168.078 142.41C168.389 142.07 168.764 141.807 169.203 141.622C169.646 141.437 170.144 141.345 170.696 141.345ZM170.696 148.125C171.436 148.125 171.988 147.875 172.353 147.375C172.718 146.87 172.9 146.167 172.9 145.267C172.9 144.362 172.718 143.657 172.353 143.152C171.988 142.647 171.436 142.395 170.696 142.395C170.322 142.395 169.994 142.46 169.713 142.59C169.437 142.72 169.205 142.907 169.018 143.152C168.835 143.397 168.697 143.7 168.604 144.06C168.515 144.415 168.47 144.817 168.47 145.267C168.47 146.167 168.653 146.87 169.018 147.375C169.387 147.875 169.947 148.125 170.696 148.125ZM180.36 145.642C179.754 145.662 179.236 145.712 178.807 145.792C178.383 145.867 178.036 145.967 177.765 146.092C177.498 146.217 177.304 146.365 177.18 146.535C177.062 146.705 177.003 146.895 177.003 147.105C177.003 147.305 177.035 147.477 177.099 147.622C177.163 147.767 177.249 147.887 177.358 147.982C177.471 148.072 177.602 148.14 177.75 148.185C177.903 148.225 178.065 148.245 178.238 148.245C178.47 148.245 178.682 148.222 178.874 148.177C179.066 148.127 179.246 148.057 179.414 147.967C179.586 147.877 179.749 147.77 179.902 147.645C180.06 147.52 180.212 147.377 180.36 147.217V145.642ZM176.108 142.537C176.522 142.132 176.968 141.83 177.447 141.63C177.925 141.43 178.455 141.33 179.037 141.33C179.456 141.33 179.828 141.4 180.153 141.54C180.479 141.68 180.752 141.875 180.974 142.125C181.196 142.375 181.364 142.677 181.477 143.032C181.59 143.387 181.647 143.777 181.647 144.202V149.062H181.063C180.935 149.062 180.836 149.042 180.767 149.002C180.698 148.957 180.644 148.872 180.604 148.747L180.456 148.027C180.259 148.212 180.067 148.377 179.88 148.522C179.692 148.662 179.495 148.782 179.288 148.882C179.081 148.977 178.859 149.05 178.622 149.1C178.391 149.155 178.132 149.182 177.846 149.182C177.555 149.182 177.282 149.142 177.025 149.062C176.769 148.977 176.545 148.852 176.352 148.687C176.165 148.522 176.015 148.315 175.901 148.065C175.793 147.81 175.738 147.51 175.738 147.165C175.738 146.865 175.82 146.577 175.982 146.302C176.145 146.022 176.409 145.775 176.774 145.56C177.139 145.345 177.614 145.17 178.201 145.035C178.788 144.895 179.507 144.815 180.36 144.795V144.202C180.36 143.612 180.235 143.167 179.983 142.867C179.732 142.562 179.364 142.41 178.881 142.41C178.556 142.41 178.282 142.452 178.06 142.537C177.844 142.617 177.654 142.71 177.491 142.815C177.333 142.915 177.195 143.007 177.077 143.092C176.964 143.172 176.85 143.212 176.737 143.212C176.648 143.212 176.572 143.19 176.508 143.145C176.443 143.095 176.389 143.035 176.345 142.965L176.108 142.537ZM188.902 143.272C188.656 142.937 188.389 142.705 188.103 142.575C187.818 142.44 187.497 142.372 187.142 142.372C186.447 142.372 185.912 142.625 185.537 143.13C185.163 143.635 184.975 144.355 184.975 145.29C184.975 145.785 185.017 146.21 185.101 146.565C185.185 146.915 185.308 147.205 185.471 147.435C185.634 147.66 185.833 147.825 186.07 147.93C186.306 148.035 186.575 148.087 186.876 148.087C187.31 148.087 187.687 147.987 188.007 147.787C188.333 147.587 188.631 147.305 188.902 146.94V143.272ZM190.218 138.015V149.062H189.435C189.247 149.062 189.129 148.97 189.08 148.785L188.961 147.862C188.641 148.252 188.276 148.567 187.867 148.807C187.458 149.047 186.984 149.167 186.447 149.167C186.018 149.167 185.629 149.085 185.279 148.92C184.929 148.75 184.63 148.502 184.384 148.177C184.137 147.852 183.947 147.447 183.814 146.962C183.681 146.477 183.615 145.92 183.615 145.29C183.615 144.73 183.689 144.21 183.837 143.73C183.984 143.245 184.196 142.825 184.473 142.47C184.749 142.115 185.086 141.837 185.486 141.637C185.89 141.432 186.343 141.33 186.846 141.33C187.305 141.33 187.697 141.41 188.022 141.57C188.352 141.725 188.646 141.942 188.902 142.222V138.015H190.218ZM130.467 160.72C131.014 160.72 131.507 160.812 131.946 160.997C132.384 161.182 132.759 161.445 133.07 161.785C133.38 162.125 133.617 162.537 133.779 163.022C133.947 163.502 134.031 164.04 134.031 164.635C134.031 165.235 133.947 165.775 133.779 166.255C133.617 166.735 133.38 167.145 133.07 167.485C132.759 167.825 132.384 168.087 131.946 168.272C131.507 168.452 131.014 168.542 130.467 168.542C129.914 168.542 129.416 168.452 128.973 168.272C128.534 168.087 128.159 167.825 127.849 167.485C127.538 167.145 127.299 166.735 127.131 166.255C126.969 165.775 126.887 165.235 126.887 164.635C126.887 164.04 126.969 163.502 127.131 163.022C127.299 162.537 127.538 162.125 127.849 161.785C128.159 161.445 128.534 161.182 128.973 160.997C129.416 160.812 129.914 160.72 130.467 160.72ZM130.467 167.5C131.206 167.5 131.758 167.25 132.123 166.75C132.488 166.245 132.67 165.542 132.67 164.642C132.67 163.737 132.488 163.032 132.123 162.527C131.758 162.022 131.206 161.77 130.467 161.77C130.092 161.77 129.764 161.835 129.483 161.965C129.207 162.095 128.975 162.282 128.788 162.527C128.605 162.772 128.467 163.075 128.374 163.435C128.285 163.79 128.241 164.192 128.241 164.642C128.241 165.542 128.423 166.245 128.788 166.75C129.158 167.25 129.717 167.5 130.467 167.5ZM137.394 166.607C137.635 166.937 137.899 167.17 138.185 167.305C138.471 167.44 138.791 167.507 139.146 167.507C139.846 167.507 140.384 167.255 140.758 166.75C141.133 166.245 141.32 165.525 141.32 164.59C141.32 164.095 141.276 163.67 141.187 163.315C141.104 162.96 140.98 162.67 140.818 162.445C140.655 162.215 140.455 162.047 140.219 161.942C139.982 161.837 139.713 161.785 139.413 161.785C138.984 161.785 138.607 161.885 138.281 162.085C137.961 162.285 137.665 162.567 137.394 162.932V166.607ZM137.327 162.017C137.643 161.622 138.008 161.305 138.422 161.065C138.836 160.825 139.309 160.705 139.841 160.705C140.275 160.705 140.667 160.79 141.017 160.96C141.367 161.125 141.666 161.372 141.912 161.702C142.159 162.027 142.348 162.432 142.481 162.917C142.615 163.402 142.681 163.96 142.681 164.59C142.681 165.15 142.607 165.672 142.459 166.157C142.311 166.637 142.097 167.055 141.816 167.41C141.54 167.76 141.2 168.037 140.795 168.242C140.396 168.442 139.945 168.542 139.442 168.542C138.984 168.542 138.589 168.465 138.259 168.31C137.934 168.15 137.645 167.93 137.394 167.65V171.01H136.07V160.84H136.861C137.049 160.84 137.164 160.932 137.209 161.117L137.327 162.017ZM149.744 163.81C149.744 163.5 149.7 163.217 149.611 162.962C149.527 162.702 149.401 162.48 149.234 162.295C149.071 162.105 148.871 161.96 148.635 161.86C148.398 161.755 148.129 161.702 147.829 161.702C147.198 161.702 146.697 161.89 146.327 162.265C145.963 162.635 145.736 163.15 145.647 163.81H149.744ZM150.809 167.372C150.646 167.572 150.451 167.747 150.225 167.897C149.998 168.042 149.754 168.162 149.493 168.257C149.236 168.352 148.97 168.422 148.694 168.467C148.418 168.517 148.144 168.542 147.873 168.542C147.355 168.542 146.877 168.455 146.438 168.28C146.005 168.1 145.627 167.84 145.307 167.5C144.991 167.155 144.745 166.73 144.567 166.225C144.39 165.72 144.301 165.14 144.301 164.485C144.301 163.955 144.38 163.46 144.538 163C144.701 162.54 144.932 162.142 145.233 161.807C145.534 161.467 145.901 161.202 146.335 161.012C146.769 160.817 147.257 160.72 147.799 160.72C148.248 160.72 148.662 160.797 149.041 160.952C149.426 161.102 149.756 161.322 150.032 161.612C150.313 161.897 150.533 162.252 150.69 162.677C150.848 163.097 150.927 163.577 150.927 164.117C150.927 164.327 150.905 164.467 150.861 164.537C150.816 164.607 150.732 164.642 150.609 164.642H145.603C145.618 165.122 145.682 165.54 145.795 165.895C145.913 166.25 146.076 166.547 146.283 166.787C146.49 167.022 146.737 167.2 147.023 167.32C147.309 167.435 147.629 167.492 147.984 167.492C148.314 167.492 148.598 167.455 148.834 167.38C149.076 167.3 149.283 167.215 149.456 167.125C149.628 167.035 149.771 166.952 149.884 166.877C150.003 166.797 150.104 166.757 150.188 166.757C150.296 166.757 150.38 166.8 150.439 166.885L150.809 167.372ZM154.164 162.362C154.4 161.842 154.691 161.437 155.036 161.147C155.381 160.852 155.803 160.705 156.301 160.705C156.459 160.705 156.609 160.722 156.752 160.757C156.9 160.792 157.03 160.847 157.144 160.922L157.048 161.92C157.018 162.045 156.944 162.107 156.826 162.107C156.757 162.107 156.656 162.092 156.523 162.062C156.39 162.032 156.239 162.017 156.072 162.017C155.835 162.017 155.623 162.052 155.436 162.122C155.253 162.192 155.088 162.297 154.94 162.437C154.797 162.572 154.667 162.742 154.548 162.947C154.435 163.147 154.331 163.377 154.238 163.637V168.437H152.914V160.84H153.668C153.811 160.84 153.91 160.867 153.964 160.922C154.018 160.977 154.055 161.072 154.075 161.207L154.164 162.362ZM162.615 165.017C162.008 165.037 161.491 165.087 161.062 165.167C160.638 165.242 160.29 165.342 160.019 165.467C159.753 165.592 159.558 165.74 159.435 165.91C159.317 166.08 159.258 166.27 159.258 166.48C159.258 166.68 159.29 166.852 159.354 166.997C159.418 167.142 159.504 167.262 159.613 167.357C159.726 167.447 159.857 167.515 160.004 167.56C160.157 167.6 160.32 167.62 160.493 167.62C160.724 167.62 160.936 167.597 161.128 167.552C161.321 167.502 161.501 167.432 161.668 167.342C161.841 167.252 162.004 167.145 162.156 167.02C162.314 166.895 162.467 166.752 162.615 166.592V165.017ZM158.363 161.912C158.777 161.507 159.223 161.205 159.701 161.005C160.179 160.805 160.709 160.705 161.291 160.705C161.71 160.705 162.082 160.775 162.408 160.915C162.733 161.055 163.007 161.25 163.229 161.5C163.45 161.75 163.618 162.052 163.731 162.407C163.845 162.762 163.902 163.152 163.902 163.577V168.437H163.317C163.189 168.437 163.091 168.417 163.022 168.377C162.953 168.332 162.898 168.247 162.859 168.122L162.711 167.402C162.514 167.587 162.322 167.752 162.134 167.897C161.947 168.037 161.75 168.157 161.543 168.257C161.336 168.352 161.114 168.425 160.877 168.475C160.645 168.53 160.387 168.557 160.101 168.557C159.81 168.557 159.536 168.517 159.28 168.437C159.023 168.352 158.799 168.227 158.607 168.062C158.419 167.897 158.269 167.69 158.156 167.44C158.047 167.185 157.993 166.885 157.993 166.54C157.993 166.24 158.074 165.952 158.237 165.677C158.4 165.397 158.663 165.15 159.028 164.935C159.393 164.72 159.869 164.545 160.456 164.41C161.042 164.27 161.762 164.19 162.615 164.17V163.577C162.615 162.987 162.489 162.542 162.238 162.242C161.986 161.937 161.619 161.785 161.136 161.785C160.81 161.785 160.537 161.827 160.315 161.912C160.098 161.992 159.908 162.085 159.746 162.19C159.588 162.29 159.45 162.382 159.331 162.467C159.218 162.547 159.105 162.587 158.991 162.587C158.903 162.587 158.826 162.565 158.762 162.52C158.698 162.47 158.644 162.41 158.599 162.34L158.363 161.912ZM173.127 168.437H171.81V161.957H167.95V166.517C167.95 166.837 168.027 167.075 168.18 167.23C168.332 167.385 168.53 167.462 168.771 167.462C168.909 167.462 169.028 167.445 169.126 167.41C169.23 167.37 169.318 167.327 169.392 167.282C169.466 167.237 169.528 167.197 169.577 167.162C169.631 167.122 169.678 167.102 169.718 167.102C169.787 167.102 169.848 167.145 169.903 167.23L170.287 167.867C170.06 168.082 169.787 168.252 169.466 168.377C169.146 168.497 168.816 168.557 168.475 168.557C167.884 168.557 167.428 168.39 167.107 168.055C166.792 167.72 166.634 167.237 166.634 166.607V161.957H165.732C165.653 161.957 165.586 161.935 165.532 161.89C165.478 161.84 165.451 161.765 165.451 161.665V161.132L166.678 160.967L166.982 158.627C166.996 158.552 167.028 158.492 167.078 158.447C167.132 158.397 167.201 158.372 167.285 158.372H167.95V160.99H173.127V168.437ZM173.452 158.402C173.452 158.532 173.425 158.655 173.371 158.77C173.322 158.88 173.253 158.977 173.164 159.062C173.08 159.147 172.981 159.215 172.868 159.265C172.755 159.315 172.634 159.34 172.506 159.34C172.377 159.34 172.257 159.315 172.143 159.265C172.035 159.215 171.939 159.147 171.855 159.062C171.771 158.977 171.704 158.88 171.655 158.77C171.606 158.655 171.581 158.532 171.581 158.402C171.581 158.272 171.606 158.15 171.655 158.035C171.704 157.915 171.771 157.812 171.855 157.727C171.939 157.637 172.035 157.567 172.143 157.517C172.257 157.467 172.377 157.442 172.506 157.442C172.634 157.442 172.755 157.467 172.868 157.517C172.981 157.567 173.08 157.637 173.164 157.727C173.253 157.812 173.322 157.915 173.371 158.035C173.425 158.15 173.452 158.272 173.452 158.402ZM178.817 160.72C179.364 160.72 179.857 160.812 180.296 160.997C180.734 161.182 181.109 161.445 181.42 161.785C181.73 162.125 181.967 162.537 182.13 163.022C182.297 163.502 182.381 164.04 182.381 164.635C182.381 165.235 182.297 165.775 182.13 166.255C181.967 166.735 181.73 167.145 181.42 167.485C181.109 167.825 180.734 168.087 180.296 168.272C179.857 168.452 179.364 168.542 178.817 168.542C178.264 168.542 177.767 168.452 177.323 168.272C176.884 168.087 176.509 167.825 176.199 167.485C175.888 167.145 175.649 166.735 175.481 166.255C175.319 165.775 175.237 165.235 175.237 164.635C175.237 164.04 175.319 163.502 175.481 163.022C175.649 162.537 175.888 162.125 176.199 161.785C176.509 161.445 176.884 161.182 177.323 160.997C177.767 160.812 178.264 160.72 178.817 160.72ZM178.817 167.5C179.556 167.5 180.108 167.25 180.473 166.75C180.838 166.245 181.02 165.542 181.02 164.642C181.02 163.737 180.838 163.032 180.473 162.527C180.108 162.022 179.556 161.77 178.817 161.77C178.442 161.77 178.114 161.835 177.833 161.965C177.557 162.095 177.325 162.282 177.138 162.527C176.956 162.772 176.818 163.075 176.724 163.435C176.635 163.79 176.591 164.192 176.591 164.642C176.591 165.542 176.773 166.245 177.138 166.75C177.508 167.25 178.067 167.5 178.817 167.5ZM185.662 161.942C185.825 161.757 185.998 161.59 186.18 161.44C186.363 161.29 186.555 161.162 186.757 161.057C186.964 160.947 187.181 160.865 187.408 160.81C187.639 160.75 187.888 160.72 188.155 160.72C188.564 160.72 188.924 160.79 189.234 160.93C189.55 161.065 189.811 161.26 190.018 161.515C190.23 161.765 190.39 162.067 190.499 162.422C190.607 162.777 190.661 163.17 190.661 163.6V168.437H189.338V163.6C189.338 163.025 189.207 162.58 188.946 162.265C188.689 161.945 188.298 161.785 187.77 161.785C187.381 161.785 187.016 161.88 186.676 162.07C186.34 162.26 186.03 162.517 185.744 162.842V168.437H184.42V160.84H185.211C185.399 160.84 185.515 160.932 185.559 161.117L185.662 161.942Z" fill="white"/>
</g>
<defs>
<filter id="filter0_d_800_2526" x="0" y="0" width="234.734" height="237.5" filterUnits="userSpaceOnUse" color-interpolation-filters="sRGB">
<feFlood flood-opacity="0" result="BackgroundImageFix"/>
<feColorMatrix in="SourceAlpha" type="matrix" values="0 0 0 0 0 0 0 0 0 0 0 0 0 0 0 0 0 0 127 0" result="hardAlpha"/>
<feOffset dy="5"/>
<feGaussianBlur stdDeviation="10"/>
<feComposite in2="hardAlpha" operator="out"/>
<feColorMatrix type="matrix" values="0 0 0 0 0 0 0 0 0 0 0 0 0 0 0 0 0 0 0.15 0"/>
<feBlend mode="normal" in2="BackgroundImageFix" result="effect1_dropShadow_800_2526"/>
<feBlend mode="normal" in="SourceGraphic" in2="effect1_dropShadow_800_2526" result="shape"/>
</filter>
</defs>
</svg>
