<svg width="235" height="238" viewBox="0 0 235 238" fill="none" xmlns="http://www.w3.org/2000/svg">
<g id="Vector" filter="url(#filter0_d_800_2525)">
<path d="M20 113.75C20 59.2119 63.5927 15 117.367 15C171.141 15 214.734 59.2119 214.734 113.75C214.734 168.288 171.141 212.5 117.367 212.5H20V113.75Z" fill="#FF8B00"/>
<path d="M105.942 56.9774C106.36 56.9774 106.697 56.6319 106.697 56.204V50.667C106.697 50.2391 106.36 49.8936 105.942 49.8936H104.919V41.7582C104.919 41.3302 104.582 40.9849 104.164 40.9849H102.26C101.842 40.9849 101.505 41.3302 101.505 41.7582V49.8936H98.0304L97.8141 48.8522L98.5492 45.1763C98.5942 44.9494 98.5388 44.7123 98.3927 44.5319C98.2467 44.3514 98.0353 44.2483 97.8091 44.2483H92.6974C92.4712 44.2483 92.2543 44.3514 92.1138 44.5319C91.9727 44.7123 91.9123 44.9494 91.9573 45.1763L92.6974 48.8522L91.1919 56.0442C91.1469 56.2711 91.2017 56.5082 91.3429 56.6938C91.484 56.8742 91.7003 56.9825 91.932 56.9825H105.942V56.9774ZM103.016 42.5315H103.408V49.8936H103.016V42.5315ZM105.186 51.4403V55.4307H99.1889L98.3527 51.4403H105.186ZM92.8638 55.4307L94.2035 49.0172C94.2232 48.914 94.2232 48.8058 94.2035 48.6976L93.6193 45.7898H96.8774L96.2981 48.6976C96.2778 48.8007 96.2778 48.9089 96.2981 49.0121L97.6378 55.4204H92.8638V55.4307Z" fill="white"/>
<path d="M116.969 75.1555H123.849C124.266 75.1555 124.604 74.8105 124.604 74.3824V69.4949C124.604 69.4949 124.604 69.4743 124.604 69.4637C124.604 69.438 124.604 69.4074 124.594 69.3812C124.594 69.3555 124.589 69.3349 124.579 69.3093C124.573 69.2837 124.563 69.258 124.559 69.2374C124.549 69.2168 124.543 69.1905 124.533 69.1699C124.523 69.1493 124.513 69.1237 124.498 69.103C124.483 69.0824 124.473 69.0618 124.457 69.0412C124.443 69.0205 124.427 69.0049 124.412 68.9843C124.392 68.9637 124.377 68.943 124.357 68.9224C124.347 68.9174 124.342 68.9074 124.337 68.9018L123.733 68.3862C123.738 68.3505 123.743 68.3143 123.743 68.273V66.35C123.743 65.9221 123.406 65.5767 122.987 65.5767C122.569 65.5767 122.232 65.9221 122.232 66.35V67.1078L120.897 65.9685C120.616 65.7313 120.213 65.7313 119.931 65.9685L116.486 68.9074C116.486 68.9074 116.471 68.9224 116.461 68.933C116.441 68.9487 116.426 68.9693 116.411 68.9899C116.396 69.0105 116.375 69.0255 116.366 69.0462C116.35 69.0668 116.34 69.0874 116.325 69.108C116.31 69.1287 116.3 69.1549 116.29 69.1755C116.28 69.1962 116.27 69.2218 116.264 69.2424C116.255 69.268 116.25 69.2887 116.245 69.3143C116.239 69.3399 116.234 69.3605 116.229 69.3868C116.229 69.4124 116.224 69.438 116.219 69.4693C116.219 69.4793 116.219 69.4899 116.219 69.4999V74.3874C116.219 74.8155 116.557 75.1605 116.975 75.1605L116.969 75.1555ZM120.409 67.5667L123.093 69.8612V73.6093H117.725V69.8612L120.409 67.5667Z" fill="white"/>
<path d="M107.533 75.1555H114.411C114.829 75.1555 115.167 74.8105 115.167 74.3824V69.4949C115.167 69.4949 115.167 69.4743 115.167 69.4637C115.167 69.438 115.167 69.4074 115.157 69.3812C115.157 69.3555 115.152 69.3349 115.142 69.3093C115.137 69.2837 115.127 69.258 115.121 69.2374C115.111 69.2168 115.107 69.1905 115.097 69.1699C115.086 69.1493 115.076 69.1237 115.061 69.103C115.046 69.0824 115.036 69.0618 115.021 69.0412C115.005 69.0205 114.991 69.0049 114.975 68.9843C114.956 68.9637 114.94 68.943 114.92 68.9224C114.91 68.9174 114.905 68.9074 114.9 68.9018L114.296 68.3862C114.301 68.3505 114.306 68.3143 114.306 68.273V66.35C114.306 65.9221 113.968 65.5767 113.551 65.5767C113.133 65.5767 112.795 65.9221 112.795 66.35V67.1078L111.461 65.9685C111.179 65.7313 110.771 65.7313 110.494 65.9685L107.055 68.9074C107.055 68.9074 107.039 68.9224 107.029 68.933C107.009 68.9487 106.994 68.9693 106.979 68.9899C106.963 69.0105 106.944 69.0255 106.933 69.0462C106.918 69.0668 106.909 69.0874 106.893 69.108C106.878 69.1287 106.868 69.1549 106.858 69.1755C106.848 69.1962 106.838 69.2218 106.833 69.2424C106.823 69.268 106.817 69.2887 106.812 69.3143C106.808 69.3399 106.803 69.3605 106.798 69.3868C106.798 69.4124 106.793 69.438 106.787 69.4693C106.787 69.4793 106.787 69.4899 106.787 69.4999V74.3874C106.787 74.8155 107.125 75.1605 107.543 75.1605L107.533 75.1555ZM110.972 67.5667L113.656 69.8612V73.6093H108.288V69.8612L110.972 67.5667Z" fill="white"/>
<path d="M94.9787 42.5469C95.0342 42.5469 95.0897 42.5417 95.1451 42.5263C95.5531 42.4335 95.8094 42.0211 95.7188 41.6034C95.709 41.5674 95.709 41.5261 95.709 41.4849C95.709 41.1085 96.0109 40.7992 96.3788 40.7992C96.5699 40.7992 96.7061 40.8765 96.7868 40.9436C97.0234 41.1343 97.3556 41.1807 97.6224 41.0312C97.8893 40.8817 98.0402 40.5929 98.01 40.2836C98.01 39.7887 98.4032 39.3866 98.8863 39.3866C99.0022 39.3866 99.1181 39.4072 99.2241 39.4536C99.4607 39.5567 99.7374 39.5257 99.9488 39.3762C100.161 39.2267 100.282 38.9689 100.271 38.706V38.6133C100.271 37.9894 100.765 37.4842 101.374 37.4842C101.923 37.4842 102.392 37.9018 102.467 38.4534C102.522 38.8762 102.905 39.1649 103.318 39.1133C103.731 39.0566 104.018 38.6648 103.962 38.242C103.786 36.9274 102.673 35.9375 101.374 35.9375C100.196 35.9375 99.1939 36.7417 98.8716 37.8399C97.9096 37.8451 97.0838 38.4379 96.711 39.2834C96.6056 39.268 96.4947 39.2577 96.3838 39.2577C95.1802 39.2577 94.2035 40.2579 94.2035 41.49C94.2035 41.6447 94.2183 41.7994 94.2485 41.9437C94.3292 42.3046 94.6416 42.5521 94.9837 42.5521L94.9787 42.5469Z" fill="white"/>
<path d="M129.846 75.8725C129.428 75.8725 129.09 76.2181 129.09 76.6456V78.1406H121.164V76.6456C121.164 76.2181 120.827 75.8725 120.409 75.8725C119.991 75.8725 119.654 76.2181 119.654 76.6456V78.1406H111.728V76.6456C111.728 76.2181 111.39 75.8725 110.972 75.8725C110.554 75.8725 110.217 76.2181 110.217 76.6456V78.1406H98.7908V66.9223L99.8231 65.087C99.8231 65.087 99.8335 65.0612 99.8385 65.0457C99.8532 65.0199 99.8637 64.9942 99.8736 64.9683C99.8834 64.9478 99.8884 64.922 99.8939 64.9013C99.8988 64.8756 99.9038 64.8498 99.9087 64.8292C99.9087 64.8034 99.9136 64.7725 99.9186 64.7467C99.9186 64.7312 99.9186 64.7157 99.9186 64.7003C99.9186 64.69 99.9186 64.6848 99.9186 64.6745C99.9186 64.6487 99.9186 64.6178 99.9087 64.592C99.9087 64.5662 99.9038 64.5456 99.8989 64.5198C99.8939 64.494 99.8834 64.4735 99.8785 64.4477C99.8687 64.4219 99.8637 64.4013 99.8532 64.3807C99.8434 64.36 99.828 64.3342 99.8181 64.3136C99.8083 64.293 99.7929 64.2724 99.783 64.2517C99.7676 64.2312 99.7528 64.2105 99.7325 64.1899C99.7177 64.1693 99.7023 64.1538 99.6819 64.1383C99.6671 64.1228 99.6468 64.1074 99.6265 64.0919C99.6068 64.0765 99.5815 64.0558 99.5611 64.0455C99.5562 64.0455 99.5464 64.0352 99.5414 64.03C99.531 64.0249 99.5162 64.0198 99.5008 64.0146C99.4755 64.0043 99.4502 63.9888 99.4256 63.9785C99.4003 63.9682 99.38 63.963 99.3547 63.9579C99.3294 63.9527 99.3097 63.9476 99.2845 63.9424C99.2592 63.9424 99.229 63.9373 99.2037 63.9321C99.1889 63.9321 99.1785 63.9321 99.1637 63.9321H98.781V58.9879C98.781 58.56 98.4433 58.2146 98.0255 58.2146C97.6076 58.2146 97.2699 58.56 97.2699 58.9879V63.9321H96.8922C96.8922 63.9321 96.8669 63.9321 96.8521 63.9321C96.8219 63.9321 96.7967 63.9321 96.7665 63.9424C96.7412 63.9424 96.7209 63.9527 96.7011 63.9579C96.6759 63.963 96.6506 63.9733 96.6303 63.9785C96.6056 63.9888 96.5804 63.9992 96.5551 64.0146C96.5397 64.0198 96.5298 64.0249 96.5144 64.03C96.5095 64.03 96.4996 64.0403 96.4947 64.0455C96.4694 64.061 96.4491 64.0765 96.4294 64.0971C96.409 64.1125 96.3936 64.128 96.3789 64.1435C96.3585 64.159 96.3437 64.1796 96.3283 64.2002C96.3135 64.2208 96.2981 64.2363 96.2833 64.2569C96.2679 64.2775 96.2581 64.2982 96.2427 64.3239C96.2328 64.3445 96.2174 64.3652 96.2075 64.3858C96.1977 64.4116 96.1872 64.4322 96.1823 64.458C96.1773 64.4786 96.1675 64.5043 96.1619 64.525C96.157 64.5508 96.1521 64.5765 96.1521 64.5972C96.1521 64.623 96.1471 64.6487 96.1422 64.6745C96.1422 64.6848 96.1422 64.69 96.1422 64.7003C96.1422 64.7157 96.1422 64.7312 96.1422 64.7467C96.1422 64.7725 96.1422 64.7982 96.1521 64.824C96.1521 64.8498 96.1619 64.8756 96.1675 64.9013C96.1724 64.922 96.1773 64.9478 96.1872 64.9683C96.1977 64.9942 96.2075 65.0199 96.2229 65.0457C96.2279 65.056 96.2328 65.0715 96.2377 65.087L97.2699 66.9223V78.9143C97.2699 79.3419 97.6076 79.6875 98.0255 79.6875H129.836C130.254 79.6875 130.591 79.3419 130.591 78.9143V76.6456C130.591 76.2181 130.254 75.8725 129.836 75.8725H129.846Z" fill="white"/>
<path d="M133.285 57.3794H126.407C125.989 57.3794 125.651 57.7248 125.651 58.1527V74.3775C125.651 74.805 125.989 75.1506 126.407 75.1506H133.285C133.703 75.1506 134.041 74.805 134.041 74.3775V58.1527C134.041 57.7248 133.703 57.3794 133.285 57.3794ZM132.53 73.6037H127.162V58.9261H132.53V73.6037Z" fill="white"/>
<path d="M129.322 59.8748H128.119V61.2409H129.322V59.8748Z" fill="white"/>
<path d="M131.578 59.8748H130.375V61.2409H131.578V59.8748Z" fill="white"/>
<path d="M129.322 62.3958H128.119V63.7619H129.322V62.3958Z" fill="white"/>
<path d="M131.578 62.3958H130.375V63.7619H131.578V62.3958Z" fill="white"/>
<path d="M129.322 64.917H128.119V66.2832H129.322V64.917Z" fill="white"/>
<path d="M131.578 64.917H130.375V66.2832H131.578V64.917Z" fill="white"/>
<path d="M129.322 67.4329H128.119V68.7989H129.322V67.4329Z" fill="white"/>
<path d="M131.578 67.4329H130.375V68.7989H131.578V67.4329Z" fill="white"/>
<path d="M129.322 69.9539H128.119V71.3201H129.322V69.9539Z" fill="white"/>
<path d="M131.578 69.9539H130.375V71.3201H131.578V69.9539Z" fill="white"/>
<path d="M45.7419 124.512C46.1511 124.512 46.511 124.457 46.8216 124.347C47.1371 124.237 47.4008 124.085 47.6128 123.89C47.8297 123.69 47.9924 123.452 48.1009 123.177C48.2094 122.902 48.2636 122.6 48.2636 122.27C48.2636 121.585 48.0541 121.05 47.635 120.665C47.2209 120.28 46.5899 120.087 45.7419 120.087H44.0411V124.512H45.7419ZM45.7419 118.94C46.4124 118.94 46.9941 119.02 47.4871 119.18C47.985 119.335 48.3967 119.557 48.7221 119.847C49.0475 120.137 49.289 120.487 49.4468 120.897C49.6095 121.307 49.6908 121.765 49.6908 122.27C49.6908 122.77 49.6045 123.227 49.432 123.642C49.2594 124.057 49.0055 124.415 48.6703 124.715C48.34 125.015 47.9283 125.25 47.4354 125.42C46.9473 125.585 46.3828 125.667 45.7419 125.667H44.0411V129.687H42.6138V118.94H45.7419ZM54.3233 121.97C54.8706 121.97 55.3635 122.062 55.8023 122.247C56.2411 122.432 56.6158 122.695 56.9263 123.035C57.2369 123.375 57.4736 123.787 57.6363 124.272C57.8039 124.752 57.8877 125.29 57.8877 125.885C57.8877 126.485 57.8039 127.025 57.6363 127.505C57.4736 127.985 57.2369 128.395 56.9263 128.735C56.6158 129.075 56.2411 129.337 55.8023 129.522C55.3635 129.702 54.8706 129.792 54.3233 129.792C53.7712 129.792 53.2732 129.702 52.8295 129.522C52.3908 129.337 52.0161 129.075 51.7055 128.735C51.3949 128.395 51.1558 127.985 50.9882 127.505C50.8255 127.025 50.7442 126.485 50.7442 125.885C50.7442 125.29 50.8255 124.752 50.9882 124.272C51.1558 123.787 51.3949 123.375 51.7055 123.035C52.0161 122.695 52.3908 122.432 52.8295 122.247C53.2732 122.062 53.7712 121.97 54.3233 121.97ZM54.3233 128.75C55.0628 128.75 55.615 128.5 55.9798 128C56.3446 127.495 56.527 126.792 56.527 125.892C56.527 124.987 56.3446 124.282 55.9798 123.777C55.615 123.272 55.0628 123.02 54.3233 123.02C53.9486 123.02 53.6208 123.085 53.3398 123.215C53.0637 123.345 52.832 123.532 52.6447 123.777C52.4623 124.022 52.3242 124.325 52.2306 124.685C52.1418 125.04 52.0974 125.442 52.0974 125.892C52.0974 126.792 52.2799 127.495 52.6447 128C53.0144 128.5 53.574 128.75 54.3233 128.75ZM64.2899 123.342C64.2308 123.452 64.1396 123.507 64.0163 123.507C63.9424 123.507 63.8586 123.48 63.7649 123.425C63.6712 123.37 63.5554 123.31 63.4173 123.245C63.2842 123.175 63.124 123.112 62.9367 123.057C62.7493 122.997 62.5275 122.967 62.2711 122.967C62.0493 122.967 61.8496 122.997 61.6721 123.057C61.4946 123.112 61.3418 123.19 61.2136 123.29C61.0904 123.39 60.9943 123.507 60.9252 123.642C60.8611 123.772 60.8291 123.915 60.8291 124.07C60.8291 124.265 60.8833 124.427 60.9918 124.557C61.1052 124.687 61.2531 124.8 61.4355 124.895C61.6179 124.99 61.825 125.075 62.0567 125.15C62.2884 125.22 62.525 125.297 62.7666 125.382C63.0131 125.462 63.2522 125.552 63.4839 125.652C63.7156 125.752 63.9227 125.877 64.1051 126.027C64.2875 126.177 64.4329 126.362 64.5414 126.582C64.6548 126.797 64.7115 127.057 64.7115 127.362C64.7115 127.712 64.6498 128.037 64.5266 128.337C64.4033 128.632 64.2209 128.89 63.9794 129.11C63.7378 129.325 63.442 129.495 63.092 129.62C62.7419 129.745 62.3377 129.807 61.8792 129.807C61.3566 129.807 60.8833 129.722 60.4594 129.552C60.0354 129.377 59.6755 129.155 59.3797 128.885L59.6903 128.375C59.7297 128.31 59.7766 128.26 59.8308 128.225C59.885 128.19 59.954 128.172 60.0378 128.172C60.1266 128.172 60.2202 128.207 60.3188 128.277C60.4174 128.347 60.5358 128.425 60.6738 128.51C60.8168 128.595 60.9893 128.672 61.1915 128.742C61.3936 128.812 61.645 128.847 61.9457 128.847C62.2021 128.847 62.4264 128.815 62.6187 128.75C62.811 128.68 62.9712 128.587 63.0994 128.472C63.2275 128.357 63.3212 128.225 63.3804 128.075C63.4445 127.925 63.4765 127.765 63.4765 127.595C63.4765 127.385 63.4198 127.212 63.3064 127.077C63.198 126.937 63.0525 126.82 62.8701 126.725C62.6877 126.625 62.4782 126.54 62.2415 126.47C62.0098 126.395 61.7707 126.317 61.5242 126.237C61.2827 126.157 61.0436 126.067 60.8069 125.967C60.5752 125.862 60.3681 125.732 60.1857 125.577C60.0033 125.422 59.8554 125.232 59.742 125.007C59.6336 124.777 59.5794 124.5 59.5794 124.175C59.5794 123.885 59.6385 123.607 59.7568 123.342C59.8751 123.072 60.0477 122.837 60.2745 122.637C60.5013 122.432 60.7798 122.27 61.1101 122.15C61.4404 122.03 61.8176 121.97 62.2415 121.97C62.7345 121.97 63.1758 122.05 63.5652 122.21C63.9596 122.365 64.2998 122.58 64.5857 122.855L64.2899 123.342ZM71.0579 123.342C70.9988 123.452 70.9076 123.507 70.7843 123.507C70.7104 123.507 70.6266 123.48 70.5329 123.425C70.4392 123.37 70.3234 123.31 70.1853 123.245C70.0522 123.175 69.892 123.112 69.7047 123.057C69.5173 122.997 69.2955 122.967 69.0391 122.967C68.8174 122.967 68.6177 122.997 68.4402 123.057C68.2628 123.112 68.1099 123.19 67.9818 123.29C67.8585 123.39 67.7624 123.507 67.6933 123.642C67.6293 123.772 67.5972 123.915 67.5972 124.07C67.5972 124.265 67.6514 124.427 67.7599 124.557C67.8733 124.687 68.0212 124.8 68.2036 124.895C68.386 124.99 68.5931 125.075 68.8248 125.15C69.0564 125.22 69.293 125.297 69.5346 125.382C69.7811 125.462 70.0202 125.552 70.2519 125.652C70.4836 125.752 70.6907 125.877 70.8731 126.027C71.0555 126.177 71.2009 126.362 71.3094 126.582C71.4227 126.797 71.4794 127.057 71.4794 127.362C71.4794 127.712 71.4178 128.037 71.2946 128.337C71.1713 128.632 70.9889 128.89 70.7473 129.11C70.5058 129.325 70.21 129.495 69.8599 129.62C69.5099 129.745 69.1057 129.807 68.6473 129.807C68.1247 129.807 67.6514 129.722 67.2275 129.552C66.8035 129.377 66.4436 129.155 66.1478 128.885L66.4584 128.375C66.4978 128.31 66.5447 128.26 66.5989 128.225C66.6531 128.19 66.7221 128.172 66.806 128.172C66.8947 128.172 66.9884 128.207 67.087 128.277C67.1856 128.347 67.3039 128.425 67.4419 128.51C67.5849 128.595 67.7574 128.672 67.9596 128.742C68.1617 128.812 68.4131 128.847 68.7139 128.847C68.9702 128.847 69.1944 128.815 69.3867 128.75C69.5789 128.68 69.7392 128.587 69.8673 128.472C69.9955 128.357 70.0892 128.225 70.1483 128.075C70.2124 127.925 70.2445 127.765 70.2445 127.595C70.2445 127.385 70.1878 127.212 70.0744 127.077C69.9659 126.937 69.8205 126.82 69.6381 126.725C69.4557 126.625 69.2462 126.54 69.0095 126.47C68.7779 126.395 68.5388 126.317 68.2923 126.237C68.0508 126.157 67.8117 126.067 67.575 125.967C67.3433 125.862 67.1363 125.732 66.9538 125.577C66.7714 125.422 66.6235 125.232 66.5102 125.007C66.4017 124.777 66.3475 124.5 66.3475 124.175C66.3475 123.885 66.4066 123.607 66.5249 123.342C66.6433 123.072 66.8158 122.837 67.0426 122.637C67.2694 122.432 67.5479 122.27 67.8782 122.15C68.2085 122.03 68.5857 121.97 69.0095 121.97C69.5025 121.97 69.9438 122.05 70.3332 122.21C70.7276 122.365 71.0678 122.58 71.3537 122.855L71.0579 123.342ZM74.8534 122.09V129.687H73.5371V122.09H74.8534ZM75.1344 119.705C75.1344 119.835 75.1073 119.957 75.0531 120.072C75.0038 120.182 74.9347 120.282 74.846 120.372C74.7622 120.457 74.6611 120.525 74.5428 120.575C74.4294 120.625 74.3086 120.65 74.1805 120.65C74.0523 120.65 73.9315 120.625 73.8181 120.575C73.7096 120.525 73.6135 120.457 73.5297 120.372C73.4459 120.282 73.3793 120.182 73.33 120.072C73.2807 119.957 73.2561 119.835 73.2561 119.705C73.2561 119.575 73.2807 119.452 73.33 119.337C73.3793 119.217 73.4459 119.115 73.5297 119.03C73.6135 118.94 73.7096 118.87 73.8181 118.82C73.9315 118.77 74.0523 118.745 74.1805 118.745C74.3086 118.745 74.4294 118.77 74.5428 118.82C74.6611 118.87 74.7622 118.94 74.846 119.03C74.9347 119.115 75.0038 119.217 75.0531 119.337C75.1073 119.452 75.1344 119.575 75.1344 119.705ZM78.7099 127.857C78.9514 128.187 79.2152 128.42 79.5011 128.555C79.792 128.69 80.11 128.757 80.4551 128.757C81.1601 128.757 81.6999 128.505 82.0746 128C82.4493 127.495 82.6366 126.742 82.6366 125.742C82.6366 124.812 82.469 124.13 82.1337 123.695C81.8034 123.255 81.3301 123.035 80.7139 123.035C80.285 123.035 79.9103 123.135 79.5899 123.335C79.2743 123.535 78.981 123.817 78.7099 124.182V127.857ZM78.7099 123.185C79.0254 122.815 79.3803 122.52 79.7747 122.3C80.1741 122.08 80.6326 121.97 81.1502 121.97C81.589 121.97 81.9834 122.055 82.3334 122.225C82.6884 122.395 82.9891 122.642 83.2356 122.967C83.4821 123.287 83.6694 123.677 83.7976 124.137C83.9307 124.597 83.9973 125.115 83.9973 125.69C83.9973 126.305 83.9233 126.865 83.7754 127.37C83.6275 127.875 83.4131 128.307 83.132 128.667C82.856 129.022 82.5183 129.3 82.1189 129.5C81.7196 129.695 81.271 129.792 80.7731 129.792C80.2801 129.792 79.8635 129.7 79.5233 129.515C79.1881 129.325 78.8947 129.057 78.6433 128.712L78.5768 129.402C78.5373 129.592 78.4239 129.687 78.2366 129.687H77.3862V118.64H78.7099V123.185ZM87.3922 118.64V129.687H86.0759V118.64H87.3922ZM94.9104 125.06C94.9104 124.75 94.866 124.467 94.7773 124.212C94.6935 123.952 94.5677 123.73 94.4001 123.545C94.2374 123.355 94.0378 123.21 93.8011 123.11C93.5645 123.005 93.2958 122.952 92.9951 122.952C92.364 122.952 91.8636 123.14 91.4939 123.515C91.1291 123.885 90.9023 124.4 90.8136 125.06H94.9104ZM95.9752 128.622C95.8126 128.822 95.6178 128.997 95.391 129.147C95.1643 129.292 94.9202 129.412 94.6589 129.507C94.4026 129.602 94.1364 129.672 93.8603 129.717C93.5842 129.767 93.3106 129.792 93.0394 129.792C92.5218 129.792 92.0436 129.705 91.6048 129.53C91.171 129.35 90.7938 129.09 90.4734 128.75C90.1579 128.405 89.9114 127.98 89.7339 127.475C89.5564 126.97 89.4677 126.39 89.4677 125.735C89.4677 125.205 89.5465 124.71 89.7043 124.25C89.867 123.79 90.0987 123.392 90.3994 123.057C90.7002 122.717 91.0674 122.452 91.5013 122.262C91.9351 122.067 92.4232 121.97 92.9655 121.97C93.4141 121.97 93.8282 122.047 94.2078 122.202C94.5924 122.352 94.9227 122.572 95.1988 122.862C95.4798 123.147 95.6992 123.502 95.8569 123.927C96.0147 124.347 96.0936 124.827 96.0936 125.367C96.0936 125.577 96.0714 125.717 96.027 125.787C95.9826 125.857 95.8988 125.892 95.7756 125.892H90.7692C90.784 126.372 90.8481 126.79 90.9615 127.145C91.0798 127.5 91.2425 127.797 91.4495 128.037C91.6566 128.272 91.9031 128.45 92.189 128.57C92.475 128.685 92.7954 128.742 93.1504 128.742C93.4807 128.742 93.7641 128.705 94.0008 128.63C94.2423 128.55 94.4494 128.465 94.622 128.375C94.7945 128.285 94.9375 128.202 95.0509 128.127C95.1692 128.047 95.2703 128.007 95.3541 128.007C95.4625 128.007 95.5463 128.05 95.6055 128.135L95.9752 128.622ZM107.115 123.897C106.869 123.562 106.602 123.33 106.316 123.2C106.031 123.065 105.71 122.997 105.355 122.997C104.66 122.997 104.125 123.25 103.75 123.755C103.376 124.26 103.188 124.98 103.188 125.915C103.188 126.41 103.23 126.835 103.314 127.19C103.398 127.54 103.521 127.83 103.684 128.06C103.847 128.285 104.046 128.45 104.283 128.555C104.52 128.66 104.788 128.712 105.089 128.712C105.523 128.712 105.9 128.612 106.22 128.412C106.546 128.212 106.844 127.93 107.115 127.565V123.897ZM108.431 118.64V129.687H107.648C107.46 129.687 107.342 129.595 107.293 129.41L107.174 128.487C106.854 128.877 106.489 129.192 106.08 129.432C105.671 129.672 105.197 129.792 104.66 129.792C104.231 129.792 103.842 129.71 103.492 129.545C103.142 129.375 102.843 129.127 102.597 128.802C102.35 128.477 102.161 128.072 102.027 127.587C101.894 127.102 101.828 126.545 101.828 125.915C101.828 125.355 101.902 124.835 102.05 124.355C102.197 123.87 102.409 123.45 102.686 123.095C102.962 122.74 103.299 122.462 103.699 122.262C104.103 122.057 104.556 121.955 105.059 121.955C105.518 121.955 105.91 122.035 106.235 122.195C106.565 122.35 106.859 122.567 107.115 122.847V118.64H108.431ZM112.27 122.09V129.687H110.954V122.09H112.27ZM112.551 119.705C112.551 119.835 112.524 119.957 112.47 120.072C112.42 120.182 112.351 120.282 112.263 120.372C112.179 120.457 112.078 120.525 111.959 120.575C111.846 120.625 111.725 120.65 111.597 120.65C111.469 120.65 111.348 120.625 111.235 120.575C111.126 120.525 111.03 120.457 110.946 120.372C110.863 120.282 110.796 120.182 110.747 120.072C110.697 119.957 110.673 119.835 110.673 119.705C110.673 119.575 110.697 119.452 110.747 119.337C110.796 119.217 110.863 119.115 110.946 119.03C111.03 118.94 111.126 118.87 111.235 118.82C111.348 118.77 111.469 118.745 111.597 118.745C111.725 118.745 111.846 118.77 111.959 118.82C112.078 118.87 112.179 118.94 112.263 119.03C112.351 119.115 112.42 119.217 112.47 119.337C112.524 119.452 112.551 119.575 112.551 119.705ZM119.166 123.342C119.107 123.452 119.015 123.507 118.892 123.507C118.818 123.507 118.734 123.48 118.641 123.425C118.547 123.37 118.431 123.31 118.293 123.245C118.16 123.175 118 123.112 117.813 123.057C117.625 122.997 117.403 122.967 117.147 122.967C116.925 122.967 116.726 122.997 116.548 123.057C116.371 123.112 116.218 123.19 116.09 123.29C115.966 123.39 115.87 123.507 115.801 123.642C115.737 123.772 115.705 123.915 115.705 124.07C115.705 124.265 115.759 124.427 115.868 124.557C115.981 124.687 116.129 124.8 116.311 124.895C116.494 124.99 116.701 125.075 116.933 125.15C117.164 125.22 117.401 125.297 117.642 125.382C117.889 125.462 118.128 125.552 118.36 125.652C118.591 125.752 118.799 125.877 118.981 126.027C119.163 126.177 119.309 126.362 119.417 126.582C119.531 126.797 119.587 127.057 119.587 127.362C119.587 127.712 119.526 128.037 119.402 128.337C119.279 128.632 119.097 128.89 118.855 129.11C118.614 129.325 118.318 129.495 117.968 129.62C117.618 129.745 117.214 129.807 116.755 129.807C116.232 129.807 115.759 129.722 115.335 129.552C114.911 129.377 114.551 129.155 114.256 128.885L114.566 128.375C114.606 128.31 114.652 128.26 114.707 128.225C114.761 128.19 114.83 128.172 114.914 128.172C115.002 128.172 115.096 128.207 115.195 128.277C115.293 128.347 115.412 128.425 115.55 128.51C115.693 128.595 115.865 128.672 116.067 128.742C116.269 128.812 116.521 128.847 116.822 128.847C117.078 128.847 117.302 128.815 117.495 128.75C117.687 128.68 117.847 128.587 117.975 128.472C118.103 128.357 118.197 128.225 118.256 128.075C118.32 127.925 118.352 127.765 118.352 127.595C118.352 127.385 118.296 127.212 118.182 127.077C118.074 126.937 117.928 126.82 117.746 126.725C117.564 126.625 117.354 126.54 117.117 126.47C116.886 126.395 116.647 126.317 116.4 126.237C116.159 126.157 115.919 126.067 115.683 125.967C115.451 125.862 115.244 125.732 115.062 125.577C114.879 125.422 114.731 125.232 114.618 125.007C114.509 124.777 114.455 124.5 114.455 124.175C114.455 123.885 114.514 123.607 114.633 123.342C114.751 123.072 114.924 122.837 115.15 122.637C115.377 122.432 115.656 122.27 115.986 122.15C116.316 122.03 116.693 121.97 117.117 121.97C117.61 121.97 118.052 122.05 118.441 122.21C118.836 122.365 119.176 122.58 119.462 122.855L119.166 123.342ZM123.871 129.807C123.279 129.807 122.823 129.64 122.503 129.305C122.187 128.97 122.03 128.487 122.03 127.857V123.207H121.127C121.048 123.207 120.982 123.185 120.928 123.14C120.873 123.09 120.846 123.015 120.846 122.915V122.382L122.074 122.225L122.377 119.877C122.392 119.802 122.424 119.742 122.473 119.697C122.527 119.647 122.596 119.622 122.68 119.622H123.346V122.24H125.513V123.207H123.346V127.767C123.346 128.087 123.422 128.325 123.575 128.48C123.728 128.635 123.925 128.712 124.167 128.712C124.305 128.712 124.423 128.695 124.522 128.66C124.625 128.62 124.714 128.577 124.788 128.532C124.862 128.487 124.923 128.447 124.973 128.412C125.027 128.372 125.074 128.352 125.113 128.352C125.182 128.352 125.244 128.395 125.298 128.48L125.683 129.117C125.456 129.332 125.182 129.502 124.862 129.627C124.541 129.747 124.211 129.807 123.871 129.807ZM128.491 123.612C128.728 123.092 129.018 122.687 129.363 122.397C129.709 122.102 130.13 121.955 130.628 121.955C130.786 121.955 130.936 121.972 131.079 122.007C131.227 122.042 131.358 122.097 131.471 122.172L131.375 123.17C131.345 123.295 131.271 123.357 131.153 123.357C131.084 123.357 130.983 123.342 130.85 123.312C130.717 123.282 130.566 123.267 130.399 123.267C130.162 123.267 129.95 123.302 129.763 123.372C129.58 123.442 129.415 123.547 129.267 123.687C129.124 123.822 128.994 123.992 128.875 124.197C128.762 124.397 128.658 124.627 128.565 124.887V129.687H127.241V122.09H127.995C128.138 122.09 128.237 122.117 128.291 122.172C128.345 122.227 128.382 122.322 128.402 122.457L128.491 123.612ZM134.388 122.09V129.687H133.072V122.09H134.388ZM134.669 119.705C134.669 119.835 134.642 119.957 134.588 120.072C134.539 120.182 134.47 120.282 134.381 120.372C134.297 120.457 134.196 120.525 134.078 120.575C133.964 120.625 133.844 120.65 133.715 120.65C133.587 120.65 133.466 120.625 133.353 120.575C133.245 120.525 133.148 120.457 133.065 120.372C132.981 120.282 132.914 120.182 132.865 120.072C132.816 119.957 132.791 119.835 132.791 119.705C132.791 119.575 132.816 119.452 132.865 119.337C132.914 119.217 132.981 119.115 133.065 119.03C133.148 118.94 133.245 118.87 133.353 118.82C133.466 118.77 133.587 118.745 133.715 118.745C133.844 118.745 133.964 118.77 134.078 118.82C134.196 118.87 134.297 118.94 134.381 119.03C134.47 119.115 134.539 119.217 134.588 119.337C134.642 119.452 134.669 119.575 134.669 119.705ZM142.135 123.44C142.095 123.495 142.056 123.537 142.016 123.567C141.977 123.597 141.923 123.612 141.854 123.612C141.78 123.612 141.698 123.582 141.61 123.522C141.521 123.457 141.41 123.387 141.277 123.312C141.149 123.237 140.988 123.17 140.796 123.11C140.609 123.045 140.377 123.012 140.101 123.012C139.731 123.012 139.406 123.08 139.125 123.215C138.844 123.345 138.607 123.535 138.415 123.785C138.228 124.035 138.085 124.337 137.986 124.692C137.892 125.047 137.845 125.445 137.845 125.885C137.845 126.345 137.897 126.755 138.001 127.115C138.104 127.47 138.25 127.77 138.437 128.015C138.629 128.255 138.859 128.44 139.125 128.57C139.396 128.695 139.699 128.757 140.034 128.757C140.355 128.757 140.619 128.72 140.826 128.645C141.033 128.565 141.203 128.477 141.336 128.382C141.474 128.287 141.587 128.202 141.676 128.127C141.77 128.047 141.861 128.007 141.95 128.007C142.058 128.007 142.142 128.05 142.201 128.135L142.571 128.622C142.408 128.827 142.223 129.002 142.016 129.147C141.809 129.292 141.585 129.415 141.343 129.515C141.107 129.61 140.858 129.68 140.596 129.725C140.335 129.77 140.069 129.792 139.798 129.792C139.329 129.792 138.893 129.705 138.489 129.53C138.09 129.355 137.742 129.102 137.446 128.772C137.15 128.437 136.919 128.027 136.751 127.542C136.583 127.057 136.5 126.505 136.5 125.885C136.5 125.32 136.576 124.797 136.729 124.317C136.887 123.837 137.113 123.425 137.409 123.08C137.71 122.73 138.077 122.457 138.511 122.262C138.95 122.067 139.453 121.97 140.02 121.97C140.547 121.97 141.011 122.057 141.41 122.232C141.814 122.402 142.172 122.645 142.482 122.96L142.135 123.44ZM146.654 129.807C146.062 129.807 145.606 129.64 145.285 129.305C144.97 128.97 144.812 128.487 144.812 127.857V123.207H143.91C143.831 123.207 143.765 123.185 143.71 123.14C143.656 123.09 143.629 123.015 143.629 122.915V122.382L144.857 122.225L145.16 119.877C145.175 119.802 145.207 119.742 145.256 119.697C145.31 119.647 145.379 119.622 145.463 119.622H146.128V122.24H148.295V123.207H146.128V127.767C146.128 128.087 146.205 128.325 146.358 128.48C146.511 128.635 146.708 128.712 146.949 128.712C147.087 128.712 147.206 128.695 147.304 128.66C147.408 128.62 147.497 128.577 147.57 128.532C147.644 128.487 147.706 128.447 147.755 128.412C147.81 128.372 147.856 128.352 147.896 128.352C147.965 128.352 148.027 128.395 148.081 128.48L148.465 129.117C148.238 129.332 147.965 129.502 147.644 129.627C147.324 129.747 146.994 129.807 146.654 129.807ZM43.6269 142.477C43.9474 142.132 44.3024 141.857 44.6918 141.652C45.0813 141.447 45.5299 141.345 46.0377 141.345C46.4469 141.345 46.8068 141.415 47.1174 141.555C47.4329 141.69 47.6942 141.885 47.9012 142.14C48.1132 142.39 48.2734 142.692 48.3819 143.047C48.4904 143.402 48.5446 143.795 48.5446 144.225V149.062H47.2209V144.225C47.2209 143.65 47.0903 143.205 46.829 142.89C46.5726 142.57 46.1807 142.41 45.6532 142.41C45.2637 142.41 44.8989 142.505 44.5587 142.695C44.2235 142.885 43.9129 143.142 43.6269 143.467V149.062H42.3033V138.015H43.6269V142.477ZM55.9339 144.435C55.9339 144.125 55.8895 143.842 55.8008 143.587C55.717 143.327 55.5913 143.105 55.4236 142.92C55.2609 142.73 55.0613 142.585 54.8246 142.485C54.588 142.38 54.3193 142.327 54.0186 142.327C53.3876 142.327 52.8872 142.515 52.5174 142.89C52.1526 143.26 51.9258 143.775 51.8371 144.435H55.9339ZM56.9988 147.997C56.8361 148.197 56.6413 148.372 56.4146 148.522C56.1878 148.667 55.9437 148.787 55.6825 148.882C55.4261 148.977 55.1599 149.047 54.8838 149.092C54.6077 149.142 54.3341 149.167 54.063 149.167C53.5453 149.167 53.0671 149.08 52.6283 148.905C52.1945 148.725 51.8174 148.465 51.4969 148.125C51.1814 147.78 50.9349 147.355 50.7574 146.85C50.5799 146.345 50.4912 145.765 50.4912 145.11C50.4912 144.58 50.5701 144.085 50.7278 143.625C50.8905 143.165 51.1222 142.767 51.423 142.432C51.7237 142.092 52.091 141.827 52.5248 141.637C52.9586 141.442 53.4467 141.345 53.989 141.345C54.4376 141.345 54.8518 141.422 55.2314 141.577C55.6159 141.727 55.9462 141.947 56.2223 142.237C56.5033 142.522 56.7227 142.877 56.8804 143.302C57.0382 143.722 57.1171 144.202 57.1171 144.742C57.1171 144.952 57.0949 145.092 57.0505 145.162C57.0062 145.232 56.9223 145.267 56.7991 145.267H51.7927C51.8075 145.747 51.8716 146.165 51.985 146.52C52.1033 146.875 52.266 147.172 52.473 147.412C52.6801 147.647 52.9266 147.825 53.2125 147.945C53.4985 148.06 53.8189 148.117 54.1739 148.117C54.5042 148.117 54.7877 148.08 55.0243 148.005C55.2659 147.925 55.4729 147.84 55.6455 147.75C55.818 147.66 55.961 147.577 56.0744 147.502C56.1927 147.422 56.2938 147.382 56.3776 147.382C56.486 147.382 56.5699 147.425 56.629 147.51L56.9988 147.997ZM63.1635 145.642C62.5571 145.662 62.0395 145.712 61.6106 145.792C61.1866 145.867 60.839 145.967 60.5679 146.092C60.3017 146.217 60.1069 146.365 59.9837 146.535C59.8654 146.705 59.8062 146.895 59.8062 147.105C59.8062 147.305 59.8382 147.477 59.9023 147.622C59.9664 147.767 60.0527 147.887 60.1612 147.982C60.2745 148.072 60.4052 148.14 60.5531 148.185C60.7059 148.225 60.8686 148.245 61.0412 148.245C61.2729 148.245 61.4848 148.222 61.6771 148.177C61.8694 148.127 62.0493 148.057 62.2169 147.967C62.3895 147.877 62.5522 147.77 62.705 147.645C62.8628 147.52 63.0156 147.377 63.1635 147.217V145.642ZM58.9114 142.537C59.3255 142.132 59.7717 141.83 60.2499 141.63C60.7281 141.43 61.2581 141.33 61.8398 141.33C62.2589 141.33 62.6311 141.4 62.9564 141.54C63.2818 141.68 63.5554 141.875 63.7773 142.125C63.9991 142.375 64.1668 142.677 64.2801 143.032C64.3935 143.387 64.4502 143.777 64.4502 144.202V149.062H63.866C63.7379 149.062 63.6392 149.042 63.5702 149.002C63.5012 148.957 63.447 148.872 63.4075 148.747L63.2596 148.027C63.0624 148.212 62.8702 148.377 62.6828 148.522C62.4955 148.662 62.2983 148.782 62.0912 148.882C61.8842 148.977 61.6623 149.05 61.4257 149.1C61.194 149.155 60.9352 149.182 60.6492 149.182C60.3584 149.182 60.0847 149.142 59.8284 149.062C59.572 148.977 59.3477 148.852 59.1554 148.687C58.9681 148.522 58.8177 148.315 58.7043 148.065C58.5959 147.81 58.5417 147.51 58.5417 147.165C58.5417 146.865 58.623 146.577 58.7857 146.302C58.9484 146.022 59.2121 145.775 59.577 145.56C59.9418 145.345 60.4175 145.17 61.0042 145.035C61.5908 144.895 62.3106 144.815 63.1635 144.795V144.202C63.1635 143.612 63.0378 143.167 62.7864 142.867C62.5349 142.562 62.1677 142.41 61.6845 142.41C61.3591 142.41 61.0855 142.452 60.8637 142.537C60.6468 142.617 60.4569 142.71 60.2943 142.815C60.1365 142.915 59.9985 143.007 59.8801 143.092C59.7668 143.172 59.6534 143.212 59.54 143.212C59.4512 143.212 59.3748 143.19 59.3107 143.145C59.2466 143.095 59.1924 143.035 59.148 142.965L58.9114 142.537ZM73.6751 149.062H72.3588V142.582H68.4987V147.142C68.4987 147.462 68.5751 147.7 68.728 147.855C68.8808 148.01 69.0779 148.087 69.3195 148.087C69.4575 148.087 69.5759 148.07 69.6745 148.035C69.778 147.995 69.8667 147.952 69.9407 147.907C70.0146 147.862 70.0762 147.822 70.1255 147.787C70.1798 147.747 70.2266 147.727 70.2661 147.727C70.3351 147.727 70.3967 147.77 70.4509 147.855L70.8355 148.492C70.6087 148.707 70.3351 148.877 70.0146 149.002C69.6942 149.122 69.3639 149.182 69.0237 149.182C68.4322 149.182 67.9761 149.015 67.6557 148.68C67.3402 148.345 67.1824 147.862 67.1824 147.232V142.582H66.2802C66.2014 142.582 66.1348 142.56 66.0806 142.515C66.0263 142.465 65.9992 142.39 65.9992 142.29V141.757L67.2268 141.592L67.53 139.252C67.5448 139.177 67.5768 139.117 67.6261 139.072C67.6803 139.022 67.7494 138.997 67.8332 138.997H68.4987V141.615H73.6751V149.062ZM74.0005 139.027C74.0005 139.157 73.9734 139.28 73.9192 139.395C73.8699 139.505 73.8008 139.602 73.7121 139.687C73.6283 139.772 73.5297 139.84 73.4163 139.89C73.3029 139.94 73.1821 139.965 73.054 139.965C72.9258 139.965 72.805 139.94 72.6916 139.89C72.5831 139.84 72.487 139.772 72.4032 139.687C72.3194 139.602 72.2528 139.505 72.2035 139.395C72.1542 139.28 72.1296 139.157 72.1296 139.027C72.1296 138.897 72.1542 138.775 72.2035 138.66C72.2528 138.54 72.3194 138.437 72.4032 138.352C72.487 138.262 72.5831 138.192 72.6916 138.142C72.805 138.092 72.9258 138.067 73.054 138.067C73.1821 138.067 73.3029 138.092 73.4163 138.142C73.5297 138.192 73.6283 138.262 73.7121 138.352C73.8008 138.437 73.8699 138.54 73.9192 138.66C73.9734 138.775 74.0005 138.897 74.0005 139.027ZM77.4496 142.567C77.6123 142.382 77.7849 142.215 77.9673 142.065C78.1497 141.915 78.342 141.787 78.5441 141.682C78.7512 141.572 78.9681 141.49 79.1948 141.435C79.4266 141.375 79.6755 141.345 79.9417 141.345C80.3509 141.345 80.7108 141.415 81.0214 141.555C81.3369 141.69 81.5982 141.885 81.8053 142.14C82.0173 142.39 82.1775 142.692 82.2859 143.047C82.3944 143.402 82.4486 143.795 82.4486 144.225V149.062H81.1249V144.225C81.1249 143.65 80.9943 143.205 80.733 142.89C80.4766 142.57 80.0847 142.41 79.5572 142.41C79.1677 142.41 78.8029 142.505 78.4627 142.695C78.1275 142.885 77.8169 143.142 77.531 143.467V149.062H76.2073V141.465H76.9985C77.1859 141.465 77.3017 141.557 77.3461 141.742L77.4496 142.567ZM87.4347 145.35C87.7009 145.35 87.9351 145.312 88.1372 145.237C88.3393 145.162 88.5094 145.057 88.6475 144.922C88.7855 144.787 88.889 144.627 88.958 144.442C89.0271 144.252 89.0616 144.045 89.0616 143.82C89.0616 143.355 88.9211 142.985 88.6401 142.71C88.364 142.435 87.9622 142.297 87.4347 142.297C86.9022 142.297 86.4955 142.435 86.2145 142.71C85.9384 142.985 85.8004 143.355 85.8004 143.82C85.8004 144.045 85.8349 144.252 85.9039 144.442C85.9779 144.627 86.0839 144.787 86.2219 144.922C86.3599 145.057 86.53 145.162 86.7322 145.237C86.9343 145.312 87.1685 145.35 87.4347 145.35ZM89.8085 149.475C89.8085 149.29 89.7567 149.14 89.6532 149.025C89.5496 148.91 89.4091 148.82 89.2317 148.755C89.0591 148.69 88.857 148.645 88.6253 148.62C88.3936 148.59 88.1471 148.567 87.8858 148.552C87.6294 148.537 87.3681 148.522 87.1019 148.507C86.8357 148.492 86.5793 148.467 86.3328 148.432C86.0568 148.562 85.83 148.727 85.6525 148.927C85.48 149.122 85.3937 149.352 85.3937 149.617C85.3937 149.787 85.4356 149.945 85.5194 150.09C85.6081 150.24 85.7412 150.367 85.9187 150.472C86.0962 150.582 86.318 150.667 86.5843 150.727C86.8554 150.792 87.1734 150.825 87.5382 150.825C87.8932 150.825 88.2112 150.792 88.4922 150.727C88.7732 150.662 89.0098 150.57 89.2021 150.45C89.3993 150.33 89.5496 150.187 89.6532 150.022C89.7567 149.857 89.8085 149.675 89.8085 149.475ZM91.1469 141.765V142.26C91.1469 142.425 91.0434 142.53 90.8364 142.575L89.9859 142.687C90.1535 143.017 90.2374 143.382 90.2374 143.782C90.2374 144.152 90.1659 144.49 90.0229 144.795C89.8849 145.095 89.6926 145.352 89.4461 145.567C89.1996 145.782 88.9038 145.947 88.5587 146.062C88.2136 146.177 87.8389 146.235 87.4347 146.235C87.0846 146.235 86.7543 146.192 86.4438 146.107C86.286 146.207 86.1652 146.315 86.0814 146.43C85.9976 146.54 85.9557 146.652 85.9557 146.767C85.9557 146.947 86.0272 147.085 86.1701 147.18C86.318 147.27 86.5103 147.335 86.7469 147.375C86.9836 147.415 87.2523 147.44 87.553 147.45C87.8587 147.46 88.1692 147.477 88.4848 147.502C88.8052 147.522 89.1158 147.56 89.4165 147.615C89.7222 147.67 89.9933 147.76 90.23 147.885C90.4666 148.01 90.6564 148.182 90.7994 148.402C90.9473 148.622 91.0212 148.907 91.0212 149.257C91.0212 149.582 90.9399 149.897 90.7772 150.202C90.6194 150.507 90.3902 150.777 90.0895 151.012C89.7887 151.252 89.419 151.442 88.9802 151.582C88.5464 151.727 88.0559 151.8 87.5086 151.8C86.9614 151.8 86.4832 151.745 86.074 151.635C85.6648 151.525 85.3247 151.377 85.0535 151.192C84.7824 151.007 84.5778 150.792 84.4397 150.547C84.3066 150.307 84.2401 150.055 84.2401 149.79C84.2401 149.415 84.3559 149.097 84.5876 148.837C84.8193 148.577 85.1373 148.37 85.5416 148.215C85.3197 148.115 85.1422 147.982 85.0091 147.817C84.881 147.647 84.8169 147.42 84.8169 147.135C84.8169 147.025 84.8366 146.912 84.876 146.797C84.9155 146.677 84.9746 146.56 85.0535 146.445C85.1373 146.325 85.2384 146.212 85.3567 146.107C85.475 146.002 85.6131 145.91 85.7708 145.83C85.4011 145.62 85.1127 145.342 84.9056 144.997C84.6985 144.647 84.595 144.242 84.595 143.782C84.595 143.412 84.664 143.077 84.8021 142.777C84.945 142.472 85.1422 142.215 85.3937 142.005C85.6451 141.79 85.9434 141.625 86.2885 141.51C86.6385 141.395 87.0206 141.337 87.4347 141.337C87.7601 141.337 88.0633 141.375 88.3443 141.45C88.6253 141.52 88.8816 141.625 89.1133 141.765H91.1469ZM43.6935 160.84V168.437H42.3772V160.84H43.6935ZM43.9745 158.455C43.9745 158.585 43.9474 158.707 43.8932 158.822C43.8439 158.932 43.7748 159.032 43.6861 159.122C43.6023 159.207 43.5012 159.275 43.3829 159.325C43.2695 159.375 43.1487 159.4 43.0206 159.4C42.8924 159.4 42.7716 159.375 42.6582 159.325C42.5498 159.275 42.4536 159.207 42.3698 159.122C42.286 159.032 42.2194 158.932 42.1701 158.822C42.1208 158.707 42.0962 158.585 42.0962 158.455C42.0962 158.325 42.1208 158.202 42.1701 158.087C42.2194 157.967 42.286 157.865 42.3698 157.78C42.4536 157.69 42.5498 157.62 42.6582 157.57C42.7716 157.52 42.8924 157.495 43.0206 157.495C43.1487 157.495 43.2695 157.52 43.3829 157.57C43.5012 157.62 43.6023 157.69 43.6861 157.78C43.7748 157.865 43.8439 157.967 43.8932 158.087C43.9474 158.202 43.9745 158.325 43.9745 158.455ZM47.4684 161.942C47.6311 161.757 47.8036 161.59 47.986 161.44C48.1684 161.29 48.3607 161.162 48.5628 161.057C48.7699 160.947 48.9868 160.865 49.2136 160.81C49.4453 160.75 49.6943 160.72 49.9605 160.72C50.3697 160.72 50.7296 160.79 51.0401 160.93C51.3557 161.065 51.617 161.26 51.824 161.515C52.036 161.765 52.1962 162.067 52.3047 162.422C52.4131 162.777 52.4674 163.17 52.4674 163.6V168.437H51.1437V163.6C51.1437 163.025 51.013 162.58 50.7517 162.265C50.4954 161.945 50.1035 161.785 49.5759 161.785C49.1865 161.785 48.8217 161.88 48.4815 162.07C48.1463 162.26 47.8357 162.517 47.5497 162.842V168.437H46.226V160.84H47.0173C47.2046 160.84 47.3205 160.932 47.3649 161.117L47.4684 161.942ZM57.0416 168.557C56.4501 168.557 55.994 168.39 55.6736 168.055C55.3581 167.72 55.2003 167.237 55.2003 166.607V161.957H54.2981C54.2192 161.957 54.1527 161.935 54.0985 161.89C54.0442 161.84 54.0171 161.765 54.0171 161.665V161.132L55.2447 160.975L55.5479 158.627C55.5627 158.552 55.5947 158.492 55.644 158.447C55.6982 158.397 55.7673 158.372 55.8511 158.372H56.5166V160.99H58.6833V161.957H56.5166V166.517C56.5166 166.837 56.593 167.075 56.7459 167.23C56.8987 167.385 57.0959 167.462 57.3374 167.462C57.4755 167.462 57.5938 167.445 57.6924 167.41C57.7959 167.37 57.8847 167.327 57.9586 167.282C58.0326 167.237 58.0942 167.197 58.1435 167.162C58.1977 167.122 58.2446 167.102 58.284 167.102C58.353 167.102 58.4146 167.145 58.4689 167.23L58.8534 167.867C58.6266 168.082 58.353 168.252 58.0326 168.377C57.7121 168.497 57.3818 168.557 57.0416 168.557ZM65.3827 163.81C65.3827 163.5 65.3383 163.217 65.2496 162.962C65.1657 162.702 65.04 162.48 64.8724 162.295C64.7097 162.105 64.5101 161.96 64.2734 161.86C64.0368 161.755 63.7681 161.702 63.4674 161.702C62.8363 161.702 62.3359 161.89 61.9662 162.265C61.6014 162.635 61.3746 163.15 61.2859 163.81H65.3827ZM66.4475 167.372C66.2849 167.572 66.0901 167.747 65.8633 167.897C65.6366 168.042 65.3925 168.162 65.1312 168.257C64.8749 168.352 64.6087 168.422 64.3326 168.467C64.0565 168.517 63.7829 168.542 63.5117 168.542C62.9941 168.542 62.5159 168.455 62.0771 168.28C61.6433 168.1 61.2661 167.84 60.9457 167.5C60.6302 167.155 60.3837 166.73 60.2062 166.225C60.0287 165.72 59.94 165.14 59.94 164.485C59.94 163.955 60.0189 163.46 60.1766 163C60.3393 162.54 60.571 162.142 60.8717 161.807C61.1725 161.467 61.5398 161.202 61.9736 161.012C62.4074 160.817 62.8955 160.72 63.4378 160.72C63.8864 160.72 64.3005 160.797 64.6801 160.952C65.0647 161.102 65.395 161.322 65.6711 161.612C65.9521 161.897 66.1715 162.252 66.3292 162.677C66.487 163.097 66.5659 163.577 66.5659 164.117C66.5659 164.327 66.5437 164.467 66.4993 164.537C66.4549 164.607 66.3711 164.642 66.2479 164.642H61.2415C61.2563 165.122 61.3204 165.54 61.4338 165.895C61.5521 166.25 61.7148 166.547 61.9218 166.787C62.1289 167.022 62.3754 167.2 62.6613 167.32C62.9473 167.435 63.2677 167.492 63.6227 167.492C63.953 167.492 64.2365 167.455 64.4731 167.38C64.7147 167.3 64.9217 167.215 65.0943 167.125C65.2668 167.035 65.4098 166.952 65.5232 166.877C65.6415 166.797 65.7426 166.757 65.8264 166.757C65.9348 166.757 66.0186 166.8 66.0778 166.885L66.4475 167.372ZM71.1627 164.725C71.4289 164.725 71.6631 164.687 71.8652 164.612C72.0673 164.537 72.2374 164.432 72.3755 164.297C72.5135 164.162 72.617 164.002 72.6861 163.817C72.7551 163.627 72.7896 163.42 72.7896 163.195C72.7896 162.73 72.6491 162.36 72.3681 162.085C72.092 161.81 71.6902 161.672 71.1627 161.672C70.6303 161.672 70.2235 161.81 69.9425 162.085C69.6664 162.36 69.5284 162.73 69.5284 163.195C69.5284 163.42 69.5629 163.627 69.6319 163.817C69.7059 164.002 69.8119 164.162 69.9499 164.297C70.088 164.432 70.258 164.537 70.4602 164.612C70.6623 164.687 70.8965 164.725 71.1627 164.725ZM73.5365 168.85C73.5365 168.665 73.4847 168.515 73.3812 168.4C73.2776 168.285 73.1371 168.195 72.9597 168.13C72.7871 168.065 72.585 168.02 72.3533 167.995C72.1216 167.965 71.8751 167.942 71.6138 167.927C71.3574 167.912 71.0961 167.897 70.8299 167.882C70.5637 167.867 70.3073 167.842 70.0608 167.807C69.7848 167.937 69.558 168.102 69.3805 168.302C69.208 168.497 69.1217 168.727 69.1217 168.992C69.1217 169.162 69.1636 169.32 69.2474 169.465C69.3361 169.615 69.4692 169.742 69.6467 169.847C69.8242 169.957 70.0461 170.042 70.3123 170.102C70.5834 170.167 70.9014 170.2 71.2662 170.2C71.6212 170.2 71.9392 170.167 72.2202 170.102C72.5012 170.037 72.7378 169.945 72.9301 169.825C73.1273 169.705 73.2776 169.562 73.3812 169.397C73.4847 169.232 73.5365 169.05 73.5365 168.85ZM74.875 161.14V161.635C74.875 161.8 74.7714 161.905 74.5644 161.95L73.714 162.062C73.8816 162.392 73.9654 162.757 73.9654 163.157C73.9654 163.527 73.8939 163.865 73.7509 164.17C73.6129 164.47 73.4206 164.727 73.1741 164.942C72.9276 165.157 72.6318 165.322 72.2867 165.437C71.9416 165.552 71.567 165.61 71.1627 165.61C70.8127 165.61 70.4824 165.567 70.1718 165.482C70.014 165.582 69.8932 165.69 69.8094 165.805C69.7256 165.915 69.6837 166.027 69.6837 166.142C69.6837 166.322 69.7552 166.46 69.8982 166.555C70.0461 166.645 70.2383 166.71 70.475 166.75C70.7116 166.79 70.9803 166.815 71.281 166.825C71.5867 166.835 71.8973 166.852 72.2128 166.877C72.5332 166.897 72.8438 166.935 73.1445 166.99C73.4502 167.045 73.7213 167.135 73.958 167.26C74.1946 167.385 74.3844 167.557 74.5274 167.777C74.6753 167.997 74.7492 168.282 74.7492 168.632C74.7492 168.957 74.6679 169.272 74.5052 169.577C74.3475 169.882 74.1182 170.152 73.8175 170.387C73.5168 170.627 73.147 170.817 72.7082 170.957C72.2744 171.102 71.7839 171.175 71.2366 171.175C70.6894 171.175 70.2112 171.12 69.802 171.01C69.3928 170.9 69.0527 170.752 68.7817 170.567C68.5106 170.382 68.306 170.167 68.1679 169.922C68.0348 169.682 67.9683 169.43 67.9683 169.165C67.9683 168.79 68.0841 168.472 68.3158 168.212C68.5475 167.952 68.8655 167.745 69.2696 167.59C69.0477 167.49 68.8704 167.357 68.7373 167.192C68.6092 167.022 68.5451 166.795 68.5451 166.51C68.5451 166.4 68.5648 166.287 68.6042 166.172C68.6437 166.052 68.7028 165.935 68.7817 165.82C68.8655 165.7 68.9666 165.587 69.0847 165.482C69.203 165.377 69.3411 165.285 69.4988 165.205C69.1291 164.995 68.8409 164.717 68.6338 164.372C68.4267 164.022 68.3232 163.617 68.3232 163.157C68.3232 162.787 68.3922 162.452 68.5303 162.152C68.6732 161.847 68.8704 161.59 69.1217 161.38C69.3731 161.165 69.6714 161 70.0165 160.885C70.3665 160.77 70.7486 160.712 71.1627 160.712C71.4881 160.712 71.7913 160.75 72.0723 160.825C72.3533 160.895 72.6096 161 72.8413 161.14H74.875ZM77.8557 162.362C78.0924 161.842 78.3833 161.437 78.7284 161.147C79.0734 160.852 79.495 160.705 79.9929 160.705C80.1506 160.705 80.301 160.722 80.444 160.757C80.5919 160.792 80.7225 160.847 80.8359 160.922L80.7398 161.92C80.7102 162.045 80.6363 162.107 80.5179 162.107C80.4489 162.107 80.3478 162.092 80.2147 162.062C80.0816 162.032 79.9313 162.017 79.7636 162.017C79.527 162.017 79.315 162.052 79.1277 162.122C78.9453 162.192 78.7801 162.297 78.6322 162.437C78.4892 162.572 78.3586 162.742 78.2403 162.947C78.1269 163.147 78.0234 163.377 77.9297 163.637V168.437H76.606V160.84H77.3603C77.5033 160.84 77.6018 160.867 77.6561 160.922C77.7103 160.977 77.7473 161.072 77.767 161.207L77.8557 162.362ZM86.3076 165.017C85.7012 165.037 85.1835 165.087 84.7546 165.167C84.3307 165.242 83.9831 165.342 83.7119 165.467C83.4457 165.592 83.251 165.74 83.1277 165.91C83.0094 166.08 82.9503 166.27 82.9503 166.48C82.9503 166.68 82.9823 166.852 83.0464 166.997C83.1105 167.142 83.1968 167.262 83.3052 167.357C83.4186 167.447 83.5492 167.515 83.6971 167.56C83.85 167.6 84.0127 167.62 84.1852 167.62C84.4169 167.62 84.6289 167.597 84.8212 167.552C85.0134 167.502 85.1934 167.432 85.361 167.342C85.5336 167.252 85.6963 167.145 85.8491 167.02C86.0068 166.895 86.1597 166.752 86.3076 166.592V165.017ZM82.0555 161.912C82.4696 161.507 82.9157 161.205 83.394 161.005C83.8722 160.805 84.4021 160.705 84.9839 160.705C85.4029 160.705 85.7751 160.775 86.1005 160.915C86.4259 161.055 86.6995 161.25 86.9213 161.5C87.1432 161.75 87.3108 162.052 87.4242 162.407C87.5376 162.762 87.5943 163.152 87.5943 163.577V168.437H87.0101C86.8819 168.437 86.7833 168.417 86.7143 168.377C86.6453 168.332 86.591 168.247 86.5516 168.122L86.4037 167.402C86.2065 167.587 86.0142 167.752 85.8269 167.897C85.6395 168.037 85.4424 168.157 85.2353 168.257C85.0282 168.352 84.8064 168.425 84.5698 168.475C84.338 168.53 84.0792 168.557 83.7933 168.557C83.5024 168.557 83.2288 168.517 82.9724 168.437C82.7161 168.352 82.4918 168.227 82.2995 168.062C82.1122 167.897 81.9618 167.69 81.8484 167.44C81.7399 167.185 81.6857 166.885 81.6857 166.54C81.6857 166.24 81.7671 165.952 81.9298 165.677C82.0924 165.397 82.3562 165.15 82.721 164.935C83.0858 164.72 83.5616 164.545 84.1482 164.41C84.7349 164.27 85.4547 164.19 86.3076 164.17V163.577C86.3076 162.987 86.1818 162.542 85.9304 162.242C85.679 161.937 85.3117 161.785 84.8286 161.785C84.5032 161.785 84.2296 161.827 84.0077 161.912C83.7908 161.992 83.601 162.085 83.4383 162.19C83.2806 162.29 83.1425 162.382 83.0242 162.467C82.9108 162.547 82.7974 162.587 82.684 162.587C82.5953 162.587 82.5189 162.565 82.4548 162.52C82.3907 162.47 82.3365 162.41 82.2921 162.34L82.0555 161.912ZM96.8189 168.437H95.5026V161.957H91.6424V166.517C91.6424 166.837 91.7188 167.075 91.8717 167.23C92.0245 167.385 92.2217 167.462 92.4632 167.462C92.6013 167.462 92.7196 167.445 92.8182 167.41C92.9217 167.37 93.0105 167.327 93.0844 167.282C93.1584 167.237 93.22 167.197 93.2693 167.162C93.3235 167.122 93.3704 167.102 93.4098 167.102C93.4788 167.102 93.5404 167.145 93.5947 167.23L93.9792 167.867C93.7524 168.082 93.4788 168.252 93.1584 168.377C92.8379 168.497 92.5076 168.557 92.1674 168.557C91.5759 168.557 91.1198 168.39 90.7994 168.055C90.4839 167.72 90.3261 167.237 90.3261 166.607V161.957H89.4239C89.345 161.957 89.2785 161.935 89.2243 161.89C89.17 161.84 89.1429 161.765 89.1429 161.665V161.132L90.3705 160.967L90.6737 158.627C90.6885 158.552 90.7205 158.492 90.7698 158.447C90.824 158.397 90.8931 158.372 90.9769 158.372H91.6424V160.99H96.8189V168.437ZM97.1443 158.402C97.1443 158.532 97.1171 158.655 97.0629 158.77C97.0136 158.88 96.9446 158.977 96.8559 159.062C96.772 159.147 96.6734 159.215 96.5601 159.265C96.4467 159.315 96.3259 159.34 96.1977 159.34C96.0695 159.34 95.9487 159.315 95.8354 159.265C95.7269 159.215 95.6308 159.147 95.5469 159.062C95.4631 158.977 95.3966 158.88 95.3473 158.77C95.298 158.655 95.2733 158.532 95.2733 158.402C95.2733 158.272 95.298 158.15 95.3473 158.035C95.3966 157.915 95.4631 157.812 95.5469 157.727C95.6308 157.637 95.7269 157.567 95.8354 157.517C95.9487 157.467 96.0695 157.442 96.1977 157.442C96.3259 157.442 96.4467 157.467 96.5601 157.517C96.6734 157.567 96.772 157.637 96.8559 157.727C96.9446 157.812 97.0136 157.915 97.0629 158.035C97.1171 158.15 97.1443 158.272 97.1443 158.402ZM102.509 160.72C103.056 160.72 103.549 160.812 103.988 160.997C104.426 161.182 104.801 161.445 105.112 161.785C105.422 162.125 105.659 162.537 105.822 163.022C105.989 163.502 106.073 164.04 106.073 164.635C106.073 165.235 105.989 165.775 105.822 166.255C105.659 166.735 105.422 167.145 105.112 167.485C104.801 167.825 104.426 168.087 103.988 168.272C103.549 168.452 103.056 168.542 102.509 168.542C101.957 168.542 101.459 168.452 101.015 168.272C100.576 168.087 100.201 167.825 99.8909 167.485C99.5803 167.145 99.3412 166.735 99.1736 166.255C99.0109 165.775 98.9295 165.235 98.9295 164.635C98.9295 164.04 99.0109 163.502 99.1736 163.022C99.3412 162.537 99.5803 162.125 99.8909 161.785C100.201 161.445 100.576 161.182 101.015 160.997C101.459 160.812 101.957 160.72 102.509 160.72ZM102.509 167.5C103.248 167.5 103.8 167.25 104.165 166.75C104.53 166.245 104.712 165.542 104.712 164.642C104.712 163.737 104.53 163.032 104.165 162.527C103.8 162.022 103.248 161.77 102.509 161.77C102.134 161.77 101.806 161.835 101.525 161.965C101.249 162.095 101.017 162.282 100.83 162.527C100.648 162.772 100.51 163.075 100.416 163.435C100.327 163.79 100.283 164.192 100.283 164.642C100.283 165.542 100.465 166.245 100.83 166.75C101.2 167.25 101.759 167.5 102.509 167.5ZM109.355 161.942C109.518 161.757 109.69 161.59 109.873 161.44C110.055 161.29 110.248 161.162 110.45 161.057C110.657 160.947 110.874 160.865 111.1 160.81C111.332 160.75 111.581 160.72 111.847 160.72C112.256 160.72 112.616 160.79 112.927 160.93C113.242 161.065 113.504 161.26 113.711 161.515C113.923 161.765 114.083 162.067 114.191 162.422C114.3 162.777 114.354 163.17 114.354 163.6V168.437H113.03V163.6C113.03 163.025 112.9 162.58 112.639 162.265C112.382 161.945 111.99 161.785 111.463 161.785C111.073 161.785 110.708 161.88 110.368 162.07C110.033 162.26 109.722 162.517 109.437 162.842V168.437H108.113V160.84H108.904C109.091 160.84 109.207 160.932 109.252 161.117L109.355 161.942Z" fill="white"/>
</g>
<defs>
<filter id="filter0_d_800_2525" x="0" y="0" width="234.734" height="237.5" filterUnits="userSpaceOnUse" color-interpolation-filters="sRGB">
<feFlood flood-opacity="0" result="BackgroundImageFix"/>
<feColorMatrix in="SourceAlpha" type="matrix" values="0 0 0 0 0 0 0 0 0 0 0 0 0 0 0 0 0 0 127 0" result="hardAlpha"/>
<feOffset dy="5"/>
<feGaussianBlur stdDeviation="10"/>
<feComposite in2="hardAlpha" operator="out"/>
<feColorMatrix type="matrix" values="0 0 0 0 0 0 0 0 0 0 0 0 0 0 0 0 0 0 0.15 0"/>
<feBlend mode="normal" in2="BackgroundImageFix" result="effect1_dropShadow_800_2525"/>
<feBlend mode="normal" in="SourceGraphic" in2="effect1_dropShadow_800_2525" result="shape"/>
</filter>
</defs>
</svg>
