<svg width="235" height="235" viewBox="0 0 235 235" fill="none" xmlns="http://www.w3.org/2000/svg">
<g id="Vector" filter="url(#filter0_d_800_2523)">
<path d="M117.367 209.734C63.5927 209.734 20 166.141 20 112.367C20 58.5927 63.5927 15 117.367 15C171.141 15 214.734 58.5927 214.734 112.367V209.734H117.367Z" fill="white"/>
<path d="M117.675 39.958C105.78 39.958 96.1064 49.6312 96.1064 61.5266C96.1064 73.422 105.78 83.0952 117.675 83.0952C129.57 83.0952 139.244 73.422 139.244 61.5266C139.244 49.6312 129.566 39.958 117.675 39.958ZM117.675 81.5515C106.63 81.5515 97.6501 72.5667 97.6501 61.5266C97.6501 50.4867 106.63 41.5019 117.675 41.5019C128.72 41.5019 137.7 50.4867 137.7 61.5266C137.7 72.5667 128.715 81.5515 117.675 81.5515Z" fill="#6D6E71"/>
<path d="M131.666 52.5165C127.07 44.5541 116.891 41.8309 108.933 46.422C101.305 50.8258 98.4802 60.3624 102.312 68.1525C99.0071 61.2685 101.523 52.886 108.25 48.9985C115.306 44.9237 124.331 47.3433 128.406 54.3995C128.832 55.1335 129.186 55.8877 129.464 56.6571L133.443 56.9507C133.078 55.4321 132.491 53.9389 131.671 52.5165H131.666Z" fill="#82AFB8"/>
<path d="M119.442 58.0643L115.6 48.7352C115.458 48.386 115.083 48.1936 114.719 48.2747C114.355 48.3556 114.097 48.6897 114.117 49.0643L114.628 59.102C114.081 59.7904 113.777 60.6357 113.777 61.5216C113.777 63.6678 115.524 65.4141 117.675 65.4141C119.826 65.4141 121.573 63.6678 121.573 61.5216C121.573 60.0435 120.748 58.7274 119.447 58.0643H119.442ZM117.67 63.8753C116.374 63.8753 115.316 62.8225 115.316 61.5216C115.316 60.9192 115.549 60.3472 115.964 59.9068C116.101 59.7651 116.177 59.5727 116.177 59.3753C116.177 59.3753 116.177 59.345 116.177 59.3298L115.878 53.4732L118.121 58.9147C118.146 58.9805 118.187 59.0362 118.227 59.0918C118.237 59.102 118.247 59.1171 118.257 59.1273C118.303 59.1779 118.348 59.2234 118.409 59.2639C118.45 59.2893 118.495 59.3146 118.541 59.3348C119.436 59.6993 120.019 60.5547 120.019 61.5165C120.019 62.8123 118.961 63.8703 117.665 63.8703L117.67 63.8753Z" fill="#6D6E71"/>
<path d="M96.1169 117.112H97.3889V127.465H96.1465L89.8608 119.109V127.465H88.5889V117.112H89.9348L96.1169 125.365V117.112ZM103.429 127.628C102.364 127.628 101.486 127.278 100.796 126.578C100.106 125.868 99.7608 124.966 99.7608 123.871C99.7608 122.796 100.101 121.904 100.781 121.194C101.462 120.474 102.315 120.114 103.34 120.114C104.346 120.114 105.179 120.474 105.839 121.194C106.5 121.904 106.83 122.777 106.83 123.812L106.816 124.27H101.033C101.072 124.901 101.324 125.429 101.787 125.853C102.26 126.277 102.812 126.489 103.443 126.489C103.946 126.489 104.356 126.385 104.671 126.178C104.987 125.971 105.273 125.666 105.529 125.261L106.564 125.794C106.259 126.356 105.835 126.804 105.292 127.14C104.75 127.465 104.129 127.628 103.429 127.628ZM101.062 123.22H105.544C105.475 122.648 105.228 122.175 104.804 121.8C104.39 121.416 103.892 121.224 103.31 121.224C102.748 121.224 102.246 121.431 101.802 121.845C101.368 122.249 101.121 122.708 101.062 123.22ZM114.689 120.277H115.947V127.465H114.689V126.311C114.433 126.716 114.073 127.036 113.61 127.273C113.156 127.509 112.668 127.628 112.146 127.628C111.12 127.628 110.262 127.268 109.572 126.548C108.882 125.828 108.537 124.936 108.537 123.871C108.537 122.816 108.882 121.929 109.572 121.209C110.272 120.479 111.13 120.114 112.146 120.114C112.678 120.114 113.166 120.228 113.61 120.455C114.063 120.672 114.423 120.977 114.689 121.372V120.277ZM114.053 125.72C114.527 125.217 114.763 124.601 114.763 123.871C114.763 123.141 114.527 122.53 114.053 122.037C113.58 121.534 112.993 121.283 112.293 121.283C111.593 121.283 111.007 121.534 110.533 122.037C110.06 122.53 109.823 123.141 109.823 123.871C109.823 124.601 110.06 125.217 110.533 125.72C111.007 126.213 111.593 126.459 112.293 126.459C112.993 126.459 113.58 126.213 114.053 125.72ZM122.439 120.188V121.46C122.35 121.441 122.232 121.431 122.084 121.431C121.423 121.431 120.901 121.672 120.516 122.155C120.131 122.629 119.939 123.26 119.939 124.049V127.465H118.682V120.277H119.924V121.549C120.082 121.135 120.368 120.8 120.782 120.543C121.206 120.287 121.655 120.159 122.128 120.159L122.439 120.188ZM124.382 117.112H125.654V127.465H124.382V117.112ZM134.529 120.277L131.068 128.559C130.743 129.338 130.397 129.891 130.033 130.216C129.678 130.551 129.234 130.719 128.702 130.719C128.406 130.719 128.145 130.669 127.918 130.571V129.447C128.135 129.526 128.361 129.565 128.598 129.565C128.884 129.565 129.121 129.472 129.308 129.284C129.505 129.097 129.702 128.771 129.9 128.308L130.328 127.273L127.474 120.277H128.835L130.994 125.823L133.213 120.277H134.529ZM140.338 117.112H141.61V127.465H140.338V117.112ZM144.895 121.209C145.615 120.479 146.512 120.114 147.587 120.114C148.662 120.114 149.554 120.479 150.264 121.209C150.984 121.929 151.344 122.816 151.344 123.871C151.344 124.926 150.984 125.818 150.264 126.548C149.554 127.268 148.662 127.628 147.587 127.628C146.512 127.628 145.615 127.268 144.895 126.548C144.185 125.818 143.83 124.926 143.83 123.871C143.83 122.816 144.185 121.929 144.895 121.209ZM149.347 122.037C148.874 121.534 148.287 121.283 147.587 121.283C146.887 121.283 146.3 121.534 145.827 122.037C145.354 122.54 145.117 123.151 145.117 123.871C145.117 124.591 145.354 125.202 145.827 125.705C146.3 126.208 146.887 126.459 147.587 126.459C148.287 126.459 148.874 126.208 149.347 125.705C149.82 125.202 150.057 124.591 150.057 123.871C150.057 123.151 149.82 122.54 149.347 122.037ZM152.876 125.675L154 125.247C154.109 125.631 154.306 125.942 154.592 126.178C154.888 126.405 155.223 126.518 155.598 126.518C155.923 126.518 156.204 126.43 156.441 126.252C156.677 126.065 156.796 125.818 156.796 125.513C156.796 125.049 156.455 124.704 155.775 124.477L154.976 124.211C153.744 123.797 153.128 123.117 153.128 122.17C153.128 121.569 153.35 121.076 153.793 120.691C154.237 120.307 154.794 120.114 155.465 120.114C156.046 120.114 156.549 120.272 156.973 120.588C157.407 120.893 157.722 121.317 157.92 121.86L156.81 122.303C156.544 121.574 156.086 121.209 155.435 121.209C155.139 121.209 154.888 121.293 154.681 121.46C154.483 121.618 154.385 121.825 154.385 122.081C154.385 122.505 154.735 122.841 155.435 123.087L156.174 123.339C157.427 123.763 158.053 124.463 158.053 125.439C158.053 126.07 157.816 126.592 157.343 127.007C156.87 127.421 156.278 127.628 155.568 127.628C154.907 127.628 154.336 127.45 153.852 127.095C153.369 126.74 153.044 126.267 152.876 125.675ZM159.529 125.675L160.653 125.247C160.762 125.631 160.959 125.942 161.245 126.178C161.541 126.405 161.876 126.518 162.251 126.518C162.576 126.518 162.857 126.43 163.094 126.252C163.33 126.065 163.449 125.818 163.449 125.513C163.449 125.049 163.108 124.704 162.428 124.477L161.629 124.211C160.397 123.797 159.781 123.117 159.781 122.17C159.781 121.569 160.003 121.076 160.446 120.691C160.89 120.307 161.447 120.114 162.118 120.114C162.699 120.114 163.202 120.272 163.626 120.588C164.06 120.893 164.375 121.317 164.573 121.86L163.463 122.303C163.197 121.574 162.739 121.209 162.088 121.209C161.792 121.209 161.541 121.293 161.334 121.46C161.136 121.618 161.038 121.825 161.038 122.081C161.038 122.505 161.388 122.841 162.088 123.087L162.827 123.339C164.08 123.763 164.706 124.463 164.706 125.439C164.706 126.07 164.469 126.592 163.996 127.007C163.523 127.421 162.931 127.628 162.221 127.628C161.56 127.628 160.989 127.45 160.505 127.095C160.022 126.74 159.697 126.267 159.529 125.675ZM166.79 117.112H168.062V127.465H166.79V117.112ZM173.949 127.628C172.885 127.628 172.007 127.278 171.317 126.578C170.627 125.868 170.282 124.966 170.282 123.871C170.282 122.796 170.622 121.904 171.302 121.194C171.982 120.474 172.835 120.114 173.861 120.114C174.866 120.114 175.7 120.474 176.36 121.194C177.021 121.904 177.351 122.777 177.351 123.812L177.336 124.27H171.554C171.593 124.901 171.844 125.429 172.308 125.853C172.781 126.277 173.333 126.489 173.964 126.489C174.467 126.489 174.876 126.385 175.192 126.178C175.507 125.971 175.793 125.666 176.05 125.261L177.085 125.794C176.779 126.356 176.355 126.804 175.813 127.14C175.271 127.465 174.65 127.628 173.949 127.628ZM171.583 123.22H176.064C175.995 122.648 175.749 122.175 175.325 121.8C174.911 121.416 174.413 121.224 173.831 121.224C173.269 121.224 172.766 121.431 172.323 121.845C171.889 122.249 171.642 122.708 171.583 123.22ZM178.895 125.675L180.019 125.247C180.127 125.631 180.325 125.942 180.611 126.178C180.906 126.405 181.242 126.518 181.616 126.518C181.942 126.518 182.223 126.43 182.459 126.252C182.696 126.065 182.814 125.818 182.814 125.513C182.814 125.049 182.474 124.704 181.794 124.477L180.995 124.211C179.763 123.797 179.146 123.117 179.146 122.17C179.146 121.569 179.368 121.076 179.812 120.691C180.256 120.307 180.813 120.114 181.483 120.114C182.065 120.114 182.568 120.272 182.992 120.588C183.426 120.893 183.741 121.317 183.938 121.86L182.829 122.303C182.563 121.574 182.104 121.209 181.454 121.209C181.158 121.209 180.906 121.293 180.699 121.46C180.502 121.618 180.403 121.825 180.403 122.081C180.403 122.505 180.753 122.841 181.454 123.087L182.193 123.339C183.445 123.763 184.071 124.463 184.071 125.439C184.071 126.07 183.835 126.592 183.361 127.007C182.888 127.421 182.297 127.628 181.587 127.628C180.926 127.628 180.354 127.45 179.871 127.095C179.388 126.74 179.062 126.267 178.895 125.675ZM185.547 125.675L186.671 125.247C186.78 125.631 186.977 125.942 187.263 126.178C187.559 126.405 187.894 126.518 188.269 126.518C188.594 126.518 188.875 126.43 189.112 126.252C189.348 126.065 189.467 125.818 189.467 125.513C189.467 125.049 189.126 124.704 188.446 124.477L187.647 124.211C186.415 123.797 185.799 123.117 185.799 122.17C185.799 121.569 186.021 121.076 186.464 120.691C186.908 120.307 187.465 120.114 188.135 120.114C188.717 120.114 189.22 120.272 189.644 120.588C190.078 120.893 190.393 121.317 190.591 121.86L189.481 122.303C189.215 121.574 188.757 121.209 188.106 121.209C187.81 121.209 187.559 121.293 187.352 121.46C187.154 121.618 187.056 121.825 187.056 122.081C187.056 122.505 187.406 122.841 188.106 123.087L188.845 123.339C190.098 123.763 190.724 124.463 190.724 125.439C190.724 126.07 190.487 126.592 190.014 127.007C189.54 127.421 188.949 127.628 188.239 127.628C187.578 127.628 187.007 127.45 186.523 127.095C186.04 126.74 185.715 126.267 185.547 125.675ZM109.006 149.645H107.749V139.381H109.006V140.52C109.262 140.125 109.617 139.81 110.071 139.573C110.534 139.336 111.027 139.218 111.55 139.218C112.575 139.218 113.433 139.578 114.123 140.298C114.813 141.017 115.158 141.91 115.158 142.975C115.158 144.03 114.808 144.922 114.108 145.652C113.418 146.371 112.565 146.731 111.55 146.731C111.017 146.731 110.524 146.623 110.071 146.406C109.627 146.189 109.272 145.883 109.006 145.489V149.645ZM113.162 144.823C113.635 144.321 113.872 143.704 113.872 142.975C113.872 142.245 113.635 141.634 113.162 141.141C112.688 140.638 112.102 140.386 111.402 140.386C110.702 140.386 110.115 140.638 109.642 141.141C109.168 141.634 108.932 142.245 108.932 142.975C108.932 143.704 109.168 144.321 109.642 144.823C110.115 145.316 110.702 145.563 111.402 145.563C112.102 145.563 112.688 145.316 113.162 144.823ZM123.084 139.381H124.341V146.569H123.084V145.415C122.828 145.819 122.468 146.14 122.004 146.376C121.551 146.613 121.063 146.731 120.54 146.731C119.515 146.731 118.657 146.371 117.967 145.652C117.276 144.932 116.931 144.04 116.931 142.975C116.931 141.92 117.276 141.032 117.967 140.313C118.667 139.583 119.524 139.218 120.54 139.218C121.072 139.218 121.561 139.331 122.004 139.558C122.458 139.775 122.818 140.081 123.084 140.475V139.381ZM122.448 144.823C122.921 144.321 123.158 143.704 123.158 142.975C123.158 142.245 122.921 141.634 122.448 141.141C121.975 140.638 121.388 140.386 120.688 140.386C119.988 140.386 119.401 140.638 118.928 141.141C118.455 141.634 118.218 142.245 118.218 142.975C118.218 143.704 118.455 144.321 118.928 144.823C119.401 145.316 119.988 145.563 120.688 145.563C121.388 145.563 121.975 145.316 122.448 144.823ZM130.833 139.292V140.564C130.744 140.544 130.626 140.534 130.478 140.534C129.818 140.534 129.295 140.776 128.91 141.259C128.526 141.732 128.334 142.363 128.334 143.152V146.569H127.077V139.381H128.319V140.653C128.477 140.239 128.763 139.903 129.177 139.647C129.601 139.391 130.049 139.262 130.523 139.262L130.833 139.292ZM133.201 137.221H134.473V139.381H136.485V140.52H134.473V144.321C134.473 144.745 134.567 145.055 134.754 145.252C134.952 145.45 135.257 145.548 135.671 145.548C135.987 145.548 136.258 145.474 136.485 145.326V146.509C136.209 146.657 135.839 146.731 135.376 146.731C134.695 146.731 134.163 146.534 133.778 146.14C133.394 145.745 133.201 145.198 133.201 144.498V140.52H132.092V139.381H133.201V137.221ZM139.862 136.645C140.029 136.812 140.113 137.014 140.113 137.251C140.113 137.488 140.029 137.69 139.862 137.857C139.694 138.025 139.492 138.109 139.255 138.109C139.019 138.109 138.817 138.025 138.649 137.857C138.481 137.69 138.398 137.488 138.398 137.251C138.398 137.014 138.481 136.812 138.649 136.645C138.817 136.477 139.019 136.393 139.255 136.393C139.492 136.393 139.694 136.477 139.862 136.645ZM138.619 139.381H139.891V146.569H138.619V139.381ZM148.264 139.381H149.521V146.569H148.264V145.415C148.007 145.819 147.647 146.14 147.184 146.376C146.73 146.613 146.242 146.731 145.72 146.731C144.694 146.731 143.837 146.371 143.146 145.652C142.456 144.932 142.111 144.04 142.111 142.975C142.111 141.92 142.456 141.032 143.146 140.313C143.846 139.583 144.704 139.218 145.72 139.218C146.252 139.218 146.74 139.331 147.184 139.558C147.638 139.775 147.997 140.081 148.264 140.475V139.381ZM147.628 144.823C148.101 144.321 148.338 143.704 148.338 142.975C148.338 142.245 148.101 141.634 147.628 141.141C147.154 140.638 146.568 140.386 145.868 140.386C145.168 140.386 144.581 140.638 144.108 141.141C143.634 141.634 143.398 142.245 143.398 142.975C143.398 143.704 143.634 144.321 144.108 144.823C144.581 145.316 145.168 145.563 145.868 145.563C146.568 145.563 147.154 145.316 147.628 144.823ZM152.257 136.216H153.529V146.569H152.257V136.216ZM160.261 136.216H161.533V146.569H160.261V136.216ZM164.818 140.313C165.538 139.583 166.435 139.218 167.51 139.218C168.584 139.218 169.477 139.583 170.187 140.313C170.906 141.032 171.266 141.92 171.266 142.975C171.266 144.03 170.906 144.922 170.187 145.652C169.477 146.371 168.584 146.731 167.51 146.731C166.435 146.731 165.538 146.371 164.818 145.652C164.108 144.922 163.753 144.03 163.753 142.975C163.753 141.92 164.108 141.032 164.818 140.313ZM169.27 141.141C168.796 140.638 168.21 140.386 167.51 140.386C166.81 140.386 166.223 140.638 165.75 141.141C165.276 141.644 165.04 142.255 165.04 142.975C165.04 143.694 165.276 144.306 165.75 144.809C166.223 145.311 166.81 145.563 167.51 145.563C168.21 145.563 168.796 145.311 169.27 144.809C169.743 144.306 169.98 143.694 169.98 142.975C169.98 142.255 169.743 141.644 169.27 141.141ZM179.187 139.381H180.444V146.569H179.187V145.415C178.931 145.819 178.571 146.14 178.107 146.376C177.654 146.613 177.166 146.731 176.643 146.731C175.618 146.731 174.76 146.371 174.07 145.652C173.379 144.932 173.034 144.04 173.034 142.975C173.034 141.92 173.379 141.032 174.07 140.313C174.77 139.583 175.628 139.218 176.643 139.218C177.176 139.218 177.664 139.331 178.107 139.558C178.561 139.775 178.921 140.081 179.187 140.475V139.381ZM178.551 144.823C179.024 144.321 179.261 143.704 179.261 142.975C179.261 142.245 179.024 141.634 178.551 141.141C178.078 140.638 177.491 140.386 176.791 140.386C176.091 140.386 175.504 140.638 175.031 141.141C174.558 141.634 174.321 142.245 174.321 142.975C174.321 143.704 174.558 144.321 175.031 144.823C175.504 145.316 176.091 145.563 176.791 145.563C177.491 145.563 178.078 145.316 178.551 144.823ZM188.815 136.216H190.072V146.569H188.815V145.43C188.559 145.824 188.199 146.14 187.736 146.376C187.282 146.613 186.794 146.731 186.271 146.731C185.246 146.731 184.388 146.371 183.698 145.652C183.008 144.932 182.663 144.04 182.663 142.975C182.663 141.92 183.008 141.032 183.698 140.313C184.398 139.583 185.256 139.218 186.271 139.218C186.804 139.218 187.292 139.327 187.736 139.543C188.189 139.76 188.549 140.066 188.815 140.46V136.216ZM188.179 144.823C188.653 144.321 188.889 143.704 188.889 142.975C188.889 142.245 188.653 141.634 188.179 141.141C187.706 140.638 187.119 140.386 186.419 140.386C185.719 140.386 185.133 140.638 184.659 141.141C184.186 141.634 183.949 142.245 183.949 142.975C183.949 143.704 184.186 144.321 184.659 144.823C185.133 145.316 185.719 145.563 186.419 145.563C187.119 145.563 187.706 145.316 188.179 144.823ZM123.062 159.416C123.782 158.687 124.679 158.322 125.754 158.322C126.829 158.322 127.721 158.687 128.431 159.416C129.151 160.136 129.511 161.023 129.511 162.078C129.511 163.133 129.151 164.026 128.431 164.755C127.721 165.475 126.829 165.835 125.754 165.835C124.679 165.835 123.782 165.475 123.062 164.755C122.352 164.026 121.997 163.133 121.997 162.078C121.997 161.023 122.352 160.136 123.062 159.416ZM127.514 160.244C127.041 159.742 126.454 159.49 125.754 159.49C125.054 159.49 124.467 159.742 123.994 160.244C123.521 160.747 123.284 161.359 123.284 162.078C123.284 162.798 123.521 163.409 123.994 163.912C124.467 164.415 125.054 164.667 125.754 164.667C126.454 164.667 127.041 164.415 127.514 163.912C127.987 163.409 128.224 162.798 128.224 162.078C128.224 161.359 127.987 160.747 127.514 160.244ZM132.981 168.749H131.724V158.484H132.981V159.623C133.238 159.229 133.593 158.913 134.046 158.677C134.51 158.44 135.003 158.322 135.525 158.322C136.551 158.322 137.409 158.682 138.099 159.401C138.789 160.121 139.134 161.013 139.134 162.078C139.134 163.133 138.784 164.026 138.084 164.755C137.394 165.475 136.541 165.835 135.525 165.835C134.993 165.835 134.5 165.727 134.046 165.51C133.603 165.293 133.248 164.987 132.981 164.593V168.749ZM137.137 163.927C137.611 163.424 137.847 162.808 137.847 162.078C137.847 161.349 137.611 160.737 137.137 160.244C136.664 159.742 136.077 159.49 135.377 159.49C134.677 159.49 134.091 159.742 133.617 160.244C133.144 160.737 132.907 161.349 132.907 162.078C132.907 162.808 133.144 163.424 133.617 163.927C134.091 164.42 134.677 164.667 135.377 164.667C136.077 164.667 136.664 164.42 137.137 163.927ZM144.575 165.835C143.51 165.835 142.632 165.485 141.942 164.785C141.252 164.075 140.907 163.173 140.907 162.078C140.907 161.004 141.247 160.111 141.927 159.401C142.608 158.682 143.461 158.322 144.486 158.322C145.492 158.322 146.325 158.682 146.986 159.401C147.646 160.111 147.977 160.984 147.977 162.019L147.962 162.478H142.179C142.218 163.109 142.47 163.636 142.933 164.06C143.406 164.484 143.959 164.696 144.59 164.696C145.093 164.696 145.502 164.593 145.817 164.386C146.133 164.178 146.419 163.873 146.675 163.469L147.71 164.001C147.405 164.563 146.981 165.012 146.438 165.347C145.896 165.672 145.275 165.835 144.575 165.835ZM142.208 161.428H146.69C146.621 160.856 146.374 160.382 145.95 160.008C145.536 159.623 145.038 159.431 144.457 159.431C143.895 159.431 143.392 159.638 142.948 160.052C142.514 160.456 142.268 160.915 142.208 161.428ZM153.884 158.396V159.668C153.796 159.648 153.677 159.638 153.53 159.638C152.869 159.638 152.346 159.88 151.962 160.363C151.577 160.836 151.385 161.467 151.385 162.256V165.672H150.128V158.484H151.37V159.756C151.528 159.342 151.814 159.007 152.228 158.751C152.652 158.494 153.101 158.366 153.574 158.366L153.884 158.396ZM161.173 158.484H162.431V165.672H161.173V164.519C160.917 164.923 160.557 165.243 160.094 165.48C159.64 165.717 159.152 165.835 158.63 165.835C157.604 165.835 156.746 165.475 156.056 164.755C155.366 164.036 155.021 163.143 155.021 162.078C155.021 161.023 155.366 160.136 156.056 159.416C156.756 158.687 157.614 158.322 158.63 158.322C159.162 158.322 159.65 158.435 160.094 158.662C160.547 158.879 160.907 159.184 161.173 159.579V158.484ZM160.537 163.927C161.011 163.424 161.247 162.808 161.247 162.078C161.247 161.349 161.011 160.737 160.537 160.244C160.064 159.742 159.478 159.49 158.777 159.49C158.077 159.49 157.491 159.742 157.017 160.244C156.544 160.737 156.308 161.349 156.308 162.078C156.308 162.808 156.544 163.424 157.017 163.927C157.491 164.42 158.077 164.667 158.777 164.667C159.478 164.667 160.064 164.42 160.537 163.927ZM165.447 156.325H166.719V158.484H168.73V159.623H166.719V163.424C166.719 163.848 166.813 164.159 167 164.356C167.197 164.553 167.503 164.652 167.917 164.652C168.233 164.652 168.504 164.578 168.73 164.43V165.613C168.454 165.761 168.085 165.835 167.621 165.835C166.941 165.835 166.408 165.638 166.024 165.243C165.639 164.849 165.447 164.302 165.447 163.602V159.623H164.338V158.484H165.447V156.325ZM172.108 155.748C172.276 155.916 172.36 156.118 172.36 156.355C172.36 156.591 172.276 156.793 172.108 156.961C171.941 157.129 171.738 157.212 171.502 157.212C171.265 157.212 171.063 157.129 170.895 156.961C170.728 156.793 170.644 156.591 170.644 156.355C170.644 156.118 170.728 155.916 170.895 155.748C171.063 155.581 171.265 155.497 171.502 155.497C171.738 155.497 171.941 155.581 172.108 155.748ZM170.866 158.484H172.138V165.672H170.866V158.484ZM175.422 159.416C176.142 158.687 177.039 158.322 178.114 158.322C179.189 158.322 180.081 158.687 180.791 159.416C181.511 160.136 181.871 161.023 181.871 162.078C181.871 163.133 181.511 164.026 180.791 164.755C180.081 165.475 179.189 165.835 178.114 165.835C177.039 165.835 176.142 165.475 175.422 164.755C174.712 164.026 174.357 163.133 174.357 162.078C174.357 161.023 174.712 160.136 175.422 159.416ZM179.874 160.244C179.401 159.742 178.814 159.49 178.114 159.49C177.414 159.49 176.827 159.742 176.354 160.244C175.881 160.747 175.644 161.359 175.644 162.078C175.644 162.798 175.881 163.409 176.354 163.912C176.827 164.415 177.414 164.667 178.114 164.667C178.814 164.667 179.401 164.415 179.874 163.912C180.347 163.409 180.584 162.798 180.584 162.078C180.584 161.359 180.347 160.747 179.874 160.244ZM185.356 161.916V165.672H184.084V158.484H185.356V159.52C185.859 158.721 186.623 158.322 187.649 158.322C188.556 158.322 189.266 158.603 189.778 159.165C190.291 159.727 190.547 160.491 190.547 161.457V165.672H189.276V161.605C189.276 160.954 189.108 160.442 188.773 160.067C188.447 159.692 187.984 159.505 187.382 159.505C186.771 159.505 186.278 159.727 185.903 160.17C185.539 160.604 185.356 161.186 185.356 161.916Z" fill="white"/>
<path d="M101.067 117.484V128.081H100.35C100.237 128.081 100.14 128.062 100.062 128.022C99.9876 127.983 99.9136 127.916 99.8397 127.822L93.7093 119.836C93.7191 119.959 93.7265 120.08 93.7314 120.198C93.7364 120.317 93.7388 120.427 93.7388 120.531V128.081H92.4817V117.484H93.2212C93.2853 117.484 93.3395 117.489 93.3839 117.499C93.4283 117.504 93.4677 117.516 93.5022 117.536C93.5367 117.551 93.5712 117.575 93.6057 117.61C93.6402 117.64 93.6772 117.679 93.7166 117.728L99.8471 125.707C99.8372 125.579 99.8273 125.456 99.8175 125.338C99.8126 125.214 99.8101 125.099 99.8101 124.99V117.484H101.067ZM108.618 123.519C108.618 123.213 108.574 122.934 108.485 122.683C108.401 122.427 108.275 122.207 108.108 122.025C107.945 121.837 107.746 121.694 107.509 121.596C107.272 121.492 107.004 121.441 106.703 121.441C106.072 121.441 105.571 121.625 105.202 121.995C104.837 122.36 104.61 122.868 104.521 123.519H108.618ZM109.683 127.031C109.52 127.228 109.326 127.401 109.099 127.549C108.872 127.692 108.628 127.81 108.367 127.904C108.11 127.997 107.844 128.066 107.568 128.111C107.292 128.16 107.018 128.185 106.747 128.185C106.23 128.185 105.751 128.098 105.313 127.926C104.879 127.748 104.502 127.492 104.181 127.157C103.866 126.817 103.619 126.398 103.442 125.9C103.264 125.402 103.175 124.83 103.175 124.184C103.175 123.662 103.254 123.173 103.412 122.72C103.575 122.266 103.806 121.874 104.107 121.544C104.408 121.209 104.775 120.948 105.209 120.76C105.643 120.568 106.131 120.472 106.673 120.472C107.122 120.472 107.536 120.548 107.916 120.701C108.3 120.849 108.63 121.066 108.907 121.352C109.188 121.633 109.407 121.983 109.565 122.402C109.722 122.816 109.801 123.289 109.801 123.822C109.801 124.029 109.779 124.167 109.735 124.236C109.69 124.305 109.607 124.339 109.483 124.339H104.477C104.492 124.813 104.556 125.224 104.669 125.574C104.788 125.924 104.95 126.218 105.157 126.454C105.364 126.686 105.611 126.861 105.897 126.979C106.183 127.093 106.503 127.149 106.858 127.149C107.188 127.149 107.472 127.113 107.709 127.039C107.95 126.96 108.157 126.876 108.33 126.787C108.502 126.698 108.645 126.617 108.759 126.543C108.877 126.464 108.978 126.425 109.062 126.425C109.17 126.425 109.254 126.467 109.313 126.55L109.683 127.031ZM115.848 124.709C115.242 124.729 114.724 124.778 114.295 124.857C113.871 124.931 113.523 125.03 113.252 125.153C112.986 125.276 112.791 125.422 112.668 125.589C112.55 125.757 112.491 125.944 112.491 126.151C112.491 126.348 112.523 126.518 112.587 126.661C112.651 126.804 112.737 126.923 112.846 127.016C112.959 127.105 113.09 127.172 113.237 127.216C113.39 127.255 113.553 127.275 113.726 127.275C113.957 127.275 114.169 127.253 114.362 127.209C114.554 127.159 114.734 127.09 114.901 127.002C115.074 126.913 115.237 126.807 115.389 126.684C115.547 126.56 115.7 126.42 115.848 126.262V124.709ZM111.596 121.648C112.01 121.248 112.456 120.95 112.934 120.753C113.413 120.556 113.942 120.457 114.524 120.457C114.943 120.457 115.315 120.526 115.641 120.664C115.966 120.802 116.24 120.994 116.462 121.241C116.684 121.487 116.851 121.786 116.965 122.136C117.078 122.486 117.135 122.87 117.135 123.289V128.081H116.55C116.422 128.081 116.324 128.062 116.255 128.022C116.186 127.978 116.131 127.894 116.092 127.771L115.944 127.061C115.747 127.243 115.555 127.406 115.367 127.549C115.18 127.687 114.983 127.805 114.776 127.904C114.569 127.997 114.347 128.069 114.11 128.118C113.878 128.172 113.62 128.2 113.334 128.2C113.043 128.2 112.769 128.16 112.513 128.081C112.256 127.997 112.032 127.874 111.84 127.711C111.653 127.549 111.502 127.344 111.389 127.098C111.28 126.846 111.226 126.55 111.226 126.21C111.226 125.915 111.307 125.631 111.47 125.36C111.633 125.084 111.897 124.84 112.261 124.628C112.626 124.416 113.102 124.243 113.689 124.11C114.275 123.972 114.995 123.893 115.848 123.874V123.289C115.848 122.708 115.722 122.269 115.471 121.973C115.219 121.672 114.852 121.522 114.369 121.522C114.044 121.522 113.77 121.564 113.548 121.648C113.331 121.727 113.141 121.818 112.979 121.921C112.821 122.02 112.683 122.111 112.565 122.195C112.451 122.274 112.338 122.313 112.224 122.313C112.136 122.313 112.059 122.291 111.995 122.247C111.931 122.197 111.877 122.138 111.832 122.069L111.596 121.648ZM120.759 122.091C120.995 121.579 121.286 121.179 121.631 120.893C121.976 120.602 122.398 120.457 122.896 120.457C123.054 120.457 123.204 120.474 123.347 120.509C123.495 120.543 123.626 120.598 123.739 120.671L123.643 121.655C123.613 121.778 123.539 121.84 123.421 121.84C123.352 121.84 123.251 121.825 123.118 121.796C122.985 121.766 122.834 121.751 122.667 121.751C122.43 121.751 122.218 121.786 122.031 121.855C121.848 121.924 121.683 122.027 121.535 122.165C121.392 122.298 121.262 122.466 121.143 122.668C121.03 122.865 120.926 123.092 120.833 123.348V128.081H119.509V120.59H120.263C120.406 120.59 120.505 120.617 120.559 120.671C120.613 120.726 120.65 120.819 120.67 120.953L120.759 122.091ZM126.627 117.188V128.081H125.311V117.188H126.627ZM135.594 120.59L131.416 130.292C131.372 130.391 131.315 130.47 131.246 130.529C131.182 130.588 131.081 130.618 130.943 130.618H129.967L131.335 127.645L128.244 120.59H129.383C129.496 120.59 129.585 120.62 129.649 120.679C129.718 120.733 129.765 120.795 129.789 120.864L131.793 125.582C131.872 125.789 131.939 126.006 131.993 126.233C132.062 126.001 132.136 125.781 132.215 125.574L134.16 120.864C134.189 120.785 134.239 120.721 134.308 120.671C134.382 120.617 134.463 120.59 134.552 120.59H135.594ZM142.281 117.188V128.081H140.964V117.188H142.281ZM147.943 120.472C148.49 120.472 148.983 120.563 149.422 120.745C149.86 120.928 150.235 121.187 150.546 121.522C150.856 121.857 151.093 122.264 151.256 122.742C151.423 123.215 151.507 123.745 151.507 124.332C151.507 124.924 151.423 125.456 151.256 125.929C151.093 126.403 150.856 126.807 150.546 127.142C150.235 127.477 149.86 127.736 149.422 127.919C148.983 128.096 148.49 128.185 147.943 128.185C147.39 128.185 146.893 128.096 146.449 127.919C146.01 127.736 145.635 127.477 145.325 127.142C145.014 126.807 144.775 126.403 144.608 125.929C144.445 125.456 144.363 124.924 144.363 124.332C144.363 123.745 144.445 123.215 144.608 122.742C144.775 122.264 145.014 121.857 145.325 121.522C145.635 121.187 146.01 120.928 146.449 120.745C146.893 120.563 147.39 120.472 147.943 120.472ZM147.943 127.157C148.682 127.157 149.234 126.91 149.599 126.417C149.964 125.919 150.146 125.227 150.146 124.339C150.146 123.447 149.964 122.752 149.599 122.254C149.234 121.756 148.682 121.507 147.943 121.507C147.568 121.507 147.24 121.571 146.959 121.699C146.683 121.828 146.451 122.012 146.264 122.254C146.082 122.496 145.944 122.794 145.85 123.149C145.761 123.499 145.717 123.896 145.717 124.339C145.717 125.227 145.899 125.919 146.264 126.417C146.634 126.91 147.193 127.157 147.943 127.157ZM157.909 121.825C157.85 121.934 157.759 121.988 157.636 121.988C157.562 121.988 157.478 121.961 157.384 121.906C157.29 121.852 157.175 121.793 157.037 121.729C156.903 121.66 156.743 121.598 156.556 121.544C156.369 121.485 156.147 121.455 155.89 121.455C155.669 121.455 155.469 121.485 155.291 121.544C155.114 121.598 154.961 121.675 154.833 121.773C154.71 121.872 154.614 121.988 154.544 122.121C154.48 122.249 154.448 122.39 154.448 122.542C154.448 122.735 154.503 122.895 154.611 123.023C154.724 123.151 154.872 123.262 155.055 123.356C155.237 123.45 155.444 123.533 155.676 123.607C155.908 123.676 156.144 123.753 156.386 123.837C156.632 123.915 156.871 124.004 157.103 124.103C157.335 124.201 157.542 124.325 157.724 124.473C157.907 124.62 158.052 124.803 158.161 125.02C158.274 125.232 158.331 125.488 158.331 125.789C158.331 126.134 158.269 126.454 158.146 126.75C158.023 127.041 157.84 127.295 157.599 127.512C157.357 127.724 157.061 127.891 156.711 128.015C156.361 128.138 155.957 128.2 155.498 128.2C154.976 128.2 154.503 128.116 154.079 127.948C153.655 127.776 153.295 127.556 152.999 127.29L153.31 126.787C153.349 126.723 153.396 126.674 153.45 126.639C153.504 126.605 153.573 126.587 153.657 126.587C153.746 126.587 153.84 126.622 153.938 126.691C154.037 126.76 154.155 126.836 154.293 126.92C154.436 127.004 154.609 127.08 154.811 127.149C155.013 127.219 155.264 127.253 155.565 127.253C155.821 127.253 156.046 127.221 156.238 127.157C156.43 127.088 156.59 126.997 156.719 126.883C156.847 126.77 156.94 126.639 157 126.491C157.064 126.343 157.096 126.186 157.096 126.018C157.096 125.811 157.039 125.641 156.926 125.508C156.817 125.37 156.672 125.254 156.489 125.16C156.307 125.062 156.097 124.978 155.861 124.909C155.629 124.835 155.39 124.758 155.143 124.68C154.902 124.601 154.663 124.512 154.426 124.413C154.194 124.31 153.987 124.182 153.805 124.029C153.623 123.876 153.475 123.689 153.361 123.467C153.253 123.24 153.199 122.966 153.199 122.646C153.199 122.36 153.258 122.086 153.376 121.825C153.494 121.559 153.667 121.327 153.894 121.13C154.121 120.928 154.399 120.768 154.729 120.649C155.06 120.531 155.437 120.472 155.861 120.472C156.354 120.472 156.795 120.551 157.184 120.708C157.579 120.861 157.919 121.073 158.205 121.344L157.909 121.825ZM164.677 121.825C164.618 121.934 164.527 121.988 164.404 121.988C164.33 121.988 164.246 121.961 164.152 121.906C164.059 121.852 163.943 121.793 163.805 121.729C163.672 121.66 163.511 121.598 163.324 121.544C163.137 121.485 162.915 121.455 162.659 121.455C162.437 121.455 162.237 121.485 162.06 121.544C161.882 121.598 161.729 121.675 161.601 121.773C161.478 121.872 161.382 121.988 161.313 122.121C161.249 122.249 161.217 122.39 161.217 122.542C161.217 122.735 161.271 122.895 161.379 123.023C161.493 123.151 161.641 123.262 161.823 123.356C162.005 123.45 162.212 123.533 162.444 123.607C162.676 123.676 162.913 123.753 163.154 123.837C163.401 123.915 163.64 124.004 163.871 124.103C164.103 124.201 164.31 124.325 164.493 124.473C164.675 124.62 164.82 124.803 164.929 125.02C165.042 125.232 165.099 125.488 165.099 125.789C165.099 126.134 165.037 126.454 164.914 126.75C164.791 127.041 164.608 127.295 164.367 127.512C164.125 127.724 163.829 127.891 163.479 128.015C163.129 128.138 162.725 128.2 162.267 128.2C161.744 128.2 161.271 128.116 160.847 127.948C160.423 127.776 160.063 127.556 159.767 127.29L160.078 126.787C160.117 126.723 160.164 126.674 160.218 126.639C160.273 126.605 160.342 126.587 160.425 126.587C160.514 126.587 160.608 126.622 160.706 126.691C160.805 126.76 160.923 126.836 161.061 126.92C161.204 127.004 161.377 127.08 161.579 127.149C161.781 127.219 162.033 127.253 162.333 127.253C162.59 127.253 162.814 127.221 163.006 127.157C163.198 127.088 163.359 126.997 163.487 126.883C163.615 126.77 163.709 126.639 163.768 126.491C163.832 126.343 163.864 126.186 163.864 126.018C163.864 125.811 163.807 125.641 163.694 125.508C163.585 125.37 163.44 125.254 163.258 125.16C163.075 125.062 162.866 124.978 162.629 124.909C162.397 124.835 162.158 124.758 161.912 124.68C161.67 124.601 161.431 124.512 161.194 124.413C160.963 124.31 160.756 124.182 160.573 124.029C160.391 123.876 160.243 123.689 160.13 123.467C160.021 123.24 159.967 122.966 159.967 122.646C159.967 122.36 160.026 122.086 160.144 121.825C160.263 121.559 160.435 121.327 160.662 121.13C160.889 120.928 161.167 120.768 161.498 120.649C161.828 120.531 162.205 120.472 162.629 120.472C163.122 120.472 163.563 120.551 163.953 120.708C164.347 120.861 164.687 121.073 164.973 121.344L164.677 121.825ZM168.443 117.188V128.081H167.127V117.188H168.443ZM175.962 123.519C175.962 123.213 175.917 122.934 175.828 122.683C175.745 122.427 175.619 122.207 175.451 122.025C175.289 121.837 175.089 121.694 174.852 121.596C174.616 121.492 174.347 121.441 174.046 121.441C173.415 121.441 172.915 121.625 172.545 121.995C172.18 122.36 171.953 122.868 171.865 123.519H175.962ZM177.026 127.031C176.864 127.228 176.669 127.401 176.442 127.549C176.215 127.692 175.971 127.81 175.71 127.904C175.454 127.997 175.188 128.066 174.911 128.111C174.635 128.16 174.362 128.185 174.091 128.185C173.573 128.185 173.095 128.098 172.656 127.926C172.222 127.748 171.845 127.492 171.525 127.157C171.209 126.817 170.963 126.398 170.785 125.9C170.608 125.402 170.519 124.83 170.519 124.184C170.519 123.662 170.598 123.173 170.755 122.72C170.918 122.266 171.15 121.874 171.451 121.544C171.751 121.209 172.119 120.948 172.552 120.76C172.986 120.568 173.474 120.472 174.017 120.472C174.465 120.472 174.879 120.548 175.259 120.701C175.644 120.849 175.974 121.066 176.25 121.352C176.531 121.633 176.75 121.983 176.908 122.402C177.066 122.816 177.145 123.289 177.145 123.822C177.145 124.029 177.123 124.167 177.078 124.236C177.034 124.305 176.95 124.339 176.827 124.339H171.82C171.835 124.813 171.899 125.224 172.013 125.574C172.131 125.924 172.294 126.218 172.501 126.454C172.708 126.686 172.954 126.861 173.24 126.979C173.526 127.093 173.847 127.149 174.202 127.149C174.532 127.149 174.815 127.113 175.052 127.039C175.294 126.96 175.501 126.876 175.673 126.787C175.846 126.698 175.989 126.617 176.102 126.543C176.22 126.464 176.321 126.425 176.405 126.425C176.514 126.425 176.597 126.467 176.657 126.55L177.026 127.031ZM183.494 121.825C183.435 121.934 183.344 121.988 183.22 121.988C183.146 121.988 183.063 121.961 182.969 121.906C182.875 121.852 182.759 121.793 182.621 121.729C182.488 121.66 182.328 121.598 182.141 121.544C181.953 121.485 181.731 121.455 181.475 121.455C181.253 121.455 181.054 121.485 180.876 121.544C180.699 121.598 180.546 121.675 180.418 121.773C180.294 121.872 180.198 121.988 180.129 122.121C180.065 122.249 180.033 122.39 180.033 122.542C180.033 122.735 180.087 122.895 180.196 123.023C180.309 123.151 180.457 123.262 180.639 123.356C180.822 123.45 181.029 123.533 181.261 123.607C181.492 123.676 181.729 123.753 181.971 123.837C182.217 123.915 182.456 124.004 182.688 124.103C182.92 124.201 183.127 124.325 183.309 124.473C183.491 124.62 183.637 124.803 183.745 125.02C183.859 125.232 183.915 125.488 183.915 125.789C183.915 126.134 183.854 126.454 183.731 126.75C183.607 127.041 183.425 127.295 183.183 127.512C182.942 127.724 182.646 127.891 182.296 128.015C181.946 128.138 181.542 128.2 181.083 128.2C180.561 128.2 180.087 128.116 179.663 127.948C179.239 127.776 178.879 127.556 178.584 127.29L178.894 126.787C178.934 126.723 178.981 126.674 179.035 126.639C179.089 126.605 179.158 126.587 179.242 126.587C179.331 126.587 179.424 126.622 179.523 126.691C179.621 126.76 179.74 126.836 179.878 126.92C180.021 127.004 180.193 127.08 180.395 127.149C180.598 127.219 180.849 127.253 181.15 127.253C181.406 127.253 181.63 127.221 181.823 127.157C182.015 127.088 182.175 126.997 182.303 126.883C182.431 126.77 182.525 126.639 182.584 126.491C182.648 126.343 182.68 126.186 182.68 126.018C182.68 125.811 182.624 125.641 182.51 125.508C182.402 125.37 182.256 125.254 182.074 125.16C181.892 125.062 181.682 124.978 181.445 124.909C181.214 124.835 180.975 124.758 180.728 124.68C180.487 124.601 180.248 124.512 180.011 124.413C179.779 124.31 179.572 124.182 179.39 124.029C179.207 123.876 179.059 123.689 178.946 123.467C178.838 123.24 178.783 122.966 178.783 122.646C178.783 122.36 178.842 122.086 178.961 121.825C179.079 121.559 179.252 121.327 179.478 121.13C179.705 120.928 179.984 120.768 180.314 120.649C180.644 120.531 181.022 120.472 181.445 120.472C181.938 120.472 182.38 120.551 182.769 120.708C183.164 120.861 183.504 121.073 183.79 121.344L183.494 121.825ZM190.262 121.825C190.203 121.934 190.112 121.988 189.989 121.988C189.915 121.988 189.831 121.961 189.737 121.906C189.643 121.852 189.528 121.793 189.39 121.729C189.256 121.66 189.096 121.598 188.909 121.544C188.722 121.485 188.5 121.455 188.243 121.455C188.021 121.455 187.822 121.485 187.644 121.544C187.467 121.598 187.314 121.675 187.186 121.773C187.063 121.872 186.966 121.988 186.897 122.121C186.833 122.249 186.801 122.39 186.801 122.542C186.801 122.735 186.856 122.895 186.964 123.023C187.077 123.151 187.225 123.262 187.408 123.356C187.59 123.45 187.797 123.533 188.029 123.607C188.261 123.676 188.497 123.753 188.739 123.837C188.985 123.915 189.224 124.004 189.456 124.103C189.688 124.201 189.895 124.325 190.077 124.473C190.26 124.62 190.405 124.803 190.514 125.02C190.627 125.232 190.684 125.488 190.684 125.789C190.684 126.134 190.622 126.454 190.499 126.75C190.376 127.041 190.193 127.295 189.952 127.512C189.71 127.724 189.414 127.891 189.064 128.015C188.714 128.138 188.31 128.2 187.851 128.2C187.329 128.2 186.856 128.116 186.432 127.948C186.008 127.776 185.648 127.556 185.352 127.29L185.662 126.787C185.702 126.723 185.749 126.674 185.803 126.639C185.857 126.605 185.926 126.587 186.01 126.587C186.099 126.587 186.192 126.622 186.291 126.691C186.39 126.76 186.508 126.836 186.646 126.92C186.789 127.004 186.962 127.08 187.164 127.149C187.366 127.219 187.617 127.253 187.918 127.253C188.174 127.253 188.399 127.221 188.591 127.157C188.783 127.088 188.943 126.997 189.072 126.883C189.2 126.77 189.293 126.639 189.353 126.491C189.417 126.343 189.449 126.186 189.449 126.018C189.449 125.811 189.392 125.641 189.279 125.508C189.17 125.37 189.025 125.254 188.842 125.16C188.66 125.062 188.45 124.978 188.214 124.909C187.982 124.835 187.743 124.758 187.496 124.68C187.255 124.601 187.016 124.512 186.779 124.413C186.547 124.31 186.34 124.182 186.158 124.029C185.976 123.876 185.828 123.689 185.714 123.467C185.606 123.24 185.552 122.966 185.552 122.646C185.552 122.36 185.611 122.086 185.729 121.825C185.847 121.559 186.02 121.327 186.247 121.13C186.473 120.928 186.752 120.768 187.082 120.649C187.413 120.531 187.79 120.472 188.214 120.472C188.707 120.472 189.148 120.551 189.537 120.708C189.932 120.861 190.272 121.073 190.558 121.344L190.262 121.825ZM117.635 145.381C117.877 145.706 118.14 145.935 118.426 146.068C118.712 146.201 119.033 146.268 119.388 146.268C120.088 146.268 120.625 146.019 121 145.521C121.374 145.023 121.562 144.313 121.562 143.391C121.562 142.903 121.517 142.484 121.429 142.134C121.345 141.784 121.222 141.498 121.059 141.276C120.896 141.05 120.697 140.884 120.46 140.781C120.223 140.677 119.955 140.626 119.654 140.626C119.225 140.626 118.848 140.724 118.522 140.921C118.202 141.119 117.906 141.397 117.635 141.757V145.381ZM117.568 140.855C117.884 140.465 118.249 140.152 118.663 139.916C119.077 139.679 119.55 139.561 120.083 139.561C120.517 139.561 120.909 139.644 121.259 139.812C121.609 139.975 121.907 140.219 122.153 140.544C122.4 140.865 122.59 141.264 122.723 141.742C122.856 142.22 122.922 142.77 122.922 143.391C122.922 143.943 122.848 144.459 122.701 144.937C122.553 145.41 122.338 145.822 122.057 146.172C121.781 146.517 121.441 146.79 121.037 146.993C120.637 147.19 120.186 147.288 119.683 147.288C119.225 147.288 118.831 147.212 118.5 147.059C118.175 146.901 117.886 146.684 117.635 146.408V149.721H116.311V139.694H117.103C117.29 139.694 117.406 139.785 117.45 139.967L117.568 140.855ZM129.031 143.813C128.425 143.833 127.907 143.882 127.478 143.961C127.054 144.035 126.707 144.133 126.436 144.256C126.169 144.38 125.975 144.525 125.851 144.693C125.733 144.86 125.674 145.048 125.674 145.255C125.674 145.452 125.706 145.622 125.77 145.765C125.834 145.908 125.92 146.026 126.029 146.12C126.142 146.209 126.273 146.275 126.421 146.32C126.574 146.359 126.736 146.379 126.909 146.379C127.141 146.379 127.353 146.357 127.545 146.312C127.737 146.263 127.917 146.194 128.085 146.105C128.257 146.016 128.42 145.91 128.573 145.787C128.731 145.664 128.883 145.523 129.031 145.366V143.813ZM124.779 140.751C125.193 140.352 125.639 140.054 126.118 139.856C126.596 139.659 127.126 139.561 127.708 139.561C128.127 139.561 128.499 139.63 128.824 139.768C129.15 139.906 129.423 140.098 129.645 140.345C129.867 140.591 130.035 140.889 130.148 141.239C130.261 141.589 130.318 141.974 130.318 142.393V147.185H129.734C129.606 147.185 129.507 147.165 129.438 147.126C129.369 147.081 129.315 146.998 129.275 146.874L129.127 146.164C128.93 146.347 128.738 146.509 128.551 146.652C128.363 146.79 128.166 146.909 127.959 147.007C127.752 147.101 127.53 147.173 127.293 147.222C127.062 147.276 126.803 147.303 126.517 147.303C126.226 147.303 125.953 147.264 125.696 147.185C125.44 147.101 125.215 146.978 125.023 146.815C124.836 146.652 124.686 146.448 124.572 146.201C124.464 145.95 124.409 145.654 124.409 145.314C124.409 145.018 124.491 144.735 124.653 144.464C124.816 144.187 125.08 143.943 125.445 143.731C125.81 143.519 126.285 143.347 126.872 143.214C127.459 143.076 128.178 142.997 129.031 142.977V142.393C129.031 141.811 128.906 141.372 128.654 141.077C128.403 140.776 128.035 140.626 127.552 140.626C127.227 140.626 126.953 140.667 126.731 140.751C126.515 140.83 126.325 140.921 126.162 141.025C126.004 141.123 125.866 141.215 125.748 141.299C125.635 141.377 125.521 141.417 125.408 141.417C125.319 141.417 125.243 141.395 125.178 141.35C125.114 141.301 125.06 141.242 125.016 141.173L124.779 140.751ZM133.943 141.195C134.179 140.682 134.47 140.283 134.815 139.997C135.16 139.706 135.582 139.561 136.08 139.561C136.238 139.561 136.388 139.578 136.531 139.612C136.679 139.647 136.81 139.701 136.923 139.775L136.827 140.759C136.797 140.882 136.723 140.944 136.605 140.944C136.536 140.944 136.435 140.929 136.302 140.899C136.169 140.87 136.018 140.855 135.851 140.855C135.614 140.855 135.402 140.889 135.215 140.958C135.032 141.027 134.867 141.131 134.719 141.269C134.576 141.402 134.446 141.57 134.327 141.772C134.214 141.969 134.11 142.196 134.017 142.452V147.185H132.693V139.694H133.447C133.59 139.694 133.689 139.721 133.743 139.775C133.797 139.829 133.834 139.923 133.854 140.056L133.943 141.195ZM145.401 147.185H144.085V140.796H140.225V145.292C140.225 145.607 140.301 145.841 140.454 145.994C140.607 146.147 140.804 146.224 141.046 146.224C141.184 146.224 141.302 146.206 141.401 146.172C141.504 146.132 141.593 146.09 141.667 146.046C141.741 146.002 141.802 145.962 141.852 145.928C141.906 145.888 141.953 145.869 141.992 145.869C142.061 145.869 142.123 145.91 142.177 145.994L142.562 146.623C142.335 146.835 142.061 147.002 141.741 147.126C141.42 147.244 141.09 147.303 140.75 147.303C140.158 147.303 139.702 147.138 139.382 146.808C139.066 146.477 138.908 146.002 138.908 145.381V140.796H138.006C137.927 140.796 137.861 140.773 137.807 140.729C137.752 140.68 137.725 140.606 137.725 140.507V139.982L138.953 139.82L139.256 137.512C139.271 137.438 139.303 137.379 139.352 137.335C139.406 137.286 139.475 137.261 139.559 137.261H140.225V139.842H145.401V147.185ZM145.727 137.29C145.727 137.419 145.7 137.539 145.645 137.653C145.596 137.761 145.527 137.857 145.438 137.941C145.354 138.025 145.256 138.092 145.142 138.141C145.029 138.19 144.908 138.215 144.78 138.215C144.652 138.215 144.531 138.19 144.418 138.141C144.309 138.092 144.213 138.025 144.129 137.941C144.046 137.857 143.979 137.761 143.93 137.653C143.88 137.539 143.856 137.419 143.856 137.29C143.856 137.162 143.88 137.041 143.93 136.928C143.979 136.81 144.046 136.709 144.129 136.625C144.213 136.536 144.309 136.467 144.418 136.418C144.531 136.369 144.652 136.344 144.78 136.344C144.908 136.344 145.029 136.369 145.142 136.418C145.256 136.467 145.354 136.536 145.438 136.625C145.527 136.709 145.596 136.81 145.645 136.928C145.7 137.041 145.727 137.162 145.727 137.29ZM151.993 143.813C151.387 143.833 150.869 143.882 150.44 143.961C150.016 144.035 149.669 144.133 149.398 144.256C149.131 144.38 148.937 144.525 148.813 144.693C148.695 144.86 148.636 145.048 148.636 145.255C148.636 145.452 148.668 145.622 148.732 145.765C148.796 145.908 148.882 146.026 148.991 146.12C149.104 146.209 149.235 146.275 149.383 146.32C149.536 146.359 149.698 146.379 149.871 146.379C150.103 146.379 150.315 146.357 150.507 146.312C150.699 146.263 150.879 146.194 151.047 146.105C151.219 146.016 151.382 145.91 151.535 145.787C151.693 145.664 151.845 145.523 151.993 145.366V143.813ZM147.741 140.751C148.155 140.352 148.601 140.054 149.08 139.856C149.558 139.659 150.088 139.561 150.67 139.561C151.089 139.561 151.461 139.63 151.786 139.768C152.112 139.906 152.385 140.098 152.607 140.345C152.829 140.591 152.996 140.889 153.11 141.239C153.223 141.589 153.28 141.974 153.28 142.393V147.185H152.696C152.568 147.185 152.469 147.165 152.4 147.126C152.331 147.081 152.277 146.998 152.237 146.874L152.089 146.164C151.892 146.347 151.7 146.509 151.513 146.652C151.325 146.79 151.128 146.909 150.921 147.007C150.714 147.101 150.492 147.173 150.255 147.222C150.024 147.276 149.765 147.303 149.479 147.303C149.188 147.303 148.914 147.264 148.658 147.185C148.402 147.101 148.177 146.978 147.985 146.815C147.798 146.652 147.647 146.448 147.534 146.201C147.426 145.95 147.371 145.654 147.371 145.314C147.371 145.018 147.453 144.735 147.615 144.464C147.778 144.187 148.042 143.943 148.407 143.731C148.771 143.519 149.247 143.347 149.834 143.214C150.421 143.076 151.14 142.997 151.993 142.977V142.393C151.993 141.811 151.868 141.372 151.616 141.077C151.365 140.776 150.997 140.626 150.514 140.626C150.189 140.626 149.915 140.667 149.693 140.751C149.476 140.83 149.287 140.921 149.124 141.025C148.966 141.123 148.828 141.215 148.71 141.299C148.596 141.377 148.483 141.417 148.37 141.417C148.281 141.417 148.205 141.395 148.14 141.35C148.076 141.301 148.022 141.242 147.978 141.173L147.741 140.751ZM157.016 136.292V147.185H155.699V136.292H157.016ZM165.035 136.292V147.185H163.719V136.292H165.035ZM170.696 139.575C171.244 139.575 171.737 139.667 172.175 139.849C172.614 140.031 172.989 140.29 173.299 140.626C173.61 140.961 173.847 141.368 174.009 141.846C174.177 142.319 174.261 142.849 174.261 143.436C174.261 144.027 174.177 144.56 174.009 145.033C173.847 145.506 173.61 145.91 173.299 146.246C172.989 146.581 172.614 146.84 172.175 147.022C171.737 147.2 171.244 147.288 170.696 147.288C170.144 147.288 169.646 147.2 169.203 147.022C168.764 146.84 168.389 146.581 168.078 146.246C167.768 145.91 167.529 145.506 167.361 145.033C167.199 144.56 167.117 144.027 167.117 143.436C167.117 142.849 167.199 142.319 167.361 141.846C167.529 141.368 167.768 140.961 168.078 140.626C168.389 140.29 168.764 140.031 169.203 139.849C169.646 139.667 170.144 139.575 170.696 139.575ZM170.696 146.261C171.436 146.261 171.988 146.014 172.353 145.521C172.718 145.023 172.9 144.33 172.9 143.443C172.9 142.551 172.718 141.856 172.353 141.358C171.988 140.86 171.436 140.611 170.696 140.611C170.322 140.611 169.994 140.675 169.713 140.803C169.437 140.931 169.205 141.116 169.018 141.358C168.835 141.599 168.697 141.897 168.604 142.252C168.515 142.602 168.47 142.999 168.47 143.443C168.47 144.33 168.653 145.023 169.018 145.521C169.387 146.014 169.947 146.261 170.696 146.261ZM180.36 143.813C179.754 143.833 179.236 143.882 178.807 143.961C178.383 144.035 178.036 144.133 177.765 144.256C177.498 144.38 177.304 144.525 177.18 144.693C177.062 144.86 177.003 145.048 177.003 145.255C177.003 145.452 177.035 145.622 177.099 145.765C177.163 145.908 177.249 146.026 177.358 146.12C177.471 146.209 177.602 146.275 177.75 146.32C177.903 146.359 178.065 146.379 178.238 146.379C178.47 146.379 178.682 146.357 178.874 146.312C179.066 146.263 179.246 146.194 179.414 146.105C179.586 146.016 179.749 145.91 179.902 145.787C180.06 145.664 180.212 145.523 180.36 145.366V143.813ZM176.108 140.751C176.522 140.352 176.968 140.054 177.447 139.856C177.925 139.659 178.455 139.561 179.037 139.561C179.456 139.561 179.828 139.63 180.153 139.768C180.479 139.906 180.752 140.098 180.974 140.345C181.196 140.591 181.364 140.889 181.477 141.239C181.59 141.589 181.647 141.974 181.647 142.393V147.185H181.063C180.935 147.185 180.836 147.165 180.767 147.126C180.698 147.081 180.644 146.998 180.604 146.874L180.456 146.164C180.259 146.347 180.067 146.509 179.88 146.652C179.692 146.79 179.495 146.909 179.288 147.007C179.081 147.101 178.859 147.173 178.622 147.222C178.391 147.276 178.132 147.303 177.846 147.303C177.555 147.303 177.282 147.264 177.025 147.185C176.769 147.101 176.545 146.978 176.352 146.815C176.165 146.652 176.015 146.448 175.901 146.201C175.793 145.95 175.738 145.654 175.738 145.314C175.738 145.018 175.82 144.735 175.982 144.464C176.145 144.187 176.409 143.943 176.774 143.731C177.139 143.519 177.614 143.347 178.201 143.214C178.788 143.076 179.507 142.997 180.36 142.977V142.393C180.36 141.811 180.235 141.372 179.983 141.077C179.732 140.776 179.364 140.626 178.881 140.626C178.556 140.626 178.282 140.667 178.06 140.751C177.844 140.83 177.654 140.921 177.491 141.025C177.333 141.123 177.195 141.215 177.077 141.299C176.964 141.377 176.85 141.417 176.737 141.417C176.648 141.417 176.572 141.395 176.508 141.35C176.443 141.301 176.389 141.242 176.345 141.173L176.108 140.751ZM188.902 141.476C188.656 141.146 188.389 140.916 188.103 140.788C187.818 140.655 187.497 140.589 187.142 140.589C186.447 140.589 185.912 140.838 185.537 141.335C185.163 141.833 184.975 142.543 184.975 143.465C184.975 143.953 185.017 144.372 185.101 144.722C185.185 145.067 185.308 145.353 185.471 145.58C185.634 145.802 185.833 145.965 186.07 146.068C186.306 146.172 186.575 146.224 186.876 146.224C187.31 146.224 187.687 146.125 188.007 145.928C188.333 145.731 188.631 145.452 188.902 145.092V141.476ZM190.218 136.292V147.185H189.435C189.247 147.185 189.129 147.094 189.08 146.911L188.961 146.002C188.641 146.386 188.276 146.697 187.867 146.933C187.458 147.17 186.984 147.288 186.447 147.288C186.018 147.288 185.629 147.207 185.279 147.044C184.929 146.877 184.63 146.633 184.384 146.312C184.137 145.992 183.947 145.593 183.814 145.114C183.681 144.636 183.615 144.086 183.615 143.465C183.615 142.913 183.689 142.4 183.837 141.927C183.984 141.449 184.196 141.035 184.473 140.685C184.749 140.335 185.086 140.061 185.486 139.864C185.89 139.662 186.343 139.561 186.846 139.561C187.305 139.561 187.697 139.64 188.022 139.797C188.352 139.95 188.646 140.165 188.902 140.441V136.292H190.218ZM130.467 158.679C131.014 158.679 131.507 158.77 131.946 158.953C132.384 159.135 132.759 159.394 133.07 159.729C133.38 160.064 133.617 160.471 133.779 160.949C133.947 161.423 134.031 161.953 134.031 162.539C134.031 163.131 133.947 163.663 133.779 164.137C133.617 164.61 133.38 165.014 133.07 165.349C132.759 165.685 132.384 165.943 131.946 166.126C131.507 166.303 131.014 166.392 130.467 166.392C129.914 166.392 129.416 166.303 128.973 166.126C128.534 165.943 128.159 165.685 127.849 165.349C127.538 165.014 127.299 164.61 127.131 164.137C126.969 163.663 126.887 163.131 126.887 162.539C126.887 161.953 126.969 161.423 127.131 160.949C127.299 160.471 127.538 160.064 127.849 159.729C128.159 159.394 128.534 159.135 128.973 158.953C129.416 158.77 129.914 158.679 130.467 158.679ZM130.467 165.364C131.206 165.364 131.758 165.118 132.123 164.625C132.488 164.127 132.67 163.434 132.67 162.547C132.67 161.654 132.488 160.959 132.123 160.461C131.758 159.963 131.206 159.714 130.467 159.714C130.092 159.714 129.764 159.779 129.483 159.907C129.207 160.035 128.975 160.22 128.788 160.461C128.605 160.703 128.467 161.001 128.374 161.356C128.285 161.706 128.241 162.103 128.241 162.547C128.241 163.434 128.423 164.127 128.788 164.625C129.158 165.118 129.717 165.364 130.467 165.364ZM137.394 164.484C137.635 164.81 137.899 165.039 138.185 165.172C138.471 165.305 138.791 165.372 139.146 165.372C139.846 165.372 140.384 165.123 140.758 164.625C141.133 164.127 141.32 163.417 141.32 162.495C141.32 162.007 141.276 161.588 141.187 161.238C141.104 160.888 140.98 160.602 140.818 160.38C140.655 160.153 140.455 159.988 140.219 159.884C139.982 159.781 139.713 159.729 139.413 159.729C138.984 159.729 138.607 159.828 138.281 160.025C137.961 160.222 137.665 160.501 137.394 160.861V164.484ZM137.327 159.958C137.643 159.569 138.008 159.256 138.422 159.019C138.836 158.783 139.309 158.664 139.841 158.664C140.275 158.664 140.667 158.748 141.017 158.916C141.367 159.078 141.666 159.322 141.912 159.648C142.159 159.968 142.348 160.368 142.481 160.846C142.615 161.324 142.681 161.874 142.681 162.495C142.681 163.047 142.607 163.562 142.459 164.04C142.311 164.514 142.097 164.925 141.816 165.275C141.54 165.62 141.2 165.894 140.795 166.096C140.396 166.293 139.945 166.392 139.442 166.392C138.984 166.392 138.589 166.316 138.259 166.163C137.934 166.005 137.645 165.788 137.394 165.512V168.825H136.07V158.797H136.861C137.049 158.797 137.164 158.889 137.209 159.071L137.327 159.958ZM149.744 161.726C149.744 161.42 149.7 161.142 149.611 160.89C149.527 160.634 149.401 160.414 149.234 160.232C149.071 160.045 148.871 159.902 148.635 159.803C148.398 159.7 148.129 159.648 147.829 159.648C147.198 159.648 146.697 159.833 146.327 160.202C145.963 160.567 145.736 161.075 145.647 161.726H149.744ZM150.809 165.238C150.646 165.436 150.451 165.608 150.225 165.756C149.998 165.899 149.754 166.017 149.493 166.111C149.236 166.205 148.97 166.274 148.694 166.318C148.418 166.367 148.144 166.392 147.873 166.392C147.355 166.392 146.877 166.306 146.438 166.133C146.005 165.956 145.627 165.699 145.307 165.364C144.991 165.024 144.745 164.605 144.567 164.107C144.39 163.609 144.301 163.037 144.301 162.391C144.301 161.869 144.38 161.381 144.538 160.927C144.701 160.474 144.932 160.082 145.233 159.751C145.534 159.416 145.901 159.155 146.335 158.968C146.769 158.775 147.257 158.679 147.799 158.679C148.248 158.679 148.662 158.756 149.041 158.908C149.426 159.056 149.756 159.273 150.032 159.559C150.313 159.84 150.533 160.19 150.69 160.609C150.848 161.023 150.927 161.497 150.927 162.029C150.927 162.236 150.905 162.374 150.861 162.443C150.816 162.512 150.732 162.547 150.609 162.547H145.603C145.618 163.02 145.682 163.432 145.795 163.782C145.913 164.132 146.076 164.425 146.283 164.662C146.49 164.893 146.737 165.068 147.023 165.187C147.309 165.3 147.629 165.357 147.984 165.357C148.314 165.357 148.598 165.32 148.834 165.246C149.076 165.167 149.283 165.083 149.456 164.994C149.628 164.906 149.771 164.824 149.884 164.75C150.003 164.672 150.104 164.632 150.188 164.632C150.296 164.632 150.38 164.674 150.439 164.758L150.809 165.238ZM154.164 160.299C154.4 159.786 154.691 159.387 155.036 159.101C155.381 158.81 155.803 158.664 156.301 158.664C156.459 158.664 156.609 158.682 156.752 158.716C156.9 158.751 157.03 158.805 157.144 158.879L157.048 159.862C157.018 159.986 156.944 160.047 156.826 160.047C156.757 160.047 156.656 160.032 156.523 160.003C156.39 159.973 156.239 159.958 156.072 159.958C155.835 159.958 155.623 159.993 155.436 160.062C155.253 160.131 155.088 160.235 154.94 160.373C154.797 160.506 154.667 160.673 154.548 160.875C154.435 161.073 154.331 161.299 154.238 161.556V166.289H152.914V158.797H153.668C153.811 158.797 153.91 158.825 153.964 158.879C154.018 158.933 154.055 159.027 154.075 159.16L154.164 160.299ZM162.615 162.916C162.008 162.936 161.491 162.985 161.062 163.064C160.638 163.138 160.29 163.237 160.019 163.36C159.753 163.483 159.558 163.629 159.435 163.796C159.317 163.964 159.258 164.151 159.258 164.358C159.258 164.556 159.29 164.726 159.354 164.869C159.418 165.012 159.504 165.13 159.613 165.224C159.726 165.312 159.857 165.379 160.004 165.423C160.157 165.463 160.32 165.482 160.493 165.482C160.724 165.482 160.936 165.46 161.128 165.416C161.321 165.367 161.501 165.298 161.668 165.209C161.841 165.12 162.004 165.014 162.156 164.891C162.314 164.768 162.467 164.627 162.615 164.469V162.916ZM158.363 159.855C158.777 159.456 159.223 159.157 159.701 158.96C160.179 158.763 160.709 158.664 161.291 158.664C161.71 158.664 162.082 158.733 162.408 158.871C162.733 159.009 163.007 159.202 163.229 159.448C163.45 159.695 163.618 159.993 163.731 160.343C163.845 160.693 163.902 161.078 163.902 161.497V166.289H163.317C163.189 166.289 163.091 166.269 163.022 166.229C162.953 166.185 162.898 166.101 162.859 165.978L162.711 165.268C162.514 165.45 162.322 165.613 162.134 165.756C161.947 165.894 161.75 166.012 161.543 166.111C161.336 166.205 161.114 166.276 160.877 166.326C160.645 166.38 160.387 166.407 160.101 166.407C159.81 166.407 159.536 166.367 159.28 166.289C159.023 166.205 158.799 166.081 158.607 165.919C158.419 165.756 158.269 165.551 158.156 165.305C158.047 165.054 157.993 164.758 157.993 164.418C157.993 164.122 158.074 163.838 158.237 163.567C158.4 163.291 158.663 163.047 159.028 162.835C159.393 162.623 159.869 162.451 160.456 162.317C161.042 162.179 161.762 162.101 162.615 162.081V161.497C162.615 160.915 162.489 160.476 162.238 160.18C161.986 159.88 161.619 159.729 161.136 159.729C160.81 159.729 160.537 159.771 160.315 159.855C160.098 159.934 159.908 160.025 159.746 160.129C159.588 160.227 159.45 160.318 159.331 160.402C159.218 160.481 159.105 160.52 158.991 160.52C158.903 160.52 158.826 160.498 158.762 160.454C158.698 160.405 158.644 160.345 158.599 160.276L158.363 159.855ZM173.127 166.289H171.81V159.899H167.95V164.395C167.95 164.711 168.027 164.945 168.18 165.098C168.332 165.251 168.53 165.327 168.771 165.327C168.909 165.327 169.028 165.31 169.126 165.275C169.23 165.236 169.318 165.194 169.392 165.15C169.466 165.105 169.528 165.066 169.577 165.031C169.631 164.992 169.678 164.972 169.718 164.972C169.787 164.972 169.848 165.014 169.903 165.098L170.287 165.727C170.06 165.939 169.787 166.106 169.466 166.229C169.146 166.348 168.816 166.407 168.475 166.407C167.884 166.407 167.428 166.242 167.107 165.911C166.792 165.581 166.634 165.105 166.634 164.484V159.899H165.732C165.653 159.899 165.586 159.877 165.532 159.833C165.478 159.783 165.451 159.709 165.451 159.611V159.086L166.678 158.923L166.982 156.616C166.996 156.542 167.028 156.483 167.078 156.438C167.132 156.389 167.201 156.364 167.285 156.364H167.95V158.945H173.127V166.289ZM173.452 156.394C173.452 156.522 173.425 156.643 173.371 156.756C173.322 156.865 173.253 156.961 173.164 157.045C173.08 157.129 172.981 157.195 172.868 157.244C172.755 157.294 172.634 157.318 172.506 157.318C172.377 157.318 172.257 157.294 172.143 157.244C172.035 157.195 171.939 157.129 171.855 157.045C171.771 156.961 171.704 156.865 171.655 156.756C171.606 156.643 171.581 156.522 171.581 156.394C171.581 156.266 171.606 156.145 171.655 156.032C171.704 155.913 171.771 155.812 171.855 155.729C171.939 155.64 172.035 155.571 172.143 155.521C172.257 155.472 172.377 155.448 172.506 155.448C172.634 155.448 172.755 155.472 172.868 155.521C172.981 155.571 173.08 155.64 173.164 155.729C173.253 155.812 173.322 155.913 173.371 156.032C173.425 156.145 173.452 156.266 173.452 156.394ZM178.817 158.679C179.364 158.679 179.857 158.77 180.296 158.953C180.734 159.135 181.109 159.394 181.42 159.729C181.73 160.064 181.967 160.471 182.13 160.949C182.297 161.423 182.381 161.953 182.381 162.539C182.381 163.131 182.297 163.663 182.13 164.137C181.967 164.61 181.73 165.014 181.42 165.349C181.109 165.685 180.734 165.943 180.296 166.126C179.857 166.303 179.364 166.392 178.817 166.392C178.264 166.392 177.767 166.303 177.323 166.126C176.884 165.943 176.509 165.685 176.199 165.349C175.888 165.014 175.649 164.61 175.481 164.137C175.319 163.663 175.237 163.131 175.237 162.539C175.237 161.953 175.319 161.423 175.481 160.949C175.649 160.471 175.888 160.064 176.199 159.729C176.509 159.394 176.884 159.135 177.323 158.953C177.767 158.77 178.264 158.679 178.817 158.679ZM178.817 165.364C179.556 165.364 180.108 165.118 180.473 164.625C180.838 164.127 181.02 163.434 181.02 162.547C181.02 161.654 180.838 160.959 180.473 160.461C180.108 159.963 179.556 159.714 178.817 159.714C178.442 159.714 178.114 159.779 177.833 159.907C177.557 160.035 177.325 160.22 177.138 160.461C176.956 160.703 176.818 161.001 176.724 161.356C176.635 161.706 176.591 162.103 176.591 162.547C176.591 163.434 176.773 164.127 177.138 164.625C177.508 165.118 178.067 165.364 178.817 165.364ZM185.662 159.884C185.825 159.702 185.998 159.537 186.18 159.389C186.363 159.241 186.555 159.115 186.757 159.012C186.964 158.903 187.181 158.822 187.408 158.768C187.639 158.709 187.888 158.679 188.155 158.679C188.564 158.679 188.924 158.748 189.234 158.886C189.55 159.019 189.811 159.212 190.018 159.463C190.23 159.709 190.39 160.008 190.499 160.358C190.607 160.708 190.661 161.095 190.661 161.519V166.289H189.338V161.519C189.338 160.952 189.207 160.513 188.946 160.202C188.689 159.887 188.298 159.729 187.77 159.729C187.381 159.729 187.016 159.823 186.676 160.01C186.34 160.198 186.03 160.451 185.744 160.772V166.289H184.42V158.797H185.211C185.399 158.797 185.515 158.889 185.559 159.071L185.662 159.884Z" fill="#333333"/>
</g>
<defs>
<filter id="filter0_d_800_2523" x="0" y="0" width="234.734" height="234.734" filterUnits="userSpaceOnUse" color-interpolation-filters="sRGB">
<feFlood flood-opacity="0" result="BackgroundImageFix"/>
<feColorMatrix in="SourceAlpha" type="matrix" values="0 0 0 0 0 0 0 0 0 0 0 0 0 0 0 0 0 0 127 0" result="hardAlpha"/>
<feOffset dy="5"/>
<feGaussianBlur stdDeviation="10"/>
<feComposite in2="hardAlpha" operator="out"/>
<feColorMatrix type="matrix" values="0 0 0 0 0 0 0 0 0 0 0 0 0 0 0 0 0 0 0.15 0"/>
<feBlend mode="normal" in2="BackgroundImageFix" result="effect1_dropShadow_800_2523"/>
<feBlend mode="normal" in="SourceGraphic" in2="effect1_dropShadow_800_2523" result="shape"/>
</filter>
</defs>
</svg>
