<svg width="235" height="235" viewBox="0 0 235 235" fill="none" xmlns="http://www.w3.org/2000/svg">
<g id="Vector" filter="url(#filter0_d_800_2524)">
<path d="M20 112.367C20 58.5927 63.5927 15 117.367 15C171.141 15 214.734 58.5927 214.734 112.367C214.734 166.141 171.141 209.734 117.367 209.734H20V112.367Z" fill="white"/>
<path d="M105.942 56.3894C106.36 56.3894 106.697 56.0488 106.697 55.6268V50.1674C106.697 49.7454 106.36 49.4048 105.942 49.4048H104.919V41.3833C104.919 40.9614 104.582 40.6208 104.164 40.6208H102.26C101.842 40.6208 101.505 40.9614 101.505 41.3833V49.4048H98.0304L97.8141 48.378L98.5492 44.7536C98.5942 44.5299 98.5388 44.2961 98.3927 44.1182C98.2467 43.9403 98.0353 43.8386 97.8091 43.8386H92.6974C92.4712 43.8386 92.2543 43.9403 92.1138 44.1182C91.9727 44.2961 91.9123 44.5299 91.9573 44.7536L92.6974 48.378L91.1919 55.4692C91.1469 55.6929 91.2017 55.9268 91.3429 56.1098C91.484 56.2877 91.7003 56.3944 91.932 56.3944H105.942V56.3894ZM103.016 42.1458H103.408V49.4048H103.016V42.1458ZM105.186 50.9299V54.8643H99.1889L98.3527 50.9299H105.186ZM92.8638 54.8643L94.2035 48.5407C94.2232 48.439 94.2232 48.3323 94.2035 48.2255L93.6193 45.3585H96.8774L96.2981 48.2255C96.2778 48.3272 96.2778 48.4339 96.2981 48.5356L97.6378 54.8542H92.8638V54.8643Z" fill="#6D6E71"/>
<path d="M116.969 74.3131H123.849C124.266 74.3131 124.604 73.973 124.604 73.5508V68.7318C124.604 68.7318 124.604 68.7114 124.604 68.701C124.604 68.6757 124.604 68.6455 124.594 68.6196C124.594 68.5944 124.589 68.574 124.579 68.5488C124.573 68.5235 124.563 68.4982 124.559 68.4779C124.549 68.4576 124.543 68.4317 124.533 68.4113C124.523 68.391 124.513 68.3657 124.498 68.3454C124.483 68.3251 124.473 68.3047 124.457 68.2844C124.443 68.2641 124.427 68.2486 124.412 68.2283C124.392 68.208 124.377 68.1876 124.357 68.1673C124.347 68.1624 124.342 68.1525 124.337 68.147L123.733 67.6386C123.738 67.6034 123.743 67.5677 123.743 67.527V65.6309C123.743 65.209 123.406 64.8684 122.987 64.8684C122.569 64.8684 122.232 65.209 122.232 65.6309V66.3782L120.897 65.2547C120.616 65.0209 120.213 65.0209 119.931 65.2547L116.486 68.1525C116.486 68.1525 116.471 68.1673 116.461 68.1778C116.441 68.1932 116.426 68.2135 116.411 68.2339C116.396 68.2542 116.375 68.269 116.366 68.2893C116.35 68.3097 116.34 68.33 116.325 68.3503C116.31 68.3707 116.3 68.3965 116.29 68.4169C116.28 68.4372 116.27 68.4625 116.264 68.4828C116.255 68.5081 116.25 68.5284 116.245 68.5537C116.239 68.579 116.234 68.5993 116.229 68.6252C116.229 68.6504 116.224 68.6757 116.219 68.7065C116.219 68.7164 116.219 68.7268 116.219 68.7367V73.5558C116.219 73.9779 116.557 74.3181 116.975 74.3181L116.969 74.3131ZM120.409 66.8306L123.093 69.0929V72.7885H117.725V69.0929L120.409 66.8306Z" fill="#6D6E71"/>
<path d="M107.533 74.3131H114.411C114.829 74.3131 115.167 73.973 115.167 73.5508V68.7318C115.167 68.7318 115.167 68.7114 115.167 68.701C115.167 68.6757 115.167 68.6455 115.157 68.6196C115.157 68.5944 115.152 68.574 115.142 68.5488C115.137 68.5235 115.127 68.4982 115.121 68.4779C115.111 68.4576 115.107 68.4317 115.097 68.4113C115.086 68.391 115.076 68.3657 115.061 68.3454C115.046 68.3251 115.036 68.3047 115.021 68.2844C115.005 68.2641 114.991 68.2486 114.975 68.2283C114.956 68.208 114.94 68.1876 114.92 68.1673C114.91 68.1624 114.905 68.1525 114.9 68.147L114.296 67.6386C114.301 67.6034 114.306 67.5677 114.306 67.527V65.6309C114.306 65.209 113.968 64.8684 113.551 64.8684C113.133 64.8684 112.795 65.209 112.795 65.6309V66.3782L111.461 65.2547C111.179 65.0209 110.771 65.0209 110.494 65.2547L107.055 68.1525C107.055 68.1525 107.039 68.1673 107.029 68.1778C107.009 68.1932 106.994 68.2135 106.979 68.2339C106.963 68.2542 106.944 68.269 106.933 68.2893C106.918 68.3097 106.909 68.33 106.893 68.3503C106.878 68.3707 106.868 68.3965 106.858 68.4169C106.848 68.4372 106.838 68.4625 106.833 68.4828C106.823 68.5081 106.817 68.5284 106.812 68.5537C106.808 68.579 106.803 68.5993 106.798 68.6252C106.798 68.6504 106.793 68.6757 106.787 68.7065C106.787 68.7164 106.787 68.7268 106.787 68.7367V73.5558C106.787 73.9779 107.125 74.3181 107.543 74.3181L107.533 74.3131ZM110.972 66.8306L113.656 69.0929V72.7885H108.288V69.0929L110.972 66.8306Z" fill="#6D6E71"/>
<path d="M94.9787 42.1612C95.0342 42.1612 95.0897 42.156 95.1451 42.1408C95.5531 42.0493 95.8094 41.6426 95.7188 41.2309C95.709 41.1953 95.709 41.1546 95.709 41.114C95.709 40.7429 96.0109 40.4379 96.3788 40.4379C96.5699 40.4379 96.7061 40.5141 96.7868 40.5802C97.0234 40.7683 97.3556 40.814 97.6224 40.6666C97.8893 40.5192 98.0402 40.2345 98.01 39.9295C98.01 39.4415 98.4032 39.045 98.8863 39.045C99.0022 39.045 99.1181 39.0654 99.2241 39.1111C99.4607 39.2128 99.7374 39.1823 99.9488 39.0349C100.161 38.8875 100.282 38.6333 100.271 38.374V38.2826C100.271 37.6675 100.765 37.1693 101.374 37.1693C101.923 37.1693 102.392 37.581 102.467 38.125C102.522 38.5418 102.905 38.8265 103.318 38.7756C103.731 38.7197 104.018 38.3334 103.962 37.9165C103.786 36.6203 102.673 35.6443 101.374 35.6443C100.196 35.6443 99.1939 36.4373 98.8716 37.52C97.9096 37.5251 97.0838 38.1097 96.711 38.9434C96.6056 38.9281 96.4947 38.918 96.3838 38.918C95.1802 38.918 94.2035 39.9042 94.2035 41.119C94.2035 41.2715 94.2183 41.4241 94.2485 41.5664C94.3292 41.9222 94.6416 42.1662 94.9837 42.1662L94.9787 42.1612Z" fill="#6D6E71"/>
<path d="M129.846 75.0199C129.428 75.0199 129.09 75.3607 129.09 75.7822V77.2563H121.164V75.7822C121.164 75.3607 120.827 75.0199 120.409 75.0199C119.991 75.0199 119.654 75.3607 119.654 75.7822V77.2563H111.728V75.7822C111.728 75.3607 111.39 75.0199 110.972 75.0199C110.554 75.0199 110.217 75.3607 110.217 75.7822V77.2563H98.7908V66.1952L99.8231 64.3855C99.8231 64.3855 99.8335 64.36 99.8385 64.3448C99.8532 64.3194 99.8637 64.294 99.8736 64.2685C99.8834 64.2483 99.8884 64.2228 99.8939 64.2025C99.8988 64.1771 99.9038 64.1516 99.9087 64.1313C99.9087 64.1059 99.9136 64.0754 99.9186 64.05C99.9186 64.0347 99.9186 64.0194 99.9186 64.0042C99.9186 63.9941 99.9186 63.989 99.9186 63.9788C99.9186 63.9534 99.9186 63.9229 99.9087 63.8975C99.9087 63.872 99.9038 63.8517 99.8989 63.8263C99.8939 63.8009 99.8834 63.7806 99.8785 63.7551C99.8687 63.7297 99.8637 63.7094 99.8532 63.6891C99.8434 63.6687 99.828 63.6433 99.8181 63.623C99.8083 63.6026 99.7929 63.5823 99.783 63.5619C99.7676 63.5417 99.7528 63.5213 99.7325 63.501C99.7177 63.4807 99.7023 63.4654 99.6819 63.4502C99.6671 63.4349 99.6468 63.4197 99.6265 63.4044C99.6068 63.3891 99.5815 63.3688 99.5611 63.3586C99.5562 63.3586 99.5464 63.3485 99.5414 63.3434C99.531 63.3383 99.5162 63.3333 99.5008 63.3281C99.4755 63.318 99.4502 63.3027 99.4256 63.2926C99.4003 63.2824 99.38 63.2773 99.3547 63.2722C99.3294 63.2671 99.3097 63.2621 99.2845 63.257C99.2592 63.257 99.229 63.2519 99.2037 63.2468C99.1889 63.2468 99.1785 63.2468 99.1637 63.2468H98.781V58.3719C98.781 57.95 98.4433 57.6094 98.0255 57.6094C97.6076 57.6094 97.2699 57.95 97.2699 58.3719V63.2468H96.8922C96.8922 63.2468 96.8669 63.2468 96.8521 63.2468C96.8219 63.2468 96.7967 63.2468 96.7665 63.257C96.7412 63.257 96.7209 63.2671 96.7011 63.2722C96.6759 63.2773 96.6506 63.2875 96.6303 63.2926C96.6056 63.3027 96.5804 63.3129 96.5551 63.3281C96.5397 63.3333 96.5298 63.3383 96.5144 63.3434C96.5095 63.3434 96.4996 63.3535 96.4947 63.3586C96.4694 63.3739 96.4491 63.3891 96.4294 63.4095C96.409 63.4247 96.3936 63.44 96.3789 63.4552C96.3585 63.4705 96.3437 63.4908 96.3283 63.5112C96.3135 63.5315 96.2981 63.5467 96.2833 63.5671C96.2679 63.5874 96.2581 63.6077 96.2427 63.6331C96.2328 63.6535 96.2174 63.6738 96.2075 63.6941C96.1977 63.7196 96.1872 63.7399 96.1823 63.7653C96.1773 63.7856 96.1675 63.811 96.1619 63.8314C96.157 63.8568 96.1521 63.8822 96.1521 63.9025C96.1521 63.928 96.1471 63.9534 96.1422 63.9788C96.1422 63.989 96.1422 63.9941 96.1422 64.0042C96.1422 64.0194 96.1422 64.0347 96.1422 64.05C96.1422 64.0754 96.1422 64.1008 96.1521 64.1262C96.1521 64.1516 96.1619 64.1771 96.1675 64.2025C96.1724 64.2228 96.1773 64.2483 96.1872 64.2685C96.1977 64.294 96.2075 64.3194 96.2229 64.3448C96.2279 64.355 96.2328 64.3702 96.2377 64.3855L97.2699 66.1952V78.0192C97.2699 78.4407 97.6076 78.7815 98.0255 78.7815H129.836C130.254 78.7815 130.591 78.4407 130.591 78.0192V75.7822C130.591 75.3607 130.254 75.0199 129.836 75.0199H129.846Z" fill="#82AFB8"/>
<path d="M133.285 56.7859H126.407C125.989 56.7859 125.651 57.1265 125.651 57.5484V73.5459C125.651 73.9674 125.989 74.3082 126.407 74.3082H133.285C133.703 74.3082 134.041 73.9674 134.041 73.5459V57.5484C134.041 57.1265 133.703 56.7859 133.285 56.7859ZM132.53 72.783H127.162V58.3109H132.53V72.783Z" fill="#6D6E71"/>
<path d="M129.322 59.2463H128.119V60.5934H129.322V59.2463Z" fill="#6D6E71"/>
<path d="M131.578 59.2463H130.375V60.5934H131.578V59.2463Z" fill="#6D6E71"/>
<path d="M129.322 61.7322H128.119V63.0792H129.322V61.7322Z" fill="#6D6E71"/>
<path d="M131.578 61.7322H130.375V63.0792H131.578V61.7322Z" fill="#6D6E71"/>
<path d="M129.322 64.2178H128.119V65.5648H129.322V64.2178Z" fill="#6D6E71"/>
<path d="M131.578 64.2178H130.375V65.5648H131.578V64.2178Z" fill="#6D6E71"/>
<path d="M129.322 66.6985H128.119V68.0454H129.322V66.6985Z" fill="#6D6E71"/>
<path d="M131.578 66.6985H130.375V68.0454H131.578V66.6985Z" fill="#6D6E71"/>
<path d="M129.322 69.1841H128.119V70.5312H129.322V69.1841Z" fill="#6D6E71"/>
<path d="M131.578 69.1841H130.375V70.5312H131.578V69.1841Z" fill="#6D6E71"/>
<path d="M45.7419 122.979C46.1511 122.979 46.511 122.924 46.8216 122.816C47.1371 122.708 47.4008 122.557 47.6128 122.365C47.8297 122.168 47.9924 121.934 48.1009 121.662C48.2094 121.391 48.2636 121.093 48.2636 120.768C48.2636 120.092 48.0541 119.565 47.635 119.185C47.2209 118.806 46.5899 118.616 45.7419 118.616H44.0411V122.979H45.7419ZM45.7419 117.484C46.4124 117.484 46.9941 117.563 47.4871 117.721C47.985 117.874 48.3967 118.093 48.7221 118.379C49.0475 118.665 49.289 119.01 49.4468 119.414C49.6095 119.819 49.6908 120.27 49.6908 120.768C49.6908 121.261 49.6045 121.712 49.432 122.121C49.2594 122.53 49.0055 122.883 48.6703 123.178C48.34 123.474 47.9283 123.706 47.4354 123.874C46.9473 124.036 46.3828 124.118 45.7419 124.118H44.0411V128.081H42.6138V117.484H45.7419ZM54.3233 120.472C54.8706 120.472 55.3635 120.563 55.8023 120.745C56.2411 120.928 56.6158 121.187 56.9263 121.522C57.2369 121.857 57.4736 122.264 57.6363 122.742C57.8039 123.215 57.8877 123.745 57.8877 124.332C57.8877 124.924 57.8039 125.456 57.6363 125.929C57.4736 126.403 57.2369 126.807 56.9263 127.142C56.6158 127.477 56.2411 127.736 55.8023 127.919C55.3635 128.096 54.8706 128.185 54.3233 128.185C53.7712 128.185 53.2732 128.096 52.8295 127.919C52.3908 127.736 52.0161 127.477 51.7055 127.142C51.3949 126.807 51.1558 126.403 50.9882 125.929C50.8255 125.456 50.7442 124.924 50.7442 124.332C50.7442 123.745 50.8255 123.215 50.9882 122.742C51.1558 122.264 51.3949 121.857 51.7055 121.522C52.0161 121.187 52.3908 120.928 52.8295 120.745C53.2732 120.563 53.7712 120.472 54.3233 120.472ZM54.3233 127.157C55.0628 127.157 55.615 126.91 55.9798 126.417C56.3446 125.919 56.527 125.227 56.527 124.339C56.527 123.447 56.3446 122.752 55.9798 122.254C55.615 121.756 55.0628 121.507 54.3233 121.507C53.9486 121.507 53.6208 121.571 53.3398 121.699C53.0637 121.828 52.832 122.012 52.6447 122.254C52.4623 122.496 52.3242 122.794 52.2306 123.149C52.1418 123.499 52.0974 123.896 52.0974 124.339C52.0974 125.227 52.2799 125.919 52.6447 126.417C53.0144 126.91 53.574 127.157 54.3233 127.157ZM64.2899 121.825C64.2308 121.934 64.1396 121.988 64.0163 121.988C63.9424 121.988 63.8586 121.961 63.7649 121.906C63.6712 121.852 63.5554 121.793 63.4173 121.729C63.2842 121.66 63.124 121.598 62.9367 121.544C62.7493 121.485 62.5275 121.455 62.2711 121.455C62.0493 121.455 61.8496 121.485 61.6721 121.544C61.4946 121.598 61.3418 121.675 61.2136 121.773C61.0904 121.872 60.9943 121.988 60.9252 122.121C60.8611 122.249 60.8291 122.39 60.8291 122.542C60.8291 122.735 60.8833 122.895 60.9918 123.023C61.1052 123.151 61.2531 123.262 61.4355 123.356C61.6179 123.45 61.825 123.533 62.0567 123.607C62.2884 123.676 62.525 123.753 62.7666 123.837C63.0131 123.915 63.2522 124.004 63.4839 124.103C63.7156 124.201 63.9227 124.325 64.1051 124.473C64.2875 124.62 64.4329 124.803 64.5414 125.02C64.6548 125.232 64.7115 125.488 64.7115 125.789C64.7115 126.134 64.6498 126.454 64.5266 126.75C64.4033 127.041 64.2209 127.295 63.9794 127.512C63.7378 127.724 63.442 127.891 63.092 128.015C62.7419 128.138 62.3377 128.2 61.8792 128.2C61.3566 128.2 60.8833 128.116 60.4594 127.948C60.0354 127.776 59.6755 127.556 59.3797 127.29L59.6903 126.787C59.7297 126.723 59.7766 126.674 59.8308 126.639C59.885 126.605 59.954 126.587 60.0378 126.587C60.1266 126.587 60.2202 126.622 60.3188 126.691C60.4174 126.76 60.5358 126.836 60.6738 126.92C60.8168 127.004 60.9893 127.08 61.1915 127.149C61.3936 127.219 61.645 127.253 61.9457 127.253C62.2021 127.253 62.4264 127.221 62.6187 127.157C62.811 127.088 62.9712 126.997 63.0994 126.883C63.2275 126.77 63.3212 126.639 63.3804 126.491C63.4445 126.343 63.4765 126.186 63.4765 126.018C63.4765 125.811 63.4198 125.641 63.3064 125.508C63.198 125.37 63.0525 125.254 62.8701 125.16C62.6877 125.062 62.4782 124.978 62.2415 124.909C62.0098 124.835 61.7707 124.758 61.5242 124.68C61.2827 124.601 61.0436 124.512 60.8069 124.413C60.5752 124.31 60.3681 124.182 60.1857 124.029C60.0033 123.876 59.8554 123.689 59.742 123.467C59.6336 123.24 59.5794 122.966 59.5794 122.646C59.5794 122.36 59.6385 122.086 59.7568 121.825C59.8751 121.559 60.0477 121.327 60.2745 121.13C60.5013 120.928 60.7798 120.768 61.1101 120.649C61.4404 120.531 61.8176 120.472 62.2415 120.472C62.7345 120.472 63.1758 120.551 63.5652 120.708C63.9596 120.861 64.2998 121.073 64.5857 121.344L64.2899 121.825ZM71.0579 121.825C70.9988 121.934 70.9076 121.988 70.7843 121.988C70.7104 121.988 70.6266 121.961 70.5329 121.906C70.4392 121.852 70.3234 121.793 70.1853 121.729C70.0522 121.66 69.892 121.598 69.7047 121.544C69.5173 121.485 69.2955 121.455 69.0391 121.455C68.8174 121.455 68.6177 121.485 68.4402 121.544C68.2628 121.598 68.1099 121.675 67.9818 121.773C67.8585 121.872 67.7624 121.988 67.6933 122.121C67.6293 122.249 67.5972 122.39 67.5972 122.542C67.5972 122.735 67.6514 122.895 67.7599 123.023C67.8733 123.151 68.0212 123.262 68.2036 123.356C68.386 123.45 68.5931 123.533 68.8248 123.607C69.0564 123.676 69.293 123.753 69.5346 123.837C69.7811 123.915 70.0202 124.004 70.2519 124.103C70.4836 124.201 70.6907 124.325 70.8731 124.473C71.0555 124.62 71.2009 124.803 71.3094 125.02C71.4227 125.232 71.4794 125.488 71.4794 125.789C71.4794 126.134 71.4178 126.454 71.2946 126.75C71.1713 127.041 70.9889 127.295 70.7473 127.512C70.5058 127.724 70.21 127.891 69.8599 128.015C69.5099 128.138 69.1057 128.2 68.6473 128.2C68.1247 128.2 67.6514 128.116 67.2275 127.948C66.8035 127.776 66.4436 127.556 66.1478 127.29L66.4584 126.787C66.4978 126.723 66.5447 126.674 66.5989 126.639C66.6531 126.605 66.7221 126.587 66.806 126.587C66.8947 126.587 66.9884 126.622 67.087 126.691C67.1856 126.76 67.3039 126.836 67.4419 126.92C67.5849 127.004 67.7574 127.08 67.9596 127.149C68.1617 127.219 68.4131 127.253 68.7139 127.253C68.9702 127.253 69.1944 127.221 69.3867 127.157C69.5789 127.088 69.7392 126.997 69.8673 126.883C69.9955 126.77 70.0892 126.639 70.1483 126.491C70.2124 126.343 70.2445 126.186 70.2445 126.018C70.2445 125.811 70.1878 125.641 70.0744 125.508C69.9659 125.37 69.8205 125.254 69.6381 125.16C69.4557 125.062 69.2462 124.978 69.0095 124.909C68.7779 124.835 68.5388 124.758 68.2923 124.68C68.0508 124.601 67.8117 124.512 67.575 124.413C67.3433 124.31 67.1363 124.182 66.9538 124.029C66.7714 123.876 66.6235 123.689 66.5102 123.467C66.4017 123.24 66.3475 122.966 66.3475 122.646C66.3475 122.36 66.4066 122.086 66.5249 121.825C66.6433 121.559 66.8158 121.327 67.0426 121.13C67.2694 120.928 67.5479 120.768 67.8782 120.649C68.2085 120.531 68.5857 120.472 69.0095 120.472C69.5025 120.472 69.9438 120.551 70.3332 120.708C70.7276 120.861 71.0678 121.073 71.3537 121.344L71.0579 121.825ZM74.8534 120.59V128.081H73.5371V120.59H74.8534ZM75.1344 118.239C75.1344 118.367 75.1073 118.488 75.0531 118.601C75.0038 118.709 74.9347 118.808 74.846 118.897C74.7622 118.981 74.6611 119.047 74.5428 119.096C74.4294 119.146 74.3086 119.17 74.1805 119.17C74.0523 119.17 73.9315 119.146 73.8181 119.096C73.7096 119.047 73.6135 118.981 73.5297 118.897C73.4459 118.808 73.3793 118.709 73.33 118.601C73.2807 118.488 73.2561 118.367 73.2561 118.239C73.2561 118.11 73.2807 117.99 73.33 117.876C73.3793 117.758 73.4459 117.657 73.5297 117.573C73.6135 117.484 73.7096 117.415 73.8181 117.366C73.9315 117.317 74.0523 117.292 74.1805 117.292C74.3086 117.292 74.4294 117.317 74.5428 117.366C74.6611 117.415 74.7622 117.484 74.846 117.573C74.9347 117.657 75.0038 117.758 75.0531 117.876C75.1073 117.99 75.1344 118.11 75.1344 118.239ZM78.7099 126.277C78.9514 126.602 79.2152 126.831 79.5011 126.965C79.792 127.098 80.11 127.164 80.4551 127.164C81.1601 127.164 81.6999 126.915 82.0746 126.417C82.4493 125.919 82.6366 125.177 82.6366 124.191C82.6366 123.275 82.469 122.602 82.1337 122.173C81.8034 121.739 81.3301 121.522 80.7139 121.522C80.285 121.522 79.9103 121.621 79.5899 121.818C79.2743 122.015 78.981 122.293 78.7099 122.653V126.277ZM78.7099 121.67C79.0254 121.305 79.3803 121.014 79.7747 120.797C80.1741 120.58 80.6326 120.472 81.1502 120.472C81.589 120.472 81.9834 120.556 82.3334 120.723C82.6884 120.891 82.9891 121.135 83.2356 121.455C83.4821 121.771 83.6694 122.155 83.7976 122.609C83.9307 123.063 83.9973 123.573 83.9973 124.14C83.9973 124.746 83.9233 125.298 83.7754 125.796C83.6275 126.294 83.4131 126.721 83.132 127.076C82.856 127.426 82.5183 127.699 82.1189 127.896C81.7196 128.089 81.271 128.185 80.7731 128.185C80.2801 128.185 79.8635 128.094 79.5233 127.911C79.1881 127.724 78.8947 127.46 78.6433 127.12L78.5768 127.8C78.5373 127.988 78.4239 128.081 78.2366 128.081H77.3862V117.188H78.7099V121.67ZM87.3922 117.188V128.081H86.0759V117.188H87.3922ZM94.9104 123.519C94.9104 123.213 94.866 122.934 94.7773 122.683C94.6935 122.427 94.5677 122.207 94.4001 122.025C94.2374 121.837 94.0378 121.694 93.8011 121.596C93.5645 121.492 93.2958 121.441 92.9951 121.441C92.364 121.441 91.8636 121.625 91.4939 121.995C91.1291 122.36 90.9023 122.868 90.8136 123.519H94.9104ZM95.9752 127.031C95.8126 127.228 95.6178 127.401 95.391 127.549C95.1643 127.692 94.9202 127.81 94.6589 127.904C94.4026 127.997 94.1364 128.066 93.8603 128.111C93.5842 128.16 93.3106 128.185 93.0394 128.185C92.5218 128.185 92.0436 128.099 91.6048 127.926C91.171 127.748 90.7938 127.492 90.4734 127.157C90.1579 126.817 89.9114 126.398 89.7339 125.9C89.5564 125.402 89.4677 124.83 89.4677 124.184C89.4677 123.662 89.5465 123.173 89.7043 122.72C89.867 122.266 90.0987 121.874 90.3994 121.544C90.7002 121.209 91.0674 120.948 91.5013 120.76C91.9351 120.568 92.4232 120.472 92.9655 120.472C93.4141 120.472 93.8282 120.548 94.2078 120.701C94.5924 120.849 94.9227 121.066 95.1988 121.352C95.4798 121.633 95.6992 121.983 95.8569 122.402C96.0147 122.816 96.0936 123.289 96.0936 123.822C96.0936 124.029 96.0714 124.167 96.027 124.236C95.9826 124.305 95.8988 124.339 95.7756 124.339H90.7692C90.784 124.813 90.8481 125.224 90.9615 125.574C91.0798 125.924 91.2425 126.218 91.4495 126.454C91.6566 126.686 91.9031 126.861 92.189 126.979C92.475 127.093 92.7954 127.149 93.1504 127.149C93.4807 127.149 93.7641 127.113 94.0008 127.039C94.2423 126.96 94.4494 126.876 94.622 126.787C94.7945 126.698 94.9375 126.617 95.0509 126.543C95.1692 126.464 95.2703 126.425 95.3541 126.425C95.4625 126.425 95.5463 126.467 95.6055 126.55L95.9752 127.031ZM107.115 122.372C106.869 122.042 106.602 121.813 106.316 121.685C106.031 121.551 105.71 121.485 105.355 121.485C104.66 121.485 104.125 121.734 103.75 122.232C103.376 122.73 103.188 123.44 103.188 124.362C103.188 124.85 103.23 125.269 103.314 125.619C103.398 125.964 103.521 126.25 103.684 126.477C103.847 126.698 104.046 126.861 104.283 126.965C104.52 127.068 104.788 127.12 105.089 127.12C105.523 127.12 105.9 127.021 106.22 126.824C106.546 126.627 106.844 126.348 107.115 125.988V122.372ZM108.431 117.188V128.081H107.648C107.46 128.081 107.342 127.99 107.293 127.808L107.174 126.898C106.854 127.283 106.489 127.593 106.08 127.83C105.671 128.066 105.197 128.185 104.66 128.185C104.231 128.185 103.842 128.103 103.492 127.941C103.142 127.773 102.843 127.529 102.597 127.209C102.35 126.888 102.161 126.489 102.027 126.011C101.894 125.532 101.828 124.983 101.828 124.362C101.828 123.809 101.902 123.297 102.05 122.823C102.197 122.345 102.409 121.931 102.686 121.581C102.962 121.231 103.299 120.957 103.699 120.76C104.103 120.558 104.556 120.457 105.059 120.457C105.518 120.457 105.91 120.536 106.235 120.694C106.565 120.847 106.859 121.061 107.115 121.337V117.188H108.431ZM112.27 120.59V128.081H110.954V120.59H112.27ZM112.551 118.239C112.551 118.367 112.524 118.488 112.47 118.601C112.42 118.709 112.351 118.808 112.263 118.897C112.179 118.981 112.078 119.047 111.959 119.096C111.846 119.146 111.725 119.17 111.597 119.17C111.469 119.17 111.348 119.146 111.235 119.096C111.126 119.047 111.03 118.981 110.946 118.897C110.863 118.808 110.796 118.709 110.747 118.601C110.697 118.488 110.673 118.367 110.673 118.239C110.673 118.11 110.697 117.99 110.747 117.876C110.796 117.758 110.863 117.657 110.946 117.573C111.03 117.484 111.126 117.415 111.235 117.366C111.348 117.317 111.469 117.292 111.597 117.292C111.725 117.292 111.846 117.317 111.959 117.366C112.078 117.415 112.179 117.484 112.263 117.573C112.351 117.657 112.42 117.758 112.47 117.876C112.524 117.99 112.551 118.11 112.551 118.239ZM119.166 121.825C119.107 121.934 119.015 121.988 118.892 121.988C118.818 121.988 118.734 121.961 118.641 121.906C118.547 121.852 118.431 121.793 118.293 121.729C118.16 121.66 118 121.598 117.813 121.544C117.625 121.485 117.403 121.455 117.147 121.455C116.925 121.455 116.726 121.485 116.548 121.544C116.371 121.598 116.218 121.675 116.09 121.773C115.966 121.872 115.87 121.988 115.801 122.121C115.737 122.249 115.705 122.39 115.705 122.542C115.705 122.735 115.759 122.895 115.868 123.023C115.981 123.151 116.129 123.262 116.311 123.356C116.494 123.45 116.701 123.533 116.933 123.607C117.164 123.676 117.401 123.753 117.642 123.837C117.889 123.915 118.128 124.004 118.36 124.103C118.591 124.201 118.799 124.325 118.981 124.473C119.163 124.62 119.309 124.803 119.417 125.02C119.531 125.232 119.587 125.488 119.587 125.789C119.587 126.134 119.526 126.454 119.402 126.75C119.279 127.041 119.097 127.295 118.855 127.512C118.614 127.724 118.318 127.891 117.968 128.015C117.618 128.138 117.214 128.2 116.755 128.2C116.232 128.2 115.759 128.116 115.335 127.948C114.911 127.776 114.551 127.556 114.256 127.29L114.566 126.787C114.606 126.723 114.652 126.674 114.707 126.639C114.761 126.605 114.83 126.587 114.914 126.587C115.002 126.587 115.096 126.622 115.195 126.691C115.293 126.76 115.412 126.836 115.55 126.92C115.693 127.004 115.865 127.08 116.067 127.149C116.269 127.219 116.521 127.253 116.822 127.253C117.078 127.253 117.302 127.221 117.495 127.157C117.687 127.088 117.847 126.997 117.975 126.883C118.103 126.77 118.197 126.639 118.256 126.491C118.32 126.343 118.352 126.186 118.352 126.018C118.352 125.811 118.296 125.641 118.182 125.508C118.074 125.37 117.928 125.254 117.746 125.16C117.564 125.062 117.354 124.978 117.117 124.909C116.886 124.835 116.647 124.758 116.4 124.68C116.159 124.601 115.919 124.512 115.683 124.413C115.451 124.31 115.244 124.182 115.062 124.029C114.879 123.876 114.731 123.689 114.618 123.467C114.509 123.24 114.455 122.966 114.455 122.646C114.455 122.36 114.514 122.086 114.633 121.825C114.751 121.559 114.924 121.327 115.15 121.13C115.377 120.928 115.656 120.768 115.986 120.649C116.316 120.531 116.693 120.472 117.117 120.472C117.61 120.472 118.052 120.551 118.441 120.708C118.836 120.861 119.176 121.073 119.462 121.344L119.166 121.825ZM123.871 128.2C123.279 128.2 122.823 128.034 122.503 127.704C122.187 127.374 122.03 126.898 122.03 126.277V121.692H121.127C121.048 121.692 120.982 121.67 120.928 121.625C120.873 121.576 120.846 121.502 120.846 121.404V120.879L122.074 120.723L122.377 118.409C122.392 118.335 122.424 118.276 122.473 118.231C122.527 118.182 122.596 118.157 122.68 118.157H123.346V120.738H125.513V121.692H123.346V126.188C123.346 126.504 123.422 126.738 123.575 126.891C123.728 127.043 123.925 127.12 124.167 127.12C124.305 127.12 124.423 127.103 124.522 127.068C124.625 127.029 124.714 126.987 124.788 126.942C124.862 126.898 124.923 126.859 124.973 126.824C125.027 126.785 125.074 126.765 125.113 126.765C125.182 126.765 125.244 126.807 125.298 126.891L125.683 127.519C125.456 127.731 125.182 127.899 124.862 128.022C124.541 128.14 124.211 128.2 123.871 128.2ZM128.491 122.091C128.728 121.579 129.018 121.179 129.363 120.893C129.709 120.602 130.13 120.457 130.628 120.457C130.786 120.457 130.936 120.474 131.079 120.509C131.227 120.543 131.358 120.598 131.471 120.672L131.375 121.655C131.345 121.778 131.271 121.84 131.153 121.84C131.084 121.84 130.983 121.825 130.85 121.796C130.717 121.766 130.566 121.751 130.399 121.751C130.162 121.751 129.95 121.786 129.763 121.855C129.58 121.924 129.415 122.027 129.267 122.165C129.124 122.298 128.994 122.466 128.875 122.668C128.762 122.865 128.658 123.092 128.565 123.348V128.081H127.241V120.59H127.995C128.138 120.59 128.237 120.617 128.291 120.672C128.345 120.726 128.382 120.819 128.402 120.953L128.491 122.091ZM134.388 120.59V128.081H133.072V120.59H134.388ZM134.669 118.239C134.669 118.367 134.642 118.488 134.588 118.601C134.539 118.709 134.47 118.808 134.381 118.897C134.297 118.981 134.196 119.047 134.078 119.096C133.964 119.146 133.844 119.17 133.715 119.17C133.587 119.17 133.466 119.146 133.353 119.096C133.245 119.047 133.148 118.981 133.065 118.897C132.981 118.808 132.914 118.709 132.865 118.601C132.816 118.488 132.791 118.367 132.791 118.239C132.791 118.11 132.816 117.99 132.865 117.876C132.914 117.758 132.981 117.657 133.065 117.573C133.148 117.484 133.245 117.415 133.353 117.366C133.466 117.317 133.587 117.292 133.715 117.292C133.844 117.292 133.964 117.317 134.078 117.366C134.196 117.415 134.297 117.484 134.381 117.573C134.47 117.657 134.539 117.758 134.588 117.876C134.642 117.99 134.669 118.11 134.669 118.239ZM142.135 121.921C142.095 121.975 142.056 122.017 142.016 122.047C141.977 122.077 141.923 122.091 141.854 122.091C141.78 122.091 141.698 122.062 141.61 122.003C141.521 121.939 141.41 121.869 141.277 121.796C141.149 121.722 140.988 121.655 140.796 121.596C140.609 121.532 140.377 121.5 140.101 121.5C139.731 121.5 139.406 121.566 139.125 121.699C138.844 121.828 138.607 122.015 138.415 122.261C138.228 122.508 138.085 122.806 137.986 123.156C137.892 123.506 137.845 123.898 137.845 124.332C137.845 124.786 137.897 125.19 138.001 125.545C138.104 125.895 138.25 126.191 138.437 126.432C138.629 126.669 138.859 126.851 139.125 126.979C139.396 127.103 139.699 127.164 140.034 127.164C140.355 127.164 140.619 127.127 140.826 127.053C141.033 126.974 141.203 126.888 141.336 126.795C141.474 126.701 141.587 126.617 141.676 126.543C141.77 126.464 141.861 126.425 141.95 126.425C142.058 126.425 142.142 126.467 142.201 126.55L142.571 127.031C142.408 127.233 142.223 127.406 142.016 127.549C141.809 127.692 141.585 127.813 141.343 127.911C141.107 128.005 140.858 128.074 140.596 128.118C140.335 128.163 140.069 128.185 139.798 128.185C139.329 128.185 138.893 128.099 138.489 127.926C138.09 127.753 137.742 127.504 137.446 127.179C137.15 126.849 136.919 126.444 136.751 125.966C136.583 125.488 136.5 124.943 136.5 124.332C136.5 123.775 136.576 123.26 136.729 122.786C136.887 122.313 137.113 121.906 137.409 121.566C137.71 121.221 138.077 120.953 138.511 120.76C138.95 120.568 139.453 120.472 140.02 120.472C140.547 120.472 141.011 120.558 141.41 120.731C141.814 120.898 142.172 121.137 142.482 121.448L142.135 121.921ZM146.654 128.2C146.062 128.2 145.606 128.034 145.285 127.704C144.97 127.374 144.812 126.898 144.812 126.277V121.692H143.91C143.831 121.692 143.765 121.67 143.71 121.625C143.656 121.576 143.629 121.502 143.629 121.404V120.879L144.857 120.723L145.16 118.409C145.175 118.335 145.207 118.276 145.256 118.231C145.31 118.182 145.379 118.157 145.463 118.157H146.128V120.738H148.295V121.692H146.128V126.188C146.128 126.504 146.205 126.738 146.358 126.891C146.511 127.043 146.708 127.12 146.949 127.12C147.087 127.12 147.206 127.103 147.304 127.068C147.408 127.029 147.497 126.987 147.57 126.942C147.644 126.898 147.706 126.859 147.755 126.824C147.81 126.785 147.856 126.765 147.896 126.765C147.965 126.765 148.027 126.807 148.081 126.891L148.465 127.519C148.238 127.731 147.965 127.899 147.644 128.022C147.324 128.14 146.994 128.2 146.654 128.2ZM43.6269 140.692C43.9474 140.352 44.3024 140.081 44.6918 139.879C45.0813 139.677 45.5299 139.575 46.0377 139.575C46.4469 139.575 46.8068 139.645 47.1174 139.783C47.4329 139.916 47.6942 140.108 47.9012 140.359C48.1132 140.606 48.2734 140.904 48.3819 141.254C48.4904 141.604 48.5446 141.991 48.5446 142.415V147.185H47.2209V142.415C47.2209 141.848 47.0903 141.409 46.829 141.099C46.5726 140.783 46.1807 140.626 45.6532 140.626C45.2637 140.626 44.8989 140.719 44.5587 140.907C44.2235 141.094 43.9129 141.348 43.6269 141.668V147.185H42.3033V136.292H43.6269V140.692ZM55.9339 142.622C55.9339 142.317 55.8895 142.038 55.8008 141.787C55.717 141.53 55.5913 141.311 55.4236 141.128C55.2609 140.941 55.0613 140.798 54.8246 140.7C54.588 140.596 54.3193 140.544 54.0186 140.544C53.3876 140.544 52.8872 140.729 52.5174 141.099C52.1526 141.464 51.9258 141.971 51.8371 142.622H55.9339ZM56.9988 146.135C56.8361 146.332 56.6413 146.505 56.4146 146.652C56.1878 146.795 55.9437 146.914 55.6825 147.007C55.4261 147.101 55.1599 147.17 54.8838 147.214C54.6077 147.264 54.3341 147.288 54.063 147.288C53.5453 147.288 53.0671 147.202 52.6283 147.03C52.1945 146.852 51.8174 146.596 51.4969 146.261C51.1814 145.92 50.9349 145.501 50.7574 145.003C50.5799 144.505 50.4912 143.934 50.4912 143.288C50.4912 142.765 50.5701 142.277 50.7278 141.824C50.8905 141.37 51.1222 140.978 51.423 140.648C51.7237 140.313 52.091 140.051 52.5248 139.864C52.9586 139.672 53.4467 139.575 53.989 139.575C54.4376 139.575 54.8518 139.652 55.2314 139.805C55.6159 139.953 55.9462 140.17 56.2223 140.455C56.5033 140.736 56.7227 141.087 56.8804 141.506C57.0382 141.92 57.1171 142.393 57.1171 142.925C57.1171 143.132 57.0949 143.27 57.0505 143.34C57.0062 143.409 56.9223 143.443 56.7991 143.443H51.7927C51.8075 143.916 51.8716 144.328 51.985 144.678C52.1033 145.028 52.266 145.321 52.473 145.558C52.6801 145.79 52.9266 145.965 53.2125 146.083C53.4985 146.196 53.8189 146.253 54.1739 146.253C54.5042 146.253 54.7877 146.216 55.0243 146.142C55.2659 146.063 55.4729 145.98 55.6455 145.891C55.818 145.802 55.961 145.721 56.0744 145.647C56.1927 145.568 56.2938 145.528 56.3776 145.528C56.486 145.528 56.5699 145.57 56.629 145.654L56.9988 146.135ZM63.1635 143.813C62.5571 143.833 62.0395 143.882 61.6106 143.961C61.1866 144.035 60.839 144.133 60.5679 144.256C60.3017 144.38 60.1069 144.525 59.9837 144.693C59.8654 144.86 59.8062 145.048 59.8062 145.255C59.8062 145.452 59.8382 145.622 59.9023 145.765C59.9664 145.908 60.0527 146.026 60.1612 146.12C60.2745 146.209 60.4052 146.275 60.5531 146.32C60.7059 146.359 60.8686 146.379 61.0412 146.379C61.2729 146.379 61.4848 146.357 61.6771 146.312C61.8694 146.263 62.0493 146.194 62.2169 146.105C62.3895 146.016 62.5522 145.91 62.705 145.787C62.8628 145.664 63.0156 145.523 63.1635 145.366V143.813ZM58.9114 140.751C59.3255 140.352 59.7717 140.054 60.2499 139.856C60.7281 139.659 61.2581 139.561 61.8398 139.561C62.2589 139.561 62.6311 139.63 62.9564 139.768C63.2818 139.906 63.5554 140.098 63.7773 140.345C63.9991 140.591 64.1668 140.889 64.2801 141.239C64.3935 141.589 64.4502 141.974 64.4502 142.393V147.185H63.866C63.7379 147.185 63.6392 147.165 63.5702 147.126C63.5012 147.081 63.447 146.998 63.4075 146.874L63.2596 146.164C63.0624 146.347 62.8702 146.509 62.6828 146.652C62.4955 146.79 62.2983 146.909 62.0912 147.007C61.8842 147.101 61.6623 147.173 61.4257 147.222C61.194 147.276 60.9352 147.303 60.6492 147.303C60.3584 147.303 60.0847 147.264 59.8284 147.185C59.572 147.101 59.3477 146.978 59.1554 146.815C58.9681 146.652 58.8177 146.448 58.7043 146.201C58.5959 145.95 58.5417 145.654 58.5417 145.314C58.5417 145.018 58.623 144.735 58.7857 144.464C58.9484 144.187 59.2121 143.943 59.577 143.731C59.9418 143.519 60.4175 143.347 61.0042 143.214C61.5908 143.076 62.3106 142.997 63.1635 142.977V142.393C63.1635 141.811 63.0378 141.372 62.7864 141.077C62.5349 140.776 62.1677 140.626 61.6845 140.626C61.3591 140.626 61.0855 140.667 60.8637 140.751C60.6468 140.83 60.4569 140.921 60.2943 141.025C60.1365 141.123 59.9985 141.215 59.8801 141.299C59.7668 141.377 59.6534 141.417 59.54 141.417C59.4512 141.417 59.3748 141.395 59.3107 141.35C59.2466 141.301 59.1924 141.242 59.148 141.173L58.9114 140.751ZM73.6751 147.185H72.3588V140.796H68.4987V145.292C68.4987 145.607 68.5751 145.841 68.728 145.994C68.8808 146.147 69.0779 146.224 69.3195 146.224C69.4575 146.224 69.5759 146.206 69.6745 146.172C69.778 146.132 69.8667 146.09 69.9407 146.046C70.0146 146.002 70.0762 145.962 70.1255 145.928C70.1798 145.888 70.2266 145.869 70.2661 145.869C70.3351 145.869 70.3967 145.91 70.4509 145.994L70.8355 146.623C70.6087 146.835 70.3351 147.002 70.0146 147.126C69.6942 147.244 69.3639 147.303 69.0237 147.303C68.4322 147.303 67.9761 147.138 67.6557 146.808C67.3402 146.477 67.1824 146.002 67.1824 145.381V140.796H66.2802C66.2014 140.796 66.1348 140.773 66.0806 140.729C66.0263 140.68 65.9992 140.606 65.9992 140.507V139.982L67.2268 139.82L67.53 137.512C67.5448 137.438 67.5768 137.379 67.6261 137.335C67.6803 137.286 67.7494 137.261 67.8332 137.261H68.4987V139.842H73.6751V147.185ZM74.0005 137.29C74.0005 137.419 73.9734 137.539 73.9192 137.653C73.8699 137.761 73.8008 137.857 73.7121 137.941C73.6283 138.025 73.5297 138.092 73.4163 138.141C73.3029 138.19 73.1821 138.215 73.054 138.215C72.9258 138.215 72.805 138.19 72.6916 138.141C72.5831 138.092 72.487 138.025 72.4032 137.941C72.3194 137.857 72.2528 137.761 72.2035 137.653C72.1542 137.539 72.1296 137.419 72.1296 137.29C72.1296 137.162 72.1542 137.041 72.2035 136.928C72.2528 136.81 72.3194 136.709 72.4032 136.625C72.487 136.536 72.5831 136.467 72.6916 136.418C72.805 136.369 72.9258 136.344 73.054 136.344C73.1821 136.344 73.3029 136.369 73.4163 136.418C73.5297 136.467 73.6283 136.536 73.7121 136.625C73.8008 136.709 73.8699 136.81 73.9192 136.928C73.9734 137.041 74.0005 137.162 74.0005 137.29ZM77.4496 140.781C77.6123 140.598 77.7849 140.433 77.9673 140.285C78.1497 140.137 78.342 140.012 78.5441 139.908C78.7512 139.8 78.9681 139.718 79.1948 139.664C79.4266 139.605 79.6755 139.575 79.9417 139.575C80.3509 139.575 80.7108 139.645 81.0214 139.783C81.3369 139.916 81.5982 140.108 81.8053 140.359C82.0173 140.606 82.1775 140.904 82.2859 141.254C82.3944 141.604 82.4486 141.991 82.4486 142.415V147.185H81.1249V142.415C81.1249 141.848 80.9943 141.409 80.733 141.099C80.4766 140.783 80.0847 140.626 79.5572 140.626C79.1677 140.626 78.8029 140.719 78.4627 140.907C78.1275 141.094 77.8169 141.348 77.531 141.668V147.185H76.2073V139.694H76.9985C77.1859 139.694 77.3017 139.785 77.3461 139.967L77.4496 140.781ZM87.4347 143.524C87.7009 143.524 87.9351 143.487 88.1372 143.413C88.3393 143.34 88.5094 143.236 88.6475 143.103C88.7855 142.97 88.889 142.812 88.958 142.63C89.0271 142.442 89.0616 142.238 89.0616 142.016C89.0616 141.557 88.9211 141.193 88.6401 140.921C88.364 140.65 87.9622 140.515 87.4347 140.515C86.9022 140.515 86.4955 140.65 86.2145 140.921C85.9384 141.193 85.8004 141.557 85.8004 142.016C85.8004 142.238 85.8349 142.442 85.9039 142.63C85.9779 142.812 86.0839 142.97 86.2219 143.103C86.3599 143.236 86.53 143.34 86.7322 143.413C86.9343 143.487 87.1685 143.524 87.4347 143.524ZM89.8085 147.592C89.8085 147.409 89.7567 147.261 89.6532 147.148C89.5496 147.035 89.4091 146.946 89.2317 146.882C89.0591 146.818 88.857 146.773 88.6253 146.749C88.3936 146.719 88.1471 146.697 87.8858 146.682C87.6294 146.667 87.3681 146.652 87.1019 146.638C86.8357 146.623 86.5793 146.598 86.3328 146.564C86.0568 146.692 85.83 146.855 85.6525 147.052C85.48 147.244 85.3937 147.471 85.3937 147.732C85.3937 147.9 85.4356 148.055 85.5194 148.198C85.6081 148.346 85.7412 148.472 85.9187 148.575C86.0962 148.684 86.318 148.767 86.5843 148.827C86.8554 148.891 87.1734 148.923 87.5382 148.923C87.8932 148.923 88.2112 148.891 88.4922 148.827C88.7732 148.762 89.0098 148.671 89.2021 148.553C89.3993 148.435 89.5496 148.294 89.6532 148.131C89.7567 147.969 89.8085 147.789 89.8085 147.592ZM91.1469 139.99V140.478C91.1469 140.64 91.0434 140.744 90.8364 140.788L89.9859 140.899C90.1535 141.225 90.2374 141.584 90.2374 141.979C90.2374 142.344 90.1659 142.676 90.0229 142.977C89.8849 143.273 89.6926 143.527 89.4461 143.739C89.1996 143.951 88.9038 144.114 88.5587 144.227C88.2136 144.34 87.8389 144.397 87.4347 144.397C87.0846 144.397 86.7543 144.355 86.4438 144.271C86.286 144.37 86.1652 144.476 86.0814 144.589C85.9976 144.698 85.9557 144.809 85.9557 144.922C85.9557 145.1 86.0272 145.235 86.1701 145.329C86.318 145.418 86.5103 145.482 86.7469 145.521C86.9836 145.56 87.2523 145.585 87.553 145.595C87.8587 145.605 88.1692 145.622 88.4848 145.647C88.8052 145.666 89.1158 145.703 89.4165 145.758C89.7222 145.812 89.9933 145.901 90.23 146.024C90.4666 146.147 90.6564 146.317 90.7994 146.534C90.9473 146.751 91.0212 147.032 91.0212 147.377C91.0212 147.698 90.9399 148.008 90.7772 148.309C90.6194 148.61 90.3902 148.876 90.0895 149.108C89.7887 149.344 89.419 149.532 88.9802 149.67C88.5464 149.813 88.0559 149.884 87.5086 149.884C86.9614 149.884 86.4832 149.83 86.074 149.721C85.6648 149.613 85.3247 149.467 85.0535 149.285C84.7824 149.103 84.5778 148.891 84.4397 148.649C84.3066 148.412 84.2401 148.163 84.2401 147.902C84.2401 147.532 84.3559 147.219 84.5876 146.963C84.8193 146.707 85.1373 146.502 85.5416 146.349C85.3197 146.251 85.1422 146.12 85.0091 145.957C84.881 145.79 84.8169 145.565 84.8169 145.284C84.8169 145.176 84.8366 145.065 84.876 144.952C84.9155 144.833 84.9746 144.717 85.0535 144.604C85.1373 144.486 85.2384 144.375 85.3567 144.271C85.475 144.168 85.6131 144.077 85.7708 143.998C85.4011 143.791 85.1127 143.517 84.9056 143.177C84.6985 142.832 84.595 142.432 84.595 141.979C84.595 141.614 84.664 141.284 84.8021 140.988C84.945 140.687 85.1422 140.433 85.3937 140.226C85.6451 140.014 85.9434 139.852 86.2885 139.738C86.6385 139.625 87.0206 139.568 87.4347 139.568C87.7601 139.568 88.0633 139.605 88.3443 139.679C88.6253 139.748 88.8816 139.852 89.1133 139.99H91.1469ZM43.6935 158.797V166.289H42.3772V158.797H43.6935ZM43.9745 156.446C43.9745 156.574 43.9474 156.695 43.8932 156.808C43.8439 156.917 43.7748 157.015 43.6861 157.104C43.6023 157.188 43.5012 157.254 43.3829 157.304C43.2695 157.353 43.1487 157.378 43.0206 157.378C42.8924 157.378 42.7716 157.353 42.6582 157.304C42.5498 157.254 42.4536 157.188 42.3698 157.104C42.286 157.015 42.2194 156.917 42.1701 156.808C42.1208 156.695 42.0962 156.574 42.0962 156.446C42.0962 156.318 42.1208 156.197 42.1701 156.083C42.2194 155.965 42.286 155.864 42.3698 155.78C42.4536 155.692 42.5498 155.623 42.6582 155.573C42.7716 155.524 42.8924 155.499 43.0206 155.499C43.1487 155.499 43.2695 155.524 43.3829 155.573C43.5012 155.623 43.6023 155.692 43.6861 155.78C43.7748 155.864 43.8439 155.965 43.8932 156.083C43.9474 156.197 43.9745 156.318 43.9745 156.446ZM47.4684 159.884C47.6311 159.702 47.8036 159.537 47.986 159.389C48.1684 159.241 48.3607 159.115 48.5628 159.012C48.7699 158.903 48.9868 158.822 49.2136 158.768C49.4453 158.709 49.6943 158.679 49.9605 158.679C50.3697 158.679 50.7296 158.748 51.0401 158.886C51.3557 159.019 51.617 159.212 51.824 159.463C52.036 159.709 52.1962 160.008 52.3047 160.358C52.4131 160.708 52.4674 161.095 52.4674 161.519V166.289H51.1437V161.519C51.1437 160.952 51.013 160.513 50.7517 160.202C50.4954 159.887 50.1035 159.729 49.5759 159.729C49.1865 159.729 48.8217 159.823 48.4815 160.01C48.1463 160.198 47.8357 160.451 47.5497 160.772V166.289H46.226V158.797H47.0173C47.2046 158.797 47.3205 158.889 47.3649 159.071L47.4684 159.884ZM57.0416 166.407C56.4501 166.407 55.994 166.242 55.6736 165.911C55.3581 165.581 55.2003 165.105 55.2003 164.484V159.899H54.2981C54.2192 159.899 54.1527 159.877 54.0985 159.833C54.0442 159.783 54.0171 159.709 54.0171 159.611V159.086L55.2447 158.931L55.5479 156.616C55.5627 156.542 55.5947 156.483 55.644 156.438C55.6982 156.389 55.7673 156.365 55.8511 156.365H56.5166V158.945H58.6833V159.899H56.5166V164.395C56.5166 164.711 56.593 164.945 56.7459 165.098C56.8987 165.251 57.0959 165.327 57.3374 165.327C57.4755 165.327 57.5938 165.31 57.6924 165.275C57.7959 165.236 57.8847 165.194 57.9586 165.15C58.0326 165.105 58.0942 165.066 58.1435 165.031C58.1977 164.992 58.2446 164.972 58.284 164.972C58.353 164.972 58.4146 165.014 58.4689 165.098L58.8534 165.727C58.6266 165.939 58.353 166.106 58.0326 166.229C57.7121 166.348 57.3818 166.407 57.0416 166.407ZM65.3827 161.726C65.3827 161.42 65.3383 161.142 65.2496 160.89C65.1657 160.634 65.04 160.414 64.8724 160.232C64.7097 160.045 64.5101 159.902 64.2734 159.803C64.0368 159.7 63.7681 159.648 63.4674 159.648C62.8363 159.648 62.3359 159.833 61.9662 160.202C61.6014 160.567 61.3746 161.075 61.2859 161.726H65.3827ZM66.4475 165.238C66.2849 165.436 66.0901 165.608 65.8633 165.756C65.6366 165.899 65.3925 166.017 65.1312 166.111C64.8749 166.205 64.6087 166.274 64.3326 166.318C64.0565 166.367 63.7829 166.392 63.5117 166.392C62.9941 166.392 62.5159 166.306 62.0771 166.133C61.6433 165.956 61.2661 165.699 60.9457 165.364C60.6302 165.024 60.3837 164.605 60.2062 164.107C60.0287 163.609 59.94 163.037 59.94 162.391C59.94 161.869 60.0189 161.381 60.1766 160.927C60.3393 160.474 60.571 160.082 60.8717 159.751C61.1725 159.416 61.5398 159.155 61.9736 158.968C62.4074 158.775 62.8955 158.679 63.4378 158.679C63.8864 158.679 64.3005 158.756 64.6801 158.908C65.0647 159.056 65.395 159.273 65.6711 159.559C65.9521 159.84 66.1715 160.19 66.3292 160.609C66.487 161.023 66.5659 161.497 66.5659 162.029C66.5659 162.236 66.5437 162.374 66.4993 162.443C66.4549 162.512 66.3711 162.547 66.2479 162.547H61.2415C61.2563 163.02 61.3204 163.432 61.4338 163.782C61.5521 164.132 61.7148 164.425 61.9218 164.662C62.1289 164.893 62.3754 165.068 62.6613 165.187C62.9473 165.3 63.2677 165.357 63.6227 165.357C63.953 165.357 64.2365 165.32 64.4731 165.246C64.7147 165.167 64.9217 165.083 65.0943 164.994C65.2668 164.906 65.4098 164.824 65.5232 164.75C65.6415 164.672 65.7426 164.632 65.8264 164.632C65.9348 164.632 66.0186 164.674 66.0778 164.758L66.4475 165.238ZM71.1627 162.628C71.4289 162.628 71.6631 162.591 71.8652 162.517C72.0673 162.443 72.2374 162.34 72.3755 162.207C72.5135 162.073 72.617 161.916 72.6861 161.733C72.7551 161.546 72.7896 161.341 72.7896 161.119C72.7896 160.661 72.6491 160.296 72.3681 160.025C72.092 159.754 71.6902 159.618 71.1627 159.618C70.6303 159.618 70.2235 159.754 69.9425 160.025C69.6664 160.296 69.5284 160.661 69.5284 161.119C69.5284 161.341 69.5629 161.546 69.6319 161.733C69.7059 161.916 69.8119 162.073 69.9499 162.207C70.088 162.34 70.258 162.443 70.4602 162.517C70.6623 162.591 70.8965 162.628 71.1627 162.628ZM73.5365 166.695C73.5365 166.513 73.4847 166.365 73.3812 166.252C73.2776 166.138 73.1371 166.049 72.9597 165.985C72.7871 165.921 72.585 165.877 72.3533 165.852C72.1216 165.823 71.8751 165.8 71.6138 165.786C71.3574 165.771 71.0961 165.756 70.8299 165.741C70.5637 165.727 70.3073 165.702 70.0608 165.667C69.7848 165.796 69.558 165.958 69.3805 166.155C69.208 166.348 69.1217 166.574 69.1217 166.836C69.1217 167.003 69.1636 167.159 69.2474 167.302C69.3361 167.45 69.4692 167.575 69.6467 167.679C69.8242 167.787 70.0461 167.871 70.3123 167.93C70.5834 167.994 70.9014 168.026 71.2662 168.026C71.6212 168.026 71.9392 167.994 72.2202 167.93C72.5012 167.866 72.7378 167.775 72.9301 167.657C73.1273 167.538 73.2776 167.398 73.3812 167.235C73.4847 167.072 73.5365 166.892 73.5365 166.695ZM74.875 159.093V159.581C74.875 159.744 74.7714 159.848 74.5644 159.892L73.714 160.003C73.8816 160.328 73.9654 160.688 73.9654 161.082C73.9654 161.447 73.8939 161.78 73.7509 162.081C73.6129 162.377 73.4206 162.63 73.1741 162.842C72.9276 163.054 72.6318 163.217 72.2867 163.331C71.9416 163.444 71.567 163.501 71.1627 163.501C70.8127 163.501 70.4824 163.459 70.1718 163.375C70.014 163.474 69.8932 163.58 69.8094 163.693C69.7256 163.801 69.6837 163.912 69.6837 164.026C69.6837 164.203 69.7552 164.339 69.8982 164.432C70.0461 164.521 70.2383 164.585 70.475 164.625C70.7116 164.664 70.9803 164.689 71.281 164.699C71.5867 164.708 71.8973 164.726 72.2128 164.75C72.5332 164.77 72.8438 164.807 73.1445 164.861C73.4502 164.916 73.7213 165.004 73.958 165.128C74.1946 165.251 74.3844 165.421 74.5274 165.638C74.6753 165.855 74.7492 166.136 74.7492 166.481C74.7492 166.801 74.6679 167.112 74.5052 167.413C74.3475 167.713 74.1182 167.98 73.8175 168.211C73.5168 168.448 73.147 168.635 72.7082 168.773C72.2744 168.916 71.7839 168.988 71.2366 168.988C70.6894 168.988 70.2112 168.933 69.802 168.825C69.3928 168.717 69.0527 168.571 68.7817 168.389C68.5106 168.206 68.306 167.994 68.1679 167.753C68.0348 167.516 67.9683 167.267 67.9683 167.006C67.9683 166.636 68.0841 166.323 68.3158 166.067C68.5475 165.81 68.8655 165.606 69.2696 165.453C69.0477 165.354 68.8704 165.224 68.7373 165.061C68.6092 164.893 68.5451 164.669 68.5451 164.388C68.5451 164.28 68.5648 164.169 68.6042 164.055C68.6437 163.937 68.7028 163.821 68.7817 163.708C68.8655 163.589 68.9666 163.478 69.0847 163.375C69.203 163.271 69.3411 163.18 69.4988 163.101C69.1291 162.894 68.8409 162.621 68.6338 162.28C68.4267 161.935 68.3232 161.536 68.3232 161.082C68.3232 160.718 68.3922 160.387 68.5303 160.092C68.6732 159.791 68.8704 159.537 69.1217 159.33C69.3731 159.118 69.6714 158.955 70.0165 158.842C70.3665 158.728 70.7486 158.672 71.1627 158.672C71.4881 158.672 71.7913 158.709 72.0723 158.783C72.3533 158.852 72.6096 158.955 72.8413 159.093H74.875ZM77.8557 160.299C78.0924 159.786 78.3833 159.387 78.7284 159.101C79.0734 158.81 79.495 158.664 79.9929 158.664C80.1506 158.664 80.301 158.682 80.444 158.716C80.5919 158.751 80.7225 158.805 80.8359 158.879L80.7398 159.862C80.7102 159.986 80.6363 160.047 80.5179 160.047C80.4489 160.047 80.3478 160.032 80.2147 160.003C80.0816 159.973 79.9313 159.958 79.7636 159.958C79.527 159.958 79.315 159.993 79.1277 160.062C78.9453 160.131 78.7801 160.235 78.6322 160.373C78.4892 160.506 78.3586 160.673 78.2403 160.875C78.1269 161.073 78.0234 161.299 77.9297 161.556V166.289H76.606V158.797H77.3603C77.5033 158.797 77.6018 158.825 77.6561 158.879C77.7103 158.933 77.7473 159.027 77.767 159.16L77.8557 160.299ZM86.3076 162.916C85.7012 162.936 85.1835 162.985 84.7546 163.064C84.3307 163.138 83.9831 163.237 83.7119 163.36C83.4457 163.483 83.251 163.629 83.1277 163.796C83.0094 163.964 82.9503 164.151 82.9503 164.358C82.9503 164.556 82.9823 164.726 83.0464 164.869C83.1105 165.012 83.1968 165.13 83.3052 165.224C83.4186 165.312 83.5492 165.379 83.6971 165.423C83.85 165.463 84.0127 165.482 84.1852 165.482C84.4169 165.482 84.6289 165.46 84.8212 165.416C85.0134 165.367 85.1934 165.298 85.361 165.209C85.5336 165.12 85.6963 165.014 85.8491 164.891C86.0068 164.768 86.1597 164.627 86.3076 164.469V162.916ZM82.0555 159.855C82.4696 159.456 82.9157 159.157 83.394 158.96C83.8722 158.763 84.4021 158.664 84.9839 158.664C85.4029 158.664 85.7751 158.733 86.1005 158.871C86.4259 159.009 86.6995 159.202 86.9213 159.448C87.1432 159.695 87.3108 159.993 87.4242 160.343C87.5376 160.693 87.5943 161.078 87.5943 161.497V166.289H87.0101C86.8819 166.289 86.7833 166.269 86.7143 166.229C86.6453 166.185 86.591 166.101 86.5516 165.978L86.4037 165.268C86.2065 165.45 86.0142 165.613 85.8269 165.756C85.6395 165.894 85.4424 166.012 85.2353 166.111C85.0282 166.205 84.8064 166.276 84.5698 166.326C84.338 166.38 84.0792 166.407 83.7933 166.407C83.5024 166.407 83.2288 166.367 82.9724 166.289C82.7161 166.205 82.4918 166.081 82.2995 165.919C82.1122 165.756 81.9618 165.551 81.8484 165.305C81.7399 165.054 81.6857 164.758 81.6857 164.418C81.6857 164.122 81.7671 163.838 81.9298 163.567C82.0924 163.291 82.3562 163.047 82.721 162.835C83.0858 162.623 83.5616 162.451 84.1482 162.317C84.7349 162.179 85.4547 162.101 86.3076 162.081V161.497C86.3076 160.915 86.1818 160.476 85.9304 160.18C85.679 159.88 85.3117 159.729 84.8286 159.729C84.5032 159.729 84.2296 159.771 84.0077 159.855C83.7908 159.934 83.601 160.025 83.4383 160.129C83.2806 160.227 83.1425 160.318 83.0242 160.402C82.9108 160.481 82.7974 160.52 82.684 160.52C82.5953 160.52 82.5189 160.498 82.4548 160.454C82.3907 160.405 82.3365 160.345 82.2921 160.276L82.0555 159.855ZM96.8189 166.289H95.5026V159.899H91.6424V164.395C91.6424 164.711 91.7188 164.945 91.8717 165.098C92.0245 165.251 92.2217 165.327 92.4632 165.327C92.6013 165.327 92.7196 165.31 92.8182 165.275C92.9217 165.236 93.0105 165.194 93.0844 165.15C93.1584 165.105 93.22 165.066 93.2693 165.031C93.3235 164.992 93.3704 164.972 93.4098 164.972C93.4788 164.972 93.5404 165.014 93.5947 165.098L93.9792 165.727C93.7524 165.939 93.4788 166.106 93.1584 166.229C92.8379 166.348 92.5076 166.407 92.1674 166.407C91.5759 166.407 91.1198 166.242 90.7994 165.911C90.4839 165.581 90.3261 165.105 90.3261 164.484V159.899H89.4239C89.345 159.899 89.2785 159.877 89.2243 159.833C89.17 159.783 89.1429 159.709 89.1429 159.611V159.086L90.3705 158.923L90.6737 156.616C90.6885 156.542 90.7205 156.483 90.7698 156.438C90.824 156.389 90.8931 156.365 90.9769 156.365H91.6424V158.945H96.8189V166.289ZM97.1443 156.394C97.1443 156.522 97.1171 156.643 97.0629 156.756C97.0136 156.865 96.9446 156.961 96.8559 157.045C96.772 157.129 96.6734 157.195 96.5601 157.245C96.4467 157.294 96.3259 157.318 96.1977 157.318C96.0695 157.318 95.9487 157.294 95.8354 157.245C95.7269 157.195 95.6308 157.129 95.5469 157.045C95.4631 156.961 95.3966 156.865 95.3473 156.756C95.298 156.643 95.2733 156.522 95.2733 156.394C95.2733 156.266 95.298 156.145 95.3473 156.032C95.3966 155.913 95.4631 155.812 95.5469 155.729C95.6308 155.64 95.7269 155.571 95.8354 155.521C95.9487 155.472 96.0695 155.448 96.1977 155.448C96.3259 155.448 96.4467 155.472 96.5601 155.521C96.6734 155.571 96.772 155.64 96.8559 155.729C96.9446 155.812 97.0136 155.913 97.0629 156.032C97.1171 156.145 97.1443 156.266 97.1443 156.394ZM102.509 158.679C103.056 158.679 103.549 158.77 103.988 158.953C104.426 159.135 104.801 159.394 105.112 159.729C105.422 160.064 105.659 160.471 105.822 160.949C105.989 161.423 106.073 161.953 106.073 162.539C106.073 163.131 105.989 163.663 105.822 164.137C105.659 164.61 105.422 165.014 105.112 165.349C104.801 165.685 104.426 165.943 103.988 166.126C103.549 166.303 103.056 166.392 102.509 166.392C101.957 166.392 101.459 166.303 101.015 166.126C100.576 165.943 100.201 165.685 99.8909 165.349C99.5803 165.014 99.3412 164.61 99.1736 164.137C99.0109 163.663 98.9295 163.131 98.9295 162.539C98.9295 161.953 99.0109 161.423 99.1736 160.949C99.3412 160.471 99.5803 160.064 99.8909 159.729C100.201 159.394 100.576 159.135 101.015 158.953C101.459 158.77 101.957 158.679 102.509 158.679ZM102.509 165.364C103.248 165.364 103.8 165.118 104.165 164.625C104.53 164.127 104.712 163.434 104.712 162.547C104.712 161.654 104.53 160.959 104.165 160.461C103.8 159.963 103.248 159.714 102.509 159.714C102.134 159.714 101.806 159.779 101.525 159.907C101.249 160.035 101.017 160.22 100.83 160.461C100.648 160.703 100.51 161.001 100.416 161.356C100.327 161.706 100.283 162.103 100.283 162.547C100.283 163.434 100.465 164.127 100.83 164.625C101.2 165.118 101.759 165.364 102.509 165.364ZM109.355 159.884C109.518 159.702 109.69 159.537 109.873 159.389C110.055 159.241 110.248 159.115 110.45 159.012C110.657 158.903 110.874 158.822 111.1 158.768C111.332 158.709 111.581 158.679 111.847 158.679C112.256 158.679 112.616 158.748 112.927 158.886C113.242 159.019 113.504 159.212 113.711 159.463C113.923 159.709 114.083 160.008 114.191 160.358C114.3 160.708 114.354 161.095 114.354 161.519V166.289H113.03V161.519C113.03 160.952 112.9 160.513 112.639 160.202C112.382 159.887 111.99 159.729 111.463 159.729C111.073 159.729 110.708 159.823 110.368 160.01C110.033 160.198 109.722 160.451 109.437 160.772V166.289H108.113V158.797H108.904C109.091 158.797 109.207 158.889 109.252 159.071L109.355 159.884Z" fill="#333333"/>
</g>
<defs>
<filter id="filter0_d_800_2524" x="0" y="0" width="234.734" height="234.734" filterUnits="userSpaceOnUse" color-interpolation-filters="sRGB">
<feFlood flood-opacity="0" result="BackgroundImageFix"/>
<feColorMatrix in="SourceAlpha" type="matrix" values="0 0 0 0 0 0 0 0 0 0 0 0 0 0 0 0 0 0 127 0" result="hardAlpha"/>
<feOffset dy="5"/>
<feGaussianBlur stdDeviation="10"/>
<feComposite in2="hardAlpha" operator="out"/>
<feColorMatrix type="matrix" values="0 0 0 0 0 0 0 0 0 0 0 0 0 0 0 0 0 0 0.15 0"/>
<feBlend mode="normal" in2="BackgroundImageFix" result="effect1_dropShadow_800_2524"/>
<feBlend mode="normal" in="SourceGraphic" in2="effect1_dropShadow_800_2524" result="shape"/>
</filter>
</defs>
</svg>
