<svg width="494" height="322" viewBox="0 0 494 322" fill="none" xmlns="http://www.w3.org/2000/svg">
<path fill-rule="evenodd" clip-rule="evenodd" d="M89.7847 195.561C89.7847 195.561 89.7845 195.561 88.5508 194.708C87.3171 193.854 87.318 193.853 87.3192 193.851L87.3236 193.845L87.3394 193.822L87.3987 193.738C87.4507 193.664 87.5275 193.556 87.6293 193.414C87.8329 193.131 88.1366 192.714 88.5418 192.171C89.3522 191.087 90.5689 189.501 92.2039 187.483C95.474 183.447 100.418 177.681 107.132 170.733C120.56 156.839 141.07 138.216 169.436 119.255C226.178 81.3267 314.322 42.0661 440.01 36.5636L440.141 39.5607C315.047 45.0372 227.429 84.0994 171.104 121.749C142.936 140.577 122.587 159.057 109.289 172.818C102.64 179.698 97.7538 185.398 94.5349 189.371C92.9254 191.358 91.7328 192.912 90.9451 193.967C90.5512 194.494 90.2586 194.896 90.0656 195.165C89.9692 195.299 89.8976 195.4 89.8508 195.466L89.7992 195.54L89.7847 195.561Z" fill="#F18922"/>
<path fill-rule="evenodd" clip-rule="evenodd" d="M87.5508 248.38V0H89.5508V248.38H87.5508Z" fill="#6F6F72"/>
<path fill-rule="evenodd" clip-rule="evenodd" d="M468.879 238.531H77V236.531H468.879V238.531Z" fill="#6F6F72"/>
<path fill-rule="evenodd" clip-rule="evenodd" d="M158.022 248.666V237.531H160.022V248.666H158.022Z" fill="#6F6F72"/>
<path fill-rule="evenodd" clip-rule="evenodd" d="M228.155 248.666V237.531H230.155V248.666H228.155Z" fill="#6F6F72"/>
<path fill-rule="evenodd" clip-rule="evenodd" d="M298.29 248.666V237.531H300.29V248.666H298.29Z" fill="#6F6F72"/>
<path fill-rule="evenodd" clip-rule="evenodd" d="M368.423 248.666V237.531H370.423V248.666H368.423Z" fill="#6F6F72"/>
<path fill-rule="evenodd" clip-rule="evenodd" d="M438.583 248.666V237.531H440.583V248.666H438.583Z" fill="#6F6F72"/>
<path d="M77.3 270.83V264.92C77.3 264.747 77.3067 264.557 77.32 264.35C77.3334 264.143 77.3534 263.933 77.38 263.72L72.16 270.83H77.3ZM81.03 270.83V271.85C81.03 271.957 80.9967 272.047 80.93 272.12C80.87 272.193 80.7734 272.23 80.64 272.23H78.86V276H77.3V272.23H70.94C70.8067 272.23 70.69 272.193 70.59 272.12C70.4967 272.04 70.4367 271.943 70.41 271.83L70.23 270.92L77.2 261.67H78.86V270.83H81.03Z" fill="#6F6F72"/>
<path d="M92.6016 268.84C92.6016 270.093 92.4649 271.18 92.1916 272.1C91.9249 273.013 91.5583 273.77 91.0916 274.37C90.6249 274.97 90.0716 275.417 89.4316 275.71C88.7983 276.003 88.1183 276.15 87.3916 276.15C86.6583 276.15 85.9749 276.003 85.3416 275.71C84.7149 275.417 84.1683 274.97 83.7016 274.37C83.2349 273.77 82.8683 273.013 82.6016 272.1C82.3349 271.18 82.2016 270.093 82.2016 268.84C82.2016 267.587 82.3349 266.5 82.6016 265.58C82.8683 264.66 83.2349 263.9 83.7016 263.3C84.1683 262.693 84.7149 262.243 85.3416 261.95C85.9749 261.657 86.6583 261.51 87.3916 261.51C88.1183 261.51 88.7983 261.657 89.4316 261.95C90.0716 262.243 90.6249 262.693 91.0916 263.3C91.5583 263.9 91.9249 264.66 92.1916 265.58C92.4649 266.5 92.6016 267.587 92.6016 268.84ZM90.7516 268.84C90.7516 267.747 90.6583 266.83 90.4716 266.09C90.2916 265.343 90.0449 264.743 89.7316 264.29C89.4249 263.837 89.0683 263.513 88.6616 263.32C88.2549 263.12 87.8316 263.02 87.3916 263.02C86.9516 263.02 86.5283 263.12 86.1216 263.32C85.7149 263.513 85.3583 263.837 85.0516 264.29C84.7449 264.743 84.4983 265.343 84.3116 266.09C84.1316 266.83 84.0416 267.747 84.0416 268.84C84.0416 269.933 84.1316 270.85 84.3116 271.59C84.4983 272.33 84.7449 272.927 85.0516 273.38C85.3583 273.833 85.7149 274.16 86.1216 274.36C86.5283 274.553 86.9516 274.65 87.3916 274.65C87.8316 274.65 88.2549 274.553 88.6616 274.36C89.0683 274.16 89.4249 273.833 89.7316 273.38C90.0449 272.927 90.2916 272.33 90.4716 271.59C90.6583 270.85 90.7516 269.933 90.7516 268.84Z" fill="#6F6F72"/>
<path d="M104.203 268.84C104.203 270.093 104.066 271.18 103.793 272.1C103.527 273.013 103.16 273.77 102.693 274.37C102.226 274.97 101.673 275.417 101.033 275.71C100.4 276.003 99.7198 276.15 98.9932 276.15C98.2598 276.15 97.5765 276.003 96.9432 275.71C96.3165 275.417 95.7698 274.97 95.3032 274.37C94.8365 273.77 94.4698 273.013 94.2032 272.1C93.9365 271.18 93.8032 270.093 93.8032 268.84C93.8032 267.587 93.9365 266.5 94.2032 265.58C94.4698 264.66 94.8365 263.9 95.3032 263.3C95.7698 262.693 96.3165 262.243 96.9432 261.95C97.5765 261.657 98.2598 261.51 98.9932 261.51C99.7198 261.51 100.4 261.657 101.033 261.95C101.673 262.243 102.226 262.693 102.693 263.3C103.16 263.9 103.527 264.66 103.793 265.58C104.066 266.5 104.203 267.587 104.203 268.84ZM102.353 268.84C102.353 267.747 102.26 266.83 102.073 266.09C101.893 265.343 101.646 264.743 101.333 264.29C101.026 263.837 100.67 263.513 100.263 263.32C99.8565 263.12 99.4332 263.02 98.9932 263.02C98.5532 263.02 98.1298 263.12 97.7232 263.32C97.3165 263.513 96.9598 263.837 96.6532 264.29C96.3465 264.743 96.0998 265.343 95.9132 266.09C95.7332 266.83 95.6432 267.747 95.6432 268.84C95.6432 269.933 95.7332 270.85 95.9132 271.59C96.0998 272.33 96.3465 272.927 96.6532 273.38C96.9598 273.833 97.3165 274.16 97.7232 274.36C98.1298 274.553 98.5532 274.65 98.9932 274.65C99.4332 274.65 99.8565 274.553 100.263 274.36C100.67 274.16 101.026 273.833 101.333 273.38C101.646 272.927 101.893 272.33 102.073 271.59C102.26 270.85 102.353 269.933 102.353 268.84Z" fill="#6F6F72"/>
<path d="M15.097 187.252L17 187.263V197.053H1.20404V187.263H3.10704V194.699H8.11204V188.715H9.94904V194.699H15.097V187.252Z" fill="#6F6F72"/>
<path d="M17 184.477H7.58404L7.44104 185.643C7.40437 185.812 7.34571 185.951 7.26504 186.061C7.17704 186.164 7.05237 186.215 6.89104 186.215H6.00004V184.477H5.16404C4.52604 184.477 3.9577 184.386 3.45904 184.202C2.96037 184.019 2.53871 183.759 2.19404 183.421C1.84204 183.077 1.57804 182.662 1.40204 182.178C1.2187 181.694 1.12704 181.152 1.12704 180.55C1.12704 180.059 1.20037 179.593 1.34704 179.153L2.43604 179.208C2.52404 179.216 2.59371 179.245 2.64504 179.296C2.68904 179.348 2.72204 179.417 2.74404 179.505C2.76604 179.586 2.7807 179.689 2.78804 179.813C2.78804 179.931 2.78804 180.059 2.78804 180.198C2.78804 180.528 2.82837 180.829 2.90904 181.1C2.9897 181.372 3.12537 181.603 3.31604 181.793C3.50671 181.984 3.7597 182.131 4.07504 182.233C4.38304 182.336 4.76804 182.387 5.23004 182.387H6.00004V177.492H5.46104C4.77904 177.492 4.15204 177.386 3.58004 177.173C3.00071 176.953 2.50204 176.627 2.08404 176.194C1.66604 175.762 1.34337 175.219 1.11604 174.566C0.881371 173.914 0.764038 173.151 0.764038 172.278C0.764038 172 0.782371 171.71 0.819038 171.409C0.855705 171.101 0.910705 170.841 0.984038 170.628L2.10604 170.705C2.2527 170.72 2.3297 170.812 2.33704 170.98C2.34437 171.149 2.34804 171.38 2.34804 171.673C2.34804 172.341 2.41404 172.913 2.54604 173.389C2.67804 173.859 2.87604 174.244 3.14004 174.544C3.40404 174.845 3.7377 175.065 4.14104 175.204C4.53704 175.344 4.99904 175.413 5.52704 175.413H6.00004V168.615H17V170.76H7.56204V175.347H17V177.492H7.56204V182.321H17V184.477Z" fill="#6F6F72"/>
<path d="M6.72604 157.715C6.88004 157.715 7.03037 157.744 7.17704 157.803C7.32371 157.854 7.44837 157.924 7.55104 158.012L15.317 163.875V157.913H17V166.394H16.098C15.9954 166.394 15.8744 166.368 15.735 166.317C15.5884 166.265 15.4527 166.192 15.328 166.097L7.50704 160.201V166.053H5.82404V157.715H6.72604Z" fill="#6F6F72"/>
<path d="M5.82404 153.269H17V155.414H5.82404V153.269ZM2.37004 152.862C2.56804 152.862 2.7587 152.902 2.94204 152.983C3.11804 153.063 3.2757 153.173 3.41504 153.313C3.54704 153.445 3.65337 153.602 3.73404 153.786C3.80737 153.969 3.84404 154.16 3.84404 154.358C3.84404 154.556 3.80737 154.743 3.73404 154.919C3.65337 155.095 3.54704 155.252 3.41504 155.392C3.2757 155.524 3.11804 155.63 2.94204 155.711C2.7587 155.784 2.56804 155.821 2.37004 155.821C2.16471 155.821 1.97404 155.784 1.79804 155.711C1.6147 155.63 1.45704 155.524 1.32504 155.392C1.1857 155.252 1.07937 155.095 1.00604 154.919C0.925372 154.743 0.885038 154.556 0.885038 154.358C0.885038 154.16 0.925372 153.969 1.00604 153.786C1.07937 153.602 1.1857 153.445 1.32504 153.313C1.45704 153.173 1.6147 153.063 1.79804 152.983C1.97404 152.902 2.16471 152.862 2.37004 152.862Z" fill="#6F6F72"/>
<path d="M10.169 142.76C9.74371 142.76 9.35137 142.822 8.99204 142.947C8.63271 143.064 8.32104 143.24 8.05704 143.475C7.79304 143.71 7.58771 143.996 7.44104 144.333C7.29437 144.67 7.22104 145.059 7.22104 145.499C7.22104 146.401 7.48137 147.112 8.00204 147.633C8.52271 148.146 9.24504 148.473 10.169 148.612V142.76ZM15.405 140.989C15.713 141.253 15.9807 141.557 16.208 141.902C16.428 142.247 16.6077 142.613 16.747 143.002C16.8864 143.391 16.989 143.794 17.055 144.212C17.121 144.623 17.154 145.03 17.154 145.433C17.154 146.203 17.0257 146.918 16.769 147.578C16.505 148.231 16.1237 148.799 15.625 149.283C15.119 149.76 14.4957 150.134 13.755 150.405C13.007 150.669 12.149 150.801 11.181 150.801C10.4037 150.801 9.68137 150.68 9.01404 150.438C8.33937 150.196 7.75271 149.851 7.25404 149.404C6.75537 148.949 6.36304 148.396 6.07704 147.743C5.79104 147.09 5.64804 146.357 5.64804 145.543C5.64804 144.861 5.7617 144.234 5.98904 143.662C6.20904 143.083 6.5317 142.584 6.95704 142.166C7.38237 141.748 7.90671 141.422 8.53004 141.187C9.15337 140.945 9.86471 140.824 10.664 140.824C10.994 140.824 11.2177 140.861 11.335 140.934C11.445 141.007 11.5 141.143 11.5 141.341V148.667C12.1674 148.645 12.7504 148.55 13.249 148.381C13.7404 148.212 14.151 147.981 14.481 147.688C14.811 147.387 15.0567 147.032 15.218 146.621C15.3794 146.21 15.46 145.752 15.46 145.246C15.46 144.769 15.405 144.359 15.295 144.014C15.185 143.662 15.0677 143.361 14.943 143.112C14.811 142.855 14.69 142.643 14.58 142.474C14.47 142.298 14.415 142.144 14.415 142.012C14.415 141.836 14.481 141.7 14.613 141.605L15.405 140.989Z" fill="#6F6F72"/>
<path d="M7.37504 136.505C7.11837 136.263 6.88371 136.01 6.67104 135.746C6.45837 135.482 6.27871 135.204 6.13204 134.91C5.97804 134.61 5.8607 134.291 5.78004 133.953C5.69204 133.609 5.64804 133.242 5.64804 132.853C5.64804 132.237 5.7507 131.698 5.95604 131.236C6.16137 130.767 6.45104 130.375 6.82504 130.059C7.1917 129.744 7.63537 129.506 8.15604 129.344C8.67671 129.183 9.25237 129.102 9.88304 129.102H17V131.258H9.88304C9.0837 131.258 8.46404 131.442 8.02404 131.808C7.5767 132.175 7.35304 132.736 7.35304 133.491C7.35304 134.041 7.48504 134.558 7.74904 135.042C8.0057 135.519 8.35771 135.963 8.80504 136.373H17V138.518H5.82404V137.231C5.82404 136.931 5.96704 136.744 6.25304 136.67L7.37504 136.505Z" fill="#6F6F72"/>
<path d="M6.72604 118.42C6.88004 118.42 7.03037 118.449 7.17704 118.508C7.32371 118.559 7.44837 118.629 7.55104 118.717L15.317 124.58V118.618H17V127.099H16.098C15.9954 127.099 15.8744 127.073 15.735 127.022C15.5884 126.971 15.4527 126.897 15.328 126.802L7.50704 120.906V126.758H5.82404V118.42H6.72604Z" fill="#6F6F72"/>
<path d="M17.176 109.377C17.4547 109.48 17.66 109.641 17.792 109.861C17.9314 110.081 18.001 110.308 18.001 110.543V111.445L1.54504 104.889C1.29571 104.786 1.10504 104.64 0.973039 104.449C0.833705 104.251 0.764038 104.024 0.764038 103.767V102.854L17.176 109.377Z" fill="#6F6F72"/>
<path d="M5.02104 88.576C5.63704 88.576 6.18704 88.675 6.67104 88.873C7.15504 89.0637 7.56571 89.3203 7.90304 89.643C8.23304 89.9657 8.48971 90.3433 8.67304 90.776C8.84904 91.2013 8.93704 91.6487 8.93704 92.118C8.93704 92.624 8.84904 93.0933 8.67304 93.526C8.48971 93.9513 8.23304 94.3217 7.90304 94.637C7.56571 94.9523 7.15504 95.2017 6.67104 95.385C6.18704 95.561 5.63704 95.649 5.02104 95.649C4.39037 95.649 3.82937 95.561 3.33804 95.385C2.8467 95.2017 2.43237 94.9523 2.09504 94.637C1.75037 94.3217 1.49004 93.9513 1.31404 93.526C1.1307 93.0933 1.03904 92.624 1.03904 92.118C1.03904 91.612 1.1307 91.1463 1.31404 90.721C1.49004 90.2883 1.75037 89.9143 2.09504 89.599C2.43237 89.2763 2.8467 89.027 3.33804 88.851C3.82937 88.6676 4.39037 88.576 5.02104 88.576ZM5.02104 90.248C4.55171 90.248 4.15571 90.2993 3.83304 90.402C3.50304 90.4973 3.23904 90.6293 3.04104 90.798C2.83571 90.9666 2.68904 91.1646 2.60104 91.392C2.50571 91.6193 2.45804 91.8613 2.45804 92.118C2.45804 92.3746 2.50571 92.6167 2.60104 92.844C2.68904 93.0713 2.83571 93.2693 3.04104 93.438C3.23904 93.5993 3.50304 93.7276 3.83304 93.823C4.15571 93.9183 4.55171 93.966 5.02104 93.966C5.4757 93.966 5.86437 93.9183 6.18704 93.823C6.50237 93.7276 6.75904 93.5993 6.95704 93.438C7.15504 93.2693 7.29804 93.0713 7.38604 92.844C7.47404 92.6167 7.51804 92.3746 7.51804 92.118C7.51804 91.8613 7.47404 91.6193 7.38604 91.392C7.29804 91.1646 7.15504 90.9666 6.95704 90.798C6.75904 90.6293 6.50237 90.4973 6.18704 90.402C5.86437 90.2993 5.4757 90.248 5.02104 90.248ZM1.55604 83.076C1.4607 82.9953 1.38004 82.9037 1.31404 82.801C1.2407 82.691 1.20404 82.5406 1.20404 82.35V80.799L16.659 92.393C16.7617 92.4736 16.846 92.569 16.912 92.679C16.9707 92.789 17 92.921 17 93.075V94.67L1.55604 83.076ZM13.271 79.787C13.887 79.787 14.437 79.886 14.921 80.084C15.405 80.2747 15.8157 80.5313 16.153 80.854C16.483 81.1767 16.7397 81.5543 16.923 81.987C17.099 82.4123 17.187 82.8597 17.187 83.329C17.187 83.835 17.099 84.3043 16.923 84.737C16.7397 85.1623 16.483 85.5327 16.153 85.848C15.8157 86.1633 15.405 86.4127 14.921 86.596C14.437 86.772 13.887 86.86 13.271 86.86C12.6404 86.86 12.0794 86.772 11.588 86.596C11.0967 86.4127 10.6824 86.1633 10.345 85.848C10.0004 85.5327 9.74004 85.1623 9.56404 84.737C9.38804 84.3043 9.30004 83.835 9.30004 83.329C9.30004 82.823 9.38804 82.3573 9.56404 81.932C9.74004 81.4993 10.0004 81.1253 10.345 80.81C10.6824 80.4873 11.0967 80.238 11.588 80.062C12.0794 79.8786 12.6404 79.787 13.271 79.787ZM13.271 81.459C12.8017 81.459 12.4057 81.5103 12.083 81.613C11.7604 81.7083 11.5 81.8403 11.302 82.009C11.0967 82.1777 10.95 82.3756 10.862 82.603C10.7667 82.8303 10.719 83.0723 10.719 83.329C10.719 83.593 10.7667 83.8387 10.862 84.066C10.95 84.286 11.0967 84.4803 11.302 84.649C11.5 84.8103 11.7604 84.9386 12.083 85.034C12.4057 85.1293 12.8017 85.177 13.271 85.177C13.733 85.177 14.1217 85.1293 14.437 85.034C14.7524 84.9386 15.009 84.8103 15.207 84.649C15.405 84.4803 15.548 84.286 15.636 84.066C15.724 83.8387 15.768 83.593 15.768 83.329C15.768 83.0723 15.724 82.8303 15.636 82.603C15.548 82.3756 15.405 82.1777 15.207 82.009C15.009 81.8403 14.7524 81.7083 14.437 81.613C14.1217 81.5103 13.733 81.459 13.271 81.459Z" fill="#6F6F72"/>
<path d="M106.716 304.162H101.7V318H99.368V304.162H94.33V302.204H106.716V304.162Z" fill="#6F6F72"/>
<path d="M113.287 311.169C113.287 310.744 113.225 310.351 113.1 309.992C112.983 309.633 112.807 309.321 112.572 309.057C112.337 308.793 112.051 308.588 111.714 308.441C111.377 308.294 110.988 308.221 110.548 308.221C109.646 308.221 108.935 308.481 108.414 309.002C107.901 309.523 107.574 310.245 107.435 311.169H113.287ZM115.058 316.405C114.794 316.713 114.49 316.981 114.145 317.208C113.8 317.428 113.434 317.608 113.045 317.747C112.656 317.886 112.253 317.989 111.835 318.055C111.424 318.121 111.017 318.154 110.614 318.154C109.844 318.154 109.129 318.026 108.469 317.769C107.816 317.505 107.248 317.124 106.764 316.625C106.287 316.119 105.913 315.496 105.642 314.755C105.378 314.007 105.246 313.149 105.246 312.181C105.246 311.404 105.367 310.681 105.609 310.014C105.851 309.339 106.196 308.753 106.643 308.254C107.098 307.755 107.651 307.363 108.304 307.077C108.957 306.791 109.69 306.648 110.504 306.648C111.186 306.648 111.813 306.762 112.385 306.989C112.964 307.209 113.463 307.532 113.881 307.957C114.299 308.382 114.625 308.907 114.86 309.53C115.102 310.153 115.223 310.865 115.223 311.664C115.223 311.994 115.186 312.218 115.113 312.335C115.04 312.445 114.904 312.5 114.706 312.5H107.38C107.402 313.167 107.497 313.75 107.666 314.249C107.835 314.74 108.066 315.151 108.359 315.481C108.66 315.811 109.015 316.057 109.426 316.218C109.837 316.379 110.295 316.46 110.801 316.46C111.278 316.46 111.688 316.405 112.033 316.295C112.385 316.185 112.686 316.068 112.935 315.943C113.192 315.811 113.404 315.69 113.573 315.58C113.749 315.47 113.903 315.415 114.035 315.415C114.211 315.415 114.347 315.481 114.442 315.613L115.058 316.405Z" fill="#6F6F72"/>
<path d="M117.529 318V306.824H118.816C119.116 306.824 119.303 306.967 119.377 307.253L119.531 308.32C119.941 307.829 120.396 307.429 120.895 307.121C121.401 306.806 121.991 306.648 122.666 306.648C123.406 306.648 124.008 306.853 124.47 307.264C124.932 307.667 125.269 308.217 125.482 308.914C125.643 308.518 125.852 308.177 126.109 307.891C126.365 307.605 126.651 307.37 126.967 307.187C127.282 307.004 127.616 306.868 127.968 306.78C128.327 306.692 128.69 306.648 129.057 306.648C129.651 306.648 130.179 306.743 130.641 306.934C131.11 307.117 131.506 307.389 131.829 307.748C132.151 308.107 132.397 308.551 132.566 309.079C132.734 309.607 132.819 310.208 132.819 310.883V318H130.663V310.883C130.663 310.047 130.479 309.416 130.113 308.991C129.753 308.566 129.225 308.353 128.529 308.353C128.221 308.353 127.927 308.408 127.649 308.518C127.37 308.621 127.124 308.778 126.912 308.991C126.706 309.204 126.541 309.468 126.417 309.783C126.299 310.098 126.241 310.465 126.241 310.883V318H124.085V310.883C124.085 310.018 123.912 309.38 123.568 308.969C123.223 308.558 122.717 308.353 122.05 308.353C121.588 308.353 121.159 308.474 120.763 308.716C120.367 308.958 120.004 309.288 119.674 309.706V318H117.529Z" fill="#6F6F72"/>
<path d="M137.849 315.25C138.201 315.712 138.579 316.035 138.982 316.218C139.393 316.401 139.851 316.493 140.357 316.493C141.34 316.493 142.099 316.141 142.634 315.437C143.177 314.726 143.448 313.692 143.448 312.335C143.448 311.624 143.386 311.019 143.261 310.52C143.144 310.014 142.968 309.603 142.733 309.288C142.506 308.965 142.224 308.731 141.886 308.584C141.549 308.43 141.168 308.353 140.742 308.353C140.119 308.353 139.576 308.492 139.114 308.771C138.66 309.05 138.238 309.446 137.849 309.959V315.25ZM137.739 308.496C137.974 308.217 138.223 307.964 138.487 307.737C138.759 307.502 139.048 307.304 139.356 307.143C139.664 306.974 139.991 306.846 140.335 306.758C140.687 306.663 141.061 306.615 141.457 306.615C142.095 306.615 142.671 306.74 143.184 306.989C143.705 307.238 144.149 307.605 144.515 308.089C144.882 308.573 145.164 309.171 145.362 309.882C145.568 310.593 145.67 311.411 145.67 312.335C145.67 313.164 145.557 313.934 145.329 314.645C145.109 315.349 144.79 315.961 144.372 316.482C143.962 317.003 143.456 317.413 142.854 317.714C142.26 318.007 141.589 318.154 140.841 318.154C140.174 318.154 139.602 318.044 139.125 317.824C138.649 317.604 138.223 317.296 137.849 316.9V321.751H135.704V306.824H136.991C137.292 306.824 137.479 306.967 137.552 307.253L137.739 308.496Z" fill="#6F6F72"/>
<path d="M155.482 311.169C155.482 310.744 155.42 310.351 155.295 309.992C155.178 309.633 155.002 309.321 154.767 309.057C154.533 308.793 154.247 308.588 153.909 308.441C153.572 308.294 153.183 308.221 152.743 308.221C151.841 308.221 151.13 308.481 150.609 309.002C150.096 309.523 149.77 310.245 149.63 311.169H155.482ZM157.253 316.405C156.989 316.713 156.685 316.981 156.34 317.208C155.996 317.428 155.629 317.608 155.24 317.747C154.852 317.886 154.448 317.989 154.03 318.055C153.62 318.121 153.213 318.154 152.809 318.154C152.039 318.154 151.324 318.026 150.664 317.769C150.012 317.505 149.443 317.124 148.959 316.625C148.483 316.119 148.109 315.496 147.837 314.755C147.573 314.007 147.441 313.149 147.441 312.181C147.441 311.404 147.562 310.681 147.804 310.014C148.046 309.339 148.391 308.753 148.838 308.254C149.293 307.755 149.847 307.363 150.499 307.077C151.152 306.791 151.885 306.648 152.699 306.648C153.381 306.648 154.008 306.762 154.58 306.989C155.16 307.209 155.658 307.532 156.076 307.957C156.494 308.382 156.821 308.907 157.055 309.53C157.297 310.153 157.418 310.865 157.418 311.664C157.418 311.994 157.382 312.218 157.308 312.335C157.235 312.445 157.099 312.5 156.901 312.5H149.575C149.597 313.167 149.693 313.75 149.861 314.249C150.03 314.74 150.261 315.151 150.554 315.481C150.855 315.811 151.211 316.057 151.621 316.218C152.032 316.379 152.49 316.46 152.996 316.46C153.473 316.46 153.884 316.405 154.228 316.295C154.58 316.185 154.881 316.068 155.13 315.943C155.387 315.811 155.6 315.69 155.768 315.58C155.944 315.47 156.098 315.415 156.23 315.415C156.406 315.415 156.542 315.481 156.637 315.613L157.253 316.405Z" fill="#6F6F72"/>
<path d="M161.748 308.969C162.107 308.236 162.54 307.66 163.046 307.242C163.552 306.824 164.161 306.615 164.872 306.615C165.114 306.615 165.341 306.644 165.554 306.703C165.774 306.754 165.965 306.835 166.126 306.945L165.983 308.562C165.932 308.76 165.811 308.859 165.62 308.859C165.517 308.859 165.363 308.841 165.158 308.804C164.952 308.76 164.732 308.738 164.498 308.738C164.153 308.738 163.849 308.789 163.585 308.892C163.321 308.987 163.083 309.134 162.87 309.332C162.665 309.523 162.481 309.761 162.32 310.047C162.159 310.326 162.008 310.645 161.869 311.004V318H159.724V306.824H160.956C161.191 306.824 161.348 306.868 161.429 306.956C161.517 307.037 161.579 307.183 161.616 307.396L161.748 308.969Z" fill="#6F6F72"/>
<path d="M173.615 313.039C172.742 313.068 172.001 313.138 171.393 313.248C170.784 313.351 170.289 313.49 169.908 313.666C169.526 313.842 169.251 314.051 169.083 314.293C168.914 314.528 168.83 314.792 168.83 315.085C168.83 315.364 168.874 315.606 168.962 315.811C169.057 316.009 169.182 316.174 169.336 316.306C169.497 316.431 169.684 316.522 169.897 316.581C170.109 316.64 170.34 316.669 170.59 316.669C170.92 316.669 171.22 316.636 171.492 316.57C171.77 316.504 172.031 316.412 172.273 316.295C172.515 316.17 172.746 316.02 172.966 315.844C173.186 315.668 173.402 315.466 173.615 315.239V313.039ZM167.323 308.386C167.946 307.792 168.621 307.348 169.347 307.055C170.08 306.762 170.883 306.615 171.756 306.615C172.394 306.615 172.958 306.721 173.45 306.934C173.941 307.139 174.355 307.429 174.693 307.803C175.03 308.177 175.283 308.624 175.452 309.145C175.628 309.666 175.716 310.241 175.716 310.872V318H174.759C174.546 318 174.385 317.967 174.275 317.901C174.165 317.828 174.077 317.696 174.011 317.505L173.78 316.526C173.494 316.79 173.211 317.025 172.933 317.23C172.654 317.428 172.361 317.6 172.053 317.747C171.752 317.886 171.429 317.993 171.085 318.066C170.74 318.139 170.359 318.176 169.941 318.176C169.501 318.176 169.086 318.117 168.698 318C168.316 317.875 167.983 317.688 167.697 317.439C167.411 317.19 167.183 316.878 167.015 316.504C166.853 316.13 166.773 315.694 166.773 315.195C166.773 314.755 166.89 314.333 167.125 313.93C167.367 313.519 167.755 313.153 168.291 312.83C168.833 312.507 169.537 312.243 170.403 312.038C171.275 311.833 172.346 311.715 173.615 311.686V310.872C173.615 310.029 173.435 309.398 173.076 308.98C172.716 308.562 172.188 308.353 171.492 308.353C171.022 308.353 170.626 308.412 170.304 308.529C169.988 308.646 169.713 308.778 169.479 308.925C169.251 309.064 169.05 309.193 168.874 309.31C168.705 309.427 168.529 309.486 168.346 309.486C168.199 309.486 168.071 309.446 167.961 309.365C167.858 309.284 167.774 309.189 167.708 309.079L167.323 308.386Z" fill="#6F6F72"/>
<path d="M181.935 318.176C181.033 318.176 180.336 317.923 179.845 317.417C179.361 316.911 179.119 316.189 179.119 315.25V308.562H177.821C177.696 308.562 177.59 308.525 177.502 308.452C177.421 308.371 177.381 308.254 177.381 308.1V307.231L179.196 306.978L179.68 303.645C179.709 303.52 179.764 303.425 179.845 303.359C179.933 303.286 180.043 303.249 180.175 303.249H181.264V307H184.432V308.562H181.264V315.107C181.264 315.547 181.37 315.877 181.583 316.097C181.803 316.31 182.081 316.416 182.419 316.416C182.617 316.416 182.785 316.39 182.925 316.339C183.071 316.288 183.196 316.233 183.299 316.174C183.401 316.108 183.489 316.049 183.563 315.998C183.636 315.947 183.702 315.921 183.761 315.921C183.834 315.921 183.889 315.939 183.926 315.976C183.97 316.005 184.014 316.057 184.058 316.13L184.696 317.164C184.344 317.487 183.926 317.736 183.442 317.912C182.958 318.088 182.455 318.176 181.935 318.176Z" fill="#6F6F72"/>
<path d="M195.702 306.824V318H194.415C194.122 318 193.931 317.857 193.843 317.571L193.689 316.449C193.447 316.706 193.194 316.94 192.93 317.153C192.666 317.366 192.384 317.549 192.083 317.703C191.783 317.85 191.464 317.963 191.126 318.044C190.789 318.132 190.426 318.176 190.037 318.176C189.421 318.176 188.879 318.073 188.409 317.868C187.947 317.663 187.559 317.377 187.243 317.01C186.928 316.636 186.69 316.189 186.528 315.668C186.367 315.147 186.286 314.572 186.286 313.941V306.824H188.442V313.941C188.442 314.74 188.626 315.364 188.992 315.811C189.359 316.251 189.92 316.471 190.675 316.471C191.225 316.471 191.739 316.343 192.215 316.086C192.692 315.822 193.139 315.463 193.557 315.008V306.824H195.702Z" fill="#6F6F72"/>
<path d="M200.72 308.969C201.08 308.236 201.512 307.66 202.018 307.242C202.524 306.824 203.133 306.615 203.844 306.615C204.087 306.615 204.314 306.644 204.526 306.703C204.746 306.754 204.937 306.835 205.098 306.945L204.955 308.562C204.904 308.76 204.783 308.859 204.592 308.859C204.49 308.859 204.336 308.841 204.13 308.804C203.925 308.76 203.705 308.738 203.47 308.738C203.126 308.738 202.822 308.789 202.557 308.892C202.293 308.987 202.055 309.134 201.842 309.332C201.637 309.523 201.454 309.761 201.292 310.047C201.131 310.326 200.981 310.645 200.841 311.004V318H198.696V306.824H199.928C200.163 306.824 200.321 306.868 200.401 306.956C200.489 307.037 200.552 307.183 200.588 307.396L200.72 308.969Z" fill="#6F6F72"/>
<path d="M219.05 309.53C218.698 309.068 218.317 308.745 217.906 308.562C217.503 308.379 217.048 308.287 216.542 308.287C215.559 308.287 214.797 308.643 214.254 309.354C213.719 310.058 213.451 311.088 213.451 312.445C213.451 313.156 213.51 313.765 213.627 314.271C213.752 314.77 213.928 315.18 214.155 315.503C214.39 315.818 214.676 316.053 215.013 316.207C215.35 316.354 215.732 316.427 216.157 316.427C216.78 316.427 217.319 316.288 217.774 316.009C218.229 315.73 218.654 315.338 219.05 314.832V309.53ZM221.206 301.764V318H219.908C219.607 318 219.42 317.857 219.347 317.571L219.16 316.284C218.683 316.849 218.141 317.303 217.532 317.648C216.931 317.985 216.234 318.154 215.442 318.154C214.804 318.154 214.225 318.029 213.704 317.78C213.191 317.531 212.751 317.168 212.384 316.691C212.017 316.207 211.735 315.609 211.537 314.898C211.339 314.187 211.24 313.369 211.24 312.445C211.24 311.616 211.35 310.846 211.57 310.135C211.79 309.424 212.109 308.808 212.527 308.287C212.945 307.766 213.451 307.359 214.045 307.066C214.639 306.765 215.31 306.615 216.058 306.615C216.733 306.615 217.305 306.725 217.774 306.945C218.251 307.165 218.676 307.477 219.05 307.88V301.764H221.206Z" fill="#6F6F72"/>
<path d="M231.601 311.169C231.601 310.744 231.539 310.351 231.414 309.992C231.297 309.633 231.121 309.321 230.886 309.057C230.652 308.793 230.366 308.588 230.028 308.441C229.691 308.294 229.302 308.221 228.862 308.221C227.96 308.221 227.249 308.481 226.728 309.002C226.215 309.523 225.889 310.245 225.749 311.169H231.601ZM233.372 316.405C233.108 316.713 232.804 316.981 232.459 317.208C232.115 317.428 231.748 317.608 231.359 317.747C230.971 317.886 230.567 317.989 230.149 318.055C229.739 318.121 229.332 318.154 228.928 318.154C228.158 318.154 227.443 318.026 226.783 317.769C226.131 317.505 225.562 317.124 225.078 316.625C224.602 316.119 224.228 315.496 223.956 314.755C223.692 314.007 223.56 313.149 223.56 312.181C223.56 311.404 223.681 310.681 223.923 310.014C224.165 309.339 224.51 308.753 224.957 308.254C225.412 307.755 225.966 307.363 226.618 307.077C227.271 306.791 228.004 306.648 228.818 306.648C229.5 306.648 230.127 306.762 230.699 306.989C231.279 307.209 231.777 307.532 232.195 307.957C232.613 308.382 232.94 308.907 233.174 309.53C233.416 310.153 233.537 310.865 233.537 311.664C233.537 311.994 233.501 312.218 233.427 312.335C233.354 312.445 233.218 312.5 233.02 312.5H225.694C225.716 313.167 225.812 313.75 225.98 314.249C226.149 314.74 226.38 315.151 226.673 315.481C226.974 315.811 227.33 316.057 227.74 316.218C228.151 316.379 228.609 316.46 229.115 316.46C229.592 316.46 230.003 316.405 230.347 316.295C230.699 316.185 231 316.068 231.249 315.943C231.506 315.811 231.719 315.69 231.887 315.58C232.063 315.47 232.217 315.415 232.349 315.415C232.525 315.415 232.661 315.481 232.756 315.613L233.372 316.405Z" fill="#6F6F72"/>
<path d="M237.867 308.969C238.226 308.236 238.659 307.66 239.165 307.242C239.671 306.824 240.28 306.615 240.991 306.615C241.233 306.615 241.46 306.644 241.673 306.703C241.893 306.754 242.084 306.835 242.245 306.945L242.102 308.562C242.051 308.76 241.93 308.859 241.739 308.859C241.636 308.859 241.482 308.841 241.277 308.804C241.072 308.76 240.852 308.738 240.617 308.738C240.272 308.738 239.968 308.789 239.704 308.892C239.44 308.987 239.202 309.134 238.989 309.332C238.784 309.523 238.6 309.761 238.439 310.047C238.278 310.326 238.127 310.645 237.988 311.004V318H235.843V306.824H237.075C237.31 306.824 237.467 306.868 237.548 306.956C237.636 307.037 237.698 307.183 237.735 307.396L237.867 308.969Z" fill="#6F6F72"/>
<path d="M269.799 302.204L264.871 318H262.759L258.909 306.285C258.821 306.05 258.744 305.768 258.678 305.438C258.597 305.775 258.52 306.058 258.447 306.285L254.553 318H252.452L247.524 302.204H249.482C249.687 302.204 249.859 302.255 249.999 302.358C250.138 302.453 250.23 302.585 250.274 302.754L253.387 313.325C253.445 313.53 253.497 313.754 253.541 313.996C253.592 314.238 253.643 314.491 253.695 314.755C253.746 314.491 253.797 314.238 253.849 313.996C253.907 313.754 253.973 313.53 254.047 313.325L257.611 302.754C257.655 302.607 257.746 302.479 257.886 302.369C258.032 302.259 258.205 302.204 258.403 302.204H259.074C259.279 302.204 259.448 302.255 259.58 302.358C259.712 302.461 259.807 302.593 259.866 302.754L263.419 313.325C263.551 313.728 263.668 314.187 263.771 314.7C263.859 314.194 263.954 313.736 264.057 313.325L267.181 302.754C267.217 302.607 267.309 302.479 267.456 302.369C267.602 302.259 267.775 302.204 267.973 302.204H269.799Z" fill="#6F6F72"/>
<path d="M276.331 313.039C275.459 313.068 274.718 313.138 274.109 313.248C273.501 313.351 273.006 313.49 272.624 313.666C272.243 313.842 271.968 314.051 271.799 314.293C271.631 314.528 271.546 314.792 271.546 315.085C271.546 315.364 271.59 315.606 271.678 315.811C271.774 316.009 271.898 316.174 272.052 316.306C272.214 316.431 272.401 316.522 272.613 316.581C272.826 316.64 273.057 316.669 273.306 316.669C273.636 316.669 273.937 316.636 274.208 316.57C274.487 316.504 274.747 316.412 274.989 316.295C275.231 316.17 275.462 316.02 275.682 315.844C275.902 315.668 276.119 315.466 276.331 315.239V313.039ZM270.039 308.386C270.663 307.792 271.337 307.348 272.063 307.055C272.797 306.762 273.6 306.615 274.472 306.615C275.11 306.615 275.675 306.721 276.166 306.934C276.658 307.139 277.072 307.429 277.409 307.803C277.747 308.177 278 308.624 278.168 309.145C278.344 309.666 278.432 310.241 278.432 310.872V318H277.475C277.263 318 277.101 317.967 276.991 317.901C276.881 317.828 276.793 317.696 276.727 317.505L276.496 316.526C276.21 316.79 275.928 317.025 275.649 317.23C275.371 317.428 275.077 317.6 274.769 317.747C274.469 317.886 274.146 317.993 273.801 318.066C273.457 318.139 273.075 318.176 272.657 318.176C272.217 318.176 271.803 318.117 271.414 318C271.033 317.875 270.699 317.688 270.413 317.439C270.127 317.19 269.9 316.878 269.731 316.504C269.57 316.13 269.489 315.694 269.489 315.195C269.489 314.755 269.607 314.333 269.841 313.93C270.083 313.519 270.472 313.153 271.007 312.83C271.55 312.507 272.254 312.243 273.119 312.038C273.992 311.833 275.063 311.715 276.331 311.686V310.872C276.331 310.029 276.152 309.398 275.792 308.98C275.433 308.562 274.905 308.353 274.208 308.353C273.739 308.353 273.343 308.412 273.02 308.529C272.705 308.646 272.43 308.778 272.195 308.925C271.968 309.064 271.766 309.193 271.59 309.31C271.422 309.427 271.246 309.486 271.062 309.486C270.916 309.486 270.787 309.446 270.677 309.365C270.575 309.284 270.49 309.189 270.424 309.079L270.039 308.386ZM273.416 303.81C273.416 303.986 273.38 304.155 273.306 304.316C273.233 304.47 273.134 304.606 273.009 304.723C272.892 304.84 272.753 304.932 272.591 304.998C272.43 305.064 272.261 305.097 272.085 305.097C271.909 305.097 271.744 305.064 271.59 304.998C271.436 304.932 271.301 304.84 271.183 304.723C271.066 304.606 270.971 304.47 270.897 304.316C270.831 304.155 270.798 303.986 270.798 303.81C270.798 303.627 270.831 303.454 270.897 303.293C270.971 303.132 271.066 302.992 271.183 302.875C271.301 302.75 271.436 302.655 271.59 302.589C271.744 302.516 271.909 302.479 272.085 302.479C272.261 302.479 272.43 302.516 272.591 302.589C272.753 302.655 272.892 302.75 273.009 302.875C273.134 302.992 273.233 303.132 273.306 303.293C273.38 303.454 273.416 303.627 273.416 303.81ZM277.662 303.81C277.662 303.986 277.626 304.155 277.552 304.316C277.486 304.47 277.395 304.606 277.277 304.723C277.16 304.84 277.021 304.932 276.859 304.998C276.698 305.064 276.529 305.097 276.353 305.097C276.177 305.097 276.009 305.064 275.847 304.998C275.686 304.932 275.547 304.84 275.429 304.723C275.312 304.606 275.217 304.47 275.143 304.316C275.077 304.155 275.044 303.986 275.044 303.81C275.044 303.627 275.077 303.454 275.143 303.293C275.217 303.132 275.312 302.992 275.429 302.875C275.547 302.75 275.686 302.655 275.847 302.589C276.009 302.516 276.177 302.479 276.353 302.479C276.529 302.479 276.698 302.516 276.859 302.589C277.021 302.655 277.16 302.75 277.277 302.875C277.395 302.992 277.486 303.132 277.552 303.293C277.626 303.454 277.662 303.627 277.662 303.81Z" fill="#6F6F72"/>
<path d="M283.328 308.969C283.687 308.236 284.12 307.66 284.626 307.242C285.132 306.824 285.741 306.615 286.452 306.615C286.694 306.615 286.921 306.644 287.134 306.703C287.354 306.754 287.545 306.835 287.706 306.945L287.563 308.562C287.512 308.76 287.391 308.859 287.2 308.859C287.097 308.859 286.943 308.841 286.738 308.804C286.533 308.76 286.313 308.738 286.078 308.738C285.733 308.738 285.429 308.789 285.165 308.892C284.901 308.987 284.663 309.134 284.45 309.332C284.245 309.523 284.061 309.761 283.9 310.047C283.739 310.326 283.588 310.645 283.449 311.004V318H281.304V306.824H282.536C282.771 306.824 282.928 306.868 283.009 306.956C283.097 307.037 283.159 307.183 283.196 307.396L283.328 308.969Z" fill="#6F6F72"/>
<path d="M289.361 318V306.824H290.648C290.948 306.824 291.135 306.967 291.209 307.253L291.363 308.32C291.773 307.829 292.228 307.429 292.727 307.121C293.233 306.806 293.823 306.648 294.498 306.648C295.238 306.648 295.84 306.853 296.302 307.264C296.764 307.667 297.101 308.217 297.314 308.914C297.475 308.518 297.684 308.177 297.941 307.891C298.197 307.605 298.483 307.37 298.799 307.187C299.114 307.004 299.448 306.868 299.8 306.78C300.159 306.692 300.522 306.648 300.889 306.648C301.483 306.648 302.011 306.743 302.473 306.934C302.942 307.117 303.338 307.389 303.661 307.748C303.983 308.107 304.229 308.551 304.398 309.079C304.566 309.607 304.651 310.208 304.651 310.883V318H302.495V310.883C302.495 310.047 302.311 309.416 301.945 308.991C301.585 308.566 301.057 308.353 300.361 308.353C300.053 308.353 299.759 308.408 299.481 308.518C299.202 308.621 298.956 308.778 298.744 308.991C298.538 309.204 298.373 309.468 298.249 309.783C298.131 310.098 298.073 310.465 298.073 310.883V318H295.917V310.883C295.917 310.018 295.744 309.38 295.4 308.969C295.055 308.558 294.549 308.353 293.882 308.353C293.42 308.353 292.991 308.474 292.595 308.716C292.199 308.958 291.836 309.288 291.506 309.706V318H289.361Z" fill="#6F6F72"/>
<path d="M314.939 311.169C314.939 310.744 314.877 310.351 314.752 309.992C314.635 309.633 314.459 309.321 314.224 309.057C313.99 308.793 313.704 308.588 313.366 308.441C313.029 308.294 312.64 308.221 312.2 308.221C311.298 308.221 310.587 308.481 310.066 309.002C309.553 309.523 309.227 310.245 309.087 311.169H314.939ZM316.71 316.405C316.446 316.713 316.142 316.981 315.797 317.208C315.453 317.428 315.086 317.608 314.697 317.747C314.309 317.886 313.905 317.989 313.487 318.055C313.077 318.121 312.67 318.154 312.266 318.154C311.496 318.154 310.781 318.026 310.121 317.769C309.469 317.505 308.9 317.124 308.416 316.625C307.94 316.119 307.566 315.496 307.294 314.755C307.03 314.007 306.898 313.149 306.898 312.181C306.898 311.404 307.019 310.681 307.261 310.014C307.503 309.339 307.848 308.753 308.295 308.254C308.75 307.755 309.304 307.363 309.956 307.077C310.609 306.791 311.342 306.648 312.156 306.648C312.838 306.648 313.465 306.762 314.037 306.989C314.617 307.209 315.115 307.532 315.533 307.957C315.951 308.382 316.278 308.907 316.512 309.53C316.754 310.153 316.875 310.865 316.875 311.664C316.875 311.994 316.839 312.218 316.765 312.335C316.692 312.445 316.556 312.5 316.358 312.5H309.032C309.054 313.167 309.15 313.75 309.318 314.249C309.487 314.74 309.718 315.151 310.011 315.481C310.312 315.811 310.668 316.057 311.078 316.218C311.489 316.379 311.947 316.46 312.453 316.46C312.93 316.46 313.341 316.405 313.685 316.295C314.037 316.185 314.338 316.068 314.587 315.943C314.844 315.811 315.057 315.69 315.225 315.58C315.401 315.47 315.555 315.415 315.687 315.415C315.863 315.415 315.999 315.481 316.094 315.613L316.71 316.405Z" fill="#6F6F72"/>
<path d="M326.386 309.53C326.056 309.083 325.678 308.764 325.253 308.573C324.835 308.382 324.377 308.287 323.878 308.287C322.895 308.287 322.133 308.643 321.59 309.354C321.055 310.058 320.787 311.088 320.787 312.445C320.787 313.156 320.846 313.765 320.963 314.271C321.088 314.77 321.264 315.18 321.491 315.503C321.726 315.818 322.012 316.053 322.349 316.207C322.686 316.354 323.068 316.427 323.493 316.427C324.116 316.427 324.655 316.288 325.11 316.009C325.565 315.73 325.99 315.338 326.386 314.832V309.53ZM328.542 306.824V321.751H326.386V316.405C325.924 316.933 325.4 317.358 324.813 317.681C324.226 317.996 323.548 318.154 322.778 318.154C322.14 318.154 321.561 318.029 321.04 317.78C320.527 317.531 320.087 317.168 319.72 316.691C319.353 316.207 319.071 315.609 318.873 314.898C318.675 314.187 318.576 313.369 318.576 312.445C318.576 311.616 318.686 310.846 318.906 310.135C319.126 309.424 319.445 308.808 319.863 308.287C320.281 307.766 320.787 307.359 321.381 307.066C321.975 306.765 322.646 306.615 323.394 306.615C323.753 306.615 324.083 306.648 324.384 306.714C324.685 306.78 324.963 306.875 325.22 307C325.477 307.125 325.711 307.275 325.924 307.451C326.144 307.627 326.349 307.829 326.54 308.056L326.683 307.253C326.756 306.967 326.943 306.824 327.244 306.824H328.542Z" fill="#6F6F72"/>
<path d="M340.829 306.824V318H339.542C339.249 318 339.058 317.857 338.97 317.571L338.816 316.449C338.574 316.706 338.321 316.94 338.057 317.153C337.793 317.366 337.511 317.549 337.21 317.703C336.91 317.85 336.591 317.963 336.253 318.044C335.916 318.132 335.553 318.176 335.164 318.176C334.548 318.176 334.006 318.073 333.536 317.868C333.074 317.663 332.686 317.377 332.37 317.01C332.055 316.636 331.817 316.189 331.655 315.668C331.494 315.147 331.413 314.572 331.413 313.941V306.824H333.569V313.941C333.569 314.74 333.753 315.364 334.119 315.811C334.486 316.251 335.047 316.471 335.802 316.471C336.352 316.471 336.866 316.343 337.342 316.086C337.819 315.822 338.266 315.463 338.684 315.008V306.824H340.829Z" fill="#6F6F72"/>
<path d="M351.226 311.169C351.226 310.744 351.164 310.351 351.039 309.992C350.922 309.633 350.746 309.321 350.511 309.057C350.277 308.793 349.991 308.588 349.653 308.441C349.316 308.294 348.927 308.221 348.487 308.221C347.585 308.221 346.874 308.481 346.353 309.002C345.84 309.523 345.514 310.245 345.374 311.169H351.226ZM352.997 316.405C352.733 316.713 352.429 316.981 352.084 317.208C351.74 317.428 351.373 317.608 350.984 317.747C350.596 317.886 350.192 317.989 349.774 318.055C349.364 318.121 348.957 318.154 348.553 318.154C347.783 318.154 347.068 318.026 346.408 317.769C345.756 317.505 345.187 317.124 344.703 316.625C344.227 316.119 343.853 315.496 343.581 314.755C343.317 314.007 343.185 313.149 343.185 312.181C343.185 311.404 343.306 310.681 343.548 310.014C343.79 309.339 344.135 308.753 344.582 308.254C345.037 307.755 345.591 307.363 346.243 307.077C346.896 306.791 347.629 306.648 348.443 306.648C349.125 306.648 349.752 306.762 350.324 306.989C350.904 307.209 351.402 307.532 351.82 307.957C352.238 308.382 352.565 308.907 352.799 309.53C353.041 310.153 353.162 310.865 353.162 311.664C353.162 311.994 353.126 312.218 353.052 312.335C352.979 312.445 352.843 312.5 352.645 312.5H345.319C345.341 313.167 345.437 313.75 345.605 314.249C345.774 314.74 346.005 315.151 346.298 315.481C346.599 315.811 346.955 316.057 347.365 316.218C347.776 316.379 348.234 316.46 348.74 316.46C349.217 316.46 349.628 316.405 349.972 316.295C350.324 316.185 350.625 316.068 350.874 315.943C351.131 315.811 351.344 315.69 351.512 315.58C351.688 315.47 351.842 315.415 351.974 315.415C352.15 315.415 352.286 315.481 352.381 315.613L352.997 316.405Z" fill="#6F6F72"/>
<path d="M357.668 301.764V318H355.512V301.764H357.668Z" fill="#6F6F72"/>
<path d="M362.932 301.764V318H360.776V301.764H362.932Z" fill="#6F6F72"/>
<path d="M373.398 311.169C373.398 310.744 373.336 310.351 373.211 309.992C373.094 309.633 372.918 309.321 372.683 309.057C372.449 308.793 372.163 308.588 371.825 308.441C371.488 308.294 371.099 308.221 370.659 308.221C369.757 308.221 369.046 308.481 368.525 309.002C368.012 309.523 367.686 310.245 367.546 311.169H373.398ZM375.169 316.405C374.905 316.713 374.601 316.981 374.256 317.208C373.912 317.428 373.545 317.608 373.156 317.747C372.768 317.886 372.364 317.989 371.946 318.055C371.536 318.121 371.129 318.154 370.725 318.154C369.955 318.154 369.24 318.026 368.58 317.769C367.928 317.505 367.359 317.124 366.875 316.625C366.399 316.119 366.025 315.496 365.753 314.755C365.489 314.007 365.357 313.149 365.357 312.181C365.357 311.404 365.478 310.681 365.72 310.014C365.962 309.339 366.307 308.753 366.754 308.254C367.209 307.755 367.763 307.363 368.415 307.077C369.068 306.791 369.801 306.648 370.615 306.648C371.297 306.648 371.924 306.762 372.496 306.989C373.076 307.209 373.574 307.532 373.992 307.957C374.41 308.382 374.737 308.907 374.971 309.53C375.213 310.153 375.334 310.865 375.334 311.664C375.334 311.994 375.298 312.218 375.224 312.335C375.151 312.445 375.015 312.5 374.817 312.5H367.491C367.513 313.167 367.609 313.75 367.777 314.249C367.946 314.74 368.177 315.151 368.47 315.481C368.771 315.811 369.127 316.057 369.537 316.218C369.948 316.379 370.406 316.46 370.912 316.46C371.389 316.46 371.8 316.405 372.144 316.295C372.496 316.185 372.797 316.068 373.046 315.943C373.303 315.811 373.516 315.69 373.684 315.58C373.86 315.47 374.014 315.415 374.146 315.415C374.322 315.415 374.458 315.481 374.553 315.613L375.169 316.405Z" fill="#6F6F72"/>
<path d="M384.48 318.176C384.378 318.455 384.216 318.66 383.996 318.792C383.776 318.931 383.549 319.001 383.314 319.001H382.412L388.968 302.545C389.071 302.296 389.218 302.105 389.408 301.973C389.606 301.834 389.834 301.764 390.09 301.764H391.003L384.48 318.176Z" fill="#6F6F72"/>
<path d="M398.197 305.603C398.197 305.104 398.289 304.639 398.472 304.206C398.663 303.766 398.92 303.385 399.242 303.062C399.572 302.739 399.957 302.486 400.397 302.303C400.837 302.112 401.314 302.017 401.827 302.017C402.341 302.017 402.817 302.112 403.257 302.303C403.705 302.486 404.093 302.739 404.423 303.062C404.753 303.385 405.01 303.766 405.193 304.206C405.384 304.639 405.479 305.104 405.479 305.603C405.479 306.094 405.384 306.56 405.193 307C405.01 307.433 404.753 307.814 404.423 308.144C404.093 308.467 403.705 308.723 403.257 308.914C402.817 309.105 402.341 309.2 401.827 309.2C401.314 309.2 400.837 309.105 400.397 308.914C399.957 308.723 399.572 308.467 399.242 308.144C398.92 307.814 398.663 307.433 398.472 307C398.289 306.56 398.197 306.094 398.197 305.603ZM399.715 305.614C399.715 305.915 399.767 306.197 399.869 306.461C399.979 306.718 400.13 306.941 400.32 307.132C400.511 307.323 400.735 307.473 400.991 307.583C401.248 307.693 401.527 307.748 401.827 307.748C402.128 307.748 402.407 307.693 402.663 307.583C402.927 307.473 403.155 307.323 403.345 307.132C403.536 306.941 403.683 306.718 403.785 306.461C403.895 306.197 403.95 305.915 403.95 305.614C403.95 305.313 403.895 305.035 403.785 304.778C403.683 304.514 403.536 304.287 403.345 304.096C403.155 303.898 402.927 303.744 402.663 303.634C402.407 303.524 402.128 303.469 401.827 303.469C401.527 303.469 401.248 303.524 400.991 303.634C400.735 303.744 400.511 303.898 400.32 304.096C400.13 304.287 399.979 304.514 399.869 304.778C399.767 305.035 399.715 305.313 399.715 305.614Z" fill="#6F6F72"/>
<path d="M419.384 314.612C419.516 314.612 419.63 314.663 419.725 314.766L420.649 315.778C420.004 316.541 419.216 317.131 418.284 317.549C417.36 317.967 416.246 318.176 414.94 318.176C413.796 318.176 412.759 317.978 411.827 317.582C410.903 317.186 410.111 316.632 409.451 315.921C408.799 315.21 408.293 314.359 407.933 313.369C407.574 312.379 407.394 311.29 407.394 310.102C407.394 308.914 407.581 307.825 407.955 306.835C408.337 305.845 408.868 304.994 409.55 304.283C410.232 303.572 411.046 303.018 411.992 302.622C412.946 302.226 413.998 302.028 415.149 302.028C416.271 302.028 417.269 302.211 418.141 302.578C419.014 302.945 419.773 303.432 420.418 304.041L419.648 305.13C419.597 305.211 419.531 305.277 419.45 305.328C419.377 305.379 419.278 305.405 419.153 305.405C419.014 305.405 418.849 305.335 418.658 305.196C418.475 305.057 418.229 304.903 417.921 304.734C417.621 304.558 417.247 304.4 416.799 304.261C416.352 304.122 415.795 304.052 415.127 304.052C414.343 304.052 413.624 304.191 412.971 304.47C412.319 304.741 411.754 305.137 411.277 305.658C410.808 306.171 410.441 306.806 410.177 307.561C409.921 308.309 409.792 309.156 409.792 310.102C409.792 311.063 409.928 311.917 410.199 312.665C410.471 313.413 410.845 314.047 411.321 314.568C411.798 315.089 412.359 315.485 413.004 315.756C413.65 316.027 414.346 316.163 415.094 316.163C415.549 316.163 415.956 316.137 416.315 316.086C416.682 316.027 417.016 315.943 417.316 315.833C417.624 315.723 417.914 315.584 418.185 315.415C418.457 315.239 418.724 315.03 418.988 314.788C419.047 314.737 419.109 314.696 419.175 314.667C419.241 314.63 419.311 314.612 419.384 314.612Z" fill="#6F6F72"/>
<path fill-rule="evenodd" clip-rule="evenodd" d="M77.4317 193.708H88.5505V195.708H77.4317V193.708Z" fill="#6F6F72"/>
<path fill-rule="evenodd" clip-rule="evenodd" d="M77.4317 150.885H88.5505V152.885H77.4317V150.885Z" fill="#6F6F72"/>
<path fill-rule="evenodd" clip-rule="evenodd" d="M77.4317 108.061H88.5505V110.061H77.4317V108.061Z" fill="#6F6F72"/>
<path fill-rule="evenodd" clip-rule="evenodd" d="M77.4317 65.238H88.5505V67.238H77.4317V65.238Z" fill="#6F6F72"/>
<path fill-rule="evenodd" clip-rule="evenodd" d="M77.4317 22.4409H88.5505V24.4409H77.4317V22.4409Z" fill="#6F6F72"/>
<path d="M47.481 201.466C46.5435 201.466 45.7078 201.305 44.9739 200.983C44.2448 200.661 43.6648 200.213 43.2339 199.64C42.8077 199.063 42.5757 198.393 42.5379 197.63H44.3276C44.3655 198.099 44.5265 198.504 44.8106 198.845C45.0947 199.181 45.4664 199.442 45.9256 199.626C46.3849 199.811 46.8939 199.903 47.4526 199.903C48.0776 199.903 48.6316 199.794 49.1146 199.577C49.5975 199.359 49.9763 199.056 50.2509 198.667C50.5255 198.279 50.6629 197.829 50.6629 197.318C50.6629 196.783 50.5303 196.312 50.2651 195.905C50 195.493 49.6117 195.171 49.1004 194.939C48.589 194.707 47.964 194.591 47.2254 194.591H46.0606V193.028H47.2254C47.803 193.028 48.3096 192.924 48.7452 192.716C49.1856 192.507 49.5289 192.214 49.7751 191.835C50.026 191.456 50.1515 191.011 50.1515 190.5C50.1515 190.007 50.0426 189.579 49.8248 189.214C49.607 188.85 49.2992 188.566 48.9015 188.362C48.5085 188.158 48.0445 188.057 47.5094 188.057C47.0076 188.057 46.5341 188.149 46.089 188.334C45.6487 188.514 45.2888 188.776 45.0094 189.122C44.7301 189.463 44.5786 189.875 44.5549 190.358H42.8504C42.8788 189.595 43.1084 188.928 43.5393 188.355C43.9701 187.777 44.5336 187.327 45.2296 187.005C45.9304 186.684 46.6998 186.523 47.5379 186.523C48.4375 186.523 49.2093 186.705 49.8532 187.069C50.4971 187.429 50.9919 187.905 51.3376 188.497C51.6832 189.089 51.856 189.728 51.856 190.415C51.856 191.234 51.6406 191.932 51.2097 192.51C50.7836 193.087 50.2036 193.487 49.4697 193.71V193.824C50.3882 193.975 51.1056 194.366 51.6217 194.996C52.1378 195.621 52.3958 196.395 52.3958 197.318C52.3958 198.109 52.1804 198.819 51.7495 199.449C51.3234 200.074 50.741 200.566 50.0023 200.926C49.2637 201.286 48.4233 201.466 47.481 201.466Z" fill="#6F6F72"/>
<path d="M59.8461 201.466C59.0128 201.466 58.2623 201.3 57.5947 200.969C56.9271 200.637 56.392 200.183 55.9896 199.605C55.5871 199.027 55.3669 198.369 55.3291 197.63H57.0336C57.0999 198.289 57.3982 198.833 57.9285 199.264C58.4635 199.69 59.1027 199.903 59.8461 199.903C60.4427 199.903 60.973 199.764 61.437 199.484C61.9058 199.205 62.2727 198.821 62.5379 198.334C62.8077 197.841 62.9427 197.285 62.9427 196.665C62.9427 196.03 62.803 195.464 62.5237 194.967C62.249 194.465 61.8702 194.07 61.3873 193.781C60.9043 193.492 60.3527 193.345 59.7325 193.341C59.2874 193.336 58.8305 193.405 58.3617 193.547C57.893 193.684 57.5071 193.862 57.2041 194.079L55.5563 193.88L56.437 186.721H63.9938V188.284H57.9143L57.4029 192.574H57.4881C57.7864 192.337 58.1605 192.14 58.6103 191.984C59.0601 191.828 59.5289 191.75 60.0166 191.75C60.9067 191.75 61.6998 191.963 62.3958 192.389C63.0966 192.81 63.6458 193.388 64.0435 194.122C64.446 194.856 64.6472 195.694 64.6472 196.636C64.6472 197.564 64.4389 198.393 64.0222 199.122C63.6103 199.846 63.0421 200.419 62.3177 200.841C61.5933 201.257 60.7694 201.466 59.8461 201.466Z" fill="#6F6F72"/>
<path d="M47.4205 244.199C46.483 244.199 45.6473 244.038 44.9134 243.716C44.1842 243.394 43.6042 242.947 43.1733 242.374C42.7472 241.796 42.5152 241.126 42.4773 240.364H44.2671C44.305 240.832 44.4659 241.237 44.75 241.578C45.0341 241.914 45.4058 242.175 45.8651 242.359C46.3244 242.544 46.8334 242.636 47.3921 242.636C48.0171 242.636 48.5711 242.527 49.054 242.31C49.537 242.092 49.9158 241.789 50.1904 241.401C50.465 241.012 50.6023 240.562 50.6023 240.051C50.6023 239.516 50.4697 239.045 50.2046 238.638C49.9394 238.226 49.5512 237.904 49.0398 237.672C48.5284 237.44 47.9034 237.324 47.1648 237.324H46V235.761H47.1648C47.7425 235.761 48.2491 235.657 48.6847 235.449C49.125 235.241 49.4683 234.947 49.7145 234.568C49.9655 234.189 50.091 233.744 50.091 233.233C50.091 232.741 49.982 232.312 49.7642 231.947C49.5464 231.583 49.2387 231.299 48.841 231.095C48.448 230.892 47.9839 230.79 47.4489 230.79C46.947 230.79 46.4735 230.882 46.0285 231.067C45.5881 231.247 45.2283 231.509 44.9489 231.855C44.6695 232.196 44.518 232.608 44.4944 233.091H42.7898C42.8182 232.329 43.0479 231.661 43.4787 231.088C43.9096 230.51 44.4731 230.061 45.1691 229.739C45.8698 229.417 46.6392 229.256 47.4773 229.256C48.3769 229.256 49.1487 229.438 49.7927 229.803C50.4366 230.162 50.9314 230.638 51.277 231.23C51.6227 231.822 51.7955 232.461 51.7955 233.148C51.7955 233.967 51.5801 234.665 51.1492 235.243C50.723 235.821 50.143 236.221 49.4091 236.443V236.557C50.3277 236.708 51.045 237.099 51.5611 237.729C52.0772 238.354 52.3353 239.128 52.3353 240.051C52.3353 240.842 52.1198 241.552 51.689 242.182C51.2628 242.807 50.6804 243.299 49.9418 243.659C49.2032 244.019 48.3627 244.199 47.4205 244.199Z" fill="#6F6F72"/>
<path d="M59.9844 244.199C58.9143 244.199 58.0029 243.908 57.25 243.325C56.4972 242.738 55.9219 241.888 55.5242 240.776C55.1265 239.658 54.9276 238.309 54.9276 236.727C54.9276 235.155 55.1265 233.813 55.5242 232.7C55.9266 231.583 56.5043 230.731 57.2571 230.143C58.0147 229.552 58.9238 229.256 59.9844 229.256C61.045 229.256 61.9517 229.552 62.7046 230.143C63.4622 230.731 64.0398 231.583 64.4375 232.7C64.84 233.813 65.0412 235.155 65.0412 236.727C65.0412 238.309 64.8424 239.658 64.4446 240.776C64.0469 241.888 63.4716 242.738 62.7188 243.325C61.9659 243.908 61.0545 244.199 59.9844 244.199ZM59.9844 242.636C61.045 242.636 61.8689 242.125 62.456 241.102C63.0431 240.08 63.3367 238.621 63.3367 236.727C63.3367 235.468 63.2017 234.395 62.9319 233.51C62.6667 232.625 62.2832 231.95 61.7813 231.486C61.2841 231.022 60.6852 230.79 59.9844 230.79C58.9333 230.79 58.1118 231.308 57.5199 232.345C56.9281 233.377 56.6321 234.838 56.6321 236.727C56.6321 237.987 56.7647 239.057 57.0299 239.938C57.295 240.818 57.6762 241.488 58.1733 241.947C58.6752 242.407 59.2789 242.636 59.9844 242.636Z" fill="#6F6F72"/>
<path d="M42.2254 155.461V154.012L48.6174 143.898H49.6685V146.142H48.9583L44.1288 153.785V153.898H52.7367V155.461H42.2254ZM49.0719 158.444V143.898H50.7481V158.444H49.0719Z" fill="#6F6F72"/>
<path d="M60.1426 158.642C59.0725 158.642 58.1611 158.351 57.4082 157.769C56.6554 157.182 56.0801 156.332 55.6824 155.219C55.2847 154.102 55.0858 152.752 55.0858 151.171C55.0858 149.599 55.2847 148.257 55.6824 147.144C56.0849 146.026 56.6625 145.174 57.4153 144.587C58.1729 143.995 59.082 143.699 60.1426 143.699C61.2032 143.699 62.1099 143.995 62.8628 144.587C63.6204 145.174 64.198 146.026 64.5957 147.144C64.9982 148.257 65.1994 149.599 65.1994 151.171C65.1994 152.752 65.0006 154.102 64.6028 155.219C64.2051 156.332 63.6298 157.182 62.877 157.769C62.1241 158.351 61.2127 158.642 60.1426 158.642ZM60.1426 157.08C61.2032 157.08 62.0271 156.569 62.6142 155.546C63.2013 154.523 63.4949 153.065 63.4949 151.171C63.4949 149.911 63.3599 148.839 63.0901 147.954C62.8249 147.068 62.4414 146.393 61.9395 145.929C61.4423 145.465 60.8434 145.233 60.1426 145.233C59.0915 145.233 58.27 145.752 57.6781 146.789C57.0863 147.821 56.7903 149.282 56.7903 151.171C56.7903 152.43 56.9229 153.5 57.1881 154.381C57.4532 155.262 57.8344 155.932 58.3315 156.391C58.8334 156.85 59.4371 157.08 60.1426 157.08Z" fill="#6F6F72"/>
<path d="M42.2254 112.637V111.189L48.6174 101.075H49.6685V103.319H48.9583L44.1288 110.961V111.075H52.7367V112.637H42.2254ZM49.0719 115.62V101.075H50.7481V115.62H49.0719Z" fill="#6F6F72"/>
<path d="M59.9438 115.819C59.1104 115.819 58.3599 115.654 57.6923 115.322C57.0247 114.991 56.4897 114.536 56.0872 113.958C55.6848 113.381 55.4646 112.723 55.4267 111.984H57.1313C57.1975 112.642 57.4958 113.187 58.0261 113.618C58.5612 114.044 59.2004 114.257 59.9438 114.257C60.5403 114.257 61.0706 114.117 61.5347 113.838C62.0034 113.558 62.3704 113.175 62.6355 112.687C62.9054 112.195 63.0403 111.638 63.0403 111.018C63.0403 110.384 62.9007 109.818 62.6213 109.321C62.3467 108.819 61.9679 108.423 61.4849 108.135C61.002 107.846 60.4504 107.699 59.8301 107.694C59.385 107.689 58.9281 107.758 58.4594 107.9C57.9906 108.038 57.6047 108.215 57.3017 108.433L55.654 108.234L56.5347 101.075H64.0915V102.637H58.0119L57.5006 106.927H57.5858C57.8841 106.69 58.2581 106.494 58.708 106.338C59.1578 106.181 59.6265 106.103 60.1142 106.103C61.0044 106.103 61.7974 106.316 62.4935 106.743C63.1942 107.164 63.7435 107.742 64.1412 108.475C64.5437 109.209 64.7449 110.047 64.7449 110.99C64.7449 111.918 64.5366 112.746 64.1199 113.475C63.708 114.2 63.1398 114.773 62.4153 115.194C61.6909 115.611 60.867 115.819 59.9438 115.819Z" fill="#6F6F72"/>
<path d="M47.1117 72.996C46.2784 72.996 45.5279 72.8303 44.8603 72.4988C44.1927 72.1674 43.6576 71.7128 43.2552 71.1352C42.8527 70.5575 42.6326 69.8994 42.5947 69.1608H44.2992C44.3655 69.8189 44.6638 70.3634 45.1941 70.7943C45.7291 71.2204 46.3684 71.4335 47.1117 71.4335C47.7083 71.4335 48.2386 71.2938 48.7026 71.0145C49.1714 70.7351 49.5383 70.3516 49.8035 69.8639C50.0734 69.3715 50.2083 68.8151 50.2083 68.1948C50.2083 67.5604 50.0686 66.9946 49.7893 66.4974C49.5147 65.9955 49.1359 65.6002 48.6529 65.3113C48.17 65.0225 47.6184 64.8757 46.9981 64.871C46.553 64.8662 46.0961 64.9349 45.6273 65.077C45.1586 65.2143 44.7727 65.3918 44.4697 65.6096L42.8219 65.4108L43.7026 58.2517H51.2594V59.8142H45.1799L44.6685 64.1039H44.7538C45.0521 63.8672 45.4261 63.6707 45.8759 63.5145C46.3257 63.3582 46.7945 63.2801 47.2822 63.2801C48.1723 63.2801 48.9654 63.4931 49.6614 63.9193C50.3622 64.3407 50.9114 64.9183 51.3092 65.6522C51.7116 66.3861 51.9129 67.2242 51.9129 68.1664C51.9129 69.0945 51.7045 69.9231 51.2879 70.6522C50.8759 71.3767 50.3077 71.9496 49.5833 72.371C48.8589 72.7876 48.035 72.996 47.1117 72.996Z" fill="#6F6F72"/>
<path d="M59.4786 72.996C58.4085 72.996 57.497 72.7048 56.7442 72.1224C55.9913 71.5353 55.4161 70.6854 55.0183 69.5727C54.6206 68.4553 54.4217 67.1058 54.4217 65.5244C54.4217 63.9524 54.6206 62.6101 55.0183 61.4974C55.4208 60.38 55.9984 59.5277 56.7513 58.9406C57.5089 58.3487 58.4179 58.0528 59.4786 58.0528C60.5392 58.0528 61.4459 58.3487 62.1987 58.9406C62.9563 59.5277 63.534 60.38 63.9317 61.4974C64.3341 62.6101 64.5354 63.9524 64.5354 65.5244C64.5354 67.1058 64.3365 68.4553 63.9388 69.5727C63.5411 70.6854 62.9658 71.5353 62.2129 72.1224C61.4601 72.7048 60.5486 72.996 59.4786 72.996ZM59.4786 71.4335C60.5392 71.4335 61.363 70.9221 61.9501 69.8994C62.5373 68.8767 62.8308 67.4183 62.8308 65.5244C62.8308 64.2649 62.6959 63.1925 62.426 62.3071C62.1608 61.4216 61.7773 60.7469 61.2754 60.2829C60.7783 59.8189 60.1793 59.5869 59.4786 59.5869C58.4274 59.5869 57.6059 60.1054 57.0141 61.1423C56.4222 62.1745 56.1263 63.6352 56.1263 65.5244C56.1263 66.7839 56.2589 67.8539 56.524 68.7346C56.7892 69.6153 57.1703 70.2853 57.6675 70.7446C58.1694 71.2038 58.7731 71.4335 59.4786 71.4335Z" fill="#6F6F72"/>
<path d="M47.1117 30.1989C46.2784 30.1989 45.5279 30.0331 44.8603 29.7017C44.1927 29.3703 43.6576 28.9157 43.2552 28.3381C42.8527 27.7604 42.6326 27.1023 42.5947 26.3636H44.2992C44.3655 27.0218 44.6638 27.5663 45.1941 27.9972C45.7291 28.4233 46.3684 28.6364 47.1117 28.6364C47.7083 28.6364 48.2386 28.4967 48.7026 28.2173C49.1714 27.938 49.5383 27.5545 49.8035 27.0668C50.0734 26.5743 50.2083 26.018 50.2083 25.3977C50.2083 24.7633 50.0686 24.1974 49.7893 23.7003C49.5147 23.1984 49.1359 22.803 48.6529 22.5142C48.17 22.2254 47.6184 22.0786 46.9981 22.0739C46.553 22.0691 46.0961 22.1378 45.6273 22.2798C45.1586 22.4171 44.7727 22.5947 44.4697 22.8125L42.8219 22.6136L43.7026 15.4545H51.2594V17.017H45.1799L44.6685 21.3068H44.7538C45.0521 21.0701 45.4261 20.8736 45.8759 20.7173C46.3257 20.5611 46.7945 20.483 47.2822 20.483C48.1723 20.483 48.9654 20.696 49.6614 21.1222C50.3622 21.5436 50.9114 22.1212 51.3092 22.8551C51.7116 23.589 51.9129 24.4271 51.9129 25.3693C51.9129 26.2973 51.7045 27.1259 51.2879 27.8551C50.8759 28.5795 50.3077 29.1525 49.5833 29.5739C48.8589 29.9905 48.035 30.1989 47.1117 30.1989Z" fill="#6F6F72"/>
<path d="M59.2797 30.1989C58.4464 30.1989 57.6959 30.0331 57.0283 29.7017C56.3607 29.3703 55.8256 28.9157 55.4232 28.3381C55.0207 27.7604 54.8005 27.1023 54.7626 26.3636H56.4672C56.5335 27.0218 56.8318 27.5663 57.3621 27.9972C57.8971 28.4233 58.5363 28.6364 59.2797 28.6364C59.8763 28.6364 60.4066 28.4967 60.8706 28.2173C61.3394 27.938 61.7063 27.5545 61.9715 27.0668C62.2413 26.5743 62.3763 26.018 62.3763 25.3977C62.3763 24.7633 62.2366 24.1974 61.9572 23.7003C61.6826 23.1984 61.3038 22.803 60.8209 22.5142C60.3379 22.2254 59.7863 22.0786 59.1661 22.0739C58.721 22.0691 58.2641 22.1378 57.7953 22.2798C57.3266 22.4171 56.9407 22.5947 56.6376 22.8125L54.9899 22.6136L55.8706 15.4545H63.4274V17.017H57.3479L56.8365 21.3068H56.9217C57.22 21.0701 57.5941 20.8736 58.0439 20.7173C58.4937 20.5611 58.9625 20.483 59.4501 20.483C60.3403 20.483 61.1334 20.696 61.8294 21.1222C62.5302 21.5436 63.0794 22.1212 63.4771 22.8551C63.8796 23.589 64.0808 24.4271 64.0808 25.3693C64.0808 26.2973 63.8725 27.1259 63.4558 27.8551C63.0439 28.5795 62.4757 29.1525 61.7513 29.5739C61.0269 29.9905 60.203 30.1989 59.2797 30.1989Z" fill="#6F6F72"/>
<path d="M144.62 267.08C145.367 266.92 146.053 266.84 146.68 266.84C147.427 266.84 148.087 266.95 148.66 267.17C149.233 267.39 149.71 267.693 150.09 268.08C150.477 268.467 150.767 268.923 150.96 269.45C151.16 269.977 151.26 270.55 151.26 271.17C151.26 271.93 151.127 272.617 150.86 273.23C150.6 273.843 150.237 274.37 149.77 274.81C149.31 275.243 148.767 275.577 148.14 275.81C147.513 276.043 146.837 276.16 146.11 276.16C145.69 276.16 145.287 276.117 144.9 276.03C144.513 275.95 144.15 275.84 143.81 275.7C143.477 275.56 143.167 275.4 142.88 275.22C142.593 275.04 142.34 274.85 142.12 274.65L142.67 273.89C142.79 273.717 142.947 273.63 143.14 273.63C143.273 273.63 143.423 273.683 143.59 273.79C143.757 273.89 143.96 274.003 144.2 274.13C144.44 274.257 144.72 274.373 145.04 274.48C145.367 274.58 145.753 274.63 146.2 274.63C146.7 274.63 147.15 274.55 147.55 274.39C147.95 274.23 148.293 274.003 148.58 273.71C148.867 273.41 149.087 273.053 149.24 272.64C149.393 272.227 149.47 271.763 149.47 271.25C149.47 270.803 149.403 270.4 149.27 270.04C149.143 269.68 148.947 269.373 148.68 269.12C148.42 268.867 148.093 268.67 147.7 268.53C147.307 268.39 146.847 268.32 146.32 268.32C145.96 268.32 145.583 268.35 145.19 268.41C144.803 268.47 144.407 268.567 144 268.7L142.88 268.37L144.03 261.67H150.82V262.45C150.82 262.703 150.74 262.913 150.58 263.08C150.427 263.24 150.16 263.32 149.78 263.32H145.28L144.62 267.08Z" fill="#6F6F72"/>
<path d="M163.602 268.84C163.602 270.093 163.465 271.18 163.192 272.1C162.925 273.013 162.558 273.77 162.092 274.37C161.625 274.97 161.072 275.417 160.432 275.71C159.798 276.003 159.118 276.15 158.392 276.15C157.658 276.15 156.975 276.003 156.342 275.71C155.715 275.417 155.168 274.97 154.702 274.37C154.235 273.77 153.868 273.013 153.602 272.1C153.335 271.18 153.202 270.093 153.202 268.84C153.202 267.587 153.335 266.5 153.602 265.58C153.868 264.66 154.235 263.9 154.702 263.3C155.168 262.693 155.715 262.243 156.342 261.95C156.975 261.657 157.658 261.51 158.392 261.51C159.118 261.51 159.798 261.657 160.432 261.95C161.072 262.243 161.625 262.693 162.092 263.3C162.558 263.9 162.925 264.66 163.192 265.58C163.465 266.5 163.602 267.587 163.602 268.84ZM161.752 268.84C161.752 267.747 161.658 266.83 161.472 266.09C161.292 265.343 161.045 264.743 160.732 264.29C160.425 263.837 160.068 263.513 159.662 263.32C159.255 263.12 158.832 263.02 158.392 263.02C157.952 263.02 157.528 263.12 157.122 263.32C156.715 263.513 156.358 263.837 156.052 264.29C155.745 264.743 155.498 265.343 155.312 266.09C155.132 266.83 155.042 267.747 155.042 268.84C155.042 269.933 155.132 270.85 155.312 271.59C155.498 272.33 155.745 272.927 156.052 273.38C156.358 273.833 156.715 274.16 157.122 274.36C157.528 274.553 157.952 274.65 158.392 274.65C158.832 274.65 159.255 274.553 159.662 274.36C160.068 274.16 160.425 273.833 160.732 273.38C161.045 272.927 161.292 272.33 161.472 271.59C161.658 270.85 161.752 269.933 161.752 268.84Z" fill="#6F6F72"/>
<path d="M175.203 268.84C175.203 270.093 175.066 271.18 174.793 272.1C174.527 273.013 174.16 273.77 173.693 274.37C173.227 274.97 172.673 275.417 172.033 275.71C171.4 276.003 170.72 276.15 169.993 276.15C169.26 276.15 168.576 276.003 167.943 275.71C167.316 275.417 166.77 274.97 166.303 274.37C165.837 273.77 165.47 273.013 165.203 272.1C164.937 271.18 164.803 270.093 164.803 268.84C164.803 267.587 164.937 266.5 165.203 265.58C165.47 264.66 165.837 263.9 166.303 263.3C166.77 262.693 167.316 262.243 167.943 261.95C168.576 261.657 169.26 261.51 169.993 261.51C170.72 261.51 171.4 261.657 172.033 261.95C172.673 262.243 173.227 262.693 173.693 263.3C174.16 263.9 174.527 264.66 174.793 265.58C175.066 266.5 175.203 267.587 175.203 268.84ZM173.353 268.84C173.353 267.747 173.26 266.83 173.073 266.09C172.893 265.343 172.646 264.743 172.333 264.29C172.026 263.837 171.67 263.513 171.263 263.32C170.857 263.12 170.433 263.02 169.993 263.02C169.553 263.02 169.13 263.12 168.723 263.32C168.316 263.513 167.96 263.837 167.653 264.29C167.346 264.743 167.1 265.343 166.913 266.09C166.733 266.83 166.643 267.747 166.643 268.84C166.643 269.933 166.733 270.85 166.913 271.59C167.1 272.33 167.346 272.927 167.653 273.38C167.96 273.833 168.316 274.16 168.723 274.36C169.13 274.553 169.553 274.65 169.993 274.65C170.433 274.65 170.857 274.553 171.263 274.36C171.67 274.16 172.026 273.833 172.333 273.38C172.646 272.927 172.893 272.33 173.073 271.59C173.26 270.85 173.353 269.933 173.353 268.84Z" fill="#6F6F72"/>
<path d="M217.78 274.68C218.26 274.68 218.693 274.603 219.08 274.45C219.473 274.297 219.807 274.083 220.08 273.81C220.36 273.537 220.573 273.213 220.72 272.84C220.873 272.467 220.95 272.06 220.95 271.62C220.95 271.153 220.877 270.733 220.73 270.36C220.583 269.98 220.373 269.66 220.1 269.4C219.833 269.133 219.513 268.93 219.14 268.79C218.767 268.65 218.357 268.58 217.91 268.58C217.43 268.58 216.997 268.663 216.61 268.83C216.223 268.99 215.893 269.21 215.62 269.49C215.353 269.763 215.147 270.083 215 270.45C214.86 270.81 214.79 271.187 214.79 271.58C214.79 272.04 214.857 272.46 214.99 272.84C215.123 273.22 215.317 273.547 215.57 273.82C215.83 274.093 216.143 274.307 216.51 274.46C216.883 274.607 217.307 274.68 217.78 274.68ZM216.74 267.04C216.613 267.2 216.49 267.357 216.37 267.51C216.257 267.657 216.147 267.803 216.04 267.95C216.38 267.717 216.753 267.537 217.16 267.41C217.567 267.283 218.01 267.22 218.49 267.22C219.07 267.22 219.617 267.317 220.13 267.51C220.643 267.697 221.09 267.973 221.47 268.34C221.857 268.7 222.163 269.147 222.39 269.68C222.617 270.207 222.73 270.81 222.73 271.49C222.73 272.15 222.61 272.763 222.37 273.33C222.13 273.897 221.793 274.39 221.36 274.81C220.933 275.23 220.417 275.56 219.81 275.8C219.21 276.04 218.547 276.16 217.82 276.16C217.1 276.16 216.447 276.047 215.86 275.82C215.273 275.587 214.773 275.26 214.36 274.84C213.953 274.413 213.637 273.9 213.41 273.3C213.19 272.693 213.08 272.017 213.08 271.27C213.08 270.643 213.217 269.977 213.49 269.27C213.77 268.557 214.213 267.797 214.82 266.99L218.46 262.1C218.553 261.98 218.68 261.88 218.84 261.8C219.007 261.713 219.197 261.67 219.41 261.67H220.99L216.74 267.04Z" fill="#6F6F72"/>
<path d="M234.602 268.84C234.602 270.093 234.465 271.18 234.192 272.1C233.925 273.013 233.558 273.77 233.092 274.37C232.625 274.97 232.072 275.417 231.432 275.71C230.798 276.003 230.118 276.15 229.392 276.15C228.658 276.15 227.975 276.003 227.342 275.71C226.715 275.417 226.168 274.97 225.702 274.37C225.235 273.77 224.868 273.013 224.602 272.1C224.335 271.18 224.202 270.093 224.202 268.84C224.202 267.587 224.335 266.5 224.602 265.58C224.868 264.66 225.235 263.9 225.702 263.3C226.168 262.693 226.715 262.243 227.342 261.95C227.975 261.657 228.658 261.51 229.392 261.51C230.118 261.51 230.798 261.657 231.432 261.95C232.072 262.243 232.625 262.693 233.092 263.3C233.558 263.9 233.925 264.66 234.192 265.58C234.465 266.5 234.602 267.587 234.602 268.84ZM232.752 268.84C232.752 267.747 232.658 266.83 232.472 266.09C232.292 265.343 232.045 264.743 231.732 264.29C231.425 263.837 231.068 263.513 230.662 263.32C230.255 263.12 229.832 263.02 229.392 263.02C228.952 263.02 228.528 263.12 228.122 263.32C227.715 263.513 227.358 263.837 227.052 264.29C226.745 264.743 226.498 265.343 226.312 266.09C226.132 266.83 226.042 267.747 226.042 268.84C226.042 269.933 226.132 270.85 226.312 271.59C226.498 272.33 226.745 272.927 227.052 273.38C227.358 273.833 227.715 274.16 228.122 274.36C228.528 274.553 228.952 274.65 229.392 274.65C229.832 274.65 230.255 274.553 230.662 274.36C231.068 274.16 231.425 273.833 231.732 273.38C232.045 272.927 232.292 272.33 232.472 271.59C232.658 270.85 232.752 269.933 232.752 268.84Z" fill="#6F6F72"/>
<path d="M246.203 268.84C246.203 270.093 246.066 271.18 245.793 272.1C245.527 273.013 245.16 273.77 244.693 274.37C244.227 274.97 243.673 275.417 243.033 275.71C242.4 276.003 241.72 276.15 240.993 276.15C240.26 276.15 239.576 276.003 238.943 275.71C238.316 275.417 237.77 274.97 237.303 274.37C236.837 273.77 236.47 273.013 236.203 272.1C235.937 271.18 235.803 270.093 235.803 268.84C235.803 267.587 235.937 266.5 236.203 265.58C236.47 264.66 236.837 263.9 237.303 263.3C237.77 262.693 238.316 262.243 238.943 261.95C239.576 261.657 240.26 261.51 240.993 261.51C241.72 261.51 242.4 261.657 243.033 261.95C243.673 262.243 244.227 262.693 244.693 263.3C245.16 263.9 245.527 264.66 245.793 265.58C246.066 266.5 246.203 267.587 246.203 268.84ZM244.353 268.84C244.353 267.747 244.26 266.83 244.073 266.09C243.893 265.343 243.646 264.743 243.333 264.29C243.026 263.837 242.67 263.513 242.263 263.32C241.857 263.12 241.433 263.02 240.993 263.02C240.553 263.02 240.13 263.12 239.723 263.32C239.316 263.513 238.96 263.837 238.653 264.29C238.346 264.743 238.1 265.343 237.913 266.09C237.733 266.83 237.643 267.747 237.643 268.84C237.643 269.933 237.733 270.85 237.913 271.59C238.1 272.33 238.346 272.927 238.653 273.38C238.96 273.833 239.316 274.16 239.723 274.36C240.13 274.553 240.553 274.65 240.993 274.65C241.433 274.65 241.857 274.553 242.263 274.36C242.67 274.16 243.026 273.833 243.333 273.38C243.646 272.927 243.893 272.33 244.073 271.59C244.26 270.85 244.353 269.933 244.353 268.84Z" fill="#6F6F72"/>
<path d="M292.81 261.67V262.47C292.81 262.697 292.783 262.883 292.73 263.03C292.683 263.177 292.637 263.3 292.59 263.4L286.65 275.37C286.563 275.543 286.443 275.693 286.29 275.82C286.137 275.94 285.933 276 285.68 276H284.4L290.42 264.18C290.507 264.013 290.597 263.86 290.69 263.72C290.783 263.58 290.883 263.447 290.99 263.32H283.51C283.397 263.32 283.297 263.277 283.21 263.19C283.123 263.097 283.08 262.993 283.08 262.88V261.67H292.81Z" fill="#6F6F72"/>
<path d="M304.602 268.84C304.602 270.093 304.465 271.18 304.192 272.1C303.925 273.013 303.558 273.77 303.092 274.37C302.625 274.97 302.072 275.417 301.432 275.71C300.798 276.003 300.118 276.15 299.392 276.15C298.658 276.15 297.975 276.003 297.342 275.71C296.715 275.417 296.168 274.97 295.702 274.37C295.235 273.77 294.868 273.013 294.602 272.1C294.335 271.18 294.202 270.093 294.202 268.84C294.202 267.587 294.335 266.5 294.602 265.58C294.868 264.66 295.235 263.9 295.702 263.3C296.168 262.693 296.715 262.243 297.342 261.95C297.975 261.657 298.658 261.51 299.392 261.51C300.118 261.51 300.798 261.657 301.432 261.95C302.072 262.243 302.625 262.693 303.092 263.3C303.558 263.9 303.925 264.66 304.192 265.58C304.465 266.5 304.602 267.587 304.602 268.84ZM302.752 268.84C302.752 267.747 302.658 266.83 302.472 266.09C302.292 265.343 302.045 264.743 301.732 264.29C301.425 263.837 301.068 263.513 300.662 263.32C300.255 263.12 299.832 263.02 299.392 263.02C298.952 263.02 298.528 263.12 298.122 263.32C297.715 263.513 297.358 263.837 297.052 264.29C296.745 264.743 296.498 265.343 296.312 266.09C296.132 266.83 296.042 267.747 296.042 268.84C296.042 269.933 296.132 270.85 296.312 271.59C296.498 272.33 296.745 272.927 297.052 273.38C297.358 273.833 297.715 274.16 298.122 274.36C298.528 274.553 298.952 274.65 299.392 274.65C299.832 274.65 300.255 274.553 300.662 274.36C301.068 274.16 301.425 273.833 301.732 273.38C302.045 272.927 302.292 272.33 302.472 271.59C302.658 270.85 302.752 269.933 302.752 268.84Z" fill="#6F6F72"/>
<path d="M316.203 268.84C316.203 270.093 316.066 271.18 315.793 272.1C315.526 273.013 315.16 273.77 314.693 274.37C314.227 274.97 313.673 275.417 313.033 275.71C312.4 276.003 311.72 276.15 310.993 276.15C310.26 276.15 309.577 276.003 308.943 275.71C308.316 275.417 307.77 274.97 307.303 274.37C306.836 273.77 306.47 273.013 306.203 272.1C305.936 271.18 305.803 270.093 305.803 268.84C305.803 267.587 305.936 266.5 306.203 265.58C306.47 264.66 306.836 263.9 307.303 263.3C307.77 262.693 308.316 262.243 308.943 261.95C309.577 261.657 310.26 261.51 310.993 261.51C311.72 261.51 312.4 261.657 313.033 261.95C313.673 262.243 314.227 262.693 314.693 263.3C315.16 263.9 315.526 264.66 315.793 265.58C316.066 266.5 316.203 267.587 316.203 268.84ZM314.353 268.84C314.353 267.747 314.26 266.83 314.073 266.09C313.893 265.343 313.646 264.743 313.333 264.29C313.026 263.837 312.67 263.513 312.263 263.32C311.856 263.12 311.433 263.02 310.993 263.02C310.553 263.02 310.13 263.12 309.723 263.32C309.316 263.513 308.96 263.837 308.653 264.29C308.346 264.743 308.1 265.343 307.913 266.09C307.733 266.83 307.643 267.747 307.643 268.84C307.643 269.933 307.733 270.85 307.913 271.59C308.1 272.33 308.346 272.927 308.653 273.38C308.96 273.833 309.316 274.16 309.723 274.36C310.13 274.553 310.553 274.65 310.993 274.65C311.433 274.65 311.856 274.553 312.263 274.36C312.67 274.16 313.026 273.833 313.333 273.38C313.646 272.927 313.893 272.33 314.073 271.59C314.26 270.85 314.353 269.933 314.353 268.84Z" fill="#6F6F72"/>
<path d="M358.8 274.74C359.267 274.74 359.683 274.677 360.05 274.55C360.423 274.417 360.737 274.233 360.99 274C361.25 273.76 361.447 273.477 361.58 273.15C361.72 272.817 361.79 272.45 361.79 272.05C361.79 271.557 361.707 271.137 361.54 270.79C361.38 270.437 361.16 270.15 360.88 269.93C360.607 269.71 360.29 269.55 359.93 269.45C359.57 269.343 359.193 269.29 358.8 269.29C358.407 269.29 358.03 269.343 357.67 269.45C357.31 269.55 356.99 269.71 356.71 269.93C356.437 270.15 356.217 270.437 356.05 270.79C355.89 271.137 355.81 271.557 355.81 272.05C355.81 272.45 355.877 272.817 356.01 273.15C356.15 273.477 356.347 273.76 356.6 274C356.86 274.233 357.173 274.417 357.54 274.55C357.913 274.677 358.333 274.74 358.8 274.74ZM358.8 262.89C358.373 262.89 357.997 262.953 357.67 263.08C357.35 263.207 357.08 263.38 356.86 263.6C356.647 263.82 356.483 264.077 356.37 264.37C356.263 264.663 356.21 264.977 356.21 265.31C356.21 265.637 356.257 265.953 356.35 266.26C356.443 266.567 356.593 266.84 356.8 267.08C357.007 267.313 357.273 267.503 357.6 267.65C357.933 267.79 358.333 267.86 358.8 267.86C359.267 267.86 359.663 267.79 359.99 267.65C360.323 267.503 360.593 267.313 360.8 267.08C361.007 266.84 361.157 266.567 361.25 266.26C361.343 265.953 361.39 265.637 361.39 265.31C361.39 264.977 361.333 264.663 361.22 264.37C361.113 264.077 360.95 263.82 360.73 263.6C360.517 263.38 360.247 263.207 359.92 263.08C359.6 262.953 359.227 262.89 358.8 262.89ZM360.85 268.53C361.743 268.783 362.43 269.207 362.91 269.8C363.39 270.393 363.63 271.153 363.63 272.08C363.63 272.707 363.51 273.273 363.27 273.78C363.037 274.28 362.707 274.707 362.28 275.06C361.86 275.413 361.353 275.687 360.76 275.88C360.167 276.067 359.513 276.16 358.8 276.16C358.087 276.16 357.433 276.067 356.84 275.88C356.247 275.687 355.737 275.413 355.31 275.06C354.883 274.707 354.553 274.28 354.32 273.78C354.087 273.273 353.97 272.707 353.97 272.08C353.97 271.153 354.21 270.393 354.69 269.8C355.17 269.207 355.857 268.783 356.75 268.53C355.997 268.25 355.427 267.833 355.04 267.28C354.66 266.72 354.47 266.053 354.47 265.28C354.47 264.753 354.573 264.26 354.78 263.8C354.987 263.34 355.28 262.94 355.66 262.6C356.04 262.26 356.493 261.993 357.02 261.8C357.553 261.607 358.147 261.51 358.8 261.51C359.447 261.51 360.037 261.607 360.57 261.8C361.103 261.993 361.56 262.26 361.94 262.6C362.32 262.94 362.613 263.34 362.82 263.8C363.027 264.26 363.13 264.753 363.13 265.28C363.13 266.053 362.937 266.72 362.55 267.28C362.17 267.833 361.603 268.25 360.85 268.53Z" fill="#6F6F72"/>
<path d="M375.602 268.84C375.602 270.093 375.465 271.18 375.192 272.1C374.925 273.013 374.558 273.77 374.092 274.37C373.625 274.97 373.072 275.417 372.432 275.71C371.798 276.003 371.118 276.15 370.392 276.15C369.658 276.15 368.975 276.003 368.342 275.71C367.715 275.417 367.168 274.97 366.702 274.37C366.235 273.77 365.868 273.013 365.602 272.1C365.335 271.18 365.202 270.093 365.202 268.84C365.202 267.587 365.335 266.5 365.602 265.58C365.868 264.66 366.235 263.9 366.702 263.3C367.168 262.693 367.715 262.243 368.342 261.95C368.975 261.657 369.658 261.51 370.392 261.51C371.118 261.51 371.798 261.657 372.432 261.95C373.072 262.243 373.625 262.693 374.092 263.3C374.558 263.9 374.925 264.66 375.192 265.58C375.465 266.5 375.602 267.587 375.602 268.84ZM373.752 268.84C373.752 267.747 373.658 266.83 373.472 266.09C373.292 265.343 373.045 264.743 372.732 264.29C372.425 263.837 372.068 263.513 371.662 263.32C371.255 263.12 370.832 263.02 370.392 263.02C369.952 263.02 369.528 263.12 369.122 263.32C368.715 263.513 368.358 263.837 368.052 264.29C367.745 264.743 367.498 265.343 367.312 266.09C367.132 266.83 367.042 267.747 367.042 268.84C367.042 269.933 367.132 270.85 367.312 271.59C367.498 272.33 367.745 272.927 368.052 273.38C368.358 273.833 368.715 274.16 369.122 274.36C369.528 274.553 369.952 274.65 370.392 274.65C370.832 274.65 371.255 274.553 371.662 274.36C372.068 274.16 372.425 273.833 372.732 273.38C373.045 272.927 373.292 272.33 373.472 271.59C373.658 270.85 373.752 269.933 373.752 268.84Z" fill="#6F6F72"/>
<path d="M387.203 268.84C387.203 270.093 387.066 271.18 386.793 272.1C386.526 273.013 386.16 273.77 385.693 274.37C385.227 274.97 384.673 275.417 384.033 275.71C383.4 276.003 382.72 276.15 381.993 276.15C381.26 276.15 380.577 276.003 379.943 275.71C379.316 275.417 378.77 274.97 378.303 274.37C377.836 273.77 377.47 273.013 377.203 272.1C376.936 271.18 376.803 270.093 376.803 268.84C376.803 267.587 376.936 266.5 377.203 265.58C377.47 264.66 377.836 263.9 378.303 263.3C378.77 262.693 379.316 262.243 379.943 261.95C380.577 261.657 381.26 261.51 381.993 261.51C382.72 261.51 383.4 261.657 384.033 261.95C384.673 262.243 385.227 262.693 385.693 263.3C386.16 263.9 386.526 264.66 386.793 265.58C387.066 266.5 387.203 267.587 387.203 268.84ZM385.353 268.84C385.353 267.747 385.26 266.83 385.073 266.09C384.893 265.343 384.646 264.743 384.333 264.29C384.026 263.837 383.67 263.513 383.263 263.32C382.856 263.12 382.433 263.02 381.993 263.02C381.553 263.02 381.13 263.12 380.723 263.32C380.316 263.513 379.96 263.837 379.653 264.29C379.346 264.743 379.1 265.343 378.913 266.09C378.733 266.83 378.643 267.747 378.643 268.84C378.643 269.933 378.733 270.85 378.913 271.59C379.1 272.33 379.346 272.927 379.653 273.38C379.96 273.833 380.316 274.16 380.723 274.36C381.13 274.553 381.553 274.65 381.993 274.65C382.433 274.65 382.856 274.553 383.263 274.36C383.67 274.16 384.026 273.833 384.333 273.38C384.646 272.927 384.893 272.33 385.073 271.59C385.26 270.85 385.353 269.933 385.353 268.84Z" fill="#6F6F72"/>
<path d="M425.83 265.88C425.83 266.333 425.893 266.74 426.02 267.1C426.153 267.453 426.34 267.753 426.58 268C426.827 268.247 427.123 268.433 427.47 268.56C427.823 268.687 428.217 268.75 428.65 268.75C429.13 268.75 429.553 268.673 429.92 268.52C430.293 268.36 430.607 268.15 430.86 267.89C431.113 267.63 431.307 267.33 431.44 266.99C431.573 266.65 431.64 266.297 431.64 265.93C431.64 265.483 431.567 265.08 431.42 264.72C431.28 264.353 431.083 264.043 430.83 263.79C430.577 263.537 430.273 263.343 429.92 263.21C429.573 263.07 429.19 263 428.77 263C428.33 263 427.93 263.073 427.57 263.22C427.21 263.36 426.9 263.557 426.64 263.81C426.38 264.063 426.18 264.367 426.04 264.72C425.9 265.073 425.83 265.46 425.83 265.88ZM429.99 270.29C430.137 270.097 430.273 269.913 430.4 269.74C430.527 269.567 430.647 269.393 430.76 269.22C430.393 269.513 429.98 269.737 429.52 269.89C429.06 270.043 428.573 270.12 428.06 270.12C427.52 270.12 427.007 270.03 426.52 269.85C426.04 269.67 425.617 269.407 425.25 269.06C424.883 268.707 424.59 268.277 424.37 267.77C424.157 267.257 424.05 266.67 424.05 266.01C424.05 265.383 424.167 264.797 424.4 264.25C424.633 263.703 424.96 263.227 425.38 262.82C425.8 262.413 426.3 262.093 426.88 261.86C427.46 261.627 428.097 261.51 428.79 261.51C429.477 261.51 430.1 261.623 430.66 261.85C431.22 262.077 431.7 262.393 432.1 262.8C432.5 263.207 432.807 263.693 433.02 264.26C433.24 264.827 433.35 265.453 433.35 266.14C433.35 266.553 433.31 266.947 433.23 267.32C433.157 267.687 433.047 268.05 432.9 268.41C432.76 268.763 432.587 269.117 432.38 269.47C432.173 269.817 431.94 270.173 431.68 270.54L428.19 275.58C428.103 275.707 427.98 275.81 427.82 275.89C427.66 275.963 427.477 276 427.27 276H425.63L429.99 270.29Z" fill="#6F6F72"/>
<path d="M445.602 268.84C445.602 270.093 445.465 271.18 445.192 272.1C444.925 273.013 444.558 273.77 444.092 274.37C443.625 274.97 443.072 275.417 442.432 275.71C441.798 276.003 441.118 276.15 440.392 276.15C439.658 276.15 438.975 276.003 438.342 275.71C437.715 275.417 437.168 274.97 436.702 274.37C436.235 273.77 435.868 273.013 435.602 272.1C435.335 271.18 435.202 270.093 435.202 268.84C435.202 267.587 435.335 266.5 435.602 265.58C435.868 264.66 436.235 263.9 436.702 263.3C437.168 262.693 437.715 262.243 438.342 261.95C438.975 261.657 439.658 261.51 440.392 261.51C441.118 261.51 441.798 261.657 442.432 261.95C443.072 262.243 443.625 262.693 444.092 263.3C444.558 263.9 444.925 264.66 445.192 265.58C445.465 266.5 445.602 267.587 445.602 268.84ZM443.752 268.84C443.752 267.747 443.658 266.83 443.472 266.09C443.292 265.343 443.045 264.743 442.732 264.29C442.425 263.837 442.068 263.513 441.662 263.32C441.255 263.12 440.832 263.02 440.392 263.02C439.952 263.02 439.528 263.12 439.122 263.32C438.715 263.513 438.358 263.837 438.052 264.29C437.745 264.743 437.498 265.343 437.312 266.09C437.132 266.83 437.042 267.747 437.042 268.84C437.042 269.933 437.132 270.85 437.312 271.59C437.498 272.33 437.745 272.927 438.052 273.38C438.358 273.833 438.715 274.16 439.122 274.36C439.528 274.553 439.952 274.65 440.392 274.65C440.832 274.65 441.255 274.553 441.662 274.36C442.068 274.16 442.425 273.833 442.732 273.38C443.045 272.927 443.292 272.33 443.472 271.59C443.658 270.85 443.752 269.933 443.752 268.84Z" fill="#6F6F72"/>
<path d="M457.203 268.84C457.203 270.093 457.066 271.18 456.793 272.1C456.526 273.013 456.16 273.77 455.693 274.37C455.227 274.97 454.673 275.417 454.033 275.71C453.4 276.003 452.72 276.15 451.993 276.15C451.26 276.15 450.577 276.003 449.943 275.71C449.316 275.417 448.77 274.97 448.303 274.37C447.836 273.77 447.47 273.013 447.203 272.1C446.936 271.18 446.803 270.093 446.803 268.84C446.803 267.587 446.936 266.5 447.203 265.58C447.47 264.66 447.836 263.9 448.303 263.3C448.77 262.693 449.316 262.243 449.943 261.95C450.577 261.657 451.26 261.51 451.993 261.51C452.72 261.51 453.4 261.657 454.033 261.95C454.673 262.243 455.227 262.693 455.693 263.3C456.16 263.9 456.526 264.66 456.793 265.58C457.066 266.5 457.203 267.587 457.203 268.84ZM455.353 268.84C455.353 267.747 455.26 266.83 455.073 266.09C454.893 265.343 454.646 264.743 454.333 264.29C454.026 263.837 453.67 263.513 453.263 263.32C452.856 263.12 452.433 263.02 451.993 263.02C451.553 263.02 451.13 263.12 450.723 263.32C450.316 263.513 449.96 263.837 449.653 264.29C449.346 264.743 449.1 265.343 448.913 266.09C448.733 266.83 448.643 267.747 448.643 268.84C448.643 269.933 448.733 270.85 448.913 271.59C449.1 272.33 449.346 272.927 449.653 273.38C449.96 273.833 450.316 274.16 450.723 274.36C451.13 274.553 451.553 274.65 451.993 274.65C452.433 274.65 452.856 274.553 453.263 274.36C453.67 274.16 454.026 273.833 454.333 273.38C454.646 272.927 454.893 272.33 455.073 271.59C455.26 270.85 455.353 269.933 455.353 268.84Z" fill="#6F6F72"/>
<path d="M493 156.255C493 156.255 493 156.437 492.974 156.515L487.532 176.912C487.454 177.173 487.272 177.407 487.039 177.537C486.806 177.667 486.521 177.693 486.262 177.615L458.789 168.873C458.27 168.717 457.959 168.145 458.141 167.598C458.296 167.078 458.866 166.766 459.411 166.948L485.873 175.377L490.771 157.01L458.892 149.985C458.348 149.855 458.011 149.335 458.141 148.789C458.27 148.242 458.789 147.904 459.333 148.034L492.249 155.293C492.508 155.345 492.741 155.527 492.897 155.761C493 155.917 493.052 156.099 493.052 156.281L493 156.255Z" fill="#6F6F72"/>
<path d="M356.076 171.709C356.076 172.099 355.843 172.49 355.428 172.646C354.909 172.854 354.339 172.594 354.132 172.073L349.156 159.247C347.964 156.177 347.964 152.795 349.156 149.725L354.132 136.899C354.339 136.379 354.909 136.118 355.428 136.327C355.946 136.535 356.205 137.107 355.998 137.627L351.022 150.454C350.011 153.055 350.011 155.917 351.022 158.519L355.998 171.345C355.998 171.345 356.076 171.579 356.076 171.709Z" fill="#6F6F72"/>
<path d="M437.277 199.781C437.277 200.327 436.836 200.796 436.266 200.796H374.192C368.776 200.796 364.007 197.518 362.037 192.47L360.456 188.412C360.249 187.891 360.508 187.319 361.026 187.111C361.544 186.903 362.115 187.163 362.322 187.683L363.903 191.742C365.562 196.035 369.605 198.792 374.192 198.792H436.266C436.81 198.792 437.277 199.235 437.277 199.807V199.781Z" fill="#6F6F72"/>
<path d="M437.277 109.191C437.277 109.738 436.836 110.206 436.266 110.206H374.192C369.605 110.206 365.588 112.964 363.903 117.257L362.322 121.315C362.115 121.835 361.544 122.096 361.026 121.887C360.508 121.679 360.249 121.107 360.456 120.587L362.037 116.528C364.007 111.481 368.776 108.203 374.192 108.203H436.266C436.81 108.203 437.277 108.645 437.277 109.217V109.191Z" fill="#6F6F72"/>
<path d="M471.773 119.65V123.422C471.773 123.787 471.566 124.151 471.229 124.307L466.668 126.674C462.598 128.782 460.084 132.944 460.084 137.523V171.449C460.084 176.054 462.598 180.19 466.668 182.298L471.229 184.665C471.566 184.847 471.773 185.186 471.773 185.55V189.322C471.773 193.017 468.767 196.035 465.061 196.035H406.02C402.313 196.035 399.307 193.017 399.307 189.322V119.65C399.307 115.93 402.313 112.912 406.02 112.912H465.061C468.767 112.912 471.773 115.93 471.773 119.65ZM469.778 122.798V119.65C469.778 117.048 467.678 114.941 465.087 114.941H406.046C403.454 114.941 401.354 117.048 401.354 119.65V189.322C401.354 191.924 403.454 194.031 406.046 194.031H465.087C467.678 194.031 469.778 191.924 469.778 189.322V186.174L465.76 184.093C461.018 181.647 458.089 176.808 458.089 171.449V137.523C458.089 132.19 461.018 127.325 465.76 124.879L469.778 122.798Z" fill="#6F6F72"/>
<path d="M454.149 154.486C454.149 159.715 449.925 163.956 444.715 163.956C439.506 163.956 435.281 159.715 435.281 154.486C435.281 149.257 439.506 145.016 444.715 145.016C449.925 145.016 454.149 149.257 454.149 154.486ZM437.277 154.486C437.277 158.597 440.62 161.953 444.715 161.953C448.81 161.953 452.154 158.597 452.154 154.486C452.154 150.376 448.81 147.019 444.715 147.019C440.62 147.019 437.277 150.376 437.277 154.486Z" fill="#6F6F72"/>
<path d="M443.627 162.681C443.627 162.681 443.627 162.863 443.601 162.942C443.445 163.488 442.901 163.8 442.383 163.644H442.305C441.76 163.488 441.449 162.916 441.605 162.395C441.76 161.849 442.305 161.537 442.823 161.693H442.901C443.341 161.849 443.627 162.239 443.627 162.681Z" fill="#6F6F72"/>
<path d="M368.128 189.296C368.128 189.687 367.894 190.077 367.48 190.233C366.961 190.441 366.391 190.181 366.184 189.661C365.277 187.345 363.54 185.524 361.285 184.509C359.03 183.521 356.491 183.469 354.184 184.353L335.341 191.742C335.082 191.846 334.823 191.846 334.564 191.742C334.331 191.638 334.123 191.43 334.046 191.195L332.802 187.995C332.594 187.475 332.853 186.903 333.372 186.695L352.214 179.306C354.521 178.395 356.335 176.652 357.346 174.363C358.331 172.099 358.383 169.55 357.501 167.234C357.294 166.714 357.553 166.142 358.072 165.933C358.59 165.725 359.16 165.985 359.367 166.506L368.076 188.906C368.128 189.036 368.154 189.14 368.154 189.27L368.128 189.296ZM335.549 189.504L353.458 182.48C357.035 181.075 360.897 181.647 363.851 183.651L359.808 173.244C359.652 173.894 359.445 174.545 359.16 175.169C357.942 177.927 355.739 180.06 352.94 181.153L335.03 188.178L335.549 189.504Z" fill="#6F6F72"/>
<path d="M339.644 200.249C339.644 200.379 339.618 200.535 339.566 200.665C339.462 200.9 339.255 201.108 339.022 201.186L285.035 222.337C284.516 222.545 283.946 222.285 283.739 221.765L275.16 199.677C275.056 199.417 275.082 199.157 275.16 198.896C275.264 198.662 275.471 198.454 275.704 198.376L329.691 177.225C330.21 177.016 330.78 177.277 330.987 177.797L339.566 199.885C339.566 199.885 339.644 200.119 339.644 200.249ZM285.216 220.074L337.337 199.677L329.484 179.462L277.363 199.859L285.216 220.074Z" fill="#6F6F72"/>
<path d="M368.128 119.676C368.128 119.676 368.128 119.91 368.05 120.04L359.341 142.415C359.134 142.935 358.564 143.195 358.046 142.987C357.527 142.779 357.268 142.206 357.475 141.686C359.341 136.899 356.957 131.488 352.214 129.64L333.372 122.252C332.853 122.044 332.594 121.471 332.802 120.951L334.046 117.751C334.149 117.491 334.331 117.309 334.564 117.204C334.797 117.1 335.082 117.1 335.341 117.204L354.184 124.593C356.491 125.504 359.005 125.452 361.285 124.437C363.54 123.448 365.303 121.627 366.184 119.312C366.391 118.791 366.961 118.531 367.48 118.739C367.868 118.896 368.128 119.286 368.128 119.676ZM359.808 135.728L363.851 125.322C360.897 127.325 357.035 127.897 353.458 126.492L335.549 119.468L335.03 120.795L352.94 127.819C356.516 129.224 358.979 132.268 359.808 135.754V135.728Z" fill="#6F6F72"/>
<path d="M339.644 108.697C339.644 108.697 339.644 108.931 339.566 109.061L330.987 131.149C330.884 131.41 330.702 131.592 330.469 131.696C330.236 131.8 329.951 131.8 329.691 131.696L275.704 110.544C275.186 110.336 274.927 109.764 275.134 109.243L283.713 87.1554C283.817 86.8952 283.998 86.7131 284.231 86.6091C284.465 86.505 284.75 86.505 285.009 86.6091L338.996 107.76C339.385 107.917 339.644 108.307 339.644 108.697ZM329.484 129.484L337.337 109.269L285.216 88.8725L277.363 109.087L329.484 129.484Z" fill="#6F6F72"/>
<path d="M415.946 113.926V195.046C415.946 195.592 415.506 196.061 414.935 196.061C414.365 196.061 413.925 195.618 413.925 195.046V113.926C413.925 113.38 414.365 112.912 414.935 112.912C415.506 112.912 415.946 113.354 415.946 113.926Z" fill="#6F6F72"/>
</svg>
