<svg width="494" height="322" viewBox="0 0 494 322" fill="none" xmlns="http://www.w3.org/2000/svg">
<path fill-rule="evenodd" clip-rule="evenodd" d="M89.7847 195.561C89.7847 195.561 89.7845 195.561 88.5508 194.708C87.3171 193.854 87.3179 193.853 87.3192 193.851L87.3236 193.845L87.3393 193.822L87.3987 193.738C87.4507 193.664 87.5275 193.556 87.6293 193.414C87.8329 193.131 88.1365 192.714 88.5417 192.171C89.3522 191.087 90.5689 189.501 92.2039 187.483C95.474 183.447 100.418 177.681 107.132 170.733C120.56 156.839 141.07 138.216 169.436 119.255C226.178 81.3266 314.322 42.0661 440.01 36.5636L440.141 39.5607C315.047 45.0372 227.429 84.0993 171.104 121.749C142.936 140.577 122.587 159.057 109.289 172.818C102.64 179.698 97.7538 185.398 94.5349 189.371C92.9254 191.358 91.7328 192.912 90.9451 193.967C90.5512 194.494 90.2585 194.896 90.0656 195.165C89.9691 195.299 89.8976 195.4 89.8508 195.466L89.7991 195.54L89.7847 195.561Z" fill="#F18922"/>
<path d="M87.5508 238.531V248.38H89.5508V238.531H158.022V248.666H160.022V238.531H228.156V248.666H230.156V238.531H298.289V248.666H300.289V238.531H368.423V248.666H370.423V238.531H438.583V248.666H440.583V238.531H468.879V236.531H89.5508V0H87.5508V22.4409H77.4319V24.4409H87.5508V65.2381H77.4319V67.2381H87.5508V108.061H77.4319V110.061H87.5508V150.884H77.4319V152.884H87.5508V193.708H77.4319V195.708H87.5508V236.531H77V238.531H87.5508Z" fill="#6F6F72"/>
<path d="M77.3 270.83V264.92C77.3 264.747 77.3067 264.557 77.32 264.35C77.3334 264.143 77.3534 263.933 77.38 263.72L72.16 270.83H77.3ZM81.03 270.83V271.85C81.03 271.957 80.9967 272.047 80.93 272.12C80.87 272.193 80.7734 272.23 80.64 272.23H78.86V276H77.3V272.23H70.94C70.8067 272.23 70.69 272.193 70.59 272.12C70.4967 272.04 70.4367 271.943 70.41 271.83L70.23 270.92L77.2 261.67H78.86V270.83H81.03Z" fill="#6F6F72"/>
<path d="M92.6016 268.84C92.6016 270.093 92.4649 271.18 92.1916 272.1C91.9249 273.013 91.5583 273.77 91.0916 274.37C90.6249 274.97 90.0716 275.417 89.4316 275.71C88.7983 276.003 88.1183 276.15 87.3916 276.15C86.6583 276.15 85.9749 276.003 85.3416 275.71C84.7149 275.417 84.1683 274.97 83.7016 274.37C83.2349 273.77 82.8683 273.013 82.6016 272.1C82.3349 271.18 82.2016 270.093 82.2016 268.84C82.2016 267.587 82.3349 266.5 82.6016 265.58C82.8683 264.66 83.2349 263.9 83.7016 263.3C84.1683 262.693 84.7149 262.243 85.3416 261.95C85.9749 261.657 86.6583 261.51 87.3916 261.51C88.1183 261.51 88.7983 261.657 89.4316 261.95C90.0716 262.243 90.6249 262.693 91.0916 263.3C91.5583 263.9 91.9249 264.66 92.1916 265.58C92.4649 266.5 92.6016 267.587 92.6016 268.84ZM90.7516 268.84C90.7516 267.747 90.6583 266.83 90.4716 266.09C90.2916 265.343 90.0449 264.743 89.7316 264.29C89.4249 263.837 89.0683 263.513 88.6616 263.32C88.2549 263.12 87.8316 263.02 87.3916 263.02C86.9516 263.02 86.5283 263.12 86.1216 263.32C85.7149 263.513 85.3583 263.837 85.0516 264.29C84.7449 264.743 84.4983 265.343 84.3116 266.09C84.1316 266.83 84.0416 267.747 84.0416 268.84C84.0416 269.933 84.1316 270.85 84.3116 271.59C84.4983 272.33 84.7449 272.927 85.0516 273.38C85.3583 273.833 85.7149 274.16 86.1216 274.36C86.5283 274.553 86.9516 274.65 87.3916 274.65C87.8316 274.65 88.2549 274.553 88.6616 274.36C89.0683 274.16 89.4249 273.833 89.7316 273.38C90.0449 272.927 90.2916 272.33 90.4716 271.59C90.6583 270.85 90.7516 269.933 90.7516 268.84Z" fill="#6F6F72"/>
<path d="M104.203 268.84C104.203 270.093 104.066 271.18 103.793 272.1C103.527 273.013 103.16 273.77 102.693 274.37C102.226 274.97 101.673 275.417 101.033 275.71C100.4 276.003 99.7198 276.15 98.9932 276.15C98.2598 276.15 97.5765 276.003 96.9432 275.71C96.3165 275.417 95.7698 274.97 95.3032 274.37C94.8365 273.77 94.4698 273.013 94.2032 272.1C93.9365 271.18 93.8032 270.093 93.8032 268.84C93.8032 267.587 93.9365 266.5 94.2032 265.58C94.4698 264.66 94.8365 263.9 95.3032 263.3C95.7698 262.693 96.3165 262.243 96.9432 261.95C97.5765 261.657 98.2598 261.51 98.9932 261.51C99.7198 261.51 100.4 261.657 101.033 261.95C101.673 262.243 102.226 262.693 102.693 263.3C103.16 263.9 103.527 264.66 103.793 265.58C104.066 266.5 104.203 267.587 104.203 268.84ZM102.353 268.84C102.353 267.747 102.26 266.83 102.073 266.09C101.893 265.343 101.646 264.743 101.333 264.29C101.026 263.837 100.67 263.513 100.263 263.32C99.8565 263.12 99.4332 263.02 98.9932 263.02C98.5532 263.02 98.1298 263.12 97.7232 263.32C97.3165 263.513 96.9598 263.837 96.6532 264.29C96.3465 264.743 96.0998 265.343 95.9132 266.09C95.7332 266.83 95.6432 267.747 95.6432 268.84C95.6432 269.933 95.7332 270.85 95.9132 271.59C96.0998 272.33 96.3465 272.927 96.6532 273.38C96.9598 273.833 97.3165 274.16 97.7232 274.36C98.1298 274.553 98.5532 274.65 98.9932 274.65C99.4332 274.65 99.8565 274.553 100.263 274.36C100.67 274.16 101.026 273.833 101.333 273.38C101.646 272.927 101.893 272.33 102.073 271.59C102.26 270.85 102.353 269.933 102.353 268.84Z" fill="#6F6F72"/>
<path d="M15.097 187.252L17 187.263V197.053H1.20404V187.263H3.10704V194.699H8.11204V188.715H9.94904V194.699H15.097V187.252Z" fill="#6F6F72"/>
<path d="M17 184.477H7.58404L7.44104 185.643C7.40437 185.812 7.34571 185.951 7.26504 186.061C7.17704 186.164 7.05237 186.215 6.89104 186.215H6.00004V184.477H5.16404C4.52604 184.477 3.9577 184.386 3.45904 184.202C2.96037 184.019 2.53871 183.759 2.19404 183.421C1.84204 183.077 1.57804 182.662 1.40204 182.178C1.2187 181.694 1.12704 181.152 1.12704 180.55C1.12704 180.059 1.20037 179.593 1.34704 179.153L2.43604 179.208C2.52404 179.216 2.59371 179.245 2.64504 179.296C2.68904 179.348 2.72204 179.417 2.74404 179.505C2.76604 179.586 2.7807 179.689 2.78804 179.813C2.78804 179.931 2.78804 180.059 2.78804 180.198C2.78804 180.528 2.82837 180.829 2.90904 181.1C2.9897 181.372 3.12537 181.603 3.31604 181.793C3.50671 181.984 3.7597 182.131 4.07504 182.233C4.38304 182.336 4.76804 182.387 5.23004 182.387H6.00004V177.492H5.46104C4.77904 177.492 4.15204 177.386 3.58004 177.173C3.00071 176.953 2.50204 176.627 2.08404 176.194C1.66604 175.762 1.34337 175.219 1.11604 174.566C0.881371 173.914 0.764038 173.151 0.764038 172.278C0.764038 172 0.782371 171.71 0.819038 171.409C0.855705 171.101 0.910705 170.841 0.984038 170.628L2.10604 170.705C2.2527 170.72 2.3297 170.812 2.33704 170.98C2.34437 171.149 2.34804 171.38 2.34804 171.673C2.34804 172.341 2.41404 172.913 2.54604 173.389C2.67804 173.859 2.87604 174.244 3.14004 174.544C3.40404 174.845 3.7377 175.065 4.14104 175.204C4.53704 175.344 4.99904 175.413 5.52704 175.413H6.00004V168.615H17V170.76H7.56204V175.347H17V177.492H7.56204V182.321H17V184.477Z" fill="#6F6F72"/>
<path d="M7.91404 157.671C7.99471 157.737 8.06071 157.803 8.11204 157.869C8.15604 157.927 8.17804 158.015 8.17804 158.133C8.17804 158.25 8.13404 158.375 8.04604 158.507C7.95071 158.631 7.85171 158.793 7.74904 158.991C7.63904 159.181 7.54004 159.416 7.45204 159.695C7.35671 159.966 7.30904 160.303 7.30904 160.707C7.30904 161.235 7.40437 161.7 7.59504 162.104C7.7857 162.507 8.05704 162.844 8.40904 163.116C8.76104 163.38 9.19004 163.581 9.69604 163.721C10.202 163.86 10.7704 163.93 11.401 163.93C12.0537 163.93 12.6367 163.856 13.15 163.71C13.656 163.563 14.085 163.354 14.437 163.083C14.7817 162.811 15.0457 162.481 15.229 162.093C15.405 161.704 15.493 161.271 15.493 160.795C15.493 160.333 15.438 159.951 15.328 159.651C15.2107 159.35 15.086 159.101 14.954 158.903C14.822 158.705 14.701 158.54 14.591 158.408C14.4737 158.276 14.415 158.14 14.415 158.001C14.415 157.825 14.481 157.689 14.613 157.594L15.405 156.978C15.7204 157.234 15.988 157.524 16.208 157.847C16.428 158.162 16.6077 158.499 16.747 158.859C16.8864 159.218 16.989 159.596 17.055 159.992C17.121 160.38 17.154 160.776 17.154 161.18C17.154 161.876 17.0257 162.529 16.769 163.138C16.5124 163.739 16.1384 164.263 15.647 164.711C15.1557 165.151 14.5544 165.499 13.843 165.756C13.1244 166.012 12.3104 166.141 11.401 166.141C10.5724 166.141 9.80604 166.027 9.10204 165.8C8.39804 165.565 7.79304 165.224 7.28704 164.777C6.77371 164.322 6.37404 163.765 6.08804 163.105C5.7947 162.445 5.64804 161.689 5.64804 160.839C5.64804 160.039 5.77637 159.335 6.03304 158.727C6.28971 158.118 6.65271 157.575 7.12204 157.099L7.91404 157.671Z" fill="#6F6F72"/>
<path d="M5.82404 152.731H17V154.876H5.82404V152.731ZM2.37004 152.324C2.56804 152.324 2.7587 152.365 2.94204 152.445C3.11804 152.526 3.2757 152.636 3.41504 152.775C3.54704 152.907 3.65337 153.065 3.73404 153.248C3.80737 153.432 3.84404 153.622 3.84404 153.82C3.84404 154.018 3.80737 154.205 3.73404 154.381C3.65337 154.557 3.54704 154.715 3.41504 154.854C3.2757 154.986 3.11804 155.093 2.94204 155.173C2.7587 155.247 2.56804 155.283 2.37004 155.283C2.16471 155.283 1.97404 155.247 1.79804 155.173C1.6147 155.093 1.45704 154.986 1.32504 154.854C1.1857 154.715 1.07937 154.557 1.00604 154.381C0.925372 154.205 0.885038 154.018 0.885038 153.82C0.885038 153.622 0.925372 153.432 1.00604 153.248C1.07937 153.065 1.1857 152.907 1.32504 152.775C1.45704 152.636 1.6147 152.526 1.79804 152.445C1.97404 152.365 2.16471 152.324 2.37004 152.324Z" fill="#6F6F72"/>
<path d="M10.169 142.223C9.74371 142.223 9.35137 142.285 8.99204 142.41C8.63271 142.527 8.32104 142.703 8.05704 142.938C7.79304 143.173 7.58771 143.458 7.44104 143.796C7.29437 144.133 7.22104 144.522 7.22104 144.962C7.22104 145.864 7.48137 146.575 8.00204 147.096C8.52271 147.609 9.24504 147.936 10.169 148.075V142.223ZM15.405 140.452C15.713 140.716 15.9807 141.02 16.208 141.365C16.428 141.709 16.6077 142.076 16.747 142.465C16.8864 142.854 16.989 143.257 17.055 143.675C17.121 144.085 17.154 144.492 17.154 144.896C17.154 145.666 17.0257 146.381 16.769 147.041C16.505 147.693 16.1237 148.262 15.625 148.746C15.119 149.222 14.4957 149.596 13.755 149.868C13.007 150.132 12.149 150.264 11.181 150.264C10.4037 150.264 9.68137 150.143 9.01404 149.901C8.33937 149.659 7.75271 149.314 7.25404 148.867C6.75537 148.412 6.36304 147.858 6.07704 147.206C5.79104 146.553 5.64804 145.82 5.64804 145.006C5.64804 144.324 5.7617 143.697 5.98904 143.125C6.20904 142.545 6.5317 142.047 6.95704 141.629C7.38237 141.211 7.90671 140.884 8.53004 140.65C9.15337 140.408 9.86471 140.287 10.664 140.287C10.994 140.287 11.2177 140.323 11.335 140.397C11.445 140.47 11.5 140.606 11.5 140.804V148.13C12.1674 148.108 12.7504 148.012 13.249 147.844C13.7404 147.675 14.151 147.444 14.481 147.151C14.811 146.85 15.0567 146.494 15.218 146.084C15.3794 145.673 15.46 145.215 15.46 144.709C15.46 144.232 15.405 143.821 15.295 143.477C15.185 143.125 15.0677 142.824 14.943 142.575C14.811 142.318 14.69 142.105 14.58 141.937C14.47 141.761 14.415 141.607 14.415 141.475C14.415 141.299 14.481 141.163 14.613 141.068L15.405 140.452Z" fill="#6F6F72"/>
<path d="M7.37504 135.968C7.11837 135.726 6.88371 135.473 6.67104 135.209C6.45837 134.945 6.27871 134.667 6.13204 134.373C5.97804 134.073 5.8607 133.754 5.78004 133.416C5.69204 133.072 5.64804 132.705 5.64804 132.316C5.64804 131.7 5.7507 131.161 5.95604 130.699C6.16137 130.23 6.45104 129.838 6.82504 129.522C7.1917 129.207 7.63537 128.969 8.15604 128.807C8.67671 128.646 9.25237 128.565 9.88304 128.565H17V130.721H9.88304C9.0837 130.721 8.46404 130.905 8.02404 131.271C7.5767 131.638 7.35304 132.199 7.35304 132.954C7.35304 133.504 7.48504 134.021 7.74904 134.505C8.0057 134.982 8.35771 135.426 8.80504 135.836H17V137.981H5.82404V136.694C5.82404 136.394 5.96704 136.207 6.25304 136.133L7.37504 135.968Z" fill="#6F6F72"/>
<path d="M7.91404 117.839C7.99471 117.905 8.06071 117.971 8.11204 118.037C8.15604 118.095 8.17804 118.183 8.17804 118.301C8.17804 118.418 8.13404 118.543 8.04604 118.675C7.95071 118.799 7.85171 118.961 7.74904 119.159C7.63904 119.349 7.54004 119.584 7.45204 119.863C7.35671 120.134 7.30904 120.471 7.30904 120.875C7.30904 121.403 7.40437 121.868 7.59504 122.272C7.7857 122.675 8.05704 123.012 8.40904 123.284C8.76104 123.548 9.19004 123.749 9.69604 123.889C10.202 124.028 10.7704 124.098 11.401 124.098C12.0537 124.098 12.6367 124.024 13.15 123.878C13.656 123.731 14.085 123.522 14.437 123.251C14.7817 122.979 15.0457 122.649 15.229 122.261C15.405 121.872 15.493 121.439 15.493 120.963C15.493 120.501 15.438 120.119 15.328 119.819C15.2107 119.518 15.086 119.269 14.954 119.071C14.822 118.873 14.701 118.708 14.591 118.576C14.4737 118.444 14.415 118.308 14.415 118.169C14.415 117.993 14.481 117.857 14.613 117.762L15.405 117.146C15.7204 117.402 15.988 117.692 16.208 118.015C16.428 118.33 16.6077 118.667 16.747 119.027C16.8864 119.386 16.989 119.764 17.055 120.16C17.121 120.548 17.154 120.944 17.154 121.348C17.154 122.044 17.0257 122.697 16.769 123.306C16.5124 123.907 16.1384 124.431 15.647 124.879C15.1557 125.319 14.5544 125.667 13.843 125.924C13.1244 126.18 12.3104 126.309 11.401 126.309C10.5724 126.309 9.80604 126.195 9.10204 125.968C8.39804 125.733 7.79304 125.392 7.28704 124.945C6.77371 124.49 6.37404 123.933 6.08804 123.273C5.7947 122.613 5.64804 121.857 5.64804 121.007C5.64804 120.207 5.77637 119.503 6.03304 118.895C6.28971 118.286 6.65271 117.743 7.12204 117.267L7.91404 117.839Z" fill="#6F6F72"/>
<path d="M5.82404 105.375L20.245 111.579C20.4064 111.645 20.531 111.733 20.619 111.843C20.707 111.953 20.751 112.115 20.751 112.327V113.922L16.296 111.876L5.82404 116.463V114.593C5.82404 114.41 5.86804 114.267 5.95604 114.164C6.04404 114.062 6.14304 113.988 6.25304 113.944L12.963 111.106C13.1317 111.048 13.304 110.993 13.48 110.941C13.6487 110.883 13.8174 110.835 13.986 110.798C13.81 110.747 13.6377 110.692 13.469 110.633C13.293 110.575 13.1207 110.512 12.952 110.446L6.25304 107.707C6.12837 107.656 6.02571 107.575 5.94504 107.465C5.86437 107.355 5.82404 107.231 5.82404 107.091V105.375Z" fill="#6F6F72"/>
<path d="M17.176 97.4319C17.4547 97.5345 17.66 97.6959 17.792 97.9159C17.9314 98.1359 18.001 98.3632 18.001 98.5979V99.4999L1.54504 92.9439C1.29571 92.8412 1.10504 92.6945 0.973039 92.5039C0.833705 92.3059 0.764038 92.0785 0.764038 91.8219V90.9089L17.176 97.4319Z" fill="#6F6F72"/>
<path d="M5.02104 76.6307C5.63704 76.6307 6.18704 76.7297 6.67104 76.9277C7.15504 77.1184 7.56571 77.375 7.90304 77.6977C8.23304 78.0204 8.48971 78.398 8.67304 78.8307C8.84904 79.256 8.93704 79.7034 8.93704 80.1727C8.93704 80.6787 8.84904 81.148 8.67304 81.5807C8.48971 82.006 8.23304 82.3764 7.90304 82.6917C7.56571 83.007 7.15504 83.2564 6.67104 83.4397C6.18704 83.6157 5.63704 83.7037 5.02104 83.7037C4.39037 83.7037 3.82937 83.6157 3.33804 83.4397C2.8467 83.2564 2.43237 83.007 2.09504 82.6917C1.75037 82.3764 1.49004 82.006 1.31404 81.5807C1.1307 81.148 1.03904 80.6787 1.03904 80.1727C1.03904 79.6667 1.1307 79.201 1.31404 78.7757C1.49004 78.343 1.75037 77.969 2.09504 77.6537C2.43237 77.331 2.8467 77.0817 3.33804 76.9057C3.82937 76.7224 4.39037 76.6307 5.02104 76.6307ZM5.02104 78.3027C4.55171 78.3027 4.15571 78.354 3.83304 78.4567C3.50304 78.552 3.23904 78.684 3.04104 78.8527C2.83571 79.0213 2.68904 79.2194 2.60104 79.4467C2.50571 79.674 2.45804 79.916 2.45804 80.1727C2.45804 80.4294 2.50571 80.6714 2.60104 80.8987C2.68904 81.126 2.83571 81.324 3.04104 81.4927C3.23904 81.654 3.50304 81.7823 3.83304 81.8777C4.15571 81.973 4.55171 82.0207 5.02104 82.0207C5.4757 82.0207 5.86437 81.973 6.18704 81.8777C6.50237 81.7823 6.75904 81.654 6.95704 81.4927C7.15504 81.324 7.29804 81.126 7.38604 80.8987C7.47404 80.6714 7.51804 80.4294 7.51804 80.1727C7.51804 79.916 7.47404 79.674 7.38604 79.4467C7.29804 79.2194 7.15504 79.0213 6.95704 78.8527C6.75904 78.684 6.50237 78.552 6.18704 78.4567C5.86437 78.354 5.4757 78.3027 5.02104 78.3027ZM1.55604 71.1307C1.4607 71.05 1.38004 70.9584 1.31404 70.8557C1.2407 70.7457 1.20404 70.5954 1.20404 70.4047V68.8537L16.659 80.4477C16.7617 80.5284 16.846 80.6237 16.912 80.7337C16.9707 80.8437 17 80.9757 17 81.1297V82.7247L1.55604 71.1307ZM13.271 67.8417C13.887 67.8417 14.437 67.9407 14.921 68.1387C15.405 68.3294 15.8157 68.586 16.153 68.9087C16.483 69.2314 16.7397 69.609 16.923 70.0417C17.099 70.467 17.187 70.9144 17.187 71.3837C17.187 71.8897 17.099 72.359 16.923 72.7917C16.7397 73.217 16.483 73.5874 16.153 73.9027C15.8157 74.218 15.405 74.4673 14.921 74.6507C14.437 74.8267 13.887 74.9147 13.271 74.9147C12.6404 74.9147 12.0794 74.8267 11.588 74.6507C11.0967 74.4673 10.6824 74.218 10.345 73.9027C10.0004 73.5874 9.74004 73.217 9.56404 72.7917C9.38804 72.359 9.30004 71.8897 9.30004 71.3837C9.30004 70.8777 9.38804 70.412 9.56404 69.9867C9.74004 69.554 10.0004 69.18 10.345 68.8647C10.6824 68.542 11.0967 68.2927 11.588 68.1167C12.0794 67.9333 12.6404 67.8417 13.271 67.8417ZM13.271 69.5137C12.8017 69.5137 12.4057 69.565 12.083 69.6677C11.7604 69.763 11.5 69.895 11.302 70.0637C11.0967 70.2324 10.95 70.4304 10.862 70.6577C10.7667 70.885 10.719 71.127 10.719 71.3837C10.719 71.6477 10.7667 71.8933 10.862 72.1207C10.95 72.3407 11.0967 72.535 11.302 72.7037C11.5 72.865 11.7604 72.9933 12.083 73.0887C12.4057 73.184 12.8017 73.2317 13.271 73.2317C13.733 73.2317 14.1217 73.184 14.437 73.0887C14.7524 72.9933 15.009 72.865 15.207 72.7037C15.405 72.535 15.548 72.3407 15.636 72.1207C15.724 71.8933 15.768 71.6477 15.768 71.3837C15.768 71.127 15.724 70.885 15.636 70.6577C15.548 70.4304 15.405 70.2324 15.207 70.0637C15.009 69.895 14.7524 69.763 14.437 69.6677C14.1217 69.565 13.733 69.5137 13.271 69.5137Z" fill="#6F6F72"/>
<path d="M106.716 304.162H101.7V318H99.368V304.162H94.33V302.204H106.716V304.162Z" fill="#6F6F72"/>
<path d="M113.287 311.169C113.287 310.744 113.225 310.351 113.1 309.992C112.983 309.633 112.807 309.321 112.572 309.057C112.337 308.793 112.051 308.588 111.714 308.441C111.377 308.294 110.988 308.221 110.548 308.221C109.646 308.221 108.935 308.481 108.414 309.002C107.901 309.523 107.574 310.245 107.435 311.169H113.287ZM115.058 316.405C114.794 316.713 114.49 316.981 114.145 317.208C113.8 317.428 113.434 317.608 113.045 317.747C112.656 317.886 112.253 317.989 111.835 318.055C111.424 318.121 111.017 318.154 110.614 318.154C109.844 318.154 109.129 318.026 108.469 317.769C107.816 317.505 107.248 317.124 106.764 316.625C106.287 316.119 105.913 315.496 105.642 314.755C105.378 314.007 105.246 313.149 105.246 312.181C105.246 311.404 105.367 310.681 105.609 310.014C105.851 309.339 106.196 308.753 106.643 308.254C107.098 307.755 107.651 307.363 108.304 307.077C108.957 306.791 109.69 306.648 110.504 306.648C111.186 306.648 111.813 306.762 112.385 306.989C112.964 307.209 113.463 307.532 113.881 307.957C114.299 308.382 114.625 308.907 114.86 309.53C115.102 310.153 115.223 310.865 115.223 311.664C115.223 311.994 115.186 312.218 115.113 312.335C115.04 312.445 114.904 312.5 114.706 312.5H107.38C107.402 313.167 107.497 313.75 107.666 314.249C107.835 314.74 108.066 315.151 108.359 315.481C108.66 315.811 109.015 316.057 109.426 316.218C109.837 316.379 110.295 316.46 110.801 316.46C111.278 316.46 111.688 316.405 112.033 316.295C112.385 316.185 112.686 316.068 112.935 315.943C113.192 315.811 113.404 315.69 113.573 315.58C113.749 315.47 113.903 315.415 114.035 315.415C114.211 315.415 114.347 315.481 114.442 315.613L115.058 316.405Z" fill="#6F6F72"/>
<path d="M117.529 318V306.824H118.816C119.116 306.824 119.303 306.967 119.377 307.253L119.531 308.32C119.941 307.829 120.396 307.429 120.895 307.121C121.401 306.806 121.991 306.648 122.666 306.648C123.406 306.648 124.008 306.853 124.47 307.264C124.932 307.667 125.269 308.217 125.482 308.914C125.643 308.518 125.852 308.177 126.109 307.891C126.365 307.605 126.651 307.37 126.967 307.187C127.282 307.004 127.616 306.868 127.968 306.78C128.327 306.692 128.69 306.648 129.057 306.648C129.651 306.648 130.179 306.743 130.641 306.934C131.11 307.117 131.506 307.389 131.829 307.748C132.151 308.107 132.397 308.551 132.566 309.079C132.734 309.607 132.819 310.208 132.819 310.883V318H130.663V310.883C130.663 310.047 130.479 309.416 130.113 308.991C129.753 308.566 129.225 308.353 128.529 308.353C128.221 308.353 127.927 308.408 127.649 308.518C127.37 308.621 127.124 308.778 126.912 308.991C126.706 309.204 126.541 309.468 126.417 309.783C126.299 310.098 126.241 310.465 126.241 310.883V318H124.085V310.883C124.085 310.018 123.912 309.38 123.568 308.969C123.223 308.558 122.717 308.353 122.05 308.353C121.588 308.353 121.159 308.474 120.763 308.716C120.367 308.958 120.004 309.288 119.674 309.706V318H117.529Z" fill="#6F6F72"/>
<path d="M137.849 315.25C138.201 315.712 138.579 316.035 138.982 316.218C139.393 316.401 139.851 316.493 140.357 316.493C141.34 316.493 142.099 316.141 142.634 315.437C143.177 314.726 143.448 313.692 143.448 312.335C143.448 311.624 143.386 311.019 143.261 310.52C143.144 310.014 142.968 309.603 142.733 309.288C142.506 308.965 142.224 308.731 141.886 308.584C141.549 308.43 141.168 308.353 140.742 308.353C140.119 308.353 139.576 308.492 139.114 308.771C138.66 309.05 138.238 309.446 137.849 309.959V315.25ZM137.739 308.496C137.974 308.217 138.223 307.964 138.487 307.737C138.759 307.502 139.048 307.304 139.356 307.143C139.664 306.974 139.991 306.846 140.335 306.758C140.687 306.663 141.061 306.615 141.457 306.615C142.095 306.615 142.671 306.74 143.184 306.989C143.705 307.238 144.149 307.605 144.515 308.089C144.882 308.573 145.164 309.171 145.362 309.882C145.568 310.593 145.67 311.411 145.67 312.335C145.67 313.164 145.557 313.934 145.329 314.645C145.109 315.349 144.79 315.961 144.372 316.482C143.962 317.003 143.456 317.413 142.854 317.714C142.26 318.007 141.589 318.154 140.841 318.154C140.174 318.154 139.602 318.044 139.125 317.824C138.649 317.604 138.223 317.296 137.849 316.9V321.751H135.704V306.824H136.991C137.292 306.824 137.479 306.967 137.552 307.253L137.739 308.496Z" fill="#6F6F72"/>
<path d="M155.482 311.169C155.482 310.744 155.42 310.351 155.295 309.992C155.178 309.633 155.002 309.321 154.767 309.057C154.533 308.793 154.247 308.588 153.909 308.441C153.572 308.294 153.183 308.221 152.743 308.221C151.841 308.221 151.13 308.481 150.609 309.002C150.096 309.523 149.77 310.245 149.63 311.169H155.482ZM157.253 316.405C156.989 316.713 156.685 316.981 156.34 317.208C155.996 317.428 155.629 317.608 155.24 317.747C154.852 317.886 154.448 317.989 154.03 318.055C153.62 318.121 153.213 318.154 152.809 318.154C152.039 318.154 151.324 318.026 150.664 317.769C150.012 317.505 149.443 317.124 148.959 316.625C148.483 316.119 148.109 315.496 147.837 314.755C147.573 314.007 147.441 313.149 147.441 312.181C147.441 311.404 147.562 310.681 147.804 310.014C148.046 309.339 148.391 308.753 148.838 308.254C149.293 307.755 149.847 307.363 150.499 307.077C151.152 306.791 151.885 306.648 152.699 306.648C153.381 306.648 154.008 306.762 154.58 306.989C155.16 307.209 155.658 307.532 156.076 307.957C156.494 308.382 156.821 308.907 157.055 309.53C157.297 310.153 157.418 310.865 157.418 311.664C157.418 311.994 157.382 312.218 157.308 312.335C157.235 312.445 157.099 312.5 156.901 312.5H149.575C149.597 313.167 149.693 313.75 149.861 314.249C150.03 314.74 150.261 315.151 150.554 315.481C150.855 315.811 151.211 316.057 151.621 316.218C152.032 316.379 152.49 316.46 152.996 316.46C153.473 316.46 153.884 316.405 154.228 316.295C154.58 316.185 154.881 316.068 155.13 315.943C155.387 315.811 155.6 315.69 155.768 315.58C155.944 315.47 156.098 315.415 156.23 315.415C156.406 315.415 156.542 315.481 156.637 315.613L157.253 316.405Z" fill="#6F6F72"/>
<path d="M161.748 308.969C162.107 308.236 162.54 307.66 163.046 307.242C163.552 306.824 164.161 306.615 164.872 306.615C165.114 306.615 165.341 306.644 165.554 306.703C165.774 306.754 165.965 306.835 166.126 306.945L165.983 308.562C165.932 308.76 165.811 308.859 165.62 308.859C165.517 308.859 165.363 308.841 165.158 308.804C164.952 308.76 164.732 308.738 164.498 308.738C164.153 308.738 163.849 308.789 163.585 308.892C163.321 308.987 163.083 309.134 162.87 309.332C162.665 309.523 162.481 309.761 162.32 310.047C162.159 310.326 162.008 310.645 161.869 311.004V318H159.724V306.824H160.956C161.191 306.824 161.348 306.868 161.429 306.956C161.517 307.037 161.579 307.183 161.616 307.396L161.748 308.969Z" fill="#6F6F72"/>
<path d="M173.615 313.039C172.742 313.068 172.001 313.138 171.393 313.248C170.784 313.351 170.289 313.49 169.908 313.666C169.526 313.842 169.251 314.051 169.083 314.293C168.914 314.528 168.83 314.792 168.83 315.085C168.83 315.364 168.874 315.606 168.962 315.811C169.057 316.009 169.182 316.174 169.336 316.306C169.497 316.431 169.684 316.522 169.897 316.581C170.109 316.64 170.34 316.669 170.59 316.669C170.92 316.669 171.22 316.636 171.492 316.57C171.77 316.504 172.031 316.412 172.273 316.295C172.515 316.17 172.746 316.02 172.966 315.844C173.186 315.668 173.402 315.466 173.615 315.239V313.039ZM167.323 308.386C167.946 307.792 168.621 307.348 169.347 307.055C170.08 306.762 170.883 306.615 171.756 306.615C172.394 306.615 172.958 306.721 173.45 306.934C173.941 307.139 174.355 307.429 174.693 307.803C175.03 308.177 175.283 308.624 175.452 309.145C175.628 309.666 175.716 310.241 175.716 310.872V318H174.759C174.546 318 174.385 317.967 174.275 317.901C174.165 317.828 174.077 317.696 174.011 317.505L173.78 316.526C173.494 316.79 173.211 317.025 172.933 317.23C172.654 317.428 172.361 317.6 172.053 317.747C171.752 317.886 171.429 317.993 171.085 318.066C170.74 318.139 170.359 318.176 169.941 318.176C169.501 318.176 169.086 318.117 168.698 318C168.316 317.875 167.983 317.688 167.697 317.439C167.411 317.19 167.183 316.878 167.015 316.504C166.853 316.13 166.773 315.694 166.773 315.195C166.773 314.755 166.89 314.333 167.125 313.93C167.367 313.519 167.755 313.153 168.291 312.83C168.833 312.507 169.537 312.243 170.403 312.038C171.275 311.833 172.346 311.715 173.615 311.686V310.872C173.615 310.029 173.435 309.398 173.076 308.98C172.716 308.562 172.188 308.353 171.492 308.353C171.022 308.353 170.626 308.412 170.304 308.529C169.988 308.646 169.713 308.778 169.479 308.925C169.251 309.064 169.05 309.193 168.874 309.31C168.705 309.427 168.529 309.486 168.346 309.486C168.199 309.486 168.071 309.446 167.961 309.365C167.858 309.284 167.774 309.189 167.708 309.079L167.323 308.386Z" fill="#6F6F72"/>
<path d="M181.935 318.176C181.033 318.176 180.336 317.923 179.845 317.417C179.361 316.911 179.119 316.189 179.119 315.25V308.562H177.821C177.696 308.562 177.59 308.525 177.502 308.452C177.421 308.371 177.381 308.254 177.381 308.1V307.231L179.196 306.978L179.68 303.645C179.709 303.52 179.764 303.425 179.845 303.359C179.933 303.286 180.043 303.249 180.175 303.249H181.264V307H184.432V308.562H181.264V315.107C181.264 315.547 181.37 315.877 181.583 316.097C181.803 316.31 182.081 316.416 182.419 316.416C182.617 316.416 182.785 316.39 182.925 316.339C183.071 316.288 183.196 316.233 183.299 316.174C183.401 316.108 183.489 316.049 183.563 315.998C183.636 315.947 183.702 315.921 183.761 315.921C183.834 315.921 183.889 315.939 183.926 315.976C183.97 316.005 184.014 316.057 184.058 316.13L184.696 317.164C184.344 317.487 183.926 317.736 183.442 317.912C182.958 318.088 182.455 318.176 181.935 318.176Z" fill="#6F6F72"/>
<path d="M195.702 306.824V318H194.415C194.122 318 193.931 317.857 193.843 317.571L193.689 316.449C193.447 316.706 193.194 316.94 192.93 317.153C192.666 317.366 192.384 317.549 192.083 317.703C191.783 317.85 191.464 317.963 191.126 318.044C190.789 318.132 190.426 318.176 190.037 318.176C189.421 318.176 188.879 318.073 188.409 317.868C187.947 317.663 187.559 317.377 187.243 317.01C186.928 316.636 186.69 316.189 186.528 315.668C186.367 315.147 186.286 314.572 186.286 313.941V306.824H188.442V313.941C188.442 314.74 188.626 315.364 188.992 315.811C189.359 316.251 189.92 316.471 190.675 316.471C191.225 316.471 191.739 316.343 192.215 316.086C192.692 315.822 193.139 315.463 193.557 315.008V306.824H195.702Z" fill="#6F6F72"/>
<path d="M200.72 308.969C201.08 308.236 201.512 307.66 202.018 307.242C202.524 306.824 203.133 306.615 203.844 306.615C204.087 306.615 204.314 306.644 204.526 306.703C204.746 306.754 204.937 306.835 205.098 306.945L204.955 308.562C204.904 308.76 204.783 308.859 204.592 308.859C204.49 308.859 204.336 308.841 204.13 308.804C203.925 308.76 203.705 308.738 203.47 308.738C203.126 308.738 202.822 308.789 202.557 308.892C202.293 308.987 202.055 309.134 201.842 309.332C201.637 309.523 201.454 309.761 201.292 310.047C201.131 310.326 200.981 310.645 200.841 311.004V318H198.696V306.824H199.928C200.163 306.824 200.321 306.868 200.401 306.956C200.489 307.037 200.552 307.183 200.588 307.396L200.72 308.969Z" fill="#6F6F72"/>
<path d="M213.748 311.169C213.748 310.744 213.686 310.351 213.561 309.992C213.444 309.633 213.268 309.321 213.033 309.057C212.798 308.793 212.512 308.588 212.175 308.441C211.838 308.294 211.449 308.221 211.009 308.221C210.107 308.221 209.396 308.481 208.875 309.002C208.362 309.523 208.035 310.245 207.896 311.169H213.748ZM215.519 316.405C215.255 316.713 214.951 316.981 214.606 317.208C214.261 317.428 213.895 317.608 213.506 317.747C213.117 317.886 212.714 317.989 212.296 318.055C211.885 318.121 211.478 318.154 211.075 318.154C210.305 318.154 209.59 318.026 208.93 317.769C208.277 317.505 207.709 317.124 207.225 316.625C206.748 316.119 206.374 315.496 206.103 314.755C205.839 314.007 205.707 313.149 205.707 312.181C205.707 311.404 205.828 310.681 206.07 310.014C206.312 309.339 206.657 308.753 207.104 308.254C207.559 307.755 208.112 307.363 208.765 307.077C209.418 306.791 210.151 306.648 210.965 306.648C211.647 306.648 212.274 306.762 212.846 306.989C213.425 307.209 213.924 307.532 214.342 307.957C214.76 308.382 215.086 308.907 215.321 309.53C215.563 310.153 215.684 310.865 215.684 311.664C215.684 311.994 215.647 312.218 215.574 312.335C215.501 312.445 215.365 312.5 215.167 312.5H207.841C207.863 313.167 207.958 313.75 208.127 314.249C208.296 314.74 208.527 315.151 208.82 315.481C209.121 315.811 209.476 316.057 209.887 316.218C210.298 316.379 210.756 316.46 211.262 316.46C211.739 316.46 212.149 316.405 212.494 316.295C212.846 316.185 213.147 316.068 213.396 315.943C213.653 315.811 213.865 315.69 214.034 315.58C214.21 315.47 214.364 315.415 214.496 315.415C214.672 315.415 214.808 315.481 214.903 315.613L215.519 316.405Z" fill="#6F6F72"/>
<path d="M228.317 306.648C229.138 306.648 229.879 306.784 230.539 307.055C231.206 307.319 231.771 307.704 232.233 308.21C232.702 308.709 233.062 309.314 233.311 310.025C233.56 310.729 233.685 311.521 233.685 312.401C233.685 313.281 233.56 314.077 233.311 314.788C233.062 315.499 232.702 316.104 232.233 316.603C231.771 317.102 231.206 317.487 230.539 317.758C229.879 318.022 229.138 318.154 228.317 318.154C227.488 318.154 226.74 318.022 226.073 317.758C225.413 317.487 224.848 317.102 224.379 316.603C223.91 316.104 223.547 315.499 223.29 314.788C223.041 314.077 222.916 313.281 222.916 312.401C222.916 311.521 223.041 310.729 223.29 310.025C223.547 309.314 223.91 308.709 224.379 308.21C224.848 307.704 225.413 307.319 226.073 307.055C226.74 306.784 227.488 306.648 228.317 306.648ZM228.317 316.482C229.373 316.482 230.161 316.126 230.682 315.415C231.203 314.704 231.463 313.703 231.463 312.412C231.463 311.121 231.203 310.12 230.682 309.409C230.161 308.69 229.373 308.331 228.317 308.331C227.246 308.331 226.447 308.69 225.919 309.409C225.398 310.12 225.138 311.121 225.138 312.412C225.138 313.703 225.398 314.704 225.919 315.415C226.447 316.126 227.246 316.482 228.317 316.482Z" fill="#6F6F72"/>
<path d="M236.558 318V308.584L235.392 308.441C235.224 308.404 235.084 308.346 234.974 308.265C234.872 308.177 234.82 308.052 234.82 307.891V307H236.558V305.988C236.558 305.35 236.65 304.782 236.833 304.283C237.017 303.784 237.277 303.363 237.614 303.018C237.959 302.666 238.37 302.402 238.846 302.226C239.33 302.043 239.873 301.951 240.474 301.951C240.98 301.951 241.446 302.024 241.871 302.171L241.827 303.249C241.82 303.344 241.791 303.418 241.739 303.469C241.688 303.513 241.618 303.546 241.53 303.568C241.45 303.59 241.347 303.605 241.222 303.612C241.105 303.612 240.977 303.612 240.837 303.612C240.507 303.612 240.207 303.652 239.935 303.733C239.664 303.814 239.433 303.949 239.242 304.14C239.052 304.331 238.905 304.584 238.802 304.899C238.7 305.207 238.648 305.592 238.648 306.054V307H241.783V308.562H238.714V318H236.558Z" fill="#6F6F72"/>
<path d="M252.232 318.176C251.33 318.176 250.633 317.923 250.142 317.417C249.658 316.911 249.416 316.189 249.416 315.25V308.562H248.118C247.993 308.562 247.887 308.525 247.799 308.452C247.718 308.371 247.678 308.254 247.678 308.1V307.231L249.493 306.978L249.977 303.645C250.006 303.52 250.061 303.425 250.142 303.359C250.23 303.286 250.34 303.249 250.472 303.249H251.561V307H254.729V308.562H251.561V315.107C251.561 315.547 251.667 315.877 251.88 316.097C252.1 316.31 252.378 316.416 252.716 316.416C252.914 316.416 253.082 316.39 253.222 316.339C253.368 316.288 253.493 316.233 253.596 316.174C253.698 316.108 253.786 316.049 253.86 315.998C253.933 315.947 253.999 315.921 254.058 315.921C254.131 315.921 254.186 315.939 254.223 315.976C254.267 316.005 254.311 316.057 254.355 316.13L254.993 317.164C254.641 317.487 254.223 317.736 253.739 317.912C253.255 318.088 252.752 318.176 252.232 318.176Z" fill="#6F6F72"/>
<path d="M258.849 308.243C259.319 307.766 259.836 307.381 260.4 307.088C260.972 306.795 261.629 306.648 262.369 306.648C262.985 306.648 263.524 306.751 263.986 306.956C264.456 307.161 264.848 307.451 265.163 307.825C265.479 308.192 265.717 308.635 265.878 309.156C266.04 309.677 266.12 310.252 266.12 310.883V318H263.964V310.883C263.964 310.084 263.781 309.464 263.414 309.024C263.048 308.577 262.487 308.353 261.731 308.353C261.181 308.353 260.664 308.485 260.18 308.749C259.704 309.006 259.26 309.358 258.849 309.805V318H256.704V301.764H258.849V308.243Z" fill="#6F6F72"/>
<path d="M276.418 311.169C276.418 310.744 276.356 310.351 276.231 309.992C276.114 309.633 275.938 309.321 275.703 309.057C275.468 308.793 275.182 308.588 274.845 308.441C274.508 308.294 274.119 308.221 273.679 308.221C272.777 308.221 272.066 308.481 271.545 309.002C271.032 309.523 270.705 310.245 270.566 311.169H276.418ZM278.189 316.405C277.925 316.713 277.621 316.981 277.276 317.208C276.931 317.428 276.565 317.608 276.176 317.747C275.787 317.886 275.384 317.989 274.966 318.055C274.555 318.121 274.148 318.154 273.745 318.154C272.975 318.154 272.26 318.026 271.6 317.769C270.947 317.505 270.379 317.124 269.895 316.625C269.418 316.119 269.044 315.496 268.773 314.755C268.509 314.007 268.377 313.149 268.377 312.181C268.377 311.404 268.498 310.681 268.74 310.014C268.982 309.339 269.327 308.753 269.774 308.254C270.229 307.755 270.782 307.363 271.435 307.077C272.088 306.791 272.821 306.648 273.635 306.648C274.317 306.648 274.944 306.762 275.516 306.989C276.095 307.209 276.594 307.532 277.012 307.957C277.43 308.382 277.756 308.907 277.991 309.53C278.233 310.153 278.354 310.865 278.354 311.664C278.354 311.994 278.317 312.218 278.244 312.335C278.171 312.445 278.035 312.5 277.837 312.5H270.511C270.533 313.167 270.628 313.75 270.797 314.249C270.966 314.74 271.197 315.151 271.49 315.481C271.79 315.811 272.146 316.057 272.557 316.218C272.968 316.379 273.426 316.46 273.932 316.46C274.409 316.46 274.819 316.405 275.164 316.295C275.516 316.185 275.817 316.068 276.066 315.943C276.323 315.811 276.535 315.69 276.704 315.58C276.88 315.47 277.034 315.415 277.166 315.415C277.342 315.415 277.478 315.481 277.573 315.613L278.189 316.405Z" fill="#6F6F72"/>
<path d="M288.369 308.243C288.838 307.766 289.355 307.381 289.92 307.088C290.492 306.795 291.148 306.648 291.889 306.648C292.505 306.648 293.044 306.751 293.506 306.956C293.975 307.161 294.367 307.451 294.683 307.825C294.998 308.192 295.236 308.635 295.398 309.156C295.559 309.677 295.64 310.252 295.64 310.883V318H293.484V310.883C293.484 310.084 293.301 309.464 292.934 309.024C292.567 308.577 292.006 308.353 291.251 308.353C290.701 308.353 290.184 308.485 289.7 308.749C289.223 309.006 288.78 309.358 288.369 309.805V318H286.224V301.764H288.369V308.243Z" fill="#6F6F72"/>
<path d="M305.937 311.169C305.937 310.744 305.875 310.351 305.75 309.992C305.633 309.633 305.457 309.321 305.222 309.057C304.988 308.793 304.702 308.588 304.364 308.441C304.027 308.294 303.638 308.221 303.198 308.221C302.296 308.221 301.585 308.481 301.064 309.002C300.551 309.523 300.225 310.245 300.085 311.169H305.937ZM307.708 316.405C307.444 316.713 307.14 316.981 306.795 317.208C306.451 317.428 306.084 317.608 305.695 317.747C305.307 317.886 304.903 317.989 304.485 318.055C304.075 318.121 303.668 318.154 303.264 318.154C302.494 318.154 301.779 318.026 301.119 317.769C300.467 317.505 299.898 317.124 299.414 316.625C298.938 316.119 298.564 315.496 298.292 314.755C298.028 314.007 297.896 313.149 297.896 312.181C297.896 311.404 298.017 310.681 298.259 310.014C298.501 309.339 298.846 308.753 299.293 308.254C299.748 307.755 300.302 307.363 300.954 307.077C301.607 306.791 302.34 306.648 303.154 306.648C303.836 306.648 304.463 306.762 305.035 306.989C305.615 307.209 306.113 307.532 306.531 307.957C306.949 308.382 307.276 308.907 307.51 309.53C307.752 310.153 307.873 310.865 307.873 311.664C307.873 311.994 307.837 312.218 307.763 312.335C307.69 312.445 307.554 312.5 307.356 312.5H300.03C300.052 313.167 300.148 313.75 300.316 314.249C300.485 314.74 300.716 315.151 301.009 315.481C301.31 315.811 301.666 316.057 302.076 316.218C302.487 316.379 302.945 316.46 303.451 316.46C303.928 316.46 304.339 316.405 304.683 316.295C305.035 316.185 305.336 316.068 305.585 315.943C305.842 315.811 306.055 315.69 306.223 315.58C306.399 315.47 306.553 315.415 306.685 315.415C306.861 315.415 306.997 315.481 307.092 315.613L307.708 316.405Z" fill="#6F6F72"/>
<path d="M316.185 313.039C315.312 313.068 314.572 313.138 313.963 313.248C313.354 313.351 312.859 313.49 312.478 313.666C312.097 313.842 311.822 314.051 311.653 314.293C311.484 314.528 311.4 314.792 311.4 315.085C311.4 315.364 311.444 315.606 311.532 315.811C311.627 316.009 311.752 316.174 311.906 316.306C312.067 316.431 312.254 316.522 312.467 316.581C312.68 316.64 312.911 316.669 313.16 316.669C313.49 316.669 313.791 316.636 314.062 316.57C314.341 316.504 314.601 316.412 314.843 316.295C315.085 316.17 315.316 316.02 315.536 315.844C315.756 315.668 315.972 315.466 316.185 315.239V313.039ZM309.893 308.386C310.516 307.792 311.191 307.348 311.917 307.055C312.65 306.762 313.453 306.615 314.326 306.615C314.964 306.615 315.529 306.721 316.02 306.934C316.511 307.139 316.926 307.429 317.263 307.803C317.6 308.177 317.853 308.624 318.022 309.145C318.198 309.666 318.286 310.241 318.286 310.872V318H317.329C317.116 318 316.955 317.967 316.845 317.901C316.735 317.828 316.647 317.696 316.581 317.505L316.35 316.526C316.064 316.79 315.782 317.025 315.503 317.23C315.224 317.428 314.931 317.6 314.623 317.747C314.322 317.886 314 317.993 313.655 318.066C313.31 318.139 312.929 318.176 312.511 318.176C312.071 318.176 311.657 318.117 311.268 318C310.887 317.875 310.553 317.688 310.267 317.439C309.981 317.19 309.754 316.878 309.585 316.504C309.424 316.13 309.343 315.694 309.343 315.195C309.343 314.755 309.46 314.333 309.695 313.93C309.937 313.519 310.326 313.153 310.861 312.83C311.404 312.507 312.108 312.243 312.973 312.038C313.846 311.833 314.916 311.715 316.185 311.686V310.872C316.185 310.029 316.005 309.398 315.646 308.98C315.287 308.562 314.759 308.353 314.062 308.353C313.593 308.353 313.197 308.412 312.874 308.529C312.559 308.646 312.284 308.778 312.049 308.925C311.822 309.064 311.62 309.193 311.444 309.31C311.275 309.427 311.099 309.486 310.916 309.486C310.769 309.486 310.641 309.446 310.531 309.365C310.428 309.284 310.344 309.189 310.278 309.079L309.893 308.386Z" fill="#6F6F72"/>
<path d="M324.505 318.176C323.603 318.176 322.906 317.923 322.415 317.417C321.931 316.911 321.689 316.189 321.689 315.25V308.562H320.391C320.266 308.562 320.16 308.525 320.072 308.452C319.991 308.371 319.951 308.254 319.951 308.1V307.231L321.766 306.978L322.25 303.645C322.279 303.52 322.334 303.425 322.415 303.359C322.503 303.286 322.613 303.249 322.745 303.249H323.834V307H327.002V308.562H323.834V315.107C323.834 315.547 323.94 315.877 324.153 316.097C324.373 316.31 324.652 316.416 324.989 316.416C325.187 316.416 325.356 316.39 325.495 316.339C325.642 316.288 325.766 316.233 325.869 316.174C325.972 316.108 326.06 316.049 326.133 315.998C326.206 315.947 326.272 315.921 326.331 315.921C326.404 315.921 326.459 315.939 326.496 315.976C326.54 316.005 326.584 316.057 326.628 316.13L327.266 317.164C326.914 317.487 326.496 317.736 326.012 317.912C325.528 318.088 325.026 318.176 324.505 318.176Z" fill="#6F6F72"/>
<path d="M341.131 308.749C341.073 308.844 341.01 308.914 340.944 308.958C340.878 308.995 340.794 309.013 340.691 309.013C340.574 309.013 340.442 308.973 340.295 308.892C340.156 308.811 339.984 308.723 339.778 308.628C339.58 308.533 339.346 308.445 339.074 308.364C338.803 308.283 338.48 308.243 338.106 308.243C337.798 308.243 337.516 308.283 337.259 308.364C337.01 308.437 336.797 308.544 336.621 308.683C336.445 308.815 336.31 308.976 336.214 309.167C336.119 309.35 336.071 309.548 336.071 309.761C336.071 310.04 336.152 310.271 336.313 310.454C336.482 310.637 336.698 310.795 336.962 310.927C337.234 311.059 337.538 311.18 337.875 311.29C338.22 311.393 338.568 311.503 338.92 311.62C339.28 311.737 339.628 311.873 339.965 312.027C340.31 312.174 340.614 312.361 340.878 312.588C341.15 312.808 341.366 313.076 341.527 313.391C341.696 313.706 341.78 314.091 341.78 314.546C341.78 315.067 341.685 315.551 341.494 315.998C341.311 316.438 341.036 316.819 340.669 317.142C340.31 317.465 339.863 317.718 339.327 317.901C338.792 318.084 338.18 318.176 337.49 318.176C336.72 318.176 336.009 318.048 335.356 317.791C334.704 317.534 334.157 317.208 333.717 316.812L334.223 315.987C334.282 315.884 334.355 315.807 334.443 315.756C334.531 315.697 334.649 315.668 334.795 315.668C334.935 315.668 335.078 315.719 335.224 315.822C335.371 315.925 335.547 316.038 335.752 316.163C335.958 316.28 336.207 316.39 336.5 316.493C336.794 316.588 337.16 316.636 337.6 316.636C337.967 316.636 338.286 316.592 338.557 316.504C338.829 316.409 339.052 316.284 339.228 316.13C339.412 315.969 339.547 315.785 339.635 315.58C339.723 315.375 339.767 315.158 339.767 314.931C339.767 314.638 339.683 314.396 339.514 314.205C339.353 314.007 339.137 313.838 338.865 313.699C338.601 313.56 338.297 313.439 337.952 313.336C337.608 313.233 337.256 313.123 336.896 313.006C336.537 312.889 336.185 312.753 335.84 312.599C335.496 312.445 335.188 312.251 334.916 312.016C334.652 311.781 334.436 311.495 334.267 311.158C334.106 310.821 334.025 310.41 334.025 309.926C334.025 309.493 334.113 309.079 334.289 308.683C334.473 308.287 334.733 307.939 335.07 307.638C335.415 307.337 335.837 307.099 336.335 306.923C336.841 306.74 337.417 306.648 338.062 306.648C338.803 306.648 339.47 306.765 340.064 307C340.666 307.235 341.179 307.557 341.604 307.968L341.131 308.749Z" fill="#6F6F72"/>
<path d="M348.866 306.648C349.687 306.648 350.428 306.784 351.088 307.055C351.755 307.319 352.32 307.704 352.782 308.21C353.251 308.709 353.61 309.314 353.86 310.025C354.109 310.729 354.234 311.521 354.234 312.401C354.234 313.281 354.109 314.077 353.86 314.788C353.61 315.499 353.251 316.104 352.782 316.603C352.32 317.102 351.755 317.487 351.088 317.758C350.428 318.022 349.687 318.154 348.866 318.154C348.037 318.154 347.289 318.022 346.622 317.758C345.962 317.487 345.397 317.102 344.928 316.603C344.458 316.104 344.095 315.499 343.839 314.788C343.589 314.077 343.465 313.281 343.465 312.401C343.465 311.521 343.589 310.729 343.839 310.025C344.095 309.314 344.458 308.709 344.928 308.21C345.397 307.704 345.962 307.319 346.622 307.055C347.289 306.784 348.037 306.648 348.866 306.648ZM348.866 316.482C349.922 316.482 350.71 316.126 351.231 315.415C351.751 314.704 352.012 313.703 352.012 312.412C352.012 311.121 351.751 310.12 351.231 309.409C350.71 308.69 349.922 308.331 348.866 308.331C347.795 308.331 346.996 308.69 346.468 309.409C345.947 310.12 345.687 311.121 345.687 312.412C345.687 313.703 345.947 314.704 346.468 315.415C346.996 316.126 347.795 316.482 348.866 316.482Z" fill="#6F6F72"/>
<path d="M365.923 306.824V318H364.636C364.343 318 364.152 317.857 364.064 317.571L363.91 316.449C363.668 316.706 363.415 316.94 363.151 317.153C362.887 317.366 362.605 317.549 362.304 317.703C362.003 317.85 361.684 317.963 361.347 318.044C361.01 318.132 360.647 318.176 360.258 318.176C359.642 318.176 359.099 318.073 358.63 317.868C358.168 317.663 357.779 317.377 357.464 317.01C357.149 316.636 356.91 316.189 356.749 315.668C356.588 315.147 356.507 314.572 356.507 313.941V306.824H358.663V313.941C358.663 314.74 358.846 315.364 359.213 315.811C359.58 316.251 360.141 316.471 360.896 316.471C361.446 316.471 361.959 316.343 362.436 316.086C362.913 315.822 363.36 315.463 363.778 315.008V306.824H365.923Z" fill="#6F6F72"/>
<path d="M370.941 308.969C371.301 308.236 371.733 307.66 372.239 307.242C372.745 306.824 373.354 306.615 374.065 306.615C374.307 306.615 374.535 306.644 374.747 306.703C374.967 306.754 375.158 306.835 375.319 306.945L375.176 308.562C375.125 308.76 375.004 308.859 374.813 308.859C374.711 308.859 374.557 308.841 374.351 308.804C374.146 308.76 373.926 308.738 373.691 308.738C373.347 308.738 373.042 308.789 372.778 308.892C372.514 308.987 372.276 309.134 372.063 309.332C371.858 309.523 371.675 309.761 371.513 310.047C371.352 310.326 371.202 310.645 371.062 311.004V318H368.917V306.824H370.149C370.384 306.824 370.542 306.868 370.622 306.956C370.71 307.037 370.773 307.183 370.809 307.396L370.941 308.969Z" fill="#6F6F72"/>
<path d="M384.398 308.914C384.332 308.995 384.266 309.061 384.2 309.112C384.141 309.156 384.053 309.178 383.936 309.178C383.818 309.178 383.694 309.134 383.562 309.046C383.437 308.951 383.276 308.852 383.078 308.749C382.887 308.639 382.652 308.54 382.374 308.452C382.102 308.357 381.765 308.309 381.362 308.309C380.834 308.309 380.368 308.404 379.965 308.595C379.561 308.786 379.224 309.057 378.953 309.409C378.689 309.761 378.487 310.19 378.348 310.696C378.208 311.202 378.139 311.77 378.139 312.401C378.139 313.054 378.212 313.637 378.359 314.15C378.505 314.656 378.714 315.085 378.986 315.437C379.257 315.782 379.587 316.046 379.976 316.229C380.364 316.405 380.797 316.493 381.274 316.493C381.736 316.493 382.117 316.438 382.418 316.328C382.718 316.211 382.968 316.086 383.166 315.954C383.364 315.822 383.529 315.701 383.661 315.591C383.793 315.474 383.928 315.415 384.068 315.415C384.244 315.415 384.379 315.481 384.475 315.613L385.091 316.405C384.834 316.72 384.544 316.988 384.222 317.208C383.906 317.428 383.569 317.608 383.21 317.747C382.85 317.886 382.473 317.989 382.077 318.055C381.688 318.121 381.292 318.154 380.889 318.154C380.192 318.154 379.539 318.026 378.931 317.769C378.329 317.512 377.805 317.138 377.358 316.647C376.918 316.156 376.569 315.554 376.313 314.843C376.056 314.124 375.928 313.31 375.928 312.401C375.928 311.572 376.041 310.806 376.269 310.102C376.503 309.398 376.844 308.793 377.292 308.287C377.746 307.774 378.304 307.374 378.964 307.088C379.624 306.795 380.379 306.648 381.23 306.648C382.029 306.648 382.733 306.776 383.342 307.033C383.95 307.29 384.493 307.653 384.97 308.122L384.398 308.914Z" fill="#6F6F72"/>
<path d="M394.303 311.169C394.303 310.744 394.24 310.351 394.116 309.992C393.998 309.633 393.822 309.321 393.588 309.057C393.353 308.793 393.067 308.588 392.73 308.441C392.392 308.294 392.004 308.221 391.564 308.221C390.662 308.221 389.95 308.481 389.43 309.002C388.916 309.523 388.59 310.245 388.451 311.169H394.303ZM396.074 316.405C395.81 316.713 395.505 316.981 395.161 317.208C394.816 317.428 394.449 317.608 394.061 317.747C393.672 317.886 393.269 317.989 392.851 318.055C392.44 318.121 392.033 318.154 391.63 318.154C390.86 318.154 390.145 318.026 389.485 317.769C388.832 317.505 388.264 317.124 387.78 316.625C387.303 316.119 386.929 315.496 386.658 314.755C386.394 314.007 386.262 313.149 386.262 312.181C386.262 311.404 386.383 310.681 386.625 310.014C386.867 309.339 387.211 308.753 387.659 308.254C388.113 307.755 388.667 307.363 389.32 307.077C389.972 306.791 390.706 306.648 391.52 306.648C392.202 306.648 392.829 306.762 393.401 306.989C393.98 307.209 394.479 307.532 394.897 307.957C395.315 308.382 395.641 308.907 395.876 309.53C396.118 310.153 396.239 310.865 396.239 311.664C396.239 311.994 396.202 312.218 396.129 312.335C396.055 312.445 395.92 312.5 395.722 312.5H388.396C388.418 313.167 388.513 313.75 388.682 314.249C388.85 314.74 389.081 315.151 389.375 315.481C389.675 315.811 390.031 316.057 390.442 316.218C390.852 316.379 391.311 316.46 391.817 316.46C392.293 316.46 392.704 316.405 393.049 316.295C393.401 316.185 393.701 316.068 393.951 315.943C394.207 315.811 394.42 315.69 394.589 315.58C394.765 315.47 394.919 315.415 395.051 315.415C395.227 315.415 395.362 315.481 395.458 315.613L396.074 316.405Z" fill="#6F6F72"/>
<path d="M405.385 318.176C405.282 318.455 405.121 318.66 404.901 318.792C404.681 318.931 404.453 319.001 404.219 319.001H403.317L409.873 302.545C409.975 302.296 410.122 302.105 410.313 301.973C410.511 301.834 410.738 301.764 410.995 301.764H411.908L405.385 318.176Z" fill="#6F6F72"/>
<path d="M419.102 305.603C419.102 305.104 419.193 304.639 419.377 304.206C419.567 303.766 419.824 303.385 420.147 303.062C420.477 302.739 420.862 302.486 421.302 302.303C421.742 302.112 422.218 302.017 422.732 302.017C423.245 302.017 423.722 302.112 424.162 302.303C424.609 302.486 424.998 302.739 425.328 303.062C425.658 303.385 425.914 303.766 426.098 304.206C426.288 304.639 426.384 305.104 426.384 305.603C426.384 306.094 426.288 306.56 426.098 307C425.914 307.433 425.658 307.814 425.328 308.144C424.998 308.467 424.609 308.723 424.162 308.914C423.722 309.105 423.245 309.2 422.732 309.2C422.218 309.2 421.742 309.105 421.302 308.914C420.862 308.723 420.477 308.467 420.147 308.144C419.824 307.814 419.567 307.433 419.377 307C419.193 306.56 419.102 306.094 419.102 305.603ZM420.62 305.614C420.62 305.915 420.671 306.197 420.774 306.461C420.884 306.718 421.034 306.941 421.225 307.132C421.415 307.323 421.639 307.473 421.896 307.583C422.152 307.693 422.431 307.748 422.732 307.748C423.032 307.748 423.311 307.693 423.568 307.583C423.832 307.473 424.059 307.323 424.25 307.132C424.44 306.941 424.587 306.718 424.69 306.461C424.8 306.197 424.855 305.915 424.855 305.614C424.855 305.313 424.8 305.035 424.69 304.778C424.587 304.514 424.44 304.287 424.25 304.096C424.059 303.898 423.832 303.744 423.568 303.634C423.311 303.524 423.032 303.469 422.732 303.469C422.431 303.469 422.152 303.524 421.896 303.634C421.639 303.744 421.415 303.898 421.225 304.096C421.034 304.287 420.884 304.514 420.774 304.778C420.671 305.035 420.62 305.313 420.62 305.614Z" fill="#6F6F72"/>
<path d="M440.289 314.612C440.421 314.612 440.534 314.663 440.63 314.766L441.554 315.778C440.908 316.541 440.12 317.131 439.189 317.549C438.265 317.967 437.15 318.176 435.845 318.176C434.701 318.176 433.663 317.978 432.732 317.582C431.808 317.186 431.016 316.632 430.356 315.921C429.703 315.21 429.197 314.359 428.838 313.369C428.478 312.379 428.299 311.29 428.299 310.102C428.299 308.914 428.486 307.825 428.86 306.835C429.241 305.845 429.773 304.994 430.455 304.283C431.137 303.572 431.951 303.018 432.897 302.622C433.85 302.226 434.902 302.028 436.054 302.028C437.176 302.028 438.173 302.211 439.046 302.578C439.918 302.945 440.677 303.432 441.323 304.041L440.553 305.13C440.501 305.211 440.435 305.277 440.355 305.328C440.281 305.379 440.182 305.405 440.058 305.405C439.918 305.405 439.753 305.335 439.563 305.196C439.379 305.057 439.134 304.903 438.826 304.734C438.525 304.558 438.151 304.4 437.704 304.261C437.256 304.122 436.699 304.052 436.032 304.052C435.247 304.052 434.528 304.191 433.876 304.47C433.223 304.741 432.658 305.137 432.182 305.658C431.712 306.171 431.346 306.806 431.082 307.561C430.825 308.309 430.697 309.156 430.697 310.102C430.697 311.063 430.832 311.917 431.104 312.665C431.375 313.413 431.749 314.047 432.226 314.568C432.702 315.089 433.263 315.485 433.909 315.756C434.554 316.027 435.251 316.163 435.999 316.163C436.453 316.163 436.86 316.137 437.22 316.086C437.586 316.027 437.92 315.943 438.221 315.833C438.529 315.723 438.818 315.584 439.09 315.415C439.361 315.239 439.629 315.03 439.893 314.788C439.951 314.737 440.014 314.696 440.08 314.667C440.146 314.63 440.215 314.612 440.289 314.612Z" fill="#6F6F72"/>
<path d="M47.4809 201.466C46.5434 201.466 45.7077 201.305 44.9738 200.983C44.2446 200.661 43.6646 200.213 43.2338 199.64C42.8076 199.063 42.5756 198.393 42.5377 197.63H44.3275C44.3654 198.099 44.5264 198.504 44.8105 198.845C45.0946 199.181 45.4662 199.442 45.9255 199.626C46.3848 199.811 46.8938 199.903 47.4525 199.903C48.0775 199.903 48.6315 199.794 49.1144 199.577C49.5974 199.359 49.9762 199.056 50.2508 198.667C50.5254 198.279 50.6627 197.829 50.6627 197.318C50.6627 196.783 50.5302 196.312 50.265 195.905C49.9999 195.493 49.6116 195.171 49.1002 194.939C48.5889 194.707 47.9639 194.591 47.2252 194.591H46.0605V193.028H47.2252C47.8029 193.028 48.3095 192.924 48.7451 192.716C49.1855 192.507 49.5287 192.214 49.775 191.835C50.0259 191.456 50.1514 191.011 50.1514 190.5C50.1514 190.007 50.0425 189.579 49.8247 189.214C49.6069 188.85 49.2991 188.566 48.9014 188.362C48.5084 188.158 48.0444 188.057 47.5093 188.057C47.0074 188.057 46.534 188.149 46.0889 188.334C45.6485 188.514 45.2887 188.776 45.0093 189.122C44.73 189.463 44.5785 189.875 44.5548 190.358H42.8502C42.8786 189.595 43.1083 188.928 43.5392 188.355C43.97 187.777 44.5335 187.327 45.2295 187.005C45.9303 186.684 46.6997 186.523 47.5377 186.523C48.4374 186.523 49.2091 186.705 49.8531 187.069C50.497 187.429 50.9918 187.905 51.3375 188.497C51.6831 189.089 51.8559 189.728 51.8559 190.415C51.8559 191.234 51.6405 191.932 51.2096 192.51C50.7835 193.087 50.2035 193.488 49.4696 193.71V193.824C50.3881 193.975 51.1054 194.366 51.6215 194.996C52.1376 195.621 52.3957 196.395 52.3957 197.318C52.3957 198.109 52.1803 198.819 51.7494 199.449C51.3232 200.074 50.7409 200.566 50.0022 200.926C49.2636 201.286 48.4232 201.466 47.4809 201.466Z" fill="#6F6F72"/>
<path d="M59.846 201.466C59.0126 201.466 58.2622 201.3 57.5946 200.969C56.9269 200.637 56.3919 200.183 55.9894 199.605C55.587 199.027 55.3668 198.369 55.3289 197.63H57.0335C57.0998 198.289 57.3981 198.833 57.9284 199.264C58.4634 199.69 59.1026 199.903 59.846 199.903C60.4426 199.903 60.9729 199.764 61.4369 199.484C61.9056 199.205 62.2726 198.821 62.5377 198.334C62.8076 197.841 62.9426 197.285 62.9426 196.665C62.9426 196.03 62.8029 195.464 62.5235 194.967C62.2489 194.465 61.8701 194.07 61.3872 193.781C60.9042 193.492 60.3526 193.345 59.7323 193.341C59.2873 193.336 58.8303 193.405 58.3616 193.547C57.8928 193.684 57.507 193.862 57.2039 194.079L55.5562 193.88L56.4369 186.721H63.9937V188.284H57.9142L57.4028 192.574H57.488C57.7863 192.337 58.1604 192.14 58.6102 191.984C59.06 191.828 59.5287 191.75 60.0164 191.75C60.9066 191.75 61.6997 191.963 62.3957 192.389C63.0964 192.81 63.6457 193.388 64.0434 194.122C64.4459 194.856 64.6471 195.694 64.6471 196.636C64.6471 197.564 64.4388 198.393 64.0221 199.122C63.6102 199.846 63.042 200.419 62.3176 200.841C61.5931 201.257 60.7693 201.466 59.846 201.466Z" fill="#6F6F72"/>
<path d="M47.4205 244.199C46.483 244.199 45.6473 244.038 44.9134 243.716C44.1842 243.394 43.6042 242.947 43.1733 242.374C42.7472 241.796 42.5152 241.126 42.4773 240.364H44.2671C44.305 240.832 44.4659 241.237 44.75 241.578C45.0341 241.914 45.4058 242.175 45.8651 242.359C46.3244 242.544 46.8334 242.636 47.3921 242.636C48.0171 242.636 48.5711 242.527 49.054 242.31C49.537 242.092 49.9158 241.789 50.1904 241.401C50.465 241.012 50.6023 240.563 50.6023 240.051C50.6023 239.516 50.4697 239.045 50.2046 238.638C49.9394 238.226 49.5512 237.904 49.0398 237.672C48.5284 237.44 47.9034 237.324 47.1648 237.324H46V235.761H47.1648C47.7425 235.761 48.2491 235.657 48.6847 235.449C49.125 235.241 49.4683 234.947 49.7145 234.568C49.9655 234.189 50.091 233.744 50.091 233.233C50.091 232.741 49.982 232.312 49.7642 231.947C49.5464 231.583 49.2387 231.299 48.841 231.095C48.448 230.892 47.9839 230.79 47.4489 230.79C46.947 230.79 46.4735 230.882 46.0285 231.067C45.5881 231.247 45.2283 231.509 44.9489 231.855C44.6695 232.196 44.518 232.608 44.4944 233.091H42.7898C42.8182 232.329 43.0479 231.661 43.4787 231.088C43.9096 230.51 44.4731 230.061 45.1691 229.739C45.8698 229.417 46.6392 229.256 47.4773 229.256C48.3769 229.256 49.1487 229.438 49.7927 229.803C50.4366 230.162 50.9314 230.638 51.277 231.23C51.6227 231.822 51.7955 232.461 51.7955 233.148C51.7955 233.967 51.5801 234.665 51.1492 235.243C50.723 235.821 50.143 236.221 49.4091 236.443V236.557C50.3277 236.708 51.045 237.099 51.5611 237.729C52.0772 238.354 52.3353 239.128 52.3353 240.051C52.3353 240.842 52.1198 241.552 51.689 242.182C51.2628 242.807 50.6804 243.299 49.9418 243.659C49.2032 244.019 48.3627 244.199 47.4205 244.199Z" fill="#6F6F72"/>
<path d="M59.9844 244.199C58.9143 244.199 58.0029 243.908 57.25 243.325C56.4972 242.738 55.9219 241.888 55.5242 240.776C55.1265 239.658 54.9276 238.309 54.9276 236.727C54.9276 235.155 55.1265 233.813 55.5242 232.7C55.9266 231.583 56.5043 230.731 57.2571 230.143C58.0147 229.552 58.9238 229.256 59.9844 229.256C61.045 229.256 61.9517 229.552 62.7046 230.143C63.4622 230.731 64.0398 231.583 64.4375 232.7C64.84 233.813 65.0412 235.155 65.0412 236.727C65.0412 238.309 64.8424 239.658 64.4446 240.776C64.0469 241.888 63.4716 242.738 62.7188 243.325C61.9659 243.908 61.0545 244.199 59.9844 244.199ZM59.9844 242.636C61.045 242.636 61.8689 242.125 62.456 241.102C63.0431 240.08 63.3367 238.621 63.3367 236.727C63.3367 235.468 63.2017 234.395 62.9319 233.51C62.6667 232.625 62.2832 231.95 61.7813 231.486C61.2841 231.022 60.6852 230.79 59.9844 230.79C58.9333 230.79 58.1118 231.308 57.5199 232.345C56.9281 233.377 56.6321 234.838 56.6321 236.727C56.6321 237.987 56.7647 239.057 57.0299 239.938C57.295 240.818 57.6762 241.488 58.1733 241.947C58.6752 242.407 59.2789 242.636 59.9844 242.636Z" fill="#6F6F72"/>
<path d="M42.2252 155.461V154.012L48.6173 143.898H49.6684V146.142H48.9582L44.1286 153.785V153.898H52.7366V155.461H42.2252ZM49.0718 158.444V143.898H50.748V158.444H49.0718Z" fill="#6F6F72"/>
<path d="M60.1425 158.642C59.0724 158.642 58.161 158.351 57.4081 157.769C56.6553 157.182 56.08 156.332 55.6823 155.219C55.2845 154.102 55.0857 152.752 55.0857 151.171C55.0857 149.599 55.2845 148.257 55.6823 147.144C56.0847 146.026 56.6624 145.174 57.4152 144.587C58.1728 143.995 59.0819 143.699 60.1425 143.699C61.2031 143.699 62.1098 143.995 62.8627 144.587C63.6202 145.174 64.1979 146.026 64.5956 147.144C64.9981 148.257 65.1993 149.599 65.1993 151.171C65.1993 152.752 65.0005 154.102 64.6027 155.219C64.205 156.332 63.6297 157.182 62.8769 157.769C62.124 158.351 61.2126 158.642 60.1425 158.642ZM60.1425 157.08C61.2031 157.08 62.027 156.569 62.6141 155.546C63.2012 154.523 63.4948 153.065 63.4948 151.171C63.4948 149.911 63.3598 148.839 63.0899 147.954C62.8248 147.068 62.4413 146.393 61.9394 145.929C61.4422 145.465 60.8433 145.233 60.1425 145.233C59.0914 145.233 58.2699 145.752 57.678 146.789C57.0861 147.821 56.7902 149.282 56.7902 151.171C56.7902 152.43 56.9228 153.5 57.188 154.381C57.4531 155.262 57.8343 155.932 58.3314 156.391C58.8333 156.85 59.437 157.08 60.1425 157.08Z" fill="#6F6F72"/>
<path d="M42.2252 112.637V111.189L48.6173 101.075H49.6684V103.319H48.9582L44.1286 110.961V111.075H52.7366V112.637H42.2252ZM49.0718 115.62V101.075H50.748V115.62H49.0718Z" fill="#6F6F72"/>
<path d="M59.9436 115.819C59.1103 115.819 58.3598 115.654 57.6922 115.322C57.0246 114.991 56.4896 114.536 56.0871 113.958C55.6846 113.381 55.4645 112.723 55.4266 111.984H57.1311C57.1974 112.642 57.4957 113.187 58.026 113.618C58.5611 114.044 59.2003 114.257 59.9436 114.257C60.5402 114.257 61.0705 114.117 61.5345 113.838C62.0033 113.558 62.3702 113.175 62.6354 112.687C62.9053 112.195 63.0402 111.638 63.0402 111.018C63.0402 110.384 62.9005 109.818 62.6212 109.321C62.3466 108.819 61.9678 108.423 61.4848 108.135C61.0019 107.846 60.4503 107.699 59.83 107.694C59.3849 107.69 58.928 107.758 58.4593 107.9C57.9905 108.038 57.6046 108.215 57.3016 108.433L55.6539 108.234L56.5345 101.075H64.0914V102.637H58.0118L57.5005 106.927H57.5857C57.884 106.69 58.258 106.494 58.7078 106.338C59.1576 106.181 59.6264 106.103 60.1141 106.103C61.0042 106.103 61.7973 106.316 62.4933 106.743C63.1941 107.164 63.7433 107.742 64.1411 108.476C64.5435 109.209 64.7448 110.047 64.7448 110.99C64.7448 111.918 64.5364 112.746 64.1198 113.476C63.7078 114.2 63.1397 114.773 62.4152 115.194C61.6908 115.611 60.8669 115.819 59.9436 115.819Z" fill="#6F6F72"/>
<path d="M47.1116 72.9961C46.2783 72.9961 45.5278 72.8303 44.8602 72.4989C44.1926 72.1675 43.6575 71.7129 43.2551 71.1353C42.8526 70.5576 42.6324 69.8995 42.5946 69.1608H44.2991C44.3654 69.819 44.6637 70.3635 45.194 70.7944C45.729 71.2205 46.3682 71.4336 47.1116 71.4336C47.7082 71.4336 48.2385 71.2939 48.7025 71.0145C49.1713 70.7352 49.5382 70.3516 49.8034 69.864C50.0732 69.3715 50.2082 68.8152 50.2082 68.1949C50.2082 67.5605 50.0685 66.9946 49.7892 66.4975C49.5145 65.9956 49.1357 65.6002 48.6528 65.3114C48.1698 65.0226 47.6182 64.8758 46.998 64.8711C46.5529 64.8663 46.096 64.935 45.6272 65.077C45.1585 65.2143 44.7726 65.3919 44.4696 65.6097L42.8218 65.4108L43.7025 58.2517H51.2593V59.8142H45.1798L44.6684 64.104H44.7536C45.0519 63.8673 45.426 63.6708 45.8758 63.5145C46.3256 63.3583 46.7944 63.2801 47.2821 63.2801C48.1722 63.2801 48.9653 63.4932 49.6613 63.9194C50.3621 64.3408 50.9113 64.9184 51.309 65.6523C51.7115 66.3862 51.9127 67.2243 51.9127 68.1665C51.9127 69.0945 51.7044 69.9231 51.2877 70.6523C50.8758 71.3767 50.3076 71.9497 49.5832 72.3711C48.8588 72.7877 48.0349 72.9961 47.1116 72.9961Z" fill="#6F6F72"/>
<path d="M59.4784 72.9961C58.4084 72.9961 57.4969 72.7049 56.7441 72.1225C55.9912 71.5354 55.4159 70.6854 55.0182 69.5728C54.6205 68.4553 54.4216 67.1059 54.4216 65.5245C54.4216 63.9525 54.6205 62.6102 55.0182 61.4975C55.4207 60.3801 55.9983 59.5278 56.7512 58.9407C57.5087 58.3488 58.4178 58.0529 59.4784 58.0529C60.539 58.0529 61.4458 58.3488 62.1986 58.9407C62.9562 59.5278 63.5338 60.3801 63.9316 61.4975C64.334 62.6102 64.5353 63.9525 64.5353 65.5245C64.5353 67.1059 64.3364 68.4553 63.9387 69.5728C63.5409 70.6854 62.9656 71.5354 62.2128 72.1225C61.46 72.7049 60.5485 72.9961 59.4784 72.9961ZM59.4784 71.4336C60.539 71.4336 61.3629 70.9222 61.95 69.8995C62.5371 68.8767 62.8307 67.4184 62.8307 65.5245C62.8307 64.265 62.6958 63.1926 62.4259 62.3071C62.1607 61.4217 61.7772 60.747 61.2753 60.283C60.7781 59.819 60.1792 59.587 59.4784 59.587C58.4273 59.587 57.6058 60.1054 57.0139 61.1424C56.4221 62.1746 56.1262 63.6353 56.1262 65.5245C56.1262 66.7839 56.2587 67.854 56.5239 68.7347C56.789 69.6154 57.1702 70.2854 57.6674 70.7446C58.1692 71.2039 58.7729 71.4336 59.4784 71.4336Z" fill="#6F6F72"/>
<path d="M47.1116 30.1989C46.2783 30.1989 45.5278 30.0332 44.8602 29.7017C44.1926 29.3703 43.6575 28.9157 43.2551 28.3381C42.8526 27.7604 42.6324 27.1023 42.5946 26.3637H44.2991C44.3654 27.0218 44.6637 27.5663 45.194 27.9972C45.729 28.4233 46.3682 28.6364 47.1116 28.6364C47.7082 28.6364 48.2385 28.4967 48.7025 28.2173C49.1713 27.938 49.5382 27.5545 49.8034 27.0668C50.0732 26.5744 50.2082 26.018 50.2082 25.3977C50.2082 24.7633 50.0685 24.1975 49.7892 23.7003C49.5145 23.1984 49.1357 22.803 48.6528 22.5142C48.1698 22.2254 47.6182 22.0786 46.998 22.0739C46.5529 22.0691 46.096 22.1378 45.6272 22.2798C45.1585 22.4172 44.7726 22.5947 44.4696 22.8125L42.8218 22.6137L43.7025 15.4546H51.2593V17.0171H45.1798L44.6684 21.3068H44.7536C45.0519 21.0701 45.426 20.8736 45.8758 20.7173C46.3256 20.5611 46.7944 20.483 47.2821 20.483C48.1722 20.483 48.9653 20.696 49.6613 21.1222C50.3621 21.5436 50.9113 22.1212 51.309 22.8551C51.7115 23.589 51.9127 24.4271 51.9127 25.3693C51.9127 26.2974 51.7044 27.126 51.2877 27.8551C50.8758 28.5796 50.3076 29.1525 49.5832 29.5739C48.8588 29.9905 48.0349 30.1989 47.1116 30.1989Z" fill="#6F6F72"/>
<path d="M59.2796 30.1989C58.4462 30.1989 57.6958 30.0332 57.0281 29.7017C56.3605 29.3703 55.8255 28.9157 55.423 28.3381C55.0206 27.7604 54.8004 27.1023 54.7625 26.3637H56.4671C56.5334 27.0218 56.8316 27.5663 57.362 27.9972C57.897 28.4233 58.5362 28.6364 59.2796 28.6364C59.8762 28.6364 60.4065 28.4967 60.8705 28.2173C61.3392 27.938 61.7062 27.5545 61.9713 27.0668C62.2412 26.5744 62.3762 26.018 62.3762 25.3977C62.3762 24.7633 62.2365 24.1975 61.9571 23.7003C61.6825 23.1984 61.3037 22.803 60.8208 22.5142C60.3378 22.2254 59.7862 22.0786 59.1659 22.0739C58.7209 22.0691 58.2639 22.1378 57.7952 22.2798C57.3264 22.4172 56.9406 22.5947 56.6375 22.8125L54.9898 22.6137L55.8705 15.4546H63.4273V17.0171H57.3478L56.8364 21.3068H56.9216C57.2199 21.0701 57.594 20.8736 58.0438 20.7173C58.4936 20.5611 58.9623 20.483 59.45 20.483C60.3402 20.483 61.1333 20.696 61.8293 21.1222C62.53 21.5436 63.0793 22.1212 63.477 22.8551C63.8795 23.589 64.0807 24.4271 64.0807 25.3693C64.0807 26.2974 63.8724 27.126 63.4557 27.8551C63.0438 28.5796 62.4756 29.1525 61.7512 29.5739C61.0267 29.9905 60.2029 30.1989 59.2796 30.1989Z" fill="#6F6F72"/>
<path d="M144.62 267.08C145.367 266.92 146.053 266.84 146.68 266.84C147.427 266.84 148.087 266.95 148.66 267.17C149.233 267.39 149.71 267.693 150.09 268.08C150.477 268.467 150.767 268.923 150.96 269.45C151.16 269.977 151.26 270.55 151.26 271.17C151.26 271.93 151.127 272.617 150.86 273.23C150.6 273.843 150.237 274.37 149.77 274.81C149.31 275.243 148.767 275.577 148.14 275.81C147.513 276.043 146.837 276.16 146.11 276.16C145.69 276.16 145.287 276.117 144.9 276.03C144.513 275.95 144.15 275.84 143.81 275.7C143.477 275.56 143.167 275.4 142.88 275.22C142.593 275.04 142.34 274.85 142.12 274.65L142.67 273.89C142.79 273.717 142.947 273.63 143.14 273.63C143.273 273.63 143.423 273.683 143.59 273.79C143.757 273.89 143.96 274.003 144.2 274.13C144.44 274.257 144.72 274.373 145.04 274.48C145.367 274.58 145.753 274.63 146.2 274.63C146.7 274.63 147.15 274.55 147.55 274.39C147.95 274.23 148.293 274.003 148.58 273.71C148.867 273.41 149.087 273.053 149.24 272.64C149.393 272.227 149.47 271.763 149.47 271.25C149.47 270.803 149.403 270.4 149.27 270.04C149.143 269.68 148.947 269.373 148.68 269.12C148.42 268.867 148.093 268.67 147.7 268.53C147.307 268.39 146.847 268.32 146.32 268.32C145.96 268.32 145.583 268.35 145.19 268.41C144.803 268.47 144.407 268.567 144 268.7L142.88 268.37L144.03 261.67H150.82V262.45C150.82 262.703 150.74 262.913 150.58 263.08C150.427 263.24 150.16 263.32 149.78 263.32H145.28L144.62 267.08Z" fill="#6F6F72"/>
<path d="M163.602 268.84C163.602 270.093 163.465 271.18 163.192 272.1C162.925 273.013 162.558 273.77 162.092 274.37C161.625 274.97 161.072 275.417 160.432 275.71C159.798 276.003 159.118 276.15 158.392 276.15C157.658 276.15 156.975 276.003 156.342 275.71C155.715 275.417 155.168 274.97 154.702 274.37C154.235 273.77 153.868 273.013 153.602 272.1C153.335 271.18 153.202 270.093 153.202 268.84C153.202 267.587 153.335 266.5 153.602 265.58C153.868 264.66 154.235 263.9 154.702 263.3C155.168 262.693 155.715 262.243 156.342 261.95C156.975 261.657 157.658 261.51 158.392 261.51C159.118 261.51 159.798 261.657 160.432 261.95C161.072 262.243 161.625 262.693 162.092 263.3C162.558 263.9 162.925 264.66 163.192 265.58C163.465 266.5 163.602 267.587 163.602 268.84ZM161.752 268.84C161.752 267.747 161.658 266.83 161.472 266.09C161.292 265.343 161.045 264.743 160.732 264.29C160.425 263.837 160.068 263.513 159.662 263.32C159.255 263.12 158.832 263.02 158.392 263.02C157.952 263.02 157.528 263.12 157.122 263.32C156.715 263.513 156.358 263.837 156.052 264.29C155.745 264.743 155.498 265.343 155.312 266.09C155.132 266.83 155.042 267.747 155.042 268.84C155.042 269.933 155.132 270.85 155.312 271.59C155.498 272.33 155.745 272.927 156.052 273.38C156.358 273.833 156.715 274.16 157.122 274.36C157.528 274.553 157.952 274.65 158.392 274.65C158.832 274.65 159.255 274.553 159.662 274.36C160.068 274.16 160.425 273.833 160.732 273.38C161.045 272.927 161.292 272.33 161.472 271.59C161.658 270.85 161.752 269.933 161.752 268.84Z" fill="#6F6F72"/>
<path d="M175.203 268.84C175.203 270.093 175.066 271.18 174.793 272.1C174.527 273.013 174.16 273.77 173.693 274.37C173.227 274.97 172.673 275.417 172.033 275.71C171.4 276.003 170.72 276.15 169.993 276.15C169.26 276.15 168.576 276.003 167.943 275.71C167.316 275.417 166.77 274.97 166.303 274.37C165.837 273.77 165.47 273.013 165.203 272.1C164.937 271.18 164.803 270.093 164.803 268.84C164.803 267.587 164.937 266.5 165.203 265.58C165.47 264.66 165.837 263.9 166.303 263.3C166.77 262.693 167.316 262.243 167.943 261.95C168.576 261.657 169.26 261.51 169.993 261.51C170.72 261.51 171.4 261.657 172.033 261.95C172.673 262.243 173.227 262.693 173.693 263.3C174.16 263.9 174.527 264.66 174.793 265.58C175.066 266.5 175.203 267.587 175.203 268.84ZM173.353 268.84C173.353 267.747 173.26 266.83 173.073 266.09C172.893 265.343 172.646 264.743 172.333 264.29C172.026 263.837 171.67 263.513 171.263 263.32C170.857 263.12 170.433 263.02 169.993 263.02C169.553 263.02 169.13 263.12 168.723 263.32C168.316 263.513 167.96 263.837 167.653 264.29C167.346 264.743 167.1 265.343 166.913 266.09C166.733 266.83 166.643 267.747 166.643 268.84C166.643 269.933 166.733 270.85 166.913 271.59C167.1 272.33 167.346 272.927 167.653 273.38C167.96 273.833 168.316 274.16 168.723 274.36C169.13 274.553 169.553 274.65 169.993 274.65C170.433 274.65 170.857 274.553 171.263 274.36C171.67 274.16 172.026 273.833 172.333 273.38C172.646 272.927 172.893 272.33 173.073 271.59C173.26 270.85 173.353 269.933 173.353 268.84Z" fill="#6F6F72"/>
<path d="M217.78 274.68C218.26 274.68 218.693 274.603 219.08 274.45C219.473 274.297 219.807 274.083 220.08 273.81C220.36 273.537 220.573 273.213 220.72 272.84C220.873 272.467 220.95 272.06 220.95 271.62C220.95 271.153 220.877 270.733 220.73 270.36C220.583 269.98 220.373 269.66 220.1 269.4C219.833 269.133 219.513 268.93 219.14 268.79C218.767 268.65 218.357 268.58 217.91 268.58C217.43 268.58 216.997 268.663 216.61 268.83C216.223 268.99 215.893 269.21 215.62 269.49C215.353 269.763 215.147 270.083 215 270.45C214.86 270.81 214.79 271.187 214.79 271.58C214.79 272.04 214.857 272.46 214.99 272.84C215.123 273.22 215.317 273.547 215.57 273.82C215.83 274.093 216.143 274.307 216.51 274.46C216.883 274.607 217.307 274.68 217.78 274.68ZM216.74 267.04C216.613 267.2 216.49 267.357 216.37 267.51C216.257 267.657 216.147 267.803 216.04 267.95C216.38 267.717 216.753 267.537 217.16 267.41C217.567 267.283 218.01 267.22 218.49 267.22C219.07 267.22 219.617 267.317 220.13 267.51C220.643 267.697 221.09 267.973 221.47 268.34C221.857 268.7 222.163 269.147 222.39 269.68C222.617 270.207 222.73 270.81 222.73 271.49C222.73 272.15 222.61 272.763 222.37 273.33C222.13 273.897 221.793 274.39 221.36 274.81C220.933 275.23 220.417 275.56 219.81 275.8C219.21 276.04 218.547 276.16 217.82 276.16C217.1 276.16 216.447 276.047 215.86 275.82C215.273 275.587 214.773 275.26 214.36 274.84C213.953 274.413 213.637 273.9 213.41 273.3C213.19 272.693 213.08 272.017 213.08 271.27C213.08 270.643 213.217 269.977 213.49 269.27C213.77 268.557 214.213 267.797 214.82 266.99L218.46 262.1C218.553 261.98 218.68 261.88 218.84 261.8C219.007 261.713 219.197 261.67 219.41 261.67H220.99L216.74 267.04Z" fill="#6F6F72"/>
<path d="M234.602 268.84C234.602 270.093 234.465 271.18 234.192 272.1C233.925 273.013 233.558 273.77 233.092 274.37C232.625 274.97 232.072 275.417 231.432 275.71C230.798 276.003 230.118 276.15 229.392 276.15C228.658 276.15 227.975 276.003 227.342 275.71C226.715 275.417 226.168 274.97 225.702 274.37C225.235 273.77 224.868 273.013 224.602 272.1C224.335 271.18 224.202 270.093 224.202 268.84C224.202 267.587 224.335 266.5 224.602 265.58C224.868 264.66 225.235 263.9 225.702 263.3C226.168 262.693 226.715 262.243 227.342 261.95C227.975 261.657 228.658 261.51 229.392 261.51C230.118 261.51 230.798 261.657 231.432 261.95C232.072 262.243 232.625 262.693 233.092 263.3C233.558 263.9 233.925 264.66 234.192 265.58C234.465 266.5 234.602 267.587 234.602 268.84ZM232.752 268.84C232.752 267.747 232.658 266.83 232.472 266.09C232.292 265.343 232.045 264.743 231.732 264.29C231.425 263.837 231.068 263.513 230.662 263.32C230.255 263.12 229.832 263.02 229.392 263.02C228.952 263.02 228.528 263.12 228.122 263.32C227.715 263.513 227.358 263.837 227.052 264.29C226.745 264.743 226.498 265.343 226.312 266.09C226.132 266.83 226.042 267.747 226.042 268.84C226.042 269.933 226.132 270.85 226.312 271.59C226.498 272.33 226.745 272.927 227.052 273.38C227.358 273.833 227.715 274.16 228.122 274.36C228.528 274.553 228.952 274.65 229.392 274.65C229.832 274.65 230.255 274.553 230.662 274.36C231.068 274.16 231.425 273.833 231.732 273.38C232.045 272.927 232.292 272.33 232.472 271.59C232.658 270.85 232.752 269.933 232.752 268.84Z" fill="#6F6F72"/>
<path d="M246.203 268.84C246.203 270.093 246.066 271.18 245.793 272.1C245.527 273.013 245.16 273.77 244.693 274.37C244.227 274.97 243.673 275.417 243.033 275.71C242.4 276.003 241.72 276.15 240.993 276.15C240.26 276.15 239.576 276.003 238.943 275.71C238.316 275.417 237.77 274.97 237.303 274.37C236.837 273.77 236.47 273.013 236.203 272.1C235.937 271.18 235.803 270.093 235.803 268.84C235.803 267.587 235.937 266.5 236.203 265.58C236.47 264.66 236.837 263.9 237.303 263.3C237.77 262.693 238.316 262.243 238.943 261.95C239.576 261.657 240.26 261.51 240.993 261.51C241.72 261.51 242.4 261.657 243.033 261.95C243.673 262.243 244.227 262.693 244.693 263.3C245.16 263.9 245.527 264.66 245.793 265.58C246.066 266.5 246.203 267.587 246.203 268.84ZM244.353 268.84C244.353 267.747 244.26 266.83 244.073 266.09C243.893 265.343 243.646 264.743 243.333 264.29C243.026 263.837 242.67 263.513 242.263 263.32C241.857 263.12 241.433 263.02 240.993 263.02C240.553 263.02 240.13 263.12 239.723 263.32C239.316 263.513 238.96 263.837 238.653 264.29C238.346 264.743 238.1 265.343 237.913 266.09C237.733 266.83 237.643 267.747 237.643 268.84C237.643 269.933 237.733 270.85 237.913 271.59C238.1 272.33 238.346 272.927 238.653 273.38C238.96 273.833 239.316 274.16 239.723 274.36C240.13 274.553 240.553 274.65 240.993 274.65C241.433 274.65 241.857 274.553 242.263 274.36C242.67 274.16 243.026 273.833 243.333 273.38C243.646 272.927 243.893 272.33 244.073 271.59C244.26 270.85 244.353 269.933 244.353 268.84Z" fill="#6F6F72"/>
<path d="M292.81 261.67V262.47C292.81 262.697 292.783 262.883 292.73 263.03C292.683 263.177 292.637 263.3 292.59 263.4L286.65 275.37C286.563 275.543 286.443 275.693 286.29 275.82C286.137 275.94 285.933 276 285.68 276H284.4L290.42 264.18C290.507 264.013 290.597 263.86 290.69 263.72C290.783 263.58 290.883 263.447 290.99 263.32H283.51C283.397 263.32 283.297 263.277 283.21 263.19C283.123 263.097 283.08 262.993 283.08 262.88V261.67H292.81Z" fill="#6F6F72"/>
<path d="M304.602 268.84C304.602 270.093 304.465 271.18 304.192 272.1C303.925 273.013 303.558 273.77 303.092 274.37C302.625 274.97 302.072 275.417 301.432 275.71C300.798 276.003 300.118 276.15 299.392 276.15C298.658 276.15 297.975 276.003 297.342 275.71C296.715 275.417 296.168 274.97 295.702 274.37C295.235 273.77 294.868 273.013 294.602 272.1C294.335 271.18 294.202 270.093 294.202 268.84C294.202 267.587 294.335 266.5 294.602 265.58C294.868 264.66 295.235 263.9 295.702 263.3C296.168 262.693 296.715 262.243 297.342 261.95C297.975 261.657 298.658 261.51 299.392 261.51C300.118 261.51 300.798 261.657 301.432 261.95C302.072 262.243 302.625 262.693 303.092 263.3C303.558 263.9 303.925 264.66 304.192 265.58C304.465 266.5 304.602 267.587 304.602 268.84ZM302.752 268.84C302.752 267.747 302.658 266.83 302.472 266.09C302.292 265.343 302.045 264.743 301.732 264.29C301.425 263.837 301.068 263.513 300.662 263.32C300.255 263.12 299.832 263.02 299.392 263.02C298.952 263.02 298.528 263.12 298.122 263.32C297.715 263.513 297.358 263.837 297.052 264.29C296.745 264.743 296.498 265.343 296.312 266.09C296.132 266.83 296.042 267.747 296.042 268.84C296.042 269.933 296.132 270.85 296.312 271.59C296.498 272.33 296.745 272.927 297.052 273.38C297.358 273.833 297.715 274.16 298.122 274.36C298.528 274.553 298.952 274.65 299.392 274.65C299.832 274.65 300.255 274.553 300.662 274.36C301.068 274.16 301.425 273.833 301.732 273.38C302.045 272.927 302.292 272.33 302.472 271.59C302.658 270.85 302.752 269.933 302.752 268.84Z" fill="#6F6F72"/>
<path d="M316.203 268.84C316.203 270.093 316.066 271.18 315.793 272.1C315.526 273.013 315.16 273.77 314.693 274.37C314.227 274.97 313.673 275.417 313.033 275.71C312.4 276.003 311.72 276.15 310.993 276.15C310.26 276.15 309.577 276.003 308.943 275.71C308.316 275.417 307.77 274.97 307.303 274.37C306.836 273.77 306.47 273.013 306.203 272.1C305.936 271.18 305.803 270.093 305.803 268.84C305.803 267.587 305.936 266.5 306.203 265.58C306.47 264.66 306.836 263.9 307.303 263.3C307.77 262.693 308.316 262.243 308.943 261.95C309.577 261.657 310.26 261.51 310.993 261.51C311.72 261.51 312.4 261.657 313.033 261.95C313.673 262.243 314.227 262.693 314.693 263.3C315.16 263.9 315.526 264.66 315.793 265.58C316.066 266.5 316.203 267.587 316.203 268.84ZM314.353 268.84C314.353 267.747 314.26 266.83 314.073 266.09C313.893 265.343 313.646 264.743 313.333 264.29C313.026 263.837 312.67 263.513 312.263 263.32C311.856 263.12 311.433 263.02 310.993 263.02C310.553 263.02 310.13 263.12 309.723 263.32C309.316 263.513 308.96 263.837 308.653 264.29C308.346 264.743 308.1 265.343 307.913 266.09C307.733 266.83 307.643 267.747 307.643 268.84C307.643 269.933 307.733 270.85 307.913 271.59C308.1 272.33 308.346 272.927 308.653 273.38C308.96 273.833 309.316 274.16 309.723 274.36C310.13 274.553 310.553 274.65 310.993 274.65C311.433 274.65 311.856 274.553 312.263 274.36C312.67 274.16 313.026 273.833 313.333 273.38C313.646 272.927 313.893 272.33 314.073 271.59C314.26 270.85 314.353 269.933 314.353 268.84Z" fill="#6F6F72"/>
<path d="M358.8 274.74C359.267 274.74 359.683 274.677 360.05 274.55C360.423 274.417 360.737 274.233 360.99 274C361.25 273.76 361.447 273.477 361.58 273.15C361.72 272.817 361.79 272.45 361.79 272.05C361.79 271.557 361.707 271.137 361.54 270.79C361.38 270.437 361.16 270.15 360.88 269.93C360.607 269.71 360.29 269.55 359.93 269.45C359.57 269.343 359.193 269.29 358.8 269.29C358.407 269.29 358.03 269.343 357.67 269.45C357.31 269.55 356.99 269.71 356.71 269.93C356.437 270.15 356.217 270.437 356.05 270.79C355.89 271.137 355.81 271.557 355.81 272.05C355.81 272.45 355.877 272.817 356.01 273.15C356.15 273.477 356.347 273.76 356.6 274C356.86 274.233 357.173 274.417 357.54 274.55C357.913 274.677 358.333 274.74 358.8 274.74ZM358.8 262.89C358.373 262.89 357.997 262.953 357.67 263.08C357.35 263.207 357.08 263.38 356.86 263.6C356.647 263.82 356.483 264.077 356.37 264.37C356.263 264.663 356.21 264.977 356.21 265.31C356.21 265.637 356.257 265.953 356.35 266.26C356.443 266.567 356.593 266.84 356.8 267.08C357.007 267.313 357.273 267.503 357.6 267.65C357.933 267.79 358.333 267.86 358.8 267.86C359.267 267.86 359.663 267.79 359.99 267.65C360.323 267.503 360.593 267.313 360.8 267.08C361.007 266.84 361.157 266.567 361.25 266.26C361.343 265.953 361.39 265.637 361.39 265.31C361.39 264.977 361.333 264.663 361.22 264.37C361.113 264.077 360.95 263.82 360.73 263.6C360.517 263.38 360.247 263.207 359.92 263.08C359.6 262.953 359.227 262.89 358.8 262.89ZM360.85 268.53C361.743 268.783 362.43 269.207 362.91 269.8C363.39 270.393 363.63 271.153 363.63 272.08C363.63 272.707 363.51 273.273 363.27 273.78C363.037 274.28 362.707 274.707 362.28 275.06C361.86 275.413 361.353 275.687 360.76 275.88C360.167 276.067 359.513 276.16 358.8 276.16C358.087 276.16 357.433 276.067 356.84 275.88C356.247 275.687 355.737 275.413 355.31 275.06C354.883 274.707 354.553 274.28 354.32 273.78C354.087 273.273 353.97 272.707 353.97 272.08C353.97 271.153 354.21 270.393 354.69 269.8C355.17 269.207 355.857 268.783 356.75 268.53C355.997 268.25 355.427 267.833 355.04 267.28C354.66 266.72 354.47 266.053 354.47 265.28C354.47 264.753 354.573 264.26 354.78 263.8C354.987 263.34 355.28 262.94 355.66 262.6C356.04 262.26 356.493 261.993 357.02 261.8C357.553 261.607 358.147 261.51 358.8 261.51C359.447 261.51 360.037 261.607 360.57 261.8C361.103 261.993 361.56 262.26 361.94 262.6C362.32 262.94 362.613 263.34 362.82 263.8C363.027 264.26 363.13 264.753 363.13 265.28C363.13 266.053 362.937 266.72 362.55 267.28C362.17 267.833 361.603 268.25 360.85 268.53Z" fill="#6F6F72"/>
<path d="M375.602 268.84C375.602 270.093 375.465 271.18 375.192 272.1C374.925 273.013 374.558 273.77 374.092 274.37C373.625 274.97 373.072 275.417 372.432 275.71C371.798 276.003 371.118 276.15 370.392 276.15C369.658 276.15 368.975 276.003 368.342 275.71C367.715 275.417 367.168 274.97 366.702 274.37C366.235 273.77 365.868 273.013 365.602 272.1C365.335 271.18 365.202 270.093 365.202 268.84C365.202 267.587 365.335 266.5 365.602 265.58C365.868 264.66 366.235 263.9 366.702 263.3C367.168 262.693 367.715 262.243 368.342 261.95C368.975 261.657 369.658 261.51 370.392 261.51C371.118 261.51 371.798 261.657 372.432 261.95C373.072 262.243 373.625 262.693 374.092 263.3C374.558 263.9 374.925 264.66 375.192 265.58C375.465 266.5 375.602 267.587 375.602 268.84ZM373.752 268.84C373.752 267.747 373.658 266.83 373.472 266.09C373.292 265.343 373.045 264.743 372.732 264.29C372.425 263.837 372.068 263.513 371.662 263.32C371.255 263.12 370.832 263.02 370.392 263.02C369.952 263.02 369.528 263.12 369.122 263.32C368.715 263.513 368.358 263.837 368.052 264.29C367.745 264.743 367.498 265.343 367.312 266.09C367.132 266.83 367.042 267.747 367.042 268.84C367.042 269.933 367.132 270.85 367.312 271.59C367.498 272.33 367.745 272.927 368.052 273.38C368.358 273.833 368.715 274.16 369.122 274.36C369.528 274.553 369.952 274.65 370.392 274.65C370.832 274.65 371.255 274.553 371.662 274.36C372.068 274.16 372.425 273.833 372.732 273.38C373.045 272.927 373.292 272.33 373.472 271.59C373.658 270.85 373.752 269.933 373.752 268.84Z" fill="#6F6F72"/>
<path d="M387.203 268.84C387.203 270.093 387.066 271.18 386.793 272.1C386.526 273.013 386.16 273.77 385.693 274.37C385.227 274.97 384.673 275.417 384.033 275.71C383.4 276.003 382.72 276.15 381.993 276.15C381.26 276.15 380.577 276.003 379.943 275.71C379.316 275.417 378.77 274.97 378.303 274.37C377.836 273.77 377.47 273.013 377.203 272.1C376.936 271.18 376.803 270.093 376.803 268.84C376.803 267.587 376.936 266.5 377.203 265.58C377.47 264.66 377.836 263.9 378.303 263.3C378.77 262.693 379.316 262.243 379.943 261.95C380.577 261.657 381.26 261.51 381.993 261.51C382.72 261.51 383.4 261.657 384.033 261.95C384.673 262.243 385.227 262.693 385.693 263.3C386.16 263.9 386.526 264.66 386.793 265.58C387.066 266.5 387.203 267.587 387.203 268.84ZM385.353 268.84C385.353 267.747 385.26 266.83 385.073 266.09C384.893 265.343 384.646 264.743 384.333 264.29C384.026 263.837 383.67 263.513 383.263 263.32C382.856 263.12 382.433 263.02 381.993 263.02C381.553 263.02 381.13 263.12 380.723 263.32C380.316 263.513 379.96 263.837 379.653 264.29C379.346 264.743 379.1 265.343 378.913 266.09C378.733 266.83 378.643 267.747 378.643 268.84C378.643 269.933 378.733 270.85 378.913 271.59C379.1 272.33 379.346 272.927 379.653 273.38C379.96 273.833 380.316 274.16 380.723 274.36C381.13 274.553 381.553 274.65 381.993 274.65C382.433 274.65 382.856 274.553 383.263 274.36C383.67 274.16 384.026 273.833 384.333 273.38C384.646 272.927 384.893 272.33 385.073 271.59C385.26 270.85 385.353 269.933 385.353 268.84Z" fill="#6F6F72"/>
<path d="M425.83 265.88C425.83 266.333 425.893 266.74 426.02 267.1C426.153 267.453 426.34 267.753 426.58 268C426.827 268.247 427.123 268.433 427.47 268.56C427.823 268.687 428.217 268.75 428.65 268.75C429.13 268.75 429.553 268.673 429.92 268.52C430.293 268.36 430.607 268.15 430.86 267.89C431.113 267.63 431.307 267.33 431.44 266.99C431.573 266.65 431.64 266.297 431.64 265.93C431.64 265.483 431.567 265.08 431.42 264.72C431.28 264.353 431.083 264.043 430.83 263.79C430.577 263.537 430.273 263.343 429.92 263.21C429.573 263.07 429.19 263 428.77 263C428.33 263 427.93 263.073 427.57 263.22C427.21 263.36 426.9 263.557 426.64 263.81C426.38 264.063 426.18 264.367 426.04 264.72C425.9 265.073 425.83 265.46 425.83 265.88ZM429.99 270.29C430.137 270.097 430.273 269.913 430.4 269.74C430.527 269.567 430.647 269.393 430.76 269.22C430.393 269.513 429.98 269.737 429.52 269.89C429.06 270.043 428.573 270.12 428.06 270.12C427.52 270.12 427.007 270.03 426.52 269.85C426.04 269.67 425.617 269.407 425.25 269.06C424.883 268.707 424.59 268.277 424.37 267.77C424.157 267.257 424.05 266.67 424.05 266.01C424.05 265.383 424.167 264.797 424.4 264.25C424.633 263.703 424.96 263.227 425.38 262.82C425.8 262.413 426.3 262.093 426.88 261.86C427.46 261.627 428.097 261.51 428.79 261.51C429.477 261.51 430.1 261.623 430.66 261.85C431.22 262.077 431.7 262.393 432.1 262.8C432.5 263.207 432.807 263.693 433.02 264.26C433.24 264.827 433.35 265.453 433.35 266.14C433.35 266.553 433.31 266.947 433.23 267.32C433.157 267.687 433.047 268.05 432.9 268.41C432.76 268.763 432.587 269.117 432.38 269.47C432.173 269.817 431.94 270.173 431.68 270.54L428.19 275.58C428.103 275.707 427.98 275.81 427.82 275.89C427.66 275.963 427.477 276 427.27 276H425.63L429.99 270.29Z" fill="#6F6F72"/>
<path d="M445.602 268.84C445.602 270.093 445.465 271.18 445.192 272.1C444.925 273.013 444.558 273.77 444.092 274.37C443.625 274.97 443.072 275.417 442.432 275.71C441.798 276.003 441.118 276.15 440.392 276.15C439.658 276.15 438.975 276.003 438.342 275.71C437.715 275.417 437.168 274.97 436.702 274.37C436.235 273.77 435.868 273.013 435.602 272.1C435.335 271.18 435.202 270.093 435.202 268.84C435.202 267.587 435.335 266.5 435.602 265.58C435.868 264.66 436.235 263.9 436.702 263.3C437.168 262.693 437.715 262.243 438.342 261.95C438.975 261.657 439.658 261.51 440.392 261.51C441.118 261.51 441.798 261.657 442.432 261.95C443.072 262.243 443.625 262.693 444.092 263.3C444.558 263.9 444.925 264.66 445.192 265.58C445.465 266.5 445.602 267.587 445.602 268.84ZM443.752 268.84C443.752 267.747 443.658 266.83 443.472 266.09C443.292 265.343 443.045 264.743 442.732 264.29C442.425 263.837 442.068 263.513 441.662 263.32C441.255 263.12 440.832 263.02 440.392 263.02C439.952 263.02 439.528 263.12 439.122 263.32C438.715 263.513 438.358 263.837 438.052 264.29C437.745 264.743 437.498 265.343 437.312 266.09C437.132 266.83 437.042 267.747 437.042 268.84C437.042 269.933 437.132 270.85 437.312 271.59C437.498 272.33 437.745 272.927 438.052 273.38C438.358 273.833 438.715 274.16 439.122 274.36C439.528 274.553 439.952 274.65 440.392 274.65C440.832 274.65 441.255 274.553 441.662 274.36C442.068 274.16 442.425 273.833 442.732 273.38C443.045 272.927 443.292 272.33 443.472 271.59C443.658 270.85 443.752 269.933 443.752 268.84Z" fill="#6F6F72"/>
<path d="M457.203 268.84C457.203 270.093 457.066 271.18 456.793 272.1C456.526 273.013 456.16 273.77 455.693 274.37C455.227 274.97 454.673 275.417 454.033 275.71C453.4 276.003 452.72 276.15 451.993 276.15C451.26 276.15 450.577 276.003 449.943 275.71C449.316 275.417 448.77 274.97 448.303 274.37C447.836 273.77 447.47 273.013 447.203 272.1C446.936 271.18 446.803 270.093 446.803 268.84C446.803 267.587 446.936 266.5 447.203 265.58C447.47 264.66 447.836 263.9 448.303 263.3C448.77 262.693 449.316 262.243 449.943 261.95C450.577 261.657 451.26 261.51 451.993 261.51C452.72 261.51 453.4 261.657 454.033 261.95C454.673 262.243 455.227 262.693 455.693 263.3C456.16 263.9 456.526 264.66 456.793 265.58C457.066 266.5 457.203 267.587 457.203 268.84ZM455.353 268.84C455.353 267.747 455.26 266.83 455.073 266.09C454.893 265.343 454.646 264.743 454.333 264.29C454.026 263.837 453.67 263.513 453.263 263.32C452.856 263.12 452.433 263.02 451.993 263.02C451.553 263.02 451.13 263.12 450.723 263.32C450.316 263.513 449.96 263.837 449.653 264.29C449.346 264.743 449.1 265.343 448.913 266.09C448.733 266.83 448.643 267.747 448.643 268.84C448.643 269.933 448.733 270.85 448.913 271.59C449.1 272.33 449.346 272.927 449.653 273.38C449.96 273.833 450.316 274.16 450.723 274.36C451.13 274.553 451.553 274.65 451.993 274.65C452.433 274.65 452.856 274.553 453.263 274.36C453.67 274.16 454.026 273.833 454.333 273.38C454.646 272.927 454.893 272.33 455.073 271.59C455.26 270.85 455.353 269.933 455.353 268.84Z" fill="#6F6F72"/>
<path d="M493 156.255C493 156.255 493 156.437 492.974 156.515L487.531 176.912C487.454 177.173 487.272 177.407 487.039 177.537C486.806 177.667 486.52 177.693 486.261 177.615L458.788 168.873C458.27 168.717 457.959 168.145 458.14 167.599C458.296 167.078 458.866 166.766 459.41 166.948L485.873 175.377L490.771 157.01L458.892 149.985C458.348 149.855 458.011 149.335 458.14 148.789C458.27 148.242 458.788 147.904 459.333 148.034L492.248 155.293C492.508 155.345 492.741 155.527 492.896 155.761C493 155.917 493.052 156.099 493.052 156.281L493 156.255Z" fill="#6F6F72"/>
<path d="M356.076 171.709C356.076 172.099 355.842 172.49 355.428 172.646C354.909 172.854 354.339 172.594 354.132 172.073L349.155 159.247C347.963 156.177 347.963 152.795 349.155 149.725L354.132 136.899C354.339 136.379 354.909 136.119 355.428 136.327C355.946 136.535 356.205 137.107 355.998 137.627L351.022 150.454C350.011 153.055 350.011 155.917 351.022 158.519L355.998 171.345C355.998 171.345 356.076 171.579 356.076 171.709Z" fill="#6F6F72"/>
<path d="M437.276 199.781C437.276 200.327 436.836 200.796 436.266 200.796H374.192C368.775 200.796 364.006 197.518 362.037 192.47L360.456 188.412C360.248 187.891 360.508 187.319 361.026 187.111C361.544 186.903 362.114 187.163 362.322 187.683L363.903 191.742C365.562 196.035 369.605 198.792 374.192 198.792H436.266C436.81 198.792 437.276 199.235 437.276 199.807V199.781Z" fill="#6F6F72"/>
<path d="M437.276 109.191C437.276 109.738 436.836 110.206 436.266 110.206H374.192C369.605 110.206 365.587 112.964 363.903 117.257L362.322 121.315C362.114 121.835 361.544 122.096 361.026 121.887C360.508 121.679 360.248 121.107 360.456 120.587L362.037 116.528C364.006 111.481 368.775 108.203 374.192 108.203H436.266C436.81 108.203 437.276 108.645 437.276 109.217V109.191Z" fill="#6F6F72"/>
<path d="M471.773 119.65V123.422C471.773 123.787 471.566 124.151 471.229 124.307L466.667 126.675C462.598 128.782 460.084 132.945 460.084 137.523V171.449C460.084 176.054 462.598 180.191 466.667 182.298L471.229 184.665C471.566 184.847 471.773 185.186 471.773 185.55V189.322C471.773 193.017 468.767 196.035 465.06 196.035H406.019C402.313 196.035 399.307 193.017 399.307 189.322V119.65C399.307 115.93 402.313 112.912 406.019 112.912H465.06C468.767 112.912 471.773 115.93 471.773 119.65ZM469.777 122.798V119.65C469.777 117.048 467.678 114.941 465.086 114.941H406.045C403.454 114.941 401.354 117.048 401.354 119.65V189.322C401.354 191.924 403.454 194.031 406.045 194.031H465.086C467.678 194.031 469.777 191.924 469.777 189.322V186.174L465.76 184.093C461.017 181.647 458.089 176.808 458.089 171.449V137.523C458.089 132.19 461.017 127.325 465.76 124.879L469.777 122.798Z" fill="#6F6F72"/>
<path d="M454.149 154.486C454.149 159.716 449.924 163.956 444.715 163.956C439.505 163.956 435.281 159.716 435.281 154.486C435.281 149.257 439.505 145.016 444.715 145.016C449.924 145.016 454.149 149.257 454.149 154.486ZM437.276 154.486C437.276 158.597 440.62 161.953 444.715 161.953C448.81 161.953 452.153 158.597 452.153 154.486C452.153 150.376 448.81 147.019 444.715 147.019C440.62 147.019 437.276 150.376 437.276 154.486Z" fill="#6F6F72"/>
<path d="M443.626 162.681C443.626 162.681 443.626 162.864 443.6 162.942C443.445 163.488 442.901 163.8 442.382 163.644H442.305C441.76 163.488 441.449 162.916 441.605 162.395C441.76 161.849 442.305 161.537 442.823 161.693H442.901C443.341 161.849 443.626 162.239 443.626 162.681Z" fill="#6F6F72"/>
<path d="M368.127 189.296C368.127 189.687 367.894 190.077 367.479 190.233C366.961 190.441 366.391 190.181 366.184 189.661C365.276 187.345 363.54 185.524 361.285 184.509C359.03 183.521 356.49 183.469 354.184 184.353L335.341 191.742C335.082 191.846 334.823 191.846 334.564 191.742C334.33 191.638 334.123 191.43 334.045 191.195L332.801 187.995C332.594 187.475 332.853 186.903 333.371 186.695L352.214 179.306C354.52 178.395 356.335 176.652 357.346 174.363C358.33 172.099 358.382 169.55 357.501 167.234C357.294 166.714 357.553 166.142 358.071 165.933C358.59 165.725 359.16 165.985 359.367 166.506L368.076 188.906C368.127 189.036 368.153 189.14 368.153 189.27L368.127 189.296ZM335.549 189.504L353.458 182.48C357.035 181.075 360.896 181.647 363.851 183.651L359.808 173.244C359.652 173.894 359.445 174.545 359.16 175.169C357.942 177.927 355.739 180.06 352.939 181.153L335.03 188.178L335.549 189.504Z" fill="#6F6F72"/>
<path d="M339.644 200.249C339.644 200.379 339.618 200.535 339.566 200.665C339.462 200.9 339.255 201.108 339.022 201.186L285.035 222.337C284.516 222.545 283.946 222.285 283.739 221.765L275.16 199.677C275.056 199.417 275.082 199.157 275.16 198.896C275.263 198.662 275.471 198.454 275.704 198.376L329.691 177.225C330.21 177.016 330.78 177.277 330.987 177.797L339.566 199.885C339.566 199.885 339.644 200.119 339.644 200.249ZM285.216 220.074L337.337 199.677L329.484 179.462L277.363 199.859L285.216 220.074Z" fill="#6F6F72"/>
<path d="M368.127 119.676C368.127 119.676 368.127 119.91 368.05 120.04L359.341 142.415C359.134 142.935 358.564 143.195 358.045 142.987C357.527 142.779 357.268 142.206 357.475 141.686C359.341 136.899 356.957 131.488 352.214 129.64L333.371 122.252C332.853 122.044 332.594 121.471 332.801 120.951L334.045 117.751C334.149 117.491 334.33 117.309 334.564 117.204C334.797 117.1 335.082 117.1 335.341 117.204L354.184 124.593C356.49 125.504 359.004 125.452 361.285 124.437C363.54 123.448 365.302 121.627 366.184 119.312C366.391 118.792 366.961 118.531 367.479 118.739C367.868 118.896 368.127 119.286 368.127 119.676ZM359.808 135.728L363.851 125.322C360.896 127.325 357.035 127.897 353.458 126.492L335.549 119.468L335.03 120.795L352.939 127.819C356.516 129.224 358.978 132.268 359.808 135.754V135.728Z" fill="#6F6F72"/>
<path d="M339.644 108.697C339.644 108.697 339.644 108.931 339.566 109.061L330.987 131.149C330.883 131.41 330.702 131.592 330.469 131.696C330.235 131.8 329.95 131.8 329.691 131.696L275.704 110.544C275.186 110.336 274.927 109.764 275.134 109.243L283.713 87.1554C283.816 86.8952 283.998 86.7131 284.231 86.6091C284.464 86.505 284.749 86.505 285.009 86.6091L338.996 107.76C339.384 107.917 339.644 108.307 339.644 108.697ZM329.484 129.484L337.337 109.269L285.216 88.8725L277.363 109.087L329.484 129.484Z" fill="#6F6F72"/>
<path d="M415.946 113.926V195.046C415.946 195.592 415.505 196.061 414.935 196.061C414.365 196.061 413.924 195.618 413.924 195.046V113.926C413.924 113.38 414.365 112.912 414.935 112.912C415.505 112.912 415.946 113.354 415.946 113.926Z" fill="#6F6F72"/>
</svg>
