<svg width="752" height="1035" viewBox="0 0 752 1035" fill="none" xmlns="http://www.w3.org/2000/svg">
<path d="M205.875 411.479C199.807 411.479 193.468 411.208 187.075 410.612C88.1468 401.621 9.91449 323.409 0.921009 224.561C0.325056 218.116 0 211.833 0 205.712C0 199.592 0.325003 193.309 0.866778 186.972C9.86026 88.0695 88.0927 9.85772 186.967 0.866612C193.414 0.270816 199.753 0 205.821 0C272.513 0 335.359 32.6605 373.988 87.3113C394.792 116.722 407.47 151.116 410.666 186.863C411.262 193.363 411.587 199.646 411.587 205.766V411.587H205.766L205.875 411.479Z" fill="#F8F8F8"/>
<path d="M205.875 874.479C199.807 874.479 193.468 874.208 187.075 873.612C88.1468 864.621 9.91449 786.409 0.921009 687.561C0.325056 681.116 0 674.833 0 668.712C0 662.592 0.325003 656.309 0.866778 649.972C9.86026 551.07 88.0927 472.858 186.967 463.867C193.414 463.271 199.753 463 205.821 463C272.513 463 335.359 495.66 373.988 550.311C394.792 579.722 407.47 614.116 410.666 649.863C411.262 656.363 411.587 662.646 411.587 668.766V874.587H205.766L205.875 874.479Z" fill="#F8F8F8"/>
<path d="M672.712 571.479C678.78 571.479 685.119 571.208 691.512 570.612C790.44 561.621 868.672 483.409 877.666 384.561C878.262 378.116 878.587 371.833 878.587 365.712C878.587 359.592 878.262 353.309 877.72 346.972C868.727 248.07 790.494 169.858 691.62 160.867C685.173 160.271 678.834 160 672.766 160C606.074 160 543.228 192.66 504.599 247.311C483.795 276.722 471.117 311.116 467.921 346.863C467.325 353.363 467 359.646 467 365.766V571.587H672.82L672.712 571.479Z" fill="#F8F8F8"/>
<path d="M672.712 1034.48C678.78 1034.48 685.119 1034.21 691.512 1033.61C790.44 1024.62 868.672 946.409 877.666 847.561C878.262 841.116 878.587 834.833 878.587 828.712C878.587 822.592 878.262 816.309 877.72 809.972C868.727 711.07 790.494 632.858 691.62 623.867C685.173 623.271 678.834 623 672.766 623C606.074 623 543.228 655.661 504.599 710.311C483.795 739.722 471.117 774.116 467.921 809.863C467.325 816.363 467 822.646 467 828.766V1034.59H672.82L672.712 1034.48Z" fill="#F8F8F8"/>
</svg>
