<svg width="412" height="412" viewBox="0 0 412 412" fill="none" xmlns="http://www.w3.org/2000/svg">
<path d="M205.875 411.479C199.807 411.479 193.468 411.208 187.075 410.612C88.1468 401.621 9.91449 323.409 0.921009 224.561C0.325056 218.116 0 211.833 0 205.712C0 199.592 0.325003 193.309 0.866778 186.972C9.86026 88.0696 88.0927 9.85772 186.967 0.866612C193.414 0.270816 199.753 0 205.821 0C272.513 0 335.359 32.6605 373.988 87.3113C394.792 116.722 407.47 151.116 410.666 186.863C411.262 193.363 411.587 199.646 411.587 205.766V411.587H205.766L205.875 411.479Z" fill="#FAFAFA"/>
</svg>
