<svg width="323" height="412" viewBox="0 0 323 412" fill="none" xmlns="http://www.w3.org/2000/svg">
<path d="M205.712 411.479C211.78 411.479 218.119 411.208 224.512 410.612C323.44 401.621 401.672 323.409 410.666 224.561C411.262 218.116 411.587 211.833 411.587 205.712C411.587 199.592 411.262 193.309 410.72 186.972C401.727 88.0696 323.494 9.85772 224.62 0.866612C218.173 0.270816 211.834 0 205.766 0C139.074 0 76.2278 32.6605 37.5992 87.3113C16.795 116.722 4.11731 151.116 0.920837 186.863C0.32489 193.363 -9.15527e-05 199.646 -9.15527e-05 205.766V411.587H205.82L205.712 411.479Z" fill="#FAFAFA"/>
</svg>
