<svg width="48" height="48" viewBox="0 0 48 48" fill="none" xmlns="http://www.w3.org/2000/svg">
<g id="Group 62">
<circle id="Ellipse 1" cx="24" cy="24" r="24" fill="#FFEAD0"/>
<path id="Vector" d="M17.2119 14C15.9902 14 15 14.9902 15 16.2104C15 17.4307 15.9894 18.4224 17.2119 18.4224C18.4307 18.4224 19.4209 17.4314 19.4209 16.2104C19.4209 14.9917 18.4307 14 17.2119 14ZM28.7856 19.8638C26.9406 19.8638 25.703 20.8762 25.1968 21.8354H25.144V20.1685H21.5068V32.3721H25.2964V26.334C25.2964 24.7417 25.601 23.2007 27.5742 23.2007C29.5197 23.2007 29.5444 25.0227 29.5444 26.438V32.3721H33.3354V25.6777C33.3354 22.3912 32.6264 19.8638 28.7856 19.8638ZM15.3149 20.1685V32.3721H19.1074V20.1685H15.3149Z" fill="#FF8B00"/>
</g>
</svg>
