<svg width="142" height="19" viewBox="0 0 142 19" fill="none" xmlns="http://www.w3.org/2000/svg">
<g id="Vector">
<path d="M18.0524 9.61342C18.0524 9.84591 18.0442 10.0784 18.0261 10.306H9.02619V8.92246H16.623C16.2914 5.30508 13.3768 2.41605 9.72367 2.08765C9.49391 2.06651 9.26087 2.05513 9.02619 2.05513C8.79151 2.05513 8.55847 2.06651 8.32871 2.08765C4.67557 2.41605 1.75929 5.30508 1.42778 8.92246C1.40644 9.15007 1.39496 9.38093 1.39496 9.61342C1.39496 9.84591 1.40644 10.0784 1.42778 10.306C1.75929 13.9234 4.67721 16.8124 8.32871 17.1408C8.55847 17.162 8.79151 17.1733 9.02619 17.1733V18.5553C8.79151 18.5553 8.55847 18.5471 8.32871 18.5292C6.81887 18.4138 5.41407 17.9326 4.20456 17.1733C3.07219 16.4645 2.11213 15.5118 1.39496 14.3916C0.628551 13.1934 0.142778 11.8017 0.026258 10.306C0.0082056 10.0784 0 9.84591 0 9.61342C0 9.38093 0.0082056 9.15007 0.026258 8.92246C0.141137 7.42836 0.628551 6.03506 1.39496 4.83685C2.11049 3.71669 3.07054 2.76397 4.20128 2.05513C5.41243 1.29426 6.81887 0.813026 8.32871 0.697595C8.55847 0.679711 8.79151 0.671582 9.02619 0.671582C9.26087 0.671582 9.49391 0.679711 9.72367 0.697595C11.2335 0.813026 12.6383 1.29426 13.8495 2.05513C14.9802 2.76397 15.9402 3.71506 16.6558 4.83523C17.4238 6.03343 17.9096 7.42674 18.0261 8.92246C18.0442 9.15007 18.0524 9.38093 18.0524 9.61342Z" fill="#6D6E71"/>
<path d="M142 9.61342C142 9.84591 141.992 10.0784 141.974 10.306H132.974V8.92246H140.571C140.239 5.30508 137.324 2.41605 133.671 2.08765C133.442 2.06651 133.208 2.05513 132.974 2.05513C132.739 2.05513 132.506 2.06651 132.276 2.08765C128.623 2.41605 125.707 5.30508 125.375 8.92246C125.354 9.15007 125.343 9.38093 125.343 9.61342C125.343 9.84591 125.354 10.0784 125.375 10.306C125.707 13.9234 128.625 16.8124 132.276 17.1408C132.506 17.162 132.739 17.1733 132.974 17.1733V18.5553C132.739 18.5553 132.506 18.5471 132.276 18.5292C130.766 18.4138 129.362 17.9326 128.152 17.1733C127.02 16.4645 126.06 15.5118 125.343 14.3916C124.576 13.1934 124.09 11.8017 123.974 10.306C123.956 10.0784 123.948 9.84591 123.948 9.61342C123.948 9.38093 123.956 9.15007 123.974 8.92246C124.089 7.42836 124.576 6.03506 125.343 4.83685C126.058 3.71669 127.018 2.76397 128.149 2.05513C129.36 1.29426 130.766 0.813026 132.276 0.697595C132.506 0.679711 132.739 0.671582 132.974 0.671582C133.208 0.671582 133.442 0.679711 133.671 0.697595C135.181 0.813026 136.586 1.29426 137.797 2.05513C138.928 2.76397 139.888 3.71506 140.603 4.83523C141.371 6.03343 141.857 7.42674 141.974 8.92246C141.992 9.15007 142 9.38093 142 9.61342Z" fill="#6D6E71"/>
<path d="M54.1145 9.61342V18.5553H52.7179V9.61342C52.7179 7.26416 51.6298 5.16039 49.928 3.77359C48.6101 2.69894 46.9247 2.0535 45.0883 2.0535C40.8804 2.0535 37.4571 5.4449 37.4571 9.61342C37.4571 13.7819 40.8804 17.1733 45.0883 17.1733H49.928V18.5553H45.0883C43.3159 18.5553 41.6616 18.048 40.2667 17.1733C39.1343 16.4645 38.1742 15.5118 37.4571 14.3916C36.5725 13.0097 36.0621 11.3709 36.0621 9.61342C36.0621 7.85594 36.5725 6.21715 37.4571 4.83523C38.1742 3.71506 39.1343 2.76235 40.2667 2.0535C41.6616 1.17883 43.3159 0.671582 45.0883 0.671582C46.8607 0.671582 48.5133 1.17883 49.9083 2.0535C49.9148 2.05675 49.9214 2.06163 49.928 2.06488C51.0505 2.7721 52.0056 3.71994 52.7179 4.8336C53.6024 6.21552 54.1145 7.85594 54.1145 9.61342Z" fill="#6D6E71"/>
<path d="M91.9162 9.61342V18.5553H90.5196V9.61342C90.5196 7.26416 89.4315 5.16039 87.7296 3.77359C86.4118 2.69894 84.7264 2.0535 82.89 2.0535C78.6821 2.0535 75.2587 5.4449 75.2587 9.61342C75.2587 13.7819 78.6821 17.1733 82.89 17.1733H87.7296V18.5553H82.89C81.1176 18.5553 79.4633 18.048 78.0683 17.1733C76.936 16.4645 75.9759 15.5118 75.2587 14.3916C74.3742 13.0097 73.8638 11.3709 73.8638 9.61342C73.8638 7.85594 74.3742 6.21715 75.2587 4.83523C75.9759 3.71506 76.936 2.76235 78.0683 2.0535C79.4633 1.17883 81.1176 0.671582 82.89 0.671582C84.6624 0.671582 86.315 1.17883 87.7099 2.0535C87.7165 2.05675 87.7231 2.06163 87.7296 2.06488C88.8522 2.7721 89.8073 3.71994 90.5196 4.8336C91.4041 6.21552 91.9162 7.85594 91.9162 9.61342Z" fill="#6D6E71"/>
<path d="M104.664 17.1733V18.5553C104.43 18.5553 104.197 18.5471 103.967 18.5292C102.457 18.4154 101.052 17.9326 99.8412 17.1733C98.7104 16.4645 97.7487 15.5118 97.0332 14.3916C96.2668 13.1918 95.7794 11.8001 95.6645 10.3044C95.6464 10.0768 95.6382 9.84591 95.6382 9.61342V0.671582H97.0332V9.61342C97.0332 9.84591 97.0447 10.0768 97.066 10.3044C97.3975 13.9234 100.314 16.8124 103.967 17.1408C104.197 17.162 104.43 17.1733 104.664 17.1733Z" fill="#6D6E71"/>
<path d="M45.0882 15.7898C44.9044 15.7898 44.7124 15.7816 44.5188 15.7638C41.5221 15.4939 39.1523 13.1462 38.8799 10.1792C38.8618 9.98571 38.852 9.79711 38.852 9.6134C38.852 9.42969 38.8618 9.24109 38.8782 9.05088C39.1507 6.08219 41.5204 3.73455 44.5155 3.46467C44.7108 3.44678 44.9028 3.43865 45.0866 3.43865C47.1068 3.43865 49.0105 4.419 50.1807 6.05942C50.8108 6.94223 51.1949 7.97461 51.2917 9.04763C51.3098 9.24272 51.3196 9.43131 51.3196 9.61503V15.793H45.085L45.0882 15.7898Z" fill="#FF8B00"/>
<path d="M82.8899 15.7898C82.7061 15.7898 82.5141 15.7816 82.3205 15.7638C79.3238 15.4939 76.954 13.1462 76.6816 10.1792C76.6635 9.98571 76.6537 9.79711 76.6537 9.6134C76.6537 9.42969 76.6635 9.24109 76.6799 9.05088C76.9523 6.08219 79.3221 3.73455 82.3172 3.46467C82.5125 3.44678 82.7045 3.43865 82.8883 3.43865C84.9085 3.43865 86.8122 4.419 87.9823 6.05942C88.6125 6.94223 88.9966 7.97461 89.0934 9.04763C89.1114 9.24272 89.1213 9.43131 89.1213 9.61503V15.793H82.8867L82.8899 15.7898Z" fill="#82AFB8"/>
<path d="M27.0342 9.61342C27.0342 9.84754 27.0457 10.0784 27.0671 10.306C27.3986 13.9234 30.3165 16.8124 33.968 17.1408C34.1977 17.162 34.4308 17.1733 34.6655 17.1733V18.5553C34.4308 18.5553 34.1977 18.5471 33.968 18.5292C32.4581 18.4154 31.0533 17.9326 29.8422 17.1733C28.7115 16.4645 27.7498 15.5118 27.0342 14.3916C26.2678 13.1934 25.782 11.8017 25.6655 10.306C25.6475 10.0784 25.6393 9.84591 25.6393 9.61342V2.05513H18.9829V0.671582H34.6655V2.05513H27.0342V9.61342Z" fill="#6D6E71"/>
<path d="M55.045 0.372437H56.6483L64.2221 15.3768L71.7943 0.372437H73.3977L64.2221 18.5553L55.045 0.372437Z" fill="#6D6E71"/>
<path d="M104.664 0.372437H106.266L113.84 15.3768L121.412 0.372437H123.017L113.84 18.5553L104.664 0.372437Z" fill="#6D6E71"/>
</g>
</svg>
