<svg width="230" height="60" viewBox="0 0 230 60" fill="none" xmlns="http://www.w3.org/2000/svg">
<g id="Vector">
<path d="M0 7.21687H4.99823L10.1184 24.4303H10.3297L15.5555 7.28188H20.4318C17.7092 15.4091 15.011 23.4388 12.3046 31.501H7.96466C7.39576 29.7536 6.82686 28.0307 6.26608 26.3077C4.29388 20.2285 2.31355 14.1521 0.32509 8.07835C0.231663 7.84397 0.123069 7.61593 0 7.39567V7.21687Z" fill="#676867"/>
<path d="M66.3747 31.5173H61.9941L52.4365 15.97C52.152 16.7827 52.2333 21.4965 52.339 23.7396C52.4609 26.2915 52.339 28.8597 52.339 31.4848H47.8934V7.30635H52.2496C55.4029 12.5403 58.5698 17.8121 61.7503 23.1219C62.1891 21.3583 61.8722 19.6353 61.8966 17.9205C61.9209 16.2056 61.8966 14.4177 61.8966 12.6622C61.8966 10.9067 61.8966 9.15123 61.8966 7.33074H66.4153L66.3747 31.5173Z" fill="#676867"/>
<path d="M132.205 21.6589C133.961 24.9504 135.684 28.1607 137.455 31.4847H132.156L127.199 22.114H124.265V31.5335C123.452 31.5335 122.721 31.5335 121.989 31.5335C121.258 31.5335 120.502 31.5335 119.771 31.5335C119.543 30.7939 119.454 9.42746 119.657 7.29813C119.899 7.26365 120.143 7.24195 120.388 7.23311H129.328C130.404 7.22054 131.472 7.41649 132.473 7.81014C133.356 8.15644 134.138 8.71773 134.748 9.44301C135.358 10.1683 135.778 11.0346 135.968 11.9631C136.456 13.7565 136.456 15.6476 135.968 17.4409C135.773 18.3169 135.371 19.1335 134.795 19.8221C134.22 20.5107 133.488 21.0514 132.66 21.3988C132.504 21.4775 132.352 21.5644 132.205 21.6589ZM124.354 11.313C124.15 13.584 124.15 15.8688 124.354 18.1398C126.02 18.1398 127.703 18.213 129.385 18.1398C129.915 18.1294 130.424 17.9359 130.827 17.5921C131.23 17.2484 131.502 16.7756 131.596 16.2543C131.773 15.4543 131.817 14.6305 131.726 13.8161C131.514 12.1907 130.767 11.4268 129.133 11.313C127.5 11.1992 125.988 11.313 124.354 11.313Z" fill="#676867"/>
<path d="M98.8349 59.418L91.0327 48.9176C90.3419 49.8604 89.6917 50.6975 89.1147 51.5833C88.9756 51.8711 88.9194 52.1919 88.9522 52.5098C88.9522 54.4604 88.9522 56.4109 88.9522 58.3614V59.4586H84.1815C84.1084 51.4127 84.2303 43.4155 84.1815 35.2801H88.9359C89.0578 38.8317 88.8546 42.3508 89.131 45.9268L97.7621 35.3614H103.451L94.4218 46.1787L104.524 59.418H98.8349Z" fill="#DE3840"/>
<path d="M145.16 45.9594L153.791 35.3534H159.48L150.508 46.1869L160.602 59.4099H154.913L147.135 48.9421C146.68 49.5353 146.322 50.1042 145.875 50.5675C145.528 50.9381 145.265 51.3786 145.102 51.8593C144.94 52.3401 144.882 52.8501 144.932 53.3551C145.006 55.0456 144.932 56.7361 144.932 58.4265C144.932 58.7435 144.932 59.0604 144.884 59.4343H140.284V35.3696H144.908C145.079 38.8724 144.867 42.3915 144.908 45.935L145.16 45.9594Z" fill="#DE3840"/>
<path d="M25.69 7.30635H41.0179V11.3212H30.4525V16.7827C31.4359 16.8396 32.4275 16.7827 33.4271 16.7827H39.49V20.8463H30.42V27.5106C33.9391 27.5106 37.4338 27.5106 41.0585 27.5106C41.0585 28.8353 41.0585 30.1194 41.0585 31.4767H25.69V7.30635Z" fill="#676867"/>
<path d="M94.2512 7.29822H98.8349V8.34663C98.8349 13.1823 98.8349 18.0261 98.8349 22.87C98.8361 23.5835 98.9151 24.2948 99.0706 24.9912C99.2397 25.7397 99.6489 26.4124 100.236 26.9069C100.823 27.4014 101.555 27.6904 102.321 27.73C102.744 27.7544 103.167 27.7544 103.589 27.73C106.027 27.6731 107.206 26.1046 107.458 24.0321C107.503 23.5486 107.519 23.0628 107.507 22.5774C107.507 17.8636 107.507 13.1498 107.507 8.43603V7.33073H112.058C112.058 7.65582 112.107 7.97278 112.107 8.28974C112.107 13.1661 112.107 18.0424 112.107 22.9187C112.122 24.1557 111.93 25.3865 111.538 26.5597C111.15 27.785 110.449 28.8876 109.503 29.7586C108.558 30.6296 107.402 31.2386 106.149 31.5254C104.318 31.9965 102.401 32.0216 100.558 31.5986C98.9946 31.3132 97.561 30.5423 96.4609 29.3955C95.3608 28.2487 94.6502 26.7844 94.43 25.2106C94.2782 24.3163 94.1994 23.4112 94.1943 22.5042C94.1943 17.6929 94.1943 12.8816 94.1943 8.0703C94.2024 7.84274 94.2349 7.62331 94.2512 7.29822Z" fill="#676867"/>
<path d="M148.289 16.8233H157.351V20.8869H148.46C148.19 23.088 148.165 25.3123 148.387 27.5187C149.508 27.5675 150.67 27.5187 151.824 27.5187H158.903V31.5011H143.665V7.31449H158.911V11.3293H148.346C148.192 13.2067 148.24 14.9378 148.289 16.8233Z" fill="#676867"/>
<path d="M135.407 36.5479L133.879 40.2864C132.969 39.937 132.157 39.5387 131.344 39.3031C129.889 38.818 128.326 38.7643 126.841 39.1486C126.203 39.2909 125.616 39.6068 125.146 40.0614C124.675 40.516 124.34 41.0917 124.176 41.725C123.794 43.103 123.616 44.5296 123.647 45.9592C123.647 47.7716 123.745 49.5921 123.818 51.4045C123.853 51.7895 123.924 52.1704 124.029 52.5423C124.173 53.4496 124.636 54.2758 125.335 54.8719C126.033 55.468 126.922 55.7947 127.841 55.7932C129.955 56.0024 132.078 55.5051 133.879 54.379L135.505 58.1988C135.191 58.4068 134.865 58.5967 134.53 58.7677C132.789 59.5403 130.908 59.9462 129.003 59.9602C127.099 59.9742 125.212 59.5959 123.46 58.849C122.338 58.3948 121.355 57.652 120.611 56.6958C119.867 55.7396 119.39 54.6039 119.226 53.4038C118.994 52.1925 118.866 50.9635 118.844 49.7303C118.844 47.5278 118.909 45.3172 119.023 43.1147C119.095 41.8249 119.415 40.5611 119.966 39.3925C120.365 38.4969 120.949 37.6954 121.678 37.0401C122.408 36.3849 123.267 35.8904 124.2 35.5889C125.95 34.9686 127.807 34.7099 129.659 34.8287C131.512 34.9474 133.321 35.4411 134.977 36.2797C135.09 36.3366 135.196 36.4179 135.407 36.5479Z" fill="#DE3840"/>
<path d="M78.0616 31.5661V11.4187C77.0257 11.3016 75.982 11.269 74.9408 11.3212C73.9411 11.3212 72.9415 11.3212 71.8849 11.3212V7.31449H88.9521V11.3131H82.7429C82.6697 13.1254 82.7429 14.7996 82.7429 16.482C82.7429 18.1643 82.7429 19.7979 82.7429 21.4477V31.5661H78.0616Z" fill="#676867"/>
<path d="M181.602 13.995C181.602 15.7926 180.888 17.5167 179.617 18.7878C178.346 20.0589 176.622 20.7731 174.824 20.7731C173.027 20.7731 171.303 20.0589 170.032 18.7878C168.76 17.5167 168.046 15.7926 168.046 13.995C168.046 12.1973 168.76 10.4733 170.032 9.20212C171.303 7.93099 173.027 7.21687 174.824 7.21687C176.622 7.21687 178.346 7.93099 179.617 9.20212C180.888 10.4733 181.602 12.1973 181.602 13.995Z" fill="#676867"/>
<path d="M195.5 20.8463C193.677 20.8057 191.944 20.0436 190.683 18.7271C189.421 17.4106 188.733 15.6474 188.771 13.8244C188.782 12.9367 188.969 12.0601 189.319 11.2446C189.67 10.4291 190.178 9.69082 190.815 9.07186C191.451 8.4529 192.203 7.96545 193.028 7.63741C193.853 7.30936 194.734 7.14714 195.622 7.16004C196.522 7.14847 197.415 7.31979 198.247 7.66362C199.079 8.00745 199.832 8.51663 200.461 9.16028C201.09 9.80394 201.582 10.5687 201.907 11.4081C202.232 12.2476 202.383 13.1442 202.351 14.0438C202.353 14.9418 202.177 15.8314 201.833 16.6609C201.489 17.4904 200.984 18.2433 200.346 18.876C199.709 19.5088 198.952 20.0087 198.121 20.3469C197.289 20.6852 196.398 20.8549 195.5 20.8463Z" fill="#676867"/>
<path d="M223.028 13.8159C221.175 13.775 219.413 13.0057 218.13 11.6768C216.847 10.3479 216.148 8.56806 216.185 6.72785C216.197 5.83185 216.387 4.94697 216.743 4.12381C217.1 3.30064 217.617 2.55535 218.264 1.93056C218.911 1.30576 219.676 0.813726 220.515 0.482587C221.353 0.151447 222.25 -0.0122975 223.152 0.000719401C224.068 -0.010962 224.976 0.161974 225.822 0.509045C226.668 0.856116 227.434 1.37009 228.074 2.01982C228.714 2.66954 229.214 3.44148 229.544 4.28884C229.875 5.1362 230.028 6.04132 229.996 6.94935C229.998 7.85586 229.819 8.75379 229.469 9.5911C229.119 10.4284 228.605 11.1884 227.957 11.8272C227.309 12.4659 226.54 12.9705 225.694 13.3119C224.848 13.6533 223.942 13.8246 223.028 13.8159Z" fill="#DE3840"/>
<path d="M216.159 59.6862C215.259 59.6694 214.371 59.474 213.547 59.1114C212.722 58.7487 211.978 58.226 211.358 57.5736C210.737 56.9211 210.252 56.1519 209.931 55.3106C209.61 54.4692 209.459 53.5725 209.487 52.6724C209.519 50.8683 210.267 49.1509 211.565 47.8981C212.864 46.6452 214.607 45.9595 216.411 45.9919C218.215 46.0242 219.933 46.7719 221.186 48.0705C222.438 49.369 223.124 51.1121 223.092 52.9162C223.094 53.8198 222.915 54.7146 222.566 55.5478C222.216 56.3809 221.703 57.1355 221.057 57.7668C220.41 58.398 219.644 58.8932 218.803 59.2229C217.961 59.5526 217.063 59.7101 216.159 59.6862Z" fill="#676867"/>
<path d="M209.511 33.4434C209.482 32.5449 209.637 31.6499 209.965 30.813C210.293 29.9761 210.788 29.2147 211.42 28.5752C212.052 27.9358 212.807 27.4316 213.64 27.0935C214.473 26.7554 215.366 26.5903 216.265 26.6084C217.62 26.5923 218.949 26.9794 220.084 27.7206C221.219 28.4618 222.107 29.5236 222.637 30.771C223.167 32.0184 223.314 33.3952 223.06 34.7263C222.805 36.0575 222.161 37.283 221.208 38.247C220.255 39.211 219.038 39.8701 217.71 40.1405C216.382 40.4109 215.003 40.2804 213.75 39.7655C212.496 39.2507 211.424 38.3747 210.669 37.249C209.914 36.1233 209.511 34.7987 209.511 33.4434Z" fill="#676867"/>
<path d="M181.602 33.5085C181.578 34.8432 181.161 36.1412 180.402 37.2395C179.643 38.3379 178.576 39.1876 177.336 39.6823C176.096 40.1769 174.738 40.2943 173.432 40.0198C172.125 39.7453 170.929 39.0912 169.993 38.1394C169.057 37.1876 168.422 35.9805 168.17 34.6697C167.917 33.3588 168.057 32.0025 168.572 30.7709C169.087 29.5393 169.955 28.4873 171.065 27.7468C172.176 27.0063 173.481 26.6103 174.816 26.6085C175.723 26.5842 176.626 26.7469 177.468 27.0866C178.31 27.4263 179.073 27.9356 179.709 28.5828C180.346 29.23 180.843 30.0014 181.168 30.8488C181.494 31.6962 181.642 32.6015 181.602 33.5085Z" fill="#676867"/>
<path d="M188.803 33.4516C188.808 32.1107 189.21 30.8013 189.96 29.6892C190.709 28.5771 191.771 27.7121 193.012 27.2038C194.253 26.6955 195.616 26.5667 196.93 26.8336C198.244 27.1005 199.45 27.7512 200.394 28.7034C201.338 29.6555 201.979 30.8663 202.235 32.1826C202.491 33.4989 202.35 34.8615 201.832 36.098C201.313 37.3346 200.439 38.3895 199.321 39.1293C198.202 39.869 196.89 40.2605 195.549 40.2541C194.654 40.2697 193.765 40.104 192.936 39.767C192.106 39.43 191.354 38.9285 190.724 38.2929C190.093 37.6573 189.598 36.9007 189.268 36.0687C188.938 35.2367 188.78 34.3464 188.803 33.4516Z" fill="#676867"/>
<path d="M181.602 52.9405C181.579 54.2844 181.158 55.5913 180.391 56.6954C179.625 57.7995 178.547 58.651 177.296 59.142C176.045 59.633 174.676 59.7414 173.363 59.4534C172.05 59.1654 170.852 58.494 169.921 57.5244C168.991 56.5547 168.369 55.3304 168.135 54.0068C167.9 52.6832 168.065 51.3199 168.606 50.0898C169.148 48.8596 170.043 47.8181 171.177 47.0972C172.312 46.3763 173.635 46.0085 174.979 46.0405C176.769 46.0853 178.47 46.8354 179.71 48.1276C180.951 49.4197 181.631 51.1495 181.602 52.9405Z" fill="#676867"/>
<path d="M188.803 52.9161C188.808 51.5769 189.209 50.2692 189.957 49.1579C190.704 48.0466 191.764 47.1817 193.002 46.6721C194.241 46.1626 195.602 46.0314 196.915 46.295C198.228 46.5586 199.434 47.2053 200.38 48.1534C201.326 49.1015 201.969 50.3085 202.23 51.6221C202.49 52.9357 202.356 54.2971 201.843 55.5343C201.331 56.7716 200.463 57.8293 199.35 58.574C198.237 59.3187 196.929 59.717 195.589 59.7186C194.695 59.7251 193.808 59.5535 192.981 59.2137C192.154 58.874 191.402 58.3729 190.77 57.7397C190.139 57.1065 189.64 56.3539 189.302 55.5257C188.964 54.6976 188.794 53.8105 188.803 52.9161Z" fill="#676867"/>
<path d="M112.716 35.3046V59.4261H108.214C108.027 58.7109 107.986 36.5155 108.214 35.3533C108.362 35.3446 108.512 35.3446 108.661 35.3533L112.716 35.3046Z" fill="#DE3840"/>
</g>
</svg>
