<svg width="230" height="59" viewBox="0 0 230 59" fill="none" xmlns="http://www.w3.org/2000/svg">
<path d="M8.36527 54.6665C8.36527 55.786 7.46578 56.7189 6.38639 56.7189H1.97888C0.899492 56.7189 0 55.786 0 54.6665V15.2992C0 14.1797 0.899492 13.2468 1.97888 13.2468H6.38639C7.46578 13.2468 8.36527 14.1797 8.36527 15.2992V54.6665Z" fill="#002A6F"/>
<path d="M89.0497 23.6951C89.0497 17.6314 84.2824 11.5677 76.7266 11.5677C73.2186 11.5677 71.1498 12.6871 70.4302 13.4334V2.05233C70.4302 0.932875 69.5307 0 68.4513 0H64.1337C63.0544 0 62.1549 0.932875 62.1549 2.05233V45.1512C62.1549 54.2934 70.5201 58.2115 75.6472 58.2115C80.4145 58.2115 89.1396 54.48 89.1396 45.1512V23.6951H89.0497ZM80.6844 44.8713C80.6844 47.7633 78.4357 50.1887 75.5573 50.1887C72.7689 50.1887 70.4302 47.8566 70.4302 44.8713V24.9078C70.4302 22.0159 72.6789 19.5904 75.5573 19.5904C78.3457 19.5904 80.6844 21.9226 80.6844 24.9078V44.8713Z" fill="#002A6F"/>
<path d="M36.9691 13.2468C38.2284 13.2468 39.2178 13.9931 39.5776 15.579L44.6148 42.2593H44.7947L50.1916 15.4857C50.5514 13.5267 51.8107 13.2468 52.2605 13.2468H56.9378C58.1971 13.2468 59.0966 14.3663 58.9167 15.7656L51.4509 52.0545C49.9218 57.6517 45.6042 57.3719 45.5143 57.3719C44.0751 57.3719 40.657 56.6256 39.6676 51.5881L35.2601 28.9192H35.0802L30.6727 51.5881C29.6832 56.6256 26.3551 57.3719 24.826 57.3719C24.736 57.3719 20.3285 57.6517 18.8893 52.0545L11.4235 15.7656C11.2436 14.3663 12.1431 13.2468 13.4024 13.2468H18.0798C18.5295 13.2468 19.7888 13.5267 20.1486 15.4857L25.5456 42.2593H25.7255L30.8526 15.4857C31.1224 13.8999 32.2018 13.1536 33.4611 13.1536H36.9691V13.2468Z" fill="#002A6F"/>
<path d="M223.704 55.6928V48.0432C224.873 46.7371 225.772 46.0841 226.942 46.0841C228.561 46.0841 229.19 47.1103 229.19 49.2559V55.6928H230V49.1626C230 46.5506 229.1 45.2445 227.032 45.2445C225.682 45.2445 224.693 46.0841 223.614 47.1103V40.3936H222.804V55.6928H223.704ZM217.317 55.9726C218.576 55.9726 219.656 55.4129 220.465 54.5733L220.016 54.0136C219.386 54.6666 218.397 55.133 217.407 55.133C215.248 55.133 213.809 53.3606 213.809 50.5619C213.809 47.8566 215.338 45.9908 217.407 45.9908C218.397 45.9908 219.206 46.4573 219.836 47.017L220.285 46.4573C219.656 45.8043 218.756 45.1513 217.407 45.1513C215.068 45.1513 213 47.1103 213 50.4687C212.91 54.0136 214.799 55.9726 217.317 55.9726ZM209.492 43.0989C209.941 43.0989 210.211 42.7258 210.211 42.2593C210.211 41.7929 209.851 41.4198 209.492 41.4198C209.132 41.4198 208.772 41.7929 208.772 42.2593C208.772 42.7258 209.132 43.0989 209.492 43.0989ZM209.132 55.6928H209.941V45.6177H209.132V55.6928ZM205.444 55.9726C205.714 55.9726 205.894 55.9726 206.074 55.786L205.894 55.133C205.714 55.133 205.624 55.133 205.534 55.133C205.264 55.133 205.084 54.9465 205.084 54.48V40.4869H204.275V54.3867C204.275 55.5062 204.724 55.9726 205.444 55.9726ZM196.539 55.2263C194.47 55.2263 193.301 53.4539 193.301 50.6552C193.301 48.1365 194.83 46.0841 196.809 46.0841C197.798 46.0841 198.698 46.4573 199.687 47.3902V53.4539C198.608 54.5733 197.618 55.2263 196.539 55.2263ZM196.449 55.9726C197.798 55.9726 198.878 55.2263 199.687 54.3867H199.777L199.867 55.6928H200.587V40.4869H199.777V46.5506C198.788 45.711 197.978 45.2445 196.809 45.2445C194.47 45.2445 192.491 47.2969 192.491 50.5619C192.401 54.1069 194.02 55.9726 196.449 55.9726ZM182.417 55.6928H183.226V48.0432C184.396 46.7371 185.295 46.0841 186.465 46.0841C188.084 46.0841 188.713 47.1103 188.713 49.2559V55.6928H189.523V49.1626C189.523 46.5506 188.623 45.2445 186.555 45.2445C185.205 45.2445 184.216 46.0841 183.226 47.1103L183.136 45.5244H182.417V55.6928ZM174.411 55.9726C175.761 55.9726 176.75 55.2263 177.74 54.0136L177.829 55.6928H178.549V45.6177H177.74V53.0807C176.57 54.5733 175.761 55.2263 174.501 55.2263C172.882 55.2263 172.253 54.2002 172.253 52.0545V45.6177H171.443V52.1478C171.533 54.7599 172.433 55.9726 174.411 55.9726ZM161.908 50.0022C162.088 47.5767 163.618 46.0841 165.327 46.0841C167.126 46.0841 168.295 47.3902 168.295 50.0022H161.908ZM165.506 55.9726C166.946 55.9726 167.845 55.5062 168.565 54.9465L168.205 54.3867C167.485 54.8532 166.676 55.2263 165.596 55.2263C163.348 55.2263 161.908 53.3606 161.908 50.7485H169.014C169.014 50.4686 169.014 50.2821 169.014 50.0022C169.014 47.017 167.575 45.3378 165.327 45.3378C163.168 45.3378 161.099 47.3902 161.099 50.6552C161.009 54.0136 162.988 55.9726 165.506 55.9726ZM156.422 55.6928V48.7895C157.141 46.8304 158.221 46.1774 159.12 46.1774C159.48 46.1774 159.66 46.1774 159.93 46.2707L160.109 45.5244C159.84 45.3378 159.48 45.3378 159.12 45.3378C157.951 45.3378 156.961 46.2707 156.332 47.4834L156.242 45.6177H155.522V55.6928H156.422ZM151.205 55.6928V46.364H153.453V45.6177H151.205V43.3788C151.205 41.8862 151.654 41.0466 152.734 41.0466C153.093 41.0466 153.453 41.1399 153.903 41.3265L154.173 40.6735C153.723 40.4869 153.183 40.3003 152.734 40.3003C151.205 40.3003 150.305 41.3265 150.305 43.2855V45.6177L148.956 45.711V46.364H150.305V55.6928H151.205ZM142.569 55.2263C141.4 55.2263 140.411 54.6666 140.411 53.174C140.411 51.4948 141.76 50.5619 145.898 50.0955V53.6404C144.728 54.6666 143.739 55.2263 142.569 55.2263ZM142.479 55.9726C143.739 55.9726 144.998 55.2263 145.987 54.3867L146.077 55.6928H146.797V49.1626C146.797 47.017 145.987 45.2445 143.739 45.2445C142.12 45.2445 140.77 45.9908 140.141 46.5506L140.501 47.2036C141.13 46.7371 142.3 46.0841 143.649 46.0841C145.628 46.0841 145.987 47.7633 145.987 49.3492C141.58 49.8156 139.601 50.9351 139.601 53.174C139.601 55.133 140.95 55.9726 142.479 55.9726ZM123.77 55.6928H124.58V48.0432C125.659 46.7371 126.648 46.0841 127.548 46.0841C129.077 46.0841 129.797 47.1103 129.797 49.2559V55.6928H130.606V48.0432C131.686 46.7371 132.675 46.0841 133.574 46.0841C135.104 46.0841 135.823 47.1103 135.823 49.2559V55.6928H136.633V49.1626C136.633 46.5506 135.643 45.2445 133.754 45.2445C132.675 45.2445 131.596 46.0841 130.426 47.2969C130.066 45.9908 129.347 45.2445 127.728 45.2445C126.648 45.2445 125.479 46.0841 124.67 47.1103L124.58 45.5244H123.77V55.6928ZM119.542 43.0989C119.992 43.0989 120.262 42.7258 120.262 42.2593C120.262 41.7929 119.902 41.4198 119.542 41.4198C119.183 41.4198 118.823 41.7929 118.823 42.2593C118.823 42.7258 119.183 43.0989 119.542 43.0989ZM119.183 55.6928H119.992V45.6177H119.183V55.6928ZM115.495 55.9726C115.765 55.9726 115.944 55.9726 116.124 55.786L115.944 55.133C115.765 55.133 115.675 55.133 115.585 55.133C115.315 55.133 115.135 54.9465 115.135 54.48V40.4869H114.325V54.3867C114.325 55.5062 114.775 55.9726 115.495 55.9726ZM104.971 55.6928H105.78V52.8941L108.029 50.1888L111.267 55.6928H112.167L108.479 49.5358L111.627 45.5244H110.637L105.78 51.7747V40.4869H104.971V55.6928Z" fill="#009EE0"/>
<path d="M211.47 33.1172C213.539 33.1172 214.709 31.8111 214.709 30.2252C214.709 28.2662 213 27.7065 211.47 27.1467C210.301 26.6803 209.222 26.2139 209.222 25.0944C209.222 24.1615 209.941 23.2287 211.47 23.2287C212.46 23.2287 213.18 23.6018 213.809 24.0683L214.259 23.5085C213.539 22.8555 212.55 22.4824 211.47 22.4824C209.402 22.4824 208.322 23.6951 208.322 25.1877C208.322 26.9602 209.851 27.5199 211.381 28.0796C212.55 28.5461 213.809 29.1058 213.809 30.3185C213.809 31.438 213 32.3709 211.381 32.3709C209.941 32.3709 209.042 31.9044 208.232 31.1581L207.783 31.7178C208.772 32.5574 209.941 33.1172 211.47 33.1172ZM201.216 33.1172C202.566 33.1172 203.555 32.3708 204.544 31.1581L204.634 32.8373H205.354V22.7622H204.544V30.2252C203.375 31.7178 202.566 32.3709 201.306 32.3709C199.687 32.3709 199.057 31.3447 199.057 29.1991V22.7622H198.248V29.2924C198.248 31.9044 199.147 33.1172 201.216 33.1172ZM190.692 32.3709C189.523 32.3709 188.533 31.8111 188.533 30.3185C188.533 28.6393 189.883 27.7065 194.02 27.24V30.785C192.761 31.8111 191.772 32.3709 190.692 32.3709ZM190.512 33.1172C191.772 33.1172 193.031 32.3708 194.02 31.5313L194.11 32.8373H194.83V26.3072C194.83 24.1615 194.02 22.3891 191.772 22.3891C190.153 22.3891 188.803 23.1354 188.174 23.6951L188.533 24.3481C189.163 23.8817 190.332 23.2287 191.682 23.2287C193.661 23.2287 194.02 24.9078 194.02 26.4937C189.613 26.9602 187.634 28.0796 187.634 30.3185C187.724 32.2776 188.983 33.1172 190.512 33.1172ZM178.729 32.9306V25.934C179.449 23.975 180.528 23.322 181.427 23.322C181.787 23.322 181.967 23.322 182.237 23.4152L182.417 22.6689C182.147 22.4824 181.787 22.4824 181.427 22.4824C180.258 22.4824 179.269 23.4152 178.639 24.628L178.549 22.7622H177.829V32.9306H178.729ZM169.914 33.1172C171.263 33.1172 172.253 32.3708 173.242 31.1581L173.332 32.8373H174.052V22.7622H173.242V30.2252C172.073 31.7178 171.263 32.3709 170.004 32.3709C168.385 32.3709 167.755 31.3447 167.755 29.1991V22.7622H166.946V29.2924C166.946 31.9044 167.935 33.1172 169.914 33.1172ZM163.438 33.1172C163.887 33.1172 164.517 32.9306 165.057 32.6507L164.787 31.9977C164.337 32.1843 163.887 32.2776 163.528 32.2776C162.178 32.2776 161.819 31.3447 161.819 30.0387V23.4152H164.697V22.6689H161.819V19.4039H161.099L161.009 22.7622L159.48 22.8555V23.5085H161.009V30.1319C161.009 31.9044 161.549 33.1172 163.438 33.1172ZM153.273 32.3709C152.104 32.3709 151.115 31.8111 151.115 30.3185C151.115 28.6393 152.464 27.7065 156.601 27.24V30.785C155.432 31.8111 154.443 32.3709 153.273 32.3709ZM153.183 33.1172C154.443 33.1172 155.702 32.3708 156.691 31.5313L156.781 32.8373H157.501V26.3072C157.501 24.1615 156.691 22.3891 154.443 22.3891C152.824 22.3891 151.474 23.1354 150.845 23.6951L151.205 24.3481C151.834 23.8817 153.004 23.2287 154.353 23.2287C156.332 23.2287 156.691 24.9078 156.691 26.4937C152.284 26.9602 150.305 28.0796 150.305 30.3185C150.305 32.2776 151.654 33.1172 153.183 33.1172ZM140.231 32.9306H141.04V25.281C142.21 23.975 143.109 23.322 144.278 23.322C145.898 23.322 146.527 24.3481 146.527 26.4937V32.9306H147.337V26.4004C147.337 23.7884 146.437 22.4824 144.368 22.4824C143.019 22.4824 142.03 23.322 141.04 24.3481L140.95 22.7622H140.231V32.9306ZM125.389 32.9306H126.199V25.281C127.368 23.975 128.268 23.322 129.437 23.322C131.056 23.322 131.686 24.3481 131.686 26.4937V32.9306H132.495V26.4004C132.495 23.7884 131.596 22.4824 129.527 22.4824C128.178 22.4824 127.188 23.322 126.199 24.3481L126.109 22.7622H125.389V32.9306ZM118.013 32.3709C116.034 32.3709 114.505 30.5051 114.505 27.7998C114.505 25.0944 116.034 23.2287 118.013 23.2287C119.992 23.2287 121.521 25.0944 121.521 27.7998C121.521 30.5051 119.992 32.3709 118.013 32.3709ZM118.013 33.1172C120.352 33.1172 122.421 31.1581 122.421 27.7998C122.421 24.4414 120.352 22.4824 118.013 22.4824C115.675 22.4824 113.606 24.4414 113.606 27.7998C113.606 31.1581 115.675 33.1172 118.013 33.1172ZM107.669 32.9306H108.659L112.257 22.7622H111.357L109.108 29.1991C108.749 30.1319 108.479 31.2514 108.119 32.091H108.029C107.669 31.1581 107.399 30.1319 107.039 29.1991L104.791 22.7622H103.891L107.669 32.9306Z" fill="#009EE0"/>
</svg>
