<svg width="235" height="238" viewBox="0 0 235 238" fill="none" xmlns="http://www.w3.org/2000/svg">
<g id="Vector" filter="url(#filter0_d_800_2517)">
<path d="M117.367 212.5C63.5927 212.5 20 168.288 20 113.75C20 59.2119 63.5927 15 117.367 15C171.141 15 214.734 59.2119 214.734 113.75V212.5H117.367Z" fill="#82AFB8"/>
<path d="M141.861 71.4131C140.868 69.5631 138.567 68.8756 136.734 69.8812L133.937 71.4531C130.261 69.2743 126.693 68.4706 123.599 68.3493V60.6962C123.924 60.7252 124.25 60.7425 124.575 60.7425C127.207 60.7425 129.758 59.8004 131.796 58.0374C134.343 55.8351 135.764 52.6213 135.69 49.2226C135.684 48.8122 135.387 48.4596 134.982 48.3844C131.677 47.7891 128.326 48.7081 125.779 50.9162C124.649 51.893 123.741 53.0722 123.091 54.3727C122.474 52.3786 121.315 50.5809 119.706 49.1821C117.159 46.9799 113.809 46.055 110.503 46.6504C110.104 46.7255 109.807 47.0723 109.796 47.4885C109.727 50.8872 111.143 54.0953 113.689 56.3033C115.727 58.0663 118.278 59.0084 120.91 59.0084C121.236 59.0084 121.555 58.9911 121.88 58.9622V68.3493C117.879 68.5112 114.904 69.7193 113.934 70.1699L110.851 69.1412L107.666 68.1124C104.11 66.7308 101.375 68.4649 100.987 68.7306L93.4572 73.0831C93.0462 73.3199 92.9038 73.8518 93.138 74.2681C93.3715 74.6843 93.8972 74.8287 94.3082 74.5918L101.866 70.2218C101.866 70.2218 101.918 70.1931 101.935 70.1756C102.026 70.1124 104.184 68.6212 107.095 69.7537L110.315 70.7999L123.559 75.2043C124.644 75.5687 125.231 76.7537 124.878 77.8518C124.523 78.9443 123.353 79.5399 122.269 79.1812L109.019 74.7712C108.568 74.6206 108.089 74.8693 107.94 75.3262C107.792 75.7824 108.037 76.2681 108.488 76.4187L121.738 80.8287C122.126 80.9562 122.526 81.0193 122.914 81.0193C124.501 81.0193 125.985 79.9962 126.505 78.3956C126.601 78.1006 126.653 77.7999 126.682 77.5049L134.331 73.2162C134.331 73.2162 134.337 73.2162 134.343 73.2162L137.556 71.4131C138.555 70.8637 139.817 71.2393 140.359 72.2512C140.622 72.7424 140.684 73.3087 140.53 73.8406C140.376 74.3724 140.023 74.8174 139.526 75.0887L121.806 85.0193C121.806 85.0193 121.778 85.0368 121.761 85.0481C120.819 85.5687 119.865 85.2506 119.797 85.2274L108.739 81.7537C106.011 80.9443 103.756 81.7362 103.647 81.7768L98.9492 83.5631C98.5036 83.7306 98.2812 84.2331 98.4469 84.6781C98.6121 85.1293 99.1088 85.3549 99.5488 85.1868L104.23 83.4068C104.23 83.4068 106.079 82.7768 108.243 83.4181L119.255 86.8749C119.295 86.8862 119.831 87.0774 120.579 87.0774C121.178 87.0774 121.909 86.9556 122.64 86.5393C122.651 86.5337 122.663 86.5224 122.674 86.5162L140.348 76.6149C141.238 76.1237 141.884 75.3143 142.169 74.3374C142.454 73.3549 142.346 72.3206 141.861 71.4243V71.4131ZM126.887 52.2341C128.856 50.5289 131.397 49.7312 133.96 49.9913C133.817 52.5924 132.647 55.0086 130.677 56.7195C129.039 58.1356 127.012 58.916 124.906 58.9911L130.9 53.8641C131.26 53.5519 131.305 53.0086 131.003 52.6444C130.695 52.2803 130.158 52.2341 129.798 52.5404L123.776 57.6964C124.17 55.5866 125.249 53.6618 126.898 52.2341H126.887ZM111.514 48.2573C114.071 47.9972 116.617 48.7948 118.587 50.5C120.231 51.9277 121.315 53.8525 121.71 55.9623L115.686 50.8063C115.327 50.4942 114.785 50.5463 114.482 50.9104C114.18 51.2746 114.22 51.8237 114.585 52.13L120.573 57.2571C118.467 57.1819 116.44 56.4016 114.802 54.9854C112.833 53.2802 111.656 50.8584 111.519 48.2573H111.514ZM124.101 73.5574L116.549 71.0431C119.654 70.0774 125.723 69.0312 132.167 72.4418L126.391 75.6843C125.98 74.7131 125.174 73.9156 124.107 73.5574H124.101Z" fill="white"/>
<path d="M104.692 65.9968C105.131 65.8176 105.343 65.3147 105.166 64.8696C104.293 62.6732 103.853 60.3553 103.853 57.9796C103.853 47.8181 112.016 39.5466 122.052 39.5466C132.088 39.5466 140.257 47.8181 140.257 57.9796C140.257 60.9854 139.526 63.9737 138.139 66.6211C137.916 67.043 138.076 67.569 138.493 67.7944C138.618 67.8638 138.755 67.8925 138.892 67.8925C139.201 67.8925 139.498 67.7251 139.652 67.4303C141.17 64.5344 141.975 61.2686 141.975 57.9796C141.969 46.8585 133.035 37.8125 122.052 37.8125C111.068 37.8125 102.14 46.8585 102.14 57.9796C102.14 60.5749 102.626 63.1124 103.579 65.5171C103.756 65.9621 104.253 66.176 104.692 65.9968Z" fill="white"/>
<path d="M122.056 128.502L122.049 129.687H115.519V118.94H122.049V120.125H116.953V123.695H121.08V124.835H116.953V128.502H122.056ZM128.966 123.44C128.927 123.495 128.887 123.537 128.848 123.567C128.808 123.597 128.754 123.612 128.685 123.612C128.611 123.612 128.53 123.582 128.441 123.522C128.352 123.457 128.241 123.387 128.108 123.312C127.98 123.237 127.82 123.17 127.627 123.11C127.44 123.045 127.208 123.012 126.932 123.012C126.563 123.012 126.237 123.08 125.956 123.215C125.675 123.345 125.439 123.535 125.246 123.785C125.059 124.035 124.916 124.337 124.817 124.692C124.724 125.047 124.677 125.445 124.677 125.885C124.677 126.345 124.729 126.755 124.832 127.115C124.936 127.47 125.081 127.77 125.269 128.015C125.461 128.255 125.69 128.44 125.956 128.57C126.227 128.695 126.531 128.757 126.866 128.757C127.186 128.757 127.45 128.72 127.657 128.645C127.864 128.565 128.034 128.477 128.167 128.382C128.305 128.287 128.419 128.202 128.507 128.127C128.601 128.047 128.692 128.007 128.781 128.007C128.89 128.007 128.973 128.05 129.033 128.135L129.402 128.622C129.24 128.827 129.055 129.002 128.848 129.147C128.641 129.292 128.416 129.415 128.175 129.515C127.938 129.61 127.689 129.68 127.428 129.725C127.167 129.77 126.9 129.792 126.629 129.792C126.161 129.792 125.725 129.705 125.32 129.53C124.921 129.355 124.573 129.102 124.278 128.772C123.982 128.437 123.75 128.027 123.582 127.542C123.415 127.057 123.331 126.505 123.331 125.885C123.331 125.32 123.407 124.797 123.56 124.317C123.718 123.837 123.945 123.425 124.241 123.08C124.541 122.73 124.909 122.457 125.342 122.262C125.781 122.067 126.284 121.97 126.851 121.97C127.379 121.97 127.842 122.057 128.241 122.232C128.646 122.402 129.003 122.645 129.314 122.96L128.966 123.44ZM134.213 121.97C134.76 121.97 135.253 122.062 135.692 122.247C136.13 122.432 136.505 122.695 136.816 123.035C137.126 123.375 137.363 123.787 137.526 124.272C137.693 124.752 137.777 125.29 137.777 125.885C137.777 126.485 137.693 127.025 137.526 127.505C137.363 127.985 137.126 128.395 136.816 128.735C136.505 129.075 136.13 129.337 135.692 129.522C135.253 129.702 134.76 129.792 134.213 129.792C133.661 129.792 133.163 129.702 132.719 129.522C132.28 129.337 131.905 129.075 131.595 128.735C131.284 128.395 131.045 127.985 130.878 127.505C130.715 127.025 130.634 126.485 130.634 125.885C130.634 125.29 130.715 124.752 130.878 124.272C131.045 123.787 131.284 123.375 131.595 123.035C131.905 122.695 132.28 122.432 132.719 122.247C133.163 122.062 133.661 121.97 134.213 121.97ZM134.213 128.75C134.952 128.75 135.504 128.5 135.869 128C136.234 127.495 136.416 126.792 136.416 125.892C136.416 124.987 136.234 124.282 135.869 123.777C135.504 123.272 134.952 123.02 134.213 123.02C133.838 123.02 133.51 123.085 133.229 123.215C132.953 123.345 132.721 123.532 132.534 123.777C132.352 124.022 132.214 124.325 132.12 124.685C132.031 125.04 131.987 125.442 131.987 125.892C131.987 126.792 132.169 127.495 132.534 128C132.904 128.5 133.463 128.75 134.213 128.75ZM141.059 123.192C141.222 123.007 141.394 122.84 141.577 122.69C141.759 122.54 141.952 122.412 142.154 122.307C142.361 122.197 142.578 122.115 142.804 122.06C143.036 122 143.285 121.97 143.551 121.97C143.961 121.97 144.32 122.04 144.631 122.18C144.947 122.315 145.208 122.51 145.415 122.765C145.627 123.015 145.787 123.317 145.896 123.672C146.004 124.027 146.058 124.42 146.058 124.85V129.687H144.735V124.85C144.735 124.275 144.604 123.83 144.343 123.515C144.086 123.195 143.694 123.035 143.167 123.035C142.777 123.035 142.412 123.13 142.072 123.32C141.737 123.51 141.426 123.767 141.141 124.092V129.687H139.817V122.09H140.608C140.795 122.09 140.911 122.182 140.956 122.367L141.059 123.192ZM151.591 121.97C152.138 121.97 152.631 122.062 153.07 122.247C153.509 122.432 153.883 122.695 154.194 123.035C154.504 123.375 154.741 123.787 154.904 124.272C155.071 124.752 155.155 125.29 155.155 125.885C155.155 126.485 155.071 127.025 154.904 127.505C154.741 127.985 154.504 128.395 154.194 128.735C153.883 129.075 153.509 129.337 153.07 129.522C152.631 129.702 152.138 129.792 151.591 129.792C151.039 129.792 150.541 129.702 150.097 129.522C149.658 129.337 149.284 129.075 148.973 128.735C148.662 128.395 148.423 127.985 148.256 127.505C148.093 127.025 148.012 126.485 148.012 125.885C148.012 125.29 148.093 124.752 148.256 124.272C148.423 123.787 148.662 123.375 148.973 123.035C149.284 122.695 149.658 122.432 150.097 122.247C150.541 122.062 151.039 121.97 151.591 121.97ZM151.591 128.75C152.33 128.75 152.883 128.5 153.247 128C153.612 127.495 153.795 126.792 153.795 125.892C153.795 124.987 153.612 124.282 153.247 123.777C152.883 123.272 152.33 123.02 151.591 123.02C151.216 123.02 150.888 123.085 150.607 123.215C150.331 123.345 150.1 123.532 149.912 123.777C149.73 124.022 149.592 124.325 149.498 124.685C149.409 125.04 149.365 125.442 149.365 125.892C149.365 126.792 149.547 127.495 149.912 128C150.282 128.5 150.842 128.75 151.591 128.75ZM157.195 129.687V122.09H157.986C158.174 122.09 158.289 122.182 158.334 122.367L158.43 123.147C158.706 122.802 159.017 122.52 159.362 122.3C159.707 122.08 160.106 121.97 160.56 121.97C161.063 121.97 161.469 122.112 161.78 122.397C162.095 122.682 162.322 123.067 162.46 123.552C162.569 123.277 162.707 123.04 162.874 122.84C163.047 122.64 163.239 122.475 163.451 122.345C163.663 122.215 163.887 122.12 164.124 122.06C164.366 122 164.61 121.97 164.856 121.97C165.251 121.97 165.601 122.035 165.906 122.165C166.217 122.29 166.478 122.475 166.69 122.72C166.907 122.965 167.072 123.267 167.186 123.627C167.299 123.982 167.356 124.39 167.356 124.85V129.687H166.032V124.85C166.032 124.255 165.904 123.805 165.647 123.5C165.391 123.19 165.021 123.035 164.538 123.035C164.321 123.035 164.114 123.075 163.917 123.155C163.725 123.23 163.555 123.342 163.407 123.492C163.259 123.642 163.141 123.832 163.052 124.062C162.968 124.287 162.926 124.55 162.926 124.85V129.687H161.602V124.85C161.602 124.24 161.482 123.785 161.24 123.485C160.998 123.185 160.646 123.035 160.183 123.035C159.857 123.035 159.556 123.125 159.28 123.305C159.004 123.48 158.75 123.72 158.519 124.025V129.687H157.195ZM171.116 122.09V129.687H169.8V122.09H171.116ZM171.397 119.705C171.397 119.835 171.37 119.957 171.316 120.072C171.266 120.182 171.197 120.282 171.109 120.372C171.025 120.457 170.924 120.525 170.805 120.575C170.692 120.625 170.571 120.65 170.443 120.65C170.315 120.65 170.194 120.625 170.081 120.575C169.972 120.525 169.876 120.457 169.792 120.372C169.708 120.282 169.642 120.182 169.593 120.072C169.543 119.957 169.519 119.835 169.519 119.705C169.519 119.575 169.543 119.452 169.593 119.337C169.642 119.217 169.708 119.115 169.792 119.03C169.876 118.94 169.972 118.87 170.081 118.82C170.194 118.77 170.315 118.745 170.443 118.745C170.571 118.745 170.692 118.77 170.805 118.82C170.924 118.87 171.025 118.94 171.109 119.03C171.197 119.115 171.266 119.217 171.316 119.337C171.37 119.452 171.397 119.575 171.397 119.705ZM178.862 123.44C178.822 123.495 178.783 123.537 178.743 123.567C178.704 123.597 178.65 123.612 178.581 123.612C178.507 123.612 178.425 123.582 178.337 123.522C178.248 123.457 178.137 123.387 178.004 123.312C177.876 123.237 177.715 123.17 177.523 123.11C177.336 123.045 177.104 123.012 176.828 123.012C176.458 123.012 176.133 123.08 175.852 123.215C175.571 123.345 175.334 123.535 175.142 123.785C174.955 124.035 174.812 124.337 174.713 124.692C174.619 125.047 174.573 125.445 174.573 125.885C174.573 126.345 174.624 126.755 174.728 127.115C174.831 127.47 174.977 127.77 175.164 128.015C175.356 128.255 175.586 128.44 175.852 128.57C176.123 128.695 176.426 128.757 176.761 128.757C177.082 128.757 177.346 128.72 177.553 128.645C177.76 128.565 177.93 128.477 178.063 128.382C178.201 128.287 178.314 128.202 178.403 128.127C178.497 128.047 178.588 128.007 178.677 128.007C178.785 128.007 178.869 128.05 178.928 128.135L179.298 128.622C179.135 128.827 178.95 129.002 178.743 129.147C178.536 129.292 178.312 129.415 178.07 129.515C177.834 129.61 177.585 129.68 177.323 129.725C177.062 129.77 176.796 129.792 176.525 129.792C176.056 129.792 175.62 129.705 175.216 129.53C174.817 129.355 174.469 129.102 174.173 128.772C173.877 128.437 173.646 128.027 173.478 127.542C173.31 127.057 173.227 126.505 173.227 125.885C173.227 125.32 173.303 124.797 173.456 124.317C173.614 123.837 173.84 123.425 174.136 123.08C174.437 122.73 174.804 122.457 175.238 122.262C175.677 122.067 176.18 121.97 176.747 121.97C177.274 121.97 177.738 122.057 178.137 122.232C178.541 122.402 178.899 122.645 179.209 122.96L178.862 123.44ZM185.141 126.267C184.534 126.287 184.017 126.337 183.588 126.417C183.164 126.492 182.816 126.592 182.545 126.717C182.279 126.842 182.084 126.99 181.961 127.16C181.842 127.33 181.783 127.52 181.783 127.73C181.783 127.93 181.815 128.102 181.879 128.247C181.943 128.392 182.03 128.512 182.138 128.607C182.252 128.697 182.382 128.765 182.53 128.81C182.683 128.85 182.846 128.87 183.018 128.87C183.25 128.87 183.462 128.847 183.654 128.802C183.846 128.752 184.026 128.682 184.194 128.592C184.367 128.502 184.529 128.395 184.682 128.27C184.84 128.145 184.993 128.002 185.141 127.842V126.267ZM180.888 123.162C181.303 122.757 181.749 122.455 182.227 122.255C182.705 122.055 183.235 121.955 183.817 121.955C184.236 121.955 184.608 122.025 184.933 122.165C185.259 122.305 185.532 122.5 185.754 122.75C185.976 123 186.144 123.302 186.257 123.657C186.371 124.012 186.427 124.402 186.427 124.827V129.687H185.843C185.715 129.687 185.616 129.667 185.547 129.627C185.478 129.582 185.424 129.497 185.385 129.372L185.237 128.652C185.039 128.837 184.847 129.002 184.66 129.147C184.473 129.287 184.275 129.407 184.068 129.507C183.861 129.602 183.639 129.675 183.403 129.725C183.171 129.78 182.912 129.807 182.626 129.807C182.335 129.807 182.062 129.767 181.805 129.687C181.549 129.602 181.325 129.477 181.132 129.312C180.945 129.147 180.795 128.94 180.681 128.69C180.573 128.435 180.519 128.135 180.519 127.79C180.519 127.49 180.6 127.202 180.763 126.927C180.925 126.647 181.189 126.4 181.554 126.185C181.919 125.97 182.395 125.795 182.981 125.66C183.568 125.52 184.288 125.44 185.141 125.42V124.827C185.141 124.237 185.015 123.792 184.763 123.492C184.512 123.187 184.145 123.035 183.662 123.035C183.336 123.035 183.063 123.077 182.841 123.162C182.624 123.242 182.434 123.335 182.271 123.44C182.114 123.54 181.976 123.632 181.857 123.717C181.744 123.797 181.63 123.837 181.517 123.837C181.428 123.837 181.352 123.815 181.288 123.77C181.224 123.72 181.169 123.66 181.125 123.59L180.888 123.162ZM190.163 118.64V129.687H188.847V118.64H190.163ZM101.667 141.465V149.062H100.351V141.465H101.667ZM101.948 139.08C101.948 139.21 101.921 139.332 101.867 139.447C101.817 139.557 101.748 139.657 101.659 139.747C101.576 139.832 101.475 139.9 101.356 139.95C101.243 140 101.122 140.025 100.994 140.025C100.866 140.025 100.745 140 100.632 139.95C100.523 139.9 100.427 139.832 100.343 139.747C100.259 139.657 100.193 139.557 100.144 139.447C100.094 139.332 100.07 139.21 100.07 139.08C100.07 138.95 100.094 138.827 100.144 138.712C100.193 138.592 100.259 138.49 100.343 138.405C100.427 138.315 100.523 138.245 100.632 138.195C100.745 138.145 100.866 138.12 100.994 138.12C101.122 138.12 101.243 138.145 101.356 138.195C101.475 138.245 101.576 138.315 101.659 138.405C101.748 138.49 101.817 138.592 101.867 138.712C101.921 138.827 101.948 138.95 101.948 139.08ZM105.442 142.567C105.605 142.382 105.777 142.215 105.96 142.065C106.142 141.915 106.334 141.787 106.536 141.682C106.744 141.572 106.96 141.49 107.187 141.435C107.419 141.375 107.668 141.345 107.934 141.345C108.343 141.345 108.703 141.415 109.014 141.555C109.329 141.69 109.591 141.885 109.798 142.14C110.01 142.39 110.17 142.692 110.278 143.047C110.387 143.402 110.441 143.795 110.441 144.225V149.062H109.117V144.225C109.117 143.65 108.987 143.205 108.725 142.89C108.469 142.57 108.077 142.41 107.55 142.41C107.16 142.41 106.795 142.505 106.455 142.695C106.12 142.885 105.809 143.142 105.523 143.467V149.062H104.2V141.465H104.991C105.178 141.465 105.294 141.557 105.338 141.742L105.442 142.567ZM119.076 141.465L116.022 149.062H114.839L111.785 141.465H112.857C112.966 141.465 113.054 141.492 113.124 141.547C113.193 141.602 113.239 141.667 113.264 141.742L115.165 146.632C115.224 146.817 115.275 146.997 115.32 147.172C115.364 147.347 115.406 147.522 115.446 147.697C115.485 147.522 115.527 147.347 115.571 147.172C115.616 146.997 115.67 146.817 115.734 146.632L117.657 141.742C117.686 141.662 117.736 141.597 117.805 141.547C117.874 141.492 117.955 141.465 118.049 141.465H119.076ZM125.465 144.435C125.465 144.125 125.421 143.842 125.332 143.587C125.248 143.327 125.122 143.105 124.955 142.92C124.792 142.73 124.592 142.585 124.356 142.485C124.119 142.38 123.851 142.327 123.55 142.327C122.919 142.327 122.418 142.515 122.049 142.89C121.684 143.26 121.457 143.775 121.368 144.435H125.465ZM126.53 147.997C126.367 148.197 126.173 148.372 125.946 148.522C125.719 148.667 125.475 148.787 125.214 148.882C124.957 148.977 124.691 149.047 124.415 149.092C124.139 149.142 123.865 149.167 123.594 149.167C123.077 149.167 122.598 149.08 122.16 148.905C121.726 148.725 121.349 148.465 121.028 148.125C120.713 147.78 120.466 147.355 120.289 146.85C120.111 146.345 120.022 145.765 120.022 145.11C120.022 144.58 120.101 144.085 120.259 143.625C120.422 143.165 120.653 142.767 120.954 142.432C121.255 142.092 121.622 141.827 122.056 141.637C122.49 141.442 122.978 141.345 123.52 141.345C123.969 141.345 124.383 141.422 124.763 141.577C125.147 141.727 125.477 141.947 125.753 142.237C126.035 142.522 126.254 142.877 126.412 143.302C126.569 143.722 126.648 144.202 126.648 144.742C126.648 144.952 126.626 145.092 126.582 145.162C126.537 145.232 126.454 145.267 126.33 145.267H121.324C121.339 145.747 121.403 146.165 121.516 146.52C121.635 146.875 121.797 147.172 122.004 147.412C122.211 147.647 122.458 147.825 122.744 147.945C123.03 148.06 123.35 148.117 123.705 148.117C124.035 148.117 124.319 148.08 124.556 148.005C124.797 147.925 125.004 147.84 125.177 147.75C125.349 147.66 125.492 147.577 125.606 147.502C125.724 147.422 125.825 147.382 125.909 147.382C126.017 147.382 126.101 147.425 126.16 147.51L126.53 147.997ZM132.997 142.717C132.938 142.827 132.847 142.882 132.724 142.882C132.65 142.882 132.566 142.855 132.472 142.8C132.379 142.745 132.263 142.685 132.125 142.62C131.992 142.55 131.832 142.487 131.644 142.432C131.457 142.372 131.235 142.342 130.979 142.342C130.757 142.342 130.557 142.372 130.38 142.432C130.202 142.487 130.049 142.565 129.921 142.665C129.798 142.765 129.702 142.882 129.633 143.017C129.569 143.147 129.537 143.29 129.537 143.445C129.537 143.64 129.591 143.802 129.699 143.932C129.813 144.062 129.961 144.175 130.143 144.27C130.325 144.365 130.532 144.45 130.764 144.525C130.996 144.595 131.233 144.672 131.474 144.757C131.721 144.837 131.96 144.927 132.191 145.027C132.423 145.127 132.63 145.252 132.813 145.402C132.995 145.552 133.14 145.737 133.249 145.957C133.362 146.172 133.419 146.432 133.419 146.737C133.419 147.087 133.357 147.412 133.234 147.712C133.111 148.007 132.928 148.265 132.687 148.485C132.445 148.7 132.15 148.87 131.799 148.995C131.449 149.12 131.045 149.182 130.587 149.182C130.064 149.182 129.591 149.097 129.167 148.927C128.743 148.752 128.383 148.53 128.087 148.26L128.398 147.75C128.437 147.685 128.484 147.635 128.538 147.6C128.593 147.565 128.662 147.547 128.745 147.547C128.834 147.547 128.928 147.582 129.026 147.652C129.125 147.722 129.243 147.8 129.381 147.885C129.524 147.97 129.697 148.047 129.899 148.117C130.101 148.187 130.353 148.222 130.653 148.222C130.91 148.222 131.134 148.19 131.326 148.125C131.518 148.055 131.679 147.962 131.807 147.847C131.935 147.732 132.029 147.6 132.088 147.45C132.152 147.3 132.184 147.14 132.184 146.97C132.184 146.76 132.127 146.587 132.014 146.452C131.905 146.312 131.76 146.195 131.578 146.1C131.395 146 131.186 145.915 130.949 145.845C130.717 145.77 130.478 145.692 130.232 145.612C129.99 145.532 129.751 145.442 129.514 145.342C129.283 145.237 129.076 145.107 128.893 144.952C128.711 144.797 128.563 144.607 128.45 144.382C128.341 144.152 128.287 143.875 128.287 143.55C128.287 143.26 128.346 142.982 128.464 142.717C128.583 142.447 128.755 142.212 128.982 142.012C129.209 141.807 129.487 141.645 129.818 141.525C130.148 141.405 130.525 141.345 130.949 141.345C131.442 141.345 131.883 141.425 132.273 141.585C132.667 141.74 133.007 141.955 133.293 142.23L132.997 142.717ZM137.703 149.182C137.111 149.182 136.655 149.015 136.334 148.68C136.019 148.345 135.861 147.862 135.861 147.232V142.582H134.959C134.88 142.582 134.814 142.56 134.759 142.515C134.705 142.465 134.678 142.39 134.678 142.29V141.757L135.906 141.6L136.209 139.252C136.224 139.177 136.256 139.117 136.305 139.072C136.359 139.022 136.428 138.997 136.512 138.997H137.177V141.615H139.344V142.582H137.177V147.142C137.177 147.462 137.254 147.7 137.407 147.855C137.56 148.01 137.757 148.087 137.998 148.087C138.136 148.087 138.255 148.07 138.353 148.035C138.457 147.995 138.546 147.952 138.619 147.907C138.693 147.862 138.755 147.822 138.804 147.787C138.859 147.747 138.905 147.727 138.945 147.727C139.014 147.727 139.076 147.77 139.13 147.855L139.514 148.492C139.287 148.707 139.014 148.877 138.693 149.002C138.373 149.122 138.043 149.182 137.703 149.182ZM141.073 149.062V141.465H141.865C142.052 141.465 142.168 141.557 142.212 141.742L142.308 142.522C142.584 142.177 142.895 141.895 143.24 141.675C143.585 141.455 143.985 141.345 144.438 141.345C144.941 141.345 145.348 141.487 145.658 141.772C145.974 142.057 146.201 142.442 146.339 142.927C146.447 142.652 146.585 142.415 146.753 142.215C146.925 142.015 147.118 141.85 147.33 141.72C147.542 141.59 147.766 141.495 148.002 141.435C148.244 141.375 148.488 141.345 148.735 141.345C149.129 141.345 149.479 141.41 149.785 141.54C150.095 141.665 150.357 141.85 150.569 142.095C150.785 142.34 150.951 142.642 151.064 143.002C151.177 143.357 151.234 143.765 151.234 144.225V149.062H149.91V144.225C149.91 143.63 149.782 143.18 149.526 142.875C149.269 142.565 148.9 142.41 148.417 142.41C148.2 142.41 147.993 142.45 147.795 142.53C147.603 142.605 147.433 142.717 147.285 142.867C147.137 143.017 147.019 143.207 146.93 143.437C146.846 143.662 146.804 143.925 146.804 144.225V149.062H145.481V144.225C145.481 143.615 145.36 143.16 145.118 142.86C144.877 142.56 144.524 142.41 144.061 142.41C143.736 142.41 143.435 142.5 143.159 142.68C142.883 142.855 142.629 143.095 142.397 143.4V149.062H141.073ZM158.618 144.435C158.618 144.125 158.574 143.842 158.485 143.587C158.401 143.327 158.275 143.105 158.108 142.92C157.945 142.73 157.745 142.585 157.509 142.485C157.272 142.38 157.003 142.327 156.703 142.327C156.072 142.327 155.571 142.515 155.201 142.89C154.837 143.26 154.61 143.775 154.521 144.435H158.618ZM159.683 147.997C159.52 148.197 159.325 148.372 159.099 148.522C158.872 148.667 158.628 148.787 158.367 148.882C158.11 148.977 157.844 149.047 157.568 149.092C157.292 149.142 157.018 149.167 156.747 149.167C156.229 149.167 155.751 149.08 155.312 148.905C154.879 148.725 154.501 148.465 154.181 148.125C153.865 147.78 153.619 147.355 153.441 146.85C153.264 146.345 153.175 145.765 153.175 145.11C153.175 144.58 153.254 144.085 153.412 143.625C153.575 143.165 153.806 142.767 154.107 142.432C154.408 142.092 154.775 141.827 155.209 141.637C155.643 141.442 156.131 141.345 156.673 141.345C157.122 141.345 157.536 141.422 157.915 141.577C158.3 141.727 158.63 141.947 158.906 142.237C159.187 142.522 159.407 142.877 159.564 143.302C159.722 143.722 159.801 144.202 159.801 144.742C159.801 144.952 159.779 145.092 159.735 145.162C159.69 145.232 159.606 145.267 159.483 145.267H154.477C154.492 145.747 154.556 146.165 154.669 146.52C154.787 146.875 154.95 147.172 155.157 147.412C155.364 147.647 155.611 147.825 155.897 147.945C156.183 148.06 156.503 148.117 156.858 148.117C157.188 148.117 157.472 148.08 157.708 148.005C157.95 147.925 158.157 147.84 158.33 147.75C158.502 147.66 158.645 147.577 158.758 147.502C158.877 147.422 158.978 147.382 159.062 147.382C159.17 147.382 159.254 147.425 159.313 147.51L159.683 147.997ZM163.03 142.567C163.193 142.382 163.365 142.215 163.548 142.065C163.73 141.915 163.923 141.787 164.125 141.682C164.332 141.572 164.549 141.49 164.775 141.435C165.007 141.375 165.256 141.345 165.522 141.345C165.932 141.345 166.291 141.415 166.602 141.555C166.918 141.69 167.179 141.885 167.386 142.14C167.598 142.39 167.758 142.692 167.867 143.047C167.975 143.402 168.029 143.795 168.029 144.225V149.062H166.706V144.225C166.706 143.65 166.575 143.205 166.314 142.89C166.057 142.57 165.665 142.41 165.138 142.41C164.748 142.41 164.384 142.505 164.043 142.695C163.708 142.885 163.398 143.142 163.112 143.467V149.062H161.788V141.465H162.579C162.766 141.465 162.882 141.557 162.927 141.742L163.03 142.567ZM172.603 149.182C172.011 149.182 171.555 149.015 171.235 148.68C170.919 148.345 170.762 147.862 170.762 147.232V142.582H169.859C169.781 142.582 169.714 142.56 169.66 142.515C169.606 142.465 169.578 142.39 169.578 142.29V141.757L170.806 141.6L171.109 139.252C171.124 139.177 171.156 139.117 171.205 139.072C171.26 139.022 171.329 138.997 171.412 138.997H172.078V141.615H174.245V142.582H172.078V147.142C172.078 147.462 172.154 147.7 172.307 147.855C172.46 148.01 172.657 148.087 172.899 148.087C173.037 148.087 173.155 148.07 173.254 148.035C173.357 147.995 173.446 147.952 173.52 147.907C173.594 147.862 173.656 147.822 173.705 147.787C173.759 147.747 173.806 147.727 173.845 147.727C173.914 147.727 173.976 147.77 174.03 147.855L174.415 148.492C174.188 148.707 173.914 148.877 173.594 149.002C173.273 149.122 172.943 149.182 172.603 149.182ZM181.518 141.465V149.062H180.202V141.465H181.518ZM181.799 139.08C181.799 139.21 181.772 139.332 181.718 139.447C181.669 139.557 181.6 139.657 181.511 139.747C181.427 139.832 181.326 139.9 181.208 139.95C181.094 140 180.973 140.025 180.845 140.025C180.717 140.025 180.596 140 180.483 139.95C180.375 139.9 180.278 139.832 180.195 139.747C180.111 139.657 180.044 139.557 179.995 139.447C179.946 139.332 179.921 139.21 179.921 139.08C179.921 138.95 179.946 138.827 179.995 138.712C180.044 138.592 180.111 138.49 180.195 138.405C180.278 138.315 180.375 138.245 180.483 138.195C180.596 138.145 180.717 138.12 180.845 138.12C180.973 138.12 181.094 138.145 181.208 138.195C181.326 138.245 181.427 138.315 181.511 138.405C181.6 138.49 181.669 138.592 181.718 138.712C181.772 138.827 181.799 138.95 181.799 139.08ZM185.293 142.567C185.455 142.382 185.628 142.215 185.81 142.065C185.993 141.915 186.185 141.787 186.387 141.682C186.594 141.572 186.811 141.49 187.038 141.435C187.27 141.375 187.519 141.345 187.785 141.345C188.194 141.345 188.554 141.415 188.865 141.555C189.18 141.69 189.441 141.885 189.648 142.14C189.86 142.39 190.021 142.692 190.129 143.047C190.238 143.402 190.292 143.795 190.292 144.225V149.062H188.968V144.225C188.968 143.65 188.837 143.205 188.576 142.89C188.32 142.57 187.928 142.41 187.4 142.41C187.011 142.41 186.646 142.505 186.306 142.695C185.971 142.885 185.66 143.142 185.374 143.467V149.062H184.05V141.465H184.842C185.029 141.465 185.145 141.557 185.189 141.742L185.293 142.567ZM74.0646 162.19C74.0251 162.245 73.9857 162.287 73.9463 162.317C73.9068 162.347 73.8526 162.362 73.7836 162.362C73.7096 162.362 73.6283 162.332 73.5395 162.272C73.4508 162.207 73.3399 162.137 73.2068 162.062C73.0786 161.987 72.9184 161.92 72.7261 161.86C72.5388 161.795 72.307 161.762 72.031 161.762C71.6612 161.762 71.3358 161.83 71.0548 161.965C70.7738 162.095 70.5372 162.285 70.3449 162.535C70.1576 162.785 70.0146 163.087 69.916 163.442C69.8223 163.797 69.7755 164.195 69.7755 164.635C69.7755 165.095 69.8273 165.505 69.9308 165.865C70.0343 166.22 70.1798 166.52 70.3671 166.765C70.5594 167.005 70.7886 167.19 71.0548 167.32C71.326 167.445 71.6292 167.507 71.9644 167.507C72.2849 167.507 72.5486 167.47 72.7557 167.395C72.9627 167.315 73.1328 167.227 73.2659 167.132C73.404 167.037 73.5174 166.952 73.6061 166.877C73.6998 166.797 73.791 166.757 73.8797 166.757C73.9882 166.757 74.072 166.8 74.1311 166.885L74.5009 167.372C74.3382 167.577 74.1533 167.752 73.9463 167.897C73.7392 168.042 73.5149 168.165 73.2733 168.265C73.0367 168.36 72.7877 168.43 72.5264 168.475C72.2651 168.52 71.9989 168.542 71.7278 168.542C71.2594 168.542 70.8231 168.455 70.4189 168.28C70.0195 168.105 69.672 167.852 69.3762 167.522C69.0804 167.187 68.8485 166.777 68.6809 166.292C68.5133 165.807 68.4294 165.255 68.4294 164.635C68.4294 164.07 68.5059 163.547 68.6587 163.067C68.8164 162.587 69.0434 162.175 69.3392 161.83C69.6399 161.48 70.0072 161.207 70.4411 161.012C70.8798 160.817 71.3827 160.72 71.9496 160.72C72.4771 160.72 72.9406 160.807 73.3399 160.982C73.7441 161.152 74.1016 161.395 74.4121 161.71L74.0646 162.19ZM77.6444 157.39V168.437H76.3281V157.39H77.6444ZM81.5384 160.84V168.437H80.2221V160.84H81.5384ZM81.8194 158.455C81.8194 158.585 81.7923 158.707 81.7381 158.822C81.6888 158.932 81.6198 159.032 81.531 159.122C81.4472 159.207 81.3462 159.275 81.2278 159.325C81.1144 159.375 80.9937 159.4 80.8655 159.4C80.7373 159.4 80.6165 159.375 80.5031 159.325C80.3947 159.275 80.2985 159.207 80.2147 159.122C80.1309 159.032 80.0644 158.932 80.0151 158.822C79.9658 158.707 79.9411 158.585 79.9411 158.455C79.9411 158.325 79.9658 158.202 80.0151 158.087C80.0644 157.967 80.1309 157.865 80.2147 157.78C80.2985 157.69 80.3947 157.62 80.5031 157.57C80.6165 157.52 80.7373 157.495 80.8655 157.495C80.9937 157.495 81.1144 157.52 81.2278 157.57C81.3462 157.62 81.4472 157.69 81.531 157.78C81.6198 157.865 81.6888 157.967 81.7381 158.087C81.7923 158.202 81.8194 158.325 81.8194 158.455ZM84.0712 168.437V160.84H84.8625C85.0498 160.84 85.1656 160.932 85.21 161.117L85.3062 161.897C85.5822 161.552 85.8928 161.27 86.2379 161.05C86.583 160.83 86.9823 160.72 87.4359 160.72C87.9388 160.72 88.3455 160.862 88.6561 161.147C88.9716 161.432 89.1984 161.817 89.3364 162.302C89.4449 162.027 89.5829 161.79 89.7505 161.59C89.9231 161.39 90.1153 161.225 90.3273 161.095C90.5393 160.965 90.7636 160.87 91.0003 160.81C91.2418 160.75 91.4859 160.72 91.7324 160.72C92.1268 160.72 92.4768 160.785 92.7825 160.915C93.093 161.04 93.3543 161.225 93.5663 161.47C93.7832 161.715 93.9484 162.017 94.0618 162.377C94.1752 162.732 94.2319 163.14 94.2319 163.6V168.437H92.9082V163.6C92.9082 163.005 92.78 162.555 92.5236 162.25C92.2673 161.94 91.8975 161.785 91.4144 161.785C91.1975 161.785 90.9904 161.825 90.7932 161.905C90.601 161.98 90.4309 162.092 90.283 162.242C90.1351 162.392 90.0167 162.582 89.928 162.812C89.8442 163.037 89.8023 163.3 89.8023 163.6V168.437H88.4786V163.6C88.4786 162.99 88.3578 162.535 88.1162 162.235C87.8747 161.935 87.5222 161.785 87.0588 161.785C86.7334 161.785 86.4326 161.875 86.1566 162.055C85.8805 162.23 85.6266 162.47 85.3949 162.775V168.437H84.0712ZM100.662 165.017C100.055 165.037 99.5378 165.087 99.1088 165.167C98.6849 165.242 98.3373 165.342 98.0662 165.467C97.7999 165.592 97.6052 165.74 97.4819 165.91C97.3636 166.08 97.3045 166.27 97.3045 166.48C97.3045 166.68 97.3365 166.852 97.4006 166.997C97.4647 167.142 97.551 167.262 97.6594 167.357C97.7728 167.447 97.9035 167.515 98.0514 167.56C98.2042 167.6 98.3669 167.62 98.5394 167.62C98.7711 167.62 98.9831 167.597 99.1754 167.552C99.3677 167.502 99.5476 167.432 99.7152 167.342C99.8878 167.252 100.05 167.145 100.203 167.02C100.361 166.895 100.514 166.752 100.662 166.592V165.017ZM96.4097 161.912C96.8238 161.507 97.27 161.205 97.7482 161.005C98.2264 160.805 98.7564 160.705 99.3381 160.705C99.7571 160.705 100.129 160.775 100.455 160.915C100.78 161.055 101.054 161.25 101.276 161.5C101.497 161.75 101.665 162.052 101.778 162.407C101.892 162.762 101.949 163.152 101.949 163.577V168.437H101.364C101.236 168.437 101.138 168.417 101.069 168.377C100.999 168.332 100.945 168.247 100.906 168.122L100.758 167.402C100.561 167.587 100.368 167.752 100.181 167.897C99.9938 168.037 99.7966 168.157 99.5895 168.257C99.3825 168.352 99.1606 168.425 98.924 168.475C98.6923 168.53 98.4334 168.557 98.1475 168.557C97.8566 168.557 97.583 168.517 97.3267 168.437C97.0703 168.352 96.846 168.227 96.6537 168.062C96.4664 167.897 96.316 167.69 96.2026 167.44C96.0942 167.185 96.0399 166.885 96.0399 166.54C96.0399 166.24 96.1213 165.952 96.284 165.677C96.4467 165.397 96.7104 165.15 97.0752 164.935C97.44 164.72 97.9158 164.545 98.5025 164.41C99.0891 164.27 99.8089 164.19 100.662 164.17V163.577C100.662 162.987 100.536 162.542 100.285 162.242C100.033 161.937 99.6659 161.785 99.1828 161.785C98.8574 161.785 98.5838 161.827 98.362 161.912C98.145 161.992 97.9552 162.085 97.7925 162.19C97.6348 162.29 97.4967 162.382 97.3784 162.467C97.265 162.547 97.1516 162.587 97.0383 162.587C96.9495 162.587 96.8731 162.565 96.809 162.52C96.7449 162.47 96.6907 162.41 96.6463 162.34L96.4097 161.912ZM106.522 168.557C105.931 168.557 105.475 168.39 105.154 168.055C104.839 167.72 104.681 167.237 104.681 166.607V161.957H103.779C103.7 161.957 103.633 161.935 103.579 161.89C103.525 161.84 103.498 161.765 103.498 161.665V161.132L104.725 160.975L105.029 158.627C105.043 158.552 105.075 158.492 105.125 158.447C105.179 158.397 105.248 158.372 105.332 158.372H105.997V160.99H108.164V161.957H105.997V166.517C105.997 166.837 106.074 167.075 106.226 167.23C106.379 167.385 106.577 167.462 106.818 167.462C106.956 167.462 107.074 167.445 107.173 167.41C107.277 167.37 107.365 167.327 107.439 167.282C107.513 167.237 107.575 167.197 107.624 167.162C107.678 167.122 107.725 167.102 107.765 167.102C107.834 167.102 107.895 167.145 107.95 167.23L108.334 167.867C108.107 168.082 107.834 168.252 107.513 168.377C107.193 168.497 106.862 168.557 106.522 168.557ZM114.863 163.81C114.863 163.5 114.819 163.217 114.73 162.962C114.646 162.702 114.521 162.48 114.353 162.295C114.19 162.105 113.991 161.96 113.754 161.86C113.517 161.755 113.249 161.702 112.948 161.702C112.317 161.702 111.816 161.89 111.447 162.265C111.082 162.635 110.855 163.15 110.766 163.81H114.863ZM115.928 167.372C115.765 167.572 115.571 167.747 115.344 167.897C115.117 168.042 114.873 168.162 114.612 168.257C114.355 168.352 114.089 168.422 113.813 168.467C113.537 168.517 113.263 168.542 112.992 168.542C112.475 168.542 111.996 168.455 111.558 168.28C111.124 168.1 110.747 167.84 110.426 167.5C110.111 167.155 109.864 166.73 109.687 166.225C109.509 165.72 109.42 165.14 109.42 164.485C109.42 163.955 109.499 163.46 109.657 163C109.82 162.54 110.052 162.142 110.352 161.807C110.653 161.467 111.02 161.202 111.454 161.012C111.888 160.817 112.376 160.72 112.918 160.72C113.367 160.72 113.781 160.797 114.161 160.952C114.545 161.102 114.876 161.322 115.152 161.612C115.433 161.897 115.652 162.252 115.81 162.677C115.968 163.097 116.046 163.577 116.046 164.117C116.046 164.327 116.024 164.467 115.98 164.537C115.935 164.607 115.852 164.642 115.728 164.642H110.722C110.737 165.122 110.801 165.54 110.914 165.895C111.033 166.25 111.195 166.547 111.402 166.787C111.609 167.022 111.856 167.2 112.142 167.32C112.428 167.435 112.748 167.492 113.103 167.492C113.433 167.492 113.717 167.455 113.954 167.38C114.195 167.3 114.402 167.215 114.575 167.125C114.747 167.035 114.89 166.952 115.004 166.877C115.122 166.797 115.223 166.757 115.307 166.757C115.415 166.757 115.499 166.8 115.558 166.885L115.928 167.372ZM123.511 166.607C123.753 166.937 124.016 167.17 124.302 167.305C124.588 167.44 124.909 167.507 125.264 167.507C125.964 167.507 126.501 167.255 126.876 166.75C127.25 166.245 127.438 165.525 127.438 164.59C127.438 164.095 127.393 163.67 127.305 163.315C127.221 162.96 127.098 162.67 126.935 162.445C126.772 162.215 126.572 162.047 126.336 161.942C126.099 161.837 125.831 161.785 125.53 161.785C125.101 161.785 124.724 161.885 124.398 162.085C124.078 162.285 123.782 162.567 123.511 162.932V166.607ZM123.444 162.017C123.76 161.622 124.125 161.305 124.539 161.065C124.953 160.825 125.426 160.705 125.959 160.705C126.393 160.705 126.784 160.79 127.135 160.96C127.485 161.125 127.783 161.372 128.029 161.702C128.276 162.027 128.466 162.432 128.599 162.917C128.732 163.402 128.798 163.96 128.798 164.59C128.798 165.15 128.724 165.672 128.577 166.157C128.429 166.637 128.214 167.055 127.933 167.41C127.657 167.76 127.317 168.037 126.913 168.242C126.513 168.442 126.062 168.542 125.559 168.542C125.101 168.542 124.706 168.465 124.376 168.31C124.051 168.15 123.762 167.93 123.511 167.65V171.01H122.187V160.84H122.979C123.166 160.84 123.282 160.932 123.326 161.117L123.444 162.017ZM132.097 162.362C132.334 161.842 132.625 161.437 132.97 161.147C133.315 160.852 133.736 160.705 134.234 160.705C134.392 160.705 134.542 160.722 134.685 160.757C134.833 160.792 134.964 160.847 135.077 160.922L134.981 161.92C134.952 162.045 134.878 162.107 134.759 162.107C134.69 162.107 134.589 162.092 134.456 162.062C134.323 162.032 134.173 162.017 134.005 162.017C133.768 162.017 133.556 162.052 133.369 162.122C133.187 162.192 133.021 162.297 132.874 162.437C132.731 162.572 132.6 162.742 132.482 162.947C132.368 163.147 132.265 163.377 132.171 163.637V168.437H130.847V160.84H131.602C131.745 160.84 131.843 160.867 131.897 160.922C131.952 160.977 131.989 161.072 132.008 161.207L132.097 162.362ZM139.459 160.72C140.006 160.72 140.499 160.812 140.938 160.997C141.377 161.182 141.751 161.445 142.062 161.785C142.372 162.125 142.609 162.537 142.772 163.022C142.939 163.502 143.023 164.04 143.023 164.635C143.023 165.235 142.939 165.775 142.772 166.255C142.609 166.735 142.372 167.145 142.062 167.485C141.751 167.825 141.377 168.087 140.938 168.272C140.499 168.452 140.006 168.542 139.459 168.542C138.907 168.542 138.409 168.452 137.965 168.272C137.526 168.087 137.152 167.825 136.841 167.485C136.53 167.145 136.291 166.735 136.124 166.255C135.961 165.775 135.88 165.235 135.88 164.635C135.88 164.04 135.961 163.502 136.124 163.022C136.291 162.537 136.53 162.125 136.841 161.785C137.152 161.445 137.526 161.182 137.965 160.997C138.409 160.812 138.907 160.72 139.459 160.72ZM139.459 167.5C140.198 167.5 140.75 167.25 141.115 166.75C141.48 166.245 141.663 165.542 141.663 164.642C141.663 163.737 141.48 163.032 141.115 162.527C140.75 162.022 140.198 161.77 139.459 161.77C139.084 161.77 138.756 161.835 138.475 161.965C138.199 162.095 137.968 162.282 137.78 162.527C137.598 162.772 137.46 163.075 137.366 163.435C137.277 163.79 137.233 164.192 137.233 164.642C137.233 165.542 137.415 166.245 137.78 166.75C138.15 167.25 138.709 167.5 139.459 167.5ZM147.232 168.557C146.641 168.557 146.185 168.39 145.864 168.055C145.549 167.72 145.391 167.237 145.391 166.607V161.957H144.489C144.41 161.957 144.343 161.935 144.289 161.89C144.235 161.84 144.208 161.765 144.208 161.665V161.132L145.435 160.975L145.738 158.627C145.753 158.552 145.785 158.492 145.835 158.447C145.889 158.397 145.958 158.372 146.042 158.372H146.707V160.99H148.874V161.957H146.707V166.517C146.707 166.837 146.784 167.075 146.936 167.23C147.089 167.385 147.286 167.462 147.528 167.462C147.666 167.462 147.784 167.445 147.883 167.41C147.986 167.37 148.075 167.327 148.149 167.282C148.223 167.237 148.285 167.197 148.334 167.162C148.388 167.122 148.435 167.102 148.475 167.102C148.544 167.102 148.605 167.145 148.659 167.23L149.044 167.867C148.817 168.082 148.544 168.252 148.223 168.377C147.903 168.497 147.572 168.557 147.232 168.557ZM155.573 163.81C155.573 163.5 155.529 163.217 155.44 162.962C155.356 162.702 155.23 162.48 155.063 162.295C154.9 162.105 154.7 161.96 154.464 161.86C154.227 161.755 153.958 161.702 153.658 161.702C153.027 161.702 152.526 161.89 152.157 162.265C151.792 162.635 151.565 163.15 151.476 163.81H155.573ZM156.638 167.372C156.475 167.572 156.281 167.747 156.054 167.897C155.827 168.042 155.583 168.162 155.322 168.257C155.065 168.352 154.799 168.422 154.523 168.467C154.247 168.517 153.973 168.542 153.702 168.542C153.184 168.542 152.706 168.455 152.268 168.28C151.834 168.1 151.457 167.84 151.136 167.5C150.821 167.155 150.574 166.73 150.397 166.225C150.219 165.72 150.13 165.14 150.13 164.485C150.13 163.955 150.209 163.46 150.367 163C150.53 162.54 150.761 162.142 151.062 161.807C151.363 161.467 151.73 161.202 152.164 161.012C152.598 160.817 153.086 160.72 153.628 160.72C154.077 160.72 154.491 160.797 154.871 160.952C155.255 161.102 155.585 161.322 155.861 161.612C156.142 161.897 156.362 162.252 156.52 162.677C156.677 163.097 156.756 163.577 156.756 164.117C156.756 164.327 156.734 164.467 156.69 164.537C156.645 164.607 156.562 164.642 156.438 164.642H151.432C151.447 165.122 151.511 165.54 151.624 165.895C151.742 166.25 151.905 166.547 152.112 166.787C152.319 167.022 152.566 167.2 152.852 167.32C153.138 167.435 153.458 167.492 153.813 167.492C154.143 167.492 154.427 167.455 154.663 167.38C154.905 167.3 155.112 167.215 155.285 167.125C155.457 167.035 155.6 166.952 155.714 166.877C155.832 166.797 155.933 166.757 156.017 166.757C156.125 166.757 156.209 166.8 156.268 166.885L156.638 167.372ZM163.956 162.19C163.917 162.245 163.878 162.287 163.838 162.317C163.799 162.347 163.744 162.362 163.675 162.362C163.602 162.362 163.52 162.332 163.431 162.272C163.343 162.207 163.232 162.137 163.099 162.062C162.97 161.987 162.81 161.92 162.618 161.86C162.431 161.795 162.199 161.762 161.923 161.762C161.553 161.762 161.228 161.83 160.947 161.965C160.666 162.095 160.429 162.285 160.237 162.535C160.049 162.785 159.906 163.087 159.808 163.442C159.714 163.797 159.667 164.195 159.667 164.635C159.667 165.095 159.719 165.505 159.823 165.865C159.926 166.22 160.072 166.52 160.259 166.765C160.451 167.005 160.681 167.19 160.947 167.32C161.218 167.445 161.521 167.507 161.856 167.507C162.177 167.507 162.44 167.47 162.648 167.395C162.855 167.315 163.025 167.227 163.158 167.132C163.296 167.037 163.409 166.952 163.498 166.877C163.592 166.797 163.683 166.757 163.772 166.757C163.88 166.757 163.964 166.8 164.023 166.885L164.393 167.372C164.23 167.577 164.045 167.752 163.838 167.897C163.631 168.042 163.407 168.165 163.165 168.265C162.929 168.36 162.68 168.43 162.418 168.475C162.157 168.52 161.891 168.542 161.62 168.542C161.151 168.542 160.715 168.455 160.311 168.28C159.911 168.105 159.564 167.852 159.268 167.522C158.972 167.187 158.741 166.777 158.573 166.292C158.405 165.807 158.322 165.255 158.322 164.635C158.322 164.07 158.398 163.547 158.551 163.067C158.709 162.587 158.935 162.175 159.231 161.83C159.532 161.48 159.899 161.207 160.333 161.012C160.772 160.817 161.275 160.72 161.842 160.72C162.369 160.72 162.832 160.807 163.232 160.982C163.636 161.152 163.993 161.395 164.304 161.71L163.956 162.19ZM173.127 168.437H171.811V161.957H167.95V166.517C167.95 166.837 168.027 167.075 168.18 167.23C168.332 167.385 168.53 167.462 168.771 167.462C168.909 167.462 169.028 167.445 169.126 167.41C169.23 167.37 169.318 167.327 169.392 167.282C169.466 167.237 169.528 167.197 169.577 167.162C169.631 167.122 169.678 167.102 169.718 167.102C169.787 167.102 169.848 167.145 169.903 167.23L170.287 167.867C170.06 168.082 169.787 168.252 169.466 168.377C169.146 168.497 168.816 168.557 168.475 168.557C167.884 168.557 167.428 168.39 167.107 168.055C166.792 167.72 166.634 167.237 166.634 166.607V161.957H165.732C165.653 161.957 165.586 161.935 165.532 161.89C165.478 161.84 165.451 161.765 165.451 161.665V161.132L166.678 160.967L166.982 158.627C166.996 158.552 167.028 158.492 167.078 158.447C167.132 158.397 167.201 158.372 167.285 158.372H167.95V160.99H173.127V168.437ZM173.452 158.402C173.452 158.532 173.425 158.655 173.371 158.77C173.322 158.88 173.253 158.977 173.164 159.062C173.08 159.147 172.981 159.215 172.868 159.265C172.755 159.315 172.634 159.34 172.506 159.34C172.377 159.34 172.257 159.315 172.143 159.265C172.035 159.215 171.939 159.147 171.855 159.062C171.771 158.977 171.705 158.88 171.655 158.77C171.606 158.655 171.581 158.532 171.581 158.402C171.581 158.272 171.606 158.15 171.655 158.035C171.705 157.915 171.771 157.812 171.855 157.727C171.939 157.637 172.035 157.567 172.143 157.517C172.257 157.467 172.377 157.442 172.506 157.442C172.634 157.442 172.755 157.467 172.868 157.517C172.981 157.567 173.08 157.637 173.164 157.727C173.253 157.812 173.322 157.915 173.371 158.035C173.425 158.15 173.452 158.272 173.452 158.402ZM178.817 160.72C179.364 160.72 179.857 160.812 180.296 160.997C180.734 161.182 181.109 161.445 181.42 161.785C181.73 162.125 181.967 162.537 182.13 163.022C182.297 163.502 182.381 164.04 182.381 164.635C182.381 165.235 182.297 165.775 182.13 166.255C181.967 166.735 181.73 167.145 181.42 167.485C181.109 167.825 180.734 168.087 180.296 168.272C179.857 168.452 179.364 168.542 178.817 168.542C178.264 168.542 177.767 168.452 177.323 168.272C176.884 168.087 176.509 167.825 176.199 167.485C175.888 167.145 175.649 166.735 175.481 166.255C175.319 165.775 175.237 165.235 175.237 164.635C175.237 164.04 175.319 163.502 175.481 163.022C175.649 162.537 175.888 162.125 176.199 161.785C176.509 161.445 176.884 161.182 177.323 160.997C177.767 160.812 178.264 160.72 178.817 160.72ZM178.817 167.5C179.556 167.5 180.108 167.25 180.473 166.75C180.838 166.245 181.02 165.542 181.02 164.642C181.02 163.737 180.838 163.032 180.473 162.527C180.108 162.022 179.556 161.77 178.817 161.77C178.442 161.77 178.114 161.835 177.833 161.965C177.557 162.095 177.325 162.282 177.138 162.527C176.956 162.772 176.818 163.075 176.724 163.435C176.635 163.79 176.591 164.192 176.591 164.642C176.591 165.542 176.773 166.245 177.138 166.75C177.508 167.25 178.067 167.5 178.817 167.5ZM185.663 161.942C185.825 161.757 185.998 161.59 186.18 161.44C186.363 161.29 186.555 161.162 186.757 161.057C186.964 160.947 187.181 160.865 187.408 160.81C187.639 160.75 187.888 160.72 188.155 160.72C188.564 160.72 188.924 160.79 189.234 160.93C189.55 161.065 189.811 161.26 190.018 161.515C190.23 161.765 190.39 162.067 190.499 162.422C190.607 162.777 190.662 163.17 190.662 163.6V168.437H189.338V163.6C189.338 163.025 189.207 162.58 188.946 162.265C188.69 161.945 188.298 161.785 187.77 161.785C187.381 161.785 187.016 161.88 186.676 162.07C186.34 162.26 186.03 162.517 185.744 162.842V168.437H184.42V160.84H185.211C185.399 160.84 185.515 160.932 185.559 161.117L185.663 161.942Z" fill="white"/>
</g>
<defs>
<filter id="filter0_d_800_2517" x="0" y="0" width="234.734" height="237.5" filterUnits="userSpaceOnUse" color-interpolation-filters="sRGB">
<feFlood flood-opacity="0" result="BackgroundImageFix"/>
<feColorMatrix in="SourceAlpha" type="matrix" values="0 0 0 0 0 0 0 0 0 0 0 0 0 0 0 0 0 0 127 0" result="hardAlpha"/>
<feOffset dy="5"/>
<feGaussianBlur stdDeviation="10"/>
<feComposite in2="hardAlpha" operator="out"/>
<feColorMatrix type="matrix" values="0 0 0 0 0 0 0 0 0 0 0 0 0 0 0 0 0 0 0.15 0"/>
<feBlend mode="normal" in2="BackgroundImageFix" result="effect1_dropShadow_800_2517"/>
<feBlend mode="normal" in="SourceGraphic" in2="effect1_dropShadow_800_2517" result="shape"/>
</filter>
</defs>
</svg>
