<svg width="235" height="235" viewBox="0 0 235 235" fill="none" xmlns="http://www.w3.org/2000/svg">
<g id="Vector" filter="url(#filter0_d_800_2508)">
<path d="M117.367 209.734C63.5927 209.734 20 166.141 20 112.367C20 58.5927 63.5927 15 117.367 15C171.141 15 214.734 58.5927 214.734 112.367V209.734H117.367Z" fill="white"/>
<path d="M141.861 70.623C140.868 68.7989 138.567 68.1211 136.734 69.1126L133.937 70.6625C130.261 68.5142 126.693 67.7217 123.599 67.6022V60.0563C123.924 60.0848 124.25 60.1019 124.575 60.1019C127.207 60.1019 129.758 59.173 131.796 57.4347C134.343 55.2633 135.764 52.0945 135.69 48.7433C135.684 48.3387 135.387 47.991 134.982 47.9169C131.677 47.3299 128.326 48.2361 125.779 50.4132C124.649 51.3764 123.741 52.539 123.091 53.8214C122.474 51.8551 121.315 50.0827 119.706 48.7034C117.159 46.532 113.809 45.6201 110.503 46.2072C110.104 46.2812 109.807 46.6232 109.796 47.0335C109.727 50.3847 111.143 53.5478 113.689 55.7249C115.727 57.4632 118.278 58.3921 120.91 58.3921C121.236 58.3921 121.555 58.3751 121.88 58.3465V67.6022C117.879 67.7618 114.904 68.953 113.934 69.3973L110.851 68.383L107.666 67.3686C104.11 66.0064 101.375 67.7162 100.987 67.9781L93.4572 72.2696C93.0462 72.5032 92.9038 73.0276 93.138 73.438C93.3716 73.8485 93.8972 73.9908 94.3082 73.7573L101.867 69.4485C101.867 69.4485 101.918 69.4201 101.935 69.4029C102.026 69.3406 104.184 67.8703 107.095 68.9869L110.315 70.0185L123.559 74.3612C124.644 74.7205 125.231 75.8889 124.878 76.9716C124.523 78.0488 123.353 78.6361 122.269 78.2824L109.019 73.9341C108.568 73.7856 108.089 74.0309 107.94 74.4813C107.792 74.9312 108.037 75.41 108.488 75.5585L121.738 79.9068C122.126 80.0325 122.526 80.0947 122.914 80.0947C124.501 80.0947 125.985 79.0859 126.505 77.5077C126.601 77.2169 126.653 76.9204 126.682 76.6296L134.331 72.4009C134.331 72.4009 134.337 72.4009 134.343 72.4009L137.556 70.623C138.555 70.0813 139.817 70.4517 140.359 71.4494C140.622 71.9338 140.684 72.4921 140.53 73.0165C140.376 73.541 140.023 73.9797 139.526 74.2472L121.806 84.0387C121.806 84.0387 121.778 84.056 121.761 84.0671C120.819 84.5804 119.865 84.2667 119.797 84.2439L108.74 80.8188C106.011 80.0208 103.756 80.8016 103.647 80.8416L98.9492 82.6029C98.5036 82.768 98.2812 83.2635 98.447 83.7022C98.6121 84.1472 99.1088 84.3696 99.5488 84.2039L104.23 82.4488C104.23 82.4488 106.079 81.8276 108.243 82.4599L119.255 85.8684C119.295 85.8794 119.831 86.068 120.579 86.068C121.178 86.068 121.909 85.9478 122.64 85.5374C122.651 85.5319 122.663 85.5208 122.674 85.5146L140.348 75.752C141.239 75.2677 141.884 74.4696 142.169 73.5064C142.454 72.5377 142.346 71.5178 141.861 70.6341V70.623ZM126.887 51.7126C128.856 50.0313 131.397 49.2449 133.96 49.5013C133.817 52.066 132.647 54.4483 130.677 56.1353C129.039 57.5315 127.012 58.301 124.906 58.3751L130.9 53.3198C131.26 53.0121 131.305 52.4764 131.003 52.1173C130.695 51.7582 130.158 51.7126 129.799 52.0147L123.776 57.0984C124.17 55.0182 125.249 53.1203 126.898 51.7126H126.887ZM111.514 47.7915C114.071 47.5351 116.617 48.3216 118.587 50.0029C120.231 51.4106 121.315 53.3084 121.71 55.3887L115.686 50.3049C115.327 49.9971 114.785 50.0485 114.482 50.4075C114.18 50.7666 114.22 51.308 114.585 51.61L120.573 56.6653C118.467 56.5912 116.44 55.8218 114.802 54.4255C112.833 52.7442 111.656 50.3562 111.519 47.7915H111.514ZM124.101 72.7374L116.549 70.2582C119.654 69.3061 125.723 68.2745 132.167 71.6374L126.391 74.8345C125.98 73.8768 125.174 73.0905 124.107 72.7374H124.101Z" fill="#6D6E71"/>
<path d="M104.692 65.2826C105.131 65.1059 105.343 64.6101 105.166 64.1712C104.293 62.0055 103.853 59.7201 103.853 57.3777C103.853 47.3584 112.016 39.2028 122.052 39.2028C132.088 39.2028 140.257 47.3584 140.257 57.3777C140.257 60.3413 139.526 63.2878 138.139 65.8981C137.916 66.3141 138.076 66.8327 138.493 67.055C138.618 67.1234 138.755 67.1517 138.892 67.1517C139.201 67.1517 139.498 66.9866 139.652 66.696C141.17 63.8406 141.975 60.6205 141.975 57.3777C141.969 46.4123 133.035 37.493 122.052 37.493C111.068 37.493 102.14 46.4123 102.14 57.3777C102.14 59.9366 102.626 62.4386 103.579 64.8095C103.756 65.2484 104.253 65.4593 104.692 65.2826Z" fill="#82AFB8"/>
<path d="M122.056 126.913L122.049 128.081H115.519V117.484H122.049V118.653H116.953V122.173H121.08V123.297H116.953V126.913H122.056ZM128.966 121.921C128.927 121.975 128.887 122.017 128.848 122.047C128.808 122.077 128.754 122.091 128.685 122.091C128.611 122.091 128.53 122.062 128.441 122.003C128.352 121.938 128.241 121.869 128.108 121.796C127.98 121.722 127.82 121.655 127.627 121.596C127.44 121.532 127.208 121.5 126.932 121.5C126.563 121.5 126.237 121.566 125.956 121.699C125.675 121.828 125.439 122.015 125.246 122.261C125.059 122.508 124.916 122.806 124.817 123.156C124.724 123.506 124.677 123.898 124.677 124.332C124.677 124.786 124.729 125.19 124.832 125.545C124.936 125.895 125.081 126.191 125.268 126.432C125.461 126.669 125.69 126.851 125.956 126.979C126.227 127.103 126.531 127.164 126.866 127.164C127.186 127.164 127.45 127.127 127.657 127.053C127.864 126.974 128.034 126.888 128.167 126.795C128.305 126.701 128.419 126.617 128.507 126.543C128.601 126.464 128.692 126.425 128.781 126.425C128.89 126.425 128.973 126.467 129.032 126.55L129.402 127.031C129.24 127.233 129.055 127.406 128.848 127.549C128.641 127.692 128.416 127.813 128.175 127.911C127.938 128.005 127.689 128.074 127.428 128.118C127.167 128.163 126.9 128.185 126.629 128.185C126.161 128.185 125.724 128.098 125.32 127.926C124.921 127.753 124.573 127.504 124.278 127.179C123.982 126.849 123.75 126.444 123.582 125.966C123.415 125.488 123.331 124.943 123.331 124.332C123.331 123.775 123.407 123.26 123.56 122.786C123.718 122.313 123.945 121.906 124.241 121.566C124.541 121.221 124.909 120.952 125.342 120.76C125.781 120.568 126.284 120.472 126.851 120.472C127.378 120.472 127.842 120.558 128.241 120.731C128.645 120.898 129.003 121.137 129.314 121.448L128.966 121.921ZM134.213 120.472C134.76 120.472 135.253 120.563 135.692 120.745C136.13 120.928 136.505 121.187 136.816 121.522C137.126 121.857 137.363 122.264 137.526 122.742C137.693 123.215 137.777 123.745 137.777 124.332C137.777 124.924 137.693 125.456 137.526 125.929C137.363 126.403 137.126 126.807 136.816 127.142C136.505 127.477 136.13 127.736 135.692 127.919C135.253 128.096 134.76 128.185 134.213 128.185C133.661 128.185 133.163 128.096 132.719 127.919C132.28 127.736 131.905 127.477 131.595 127.142C131.284 126.807 131.045 126.403 130.878 125.929C130.715 125.456 130.634 124.924 130.634 124.332C130.634 123.745 130.715 123.215 130.878 122.742C131.045 122.264 131.284 121.857 131.595 121.522C131.905 121.187 132.28 120.928 132.719 120.745C133.163 120.563 133.661 120.472 134.213 120.472ZM134.213 127.157C134.952 127.157 135.504 126.91 135.869 126.417C136.234 125.919 136.416 125.227 136.416 124.339C136.416 123.447 136.234 122.752 135.869 122.254C135.504 121.756 134.952 121.507 134.213 121.507C133.838 121.507 133.51 121.571 133.229 121.699C132.953 121.828 132.721 122.012 132.534 122.254C132.352 122.496 132.214 122.794 132.12 123.149C132.031 123.499 131.987 123.896 131.987 124.339C131.987 125.227 132.169 125.919 132.534 126.417C132.904 126.91 133.463 127.157 134.213 127.157ZM141.059 121.677C141.222 121.495 141.394 121.33 141.577 121.182C141.759 121.034 141.951 120.908 142.154 120.805C142.361 120.696 142.578 120.615 142.804 120.561C143.036 120.501 143.285 120.472 143.551 120.472C143.96 120.472 144.32 120.541 144.631 120.679C144.946 120.812 145.208 121.004 145.415 121.256C145.627 121.502 145.787 121.8 145.895 122.15C146.004 122.501 146.058 122.887 146.058 123.311V128.081H144.734V123.311C144.734 122.745 144.604 122.306 144.343 121.995C144.086 121.68 143.694 121.522 143.167 121.522C142.777 121.522 142.412 121.616 142.072 121.803C141.737 121.99 141.426 122.244 141.141 122.565V128.081H139.817V120.59H140.608C140.795 120.59 140.911 120.681 140.956 120.864L141.059 121.677ZM151.591 120.472C152.138 120.472 152.631 120.563 153.07 120.745C153.509 120.928 153.883 121.187 154.194 121.522C154.504 121.857 154.741 122.264 154.904 122.742C155.071 123.215 155.155 123.745 155.155 124.332C155.155 124.924 155.071 125.456 154.904 125.929C154.741 126.403 154.504 126.807 154.194 127.142C153.883 127.477 153.509 127.736 153.07 127.919C152.631 128.096 152.138 128.185 151.591 128.185C151.039 128.185 150.541 128.096 150.097 127.919C149.658 127.736 149.284 127.477 148.973 127.142C148.662 126.807 148.423 126.403 148.256 125.929C148.093 125.456 148.012 124.924 148.012 124.332C148.012 123.745 148.093 123.215 148.256 122.742C148.423 122.264 148.662 121.857 148.973 121.522C149.284 121.187 149.658 120.928 150.097 120.745C150.541 120.563 151.039 120.472 151.591 120.472ZM151.591 127.157C152.33 127.157 152.882 126.91 153.247 126.417C153.612 125.919 153.795 125.227 153.795 124.339C153.795 123.447 153.612 122.752 153.247 122.254C152.882 121.756 152.33 121.507 151.591 121.507C151.216 121.507 150.888 121.571 150.607 121.699C150.331 121.828 150.1 122.012 149.912 122.254C149.73 122.496 149.592 122.794 149.498 123.149C149.409 123.499 149.365 123.896 149.365 124.339C149.365 125.227 149.547 125.919 149.912 126.417C150.282 126.91 150.841 127.157 151.591 127.157ZM157.195 128.081V120.59H157.986C158.174 120.59 158.289 120.681 158.334 120.864L158.43 121.633C158.706 121.293 159.017 121.014 159.362 120.797C159.707 120.58 160.106 120.472 160.56 120.472C161.063 120.472 161.469 120.612 161.78 120.893C162.095 121.174 162.322 121.554 162.46 122.032C162.569 121.761 162.707 121.527 162.874 121.33C163.047 121.132 163.239 120.97 163.451 120.842C163.663 120.713 163.887 120.62 164.124 120.561C164.366 120.501 164.61 120.472 164.856 120.472C165.251 120.472 165.601 120.536 165.906 120.664C166.217 120.787 166.478 120.97 166.69 121.211C166.907 121.453 167.072 121.751 167.186 122.106C167.299 122.456 167.356 122.858 167.356 123.311V128.081H166.032V123.311C166.032 122.725 165.904 122.281 165.647 121.98C165.391 121.675 165.021 121.522 164.538 121.522C164.321 121.522 164.114 121.561 163.917 121.64C163.725 121.714 163.555 121.825 163.407 121.973C163.259 122.121 163.141 122.308 163.052 122.535C162.968 122.757 162.926 123.016 162.926 123.311V128.081H161.602V123.311C161.602 122.71 161.482 122.261 161.24 121.966C160.998 121.67 160.646 121.522 160.183 121.522C159.857 121.522 159.556 121.611 159.28 121.788C159.004 121.961 158.75 122.197 158.519 122.498V128.081H157.195ZM171.116 120.59V128.081H169.8V120.59H171.116ZM171.397 118.239C171.397 118.367 171.37 118.488 171.316 118.601C171.266 118.709 171.197 118.808 171.109 118.897C171.025 118.98 170.924 119.047 170.805 119.096C170.692 119.146 170.571 119.17 170.443 119.17C170.315 119.17 170.194 119.146 170.081 119.096C169.972 119.047 169.876 118.98 169.792 118.897C169.708 118.808 169.642 118.709 169.593 118.601C169.543 118.488 169.519 118.367 169.519 118.239C169.519 118.11 169.543 117.99 169.593 117.876C169.642 117.758 169.708 117.657 169.792 117.573C169.876 117.484 169.972 117.415 170.081 117.366C170.194 117.317 170.315 117.292 170.443 117.292C170.571 117.292 170.692 117.317 170.805 117.366C170.924 117.415 171.025 117.484 171.109 117.573C171.197 117.657 171.266 117.758 171.316 117.876C171.37 117.99 171.397 118.11 171.397 118.239ZM178.862 121.921C178.822 121.975 178.783 122.017 178.743 122.047C178.704 122.077 178.65 122.091 178.581 122.091C178.507 122.091 178.425 122.062 178.337 122.003C178.248 121.938 178.137 121.869 178.004 121.796C177.876 121.722 177.715 121.655 177.523 121.596C177.336 121.532 177.104 121.5 176.828 121.5C176.458 121.5 176.133 121.566 175.852 121.699C175.571 121.828 175.334 122.015 175.142 122.261C174.955 122.508 174.812 122.806 174.713 123.156C174.619 123.506 174.572 123.898 174.572 124.332C174.572 124.786 174.624 125.19 174.728 125.545C174.831 125.895 174.977 126.191 175.164 126.432C175.356 126.669 175.586 126.851 175.852 126.979C176.123 127.103 176.426 127.164 176.761 127.164C177.082 127.164 177.346 127.127 177.553 127.053C177.76 126.974 177.93 126.888 178.063 126.795C178.201 126.701 178.314 126.617 178.403 126.543C178.497 126.464 178.588 126.425 178.677 126.425C178.785 126.425 178.869 126.467 178.928 126.55L179.298 127.031C179.135 127.233 178.95 127.406 178.743 127.549C178.536 127.692 178.312 127.813 178.07 127.911C177.834 128.005 177.585 128.074 177.323 128.118C177.062 128.163 176.796 128.185 176.525 128.185C176.056 128.185 175.62 128.098 175.216 127.926C174.817 127.753 174.469 127.504 174.173 127.179C173.877 126.849 173.646 126.444 173.478 125.966C173.31 125.488 173.227 124.943 173.227 124.332C173.227 123.775 173.303 123.26 173.456 122.786C173.614 122.313 173.84 121.906 174.136 121.566C174.437 121.221 174.804 120.952 175.238 120.76C175.677 120.568 176.18 120.472 176.747 120.472C177.274 120.472 177.738 120.558 178.137 120.731C178.541 120.898 178.899 121.137 179.209 121.448L178.862 121.921ZM185.141 124.709C184.534 124.729 184.016 124.778 183.588 124.857C183.164 124.931 182.816 125.03 182.545 125.153C182.279 125.276 182.084 125.422 181.961 125.589C181.842 125.757 181.783 125.944 181.783 126.151C181.783 126.348 181.815 126.518 181.879 126.661C181.943 126.804 182.03 126.923 182.138 127.016C182.252 127.105 182.382 127.172 182.53 127.216C182.683 127.255 182.846 127.275 183.018 127.275C183.25 127.275 183.462 127.253 183.654 127.209C183.846 127.159 184.026 127.09 184.194 127.002C184.366 126.913 184.529 126.807 184.682 126.684C184.84 126.56 184.993 126.42 185.141 126.262V124.709ZM180.888 121.648C181.303 121.248 181.749 120.95 182.227 120.753C182.705 120.556 183.235 120.457 183.817 120.457C184.236 120.457 184.608 120.526 184.933 120.664C185.259 120.802 185.532 120.994 185.754 121.241C185.976 121.487 186.144 121.786 186.257 122.136C186.371 122.486 186.427 122.87 186.427 123.289V128.081H185.843C185.715 128.081 185.616 128.062 185.547 128.022C185.478 127.978 185.424 127.894 185.385 127.771L185.237 127.061C185.039 127.243 184.847 127.406 184.66 127.549C184.473 127.687 184.275 127.805 184.068 127.904C183.861 127.997 183.639 128.069 183.403 128.118C183.171 128.172 182.912 128.2 182.626 128.2C182.335 128.2 182.062 128.16 181.805 128.081C181.549 127.997 181.325 127.874 181.132 127.711C180.945 127.549 180.795 127.344 180.681 127.098C180.573 126.846 180.519 126.55 180.519 126.21C180.519 125.915 180.6 125.631 180.763 125.36C180.925 125.084 181.189 124.84 181.554 124.628C181.919 124.416 182.395 124.243 182.981 124.11C183.568 123.972 184.288 123.893 185.141 123.873V123.289C185.141 122.708 185.015 122.269 184.763 121.973C184.512 121.672 184.145 121.522 183.662 121.522C183.336 121.522 183.063 121.564 182.841 121.648C182.624 121.726 182.434 121.818 182.271 121.921C182.113 122.02 181.975 122.111 181.857 122.195C181.744 122.274 181.63 122.313 181.517 122.313C181.428 122.313 181.352 122.291 181.288 122.247C181.224 122.197 181.169 122.138 181.125 122.069L180.888 121.648ZM190.163 117.188V128.081H188.847V117.188H190.163ZM101.667 139.694V147.185H100.351V139.694H101.667ZM101.948 137.342C101.948 137.47 101.921 137.591 101.867 137.705C101.817 137.813 101.748 137.912 101.659 138C101.576 138.084 101.475 138.151 101.356 138.2C101.243 138.249 101.122 138.274 100.994 138.274C100.866 138.274 100.745 138.249 100.632 138.2C100.523 138.151 100.427 138.084 100.343 138C100.259 137.912 100.193 137.813 100.143 137.705C100.094 137.591 100.07 137.47 100.07 137.342C100.07 137.214 100.094 137.093 100.143 136.98C100.193 136.862 100.259 136.76 100.343 136.677C100.427 136.588 100.523 136.519 100.632 136.47C100.745 136.42 100.866 136.396 100.994 136.396C101.122 136.396 101.243 136.42 101.356 136.47C101.475 136.519 101.576 136.588 101.659 136.677C101.748 136.76 101.817 136.862 101.867 136.98C101.921 137.093 101.948 137.214 101.948 137.342ZM105.442 140.781C105.605 140.598 105.777 140.433 105.96 140.285C106.142 140.137 106.334 140.012 106.536 139.908C106.743 139.8 106.96 139.718 107.187 139.664C107.419 139.605 107.668 139.575 107.934 139.575C108.343 139.575 108.703 139.644 109.014 139.783C109.329 139.916 109.591 140.108 109.798 140.359C110.01 140.606 110.17 140.904 110.278 141.254C110.387 141.604 110.441 141.991 110.441 142.415V147.185H109.117V142.415C109.117 141.848 108.987 141.409 108.725 141.099C108.469 140.783 108.077 140.626 107.55 140.626C107.16 140.626 106.795 140.719 106.455 140.907C106.12 141.094 105.809 141.348 105.523 141.668V147.185H104.2V139.694H104.991C105.178 139.694 105.294 139.785 105.338 139.967L105.442 140.781ZM119.076 139.694L116.022 147.185H114.839L111.785 139.694H112.857C112.966 139.694 113.054 139.721 113.123 139.775C113.192 139.829 113.239 139.893 113.264 139.967L115.164 144.789C115.224 144.971 115.275 145.149 115.32 145.321C115.364 145.494 115.406 145.666 115.445 145.839C115.485 145.666 115.527 145.494 115.571 145.321C115.616 145.149 115.67 144.971 115.734 144.789L117.657 139.967C117.686 139.889 117.735 139.824 117.804 139.775C117.874 139.721 117.955 139.694 118.049 139.694H119.076ZM125.465 142.622C125.465 142.317 125.421 142.038 125.332 141.787C125.248 141.53 125.122 141.311 124.955 141.128C124.792 140.941 124.592 140.798 124.356 140.699C124.119 140.596 123.85 140.544 123.55 140.544C122.919 140.544 122.418 140.729 122.049 141.099C121.684 141.464 121.457 141.971 121.368 142.622H125.465ZM126.53 146.135C126.367 146.332 126.173 146.505 125.946 146.652C125.719 146.795 125.475 146.914 125.214 147.007C124.957 147.101 124.691 147.17 124.415 147.214C124.139 147.264 123.865 147.288 123.594 147.288C123.076 147.288 122.598 147.202 122.159 147.03C121.726 146.852 121.349 146.596 121.028 146.26C120.713 145.92 120.466 145.501 120.289 145.003C120.111 144.505 120.022 143.934 120.022 143.288C120.022 142.765 120.101 142.277 120.259 141.824C120.422 141.37 120.653 140.978 120.954 140.648C121.255 140.312 121.622 140.051 122.056 139.864C122.49 139.672 122.978 139.575 123.52 139.575C123.969 139.575 124.383 139.652 124.763 139.805C125.147 139.953 125.477 140.17 125.753 140.455C126.034 140.736 126.254 141.086 126.412 141.506C126.569 141.92 126.648 142.393 126.648 142.925C126.648 143.132 126.626 143.27 126.582 143.339C126.537 143.409 126.454 143.443 126.33 143.443H121.324C121.339 143.916 121.403 144.328 121.516 144.678C121.634 145.028 121.797 145.321 122.004 145.558C122.211 145.79 122.458 145.965 122.744 146.083C123.03 146.196 123.35 146.253 123.705 146.253C124.035 146.253 124.319 146.216 124.555 146.142C124.797 146.063 125.004 145.979 125.177 145.891C125.349 145.802 125.492 145.721 125.606 145.647C125.724 145.568 125.825 145.528 125.909 145.528C126.017 145.528 126.101 145.57 126.16 145.654L126.53 146.135ZM132.997 140.929C132.938 141.037 132.847 141.091 132.724 141.091C132.65 141.091 132.566 141.064 132.472 141.01C132.379 140.956 132.263 140.897 132.125 140.833C131.992 140.764 131.831 140.702 131.644 140.648C131.457 140.589 131.235 140.559 130.979 140.559C130.757 140.559 130.557 140.589 130.38 140.648C130.202 140.702 130.049 140.778 129.921 140.877C129.798 140.976 129.702 141.091 129.633 141.225C129.569 141.353 129.537 141.493 129.537 141.646C129.537 141.838 129.591 141.999 129.699 142.127C129.813 142.255 129.961 142.366 130.143 142.459C130.325 142.553 130.532 142.637 130.764 142.711C130.996 142.78 131.232 142.856 131.474 142.94C131.721 143.019 131.96 143.108 132.191 143.206C132.423 143.305 132.63 143.428 132.813 143.576C132.995 143.724 133.14 143.906 133.249 144.123C133.362 144.335 133.419 144.592 133.419 144.892C133.419 145.238 133.357 145.558 133.234 145.854C133.111 146.145 132.928 146.399 132.687 146.615C132.445 146.827 132.149 146.995 131.799 147.118C131.449 147.242 131.045 147.303 130.587 147.303C130.064 147.303 129.591 147.219 129.167 147.052C128.743 146.879 128.383 146.66 128.087 146.394L128.398 145.891C128.437 145.827 128.484 145.777 128.538 145.743C128.592 145.708 128.662 145.691 128.745 145.691C128.834 145.691 128.928 145.726 129.026 145.795C129.125 145.864 129.243 145.94 129.381 146.024C129.524 146.108 129.697 146.184 129.899 146.253C130.101 146.322 130.352 146.357 130.653 146.357C130.91 146.357 131.134 146.325 131.326 146.26C131.518 146.191 131.679 146.1 131.807 145.987C131.935 145.874 132.029 145.743 132.088 145.595C132.152 145.447 132.184 145.289 132.184 145.122C132.184 144.915 132.127 144.745 132.014 144.611C131.905 144.473 131.76 144.358 131.578 144.264C131.395 144.165 131.186 144.081 130.949 144.012C130.717 143.938 130.478 143.862 130.232 143.783C129.99 143.704 129.751 143.616 129.514 143.517C129.283 143.413 129.076 143.285 128.893 143.132C128.711 142.98 128.563 142.792 128.45 142.57C128.341 142.344 128.287 142.07 128.287 141.75C128.287 141.464 128.346 141.19 128.464 140.929C128.583 140.663 128.755 140.431 128.982 140.234C129.209 140.031 129.487 139.871 129.818 139.753C130.148 139.635 130.525 139.575 130.949 139.575C131.442 139.575 131.883 139.654 132.273 139.812C132.667 139.965 133.007 140.177 133.293 140.448L132.997 140.929ZM137.702 147.303C137.111 147.303 136.655 147.138 136.334 146.808C136.019 146.477 135.861 146.002 135.861 145.381V140.796H134.959C134.88 140.796 134.814 140.773 134.759 140.729C134.705 140.68 134.678 140.606 134.678 140.507V139.982L135.905 139.827L136.209 137.512C136.223 137.438 136.256 137.379 136.305 137.335C136.359 137.285 136.428 137.261 136.512 137.261H137.177V139.842H139.344V140.796H137.177V145.292C137.177 145.607 137.254 145.841 137.407 145.994C137.56 146.147 137.757 146.224 137.998 146.224C138.136 146.224 138.255 146.206 138.353 146.172C138.457 146.132 138.545 146.09 138.619 146.046C138.693 146.002 138.755 145.962 138.804 145.928C138.859 145.888 138.905 145.869 138.945 145.869C139.014 145.869 139.075 145.91 139.13 145.994L139.514 146.623C139.287 146.835 139.014 147.002 138.693 147.126C138.373 147.244 138.043 147.303 137.702 147.303ZM141.073 147.185V139.694H141.865C142.052 139.694 142.168 139.785 142.212 139.967L142.308 140.736C142.584 140.396 142.895 140.118 143.24 139.901C143.585 139.684 143.984 139.575 144.438 139.575C144.941 139.575 145.348 139.716 145.658 139.997C145.974 140.278 146.201 140.658 146.339 141.136C146.447 140.865 146.585 140.63 146.753 140.433C146.925 140.236 147.117 140.073 147.329 139.945C147.541 139.817 147.766 139.723 148.002 139.664C148.244 139.605 148.488 139.575 148.735 139.575C149.129 139.575 149.479 139.64 149.785 139.768C150.095 139.891 150.356 140.073 150.568 140.315C150.785 140.557 150.951 140.855 151.064 141.21C151.177 141.56 151.234 141.962 151.234 142.415V147.185H149.91V142.415C149.91 141.828 149.782 141.385 149.526 141.084C149.269 140.778 148.9 140.626 148.417 140.626C148.2 140.626 147.993 140.665 147.795 140.744C147.603 140.818 147.433 140.929 147.285 141.077C147.137 141.225 147.019 141.412 146.93 141.639C146.846 141.861 146.804 142.119 146.804 142.415V147.185H145.481V142.415C145.481 141.814 145.36 141.365 145.118 141.069C144.877 140.773 144.524 140.626 144.061 140.626C143.736 140.626 143.435 140.714 143.159 140.892C142.883 141.064 142.629 141.301 142.397 141.602V147.185H141.073ZM158.618 142.622C158.618 142.317 158.574 142.038 158.485 141.787C158.401 141.53 158.275 141.311 158.108 141.128C157.945 140.941 157.745 140.798 157.509 140.699C157.272 140.596 157.003 140.544 156.703 140.544C156.072 140.544 155.571 140.729 155.201 141.099C154.837 141.464 154.61 141.971 154.521 142.622H158.618ZM159.683 146.135C159.52 146.332 159.325 146.505 159.099 146.652C158.872 146.795 158.628 146.914 158.366 147.007C158.11 147.101 157.844 147.17 157.568 147.214C157.292 147.264 157.018 147.288 156.747 147.288C156.229 147.288 155.751 147.202 155.312 147.03C154.878 146.852 154.501 146.596 154.181 146.26C153.865 145.92 153.619 145.501 153.441 145.003C153.264 144.505 153.175 143.934 153.175 143.288C153.175 142.765 153.254 142.277 153.412 141.824C153.575 141.37 153.806 140.978 154.107 140.648C154.408 140.312 154.775 140.051 155.209 139.864C155.643 139.672 156.131 139.575 156.673 139.575C157.122 139.575 157.536 139.652 157.915 139.805C158.3 139.953 158.63 140.17 158.906 140.455C159.187 140.736 159.407 141.086 159.564 141.506C159.722 141.92 159.801 142.393 159.801 142.925C159.801 143.132 159.779 143.27 159.735 143.339C159.69 143.409 159.606 143.443 159.483 143.443H154.477C154.491 143.916 154.556 144.328 154.669 144.678C154.787 145.028 154.95 145.321 155.157 145.558C155.364 145.79 155.611 145.965 155.897 146.083C156.182 146.196 156.503 146.253 156.858 146.253C157.188 146.253 157.472 146.216 157.708 146.142C157.95 146.063 158.157 145.979 158.329 145.891C158.502 145.802 158.645 145.721 158.758 145.647C158.877 145.568 158.978 145.528 159.062 145.528C159.17 145.528 159.254 145.57 159.313 145.654L159.683 146.135ZM163.03 140.781C163.193 140.598 163.365 140.433 163.548 140.285C163.73 140.137 163.923 140.012 164.125 139.908C164.332 139.8 164.549 139.718 164.775 139.664C165.007 139.605 165.256 139.575 165.522 139.575C165.932 139.575 166.291 139.644 166.602 139.783C166.917 139.916 167.179 140.108 167.386 140.359C167.598 140.606 167.758 140.904 167.867 141.254C167.975 141.604 168.029 141.991 168.029 142.415V147.185H166.705V142.415C166.705 141.848 166.575 141.409 166.314 141.099C166.057 140.783 165.665 140.626 165.138 140.626C164.748 140.626 164.383 140.719 164.043 140.907C163.708 141.094 163.397 141.348 163.112 141.668V147.185H161.788V139.694H162.579C162.766 139.694 162.882 139.785 162.927 139.967L163.03 140.781ZM172.603 147.303C172.011 147.303 171.555 147.138 171.235 146.808C170.919 146.477 170.762 146.002 170.762 145.381V140.796H169.859C169.781 140.796 169.714 140.773 169.66 140.729C169.606 140.68 169.578 140.606 169.578 140.507V139.982L170.806 139.827L171.109 137.512C171.124 137.438 171.156 137.379 171.205 137.335C171.26 137.285 171.329 137.261 171.412 137.261H172.078V139.842H174.245V140.796H172.078V145.292C172.078 145.607 172.154 145.841 172.307 145.994C172.46 146.147 172.657 146.224 172.899 146.224C173.037 146.224 173.155 146.206 173.254 146.172C173.357 146.132 173.446 146.09 173.52 146.046C173.594 146.002 173.656 145.962 173.705 145.928C173.759 145.888 173.806 145.869 173.845 145.869C173.914 145.869 173.976 145.91 174.03 145.994L174.415 146.623C174.188 146.835 173.914 147.002 173.594 147.126C173.273 147.244 172.943 147.303 172.603 147.303ZM181.518 139.694V147.185H180.202V139.694H181.518ZM181.799 137.342C181.799 137.47 181.772 137.591 181.718 137.705C181.669 137.813 181.6 137.912 181.511 138C181.427 138.084 181.326 138.151 181.208 138.2C181.094 138.249 180.973 138.274 180.845 138.274C180.717 138.274 180.596 138.249 180.483 138.2C180.374 138.151 180.278 138.084 180.195 138C180.111 137.912 180.044 137.813 179.995 137.705C179.946 137.591 179.921 137.47 179.921 137.342C179.921 137.214 179.946 137.093 179.995 136.98C180.044 136.862 180.111 136.76 180.195 136.677C180.278 136.588 180.374 136.519 180.483 136.47C180.596 136.42 180.717 136.396 180.845 136.396C180.973 136.396 181.094 136.42 181.208 136.47C181.326 136.519 181.427 136.588 181.511 136.677C181.6 136.76 181.669 136.862 181.718 136.98C181.772 137.093 181.799 137.214 181.799 137.342ZM185.293 140.781C185.455 140.598 185.628 140.433 185.81 140.285C185.993 140.137 186.185 140.012 186.387 139.908C186.594 139.8 186.811 139.718 187.038 139.664C187.27 139.605 187.519 139.575 187.785 139.575C188.194 139.575 188.554 139.644 188.864 139.783C189.18 139.916 189.441 140.108 189.648 140.359C189.86 140.606 190.021 140.904 190.129 141.254C190.237 141.604 190.292 141.991 190.292 142.415V147.185H188.968V142.415C188.968 141.848 188.837 141.409 188.576 141.099C188.32 140.783 187.928 140.626 187.4 140.626C187.011 140.626 186.646 140.719 186.306 140.907C185.971 141.094 185.66 141.348 185.374 141.668V147.185H184.05V139.694H184.842C185.029 139.694 185.145 139.785 185.189 139.967L185.293 140.781ZM74.0645 160.129C74.0251 160.183 73.9857 160.225 73.9462 160.254C73.9068 160.284 73.8526 160.299 73.7835 160.299C73.7096 160.299 73.6282 160.269 73.5395 160.21C73.4508 160.146 73.3398 160.077 73.2067 160.003C73.0785 159.929 72.9183 159.862 72.7261 159.803C72.5387 159.739 72.307 159.707 72.0309 159.707C71.6612 159.707 71.3358 159.774 71.0548 159.907C70.7738 160.035 70.5371 160.222 70.3449 160.469C70.1575 160.715 70.0146 161.013 69.916 161.363C69.8223 161.713 69.7755 162.105 69.7755 162.539C69.7755 162.993 69.8272 163.397 69.9308 163.752C70.0343 164.102 70.1797 164.398 70.3671 164.639C70.5593 164.876 70.7886 165.059 71.0548 165.187C71.3259 165.31 71.6291 165.372 71.9644 165.372C72.2848 165.372 72.5486 165.335 72.7556 165.261C72.9627 165.182 73.1328 165.095 73.2659 165.002C73.4039 164.908 73.5173 164.824 73.6061 164.75C73.6997 164.671 73.7909 164.632 73.8797 164.632C73.9881 164.632 74.0719 164.674 74.1311 164.758L74.5008 165.238C74.3382 165.441 74.1533 165.613 73.9462 165.756C73.7392 165.899 73.5148 166.02 73.2733 166.118C73.0366 166.212 72.7877 166.281 72.5264 166.325C72.2651 166.37 71.9989 166.392 71.7277 166.392C71.2594 166.392 70.8231 166.306 70.4188 166.133C70.0195 165.961 69.6719 165.712 69.3761 165.386C69.0803 165.056 68.8484 164.652 68.6808 164.174C68.5132 163.695 68.4294 163.151 68.4294 162.539C68.4294 161.982 68.5058 161.467 68.6586 160.994C68.8164 160.52 69.0434 160.114 69.3392 159.774C69.6399 159.428 70.0072 159.16 70.441 158.967C70.8798 158.775 71.3826 158.679 71.9496 158.679C72.4771 158.679 72.9405 158.765 73.3398 158.938C73.7441 159.106 74.1015 159.345 74.4121 159.655L74.0645 160.129ZM77.6443 155.396V166.289H76.328V155.396H77.6443ZM81.5384 158.797V166.289H80.2221V158.797H81.5384ZM81.8194 156.446C81.8194 156.574 81.7923 156.695 81.738 156.808C81.6887 156.917 81.6197 157.015 81.531 157.104C81.4472 157.188 81.3461 157.254 81.2278 157.304C81.1144 157.353 80.9936 157.378 80.8654 157.378C80.7373 157.378 80.6165 157.353 80.5031 157.304C80.3946 157.254 80.2985 157.188 80.2147 157.104C80.1309 157.015 80.0643 156.917 80.015 156.808C79.9657 156.695 79.9411 156.574 79.9411 156.446C79.9411 156.318 79.9657 156.197 80.015 156.083C80.0643 155.965 80.1309 155.864 80.2147 155.78C80.2985 155.692 80.3946 155.623 80.5031 155.573C80.6165 155.524 80.7373 155.499 80.8654 155.499C80.9936 155.499 81.1144 155.524 81.2278 155.573C81.3461 155.623 81.4472 155.692 81.531 155.78C81.6197 155.864 81.6887 155.965 81.738 156.083C81.7923 156.197 81.8194 156.318 81.8194 156.446ZM84.0712 166.289V158.797H84.8624C85.0498 158.797 85.1656 158.889 85.21 159.071L85.3061 159.84C85.5822 159.5 85.8928 159.221 86.2379 159.004C86.583 158.788 86.9823 158.679 87.4359 158.679C87.9387 158.679 88.3454 158.82 88.656 159.101C88.9715 159.382 89.1983 159.761 89.3364 160.239C89.4448 159.968 89.5829 159.734 89.7505 159.537C89.923 159.34 90.1153 159.177 90.3273 159.049C90.5393 158.921 90.7636 158.827 91.0002 158.768C91.2418 158.709 91.4858 158.679 91.7323 158.679C92.1267 158.679 92.4768 158.743 92.7824 158.871C93.093 158.995 93.3543 159.177 93.5663 159.419C93.7832 159.66 93.9484 159.958 94.0617 160.313C94.1751 160.663 94.2318 161.065 94.2318 161.519V166.289H92.9081V161.519C92.9081 160.932 92.7799 160.488 92.5236 160.188C92.2672 159.882 91.8975 159.729 91.4143 159.729C91.1974 159.729 90.9904 159.769 90.7932 159.848C90.6009 159.921 90.4308 160.032 90.2829 160.18C90.135 160.328 90.0167 160.516 89.928 160.742C89.8441 160.964 89.8022 161.223 89.8022 161.519V166.289H88.4785V161.519C88.4785 160.917 88.3578 160.469 88.1162 160.173C87.8746 159.877 87.5221 159.729 87.0587 159.729C86.7333 159.729 86.4326 159.818 86.1565 159.995C85.8804 160.168 85.6266 160.405 85.3948 160.705V166.289H84.0712ZM100.662 162.916C100.055 162.936 99.5377 162.985 99.1088 163.064C98.6848 163.138 98.3373 163.237 98.0661 163.36C97.7999 163.483 97.6052 163.629 97.4819 163.796C97.3636 163.964 97.3044 164.151 97.3044 164.358C97.3044 164.556 97.3365 164.726 97.4006 164.869C97.4647 165.012 97.5509 165.13 97.6594 165.224C97.7728 165.312 97.9034 165.379 98.0513 165.423C98.2042 165.463 98.3668 165.482 98.5394 165.482C98.7711 165.482 98.9831 165.46 99.1754 165.416C99.3676 165.367 99.5476 165.298 99.7152 165.209C99.8877 165.12 100.05 165.014 100.203 164.891C100.361 164.768 100.514 164.627 100.662 164.469V162.916ZM96.4096 159.855C96.8238 159.456 97.2699 159.157 97.7481 158.96C98.2263 158.763 98.7563 158.664 99.338 158.664C99.7571 158.664 100.129 158.733 100.455 158.871C100.78 159.009 101.054 159.202 101.276 159.448C101.497 159.695 101.665 159.993 101.778 160.343C101.892 160.693 101.948 161.078 101.948 161.497V166.289H101.364C101.236 166.289 101.137 166.269 101.068 166.229C100.999 166.185 100.945 166.101 100.906 165.978L100.758 165.268C100.561 165.45 100.368 165.613 100.181 165.756C99.9937 165.894 99.7965 166.012 99.5895 166.111C99.3824 166.205 99.1606 166.276 98.9239 166.325C98.6922 166.38 98.4334 166.407 98.1475 166.407C97.8566 166.407 97.583 166.367 97.3266 166.289C97.0703 166.205 96.8459 166.081 96.6537 165.919C96.4663 165.756 96.316 165.551 96.2026 165.305C96.0941 165.054 96.0399 164.758 96.0399 164.418C96.0399 164.122 96.1212 163.838 96.2839 163.567C96.4466 163.291 96.7104 163.047 97.0752 162.835C97.44 162.623 97.9157 162.451 98.5024 162.317C99.0891 162.179 99.8089 162.1 100.662 162.081V161.497C100.662 160.915 100.536 160.476 100.285 160.18C100.033 159.88 99.6659 159.729 99.1828 159.729C98.8574 159.729 98.5838 159.771 98.3619 159.855C98.145 159.934 97.9552 160.025 97.7925 160.129C97.6347 160.227 97.4967 160.318 97.3784 160.402C97.265 160.481 97.1516 160.52 97.0382 160.52C96.9495 160.52 96.8731 160.498 96.809 160.454C96.7449 160.405 96.6907 160.345 96.6463 160.276L96.4096 159.855ZM106.522 166.407C105.931 166.407 105.475 166.242 105.154 165.911C104.839 165.581 104.681 165.105 104.681 164.484V159.899H103.779C103.7 159.899 103.633 159.877 103.579 159.833C103.525 159.783 103.498 159.709 103.498 159.611V159.086L104.725 158.931L105.028 156.616C105.043 156.542 105.075 156.483 105.125 156.438C105.179 156.389 105.248 156.364 105.332 156.364H105.997V158.945H108.164V159.899H105.997V164.395C105.997 164.711 106.074 164.945 106.226 165.098C106.379 165.251 106.576 165.327 106.818 165.327C106.956 165.327 107.074 165.31 107.173 165.275C107.277 165.236 107.365 165.194 107.439 165.15C107.513 165.105 107.575 165.066 107.624 165.031C107.678 164.992 107.725 164.972 107.765 164.972C107.834 164.972 107.895 165.014 107.949 165.098L108.334 165.727C108.107 165.938 107.834 166.106 107.513 166.229C107.193 166.348 106.862 166.407 106.522 166.407ZM114.863 161.726C114.863 161.42 114.819 161.142 114.73 160.89C114.646 160.634 114.521 160.414 114.353 160.232C114.19 160.045 113.991 159.902 113.754 159.803C113.517 159.7 113.249 159.648 112.948 159.648C112.317 159.648 111.816 159.833 111.447 160.202C111.082 160.567 110.855 161.075 110.766 161.726H114.863ZM115.928 165.238C115.765 165.436 115.571 165.608 115.344 165.756C115.117 165.899 114.873 166.017 114.612 166.111C114.355 166.205 114.089 166.274 113.813 166.318C113.537 166.367 113.263 166.392 112.992 166.392C112.475 166.392 111.996 166.306 111.558 166.133C111.124 165.956 110.747 165.699 110.426 165.364C110.111 165.024 109.864 164.605 109.687 164.107C109.509 163.609 109.42 163.037 109.42 162.391C109.42 161.869 109.499 161.381 109.657 160.927C109.82 160.474 110.051 160.082 110.352 159.751C110.653 159.416 111.02 159.155 111.454 158.967C111.888 158.775 112.376 158.679 112.918 158.679C113.367 158.679 113.781 158.756 114.161 158.908C114.545 159.056 114.875 159.273 115.152 159.559C115.433 159.84 115.652 160.19 115.81 160.609C115.967 161.023 116.046 161.497 116.046 162.029C116.046 162.236 116.024 162.374 115.98 162.443C115.935 162.512 115.852 162.547 115.728 162.547H110.722C110.737 163.02 110.801 163.432 110.914 163.782C111.033 164.132 111.195 164.425 111.402 164.662C111.609 164.893 111.856 165.068 112.142 165.187C112.428 165.3 112.748 165.357 113.103 165.357C113.433 165.357 113.717 165.32 113.954 165.246C114.195 165.167 114.402 165.083 114.575 164.994C114.747 164.906 114.89 164.824 115.004 164.75C115.122 164.671 115.223 164.632 115.307 164.632C115.415 164.632 115.499 164.674 115.558 164.758L115.928 165.238ZM123.511 164.484C123.753 164.81 124.016 165.039 124.302 165.172C124.588 165.305 124.909 165.372 125.264 165.372C125.964 165.372 126.501 165.123 126.876 164.625C127.25 164.127 127.438 163.417 127.438 162.495C127.438 162.007 127.393 161.588 127.305 161.238C127.221 160.888 127.097 160.602 126.935 160.38C126.772 160.153 126.572 159.988 126.336 159.884C126.099 159.781 125.83 159.729 125.53 159.729C125.101 159.729 124.724 159.828 124.398 160.025C124.078 160.222 123.782 160.501 123.511 160.861V164.484ZM123.444 159.958C123.76 159.569 124.125 159.256 124.539 159.019C124.953 158.783 125.426 158.664 125.959 158.664C126.393 158.664 126.784 158.748 127.134 158.916C127.484 159.078 127.783 159.322 128.029 159.648C128.276 159.968 128.466 160.368 128.599 160.846C128.732 161.324 128.798 161.874 128.798 162.495C128.798 163.047 128.724 163.562 128.576 164.04C128.429 164.514 128.214 164.925 127.933 165.275C127.657 165.62 127.317 165.894 126.913 166.096C126.513 166.293 126.062 166.392 125.559 166.392C125.101 166.392 124.706 166.316 124.376 166.163C124.051 166.005 123.762 165.788 123.511 165.512V168.825H122.187V158.797H122.978C123.166 158.797 123.282 158.889 123.326 159.071L123.444 159.958ZM132.097 160.299C132.334 159.786 132.625 159.387 132.97 159.101C133.315 158.81 133.736 158.664 134.234 158.664C134.392 158.664 134.542 158.682 134.685 158.716C134.833 158.751 134.964 158.805 135.077 158.879L134.981 159.862C134.952 159.986 134.878 160.047 134.759 160.047C134.69 160.047 134.589 160.032 134.456 160.003C134.323 159.973 134.173 159.958 134.005 159.958C133.768 159.958 133.556 159.993 133.369 160.062C133.187 160.131 133.021 160.234 132.874 160.373C132.731 160.506 132.6 160.673 132.482 160.875C132.368 161.073 132.265 161.299 132.171 161.556V166.289H130.847V158.797H131.602C131.745 158.797 131.843 158.825 131.897 158.879C131.952 158.933 131.989 159.027 132.008 159.16L132.097 160.299ZM139.459 158.679C140.006 158.679 140.499 158.77 140.938 158.953C141.377 159.135 141.751 159.394 142.062 159.729C142.372 160.064 142.609 160.471 142.772 160.949C142.939 161.423 143.023 161.953 143.023 162.539C143.023 163.131 142.939 163.663 142.772 164.137C142.609 164.61 142.372 165.014 142.062 165.349C141.751 165.685 141.377 165.943 140.938 166.126C140.499 166.303 140.006 166.392 139.459 166.392C138.907 166.392 138.409 166.303 137.965 166.126C137.526 165.943 137.152 165.685 136.841 165.349C136.53 165.014 136.291 164.61 136.124 164.137C135.961 163.663 135.88 163.131 135.88 162.539C135.88 161.953 135.961 161.423 136.124 160.949C136.291 160.471 136.53 160.064 136.841 159.729C137.152 159.394 137.526 159.135 137.965 158.953C138.409 158.77 138.907 158.679 139.459 158.679ZM139.459 165.364C140.198 165.364 140.75 165.118 141.115 164.625C141.48 164.127 141.662 163.434 141.662 162.547C141.662 161.654 141.48 160.959 141.115 160.461C140.75 159.963 140.198 159.714 139.459 159.714C139.084 159.714 138.756 159.778 138.475 159.907C138.199 160.035 137.967 160.22 137.78 160.461C137.598 160.703 137.46 161.001 137.366 161.356C137.277 161.706 137.233 162.103 137.233 162.547C137.233 163.434 137.415 164.127 137.78 164.625C138.15 165.118 138.709 165.364 139.459 165.364ZM147.232 166.407C146.641 166.407 146.184 166.242 145.864 165.911C145.549 165.581 145.391 165.105 145.391 164.484V159.899H144.489C144.41 159.899 144.343 159.877 144.289 159.833C144.235 159.783 144.208 159.709 144.208 159.611V159.086L145.435 158.931L145.738 156.616C145.753 156.542 145.785 156.483 145.834 156.438C145.889 156.389 145.958 156.364 146.042 156.364H146.707V158.945H148.874V159.899H146.707V164.395C146.707 164.711 146.783 164.945 146.936 165.098C147.089 165.251 147.286 165.327 147.528 165.327C147.666 165.327 147.784 165.31 147.883 165.275C147.986 165.236 148.075 165.194 148.149 165.15C148.223 165.105 148.285 165.066 148.334 165.031C148.388 164.992 148.435 164.972 148.474 164.972C148.543 164.972 148.605 165.014 148.659 165.098L149.044 165.727C148.817 165.938 148.543 166.106 148.223 166.229C147.903 166.348 147.572 166.407 147.232 166.407ZM155.573 161.726C155.573 161.42 155.529 161.142 155.44 160.89C155.356 160.634 155.23 160.414 155.063 160.232C154.9 160.045 154.7 159.902 154.464 159.803C154.227 159.7 153.958 159.648 153.658 159.648C153.027 159.648 152.526 159.833 152.157 160.202C151.792 160.567 151.565 161.075 151.476 161.726H155.573ZM156.638 165.238C156.475 165.436 156.28 165.608 156.054 165.756C155.827 165.899 155.583 166.017 155.322 166.111C155.065 166.205 154.799 166.274 154.523 166.318C154.247 166.367 153.973 166.392 153.702 166.392C153.184 166.392 152.706 166.306 152.267 166.133C151.834 165.956 151.456 165.699 151.136 165.364C150.821 165.024 150.574 164.605 150.397 164.107C150.219 163.609 150.13 163.037 150.13 162.391C150.13 161.869 150.209 161.381 150.367 160.927C150.53 160.474 150.761 160.082 151.062 159.751C151.363 159.416 151.73 159.155 152.164 158.967C152.598 158.775 153.086 158.679 153.628 158.679C154.077 158.679 154.491 158.756 154.87 158.908C155.255 159.056 155.585 159.273 155.861 159.559C156.142 159.84 156.362 160.19 156.52 160.609C156.677 161.023 156.756 161.497 156.756 162.029C156.756 162.236 156.734 162.374 156.69 162.443C156.645 162.512 156.561 162.547 156.438 162.547H151.432C151.447 163.02 151.511 163.432 151.624 163.782C151.742 164.132 151.905 164.425 152.112 164.662C152.319 164.893 152.566 165.068 152.852 165.187C153.138 165.3 153.458 165.357 153.813 165.357C154.143 165.357 154.427 165.32 154.663 165.246C154.905 165.167 155.112 165.083 155.285 164.994C155.457 164.906 155.6 164.824 155.714 164.75C155.832 164.671 155.933 164.632 156.017 164.632C156.125 164.632 156.209 164.674 156.268 164.758L156.638 165.238ZM163.956 160.129C163.917 160.183 163.878 160.225 163.838 160.254C163.799 160.284 163.744 160.299 163.675 160.299C163.601 160.299 163.52 160.269 163.431 160.21C163.343 160.146 163.232 160.077 163.099 160.003C162.97 159.929 162.81 159.862 162.618 159.803C162.431 159.739 162.199 159.707 161.923 159.707C161.553 159.707 161.228 159.774 160.947 159.907C160.666 160.035 160.429 160.222 160.237 160.469C160.049 160.715 159.906 161.013 159.808 161.363C159.714 161.713 159.667 162.105 159.667 162.539C159.667 162.993 159.719 163.397 159.823 163.752C159.926 164.102 160.072 164.398 160.259 164.639C160.451 164.876 160.68 165.059 160.947 165.187C161.218 165.31 161.521 165.372 161.856 165.372C162.177 165.372 162.44 165.335 162.648 165.261C162.855 165.182 163.025 165.095 163.158 165.002C163.296 164.908 163.409 164.824 163.498 164.75C163.592 164.671 163.683 164.632 163.772 164.632C163.88 164.632 163.964 164.674 164.023 164.758L164.393 165.238C164.23 165.441 164.045 165.613 163.838 165.756C163.631 165.899 163.407 166.02 163.165 166.118C162.929 166.212 162.68 166.281 162.418 166.325C162.157 166.37 161.891 166.392 161.62 166.392C161.151 166.392 160.715 166.306 160.311 166.133C159.911 165.961 159.564 165.712 159.268 165.386C158.972 165.056 158.741 164.652 158.573 164.174C158.405 163.695 158.321 163.151 158.321 162.539C158.321 161.982 158.398 161.467 158.551 160.994C158.708 160.52 158.935 160.114 159.231 159.774C159.532 159.428 159.899 159.16 160.333 158.967C160.772 158.775 161.275 158.679 161.841 158.679C162.369 158.679 162.832 158.765 163.232 158.938C163.636 159.106 163.993 159.345 164.304 159.655L163.956 160.129ZM173.127 166.289H171.81V159.899H167.95V164.395C167.95 164.711 168.027 164.945 168.18 165.098C168.332 165.251 168.53 165.327 168.771 165.327C168.909 165.327 169.028 165.31 169.126 165.275C169.23 165.236 169.318 165.194 169.392 165.15C169.466 165.105 169.528 165.066 169.577 165.031C169.631 164.992 169.678 164.972 169.718 164.972C169.787 164.972 169.848 165.014 169.903 165.098L170.287 165.727C170.06 165.938 169.787 166.106 169.466 166.229C169.146 166.348 168.816 166.407 168.475 166.407C167.884 166.407 167.428 166.242 167.107 165.911C166.792 165.581 166.634 165.105 166.634 164.484V159.899H165.732C165.653 159.899 165.586 159.877 165.532 159.833C165.478 159.783 165.451 159.709 165.451 159.611V159.086L166.678 158.923L166.982 156.616C166.996 156.542 167.028 156.483 167.078 156.438C167.132 156.389 167.201 156.364 167.285 156.364H167.95V158.945H173.127V166.289ZM173.452 156.394C173.452 156.522 173.425 156.643 173.371 156.756C173.322 156.865 173.253 156.961 173.164 157.045C173.08 157.129 172.981 157.195 172.868 157.244C172.755 157.294 172.634 157.318 172.506 157.318C172.377 157.318 172.257 157.294 172.143 157.244C172.035 157.195 171.939 157.129 171.855 157.045C171.771 156.961 171.704 156.865 171.655 156.756C171.606 156.643 171.581 156.522 171.581 156.394C171.581 156.266 171.606 156.145 171.655 156.032C171.704 155.913 171.771 155.812 171.855 155.729C171.939 155.64 172.035 155.571 172.143 155.521C172.257 155.472 172.377 155.448 172.506 155.448C172.634 155.448 172.755 155.472 172.868 155.521C172.981 155.571 173.08 155.64 173.164 155.729C173.253 155.812 173.322 155.913 173.371 156.032C173.425 156.145 173.452 156.266 173.452 156.394ZM178.817 158.679C179.364 158.679 179.857 158.77 180.296 158.953C180.734 159.135 181.109 159.394 181.42 159.729C181.73 160.064 181.967 160.471 182.13 160.949C182.297 161.423 182.381 161.953 182.381 162.539C182.381 163.131 182.297 163.663 182.13 164.137C181.967 164.61 181.73 165.014 181.42 165.349C181.109 165.685 180.734 165.943 180.296 166.126C179.857 166.303 179.364 166.392 178.817 166.392C178.264 166.392 177.766 166.303 177.323 166.126C176.884 165.943 176.509 165.685 176.199 165.349C175.888 165.014 175.649 164.61 175.481 164.137C175.319 163.663 175.237 163.131 175.237 162.539C175.237 161.953 175.319 161.423 175.481 160.949C175.649 160.471 175.888 160.064 176.199 159.729C176.509 159.394 176.884 159.135 177.323 158.953C177.766 158.77 178.264 158.679 178.817 158.679ZM178.817 165.364C179.556 165.364 180.108 165.118 180.473 164.625C180.838 164.127 181.02 163.434 181.02 162.547C181.02 161.654 180.838 160.959 180.473 160.461C180.108 159.963 179.556 159.714 178.817 159.714C178.442 159.714 178.114 159.778 177.833 159.907C177.557 160.035 177.325 160.22 177.138 160.461C176.956 160.703 176.817 161.001 176.724 161.356C176.635 161.706 176.591 162.103 176.591 162.547C176.591 163.434 176.773 164.127 177.138 164.625C177.508 165.118 178.067 165.364 178.817 165.364ZM185.662 159.884C185.825 159.702 185.998 159.537 186.18 159.389C186.363 159.241 186.555 159.115 186.757 159.012C186.964 158.903 187.181 158.822 187.408 158.768C187.639 158.709 187.888 158.679 188.155 158.679C188.564 158.679 188.924 158.748 189.234 158.886C189.55 159.019 189.811 159.212 190.018 159.463C190.23 159.709 190.39 160.008 190.499 160.358C190.607 160.708 190.661 161.095 190.661 161.519V166.289H189.338V161.519C189.338 160.952 189.207 160.513 188.946 160.202C188.689 159.887 188.298 159.729 187.77 159.729C187.381 159.729 187.016 159.823 186.676 160.01C186.34 160.198 186.03 160.451 185.744 160.772V166.289H184.42V158.797H185.211C185.399 158.797 185.515 158.889 185.559 159.071L185.662 159.884Z" fill="#333333"/>
</g>
<defs>
<filter id="filter0_d_800_2508" x="0" y="0" width="234.734" height="234.734" filterUnits="userSpaceOnUse" color-interpolation-filters="sRGB">
<feFlood flood-opacity="0" result="BackgroundImageFix"/>
<feColorMatrix in="SourceAlpha" type="matrix" values="0 0 0 0 0 0 0 0 0 0 0 0 0 0 0 0 0 0 127 0" result="hardAlpha"/>
<feOffset dy="5"/>
<feGaussianBlur stdDeviation="10"/>
<feComposite in2="hardAlpha" operator="out"/>
<feColorMatrix type="matrix" values="0 0 0 0 0 0 0 0 0 0 0 0 0 0 0 0 0 0 0.15 0"/>
<feBlend mode="normal" in2="BackgroundImageFix" result="effect1_dropShadow_800_2508"/>
<feBlend mode="normal" in="SourceGraphic" in2="effect1_dropShadow_800_2508" result="shape"/>
</filter>
</defs>
</svg>
