<svg width="235" height="235" viewBox="0 0 235 235" fill="none" xmlns="http://www.w3.org/2000/svg">
<g id="Vector" filter="url(#filter0_d_800_2513)">
<path d="M20 112.367C20 58.5927 63.5927 15 117.367 15C171.141 15 214.734 58.5927 214.734 112.367C214.734 166.141 171.141 209.734 117.367 209.734H20V112.367Z" fill="white"/>
<path d="M130.941 60.4446C130.796 60.1497 130.496 59.9647 130.166 59.9647H121.193L125.57 39.1529C125.651 38.7539 125.448 38.3549 125.084 38.1872C124.715 38.0195 124.281 38.1294 124.032 38.4532L104.496 64.1686C104.299 64.4288 104.265 64.7816 104.409 65.0765C104.554 65.3714 104.854 65.5565 105.184 65.5565H114.157L109.78 86.3627C109.7 86.7614 109.902 87.1601 110.266 87.3284C110.382 87.3801 110.503 87.4091 110.625 87.4091C110.89 87.4091 111.145 87.2877 111.312 87.0677L130.842 61.3525C131.039 61.0923 131.074 60.7395 130.929 60.4446H130.941ZM112.272 82.9505L116.077 64.8741C116.128 64.6197 116.065 64.3537 115.903 64.1513C115.741 63.9489 115.492 63.8332 115.232 63.8332H106.936L123.078 42.5704L119.274 60.6528C119.222 60.9072 119.285 61.1732 119.447 61.3756C119.615 61.578 119.858 61.6937 120.123 61.6937H128.42L112.278 82.945L112.272 82.9505Z" fill="#82AFB8"/>
<path d="M126.94 45.5485C126.518 45.3229 125.992 45.4791 125.766 45.9012C125.541 46.3233 125.697 46.8496 126.119 47.0751C131.895 50.192 135.485 56.2001 135.485 62.7634C135.485 72.2586 128.067 80.077 118.597 80.5564C118.118 80.5798 117.753 80.9902 117.776 81.4647C117.8 81.9269 118.181 82.2856 118.643 82.2856C118.661 82.2856 118.672 82.2856 118.69 82.2856C129.079 81.7538 137.22 73.1781 137.22 62.7576C137.22 55.5582 133.283 48.9603 126.94 45.5427V45.5485Z" fill="#6D6E71"/>
<path d="M109.237 78.4574C103.455 75.3404 99.8649 69.3264 99.8649 62.7633C99.8649 53.274 107.283 45.4617 116.753 44.9759C117.233 44.9528 117.597 44.5422 117.574 44.0622C117.551 43.5823 117.135 43.2122 116.66 43.2411C106.271 43.7789 98.1301 52.3488 98.1301 62.7633C98.1301 69.963 102.073 76.5605 108.416 79.9838C108.549 80.0534 108.688 80.0879 108.826 80.0879C109.133 80.0879 109.433 79.9203 109.589 79.6313C109.815 79.2092 109.659 78.6829 109.237 78.4574Z" fill="#6D6E71"/>
<path d="M106.149 44.5248C106.311 44.8024 106.601 44.9586 106.901 44.9586C107.045 44.9586 107.196 44.9239 107.334 44.8429C107.751 44.6058 107.89 44.0738 107.652 43.6575L106.537 41.7318C106.3 41.3155 105.768 41.1767 105.351 41.4138C104.935 41.6509 104.797 42.1829 105.033 42.5992L106.149 44.5248Z" fill="#6D6E71"/>
<path d="M96.65 51.6201L98.5757 52.7304C98.7144 52.8114 98.8586 52.8461 99.009 52.8461C99.3097 52.8461 99.5987 52.6899 99.7608 52.4124C99.998 51.996 99.8588 51.4698 99.4428 51.227L97.5176 50.1167C97.1011 49.8796 96.5692 50.0184 96.332 50.4347C96.0953 50.851 96.234 51.3773 96.65 51.6201Z" fill="#6D6E71"/>
<path d="M96.9858 62.7634C96.9858 62.2834 96.5981 61.896 96.1181 61.896H93.8922C93.4128 61.896 93.0251 62.2834 93.0251 62.7634C93.0251 63.2434 93.4128 63.6308 93.8922 63.6308H96.1181C96.5981 63.6308 96.9858 63.2434 96.9858 62.7634Z" fill="#6D6E71"/>
<path d="M98.5757 72.7905L96.65 73.901C96.234 74.1382 96.0953 74.6701 96.332 75.086C96.494 75.364 96.7831 75.5199 97.0838 75.5199C97.2286 75.5199 97.379 75.4854 97.5176 75.4046L99.4428 74.2942C99.8588 74.0569 99.998 73.5251 99.7608 73.1085C99.5235 72.6925 98.9917 72.5533 98.5757 72.7905Z" fill="#6D6E71"/>
<path d="M129.206 81.0019C128.97 80.5854 128.438 80.4467 128.021 80.684C127.605 80.9212 127.466 81.453 127.703 81.869L128.813 83.7948C128.975 84.0727 129.264 84.2286 129.565 84.2286C129.71 84.2286 129.859 84.1941 129.999 84.1127C130.415 83.8761 130.553 83.3437 130.317 82.9277L129.206 81.0019Z" fill="#6D6E71"/>
<path d="M138.706 73.9064L136.781 72.7966C136.364 72.5531 135.838 72.698 135.595 73.1145C135.358 73.5305 135.497 74.0568 135.913 74.2996L137.839 75.4101C137.977 75.4908 138.122 75.5259 138.272 75.5259C138.573 75.5259 138.862 75.3694 139.024 75.0921C139.261 74.6755 139.122 74.1492 138.706 73.9064Z" fill="#6D6E71"/>
<path d="M141.458 61.896H139.232C138.752 61.896 138.364 62.2834 138.364 62.7634C138.364 63.2434 138.752 63.6308 139.232 63.6308H141.458C141.937 63.6308 142.325 63.2434 142.325 62.7634C142.325 62.2834 141.937 61.896 141.458 61.896Z" fill="#6D6E71"/>
<path d="M136.347 52.852C136.492 52.852 136.642 52.8173 136.781 52.7363L138.706 51.626C139.122 51.3889 139.261 50.8569 139.024 50.4406C138.786 50.0243 138.255 49.8854 137.839 50.1226L135.913 51.2328C135.497 51.4699 135.358 52.0019 135.595 52.4183C135.757 52.6958 136.046 52.852 136.347 52.852Z" fill="#6D6E71"/>
<path d="M53.6397 117.484V128.081H52.3825V120.294C52.3825 120.191 52.385 120.08 52.3899 119.962C52.3998 119.843 52.4096 119.722 52.4195 119.599L48.7812 126.225C48.6678 126.447 48.4952 126.558 48.2635 126.558H48.0565C47.8248 126.558 47.6522 126.447 47.5388 126.225L43.8266 119.57C43.8561 119.831 43.8709 120.073 43.8709 120.294V128.081H42.6138V117.484H43.6713C43.7994 117.484 43.898 117.497 43.9671 117.521C44.0361 117.546 44.1026 117.615 44.1667 117.728L47.8272 124.251C47.8864 124.369 47.9431 124.492 47.9973 124.62C48.0565 124.749 48.1107 124.879 48.16 125.012C48.2093 124.879 48.2611 124.749 48.3153 124.62C48.3695 124.487 48.4287 124.362 48.4928 124.243L52.0867 117.728C52.1459 117.615 52.21 117.546 52.279 117.521C52.3529 117.497 52.454 117.484 52.5822 117.484H53.6397ZM60.2517 124.709C59.6453 124.729 59.1277 124.778 58.6987 124.857C58.2748 124.931 57.9272 125.03 57.6561 125.153C57.3898 125.276 57.1951 125.422 57.0719 125.589C56.9535 125.757 56.8944 125.944 56.8944 126.151C56.8944 126.348 56.9264 126.518 56.9905 126.661C57.0546 126.804 57.1409 126.923 57.2493 127.016C57.3627 127.105 57.4934 127.172 57.6413 127.216C57.7941 127.255 57.9568 127.275 58.1293 127.275C58.361 127.275 58.573 127.253 58.7653 127.209C58.9576 127.159 59.1375 127.09 59.3051 127.002C59.4777 126.913 59.6404 126.807 59.7932 126.684C59.951 126.56 60.1038 126.42 60.2517 126.262V124.709ZM55.9996 121.648C56.4137 121.248 56.8599 120.95 57.3381 120.753C57.8163 120.556 58.3463 120.457 58.928 120.457C59.347 120.457 59.7192 120.526 60.0446 120.664C60.37 120.802 60.6436 120.994 60.8655 121.241C61.0873 121.487 61.2549 121.786 61.3683 122.136C61.4817 122.486 61.5384 122.87 61.5384 123.289V128.081H60.9542C60.826 128.081 60.7274 128.062 60.6584 128.022C60.5894 127.978 60.5352 127.894 60.4957 127.771L60.3478 127.061C60.1506 127.243 59.9584 127.406 59.771 127.549C59.5837 127.687 59.3865 127.805 59.1794 127.904C58.9724 127.997 58.7505 128.069 58.5139 128.118C58.2822 128.172 58.0233 128.2 57.7374 128.2C57.4465 128.2 57.1729 128.16 56.9166 128.081C56.6602 127.997 56.4359 127.874 56.2436 127.711C56.0563 127.549 55.9059 127.344 55.7925 127.098C55.6841 126.846 55.6298 126.55 55.6298 126.21C55.6298 125.915 55.7112 125.631 55.8739 125.36C56.0366 125.084 56.3003 124.84 56.6651 124.628C57.0299 124.416 57.5057 124.243 58.0924 124.11C58.679 123.972 59.3988 123.893 60.2517 123.874V123.289C60.2517 122.708 60.126 122.269 59.8745 121.973C59.6231 121.672 59.2558 121.522 58.7727 121.522C58.4473 121.522 58.1737 121.564 57.9519 121.648C57.7349 121.727 57.5451 121.818 57.3824 121.921C57.2247 122.02 57.0866 122.111 56.9683 122.195C56.8549 122.274 56.7415 122.313 56.6282 122.313C56.5394 122.313 56.463 122.291 56.3989 122.247C56.3348 122.197 56.2806 122.138 56.2362 122.069L55.9996 121.648ZM70.0657 128.081H68.8013C68.6928 128.081 68.6066 128.054 68.5425 128C68.4833 127.941 68.434 127.877 68.3946 127.808L66.5089 124.872C66.4892 124.941 66.467 125.01 66.4423 125.079C66.4226 125.143 66.393 125.202 66.3536 125.256L64.6084 127.808C64.5591 127.877 64.5048 127.941 64.4457 128C64.3914 128.054 64.315 128.081 64.2164 128.081H63.0406L65.6658 124.236L63.1442 120.59H64.4087C64.5172 120.59 64.596 120.607 64.6453 120.642C64.6946 120.676 64.739 120.726 64.7785 120.79L66.6198 123.6C66.6592 123.457 66.7209 123.319 66.8047 123.186L68.4168 120.819C68.4611 120.75 68.508 120.696 68.5573 120.657C68.6115 120.612 68.6756 120.59 68.7495 120.59H69.9622L67.4406 124.169L70.0657 128.081ZM73.0391 120.59V128.081H71.7228V120.59H73.0391ZM73.3201 118.239C73.3201 118.367 73.293 118.488 73.2388 118.601C73.1895 118.709 73.1205 118.808 73.0317 118.897C72.9479 118.981 72.8468 119.047 72.7285 119.096C72.6151 119.146 72.4943 119.17 72.3662 119.17C72.238 119.17 72.1172 119.146 72.0038 119.096C71.8954 119.047 71.7992 118.981 71.7154 118.897C71.6316 118.808 71.565 118.709 71.5157 118.601C71.4664 118.488 71.4418 118.367 71.4418 118.239C71.4418 118.11 71.4664 117.99 71.5157 117.876C71.565 117.758 71.6316 117.657 71.7154 117.573C71.7992 117.484 71.8954 117.415 72.0038 117.366C72.1172 117.317 72.238 117.292 72.3662 117.292C72.4943 117.292 72.6151 117.317 72.7285 117.366C72.8468 117.415 72.9479 117.484 73.0317 117.573C73.1205 117.657 73.1895 117.758 73.2388 117.876C73.293 117.99 73.3201 118.11 73.3201 118.239ZM75.5719 128.081V120.59H76.3631C76.5505 120.59 76.6663 120.681 76.7107 120.864L76.8068 121.633C77.0829 121.293 77.3935 121.014 77.7386 120.797C78.0837 120.58 78.483 120.472 78.9366 120.472C79.4394 120.472 79.8462 120.612 80.1568 120.893C80.4723 121.174 80.6991 121.554 80.8371 122.032C80.9456 121.761 81.0836 121.527 81.2512 121.33C81.4238 121.132 81.616 120.97 81.828 120.842C82.04 120.713 82.2643 120.62 82.501 120.561C82.7425 120.501 82.9866 120.472 83.2331 120.472C83.6275 120.472 83.9775 120.536 84.2831 120.664C84.5937 120.787 84.855 120.97 85.067 121.211C85.2839 121.453 85.4491 121.751 85.5625 122.106C85.6759 122.456 85.7326 122.858 85.7326 123.311V128.081H84.4089V123.311C84.4089 122.725 84.2807 122.281 84.0243 121.98C83.768 121.675 83.3982 121.522 82.9151 121.522C82.6982 121.522 82.4911 121.561 82.2939 121.64C82.1016 121.714 81.9315 121.825 81.7836 121.973C81.6357 122.121 81.5174 122.308 81.4287 122.535C81.3449 122.757 81.303 123.016 81.303 123.311V128.081H79.9793V123.311C79.9793 122.71 79.8585 122.261 79.6169 121.966C79.3754 121.67 79.0229 121.522 78.5594 121.522C78.2341 121.522 77.9333 121.611 77.6573 121.788C77.3812 121.961 77.1273 122.197 76.8956 122.498V128.081H75.5719ZM89.4929 120.59V128.081H88.1766V120.59H89.4929ZM89.7739 118.239C89.7739 118.367 89.7468 118.488 89.6926 118.601C89.6432 118.709 89.5742 118.808 89.4855 118.897C89.4017 118.981 89.3006 119.047 89.1823 119.096C89.0689 119.146 88.9481 119.17 88.8199 119.17C88.6918 119.17 88.571 119.146 88.4576 119.096C88.3491 119.047 88.253 118.981 88.1692 118.897C88.0854 118.808 88.0188 118.709 87.9695 118.601C87.9202 118.488 87.8956 118.367 87.8956 118.239C87.8956 118.11 87.9202 117.99 87.9695 117.876C88.0188 117.758 88.0854 117.657 88.1692 117.573C88.253 117.484 88.3491 117.415 88.4576 117.366C88.571 117.317 88.6918 117.292 88.8199 117.292C88.9481 117.292 89.0689 117.317 89.1823 117.366C89.3006 117.415 89.4017 117.484 89.4855 117.573C89.5742 117.657 89.6432 117.758 89.6926 117.876C89.7468 117.99 89.7739 118.11 89.7739 118.239ZM97.1947 121.152C97.1947 121.246 97.1775 121.337 97.143 121.426C97.1134 121.515 97.0715 121.591 97.0173 121.655L92.9574 127.053H97.0542V128.081H91.4119V127.534C91.4119 127.47 91.4267 127.396 91.4563 127.312C91.4858 127.223 91.5302 127.14 91.5894 127.061L95.6714 121.625H91.6411V120.59H97.1947V121.152ZM103.952 123.519C103.952 123.213 103.908 122.934 103.819 122.683C103.735 122.427 103.609 122.207 103.442 122.025C103.279 121.837 103.079 121.694 102.843 121.596C102.606 121.492 102.337 121.441 102.037 121.441C101.406 121.441 100.905 121.625 100.535 121.995C100.171 122.36 99.9438 122.868 99.8551 123.519H103.952ZM105.017 127.031C104.854 127.228 104.659 127.401 104.433 127.549C104.206 127.692 103.962 127.81 103.7 127.904C103.444 127.997 103.178 128.066 102.902 128.111C102.626 128.16 102.352 128.185 102.081 128.185C101.563 128.185 101.085 128.099 100.646 127.926C100.213 127.748 99.8354 127.492 99.5149 127.157C99.1994 126.817 98.9529 126.398 98.7754 125.9C98.5979 125.402 98.5092 124.83 98.5092 124.184C98.5092 123.662 98.5881 123.173 98.7458 122.72C98.9085 122.266 99.1402 121.874 99.441 121.544C99.7417 121.209 100.109 120.948 100.543 120.76C100.977 120.568 101.465 120.472 102.007 120.472C102.456 120.472 102.87 120.548 103.249 120.701C103.634 120.849 103.964 121.066 104.24 121.352C104.521 121.633 104.741 121.983 104.898 122.402C105.056 122.816 105.135 123.289 105.135 123.822C105.135 124.029 105.113 124.167 105.069 124.236C105.024 124.305 104.94 124.339 104.817 124.339H99.8107C99.8255 124.813 99.8896 125.224 100.003 125.574C100.121 125.924 100.284 126.218 100.491 126.454C100.698 126.686 100.945 126.861 101.231 126.979C101.516 127.093 101.837 127.149 102.192 127.149C102.522 127.149 102.806 127.113 103.042 127.039C103.284 126.96 103.491 126.876 103.663 126.787C103.836 126.698 103.979 126.617 104.092 126.543C104.211 126.464 104.312 126.425 104.396 126.425C104.504 126.425 104.588 126.467 104.647 126.55L105.017 127.031ZM112.003 122.372C111.756 122.042 111.49 121.813 111.204 121.685C110.918 121.551 110.597 121.485 110.243 121.485C109.547 121.485 109.013 121.734 108.638 122.232C108.263 122.73 108.076 123.44 108.076 124.362C108.076 124.85 108.118 125.269 108.202 125.619C108.285 125.964 108.409 126.25 108.571 126.477C108.734 126.698 108.934 126.861 109.17 126.965C109.407 127.068 109.676 127.12 109.976 127.12C110.41 127.12 110.787 127.021 111.108 126.824C111.433 126.627 111.731 126.348 112.003 125.988V122.372ZM113.319 117.188V128.081H112.535C112.348 128.081 112.229 127.99 112.18 127.808L112.062 126.898C111.741 127.283 111.376 127.593 110.967 127.83C110.558 128.066 110.085 128.185 109.547 128.185C109.118 128.185 108.729 128.103 108.379 127.941C108.029 127.773 107.731 127.529 107.484 127.209C107.238 126.888 107.048 126.489 106.915 126.011C106.782 125.532 106.715 124.983 106.715 124.362C106.715 123.809 106.789 123.297 106.937 122.823C107.085 122.345 107.297 121.931 107.573 121.581C107.849 121.231 108.187 120.957 108.586 120.76C108.99 120.558 109.444 120.457 109.947 120.457C110.405 120.457 110.797 120.536 111.123 120.694C111.453 120.847 111.746 121.061 112.003 121.337V117.188H113.319ZM47.317 142.622C47.317 142.317 47.2726 142.038 47.1839 141.787C47.1001 141.53 46.9743 141.311 46.8067 141.128C46.644 140.941 46.4444 140.798 46.2077 140.7C45.9711 140.596 45.7024 140.544 45.4017 140.544C44.7706 140.544 44.2703 140.729 43.9005 141.099C43.5357 141.464 43.3089 141.971 43.2202 142.622H47.317ZM48.3819 146.135C48.2192 146.332 48.0244 146.505 47.7977 146.652C47.5709 146.795 47.3268 146.914 47.0655 147.007C46.8092 147.101 46.543 147.17 46.2669 147.214C45.9908 147.264 45.7172 147.288 45.4461 147.288C44.9284 147.288 44.4502 147.202 44.0114 147.03C43.5776 146.852 43.2005 146.596 42.88 146.261C42.5645 145.92 42.318 145.501 42.1405 145.003C41.963 144.505 41.8743 143.934 41.8743 143.288C41.8743 142.765 41.9532 142.277 42.1109 141.824C42.2736 141.37 42.5053 140.978 42.8061 140.648C43.1068 140.313 43.4741 140.051 43.9079 139.864C44.3417 139.672 44.8298 139.575 45.3721 139.575C45.8207 139.575 46.2348 139.652 46.6145 139.805C46.999 139.953 47.3293 140.17 47.6054 140.455C47.8864 140.736 48.1058 141.087 48.2635 141.506C48.4213 141.92 48.5002 142.393 48.5002 142.925C48.5002 143.132 48.478 143.27 48.4336 143.34C48.3892 143.409 48.3054 143.443 48.1822 143.443H43.1758C43.1906 143.916 43.2547 144.328 43.3681 144.678C43.4864 145.028 43.6491 145.321 43.8561 145.558C44.0632 145.79 44.3097 145.965 44.5956 146.083C44.8816 146.196 45.202 146.253 45.557 146.253C45.8873 146.253 46.1708 146.216 46.4074 146.142C46.649 146.063 46.856 145.98 47.0286 145.891C47.2011 145.802 47.3441 145.721 47.4575 145.647C47.5758 145.568 47.6769 145.528 47.7607 145.528C47.8691 145.528 47.9529 145.57 48.0121 145.654L48.3819 146.135ZM51.8474 136.292V147.185H50.5311V136.292H51.8474ZM59.3656 142.622C59.3656 142.317 59.3212 142.038 59.2325 141.787C59.1487 141.53 59.0229 141.311 58.8553 141.128C58.6926 140.941 58.493 140.798 58.2563 140.7C58.0197 140.596 57.751 140.544 57.4503 140.544C56.8193 140.544 56.3189 140.729 55.9491 141.099C55.5843 141.464 55.3575 141.971 55.2688 142.622H59.3656ZM60.4305 146.135C60.2678 146.332 60.073 146.505 59.8463 146.652C59.6195 146.795 59.3754 146.914 59.1142 147.007C58.8578 147.101 58.5916 147.17 58.3155 147.214C58.0394 147.264 57.7658 147.288 57.4947 147.288C56.977 147.288 56.4988 147.202 56.06 147.03C55.6262 146.852 55.2491 146.596 54.9286 146.261C54.6131 145.92 54.3666 145.501 54.1891 145.003C54.0116 144.505 53.9229 143.934 53.9229 143.288C53.9229 142.765 54.0018 142.277 54.1595 141.824C54.3222 141.37 54.5539 140.978 54.8547 140.648C55.1554 140.313 55.5227 140.051 55.9565 139.864C56.3904 139.672 56.8784 139.575 57.4207 139.575C57.8693 139.575 58.2835 139.652 58.6631 139.805C59.0476 139.953 59.3779 140.17 59.654 140.455C59.935 140.736 60.1544 141.087 60.3121 141.506C60.4699 141.92 60.5488 142.393 60.5488 142.925C60.5488 143.132 60.5266 143.27 60.4822 143.34C60.4379 143.409 60.354 143.443 60.2308 143.443H55.2244C55.2392 143.916 55.3033 144.328 55.4167 144.678C55.535 145.028 55.6977 145.321 55.9047 145.558C56.1118 145.79 56.3583 145.965 56.6442 146.083C56.9302 146.196 57.2506 146.253 57.6056 146.253C57.9359 146.253 58.2194 146.216 58.456 146.142C58.6976 146.063 58.9046 145.98 59.0772 145.891C59.2497 145.802 59.3927 145.721 59.5061 145.647C59.6244 145.568 59.7255 145.528 59.8093 145.528C59.9177 145.528 60.0016 145.57 60.0607 145.654L60.4305 146.135ZM67.7488 141.025C67.7093 141.079 67.6699 141.121 67.6304 141.151C67.591 141.18 67.5368 141.195 67.4677 141.195C67.3938 141.195 67.3125 141.165 67.2237 141.106C67.135 141.042 67.0241 140.973 66.8909 140.899C66.7628 140.825 66.6025 140.759 66.4103 140.7C66.2229 140.635 65.9912 140.603 65.7151 140.603C65.3454 140.603 65.02 140.67 64.739 140.803C64.458 140.931 64.2214 141.119 64.0291 141.365C63.8418 141.612 63.6988 141.91 63.6002 142.26C63.5065 142.61 63.4597 143.002 63.4597 143.436C63.4597 143.889 63.5114 144.293 63.615 144.648C63.7185 144.998 63.8639 145.294 64.0513 145.536C64.2435 145.772 64.4728 145.955 64.739 146.083C65.0102 146.206 65.3134 146.268 65.6486 146.268C65.969 146.268 66.2328 146.231 66.4398 146.157C66.6469 146.078 66.817 145.992 66.9501 145.898C67.0881 145.804 67.2015 145.721 67.2903 145.647C67.3839 145.568 67.4751 145.528 67.5639 145.528C67.6723 145.528 67.7562 145.57 67.8153 145.654L68.1851 146.135C68.0224 146.337 67.8375 146.509 67.6304 146.652C67.4234 146.795 67.1991 146.916 66.9575 147.015C66.7209 147.108 66.4719 147.177 66.2106 147.222C65.9493 147.266 65.6831 147.288 65.4119 147.288C64.9436 147.288 64.5073 147.202 64.103 147.03C63.7037 146.857 63.3562 146.608 63.0604 146.283C62.7646 145.952 62.5328 145.548 62.3652 145.07C62.1976 144.592 62.1138 144.047 62.1138 143.436C62.1138 142.879 62.1902 142.363 62.343 141.89C62.5008 141.417 62.7276 141.01 63.0234 140.67C63.3241 140.325 63.6914 140.056 64.1252 139.864C64.564 139.672 65.0669 139.575 65.6338 139.575C66.1613 139.575 66.6247 139.662 67.024 139.834C67.4283 140.002 67.7857 140.241 68.0964 140.552L67.7488 141.025ZM72.2676 147.303C71.676 147.303 71.22 147.138 70.8995 146.808C70.584 146.477 70.4262 146.002 70.4262 145.381V140.796H69.524C69.4452 140.796 69.3786 140.773 69.3244 140.729C69.2701 140.68 69.243 140.606 69.243 140.507V139.982L70.4706 139.827L70.7738 137.512C70.7886 137.438 70.8206 137.379 70.8699 137.335C70.9241 137.286 70.9932 137.261 71.077 137.261H71.7425V139.842H73.9093V140.796H71.7425V145.292C71.7425 145.607 71.8189 145.841 71.9718 145.994C72.1246 146.147 72.3218 146.224 72.5634 146.224C72.7014 146.224 72.8197 146.206 72.9183 146.172C73.0219 146.132 73.1106 146.09 73.1845 146.046C73.2585 146.002 73.3201 145.962 73.3694 145.928C73.4236 145.888 73.4705 145.869 73.5099 145.869C73.5789 145.869 73.6406 145.91 73.6948 145.994L74.0793 146.623C73.8526 146.835 73.5789 147.002 73.2585 147.126C72.938 147.244 72.6077 147.303 72.2676 147.303ZM76.8882 141.195C77.1248 140.682 77.4157 140.283 77.7608 139.997C78.1059 139.706 78.5274 139.561 79.0253 139.561C79.1831 139.561 79.3335 139.578 79.4764 139.612C79.6243 139.647 79.755 139.701 79.8684 139.775L79.7722 140.759C79.7426 140.882 79.6687 140.944 79.5504 140.944C79.4814 140.944 79.3803 140.929 79.2472 140.899C79.1141 140.87 78.9637 140.855 78.7961 140.855C78.5594 140.855 78.3475 140.889 78.1601 140.958C77.9777 141.027 77.8126 141.131 77.6647 141.269C77.5217 141.402 77.391 141.57 77.2727 141.772C77.1593 141.969 77.0558 142.196 76.9621 142.452V147.185H75.6384V139.694H76.3927C76.5357 139.694 76.6343 139.721 76.6885 139.775C76.7427 139.829 76.7797 139.923 76.7994 140.056L76.8882 141.195ZM82.7857 139.694V147.185H81.4694V139.694H82.7857ZM83.0667 137.342C83.0667 137.47 83.0396 137.591 82.9853 137.705C82.936 137.813 82.867 137.912 82.7783 138C82.6945 138.084 82.5934 138.151 82.4751 138.2C82.3617 138.249 82.2409 138.274 82.1127 138.274C81.9845 138.274 81.8638 138.249 81.7504 138.2C81.6419 138.151 81.5458 138.084 81.462 138C81.3782 137.912 81.3116 137.813 81.2623 137.705C81.213 137.591 81.1884 137.47 81.1884 137.342C81.1884 137.214 81.213 137.093 81.2623 136.98C81.3116 136.862 81.3782 136.76 81.462 136.677C81.5458 136.588 81.6419 136.519 81.7504 136.47C81.8638 136.42 81.9845 136.396 82.1127 136.396C82.2409 136.396 82.3617 136.42 82.4751 136.47C82.5934 136.519 82.6945 136.588 82.7783 136.677C82.867 136.76 82.936 136.862 82.9853 136.98C83.0396 137.093 83.0667 137.214 83.0667 137.342ZM90.5319 141.025C90.4924 141.079 90.453 141.121 90.4136 141.151C90.3741 141.18 90.3199 141.195 90.2509 141.195C90.1769 141.195 90.0956 141.165 90.0068 141.106C89.9181 141.042 89.8072 140.973 89.6741 140.899C89.5459 140.825 89.3857 140.759 89.1934 140.7C89.0061 140.635 88.7744 140.603 88.4983 140.603C88.1285 140.603 87.8031 140.67 87.5221 140.803C87.2411 140.931 87.0045 141.119 86.8122 141.365C86.6249 141.612 86.4819 141.91 86.3833 142.26C86.2896 142.61 86.2428 143.002 86.2428 143.436C86.2428 143.889 86.2946 144.293 86.3981 144.648C86.5016 144.998 86.6471 145.294 86.8344 145.536C87.0267 145.772 87.2559 145.955 87.5221 146.083C87.7933 146.206 88.0965 146.268 88.4317 146.268C88.7522 146.268 89.0159 146.231 89.223 146.157C89.43 146.078 89.6001 145.992 89.7332 145.898C89.8713 145.804 89.9847 145.721 90.0734 145.647C90.1671 145.568 90.2583 145.528 90.347 145.528C90.4555 145.528 90.5393 145.57 90.5984 145.654L90.9682 146.135C90.8055 146.337 90.6206 146.509 90.4136 146.652C90.2065 146.795 89.9822 146.916 89.7406 147.015C89.504 147.108 89.255 147.177 88.9937 147.222C88.7324 147.266 88.4662 147.288 88.1951 147.288C87.7267 147.288 87.2904 147.202 86.8862 147.03C86.4868 146.857 86.1393 146.608 85.8435 146.283C85.5477 145.952 85.316 145.548 85.1484 145.07C84.9807 144.592 84.8969 144.047 84.8969 143.436C84.8969 142.879 84.9733 142.363 85.1262 141.89C85.2839 141.417 85.5107 141.01 85.8065 140.67C86.1072 140.325 86.4745 140.056 86.9084 139.864C87.3471 139.672 87.85 139.575 88.4169 139.575C88.9444 139.575 89.4078 139.662 89.8072 139.834C90.2114 140.002 90.5689 140.241 90.8794 140.552L90.5319 141.025ZM94.1412 139.694V147.185H92.8249V139.694H94.1412ZM94.4222 137.342C94.4222 137.47 94.3951 137.591 94.3409 137.705C94.2916 137.813 94.2226 137.912 94.1338 138C94.05 138.084 93.949 138.151 93.8307 138.2C93.7173 138.249 93.5965 138.274 93.4683 138.274C93.3401 138.274 93.2193 138.249 93.1059 138.2C92.9975 138.151 92.9013 138.084 92.8175 138C92.7337 137.912 92.6672 137.813 92.6179 137.705C92.5686 137.591 92.5439 137.47 92.5439 137.342C92.5439 137.214 92.5686 137.093 92.6179 136.98C92.6672 136.862 92.7337 136.76 92.8175 136.677C92.9013 136.588 92.9975 136.519 93.1059 136.47C93.2193 136.42 93.3401 136.396 93.4683 136.396C93.5965 136.396 93.7173 136.42 93.8307 136.47C93.949 136.519 94.05 136.588 94.1338 136.677C94.2226 136.76 94.2916 136.862 94.3409 136.98C94.3951 137.093 94.4222 137.214 94.4222 137.342ZM98.9732 147.303C98.3816 147.303 97.9256 147.138 97.6052 146.808C97.2896 146.477 97.1319 146.002 97.1319 145.381V140.796H96.2297C96.1508 140.796 96.0843 140.773 96.03 140.729C95.9758 140.68 95.9487 140.606 95.9487 140.507V139.982L97.1762 139.827L97.4794 137.512C97.4942 137.438 97.5263 137.379 97.5756 137.335C97.6298 137.286 97.6988 137.261 97.7826 137.261H98.4482V139.842H100.615V140.796H98.4482V145.292C98.4482 145.607 98.5246 145.841 98.6774 145.994C98.8303 146.147 99.0275 146.224 99.269 146.224C99.4071 146.224 99.5254 146.206 99.624 146.172C99.7275 146.132 99.8163 146.09 99.8902 146.046C99.9642 146.002 100.026 145.962 100.075 145.928C100.129 145.888 100.176 145.869 100.216 145.869C100.285 145.869 100.346 145.91 100.4 145.994L100.785 146.623C100.558 146.835 100.285 147.002 99.9641 147.126C99.6437 147.244 99.3134 147.303 98.9732 147.303ZM108.807 139.694L104.629 149.396C104.585 149.495 104.528 149.573 104.459 149.633C104.395 149.692 104.294 149.721 104.156 149.721H103.18L104.548 146.749L101.457 139.694H102.596C102.709 139.694 102.798 139.723 102.862 139.783C102.931 139.837 102.978 139.898 103.002 139.967L105.006 144.685C105.085 144.892 105.152 145.109 105.206 145.336C105.275 145.104 105.349 144.885 105.428 144.678L107.373 139.967C107.402 139.889 107.452 139.824 107.521 139.775C107.595 139.721 107.676 139.694 107.765 139.694H108.807ZM117.29 139.575C117.837 139.575 118.33 139.667 118.769 139.849C119.208 140.031 119.582 140.29 119.893 140.626C120.204 140.961 120.44 141.368 120.603 141.846C120.77 142.319 120.854 142.849 120.854 143.436C120.854 144.027 120.77 144.56 120.603 145.033C120.44 145.506 120.204 145.91 119.893 146.246C119.582 146.581 119.208 146.84 118.769 147.022C118.33 147.2 117.837 147.288 117.29 147.288C116.738 147.288 116.24 147.2 115.796 147.022C115.357 146.84 114.983 146.581 114.672 146.246C114.362 145.91 114.122 145.506 113.955 145.033C113.792 144.56 113.711 144.027 113.711 143.436C113.711 142.849 113.792 142.319 113.955 141.846C114.122 141.368 114.362 140.961 114.672 140.626C114.983 140.29 115.357 140.031 115.796 139.849C116.24 139.667 116.738 139.575 117.29 139.575ZM117.29 146.261C118.029 146.261 118.582 146.014 118.946 145.521C119.311 145.023 119.494 144.33 119.494 143.443C119.494 142.551 119.311 141.856 118.946 141.358C118.582 140.86 118.029 140.611 117.29 140.611C116.915 140.611 116.587 140.675 116.306 140.803C116.03 140.931 115.799 141.116 115.611 141.358C115.429 141.599 115.291 141.897 115.197 142.252C115.108 142.602 115.064 142.999 115.064 143.443C115.064 144.33 115.246 145.023 115.611 145.521C115.981 146.014 116.541 146.261 117.29 146.261ZM125.064 147.303C124.472 147.303 124.016 147.138 123.696 146.808C123.38 146.477 123.223 146.002 123.223 145.381V140.796H122.32C122.241 140.796 122.175 140.773 122.121 140.729C122.066 140.68 122.039 140.606 122.039 140.507V139.982L123.267 139.827L123.57 137.512C123.585 137.438 123.617 137.379 123.666 137.335C123.72 137.286 123.789 137.261 123.873 137.261H124.539V139.842H126.706V140.796H124.539V145.292C124.539 145.607 124.615 145.841 124.768 145.994C124.921 146.147 125.118 146.224 125.36 146.224C125.498 146.224 125.616 146.206 125.715 146.172C125.818 146.132 125.907 146.09 125.981 146.046C126.055 146.002 126.116 145.962 126.166 145.928C126.22 145.888 126.267 145.869 126.306 145.869C126.375 145.869 126.437 145.91 126.491 145.994L126.876 146.623C126.649 146.835 126.375 147.002 126.055 147.126C125.734 147.244 125.404 147.303 125.064 147.303ZM134.594 139.694V147.185H133.81C133.623 147.185 133.505 147.094 133.455 146.911L133.352 146.105C133.026 146.465 132.662 146.756 132.257 146.978C131.853 147.195 131.39 147.303 130.867 147.303C130.458 147.303 130.096 147.237 129.78 147.104C129.469 146.965 129.208 146.773 128.996 146.527C128.784 146.28 128.624 145.982 128.515 145.632C128.412 145.282 128.36 144.895 128.36 144.471V139.694H129.676V144.471C129.676 145.038 129.805 145.477 130.061 145.787C130.322 146.098 130.719 146.253 131.252 146.253C131.641 146.253 132.003 146.162 132.339 145.98C132.679 145.792 132.992 145.536 133.278 145.21V139.694H134.594ZM138.375 145.381C138.616 145.706 138.88 145.935 139.166 146.068C139.452 146.201 139.772 146.268 140.127 146.268C140.827 146.268 141.365 146.019 141.74 145.521C142.114 145.023 142.302 144.313 142.302 143.391C142.302 142.903 142.257 142.484 142.168 142.134C142.085 141.784 141.961 141.498 141.799 141.276C141.636 141.05 141.436 140.884 141.2 140.781C140.963 140.677 140.694 140.626 140.394 140.626C139.965 140.626 139.588 140.724 139.262 140.921C138.942 141.119 138.646 141.397 138.375 141.757V145.381ZM138.308 140.855C138.624 140.465 138.989 140.152 139.403 139.916C139.817 139.679 140.29 139.561 140.823 139.561C141.256 139.561 141.648 139.644 141.998 139.812C142.348 139.975 142.647 140.219 142.893 140.544C143.14 140.865 143.329 141.264 143.463 141.742C143.596 142.22 143.662 142.77 143.662 143.391C143.662 143.943 143.588 144.459 143.44 144.937C143.292 145.41 143.078 145.822 142.797 146.172C142.521 146.517 142.181 146.79 141.776 146.993C141.377 147.19 140.926 147.288 140.423 147.288C139.965 147.288 139.57 147.212 139.24 147.059C138.915 146.901 138.626 146.684 138.375 146.408V149.721H137.051V139.694H137.842C138.03 139.694 138.146 139.785 138.19 139.967L138.308 140.855ZM151.871 139.694V147.185H151.087C150.9 147.185 150.782 147.094 150.732 146.911L150.629 146.105C150.303 146.465 149.939 146.756 149.534 146.978C149.13 147.195 148.667 147.303 148.144 147.303C147.735 147.303 147.373 147.237 147.057 147.104C146.747 146.965 146.485 146.773 146.273 146.527C146.061 146.28 145.901 145.982 145.793 145.632C145.689 145.282 145.637 144.895 145.637 144.471V139.694H146.954V144.471C146.954 145.038 147.082 145.477 147.338 145.787C147.599 146.098 147.996 146.253 148.529 146.253C148.918 146.253 149.281 146.162 149.616 145.98C149.956 145.792 150.269 145.536 150.555 145.21V139.694H151.871ZM156.628 147.303C156.036 147.303 155.58 147.138 155.26 146.808C154.944 146.477 154.787 146.002 154.787 145.381V140.796H153.884C153.806 140.796 153.739 140.773 153.685 140.729C153.631 140.68 153.603 140.606 153.603 140.507V139.982L154.831 139.827L155.134 137.512C155.149 137.438 155.181 137.379 155.23 137.335C155.285 137.286 155.354 137.261 155.437 137.261H156.103V139.842H158.27V140.796H156.103V145.292C156.103 145.607 156.179 145.841 156.332 145.994C156.485 146.147 156.682 146.224 156.924 146.224C157.062 146.224 157.18 146.206 157.279 146.172C157.382 146.132 157.471 146.09 157.545 146.046C157.619 146.002 157.681 145.962 157.73 145.928C157.784 145.888 157.831 145.869 157.87 145.869C157.939 145.869 158.001 145.91 158.055 145.994L158.44 146.623C158.213 146.835 157.939 147.002 157.619 147.126C157.298 147.244 156.968 147.303 156.628 147.303ZM44.603 166.407C44.0114 166.407 43.5554 166.242 43.235 165.911C42.9194 165.581 42.7617 165.105 42.7617 164.484V159.899H41.8595C41.7806 159.899 41.7141 159.877 41.6598 159.833C41.6056 159.783 41.5785 159.709 41.5785 159.611V159.086L42.8061 158.931L43.1092 156.616C43.124 156.542 43.1561 156.483 43.2054 156.438C43.2596 156.389 43.3286 156.365 43.4124 156.365H44.078V158.945H46.2447V159.899H44.078V164.395C44.078 164.711 44.1544 164.945 44.3072 165.098C44.4601 165.251 44.6573 165.327 44.8988 165.327C45.0369 165.327 45.1552 165.31 45.2538 165.275C45.3573 165.236 45.4461 165.194 45.52 165.15C45.594 165.105 45.6556 165.066 45.7049 165.031C45.7591 164.992 45.8059 164.972 45.8454 164.972C45.9144 164.972 45.976 165.014 46.0303 165.098L46.4148 165.727C46.188 165.939 45.9144 166.106 45.594 166.229C45.2735 166.348 44.9432 166.407 44.603 166.407ZM49.2974 159.796C49.6178 159.456 49.9728 159.184 50.3622 158.982C50.7517 158.78 51.2003 158.679 51.7081 158.679C52.1173 158.679 52.4772 158.748 52.7878 158.886C53.1033 159.019 53.3646 159.212 53.5716 159.463C53.7836 159.709 53.9438 160.008 54.0523 160.358C54.1608 160.708 54.215 161.095 54.215 161.519V166.289H52.8913V161.519C52.8913 160.952 52.7607 160.513 52.4994 160.202C52.243 159.887 51.8511 159.729 51.3236 159.729C50.9341 159.729 50.5693 159.823 50.2291 160.01C49.8939 160.198 49.5833 160.451 49.2974 160.772V166.289H47.9737V155.396H49.2974V159.796ZM57.8403 160.299C58.0769 159.786 58.3678 159.387 58.7129 159.101C59.058 158.81 59.4795 158.664 59.9774 158.664C60.1352 158.664 60.2855 158.682 60.4285 158.716C60.5764 158.751 60.707 158.805 60.8204 158.879L60.7243 159.862C60.6947 159.986 60.6208 160.047 60.5024 160.047C60.4334 160.047 60.3324 160.032 60.1992 160.003C60.0661 159.973 59.9158 159.958 59.7481 159.958C59.5115 159.958 59.2995 159.993 59.1122 160.062C58.9298 160.131 58.7646 160.235 58.6167 160.373C58.4738 160.506 58.3431 160.673 58.2248 160.875C58.1114 161.073 58.0079 161.299 57.9142 161.556V166.289H56.5905V158.797H57.3448C57.4878 158.797 57.5864 158.825 57.6406 158.879C57.6948 158.933 57.7318 159.027 57.7515 159.16L57.8403 160.299ZM65.2019 158.679C65.7492 158.679 66.2422 158.77 66.6809 158.953C67.1197 159.135 67.4944 159.394 67.805 159.729C68.1155 160.064 68.3522 160.471 68.5149 160.949C68.6825 161.423 68.7663 161.953 68.7663 162.539C68.7663 163.131 68.6825 163.663 68.5149 164.137C68.3522 164.61 68.1155 165.014 67.805 165.349C67.4944 165.685 67.1197 165.943 66.6809 166.126C66.2422 166.303 65.7492 166.392 65.2019 166.392C64.6498 166.392 64.1518 166.303 63.7081 166.126C63.2694 165.943 62.8947 165.685 62.5841 165.349C62.2735 165.014 62.0344 164.61 61.8668 164.137C61.7041 163.663 61.6228 163.131 61.6228 162.539C61.6228 161.953 61.7041 161.423 61.8668 160.949C62.0344 160.471 62.2735 160.064 62.5841 159.729C62.8947 159.394 63.2694 159.135 63.7081 158.953C64.1518 158.77 64.6498 158.679 65.2019 158.679ZM65.2019 165.364C65.9414 165.364 66.4936 165.118 66.8584 164.625C67.2232 164.127 67.4056 163.434 67.4056 162.547C67.4056 161.654 67.2232 160.959 66.8584 160.461C66.4936 159.963 65.9414 159.714 65.2019 159.714C64.8273 159.714 64.4994 159.779 64.2184 159.907C63.9423 160.035 63.7106 160.22 63.5233 160.461C63.3409 160.703 63.2028 161.001 63.1092 161.356C63.0204 161.706 62.9761 162.103 62.9761 162.547C62.9761 163.434 63.1585 164.127 63.5233 164.625C63.893 165.118 64.4526 165.364 65.2019 165.364ZM76.9658 158.797V166.289H76.182C75.9946 166.289 75.8763 166.197 75.827 166.015L75.7235 165.209C75.3981 165.569 75.0333 165.86 74.629 166.081C74.2248 166.298 73.7613 166.407 73.2388 166.407C72.8296 166.407 72.4672 166.34 72.1517 166.207C71.8411 166.069 71.5798 165.877 71.3679 165.63C71.1559 165.384 70.9956 165.086 70.8872 164.736C70.7836 164.386 70.7319 163.999 70.7319 163.575V158.797H72.0482V163.575C72.0482 164.142 72.1764 164.58 72.4327 164.891C72.694 165.201 73.0909 165.357 73.6233 165.357C74.0128 165.357 74.3751 165.266 74.7104 165.083C75.0505 164.896 75.3636 164.639 75.6495 164.314V158.797H76.9658ZM82.0326 162.628C82.2988 162.628 82.533 162.591 82.7351 162.517C82.9373 162.443 83.1073 162.34 83.2454 162.207C83.3834 162.073 83.487 161.916 83.556 161.733C83.625 161.546 83.6595 161.341 83.6595 161.119C83.6595 160.661 83.519 160.296 83.238 160.025C82.9619 159.754 82.5601 159.618 82.0326 159.618C81.5002 159.618 81.0935 159.754 80.8124 160.025C80.5364 160.296 80.3983 160.661 80.3983 161.119C80.3983 161.341 80.4328 161.546 80.5019 161.733C80.5758 161.916 80.6818 162.073 80.8198 162.207C80.9579 162.34 81.128 162.443 81.3301 162.517C81.5322 162.591 81.7664 162.628 82.0326 162.628ZM84.4064 166.695C84.4064 166.513 84.3546 166.365 84.2511 166.252C84.1476 166.138 84.0071 166.049 83.8296 165.985C83.657 165.921 83.4549 165.877 83.2232 165.852C82.9915 165.823 82.745 165.8 82.4837 165.786C82.2273 165.771 81.9661 165.756 81.6998 165.741C81.4336 165.727 81.1773 165.702 80.9308 165.667C80.6547 165.796 80.4279 165.958 80.2504 166.155C80.0779 166.348 79.9916 166.574 79.9916 166.836C79.9916 167.003 80.0335 167.159 80.1173 167.302C80.2061 167.45 80.3392 167.575 80.5166 167.679C80.6941 167.787 80.916 167.871 81.1822 167.93C81.4533 167.994 81.7713 168.026 82.1361 168.026C82.4911 168.026 82.8091 167.994 83.0901 167.93C83.3711 167.866 83.6077 167.775 83.8 167.657C83.9972 167.538 84.1476 167.398 84.2511 167.235C84.3546 167.072 84.4064 166.892 84.4064 166.695ZM85.7449 159.093V159.581C85.7449 159.744 85.6413 159.848 85.4343 159.892L84.5839 160.003C84.7515 160.328 84.8353 160.688 84.8353 161.082C84.8353 161.447 84.7638 161.78 84.6208 162.081C84.4828 162.377 84.2905 162.63 84.044 162.842C83.7975 163.054 83.5017 163.217 83.1566 163.331C82.8115 163.444 82.4369 163.501 82.0326 163.501C81.6826 163.501 81.3523 163.459 81.0417 163.375C80.8839 163.474 80.7631 163.58 80.6793 163.693C80.5955 163.801 80.5536 163.912 80.5536 164.026C80.5536 164.203 80.6251 164.339 80.7681 164.432C80.916 164.521 81.1082 164.585 81.3449 164.625C81.5815 164.664 81.8502 164.689 82.1509 164.699C82.4566 164.708 82.7672 164.726 83.0827 164.75C83.4031 164.77 83.7137 164.807 84.0145 164.861C84.3201 164.916 84.5913 165.004 84.8279 165.128C85.0645 165.251 85.2543 165.421 85.3973 165.638C85.5452 165.855 85.6192 166.136 85.6192 166.481C85.6192 166.801 85.5378 167.112 85.3751 167.413C85.2174 167.713 84.9881 167.98 84.6874 168.211C84.3867 168.448 84.0169 168.635 83.5782 168.773C83.1443 168.916 82.6538 168.988 82.1066 168.988C81.5593 168.988 81.0811 168.933 80.6719 168.825C80.2628 168.717 79.9226 168.571 79.6514 168.389C79.3803 168.206 79.1757 167.994 79.0377 167.753C78.9045 167.516 78.838 167.267 78.838 167.006C78.838 166.636 78.9538 166.323 79.1856 166.067C79.4173 165.81 79.7352 165.606 80.1395 165.453C79.9177 165.354 79.7402 165.224 79.6071 165.061C79.4789 164.893 79.4148 164.669 79.4148 164.388C79.4148 164.28 79.4345 164.169 79.474 164.055C79.5134 163.937 79.5726 163.821 79.6514 163.708C79.7352 163.589 79.8363 163.478 79.9546 163.375C80.0729 163.271 80.211 163.18 80.3687 163.101C79.999 162.894 79.7106 162.621 79.5035 162.28C79.2965 161.935 79.1929 161.536 79.1929 161.082C79.1929 160.718 79.262 160.387 79.4 160.092C79.543 159.791 79.7402 159.537 79.9916 159.33C80.243 159.118 80.5413 158.955 80.8864 158.842C81.2364 158.728 81.6185 158.672 82.0326 158.672C82.358 158.672 82.6612 158.709 82.9422 158.783C83.2232 158.852 83.4796 158.955 83.7113 159.093H85.7449ZM88.7996 159.796C89.1201 159.456 89.475 159.184 89.8645 158.982C90.254 158.78 90.7026 158.679 91.2104 158.679C91.6196 158.679 91.9795 158.748 92.29 158.886C92.6056 159.019 92.8668 159.212 93.0739 159.463C93.2859 159.709 93.4461 160.008 93.5546 160.358C93.663 160.708 93.7173 161.095 93.7173 161.519V166.289H92.3936V161.519C92.3936 160.952 92.2629 160.513 92.0016 160.202C91.7453 159.887 91.3533 159.729 90.8258 159.729C90.4364 159.729 90.0715 159.823 89.7314 160.01C89.3961 160.198 89.0856 160.451 88.7996 160.772V166.289H87.4759V155.396H88.7996V159.796ZM101.571 159.796C101.891 159.456 102.246 159.184 102.636 158.982C103.025 158.78 103.474 158.679 103.981 158.679C104.391 158.679 104.751 158.748 105.061 158.886C105.377 159.019 105.638 159.212 105.845 159.463C106.057 159.709 106.217 160.008 106.326 160.358C106.434 160.708 106.488 161.095 106.488 161.519V166.289H105.165V161.519C105.165 160.952 105.034 160.513 104.773 160.202C104.516 159.887 104.124 159.729 103.597 159.729C103.207 159.729 102.843 159.823 102.502 160.01C102.167 160.198 101.857 160.451 101.571 160.772V166.289H100.247V155.396H101.571V159.796ZM110.254 158.797V166.289H108.937V158.797H110.254ZM110.535 156.446C110.535 156.574 110.508 156.695 110.453 156.808C110.404 156.917 110.335 157.015 110.246 157.104C110.162 157.188 110.061 157.254 109.943 157.304C109.83 157.353 109.709 157.378 109.581 157.378C109.452 157.378 109.332 157.353 109.218 157.304C109.11 157.254 109.014 157.188 108.93 157.104C108.846 157.015 108.78 156.917 108.73 156.808C108.681 156.695 108.656 156.574 108.656 156.446C108.656 156.318 108.681 156.197 108.73 156.083C108.78 155.965 108.846 155.864 108.93 155.78C109.014 155.692 109.11 155.623 109.218 155.573C109.332 155.524 109.452 155.499 109.581 155.499C109.709 155.499 109.83 155.524 109.943 155.573C110.061 155.623 110.162 155.692 110.246 155.78C110.335 155.864 110.404 155.965 110.453 156.083C110.508 156.197 110.535 156.318 110.535 156.446ZM115.397 162.628C115.663 162.628 115.897 162.591 116.099 162.517C116.301 162.443 116.472 162.34 116.61 162.207C116.748 162.073 116.851 161.916 116.92 161.733C116.989 161.546 117.024 161.341 117.024 161.119C117.024 160.661 116.883 160.296 116.602 160.025C116.326 159.754 115.924 159.618 115.397 159.618C114.864 159.618 114.458 159.754 114.177 160.025C113.901 160.296 113.763 160.661 113.763 161.119C113.763 161.341 113.797 161.546 113.866 161.733C113.94 161.916 114.046 162.073 114.184 162.207C114.322 162.34 114.492 162.443 114.694 162.517C114.896 162.591 115.131 162.628 115.397 162.628ZM117.771 166.695C117.771 166.513 117.719 166.365 117.615 166.252C117.512 166.138 117.371 166.049 117.194 165.985C117.021 165.921 116.819 165.877 116.587 165.852C116.356 165.823 116.109 165.8 115.848 165.786C115.592 165.771 115.33 165.756 115.064 165.741C114.798 165.727 114.541 165.702 114.295 165.667C114.019 165.796 113.792 165.958 113.615 166.155C113.442 166.348 113.356 166.574 113.356 166.836C113.356 167.003 113.398 167.159 113.482 167.302C113.57 167.45 113.703 167.575 113.881 167.679C114.058 167.787 114.28 167.871 114.546 167.93C114.818 167.994 115.136 168.026 115.5 168.026C115.855 168.026 116.173 167.994 116.454 167.93C116.735 167.866 116.972 167.775 117.164 167.657C117.361 167.538 117.512 167.398 117.615 167.235C117.719 167.072 117.771 166.892 117.771 166.695ZM119.109 159.093V159.581C119.109 159.744 119.006 159.848 118.798 159.892L117.948 160.003C118.116 160.328 118.2 160.688 118.2 161.082C118.2 161.447 118.128 161.78 117.985 162.081C117.847 162.377 117.655 162.63 117.408 162.842C117.162 163.054 116.866 163.217 116.521 163.331C116.176 163.444 115.801 163.501 115.397 163.501C115.047 163.501 114.716 163.459 114.406 163.375C114.248 163.474 114.127 163.58 114.044 163.693C113.96 163.801 113.918 163.912 113.918 164.026C113.918 164.203 113.989 164.339 114.132 164.432C114.28 164.521 114.472 164.585 114.709 164.625C114.946 164.664 115.214 164.689 115.515 164.699C115.821 164.708 116.131 164.726 116.447 164.75C116.767 164.77 117.078 164.807 117.379 164.861C117.684 164.916 117.955 165.004 118.192 165.128C118.429 165.251 118.619 165.421 118.762 165.638C118.909 165.855 118.983 166.136 118.983 166.481C118.983 166.801 118.902 167.112 118.739 167.413C118.582 167.713 118.352 167.98 118.052 168.211C117.751 168.448 117.381 168.635 116.942 168.773C116.509 168.916 116.018 168.988 115.471 168.988C114.924 168.988 114.445 168.933 114.036 168.825C113.627 168.717 113.287 168.571 113.016 168.389C112.744 168.206 112.54 167.994 112.402 167.753C112.269 167.516 112.202 167.267 112.202 167.006C112.202 166.636 112.318 166.323 112.55 166.067C112.781 165.81 113.099 165.606 113.504 165.453C113.282 165.354 113.104 165.224 112.971 165.061C112.843 164.893 112.779 164.669 112.779 164.388C112.779 164.28 112.799 164.169 112.838 164.055C112.878 163.937 112.937 163.821 113.016 163.708C113.099 163.589 113.201 163.478 113.319 163.375C113.437 163.271 113.575 163.18 113.733 163.101C113.363 162.894 113.075 162.621 112.868 162.28C112.661 161.935 112.557 161.536 112.557 161.082C112.557 160.718 112.626 160.387 112.764 160.092C112.907 159.791 113.104 159.537 113.356 159.33C113.607 159.118 113.905 158.955 114.251 158.842C114.601 158.728 114.983 158.672 115.397 158.672C115.722 158.672 116.025 158.709 116.306 158.783C116.587 158.852 116.844 158.955 117.075 159.093H119.109ZM122.164 159.796C122.484 159.456 122.839 159.184 123.229 158.982C123.618 158.78 124.067 158.679 124.575 158.679C124.984 158.679 125.344 158.748 125.654 158.886C125.97 159.019 126.231 159.212 126.438 159.463C126.65 159.709 126.81 160.008 126.919 160.358C127.027 160.708 127.081 161.095 127.081 161.519V166.289H125.758V161.519C125.758 160.952 125.627 160.513 125.366 160.202C125.109 159.887 124.718 159.729 124.19 159.729C123.801 159.729 123.436 159.823 123.096 160.01C122.76 160.198 122.45 160.451 122.164 160.772V166.289H120.84V155.396H122.164V159.796ZM134.471 161.726C134.471 161.42 134.427 161.142 134.338 160.89C134.254 160.634 134.128 160.414 133.961 160.232C133.798 160.045 133.598 159.902 133.362 159.803C133.125 159.7 132.856 159.648 132.556 159.648C131.925 159.648 131.424 159.833 131.054 160.202C130.69 160.567 130.463 161.075 130.374 161.726H134.471ZM135.536 165.238C135.373 165.436 135.178 165.608 134.952 165.756C134.725 165.899 134.481 166.017 134.219 166.111C133.963 166.205 133.697 166.274 133.421 166.318C133.145 166.367 132.871 166.392 132.6 166.392C132.082 166.392 131.604 166.306 131.165 166.133C130.731 165.956 130.354 165.699 130.034 165.364C129.718 165.024 129.472 164.605 129.294 164.107C129.117 163.609 129.028 163.037 129.028 162.391C129.028 161.869 129.107 161.381 129.265 160.927C129.428 160.474 129.659 160.082 129.96 159.751C130.261 159.416 130.628 159.155 131.062 158.968C131.496 158.775 131.984 158.679 132.526 158.679C132.975 158.679 133.389 158.756 133.768 158.908C134.153 159.056 134.483 159.273 134.759 159.559C135.04 159.84 135.26 160.19 135.417 160.609C135.575 161.023 135.654 161.497 135.654 162.029C135.654 162.236 135.632 162.374 135.588 162.443C135.543 162.512 135.459 162.547 135.336 162.547H130.33C130.344 163.02 130.409 163.432 130.522 163.782C130.64 164.132 130.803 164.425 131.01 164.662C131.217 164.893 131.464 165.068 131.75 165.187C132.035 165.3 132.356 165.357 132.711 165.357C133.041 165.357 133.325 165.32 133.561 165.246C133.803 165.167 134.01 165.083 134.182 164.994C134.355 164.906 134.498 164.824 134.611 164.75C134.73 164.672 134.831 164.632 134.915 164.632C135.023 164.632 135.107 164.674 135.166 164.758L135.536 165.238ZM142.003 160.032C141.944 160.141 141.853 160.195 141.73 160.195C141.656 160.195 141.572 160.168 141.478 160.114C141.385 160.06 141.269 160 141.131 159.936C140.998 159.867 140.837 159.806 140.65 159.751C140.463 159.692 140.241 159.663 139.984 159.663C139.763 159.663 139.563 159.692 139.385 159.751C139.208 159.806 139.055 159.882 138.927 159.981C138.804 160.079 138.708 160.195 138.639 160.328C138.574 160.456 138.542 160.597 138.542 160.75C138.542 160.942 138.597 161.102 138.705 161.23C138.819 161.359 138.966 161.469 139.149 161.563C139.331 161.657 139.538 161.741 139.77 161.815C140.002 161.884 140.238 161.96 140.48 162.044C140.726 162.123 140.965 162.211 141.197 162.31C141.429 162.409 141.636 162.532 141.818 162.68C142.001 162.828 142.146 163.01 142.255 163.227C142.368 163.439 142.425 163.695 142.425 163.996C142.425 164.341 142.363 164.662 142.24 164.957C142.117 165.248 141.934 165.502 141.693 165.719C141.451 165.931 141.155 166.099 140.805 166.222C140.455 166.345 140.051 166.407 139.592 166.407C139.07 166.407 138.597 166.323 138.173 166.155C137.749 165.983 137.389 165.763 137.093 165.497L137.404 164.994C137.443 164.93 137.49 164.881 137.544 164.847C137.598 164.812 137.667 164.795 137.751 164.795C137.84 164.795 137.934 164.829 138.032 164.898C138.131 164.967 138.249 165.044 138.387 165.128C138.53 165.211 138.703 165.288 138.905 165.357C139.107 165.426 139.358 165.46 139.659 165.46C139.915 165.46 140.14 165.428 140.332 165.364C140.524 165.295 140.684 165.204 140.813 165.091C140.941 164.977 141.035 164.847 141.094 164.699C141.158 164.551 141.19 164.393 141.19 164.225C141.19 164.018 141.133 163.848 141.02 163.715C140.911 163.577 140.766 163.461 140.583 163.368C140.401 163.269 140.191 163.185 139.955 163.116C139.723 163.042 139.484 162.966 139.238 162.887C138.996 162.808 138.757 162.719 138.52 162.621C138.289 162.517 138.081 162.389 137.899 162.236C137.717 162.083 137.569 161.896 137.455 161.674C137.347 161.447 137.293 161.174 137.293 160.853C137.293 160.567 137.352 160.294 137.47 160.032C137.588 159.766 137.761 159.534 137.988 159.337C138.215 159.135 138.493 158.975 138.823 158.857C139.154 158.738 139.531 158.679 139.955 158.679C140.448 158.679 140.889 158.758 141.279 158.916C141.673 159.069 142.013 159.281 142.299 159.552L142.003 160.032ZM146.708 166.407C146.117 166.407 145.661 166.242 145.34 165.911C145.025 165.581 144.867 165.105 144.867 164.484V159.899H143.965C143.886 159.899 143.819 159.877 143.765 159.833C143.711 159.783 143.684 159.709 143.684 159.611V159.086L144.911 158.931L145.215 156.616C145.229 156.542 145.261 156.483 145.311 156.438C145.365 156.389 145.434 156.365 145.518 156.365H146.183V158.945H148.35V159.899H146.183V164.395C146.183 164.711 146.26 164.945 146.413 165.098C146.565 165.251 146.763 165.327 147.004 165.327C147.142 165.327 147.26 165.31 147.359 165.275C147.463 165.236 147.551 165.194 147.625 165.15C147.699 165.105 147.761 165.066 147.81 165.031C147.864 164.992 147.911 164.972 147.951 164.972C148.02 164.972 148.081 165.014 148.136 165.098L148.52 165.727C148.293 165.939 148.02 166.106 147.699 166.229C147.379 166.348 147.048 166.407 146.708 166.407ZM47.317 180.829C47.317 180.524 47.2726 180.245 47.1839 179.994C47.1001 179.737 46.9743 179.518 46.8067 179.336C46.644 179.148 46.4444 179.005 46.2077 178.907C45.9711 178.803 45.7024 178.751 45.4017 178.751C44.7706 178.751 44.2703 178.936 43.9005 179.306C43.5357 179.671 43.3089 180.179 43.2202 180.829H47.317ZM48.3819 184.342C48.2192 184.539 48.0244 184.712 47.7977 184.86C47.5709 185.003 47.3268 185.121 47.0655 185.215C46.8092 185.308 46.543 185.377 46.2669 185.422C45.9908 185.471 45.7172 185.496 45.4461 185.496C44.9284 185.496 44.4502 185.409 44.0114 185.237C43.5776 185.059 43.2005 184.803 42.88 184.468C42.5645 184.128 42.318 183.709 42.1405 183.211C41.963 182.713 41.8743 182.141 41.8743 181.495C41.8743 180.972 41.9532 180.484 42.1109 180.031C42.2736 179.577 42.5053 179.185 42.8061 178.855C43.1068 178.52 43.4741 178.258 43.9079 178.071C44.3417 177.879 44.8298 177.783 45.3721 177.783C45.8207 177.783 46.2348 177.859 46.6145 178.012C46.999 178.16 47.3293 178.377 47.6054 178.663C47.8864 178.944 48.1058 179.294 48.2635 179.713C48.4213 180.127 48.5002 180.6 48.5002 181.133C48.5002 181.34 48.478 181.478 48.4336 181.547C48.3892 181.616 48.3054 181.65 48.1822 181.65H43.1758C43.1906 182.124 43.2547 182.535 43.3681 182.885C43.4864 183.235 43.6491 183.529 43.8561 183.765C44.0632 183.997 44.3097 184.172 44.5956 184.29C44.8816 184.404 45.202 184.46 45.557 184.46C45.8873 184.46 46.1708 184.423 46.4074 184.349C46.649 184.271 46.856 184.187 47.0286 184.098C47.2011 184.009 47.3441 183.928 47.4575 183.854C47.5758 183.775 47.6769 183.736 47.7607 183.736C47.8691 183.736 47.9529 183.778 48.0121 183.861L48.3819 184.342ZM50.9174 185.392V179.025L50.0892 178.929C49.9807 178.904 49.8944 178.867 49.8303 178.818C49.7663 178.764 49.7342 178.687 49.7342 178.589V178.049H50.9174V177.435C50.9174 177.006 50.9766 176.627 51.0949 176.296C51.2181 175.961 51.3907 175.68 51.6125 175.453C51.8344 175.222 52.1031 175.047 52.4186 174.928C52.7341 174.81 53.0891 174.751 53.4835 174.751C53.8187 174.751 54.1293 174.8 54.4152 174.899L54.3782 175.564C54.3684 175.683 54.3043 175.747 54.186 175.757C54.0677 175.766 53.905 175.771 53.6979 175.771C53.4711 175.771 53.2641 175.801 53.0767 175.86C52.8943 175.914 52.7366 176.008 52.6035 176.141C52.4753 176.274 52.3742 176.452 52.3003 176.674C52.2312 176.89 52.1967 177.159 52.1967 177.48V178.049H55.5762V177.635C55.5762 177.176 55.6477 176.757 55.7907 176.378C55.9336 175.993 56.1481 175.663 56.434 175.387C56.72 175.111 57.0749 174.896 57.4989 174.743C57.9278 174.591 58.4233 174.514 58.9853 174.514C59.1726 174.514 59.3649 174.527 59.5621 174.551C59.7593 174.576 59.9294 174.613 60.0724 174.662L60.0206 175.35C60.0157 175.399 59.9959 175.434 59.9614 175.453C59.9319 175.473 59.8899 175.485 59.8357 175.49C59.7815 175.495 59.7125 175.498 59.6287 175.498C59.5498 175.493 59.4586 175.49 59.355 175.49C58.4775 175.49 57.8415 175.673 57.4472 176.038C57.0528 176.397 56.8556 176.942 56.8556 177.672V178.049H61.3813V185.392H60.0576V179.003H56.8925V185.392H55.5762V179.003H52.2337V185.392H50.9174ZM69.1266 179.232C69.0871 179.286 69.0477 179.328 69.0082 179.358C68.9689 179.387 68.9147 179.402 68.8457 179.402C68.7717 179.402 68.6904 179.373 68.6016 179.314C68.5129 179.249 68.402 179.18 68.2689 179.106C68.1407 179.033 67.9805 178.966 67.7882 178.907C67.6009 178.843 67.3691 178.811 67.0931 178.811C66.7233 178.811 66.3979 178.877 66.1169 179.01C65.8359 179.139 65.5993 179.326 65.407 179.572C65.2197 179.819 65.0767 180.117 64.9781 180.467C64.8844 180.817 64.8376 181.209 64.8376 181.643C64.8376 182.096 64.8894 182.501 64.9929 182.856C65.0964 183.206 65.2419 183.502 65.4292 183.743C65.6215 183.98 65.8507 184.162 66.1169 184.29C66.3881 184.414 66.6913 184.475 67.0265 184.475C67.347 184.475 67.6107 184.438 67.8178 184.364C68.0248 184.285 68.1949 184.199 68.328 184.105C68.4661 184.012 68.5795 183.928 68.6682 183.854C68.7619 183.775 68.8531 183.736 68.9418 183.736C69.0501 183.736 69.134 183.778 69.1931 183.861L69.5629 184.342C69.4002 184.544 69.2153 184.717 69.0082 184.86C68.8013 185.003 68.577 185.123 68.3354 185.222C68.0988 185.316 67.8498 185.385 67.5885 185.429C67.3272 185.474 67.061 185.496 66.7899 185.496C66.3215 185.496 65.8852 185.409 65.481 185.237C65.0816 185.064 64.7341 184.815 64.4383 184.49C64.1425 184.16 63.9108 183.755 63.7432 183.277C63.5755 182.799 63.4917 182.254 63.4917 181.643C63.4917 181.086 63.5681 180.571 63.721 180.097C63.8787 179.624 64.1055 179.217 64.4013 178.877C64.702 178.532 65.0693 178.263 65.5032 178.071C65.9419 177.879 66.4448 177.783 67.0117 177.783C67.5392 177.783 68.0027 177.869 68.402 178.042C68.8062 178.209 69.1635 178.448 69.4741 178.759L69.1266 179.232ZM72.7359 177.901V185.392H71.4196V177.901H72.7359ZM73.0169 175.549C73.0169 175.678 72.9898 175.798 72.9356 175.912C72.8863 176.02 72.8173 176.119 72.7285 176.208C72.6447 176.291 72.5436 176.358 72.4253 176.407C72.3119 176.457 72.1912 176.481 72.063 176.481C71.9348 176.481 71.814 176.457 71.7006 176.407C71.5922 176.358 71.496 176.291 71.4122 176.208C71.3284 176.119 71.2619 176.02 71.2126 175.912C71.1632 175.798 71.1386 175.678 71.1386 175.549C71.1386 175.421 71.1632 175.301 71.2126 175.187C71.2619 175.069 71.3284 174.968 71.4122 174.884C71.496 174.795 71.5922 174.726 71.7006 174.677C71.814 174.628 71.9348 174.603 72.063 174.603C72.1912 174.603 72.3119 174.628 72.4253 174.677C72.5436 174.726 72.6447 174.795 72.7285 174.884C72.8173 174.968 72.8863 175.069 72.9356 175.187C72.9898 175.301 73.0169 175.421 73.0169 175.549ZM80.2825 180.829C80.2825 180.524 80.2381 180.245 80.1494 179.994C80.0656 179.737 79.9398 179.518 79.7722 179.336C79.6095 179.148 79.4099 179.005 79.1732 178.907C78.9366 178.803 78.6679 178.751 78.3672 178.751C77.7361 178.751 77.2357 178.936 76.866 179.306C76.5012 179.671 76.2744 180.179 76.1857 180.829H80.2825ZM81.3473 184.342C81.1847 184.539 80.9899 184.712 80.7631 184.86C80.5364 185.003 80.2923 185.121 80.031 185.215C79.7747 185.308 79.5085 185.377 79.2324 185.422C78.9563 185.471 78.6827 185.496 78.4115 185.496C77.8939 185.496 77.4157 185.409 76.9769 185.237C76.5431 185.059 76.1659 184.803 75.8455 184.468C75.53 184.128 75.2835 183.709 75.106 183.211C74.9285 182.713 74.8398 182.141 74.8398 181.495C74.8398 180.972 74.9187 180.484 75.0764 180.031C75.2391 179.577 75.4708 179.185 75.7715 178.855C76.0723 178.52 76.4396 178.258 76.8734 178.071C77.3072 177.879 77.7953 177.783 78.3376 177.783C78.7862 177.783 79.2003 177.859 79.5799 178.012C79.9645 178.16 80.2948 178.377 80.5709 178.663C80.8519 178.944 81.0713 179.294 81.229 179.713C81.3868 180.127 81.4657 180.6 81.4657 181.133C81.4657 181.34 81.4435 181.478 81.3991 181.547C81.3547 181.616 81.2709 181.65 81.1477 181.65H76.1413C76.1561 182.124 76.2202 182.535 76.3336 182.885C76.4519 183.235 76.6146 183.529 76.8216 183.765C77.0287 183.997 77.2752 184.172 77.5611 184.29C77.8471 184.404 78.1675 184.46 78.5225 184.46C78.8528 184.46 79.1363 184.423 79.3729 184.349C79.6145 184.271 79.8215 184.187 79.9941 184.098C80.1666 184.009 80.3096 183.928 80.423 183.854C80.5413 183.775 80.6424 183.736 80.7262 183.736C80.8346 183.736 80.9184 183.778 80.9776 183.861L81.3473 184.342ZM84.6942 178.988C84.8569 178.806 85.0294 178.641 85.2118 178.493C85.3942 178.345 85.5865 178.219 85.7886 178.116C85.9957 178.007 86.2126 177.926 86.4394 177.871C86.6711 177.812 86.9201 177.783 87.1863 177.783C87.5955 177.783 87.9554 177.852 88.2659 177.99C88.5815 178.123 88.8427 178.315 89.0498 178.567C89.2618 178.813 89.422 179.111 89.5305 179.461C89.6389 179.811 89.6932 180.198 89.6932 180.622V185.392H88.3695V180.622C88.3695 180.055 88.2388 179.617 87.9775 179.306C87.7212 178.991 87.3292 178.833 86.8017 178.833C86.4123 178.833 86.0475 178.927 85.7073 179.114C85.3721 179.301 85.0615 179.555 84.7755 179.876V185.392H83.4518V177.901H84.2431C84.4304 177.901 84.5463 177.992 84.5907 178.175L84.6942 178.988ZM97.2822 179.232C97.2428 179.286 97.2034 179.328 97.1639 179.358C97.1245 179.387 97.0703 179.402 97.0012 179.402C96.9273 179.402 96.8459 179.373 96.7572 179.314C96.6685 179.249 96.5575 179.18 96.4244 179.106C96.2963 179.033 96.136 178.966 95.9438 178.907C95.7564 178.843 95.5247 178.811 95.2486 178.811C94.8789 178.811 94.5535 178.877 94.2725 179.01C93.9915 179.139 93.7548 179.326 93.5626 179.572C93.3752 179.819 93.2323 180.117 93.1337 180.467C93.04 180.817 92.9932 181.209 92.9932 181.643C92.9932 182.096 93.0449 182.501 93.1485 182.856C93.252 183.206 93.3974 183.502 93.5848 183.743C93.777 183.98 94.0063 184.162 94.2725 184.29C94.5436 184.414 94.8468 184.475 95.1821 184.475C95.5025 184.475 95.7663 184.438 95.9733 184.364C96.1804 184.285 96.3505 184.199 96.4836 184.105C96.6216 184.012 96.735 183.928 96.8238 183.854C96.9174 183.775 97.0086 183.736 97.0974 183.736C97.2058 183.736 97.2896 183.778 97.3488 183.861L97.7186 184.342C97.5559 184.544 97.371 184.717 97.1639 184.86C96.9569 185.003 96.7326 185.123 96.491 185.222C96.2543 185.316 96.0054 185.385 95.7441 185.429C95.4828 185.474 95.2166 185.496 94.9454 185.496C94.4771 185.496 94.0408 185.409 93.6365 185.237C93.2372 185.064 92.8896 184.815 92.5938 184.49C92.298 184.16 92.0663 183.755 91.8987 183.277C91.7311 182.799 91.6473 182.254 91.6473 181.643C91.6473 181.086 91.7237 180.571 91.8765 180.097C92.0343 179.624 92.2611 179.217 92.5569 178.877C92.8576 178.532 93.2249 178.263 93.6587 178.071C94.0975 177.879 94.6003 177.783 95.1673 177.783C95.6948 177.783 96.1582 177.869 96.5575 178.042C96.9618 178.209 97.3192 178.448 97.6298 178.759L97.2822 179.232ZM105.965 177.901L101.786 187.603C101.742 187.702 101.685 187.781 101.616 187.84C101.552 187.899 101.451 187.929 101.313 187.929H100.337L101.705 184.956L98.614 177.901H99.7528C99.8662 177.901 99.9549 177.931 100.019 177.99C100.088 178.044 100.135 178.106 100.16 178.175L102.164 182.893C102.242 183.1 102.309 183.317 102.363 183.543C102.432 183.312 102.506 183.092 102.585 182.885L104.53 178.175C104.56 178.096 104.609 178.032 104.678 177.982C104.752 177.928 104.833 177.901 104.922 177.901H105.965Z" fill="#333333"/>
</g>
<defs>
<filter id="filter0_d_800_2513" x="0" y="0" width="234.734" height="234.734" filterUnits="userSpaceOnUse" color-interpolation-filters="sRGB">
<feFlood flood-opacity="0" result="BackgroundImageFix"/>
<feColorMatrix in="SourceAlpha" type="matrix" values="0 0 0 0 0 0 0 0 0 0 0 0 0 0 0 0 0 0 127 0" result="hardAlpha"/>
<feOffset dy="5"/>
<feGaussianBlur stdDeviation="10"/>
<feComposite in2="hardAlpha" operator="out"/>
<feColorMatrix type="matrix" values="0 0 0 0 0 0 0 0 0 0 0 0 0 0 0 0 0 0 0.15 0"/>
<feBlend mode="normal" in2="BackgroundImageFix" result="effect1_dropShadow_800_2513"/>
<feBlend mode="normal" in="SourceGraphic" in2="effect1_dropShadow_800_2513" result="shape"/>
</filter>
</defs>
</svg>
