<svg width="235" height="238" viewBox="0 0 235 238" fill="none" xmlns="http://www.w3.org/2000/svg">
<g id="Vector" filter="url(#filter0_d_800_2518)">
<path d="M20 113.75C20 59.2119 63.5927 15 117.367 15C171.141 15 214.734 59.2119 214.734 113.75C214.734 168.288 171.141 212.5 117.367 212.5H20V113.75Z" fill="#FF8B00"/>
<path d="M130.941 61.09C130.796 60.7909 130.496 60.6032 130.166 60.6032H121.193L125.57 39.4959C125.651 39.0912 125.448 38.6865 125.084 38.5164C124.715 38.3464 124.281 38.4578 124.032 38.7862L104.496 64.8669C104.299 65.1308 104.265 65.4886 104.409 65.7877C104.554 66.0868 104.854 66.2745 105.184 66.2745H114.157L109.78 87.3762C109.7 87.7806 109.902 88.185 110.266 88.3556C110.382 88.4081 110.503 88.4375 110.625 88.4375C110.89 88.4375 111.145 88.3144 111.312 88.0912L130.842 62.0107C131.039 61.7469 131.074 61.3891 130.929 61.09H130.941ZM112.272 83.9156L116.077 65.5824C116.128 65.3244 116.065 65.0546 115.903 64.8493C115.741 64.6441 115.492 64.5267 115.232 64.5267H106.936L123.078 42.9619L119.274 61.3011C119.222 61.5592 119.285 61.8289 119.447 62.0342C119.615 62.2395 119.858 62.3568 120.123 62.3568H128.42L112.278 83.91L112.272 83.9156Z" fill="white"/>
<path d="M126.94 45.9823C126.518 45.7536 125.992 45.9119 125.766 46.3401C125.541 46.7682 125.697 47.3019 126.119 47.5306C131.895 50.6918 135.485 56.7852 135.485 63.4418C135.485 73.0719 128.067 81.0012 118.597 81.4875C118.118 81.5112 117.753 81.9275 117.776 82.4087C117.8 82.8775 118.181 83.2412 118.643 83.2412C118.661 83.2412 118.672 83.2412 118.69 83.2412C129.079 82.7019 137.22 74.0044 137.22 63.4359C137.22 56.1342 133.283 49.4426 126.94 45.9764V45.9823Z" fill="white"/>
<path d="M109.237 79.3587C103.455 76.1975 99.8649 70.0981 99.8649 63.4418C99.8649 53.8177 107.283 45.8944 116.753 45.4017C117.233 45.3782 117.597 44.9619 117.574 44.475C117.551 43.9883 117.135 43.6129 116.66 43.6422C106.271 44.1877 98.1301 52.8793 98.1301 63.4418C98.1301 70.7437 102.073 77.435 108.416 80.9069C108.549 80.9775 108.688 81.0125 108.826 81.0125C109.133 81.0125 109.433 80.8425 109.589 80.5494C109.815 80.1212 109.659 79.5875 109.237 79.3587Z" fill="white"/>
<path d="M96.9858 63.4418C96.9858 62.9549 96.5981 62.562 96.1181 62.562H93.8922C93.4128 62.562 93.0251 62.9549 93.0251 63.4418C93.0251 63.9285 93.4128 64.3214 93.8922 64.3214H96.1181C96.5981 64.3214 96.9858 63.9285 96.9858 63.4418Z" fill="white"/>
<path d="M98.5757 73.6112L96.65 74.7375C96.234 74.9781 96.0953 75.5175 96.332 75.9394C96.494 76.2212 96.7831 76.3794 97.0838 76.3794C97.2286 76.3794 97.379 76.3444 97.5176 76.2625L99.4428 75.1362C99.8588 74.8956 99.998 74.3562 99.7608 73.9337C99.5235 73.5119 98.9917 73.3706 98.5757 73.6112Z" fill="white"/>
<path d="M129.206 81.9392C128.97 81.5167 128.438 81.3761 128.021 81.6167C127.605 81.8574 127.466 82.3968 127.703 82.8186L128.813 84.7718C128.975 85.0536 129.264 85.2117 129.565 85.2117C129.71 85.2117 129.859 85.1767 129.999 85.0942C130.415 84.8542 130.553 84.3142 130.317 83.8924L129.206 81.9392Z" fill="white"/>
<path d="M138.706 74.7432L136.781 73.6176C136.364 73.3707 135.838 73.5176 135.595 73.9401C135.358 74.3619 135.497 74.8957 135.913 75.1419L137.839 76.2682C137.977 76.3501 138.122 76.3857 138.272 76.3857C138.573 76.3857 138.862 76.2269 139.024 75.9457C139.261 75.5232 139.122 74.9894 138.706 74.7432Z" fill="white"/>
<path d="M141.458 62.562H139.232C138.752 62.562 138.364 62.9549 138.364 63.4418C138.364 63.9285 138.752 64.3214 139.232 64.3214H141.458C141.937 64.3214 142.325 63.9285 142.325 63.4418C142.325 62.9549 141.937 62.562 141.458 62.562Z" fill="white"/>
<path d="M53.6397 118.94V129.687H52.3825V121.79C52.3825 121.685 52.385 121.572 52.3899 121.452C52.3998 121.332 52.4096 121.21 52.4195 121.085L48.7812 127.805C48.6678 128.03 48.4952 128.142 48.2635 128.142H48.0565C47.8248 128.142 47.6522 128.03 47.5388 127.805L43.8266 121.055C43.8561 121.32 43.8709 121.565 43.8709 121.79V129.687H42.6138V118.94H43.6713C43.7994 118.94 43.898 118.952 43.9671 118.977C44.0361 119.002 44.1026 119.072 44.1667 119.187L47.8272 125.802C47.8864 125.922 47.9431 126.047 47.9973 126.177C48.0565 126.307 48.1107 126.44 48.16 126.575C48.2093 126.44 48.2611 126.307 48.3153 126.177C48.3695 126.042 48.4287 125.915 48.4928 125.795L52.0867 119.187C52.1459 119.072 52.21 119.002 52.279 118.977C52.3529 118.952 52.454 118.94 52.5822 118.94H53.6397ZM60.2517 126.267C59.6453 126.287 59.1277 126.337 58.6987 126.417C58.2748 126.492 57.9272 126.592 57.6561 126.717C57.3898 126.842 57.1951 126.99 57.0719 127.16C56.9535 127.33 56.8944 127.52 56.8944 127.73C56.8944 127.93 56.9264 128.102 56.9905 128.247C57.0546 128.392 57.1409 128.512 57.2493 128.607C57.3627 128.697 57.4934 128.765 57.6413 128.81C57.7941 128.85 57.9568 128.87 58.1293 128.87C58.361 128.87 58.573 128.847 58.7653 128.802C58.9576 128.752 59.1375 128.682 59.3051 128.592C59.4777 128.502 59.6404 128.395 59.7932 128.27C59.951 128.145 60.1038 128.002 60.2517 127.842V126.267ZM55.9996 123.162C56.4137 122.757 56.8599 122.455 57.3381 122.255C57.8163 122.055 58.3463 121.955 58.928 121.955C59.347 121.955 59.7192 122.025 60.0446 122.165C60.37 122.305 60.6436 122.5 60.8655 122.75C61.0873 123 61.2549 123.302 61.3683 123.657C61.4817 124.012 61.5384 124.402 61.5384 124.827V129.687H60.9542C60.826 129.687 60.7274 129.667 60.6584 129.627C60.5894 129.582 60.5352 129.497 60.4957 129.372L60.3478 128.652C60.1506 128.837 59.9584 129.002 59.771 129.147C59.5837 129.287 59.3865 129.407 59.1794 129.507C58.9724 129.602 58.7505 129.675 58.5139 129.725C58.2822 129.78 58.0233 129.807 57.7374 129.807C57.4465 129.807 57.1729 129.767 56.9166 129.687C56.6602 129.602 56.4359 129.477 56.2436 129.312C56.0563 129.147 55.9059 128.94 55.7925 128.69C55.6841 128.435 55.6298 128.135 55.6298 127.79C55.6298 127.49 55.7112 127.202 55.8739 126.927C56.0366 126.647 56.3003 126.4 56.6651 126.185C57.0299 125.97 57.5057 125.795 58.0924 125.66C58.679 125.52 59.3988 125.44 60.2517 125.42V124.827C60.2517 124.237 60.126 123.792 59.8745 123.492C59.6231 123.187 59.2558 123.035 58.7727 123.035C58.4473 123.035 58.1737 123.077 57.9519 123.162C57.7349 123.242 57.5451 123.335 57.3824 123.44C57.2247 123.54 57.0866 123.632 56.9683 123.717C56.8549 123.797 56.7415 123.837 56.6282 123.837C56.5394 123.837 56.463 123.815 56.3989 123.77C56.3348 123.72 56.2806 123.66 56.2362 123.59L55.9996 123.162ZM70.0657 129.687H68.8013C68.6928 129.687 68.6066 129.66 68.5425 129.605C68.4833 129.545 68.434 129.48 68.3946 129.41L66.5089 126.432C66.4892 126.502 66.467 126.572 66.4423 126.642C66.4226 126.707 66.393 126.767 66.3536 126.822L64.6084 129.41C64.5591 129.48 64.5048 129.545 64.4457 129.605C64.3914 129.66 64.315 129.687 64.2164 129.687H63.0406L65.6658 125.787L63.1442 122.09H64.4087C64.5172 122.09 64.596 122.107 64.6453 122.142C64.6946 122.177 64.739 122.227 64.7785 122.292L66.6198 125.142C66.6592 124.997 66.7209 124.857 66.8047 124.722L68.4168 122.322C68.4611 122.252 68.508 122.197 68.5573 122.157C68.6115 122.112 68.6756 122.09 68.7495 122.09H69.9622L67.4406 125.72L70.0657 129.687ZM73.0391 122.09V129.687H71.7228V122.09H73.0391ZM73.3201 119.705C73.3201 119.835 73.293 119.957 73.2388 120.072C73.1895 120.182 73.1205 120.282 73.0317 120.372C72.9479 120.457 72.8468 120.525 72.7285 120.575C72.6151 120.625 72.4943 120.65 72.3662 120.65C72.238 120.65 72.1172 120.625 72.0038 120.575C71.8954 120.525 71.7992 120.457 71.7154 120.372C71.6316 120.282 71.565 120.182 71.5157 120.072C71.4664 119.957 71.4418 119.835 71.4418 119.705C71.4418 119.575 71.4664 119.452 71.5157 119.337C71.565 119.217 71.6316 119.115 71.7154 119.03C71.7992 118.94 71.8954 118.87 72.0038 118.82C72.1172 118.77 72.238 118.745 72.3662 118.745C72.4943 118.745 72.6151 118.77 72.7285 118.82C72.8468 118.87 72.9479 118.94 73.0317 119.03C73.1205 119.115 73.1895 119.217 73.2388 119.337C73.293 119.452 73.3201 119.575 73.3201 119.705ZM75.5719 129.687V122.09H76.3631C76.5505 122.09 76.6663 122.182 76.7107 122.367L76.8068 123.147C77.0829 122.802 77.3935 122.52 77.7386 122.3C78.0837 122.08 78.483 121.97 78.9366 121.97C79.4394 121.97 79.8462 122.112 80.1568 122.397C80.4723 122.682 80.6991 123.067 80.8371 123.552C80.9456 123.277 81.0836 123.04 81.2512 122.84C81.4238 122.64 81.616 122.475 81.828 122.345C82.04 122.215 82.2643 122.12 82.501 122.06C82.7425 122 82.9866 121.97 83.2331 121.97C83.6275 121.97 83.9775 122.035 84.2831 122.165C84.5937 122.29 84.855 122.475 85.067 122.72C85.2839 122.965 85.4491 123.267 85.5625 123.627C85.6759 123.982 85.7326 124.39 85.7326 124.85V129.687H84.4089V124.85C84.4089 124.255 84.2807 123.805 84.0243 123.5C83.768 123.19 83.3982 123.035 82.9151 123.035C82.6982 123.035 82.4911 123.075 82.2939 123.155C82.1016 123.23 81.9315 123.342 81.7836 123.492C81.6357 123.642 81.5174 123.832 81.4287 124.062C81.3449 124.287 81.303 124.55 81.303 124.85V129.687H79.9793V124.85C79.9793 124.24 79.8585 123.785 79.6169 123.485C79.3754 123.185 79.0229 123.035 78.5594 123.035C78.2341 123.035 77.9333 123.125 77.6573 123.305C77.3812 123.48 77.1273 123.72 76.8956 124.025V129.687H75.5719ZM89.4929 122.09V129.687H88.1766V122.09H89.4929ZM89.7739 119.705C89.7739 119.835 89.7468 119.957 89.6926 120.072C89.6432 120.182 89.5742 120.282 89.4855 120.372C89.4017 120.457 89.3006 120.525 89.1823 120.575C89.0689 120.625 88.9481 120.65 88.8199 120.65C88.6918 120.65 88.571 120.625 88.4576 120.575C88.3491 120.525 88.253 120.457 88.1692 120.372C88.0854 120.282 88.0188 120.182 87.9695 120.072C87.9202 119.957 87.8956 119.835 87.8956 119.705C87.8956 119.575 87.9202 119.452 87.9695 119.337C88.0188 119.217 88.0854 119.115 88.1692 119.03C88.253 118.94 88.3491 118.87 88.4576 118.82C88.571 118.77 88.6918 118.745 88.8199 118.745C88.9481 118.745 89.0689 118.77 89.1823 118.82C89.3006 118.87 89.4017 118.94 89.4855 119.03C89.5742 119.115 89.6432 119.217 89.6926 119.337C89.7468 119.452 89.7739 119.575 89.7739 119.705ZM97.1947 122.66C97.1947 122.755 97.1775 122.847 97.143 122.937C97.1134 123.027 97.0715 123.105 97.0173 123.17L92.9574 128.645H97.0542V129.687H91.4119V129.132C91.4119 129.067 91.4267 128.992 91.4563 128.907C91.4858 128.817 91.5302 128.732 91.5894 128.652L95.6714 123.14H91.6411V122.09H97.1947V122.66ZM103.952 125.06C103.952 124.75 103.908 124.467 103.819 124.212C103.735 123.952 103.609 123.73 103.442 123.545C103.279 123.355 103.079 123.21 102.843 123.11C102.606 123.005 102.337 122.952 102.037 122.952C101.406 122.952 100.905 123.14 100.535 123.515C100.171 123.885 99.9438 124.4 99.8551 125.06H103.952ZM105.017 128.622C104.854 128.822 104.659 128.997 104.433 129.147C104.206 129.292 103.962 129.412 103.7 129.507C103.444 129.602 103.178 129.672 102.902 129.717C102.626 129.767 102.352 129.792 102.081 129.792C101.563 129.792 101.085 129.705 100.646 129.53C100.213 129.35 99.8354 129.09 99.5149 128.75C99.1994 128.405 98.9529 127.98 98.7754 127.475C98.5979 126.97 98.5092 126.39 98.5092 125.735C98.5092 125.205 98.5881 124.71 98.7458 124.25C98.9085 123.79 99.1402 123.392 99.441 123.057C99.7417 122.717 100.109 122.452 100.543 122.262C100.977 122.067 101.465 121.97 102.007 121.97C102.456 121.97 102.87 122.047 103.249 122.202C103.634 122.352 103.964 122.572 104.24 122.862C104.521 123.147 104.741 123.502 104.898 123.927C105.056 124.347 105.135 124.827 105.135 125.367C105.135 125.577 105.113 125.717 105.069 125.787C105.024 125.857 104.94 125.892 104.817 125.892H99.8107C99.8255 126.372 99.8896 126.79 100.003 127.145C100.121 127.5 100.284 127.797 100.491 128.037C100.698 128.272 100.945 128.45 101.231 128.57C101.516 128.685 101.837 128.742 102.192 128.742C102.522 128.742 102.806 128.705 103.042 128.63C103.284 128.55 103.491 128.465 103.663 128.375C103.836 128.285 103.979 128.202 104.092 128.127C104.211 128.047 104.312 128.007 104.396 128.007C104.504 128.007 104.588 128.05 104.647 128.135L105.017 128.622ZM112.003 123.897C111.756 123.562 111.49 123.33 111.204 123.2C110.918 123.065 110.597 122.997 110.243 122.997C109.547 122.997 109.013 123.25 108.638 123.755C108.263 124.26 108.076 124.98 108.076 125.915C108.076 126.41 108.118 126.835 108.202 127.19C108.285 127.54 108.409 127.83 108.571 128.06C108.734 128.285 108.934 128.45 109.17 128.555C109.407 128.66 109.676 128.712 109.976 128.712C110.41 128.712 110.787 128.612 111.108 128.412C111.433 128.212 111.731 127.93 112.003 127.565V123.897ZM113.319 118.64V129.687H112.535C112.348 129.687 112.229 129.595 112.18 129.41L112.062 128.487C111.741 128.877 111.376 129.192 110.967 129.432C110.558 129.672 110.085 129.792 109.547 129.792C109.118 129.792 108.729 129.71 108.379 129.545C108.029 129.375 107.731 129.127 107.484 128.802C107.238 128.477 107.048 128.072 106.915 127.587C106.782 127.102 106.715 126.545 106.715 125.915C106.715 125.355 106.789 124.835 106.937 124.355C107.085 123.87 107.297 123.45 107.573 123.095C107.849 122.74 108.187 122.462 108.586 122.262C108.99 122.057 109.444 121.955 109.947 121.955C110.405 121.955 110.797 122.035 111.123 122.195C111.453 122.35 111.746 122.567 112.003 122.847V118.64H113.319ZM47.317 144.435C47.317 144.125 47.2726 143.842 47.1839 143.587C47.1001 143.327 46.9743 143.105 46.8067 142.92C46.644 142.73 46.4444 142.585 46.2077 142.485C45.9711 142.38 45.7024 142.327 45.4017 142.327C44.7706 142.327 44.2703 142.515 43.9005 142.89C43.5357 143.26 43.3089 143.775 43.2202 144.435H47.317ZM48.3819 147.997C48.2192 148.197 48.0244 148.372 47.7977 148.522C47.5709 148.667 47.3268 148.787 47.0655 148.882C46.8092 148.977 46.543 149.047 46.2669 149.092C45.9908 149.142 45.7172 149.167 45.4461 149.167C44.9284 149.167 44.4502 149.08 44.0114 148.905C43.5776 148.725 43.2005 148.465 42.88 148.125C42.5645 147.78 42.318 147.355 42.1405 146.85C41.963 146.345 41.8743 145.765 41.8743 145.11C41.8743 144.58 41.9532 144.085 42.1109 143.625C42.2736 143.165 42.5053 142.767 42.8061 142.432C43.1068 142.092 43.4741 141.827 43.9079 141.637C44.3417 141.442 44.8298 141.345 45.3721 141.345C45.8207 141.345 46.2348 141.422 46.6145 141.577C46.999 141.727 47.3293 141.947 47.6054 142.237C47.8864 142.522 48.1058 142.877 48.2635 143.302C48.4213 143.722 48.5002 144.202 48.5002 144.742C48.5002 144.952 48.478 145.092 48.4336 145.162C48.3892 145.232 48.3054 145.267 48.1822 145.267H43.1758C43.1906 145.747 43.2547 146.165 43.3681 146.52C43.4864 146.875 43.6491 147.172 43.8561 147.412C44.0632 147.647 44.3097 147.825 44.5956 147.945C44.8816 148.06 45.202 148.117 45.557 148.117C45.8873 148.117 46.1708 148.08 46.4074 148.005C46.649 147.925 46.856 147.84 47.0286 147.75C47.2011 147.66 47.3441 147.577 47.4575 147.502C47.5758 147.422 47.6769 147.382 47.7607 147.382C47.8691 147.382 47.9529 147.425 48.0121 147.51L48.3819 147.997ZM51.8474 138.015V149.062H50.5311V138.015H51.8474ZM59.3656 144.435C59.3656 144.125 59.3212 143.842 59.2325 143.587C59.1487 143.327 59.0229 143.105 58.8553 142.92C58.6926 142.73 58.493 142.585 58.2563 142.485C58.0197 142.38 57.751 142.327 57.4503 142.327C56.8193 142.327 56.3189 142.515 55.9491 142.89C55.5843 143.26 55.3575 143.775 55.2688 144.435H59.3656ZM60.4305 147.997C60.2678 148.197 60.073 148.372 59.8463 148.522C59.6195 148.667 59.3754 148.787 59.1142 148.882C58.8578 148.977 58.5916 149.047 58.3155 149.092C58.0394 149.142 57.7658 149.167 57.4947 149.167C56.977 149.167 56.4988 149.08 56.06 148.905C55.6262 148.725 55.2491 148.465 54.9286 148.125C54.6131 147.78 54.3666 147.355 54.1891 146.85C54.0116 146.345 53.9229 145.765 53.9229 145.11C53.9229 144.58 54.0018 144.085 54.1595 143.625C54.3222 143.165 54.5539 142.767 54.8547 142.432C55.1554 142.092 55.5227 141.827 55.9565 141.637C56.3904 141.442 56.8784 141.345 57.4207 141.345C57.8693 141.345 58.2835 141.422 58.6631 141.577C59.0476 141.727 59.3779 141.947 59.654 142.237C59.935 142.522 60.1544 142.877 60.3121 143.302C60.4699 143.722 60.5488 144.202 60.5488 144.742C60.5488 144.952 60.5266 145.092 60.4822 145.162C60.4379 145.232 60.354 145.267 60.2308 145.267H55.2244C55.2392 145.747 55.3033 146.165 55.4167 146.52C55.535 146.875 55.6977 147.172 55.9047 147.412C56.1118 147.647 56.3583 147.825 56.6442 147.945C56.9302 148.06 57.2506 148.117 57.6056 148.117C57.9359 148.117 58.2194 148.08 58.456 148.005C58.6976 147.925 58.9046 147.84 59.0772 147.75C59.2497 147.66 59.3927 147.577 59.5061 147.502C59.6244 147.422 59.7255 147.382 59.8093 147.382C59.9177 147.382 60.0016 147.425 60.0607 147.51L60.4305 147.997ZM67.7488 142.815C67.7093 142.87 67.6699 142.912 67.6304 142.942C67.591 142.972 67.5368 142.987 67.4677 142.987C67.3938 142.987 67.3125 142.957 67.2237 142.897C67.135 142.832 67.0241 142.762 66.8909 142.687C66.7628 142.612 66.6025 142.545 66.4103 142.485C66.2229 142.42 65.9912 142.387 65.7151 142.387C65.3454 142.387 65.02 142.455 64.739 142.59C64.458 142.72 64.2214 142.91 64.0291 143.16C63.8418 143.41 63.6988 143.712 63.6002 144.067C63.5065 144.422 63.4597 144.82 63.4597 145.26C63.4597 145.72 63.5114 146.13 63.615 146.49C63.7185 146.845 63.8639 147.145 64.0513 147.39C64.2435 147.63 64.4728 147.815 64.739 147.945C65.0102 148.07 65.3134 148.132 65.6486 148.132C65.969 148.132 66.2328 148.095 66.4398 148.02C66.6469 147.94 66.817 147.852 66.9501 147.757C67.0881 147.662 67.2015 147.577 67.2903 147.502C67.3839 147.422 67.4751 147.382 67.5639 147.382C67.6723 147.382 67.7562 147.425 67.8153 147.51L68.1851 147.997C68.0224 148.202 67.8375 148.377 67.6304 148.522C67.4234 148.667 67.1991 148.79 66.9575 148.89C66.7209 148.985 66.4719 149.055 66.2106 149.1C65.9493 149.145 65.6831 149.167 65.4119 149.167C64.9436 149.167 64.5073 149.08 64.103 148.905C63.7037 148.73 63.3562 148.477 63.0604 148.147C62.7646 147.812 62.5328 147.402 62.3652 146.917C62.1976 146.432 62.1138 145.88 62.1138 145.26C62.1138 144.695 62.1902 144.172 62.343 143.692C62.5008 143.212 62.7276 142.8 63.0234 142.455C63.3241 142.105 63.6914 141.832 64.1252 141.637C64.564 141.442 65.0669 141.345 65.6338 141.345C66.1613 141.345 66.6247 141.432 67.024 141.607C67.4283 141.777 67.7857 142.02 68.0964 142.335L67.7488 142.815ZM72.2676 149.182C71.676 149.182 71.22 149.015 70.8995 148.68C70.584 148.345 70.4262 147.862 70.4262 147.232V142.582H69.524C69.4452 142.582 69.3786 142.56 69.3244 142.515C69.2701 142.465 69.243 142.39 69.243 142.29V141.757L70.4706 141.6L70.7738 139.252C70.7886 139.177 70.8206 139.117 70.8699 139.072C70.9241 139.022 70.9932 138.997 71.077 138.997H71.7425V141.615H73.9093V142.582H71.7425V147.142C71.7425 147.462 71.8189 147.7 71.9718 147.855C72.1246 148.01 72.3218 148.087 72.5634 148.087C72.7014 148.087 72.8197 148.07 72.9183 148.035C73.0219 147.995 73.1106 147.952 73.1845 147.907C73.2585 147.862 73.3201 147.822 73.3694 147.787C73.4236 147.747 73.4705 147.727 73.5099 147.727C73.5789 147.727 73.6406 147.77 73.6948 147.855L74.0793 148.492C73.8526 148.707 73.5789 148.877 73.2585 149.002C72.938 149.122 72.6077 149.182 72.2676 149.182ZM76.8882 142.987C77.1248 142.467 77.4157 142.062 77.7608 141.772C78.1059 141.477 78.5274 141.33 79.0253 141.33C79.1831 141.33 79.3335 141.347 79.4764 141.382C79.6243 141.417 79.755 141.472 79.8684 141.547L79.7722 142.545C79.7426 142.67 79.6687 142.732 79.5504 142.732C79.4814 142.732 79.3803 142.717 79.2472 142.687C79.1141 142.657 78.9637 142.642 78.7961 142.642C78.5594 142.642 78.3475 142.677 78.1601 142.747C77.9777 142.817 77.8126 142.922 77.6647 143.062C77.5217 143.197 77.391 143.367 77.2727 143.572C77.1593 143.772 77.0558 144.002 76.9621 144.262V149.062H75.6384V141.465H76.3927C76.5357 141.465 76.6343 141.492 76.6885 141.547C76.7427 141.602 76.7797 141.697 76.7994 141.832L76.8882 142.987ZM82.7857 141.465V149.062H81.4694V141.465H82.7857ZM83.0667 139.08C83.0667 139.21 83.0396 139.332 82.9853 139.447C82.936 139.557 82.867 139.657 82.7783 139.747C82.6945 139.832 82.5934 139.9 82.4751 139.95C82.3617 140 82.2409 140.025 82.1127 140.025C81.9845 140.025 81.8638 140 81.7504 139.95C81.6419 139.9 81.5458 139.832 81.462 139.747C81.3782 139.657 81.3116 139.557 81.2623 139.447C81.213 139.332 81.1884 139.21 81.1884 139.08C81.1884 138.95 81.213 138.827 81.2623 138.712C81.3116 138.592 81.3782 138.49 81.462 138.405C81.5458 138.315 81.6419 138.245 81.7504 138.195C81.8638 138.145 81.9845 138.12 82.1127 138.12C82.2409 138.12 82.3617 138.145 82.4751 138.195C82.5934 138.245 82.6945 138.315 82.7783 138.405C82.867 138.49 82.936 138.592 82.9853 138.712C83.0396 138.827 83.0667 138.95 83.0667 139.08ZM90.5319 142.815C90.4924 142.87 90.453 142.912 90.4136 142.942C90.3741 142.972 90.3199 142.987 90.2509 142.987C90.1769 142.987 90.0956 142.957 90.0068 142.897C89.9181 142.832 89.8072 142.762 89.6741 142.687C89.5459 142.612 89.3857 142.545 89.1934 142.485C89.0061 142.42 88.7744 142.387 88.4983 142.387C88.1285 142.387 87.8031 142.455 87.5221 142.59C87.2411 142.72 87.0045 142.91 86.8122 143.16C86.6249 143.41 86.4819 143.712 86.3833 144.067C86.2896 144.422 86.2428 144.82 86.2428 145.26C86.2428 145.72 86.2946 146.13 86.3981 146.49C86.5016 146.845 86.6471 147.145 86.8344 147.39C87.0267 147.63 87.2559 147.815 87.5221 147.945C87.7933 148.07 88.0965 148.132 88.4317 148.132C88.7522 148.132 89.0159 148.095 89.223 148.02C89.43 147.94 89.6001 147.852 89.7332 147.757C89.8713 147.662 89.9847 147.577 90.0734 147.502C90.1671 147.422 90.2583 147.382 90.347 147.382C90.4555 147.382 90.5393 147.425 90.5984 147.51L90.9682 147.997C90.8055 148.202 90.6206 148.377 90.4136 148.522C90.2065 148.667 89.9822 148.79 89.7406 148.89C89.504 148.985 89.255 149.055 88.9937 149.1C88.7324 149.145 88.4662 149.167 88.1951 149.167C87.7267 149.167 87.2904 149.08 86.8862 148.905C86.4868 148.73 86.1393 148.477 85.8435 148.147C85.5477 147.812 85.316 147.402 85.1484 146.917C84.9807 146.432 84.8969 145.88 84.8969 145.26C84.8969 144.695 84.9733 144.172 85.1262 143.692C85.2839 143.212 85.5107 142.8 85.8065 142.455C86.1072 142.105 86.4745 141.832 86.9084 141.637C87.3471 141.442 87.85 141.345 88.4169 141.345C88.9444 141.345 89.4078 141.432 89.8072 141.607C90.2114 141.777 90.5689 142.02 90.8794 142.335L90.5319 142.815ZM94.1412 141.465V149.062H92.8249V141.465H94.1412ZM94.4222 139.08C94.4222 139.21 94.3951 139.332 94.3409 139.447C94.2916 139.557 94.2226 139.657 94.1338 139.747C94.05 139.832 93.949 139.9 93.8307 139.95C93.7173 140 93.5965 140.025 93.4683 140.025C93.3401 140.025 93.2193 140 93.1059 139.95C92.9975 139.9 92.9013 139.832 92.8175 139.747C92.7337 139.657 92.6672 139.557 92.6179 139.447C92.5686 139.332 92.5439 139.21 92.5439 139.08C92.5439 138.95 92.5686 138.827 92.6179 138.712C92.6672 138.592 92.7337 138.49 92.8175 138.405C92.9013 138.315 92.9975 138.245 93.1059 138.195C93.2193 138.145 93.3401 138.12 93.4683 138.12C93.5965 138.12 93.7173 138.145 93.8307 138.195C93.949 138.245 94.05 138.315 94.1338 138.405C94.2226 138.49 94.2916 138.592 94.3409 138.712C94.3951 138.827 94.4222 138.95 94.4222 139.08ZM98.9732 149.182C98.3816 149.182 97.9256 149.015 97.6052 148.68C97.2896 148.345 97.1319 147.862 97.1319 147.232V142.582H96.2297C96.1508 142.582 96.0843 142.56 96.03 142.515C95.9758 142.465 95.9487 142.39 95.9487 142.29V141.757L97.1762 141.6L97.4794 139.252C97.4942 139.177 97.5263 139.117 97.5756 139.072C97.6298 139.022 97.6988 138.997 97.7826 138.997H98.4482V141.615H100.615V142.582H98.4482V147.142C98.4482 147.462 98.5246 147.7 98.6774 147.855C98.8303 148.01 99.0275 148.087 99.269 148.087C99.4071 148.087 99.5254 148.07 99.624 148.035C99.7275 147.995 99.8163 147.952 99.8902 147.907C99.9642 147.862 100.026 147.822 100.075 147.787C100.129 147.747 100.176 147.727 100.216 147.727C100.285 147.727 100.346 147.77 100.4 147.855L100.785 148.492C100.558 148.707 100.285 148.877 99.9641 149.002C99.6437 149.122 99.3134 149.182 98.9732 149.182ZM108.807 141.465L104.629 151.305C104.585 151.405 104.528 151.485 104.459 151.545C104.395 151.605 104.294 151.635 104.156 151.635H103.18L104.548 148.62L101.457 141.465H102.596C102.709 141.465 102.798 141.495 102.862 141.555C102.931 141.61 102.978 141.672 103.002 141.742L105.006 146.527C105.085 146.737 105.152 146.957 105.206 147.187C105.275 146.952 105.349 146.73 105.428 146.52L107.373 141.742C107.402 141.662 107.452 141.597 107.521 141.547C107.595 141.492 107.676 141.465 107.765 141.465H108.807ZM117.29 141.345C117.837 141.345 118.33 141.437 118.769 141.622C119.208 141.807 119.582 142.07 119.893 142.41C120.204 142.75 120.44 143.162 120.603 143.647C120.77 144.127 120.854 144.665 120.854 145.26C120.854 145.86 120.77 146.4 120.603 146.88C120.44 147.36 120.204 147.77 119.893 148.11C119.582 148.45 119.208 148.712 118.769 148.897C118.33 149.077 117.837 149.167 117.29 149.167C116.738 149.167 116.24 149.077 115.796 148.897C115.357 148.712 114.983 148.45 114.672 148.11C114.362 147.77 114.122 147.36 113.955 146.88C113.792 146.4 113.711 145.86 113.711 145.26C113.711 144.665 113.792 144.127 113.955 143.647C114.122 143.162 114.362 142.75 114.672 142.41C114.983 142.07 115.357 141.807 115.796 141.622C116.24 141.437 116.738 141.345 117.29 141.345ZM117.29 148.125C118.029 148.125 118.582 147.875 118.946 147.375C119.311 146.87 119.494 146.167 119.494 145.267C119.494 144.362 119.311 143.657 118.946 143.152C118.582 142.647 118.029 142.395 117.29 142.395C116.915 142.395 116.587 142.46 116.306 142.59C116.03 142.72 115.799 142.907 115.611 143.152C115.429 143.397 115.291 143.7 115.197 144.06C115.108 144.415 115.064 144.817 115.064 145.267C115.064 146.167 115.246 146.87 115.611 147.375C115.981 147.875 116.541 148.125 117.29 148.125ZM125.064 149.182C124.472 149.182 124.016 149.015 123.696 148.68C123.38 148.345 123.223 147.862 123.223 147.232V142.582H122.32C122.241 142.582 122.175 142.56 122.121 142.515C122.066 142.465 122.039 142.39 122.039 142.29V141.757L123.267 141.6L123.57 139.252C123.585 139.177 123.617 139.117 123.666 139.072C123.72 139.022 123.789 138.997 123.873 138.997H124.539V141.615H126.706V142.582H124.539V147.142C124.539 147.462 124.615 147.7 124.768 147.855C124.921 148.01 125.118 148.087 125.36 148.087C125.498 148.087 125.616 148.07 125.715 148.035C125.818 147.995 125.907 147.952 125.981 147.907C126.055 147.862 126.116 147.822 126.166 147.787C126.22 147.747 126.267 147.727 126.306 147.727C126.375 147.727 126.437 147.77 126.491 147.855L126.876 148.492C126.649 148.707 126.375 148.877 126.055 149.002C125.734 149.122 125.404 149.182 125.064 149.182ZM134.594 141.465V149.062H133.81C133.623 149.062 133.505 148.97 133.455 148.785L133.352 147.967C133.026 148.332 132.662 148.627 132.257 148.852C131.853 149.072 131.39 149.182 130.867 149.182C130.458 149.182 130.096 149.115 129.78 148.98C129.469 148.84 129.208 148.645 128.996 148.395C128.784 148.145 128.624 147.842 128.515 147.487C128.412 147.132 128.36 146.74 128.36 146.31V141.465H129.676V146.31C129.676 146.885 129.805 147.33 130.061 147.645C130.322 147.96 130.719 148.117 131.252 148.117C131.641 148.117 132.003 148.025 132.339 147.84C132.679 147.65 132.992 147.39 133.278 147.06V141.465H134.594ZM138.375 147.232C138.616 147.562 138.88 147.795 139.166 147.93C139.452 148.065 139.772 148.132 140.127 148.132C140.827 148.132 141.365 147.88 141.74 147.375C142.114 146.87 142.302 146.15 142.302 145.215C142.302 144.72 142.257 144.295 142.168 143.94C142.085 143.585 141.961 143.295 141.799 143.07C141.636 142.84 141.436 142.672 141.2 142.567C140.963 142.462 140.694 142.41 140.394 142.41C139.965 142.41 139.588 142.51 139.262 142.71C138.942 142.91 138.646 143.192 138.375 143.557V147.232ZM138.308 142.642C138.624 142.247 138.989 141.93 139.403 141.69C139.817 141.45 140.29 141.33 140.823 141.33C141.256 141.33 141.648 141.415 141.998 141.585C142.348 141.75 142.647 141.997 142.893 142.327C143.14 142.652 143.329 143.057 143.463 143.542C143.596 144.027 143.662 144.585 143.662 145.215C143.662 145.775 143.588 146.297 143.44 146.782C143.292 147.262 143.078 147.68 142.797 148.035C142.521 148.385 142.181 148.662 141.776 148.867C141.377 149.067 140.926 149.167 140.423 149.167C139.965 149.167 139.57 149.09 139.24 148.935C138.915 148.775 138.626 148.555 138.375 148.275V151.635H137.051V141.465H137.842C138.03 141.465 138.146 141.557 138.19 141.742L138.308 142.642ZM151.871 141.465V149.062H151.087C150.9 149.062 150.782 148.97 150.732 148.785L150.629 147.967C150.303 148.332 149.939 148.627 149.534 148.852C149.13 149.072 148.667 149.182 148.144 149.182C147.735 149.182 147.373 149.115 147.057 148.98C146.747 148.84 146.485 148.645 146.273 148.395C146.061 148.145 145.901 147.842 145.793 147.487C145.689 147.132 145.637 146.74 145.637 146.31V141.465H146.954V146.31C146.954 146.885 147.082 147.33 147.338 147.645C147.599 147.96 147.996 148.117 148.529 148.117C148.918 148.117 149.281 148.025 149.616 147.84C149.956 147.65 150.269 147.39 150.555 147.06V141.465H151.871ZM156.628 149.182C156.036 149.182 155.58 149.015 155.26 148.68C154.944 148.345 154.787 147.862 154.787 147.232V142.582H153.884C153.806 142.582 153.739 142.56 153.685 142.515C153.631 142.465 153.603 142.39 153.603 142.29V141.757L154.831 141.6L155.134 139.252C155.149 139.177 155.181 139.117 155.23 139.072C155.285 139.022 155.354 138.997 155.437 138.997H156.103V141.615H158.27V142.582H156.103V147.142C156.103 147.462 156.179 147.7 156.332 147.855C156.485 148.01 156.682 148.087 156.924 148.087C157.062 148.087 157.18 148.07 157.279 148.035C157.382 147.995 157.471 147.952 157.545 147.907C157.619 147.862 157.681 147.822 157.73 147.787C157.784 147.747 157.831 147.727 157.87 147.727C157.939 147.727 158.001 147.77 158.055 147.855L158.44 148.492C158.213 148.707 157.939 148.877 157.619 149.002C157.298 149.122 156.968 149.182 156.628 149.182ZM44.603 168.557C44.0114 168.557 43.5554 168.39 43.235 168.055C42.9194 167.72 42.7617 167.237 42.7617 166.607V161.957H41.8595C41.7806 161.957 41.7141 161.935 41.6598 161.89C41.6056 161.84 41.5785 161.765 41.5785 161.665V161.132L42.8061 160.975L43.1092 158.627C43.124 158.552 43.1561 158.492 43.2054 158.447C43.2596 158.397 43.3286 158.372 43.4124 158.372H44.078V160.99H46.2447V161.957H44.078V166.517C44.078 166.837 44.1544 167.075 44.3072 167.23C44.4601 167.385 44.6573 167.462 44.8988 167.462C45.0369 167.462 45.1552 167.445 45.2538 167.41C45.3573 167.37 45.4461 167.327 45.52 167.282C45.594 167.237 45.6556 167.197 45.7049 167.162C45.7591 167.122 45.8059 167.102 45.8454 167.102C45.9144 167.102 45.976 167.145 46.0303 167.23L46.4148 167.867C46.188 168.082 45.9144 168.252 45.594 168.377C45.2735 168.497 44.9432 168.557 44.603 168.557ZM49.2974 161.852C49.6178 161.507 49.9728 161.232 50.3622 161.027C50.7517 160.822 51.2003 160.72 51.7081 160.72C52.1173 160.72 52.4772 160.79 52.7878 160.93C53.1033 161.065 53.3646 161.26 53.5716 161.515C53.7836 161.765 53.9438 162.067 54.0523 162.422C54.1608 162.777 54.215 163.17 54.215 163.6V168.437H52.8913V163.6C52.8913 163.025 52.7607 162.58 52.4994 162.265C52.243 161.945 51.8511 161.785 51.3236 161.785C50.9341 161.785 50.5693 161.88 50.2291 162.07C49.8939 162.26 49.5833 162.517 49.2974 162.842V168.437H47.9737V157.39H49.2974V161.852ZM57.8403 162.362C58.0769 161.842 58.3678 161.437 58.7129 161.147C59.058 160.852 59.4795 160.705 59.9774 160.705C60.1352 160.705 60.2855 160.722 60.4285 160.757C60.5764 160.792 60.707 160.847 60.8204 160.922L60.7243 161.92C60.6947 162.045 60.6208 162.107 60.5024 162.107C60.4334 162.107 60.3324 162.092 60.1992 162.062C60.0661 162.032 59.9158 162.017 59.7481 162.017C59.5115 162.017 59.2995 162.052 59.1122 162.122C58.9298 162.192 58.7646 162.297 58.6167 162.437C58.4738 162.572 58.3431 162.742 58.2248 162.947C58.1114 163.147 58.0079 163.377 57.9142 163.637V168.437H56.5905V160.84H57.3448C57.4878 160.84 57.5864 160.867 57.6406 160.922C57.6948 160.977 57.7318 161.072 57.7515 161.207L57.8403 162.362ZM65.2019 160.72C65.7492 160.72 66.2422 160.812 66.6809 160.997C67.1197 161.182 67.4944 161.445 67.805 161.785C68.1155 162.125 68.3522 162.537 68.5149 163.022C68.6825 163.502 68.7663 164.04 68.7663 164.635C68.7663 165.235 68.6825 165.775 68.5149 166.255C68.3522 166.735 68.1155 167.145 67.805 167.485C67.4944 167.825 67.1197 168.087 66.6809 168.272C66.2422 168.452 65.7492 168.542 65.2019 168.542C64.6498 168.542 64.1518 168.452 63.7081 168.272C63.2694 168.087 62.8947 167.825 62.5841 167.485C62.2735 167.145 62.0344 166.735 61.8668 166.255C61.7041 165.775 61.6228 165.235 61.6228 164.635C61.6228 164.04 61.7041 163.502 61.8668 163.022C62.0344 162.537 62.2735 162.125 62.5841 161.785C62.8947 161.445 63.2694 161.182 63.7081 160.997C64.1518 160.812 64.6498 160.72 65.2019 160.72ZM65.2019 167.5C65.9414 167.5 66.4936 167.25 66.8584 166.75C67.2232 166.245 67.4056 165.542 67.4056 164.642C67.4056 163.737 67.2232 163.032 66.8584 162.527C66.4936 162.022 65.9414 161.77 65.2019 161.77C64.8273 161.77 64.4994 161.835 64.2184 161.965C63.9423 162.095 63.7106 162.282 63.5233 162.527C63.3409 162.772 63.2028 163.075 63.1092 163.435C63.0204 163.79 62.9761 164.192 62.9761 164.642C62.9761 165.542 63.1585 166.245 63.5233 166.75C63.893 167.25 64.4526 167.5 65.2019 167.5ZM76.9658 160.84V168.437H76.182C75.9946 168.437 75.8763 168.345 75.827 168.16L75.7235 167.342C75.3981 167.707 75.0333 168.002 74.629 168.227C74.2248 168.447 73.7613 168.557 73.2388 168.557C72.8296 168.557 72.4672 168.49 72.1517 168.355C71.8411 168.215 71.5798 168.02 71.3679 167.77C71.1559 167.52 70.9956 167.217 70.8872 166.862C70.7836 166.507 70.7319 166.115 70.7319 165.685V160.84H72.0482V165.685C72.0482 166.26 72.1764 166.705 72.4327 167.02C72.694 167.335 73.0909 167.492 73.6233 167.492C74.0128 167.492 74.3751 167.4 74.7104 167.215C75.0505 167.025 75.3636 166.765 75.6495 166.435V160.84H76.9658ZM82.0326 164.725C82.2988 164.725 82.533 164.687 82.7351 164.612C82.9373 164.537 83.1073 164.432 83.2454 164.297C83.3834 164.162 83.487 164.002 83.556 163.817C83.625 163.627 83.6595 163.42 83.6595 163.195C83.6595 162.73 83.519 162.36 83.238 162.085C82.9619 161.81 82.5601 161.672 82.0326 161.672C81.5002 161.672 81.0935 161.81 80.8124 162.085C80.5364 162.36 80.3983 162.73 80.3983 163.195C80.3983 163.42 80.4328 163.627 80.5019 163.817C80.5758 164.002 80.6818 164.162 80.8198 164.297C80.9579 164.432 81.128 164.537 81.3301 164.612C81.5322 164.687 81.7664 164.725 82.0326 164.725ZM84.4064 168.85C84.4064 168.665 84.3546 168.515 84.2511 168.4C84.1476 168.285 84.0071 168.195 83.8296 168.13C83.657 168.065 83.4549 168.02 83.2232 167.995C82.9915 167.965 82.745 167.942 82.4837 167.927C82.2273 167.912 81.9661 167.897 81.6998 167.882C81.4336 167.867 81.1773 167.842 80.9308 167.807C80.6547 167.937 80.4279 168.102 80.2504 168.302C80.0779 168.497 79.9916 168.727 79.9916 168.992C79.9916 169.162 80.0335 169.32 80.1173 169.465C80.2061 169.615 80.3392 169.742 80.5166 169.847C80.6941 169.957 80.916 170.042 81.1822 170.102C81.4533 170.167 81.7713 170.2 82.1361 170.2C82.4911 170.2 82.8091 170.167 83.0901 170.102C83.3711 170.037 83.6077 169.945 83.8 169.825C83.9972 169.705 84.1476 169.562 84.2511 169.397C84.3546 169.232 84.4064 169.05 84.4064 168.85ZM85.7449 161.14V161.635C85.7449 161.8 85.6413 161.905 85.4343 161.95L84.5839 162.062C84.7515 162.392 84.8353 162.757 84.8353 163.157C84.8353 163.527 84.7638 163.865 84.6208 164.17C84.4828 164.47 84.2905 164.727 84.044 164.942C83.7975 165.157 83.5017 165.322 83.1566 165.437C82.8115 165.552 82.4369 165.61 82.0326 165.61C81.6826 165.61 81.3523 165.567 81.0417 165.482C80.8839 165.582 80.7631 165.69 80.6793 165.805C80.5955 165.915 80.5536 166.027 80.5536 166.142C80.5536 166.322 80.6251 166.46 80.7681 166.555C80.916 166.645 81.1082 166.71 81.3449 166.75C81.5815 166.79 81.8502 166.815 82.1509 166.825C82.4566 166.835 82.7672 166.852 83.0827 166.877C83.4031 166.897 83.7137 166.935 84.0145 166.99C84.3201 167.045 84.5913 167.135 84.8279 167.26C85.0645 167.385 85.2543 167.557 85.3973 167.777C85.5452 167.997 85.6192 168.282 85.6192 168.632C85.6192 168.957 85.5378 169.272 85.3751 169.577C85.2174 169.882 84.9881 170.152 84.6874 170.387C84.3867 170.627 84.0169 170.817 83.5782 170.957C83.1443 171.102 82.6538 171.175 82.1066 171.175C81.5593 171.175 81.0811 171.12 80.6719 171.01C80.2628 170.9 79.9226 170.752 79.6514 170.567C79.3803 170.382 79.1757 170.167 79.0377 169.922C78.9045 169.682 78.838 169.43 78.838 169.165C78.838 168.79 78.9538 168.472 79.1856 168.212C79.4173 167.952 79.7352 167.745 80.1395 167.59C79.9177 167.49 79.7402 167.357 79.6071 167.192C79.4789 167.022 79.4148 166.795 79.4148 166.51C79.4148 166.4 79.4345 166.287 79.474 166.172C79.5134 166.052 79.5726 165.935 79.6514 165.82C79.7352 165.7 79.8363 165.587 79.9546 165.482C80.0729 165.377 80.211 165.285 80.3687 165.205C79.999 164.995 79.7106 164.717 79.5035 164.372C79.2965 164.022 79.1929 163.617 79.1929 163.157C79.1929 162.787 79.262 162.452 79.4 162.152C79.543 161.847 79.7402 161.59 79.9916 161.38C80.243 161.165 80.5413 161 80.8864 160.885C81.2364 160.77 81.6185 160.712 82.0326 160.712C82.358 160.712 82.6612 160.75 82.9422 160.825C83.2232 160.895 83.4796 161 83.7113 161.14H85.7449ZM88.7996 161.852C89.1201 161.507 89.475 161.232 89.8645 161.027C90.254 160.822 90.7026 160.72 91.2104 160.72C91.6196 160.72 91.9795 160.79 92.29 160.93C92.6056 161.065 92.8668 161.26 93.0739 161.515C93.2859 161.765 93.4461 162.067 93.5546 162.422C93.663 162.777 93.7173 163.17 93.7173 163.6V168.437H92.3936V163.6C92.3936 163.025 92.2629 162.58 92.0016 162.265C91.7453 161.945 91.3533 161.785 90.8258 161.785C90.4364 161.785 90.0715 161.88 89.7314 162.07C89.3961 162.26 89.0856 162.517 88.7996 162.842V168.437H87.4759V157.39H88.7996V161.852ZM101.571 161.852C101.891 161.507 102.246 161.232 102.636 161.027C103.025 160.822 103.474 160.72 103.981 160.72C104.391 160.72 104.751 160.79 105.061 160.93C105.377 161.065 105.638 161.26 105.845 161.515C106.057 161.765 106.217 162.067 106.326 162.422C106.434 162.777 106.488 163.17 106.488 163.6V168.437H105.165V163.6C105.165 163.025 105.034 162.58 104.773 162.265C104.516 161.945 104.124 161.785 103.597 161.785C103.207 161.785 102.843 161.88 102.502 162.07C102.167 162.26 101.857 162.517 101.571 162.842V168.437H100.247V157.39H101.571V161.852ZM110.254 160.84V168.437H108.937V160.84H110.254ZM110.535 158.455C110.535 158.585 110.508 158.707 110.453 158.822C110.404 158.932 110.335 159.032 110.246 159.122C110.162 159.207 110.061 159.275 109.943 159.325C109.83 159.375 109.709 159.4 109.581 159.4C109.452 159.4 109.332 159.375 109.218 159.325C109.11 159.275 109.014 159.207 108.93 159.122C108.846 159.032 108.78 158.932 108.73 158.822C108.681 158.707 108.656 158.585 108.656 158.455C108.656 158.325 108.681 158.202 108.73 158.087C108.78 157.967 108.846 157.865 108.93 157.78C109.014 157.69 109.11 157.62 109.218 157.57C109.332 157.52 109.452 157.495 109.581 157.495C109.709 157.495 109.83 157.52 109.943 157.57C110.061 157.62 110.162 157.69 110.246 157.78C110.335 157.865 110.404 157.967 110.453 158.087C110.508 158.202 110.535 158.325 110.535 158.455ZM115.397 164.725C115.663 164.725 115.897 164.687 116.099 164.612C116.301 164.537 116.472 164.432 116.61 164.297C116.748 164.162 116.851 164.002 116.92 163.817C116.989 163.627 117.024 163.42 117.024 163.195C117.024 162.73 116.883 162.36 116.602 162.085C116.326 161.81 115.924 161.672 115.397 161.672C114.864 161.672 114.458 161.81 114.177 162.085C113.901 162.36 113.763 162.73 113.763 163.195C113.763 163.42 113.797 163.627 113.866 163.817C113.94 164.002 114.046 164.162 114.184 164.297C114.322 164.432 114.492 164.537 114.694 164.612C114.896 164.687 115.131 164.725 115.397 164.725ZM117.771 168.85C117.771 168.665 117.719 168.515 117.615 168.4C117.512 168.285 117.371 168.195 117.194 168.13C117.021 168.065 116.819 168.02 116.587 167.995C116.356 167.965 116.109 167.942 115.848 167.927C115.592 167.912 115.33 167.897 115.064 167.882C114.798 167.867 114.541 167.842 114.295 167.807C114.019 167.937 113.792 168.102 113.615 168.302C113.442 168.497 113.356 168.727 113.356 168.992C113.356 169.162 113.398 169.32 113.482 169.465C113.57 169.615 113.703 169.742 113.881 169.847C114.058 169.957 114.28 170.042 114.546 170.102C114.818 170.167 115.136 170.2 115.5 170.2C115.855 170.2 116.173 170.167 116.454 170.102C116.735 170.037 116.972 169.945 117.164 169.825C117.361 169.705 117.512 169.562 117.615 169.397C117.719 169.232 117.771 169.05 117.771 168.85ZM119.109 161.14V161.635C119.109 161.8 119.006 161.905 118.798 161.95L117.948 162.062C118.116 162.392 118.2 162.757 118.2 163.157C118.2 163.527 118.128 163.865 117.985 164.17C117.847 164.47 117.655 164.727 117.408 164.942C117.162 165.157 116.866 165.322 116.521 165.437C116.176 165.552 115.801 165.61 115.397 165.61C115.047 165.61 114.716 165.567 114.406 165.482C114.248 165.582 114.127 165.69 114.044 165.805C113.96 165.915 113.918 166.027 113.918 166.142C113.918 166.322 113.989 166.46 114.132 166.555C114.28 166.645 114.472 166.71 114.709 166.75C114.946 166.79 115.214 166.815 115.515 166.825C115.821 166.835 116.131 166.852 116.447 166.877C116.767 166.897 117.078 166.935 117.379 166.99C117.684 167.045 117.955 167.135 118.192 167.26C118.429 167.385 118.619 167.557 118.762 167.777C118.909 167.997 118.983 168.282 118.983 168.632C118.983 168.957 118.902 169.272 118.739 169.577C118.582 169.882 118.352 170.152 118.052 170.387C117.751 170.627 117.381 170.817 116.942 170.957C116.509 171.102 116.018 171.175 115.471 171.175C114.924 171.175 114.445 171.12 114.036 171.01C113.627 170.9 113.287 170.752 113.016 170.567C112.744 170.382 112.54 170.167 112.402 169.922C112.269 169.682 112.202 169.43 112.202 169.165C112.202 168.79 112.318 168.472 112.55 168.212C112.781 167.952 113.099 167.745 113.504 167.59C113.282 167.49 113.104 167.357 112.971 167.192C112.843 167.022 112.779 166.795 112.779 166.51C112.779 166.4 112.799 166.287 112.838 166.172C112.878 166.052 112.937 165.935 113.016 165.82C113.099 165.7 113.201 165.587 113.319 165.482C113.437 165.377 113.575 165.285 113.733 165.205C113.363 164.995 113.075 164.717 112.868 164.372C112.661 164.022 112.557 163.617 112.557 163.157C112.557 162.787 112.626 162.452 112.764 162.152C112.907 161.847 113.104 161.59 113.356 161.38C113.607 161.165 113.905 161 114.251 160.885C114.601 160.77 114.983 160.712 115.397 160.712C115.722 160.712 116.025 160.75 116.306 160.825C116.587 160.895 116.844 161 117.075 161.14H119.109ZM122.164 161.852C122.484 161.507 122.839 161.232 123.229 161.027C123.618 160.822 124.067 160.72 124.575 160.72C124.984 160.72 125.344 160.79 125.654 160.93C125.97 161.065 126.231 161.26 126.438 161.515C126.65 161.765 126.81 162.067 126.919 162.422C127.027 162.777 127.081 163.17 127.081 163.6V168.437H125.758V163.6C125.758 163.025 125.627 162.58 125.366 162.265C125.109 161.945 124.718 161.785 124.19 161.785C123.801 161.785 123.436 161.88 123.096 162.07C122.76 162.26 122.45 162.517 122.164 162.842V168.437H120.84V157.39H122.164V161.852ZM134.471 163.81C134.471 163.5 134.427 163.217 134.338 162.962C134.254 162.702 134.128 162.48 133.961 162.295C133.798 162.105 133.598 161.96 133.362 161.86C133.125 161.755 132.856 161.702 132.556 161.702C131.925 161.702 131.424 161.89 131.054 162.265C130.69 162.635 130.463 163.15 130.374 163.81H134.471ZM135.536 167.372C135.373 167.572 135.178 167.747 134.952 167.897C134.725 168.042 134.481 168.162 134.219 168.257C133.963 168.352 133.697 168.422 133.421 168.467C133.145 168.517 132.871 168.542 132.6 168.542C132.082 168.542 131.604 168.455 131.165 168.28C130.731 168.1 130.354 167.84 130.034 167.5C129.718 167.155 129.472 166.73 129.294 166.225C129.117 165.72 129.028 165.14 129.028 164.485C129.028 163.955 129.107 163.46 129.265 163C129.428 162.54 129.659 162.142 129.96 161.807C130.261 161.467 130.628 161.202 131.062 161.012C131.496 160.817 131.984 160.72 132.526 160.72C132.975 160.72 133.389 160.797 133.768 160.952C134.153 161.102 134.483 161.322 134.759 161.612C135.04 161.897 135.26 162.252 135.417 162.677C135.575 163.097 135.654 163.577 135.654 164.117C135.654 164.327 135.632 164.467 135.588 164.537C135.543 164.607 135.459 164.642 135.336 164.642H130.33C130.344 165.122 130.409 165.54 130.522 165.895C130.64 166.25 130.803 166.547 131.01 166.787C131.217 167.022 131.464 167.2 131.75 167.32C132.035 167.435 132.356 167.492 132.711 167.492C133.041 167.492 133.325 167.455 133.561 167.38C133.803 167.3 134.01 167.215 134.182 167.125C134.355 167.035 134.498 166.952 134.611 166.877C134.73 166.797 134.831 166.757 134.915 166.757C135.023 166.757 135.107 166.8 135.166 166.885L135.536 167.372ZM142.003 162.092C141.944 162.202 141.853 162.257 141.73 162.257C141.656 162.257 141.572 162.23 141.478 162.175C141.385 162.12 141.269 162.06 141.131 161.995C140.998 161.925 140.837 161.862 140.65 161.807C140.463 161.747 140.241 161.717 139.984 161.717C139.763 161.717 139.563 161.747 139.385 161.807C139.208 161.862 139.055 161.94 138.927 162.04C138.804 162.14 138.708 162.257 138.639 162.392C138.574 162.522 138.542 162.665 138.542 162.82C138.542 163.015 138.597 163.177 138.705 163.307C138.819 163.437 138.966 163.55 139.149 163.645C139.331 163.74 139.538 163.825 139.77 163.9C140.002 163.97 140.238 164.047 140.48 164.132C140.726 164.212 140.965 164.302 141.197 164.402C141.429 164.502 141.636 164.627 141.818 164.777C142.001 164.927 142.146 165.112 142.255 165.332C142.368 165.547 142.425 165.807 142.425 166.112C142.425 166.462 142.363 166.787 142.24 167.087C142.117 167.382 141.934 167.64 141.693 167.86C141.451 168.075 141.155 168.245 140.805 168.37C140.455 168.495 140.051 168.557 139.592 168.557C139.07 168.557 138.597 168.472 138.173 168.302C137.749 168.127 137.389 167.905 137.093 167.635L137.404 167.125C137.443 167.06 137.49 167.01 137.544 166.975C137.598 166.94 137.667 166.922 137.751 166.922C137.84 166.922 137.934 166.957 138.032 167.027C138.131 167.097 138.249 167.175 138.387 167.26C138.53 167.345 138.703 167.422 138.905 167.492C139.107 167.562 139.358 167.597 139.659 167.597C139.915 167.597 140.14 167.565 140.332 167.5C140.524 167.43 140.684 167.337 140.813 167.222C140.941 167.107 141.035 166.975 141.094 166.825C141.158 166.675 141.19 166.515 141.19 166.345C141.19 166.135 141.133 165.962 141.02 165.827C140.911 165.687 140.766 165.57 140.583 165.475C140.401 165.375 140.191 165.29 139.955 165.22C139.723 165.145 139.484 165.067 139.238 164.987C138.996 164.907 138.757 164.817 138.52 164.717C138.289 164.612 138.081 164.482 137.899 164.327C137.717 164.172 137.569 163.982 137.455 163.757C137.347 163.527 137.293 163.25 137.293 162.925C137.293 162.635 137.352 162.357 137.47 162.092C137.588 161.822 137.761 161.587 137.988 161.387C138.215 161.182 138.493 161.02 138.823 160.9C139.154 160.78 139.531 160.72 139.955 160.72C140.448 160.72 140.889 160.8 141.279 160.96C141.673 161.115 142.013 161.33 142.299 161.605L142.003 162.092ZM146.708 168.557C146.117 168.557 145.661 168.39 145.34 168.055C145.025 167.72 144.867 167.237 144.867 166.607V161.957H143.965C143.886 161.957 143.819 161.935 143.765 161.89C143.711 161.84 143.684 161.765 143.684 161.665V161.132L144.911 160.975L145.215 158.627C145.229 158.552 145.261 158.492 145.311 158.447C145.365 158.397 145.434 158.372 145.518 158.372H146.183V160.99H148.35V161.957H146.183V166.517C146.183 166.837 146.26 167.075 146.413 167.23C146.565 167.385 146.763 167.462 147.004 167.462C147.142 167.462 147.26 167.445 147.359 167.41C147.463 167.37 147.551 167.327 147.625 167.282C147.699 167.237 147.761 167.197 147.81 167.162C147.864 167.122 147.911 167.102 147.951 167.102C148.02 167.102 148.081 167.145 148.136 167.23L148.52 167.867C148.293 168.082 148.02 168.252 147.699 168.377C147.379 168.497 147.048 168.557 146.708 168.557ZM47.317 183.185C47.317 182.875 47.2726 182.592 47.1839 182.337C47.1001 182.077 46.9743 181.855 46.8067 181.67C46.644 181.48 46.4444 181.335 46.2077 181.235C45.9711 181.13 45.7024 181.077 45.4017 181.077C44.7706 181.077 44.2703 181.265 43.9005 181.64C43.5357 182.01 43.3089 182.525 43.2202 183.185H47.317ZM48.3819 186.747C48.2192 186.947 48.0244 187.122 47.7977 187.272C47.5709 187.417 47.3268 187.537 47.0655 187.632C46.8092 187.727 46.543 187.797 46.2669 187.842C45.9908 187.892 45.7172 187.917 45.4461 187.917C44.9284 187.917 44.4502 187.83 44.0114 187.655C43.5776 187.475 43.2005 187.215 42.88 186.875C42.5645 186.53 42.318 186.105 42.1405 185.6C41.963 185.095 41.8743 184.515 41.8743 183.86C41.8743 183.33 41.9532 182.835 42.1109 182.375C42.2736 181.915 42.5053 181.517 42.8061 181.182C43.1068 180.842 43.4741 180.577 43.9079 180.387C44.3417 180.192 44.8298 180.095 45.3721 180.095C45.8207 180.095 46.2348 180.172 46.6145 180.327C46.999 180.477 47.3293 180.697 47.6054 180.987C47.8864 181.272 48.1058 181.627 48.2635 182.052C48.4213 182.472 48.5002 182.952 48.5002 183.492C48.5002 183.702 48.478 183.842 48.4336 183.912C48.3892 183.982 48.3054 184.017 48.1822 184.017H43.1758C43.1906 184.497 43.2547 184.915 43.3681 185.27C43.4864 185.625 43.6491 185.922 43.8561 186.162C44.0632 186.397 44.3097 186.575 44.5956 186.695C44.8816 186.81 45.202 186.867 45.557 186.867C45.8873 186.867 46.1708 186.83 46.4074 186.755C46.649 186.675 46.856 186.59 47.0286 186.5C47.2011 186.41 47.3441 186.327 47.4575 186.252C47.5758 186.172 47.6769 186.132 47.7607 186.132C47.8691 186.132 47.9529 186.175 48.0121 186.26L48.3819 186.747ZM50.9174 187.812V181.355L50.0892 181.257C49.9807 181.232 49.8944 181.195 49.8303 181.145C49.7663 181.09 49.7342 181.012 49.7342 180.912V180.365H50.9174V179.742C50.9174 179.307 50.9766 178.922 51.0949 178.587C51.2181 178.247 51.3907 177.962 51.6125 177.732C51.8344 177.497 52.1031 177.32 52.4186 177.2C52.7341 177.08 53.0891 177.02 53.4835 177.02C53.8187 177.02 54.1293 177.07 54.4152 177.17L54.3782 177.845C54.3684 177.965 54.3043 178.03 54.186 178.04C54.0677 178.05 53.905 178.055 53.6979 178.055C53.4711 178.055 53.2641 178.085 53.0767 178.145C52.8943 178.2 52.7366 178.295 52.6035 178.43C52.4753 178.565 52.3742 178.745 52.3003 178.97C52.2312 179.19 52.1967 179.462 52.1967 179.787V180.365H55.5762V179.945C55.5762 179.48 55.6477 179.055 55.7907 178.67C55.9336 178.28 56.1481 177.945 56.434 177.665C56.72 177.385 57.0749 177.167 57.4989 177.012C57.9278 176.857 58.4233 176.78 58.9853 176.78C59.1726 176.78 59.3649 176.792 59.5621 176.817C59.7593 176.842 59.9294 176.88 60.0724 176.93L60.0206 177.627C60.0157 177.677 59.9959 177.712 59.9614 177.732C59.9319 177.752 59.8899 177.765 59.8357 177.77C59.7815 177.775 59.7125 177.777 59.6287 177.777C59.5498 177.772 59.4586 177.77 59.355 177.77C58.4775 177.77 57.8415 177.955 57.4472 178.325C57.0528 178.69 56.8556 179.242 56.8556 179.982V180.365H61.3813V187.812H60.0576V181.332H56.8925V187.812H55.5762V181.332H52.2337V187.812H50.9174ZM69.1266 181.565C69.0871 181.62 69.0477 181.662 69.0082 181.692C68.9689 181.722 68.9147 181.737 68.8457 181.737C68.7717 181.737 68.6904 181.707 68.6016 181.647C68.5129 181.582 68.402 181.512 68.2689 181.437C68.1407 181.362 67.9805 181.295 67.7882 181.235C67.6009 181.17 67.3691 181.137 67.0931 181.137C66.7233 181.137 66.3979 181.205 66.1169 181.34C65.8359 181.47 65.5993 181.66 65.407 181.91C65.2197 182.16 65.0767 182.462 64.9781 182.817C64.8844 183.172 64.8376 183.57 64.8376 184.01C64.8376 184.47 64.8894 184.88 64.9929 185.24C65.0964 185.595 65.2419 185.895 65.4292 186.14C65.6215 186.38 65.8507 186.565 66.1169 186.695C66.3881 186.82 66.6913 186.882 67.0265 186.882C67.347 186.882 67.6107 186.845 67.8178 186.77C68.0248 186.69 68.1949 186.602 68.328 186.507C68.4661 186.412 68.5795 186.327 68.6682 186.252C68.7619 186.172 68.8531 186.132 68.9418 186.132C69.0501 186.132 69.134 186.175 69.1931 186.26L69.5629 186.747C69.4002 186.952 69.2153 187.127 69.0082 187.272C68.8013 187.417 68.577 187.54 68.3354 187.64C68.0988 187.735 67.8498 187.805 67.5885 187.85C67.3272 187.895 67.061 187.917 66.7899 187.917C66.3215 187.917 65.8852 187.83 65.481 187.655C65.0816 187.48 64.7341 187.227 64.4383 186.897C64.1425 186.562 63.9108 186.152 63.7432 185.667C63.5755 185.182 63.4917 184.63 63.4917 184.01C63.4917 183.445 63.5681 182.922 63.721 182.442C63.8787 181.962 64.1055 181.55 64.4013 181.205C64.702 180.855 65.0693 180.582 65.5032 180.387C65.9419 180.192 66.4448 180.095 67.0117 180.095C67.5392 180.095 68.0027 180.182 68.402 180.357C68.8062 180.527 69.1635 180.77 69.4741 181.085L69.1266 181.565ZM72.7359 180.215V187.812H71.4196V180.215H72.7359ZM73.0169 177.83C73.0169 177.96 72.9898 178.082 72.9356 178.197C72.8863 178.307 72.8173 178.407 72.7285 178.497C72.6447 178.582 72.5436 178.65 72.4253 178.7C72.3119 178.75 72.1912 178.775 72.063 178.775C71.9348 178.775 71.814 178.75 71.7006 178.7C71.5922 178.65 71.496 178.582 71.4122 178.497C71.3284 178.407 71.2619 178.307 71.2126 178.197C71.1632 178.082 71.1386 177.96 71.1386 177.83C71.1386 177.7 71.1632 177.577 71.2126 177.462C71.2619 177.342 71.3284 177.24 71.4122 177.155C71.496 177.065 71.5922 176.995 71.7006 176.945C71.814 176.895 71.9348 176.87 72.063 176.87C72.1912 176.87 72.3119 176.895 72.4253 176.945C72.5436 176.995 72.6447 177.065 72.7285 177.155C72.8173 177.24 72.8863 177.342 72.9356 177.462C72.9898 177.577 73.0169 177.7 73.0169 177.83ZM80.2825 183.185C80.2825 182.875 80.2381 182.592 80.1494 182.337C80.0656 182.077 79.9398 181.855 79.7722 181.67C79.6095 181.48 79.4099 181.335 79.1732 181.235C78.9366 181.13 78.6679 181.077 78.3672 181.077C77.7361 181.077 77.2357 181.265 76.866 181.64C76.5012 182.01 76.2744 182.525 76.1857 183.185H80.2825ZM81.3473 186.747C81.1847 186.947 80.9899 187.122 80.7631 187.272C80.5364 187.417 80.2923 187.537 80.031 187.632C79.7747 187.727 79.5085 187.797 79.2324 187.842C78.9563 187.892 78.6827 187.917 78.4115 187.917C77.8939 187.917 77.4157 187.83 76.9769 187.655C76.5431 187.475 76.1659 187.215 75.8455 186.875C75.53 186.53 75.2835 186.105 75.106 185.6C74.9285 185.095 74.8398 184.515 74.8398 183.86C74.8398 183.33 74.9187 182.835 75.0764 182.375C75.2391 181.915 75.4708 181.517 75.7715 181.182C76.0723 180.842 76.4396 180.577 76.8734 180.387C77.3072 180.192 77.7953 180.095 78.3376 180.095C78.7862 180.095 79.2003 180.172 79.5799 180.327C79.9645 180.477 80.2948 180.697 80.5709 180.987C80.8519 181.272 81.0713 181.627 81.229 182.052C81.3868 182.472 81.4657 182.952 81.4657 183.492C81.4657 183.702 81.4435 183.842 81.3991 183.912C81.3547 183.982 81.2709 184.017 81.1477 184.017H76.1413C76.1561 184.497 76.2202 184.915 76.3336 185.27C76.4519 185.625 76.6146 185.922 76.8216 186.162C77.0287 186.397 77.2752 186.575 77.5611 186.695C77.8471 186.81 78.1675 186.867 78.5225 186.867C78.8528 186.867 79.1363 186.83 79.3729 186.755C79.6145 186.675 79.8215 186.59 79.9941 186.5C80.1666 186.41 80.3096 186.327 80.423 186.252C80.5413 186.172 80.6424 186.132 80.7262 186.132C80.8346 186.132 80.9184 186.175 80.9776 186.26L81.3473 186.747ZM84.6942 181.317C84.8569 181.132 85.0294 180.965 85.2118 180.815C85.3942 180.665 85.5865 180.537 85.7886 180.432C85.9957 180.322 86.2126 180.24 86.4394 180.185C86.6711 180.125 86.9201 180.095 87.1863 180.095C87.5955 180.095 87.9554 180.165 88.2659 180.305C88.5815 180.44 88.8427 180.635 89.0498 180.89C89.2618 181.14 89.422 181.442 89.5305 181.797C89.6389 182.152 89.6932 182.545 89.6932 182.975V187.812H88.3695V182.975C88.3695 182.4 88.2388 181.955 87.9775 181.64C87.7212 181.32 87.3292 181.16 86.8017 181.16C86.4123 181.16 86.0475 181.255 85.7073 181.445C85.3721 181.635 85.0615 181.892 84.7755 182.217V187.812H83.4518V180.215H84.2431C84.4304 180.215 84.5463 180.307 84.5907 180.492L84.6942 181.317ZM97.2822 181.565C97.2428 181.62 97.2034 181.662 97.1639 181.692C97.1245 181.722 97.0703 181.737 97.0012 181.737C96.9273 181.737 96.8459 181.707 96.7572 181.647C96.6685 181.582 96.5575 181.512 96.4244 181.437C96.2963 181.362 96.136 181.295 95.9438 181.235C95.7564 181.17 95.5247 181.137 95.2486 181.137C94.8789 181.137 94.5535 181.205 94.2725 181.34C93.9915 181.47 93.7548 181.66 93.5626 181.91C93.3752 182.16 93.2323 182.462 93.1337 182.817C93.04 183.172 92.9932 183.57 92.9932 184.01C92.9932 184.47 93.0449 184.88 93.1485 185.24C93.252 185.595 93.3974 185.895 93.5848 186.14C93.777 186.38 94.0063 186.565 94.2725 186.695C94.5436 186.82 94.8468 186.882 95.1821 186.882C95.5025 186.882 95.7663 186.845 95.9733 186.77C96.1804 186.69 96.3505 186.602 96.4836 186.507C96.6216 186.412 96.735 186.327 96.8238 186.252C96.9174 186.172 97.0086 186.132 97.0974 186.132C97.2058 186.132 97.2896 186.175 97.3488 186.26L97.7186 186.747C97.5559 186.952 97.371 187.127 97.1639 187.272C96.9569 187.417 96.7326 187.54 96.491 187.64C96.2543 187.735 96.0054 187.805 95.7441 187.85C95.4828 187.895 95.2166 187.917 94.9454 187.917C94.4771 187.917 94.0408 187.83 93.6365 187.655C93.2372 187.48 92.8896 187.227 92.5938 186.897C92.298 186.562 92.0663 186.152 91.8987 185.667C91.7311 185.182 91.6473 184.63 91.6473 184.01C91.6473 183.445 91.7237 182.922 91.8765 182.442C92.0343 181.962 92.2611 181.55 92.5569 181.205C92.8576 180.855 93.2249 180.582 93.6587 180.387C94.0975 180.192 94.6003 180.095 95.1673 180.095C95.6948 180.095 96.1582 180.182 96.5575 180.357C96.9618 180.527 97.3192 180.77 97.6298 181.085L97.2822 181.565ZM105.965 180.215L101.786 190.055C101.742 190.155 101.685 190.235 101.616 190.295C101.552 190.355 101.451 190.385 101.313 190.385H100.337L101.705 187.37L98.614 180.215H99.7528C99.8662 180.215 99.9549 180.245 100.019 180.305C100.088 180.36 100.135 180.422 100.16 180.492L102.164 185.277C102.242 185.487 102.309 185.707 102.363 185.937C102.432 185.702 102.506 185.48 102.585 185.27L104.53 180.492C104.56 180.412 104.609 180.347 104.678 180.297C104.752 180.242 104.833 180.215 104.922 180.215H105.965Z" fill="white"/>
</g>
<defs>
<filter id="filter0_d_800_2518" x="0" y="0" width="234.734" height="237.5" filterUnits="userSpaceOnUse" color-interpolation-filters="sRGB">
<feFlood flood-opacity="0" result="BackgroundImageFix"/>
<feColorMatrix in="SourceAlpha" type="matrix" values="0 0 0 0 0 0 0 0 0 0 0 0 0 0 0 0 0 0 127 0" result="hardAlpha"/>
<feOffset dy="5"/>
<feGaussianBlur stdDeviation="10"/>
<feComposite in2="hardAlpha" operator="out"/>
<feColorMatrix type="matrix" values="0 0 0 0 0 0 0 0 0 0 0 0 0 0 0 0 0 0 0.15 0"/>
<feBlend mode="normal" in2="BackgroundImageFix" result="effect1_dropShadow_800_2518"/>
<feBlend mode="normal" in="SourceGraphic" in2="effect1_dropShadow_800_2518" result="shape"/>
</filter>
</defs>
</svg>
