<svg width="80" height="80" viewBox="0 0 80 80" fill="none" xmlns="http://www.w3.org/2000/svg">
<g id="Frame 38">
<g id="Vector">
<path d="M61.5269 36.244C61.2924 35.7654 60.8045 35.4652 60.2697 35.4652H45.7089L52.8111 1.69338C52.9424 1.04591 52.6141 0.398437 52.023 0.126311C51.4225 -0.145815 50.7189 0.0324748 50.3155 0.55796L18.6138 42.2871C18.2948 42.7093 18.2385 43.2818 18.4731 43.7603C18.7076 44.2389 19.1955 44.5392 19.7303 44.5392H34.2911L27.1889 78.3016C27.0576 78.949 27.386 79.5965 27.977 79.8686C28.1647 79.9531 28.3617 80 28.5587 80C28.9903 80 29.4031 79.8029 29.6752 79.4464L61.3674 37.7172C61.6864 37.295 61.7427 36.7226 61.5082 36.244H61.5269ZM31.2326 72.7652L37.4059 43.4319C37.4903 43.019 37.3871 42.5874 37.1244 42.2589C36.8617 41.9305 36.4583 41.7428 36.0361 41.7428H22.573L48.7674 7.23912L42.5941 36.5818C42.5097 36.9947 42.6129 37.4263 42.8756 37.7548C43.1477 38.0832 43.5417 38.2709 43.9733 38.2709H57.4364L31.2419 72.7558L31.2326 72.7652Z" fill="#82AFB8"/>
<path d="M55.0346 12.0717C54.3497 11.7057 53.496 11.9591 53.1301 12.6441C52.7642 13.3291 53.0175 14.183 53.7024 14.549C63.0749 19.6068 68.9011 29.3564 68.9011 40.0069C68.9011 55.4148 56.8641 68.1015 41.4964 68.8804C40.7177 68.9179 40.1267 69.5841 40.1642 70.3536C40.2017 71.1043 40.8209 71.6861 41.5715 71.6861C41.5996 71.6861 41.6184 71.6861 41.6465 71.6861C58.5059 70.8228 71.7157 56.9068 71.7157 39.9975C71.7157 28.3148 65.3266 17.6081 55.0346 12.0623V12.0717Z" fill="#6D6E71"/>
<path d="M26.307 65.4741C16.9251 60.4163 11.0989 50.6573 11.0989 40.0069C11.0989 24.6083 23.1359 11.931 38.5036 11.1427C39.2823 11.1052 39.8733 10.439 39.8358 9.66011C39.7983 8.88126 39.1228 8.28071 38.3535 8.32763C21.4941 9.20031 8.28427 23.1069 8.28427 40.0069C8.28427 51.6895 14.6828 62.3963 24.9748 67.9514C25.1906 68.064 25.4157 68.1203 25.6409 68.1203C26.1382 68.1203 26.626 67.8482 26.8793 67.379C27.2452 66.694 26.9919 65.8401 26.307 65.4741Z" fill="#6D6E71"/>
<path d="M21.2971 10.4108C21.5598 10.8612 22.0289 11.1146 22.5167 11.1146C22.7513 11.1146 22.9952 11.0583 23.2204 10.9269C23.8959 10.5422 24.121 9.67887 23.7364 9.00325L21.9256 5.87849C21.541 5.20287 20.6778 4.97766 20.0023 5.36239C19.3268 5.74712 19.1017 6.61042 19.4863 7.28604L21.2971 10.4108Z" fill="#6D6E71"/>
<path d="M5.88249 21.9245L9.00669 23.7262C9.23185 23.8576 9.4664 23.9139 9.71033 23.9139C10.1982 23.9139 10.6673 23.6605 10.93 23.2101C11.3146 22.5345 11.0895 21.6806 10.414 21.2865L7.28979 19.4848C6.61428 19.1001 5.75114 19.3253 5.36648 20.0009C4.98182 20.6765 5.20699 21.5304 5.88249 21.9245Z" fill="#6D6E71"/>
<path d="M6.42665 40.0069C6.42665 39.228 5.79805 38.5993 5.01935 38.5993H1.40729C0.628592 38.5993 0 39.228 0 40.0069C0 40.7857 0.628592 41.4144 1.40729 41.4144H5.01935C5.79805 41.4144 6.42665 40.7857 6.42665 40.0069Z" fill="#6D6E71"/>
<path d="M9.00669 56.2781L5.88249 58.0798C5.20699 58.4645 4.98182 59.3278 5.36648 60.0034C5.62918 60.4538 6.09828 60.7072 6.58614 60.7072C6.82069 60.7072 7.06462 60.6509 7.28979 60.5195L10.414 58.7179C11.0895 58.3331 11.3146 57.4698 10.93 56.7942C10.5453 56.1186 9.68219 55.8934 9.00669 56.2781Z" fill="#6D6E71"/>
<path d="M58.7123 69.6029C58.3277 68.9273 57.4645 68.7021 56.789 69.0868C56.1135 69.4715 55.8884 70.3348 56.273 71.0105L58.0744 74.1352C58.3371 74.5856 58.8061 74.839 59.294 74.839C59.5286 74.839 59.7725 74.7827 59.9977 74.6513C60.6732 74.2666 60.8983 73.4033 60.5137 72.7277L58.7123 69.6029Z" fill="#6D6E71"/>
<path d="M74.1269 58.0892L71.0027 56.2875C70.3272 55.8934 69.4734 56.128 69.0794 56.8036C68.6947 57.4792 68.9199 58.3331 69.5954 58.7273L72.7196 60.5289C72.9448 60.6603 73.1793 60.7166 73.4232 60.7166C73.9111 60.7166 74.3802 60.4632 74.6429 60.0128C75.0276 59.3372 74.8024 58.4833 74.1269 58.0892Z" fill="#6D6E71"/>
<path d="M78.5927 38.5993H74.9807C74.202 38.5993 73.5734 39.228 73.5734 40.0069C73.5734 40.7857 74.202 41.4144 74.9807 41.4144H78.5927C79.3714 41.4144 80 40.7857 80 40.0069C80 39.228 79.3714 38.5993 78.5927 38.5993Z" fill="#6D6E71"/>
<path d="M70.299 23.9233C70.5336 23.9233 70.7775 23.867 71.0027 23.7356L74.1269 21.9339C74.8024 21.5492 75.0276 20.6859 74.6429 20.0103C74.2582 19.3347 73.3951 19.1094 72.7196 19.4942L69.5954 21.2958C68.9199 21.6806 68.6947 22.5439 69.0794 23.2195C69.3421 23.6699 69.8112 23.9233 70.299 23.9233Z" fill="#6D6E71"/>
</g>
</g>
</svg>
