<svg width="70" height="70" viewBox="0 0 70 70" fill="none" xmlns="http://www.w3.org/2000/svg">
<g id="Vector">
<path d="M23.9596 33.6637C24.6379 33.6637 25.1854 33.111 25.1854 32.4263V23.5671C25.1854 22.8824 24.6379 22.3297 23.9596 22.3297H22.3008V9.31299C22.3008 8.62833 21.7533 8.07565 21.0751 8.07565H17.9862C17.308 8.07565 16.7605 8.62833 16.7605 9.31299V22.3297H11.1221L10.7707 20.6634L11.9638 14.782C12.0373 14.419 11.9474 14.0396 11.7104 13.7509C11.4735 13.4622 11.1303 13.2972 10.7625 13.2972H2.46841C2.10069 13.2972 1.74931 13.4622 1.5205 13.7509C1.2917 14.0396 1.19364 14.419 1.26719 14.782L2.46841 20.6634L0.0251077 32.1706C-0.0484364 32.5336 0.0414508 32.913 0.270255 33.21C0.499058 33.4987 0.850436 33.6719 1.22633 33.6719H23.9596V33.6637ZM19.2119 10.5503H19.8493V22.3297H19.2119V10.5503ZM22.7339 24.8044V31.189H13.0016L11.6451 24.8044H22.7339ZM2.73807 31.189L4.9117 20.9274C4.94439 20.7624 4.94439 20.5892 4.9117 20.416L3.9638 15.7636H9.25081L8.31108 20.416C8.27839 20.581 8.27839 20.7542 8.31108 20.9192L10.4847 31.1725H2.73807V31.189Z" fill="#6D6E71"/>
<path d="M41.8554 62.7492H53.0177C53.696 62.7492 54.2434 62.1966 54.2434 61.5119V53.692C54.2434 53.692 54.2434 53.659 54.2434 53.6425C54.2434 53.6012 54.2434 53.5517 54.2271 53.5105C54.2271 53.4692 54.2189 53.4362 54.2026 53.395C54.1944 53.3538 54.1781 53.3125 54.1699 53.2795C54.1536 53.2465 54.1454 53.2053 54.129 53.1723C54.1127 53.1393 54.0964 53.098 54.0718 53.065C54.0473 53.0321 54.031 52.9991 54.0065 52.9661C53.982 52.9331 53.9574 52.9083 53.9329 52.8753C53.9002 52.8423 53.8757 52.8093 53.843 52.7763C53.8267 52.7681 53.8185 52.7516 53.8103 52.7433L52.8298 51.9184C52.8379 51.8607 52.8461 51.803 52.8461 51.737V48.6601C52.8461 47.9755 52.2986 47.4228 51.6204 47.4228C50.9421 47.4228 50.3946 47.9755 50.3946 48.6601V49.8727L48.2292 48.0497C47.7716 47.6703 47.1178 47.6703 46.6602 48.0497L41.0709 52.7516C41.0709 52.7516 41.0464 52.7763 41.03 52.7928C40.9973 52.8176 40.9728 52.8506 40.9483 52.8836C40.9238 52.9166 40.8911 52.9413 40.8748 52.9743C40.8503 53.0073 40.8339 53.0403 40.8094 53.0733C40.7849 53.1063 40.7685 53.1475 40.7522 53.1805C40.7358 53.2135 40.7195 53.2548 40.7113 53.2878C40.695 53.329 40.6868 53.362 40.6786 53.4032C40.6705 53.4445 40.6623 53.4775 40.6541 53.5187C40.6541 53.56 40.646 53.6012 40.6378 53.6507C40.6378 53.6672 40.6378 53.6837 40.6378 53.7002V61.5202C40.6378 62.2048 41.1853 62.7575 41.8635 62.7575L41.8554 62.7492ZM47.4365 50.6069L51.792 54.2776V60.2746H43.0811V54.2776L47.4365 50.6069Z" fill="#6D6E71"/>
<path d="M26.5418 62.7492H37.7042C38.3824 62.7492 38.9299 62.1966 38.9299 61.5119V53.692C38.9299 53.692 38.9299 53.659 38.9299 53.6425C38.9299 53.6012 38.9299 53.5517 38.9136 53.5105C38.9136 53.4692 38.9054 53.4362 38.8891 53.395C38.8809 53.3538 38.8646 53.3125 38.8564 53.2795C38.84 53.2465 38.8319 53.2053 38.8155 53.1723C38.7992 53.1393 38.7828 53.098 38.7583 53.065C38.7338 53.0321 38.7175 52.9991 38.693 52.9661C38.6684 52.9331 38.6439 52.9083 38.6194 52.8753C38.5867 52.8423 38.5622 52.8093 38.5295 52.7763C38.5132 52.7681 38.505 52.7516 38.4968 52.7433L37.5163 51.9184C37.5244 51.8607 37.5326 51.803 37.5326 51.737V48.6601C37.5326 47.9755 36.9851 47.4228 36.3069 47.4228C35.6286 47.4228 35.0811 47.9755 35.0811 48.6601V49.8727L32.9157 48.0497C32.4581 47.6703 31.7962 47.6703 31.3467 48.0497L25.7655 52.7516C25.7655 52.7516 25.741 52.7763 25.7247 52.7928C25.692 52.8176 25.6675 52.8506 25.643 52.8836C25.6185 52.9166 25.5858 52.9413 25.5694 52.9743C25.5449 53.0073 25.5286 53.0403 25.504 53.0733C25.4795 53.1063 25.4632 53.1475 25.4468 53.1805C25.4305 53.2135 25.4142 53.2548 25.406 53.2878C25.3896 53.329 25.3815 53.362 25.3733 53.4032C25.3651 53.4445 25.357 53.4775 25.3488 53.5187C25.3488 53.56 25.3406 53.6012 25.3324 53.6507C25.3324 53.6672 25.3324 53.6837 25.3324 53.7002V61.5202C25.3324 62.2048 25.8799 62.7575 26.5582 62.7575L26.5418 62.7492ZM32.123 50.6069L36.4785 54.2776V60.2746H27.7676V54.2776L32.123 50.6069Z" fill="#6D6E71"/>
<path d="M6.17013 10.5751C6.26001 10.5751 6.3499 10.5668 6.43979 10.5421C7.10168 10.3936 7.51843 9.73368 7.37135 9.06552C7.355 9.00778 7.355 8.94179 7.355 8.87579C7.355 8.27363 7.8453 7.77869 8.44182 7.77869C8.75234 7.77869 8.97297 7.90243 9.10372 8.00966C9.48778 8.31487 10.0271 8.38911 10.4602 8.14989C10.8933 7.91068 11.1384 7.44874 11.0894 6.95381C11.0894 6.16191 11.7268 5.5185 12.5113 5.5185C12.6992 5.5185 12.8872 5.5515 13.0588 5.62574C13.4428 5.79071 13.8923 5.74122 14.2355 5.502C14.5787 5.26279 14.7748 4.85034 14.7584 4.42965V4.28117C14.7584 3.28305 15.5593 2.47466 16.548 2.47466C17.4387 2.47466 18.1987 3.14282 18.3212 4.02545C18.4111 4.70186 19.0322 5.1638 19.7022 5.08131C20.3723 4.99057 20.8381 4.36366 20.7482 3.68725C20.4622 1.58379 18.6563 0 16.548 0C14.6359 0 13.0097 1.28683 12.4867 3.04384C10.926 3.05209 9.58584 4.00071 8.98114 5.35352C8.80954 5.32878 8.62977 5.31228 8.44999 5.31228C6.49699 5.31228 4.9117 6.91256 4.9117 8.88404C4.9117 9.13151 4.93622 9.37898 4.98525 9.60995C5.11599 10.1874 5.62263 10.5833 6.1783 10.5833L6.17013 10.5751Z" fill="#6D6E71"/>
<path d="M62.75 63.8958C62.0718 63.8958 61.5243 64.4485 61.5243 65.1332V67.5253H48.6623V65.1332C48.6623 64.4485 48.1148 63.8958 47.4365 63.8958C46.7583 63.8958 46.2108 64.4485 46.2108 65.1332V67.5253H33.3488V65.1332C33.3488 64.4485 32.8013 63.8958 32.123 63.8958C31.4448 63.8958 30.8973 64.4485 30.8973 65.1332V67.5253H12.356V49.5758L14.0312 46.6392C14.0312 46.6392 14.0475 46.5979 14.0557 46.5732C14.0802 46.5319 14.0965 46.4907 14.1129 46.4494C14.1292 46.4165 14.1374 46.3752 14.1456 46.3422C14.1537 46.301 14.1619 46.2597 14.1701 46.2267C14.1701 46.1855 14.1783 46.136 14.1864 46.0947C14.1864 46.07 14.1864 46.0452 14.1864 46.0205C14.1864 46.004 14.1864 45.9958 14.1864 45.9793C14.1864 45.938 14.1864 45.8885 14.1701 45.8473C14.1701 45.806 14.1619 45.773 14.1537 45.7318C14.1456 45.6905 14.1292 45.6576 14.1211 45.6163C14.1047 45.5751 14.0965 45.5421 14.0802 45.5091C14.0639 45.4761 14.0393 45.4348 14.023 45.4018C14.0067 45.3688 13.9821 45.3358 13.9658 45.3028C13.9413 45.2699 13.9168 45.2369 13.8841 45.2039C13.8596 45.1709 13.8351 45.1461 13.8024 45.1214C13.7779 45.0966 13.7452 45.0719 13.7125 45.0471C13.6798 45.0224 13.6389 44.9894 13.6062 44.9729C13.5981 44.9729 13.5817 44.9564 13.5736 44.9481C13.5572 44.9399 13.5327 44.9317 13.5082 44.9234C13.4673 44.9069 13.4265 44.8822 13.3856 44.8657C13.3448 44.8492 13.3121 44.8409 13.2712 44.8327C13.2304 44.8244 13.1977 44.8162 13.1568 44.8079C13.116 44.8079 13.0669 44.7997 13.0261 44.7914C13.0016 44.7914 12.9852 44.7914 12.9607 44.7914H12.3397V36.8807C12.3397 36.1961 11.7922 35.6434 11.1139 35.6434C10.4357 35.6434 9.88819 36.1961 9.88819 36.8807V44.7914H9.27532C9.27532 44.7914 9.23446 44.7914 9.20995 44.7914C9.16092 44.7914 9.12006 44.7914 9.07103 44.8079C9.03017 44.8079 8.99749 44.8244 8.9648 44.8327C8.92394 44.8409 8.88309 44.8574 8.8504 44.8657C8.80954 44.8822 8.76868 44.8987 8.72783 44.9234C8.70331 44.9317 8.68697 44.9399 8.66245 44.9481C8.65428 44.9481 8.63794 44.9646 8.62977 44.9729C8.58891 44.9976 8.55622 45.0224 8.52354 45.0554C8.49085 45.0801 8.46634 45.1049 8.44182 45.1296C8.40913 45.1544 8.38462 45.1874 8.36011 45.2204C8.33559 45.2534 8.31108 45.2781 8.28656 45.3111C8.26205 45.3441 8.2457 45.3771 8.22119 45.4183C8.20485 45.4513 8.18033 45.4843 8.16399 45.5173C8.14764 45.5586 8.1313 45.5916 8.12313 45.6328C8.11496 45.6658 8.09861 45.707 8.09044 45.74C8.08227 45.7813 8.0741 45.8225 8.0741 45.8555C8.0741 45.8968 8.06593 45.938 8.05776 45.9793C8.05776 45.9958 8.05776 46.004 8.05776 46.0205C8.05776 46.0452 8.05776 46.07 8.05776 46.0947C8.05776 46.136 8.05776 46.1772 8.0741 46.2185C8.0741 46.2597 8.09044 46.301 8.09861 46.3422C8.10679 46.3752 8.11496 46.4165 8.1313 46.4494C8.14764 46.4907 8.16399 46.5319 8.1885 46.5732C8.19667 46.5897 8.20485 46.6144 8.21302 46.6392L9.88819 49.5758V68.7627C9.88819 69.4473 10.4357 70 11.1139 70H62.7337C63.4119 70 63.9594 69.4473 63.9594 68.7627V65.1332C63.9594 64.4485 63.4119 63.8958 62.7337 63.8958H62.75Z" fill="#82AFB8"/>
<path d="M68.3312 34.3071H57.1689C56.4906 34.3071 55.9431 34.8598 55.9431 35.5444V61.5037C55.9431 62.1883 56.4906 62.741 57.1689 62.741H68.3312C69.0095 62.741 69.557 62.1883 69.557 61.5037V35.5444C69.557 34.8598 69.0095 34.3071 68.3312 34.3071ZM67.1055 60.2663H58.3946V36.7818H67.1055V60.2663Z" fill="#6D6E71"/>
<path d="M61.9002 38.2996H59.9472V40.4855H61.9002V38.2996Z" fill="#6D6E71"/>
<path d="M65.5611 38.2996H63.6081V40.4855H65.5611V38.2996Z" fill="#6D6E71"/>
<path d="M61.9002 42.3333H59.9472V44.5192H61.9002V42.3333Z" fill="#6D6E71"/>
<path d="M65.5611 42.3333H63.6081V44.5192H65.5611V42.3333Z" fill="#6D6E71"/>
<path d="M61.9002 46.367H59.9472V48.5529H61.9002V46.367Z" fill="#6D6E71"/>
<path d="M65.5611 46.367H63.6081V48.5529H65.5611V46.367Z" fill="#6D6E71"/>
<path d="M61.9002 50.3924H59.9472V52.5784H61.9002V50.3924Z" fill="#6D6E71"/>
<path d="M65.5611 50.3924H63.6081V52.5784H65.5611V50.3924Z" fill="#6D6E71"/>
<path d="M61.9002 54.4261H59.9472V56.6121H61.9002V54.4261Z" fill="#6D6E71"/>
<path d="M65.5611 54.4261H63.6081V56.6121H65.5611V54.4261Z" fill="#6D6E71"/>
</g>
</svg>
