<svg width="80" height="79" viewBox="0 0 80 79" fill="none" xmlns="http://www.w3.org/2000/svg">
<g id="Vector">
<path d="M79.2467 53.7605C77.6349 50.8011 73.9017 49.7005 70.9281 51.3097L66.3889 53.8253C60.4232 50.3387 54.6335 49.0532 49.6127 48.8589V36.6141C50.1407 36.6604 50.6688 36.6881 51.1968 36.6881C55.4673 36.6881 59.6081 35.1807 62.9151 32.3599C67.0467 28.8363 69.3533 23.6942 69.2328 18.2562C69.2236 17.5996 68.7419 17.0354 68.0842 16.9152C62.7206 15.9626 57.2829 17.4331 53.1514 20.966C51.3172 22.5289 49.8443 24.4156 48.7883 26.4965C47.7878 23.3058 45.9073 20.4296 43.295 18.1915C39.1635 14.6679 33.7258 13.1881 28.3622 14.1407C27.7138 14.2609 27.2321 14.8158 27.2135 15.4817C27.1024 20.9197 29.3997 26.0525 33.5313 29.5854C36.8383 32.4062 40.9791 33.9136 45.2496 33.9136C45.7776 33.9136 46.2964 33.8859 46.8244 33.8396V48.8589C40.3307 49.1179 35.5044 51.0508 33.9296 51.7722L28.9273 50.126L23.7583 48.4798C17.9871 46.2694 13.5499 49.0439 12.9199 49.4693L0.701374 56.4333C0.0344012 56.8125 -0.197187 57.6633 0.182617 58.3292C0.562422 58.9951 1.41466 59.2263 2.08164 58.8471L14.3465 51.8554C14.3465 51.8554 14.4299 51.8092 14.4577 51.7814C14.6059 51.6797 18.1075 49.2936 22.8319 51.1063L28.0565 52.7802L49.5479 59.8275C51.3079 60.4101 52.2621 62.306 51.6877 64.0632C51.1134 65.8111 49.2144 66.7637 47.4543 66.1903L25.9537 59.1338C25.2219 58.8934 24.4438 59.2911 24.2029 60.0217C23.9621 60.7523 24.3604 61.5292 25.0922 61.7696L46.5928 68.8261C47.2227 69.0295 47.8712 69.1313 48.5011 69.1313C51.0764 69.1313 53.4849 67.4943 54.3279 64.9325C54.4853 64.4609 54.5687 63.98 54.615 63.5083L67.0281 56.646C67.0281 56.646 67.0374 56.646 67.0467 56.646L72.262 53.7605C73.8831 52.882 75.9304 53.4831 76.8104 55.1016C77.2365 55.8877 77.3384 56.794 77.0883 57.6449C76.8382 58.4957 76.2639 59.2078 75.4579 59.6425L46.704 75.5311C46.704 75.5311 46.6577 75.5589 46.6299 75.5774C45.1014 76.4097 43.5544 75.9011 43.4432 75.8641L25.4998 70.3058C21.0718 69.011 17.4128 70.2781 17.2367 70.3428L9.61287 73.2005C8.89032 73.4688 8.52904 74.2734 8.79768 74.9855C9.06633 75.7068 9.87225 76.0675 10.5855 75.7993L18.1816 72.9508C18.1816 72.9508 21.183 71.9428 24.6939 72.9693L42.5632 78.4998C42.628 78.5183 43.4988 78.8235 44.7123 78.8235C45.685 78.8235 46.8707 78.6293 48.0565 77.9634C48.075 77.9542 48.0935 77.9357 48.112 77.9264L76.7919 62.084C78.237 61.2979 79.2838 60.0032 79.7469 58.4402C80.2101 56.868 80.0341 55.2125 79.2467 53.7791V53.7605ZM54.9485 23.0746C58.1444 20.3463 62.2667 19.0701 66.426 19.4862C66.1944 23.648 64.2954 27.5138 61.0995 30.2513C58.4409 32.5171 55.1523 33.7657 51.7341 33.8859L61.4608 25.6826C62.0444 25.1832 62.1185 24.3139 61.6275 23.7312C61.1273 23.1486 60.2565 23.0746 59.6729 23.5647L49.8999 31.8143C50.5391 28.4386 52.2899 25.3589 54.967 23.0746H54.9485ZM30.0019 16.7117C34.1519 16.2956 38.2834 17.5718 41.4794 20.3001C44.1472 22.5844 45.9073 25.6641 46.5465 29.0398L36.7735 20.7902C36.1899 20.2908 35.3099 20.3741 34.8189 20.9567C34.3279 21.5394 34.3928 22.418 34.9856 22.9081L44.7031 31.1114C41.2848 30.9912 37.9963 29.7426 35.3377 27.4768C32.1417 24.7485 30.2335 20.8735 30.0111 16.7117H30.0019ZM50.4279 57.1917L38.1723 53.1687C43.2116 51.6242 53.0588 49.9502 63.5173 55.4067L54.1426 60.5951C53.4756 59.0413 52.1695 57.7651 50.4372 57.1917H50.4279Z" fill="#6D6E71"/>
<path d="M18.932 45.0949C19.6453 44.8082 19.988 44.0036 19.7008 43.2914C18.2835 39.7771 17.5702 36.0685 17.5702 32.2674C17.5702 16.0089 30.8171 2.7745 47.1023 2.7745C63.3876 2.7745 76.6437 16.0089 76.6437 32.2674C76.6437 37.0766 75.4579 41.858 73.2069 46.0937C72.8456 46.7688 73.105 47.6104 73.7812 47.9711C73.985 48.0821 74.2074 48.1283 74.4297 48.1283C74.9299 48.1283 75.4116 47.8601 75.6617 47.3885C78.1258 42.755 79.432 37.5297 79.432 32.2674C79.4227 14.4736 64.9253 0 47.1023 0C29.2793 0 14.7912 14.4736 14.7912 32.2674C14.7912 36.4199 15.5786 40.4799 17.1256 44.3273C17.4128 45.0394 18.2187 45.3816 18.932 45.0949Z" fill="#82AFB8"/>
</g>
</svg>
