<svg width="70" height="70" viewBox="0 0 70 70" fill="none" xmlns="http://www.w3.org/2000/svg">
<g id="Vector">
<path d="M35 0C15.697 0 0 15.697 0 35C0 54.303 15.697 70 35 70C54.303 70 70 54.303 70 35C70 15.697 54.2948 0 35 0ZM35 67.4947C17.077 67.4947 2.50528 52.9148 2.50528 35C2.50528 17.0852 17.077 2.50528 35 2.50528C52.923 2.50528 67.4947 17.0852 67.4947 35C67.4947 52.9148 52.9148 67.4947 35 67.4947Z" fill="#6D6E71"/>
<path d="M57.7036 20.379C50.2453 7.45834 33.7268 3.03919 20.8144 10.4893C8.43581 17.6355 3.85238 33.1108 10.0704 45.7522C4.70664 34.5811 8.78902 20.9786 19.7055 14.6703C31.1558 8.05797 45.8015 11.9843 52.4138 23.4346C53.1037 24.6257 53.6787 25.8496 54.1305 27.0981L60.5867 27.5745C59.9953 25.1103 59.0425 22.6872 57.7118 20.379H57.7036Z" fill="#82AFB8"/>
<path d="M37.8667 29.3816L31.6322 14.2431C31.4023 13.6764 30.7944 13.3642 30.203 13.4957C29.6116 13.6271 29.1927 14.1692 29.2255 14.777L30.0552 31.0655C29.168 32.1826 28.6752 33.5543 28.6752 34.9918C28.6752 38.4745 31.509 41.3084 35 41.3084C38.491 41.3084 41.3248 38.4745 41.3248 34.9918C41.3248 32.5933 39.9859 30.4576 37.8749 29.3816H37.8667ZM34.9918 38.8113C32.889 38.8113 31.1723 37.1028 31.1723 34.9918C31.1723 34.0143 31.5501 33.0861 32.2237 32.3715C32.4454 32.1415 32.5686 31.8294 32.5686 31.509C32.5686 31.509 32.5686 31.4598 32.5686 31.4351L32.084 21.9315L35.7228 30.7616C35.7639 30.8683 35.8296 30.9587 35.8953 31.049C35.9118 31.0655 35.9282 31.0901 35.9446 31.1065C36.0185 31.1887 36.0925 31.2626 36.191 31.3283C36.2567 31.3694 36.3307 31.4105 36.4046 31.4433C37.8585 32.0347 38.8031 33.4229 38.8031 34.9836C38.8031 37.0864 37.0864 38.8031 34.9836 38.8031L34.9918 38.8113Z" fill="#6D6E71"/>
</g>
</svg>
