<svg width="29" height="29" viewBox="0 0 29 29" fill="none" xmlns="http://www.w3.org/2000/svg">
<g id="Group">
<path id="Vector" d="M12.0402 10.2934C11.8506 10.1167 11.5999 10.0206 11.3408 10.0251C11.0818 10.0297 10.8346 10.1347 10.6514 10.3179C10.4682 10.5011 10.3632 10.7483 10.3586 11.0073C10.3541 11.2664 10.4502 11.5171 10.6269 11.7067L13.2535 14.3334L10.6269 16.96C10.5286 17.0516 10.4498 17.162 10.3952 17.2847C10.3405 17.4073 10.3111 17.5397 10.3087 17.674C10.3064 17.8083 10.3311 17.9417 10.3814 18.0662C10.4317 18.1907 10.5065 18.3038 10.6015 18.3988C10.6964 18.4937 10.8096 18.5686 10.9341 18.6189C11.0586 18.6692 11.192 18.6939 11.3262 18.6915C11.4605 18.6891 11.5929 18.6597 11.7156 18.6051C11.8383 18.5504 11.9487 18.4716 12.0402 18.3734L14.6669 15.7467L17.2935 18.3734C17.4831 18.55 17.7338 18.6462 17.9929 18.6416C18.252 18.637 18.4992 18.5321 18.6824 18.3489C18.8656 18.1657 18.9705 17.9185 18.9751 17.6594C18.9797 17.4003 18.8835 17.1496 18.7069 16.96L16.0802 14.3334L18.7069 11.7067C18.8051 11.6152 18.8839 11.5048 18.9386 11.3821C18.9932 11.2594 19.0226 11.127 19.025 10.9927C19.0274 10.8585 19.0027 10.7251 18.9524 10.6006C18.9021 10.4761 18.8272 10.363 18.7323 10.268C18.6373 10.173 18.5242 10.0982 18.3997 10.0479C18.2752 9.99758 18.1418 9.97288 18.0075 9.97525C17.8732 9.97762 17.7408 10.007 17.6182 10.0617C17.4955 10.1163 17.3851 10.1951 17.2935 10.2934L14.6669 12.92L12.0402 10.2934Z" fill="white"/>
<path id="Vector_2" fill-rule="evenodd" clip-rule="evenodd" d="M14.6668 0C6.75083 0 0.333496 6.41733 0.333496 14.3333C0.333496 22.2493 6.75083 28.6667 14.6668 28.6667C22.5828 28.6667 29.0002 22.2493 29.0002 14.3333C29.0002 6.41733 22.5828 0 14.6668 0ZM2.3335 14.3333C2.3335 11.0623 3.6329 7.9253 5.94585 5.61235C8.25879 3.2994 11.3958 2 14.6668 2C17.9378 2 21.0749 3.2994 23.3878 5.61235C25.7008 7.9253 27.0002 11.0623 27.0002 14.3333C27.0002 17.6043 25.7008 20.7414 23.3878 23.0543C21.0749 25.3673 17.9378 26.6667 14.6668 26.6667C11.3958 26.6667 8.25879 25.3673 5.94585 23.0543C3.6329 20.7414 2.3335 17.6043 2.3335 14.3333Z" fill="white"/>
</g>
</svg>
